<?xml version="1.0" encoding="UTF-8" standalone="no"?>
<!-- Created with Inkscape (http://www.inkscape.org/) -->

<svg
   width="1023.9999"
   height="1023.9999"
   viewBox="0 0 270.93331 270.93331"
   version="1.1"
   id="svg1"
   xml:space="preserve"
   inkscape:version="1.3 (0e150ed, 2023-07-21)"
   sodipodi:docname="oshit.svg"
   inkscape:export-filename="../Documents/Computarias/oshit/logo.svg"
   inkscape:export-xdpi="96"
   inkscape:export-ydpi="96"
   xmlns:inkscape="http://www.inkscape.org/namespaces/inkscape"
   xmlns:sodipodi="http://sodipodi.sourceforge.net/DTD/sodipodi-0.dtd"
   xmlns="http://www.w3.org/2000/svg"
   xmlns:svg="http://www.w3.org/2000/svg"><sodipodi:namedview
     id="namedview1"
     pagecolor="#ffffff"
     bordercolor="#000000"
     borderopacity="0.25"
     inkscape:showpageshadow="2"
     inkscape:pageopacity="0.0"
     inkscape:pagecheckerboard="0"
     inkscape:deskcolor="#d1d1d1"
     inkscape:document-units="mm"
     inkscape:zoom="0.51311856"
     inkscape:cx="531.06635"
     inkscape:cy="497.93561"
     inkscape:window-width="1680"
     inkscape:window-height="1026"
     inkscape:window-x="0"
     inkscape:window-y="24"
     inkscape:window-maximized="0"
     inkscape:current-layer="layer1" /><defs
     id="defs1" /><g
     inkscape:label="Camada 1"
     inkscape:groupmode="layer"
     id="layer1"><path
       id="path1"
       style="fill:#f1502f;fill-opacity:1;stroke:none;stroke-width:0.523067"
       d="m 98.91516,11.334169 c -8.609381,23.676314 -9.603123,46.388959 -3.726517,69.57718 9.939917,10.358353 20.202537,20.403121 30.353967,30.553481 4.60631,-1.55668 9.72541,-1.05792 13.99623,1.45423 z M 89.619807,95.263066 C 43.633034,109.82774 32.580379,150.08896 72.325559,174.26139 c -34.03791,-0.0366 -66.0871573,34.549 -36.152887,66.19425 26.804999,26.22795 130.948798,13.54977 150.436548,-9.8282 l -16.66141,-41.66432 c -1.78079,-0.81714 -3.45715,-1.93911 -4.9249,-3.4058 -4.93304,-4.9379 -6.17479,-12.16489 -3.74098,-18.26432 l -0.15138,-0.38131 -22.66482,-22.66215 v 60.18274 c 1.61318,0.79892 3.13823,1.86242 4.48161,3.20575 6.62097,6.62098 6.62097,17.35032 0,23.97852 -6.62089,6.61852 -17.35703,6.61852 -23.97308,0 -6.62097,-6.63054 -6.62097,-17.35994 0,-23.97852 1.63711,-1.63472 3.53231,-2.8722 5.5547,-3.70043 v -60.74202 c -2.02239,-0.82807 -3.91277,-2.05367 -5.5547,-3.70043 -5.01507,-5.01265 -6.22315,-12.37599 -3.65178,-18.53461 z M 147.21542,132.1159 c -0.0868,0.30652 -0.14437,0.61951 -0.24867,0.92173 l 1.02715,1.02715 z"
       sodipodi:nodetypes="cccccccccccccccscccccccccccc" /><path
       id="path1-7"
       style="fill:#f1502f;fill-opacity:1;stroke:none;stroke-width:0.523067;stroke-opacity:1"
       d="m 99.066525,11.1801 c -1.306028,27.859014 13.184595,63.765819 24.562335,98.37099 l 1.91374,1.91374 c 5.9131,-1.99831 12.69307,-0.65685 17.40474,4.05723 4.7406,4.74297 6.06824,11.58081 4.01939,17.51557 l 24.5245,24.5218 c 5.93475,-2.0465 12.77738,-0.72354 17.51557,4.02211 6.62086,6.62087 6.62086,17.35 0,23.97578 -6.62584,6.62328 -17.35571,6.62328 -23.9839,0 -4.97885,-4.98377 -6.20978,-12.30277 -3.68422,-18.4373 l -22.87295,-22.87027 v 60.18274 c 1.61319,0.79893 3.13822,1.86242 4.48161,3.20576 6.62096,6.62097 6.62096,17.35032 0,23.97851 -6.62086,6.61851 -17.35699,6.61851 -23.97308,0 -4.64623,-4.65294 -6.01845,-11.31973 -4.14373,-17.17226 -7.10889,4.60005 -16.231083,8.22344 -27.765414,10.6742 19.487754,23.37792 123.631534,36.05616 150.436534,9.82817 C 267.43594,203.30161 235.38668,168.716 201.34878,168.75262 243.52,143.10475 228.53447,99.319952 175.27545,87.362 193.75647,70.451969 187.01417,51.738847 151.20507,41.813421 101.62812,28.071884 104.40369,25.857635 99.066525,11.1801 Z" /><path
       id="path2"
       style="fill:none;fill-opacity:1;stroke:#474747;stroke-width:4.7076;stroke-dasharray:none;stroke-opacity:1"
       d="m 101.388,12.698492 c -3.189352,0.968546 -3.382379,3.886018 -4.161502,6.53746 -6.119577,20.825563 -6.312796,41.020731 -1.099883,61.590126 9.939925,10.358353 19.264565,20.488392 29.415995,30.638752 4.60631,-1.55668 9.72541,-1.05792 13.99623,1.45423 m 12.09275,134.79118 c 15.32054,-4.25784 29.48375,-10.49222 34.97763,-17.0828 m -16.66141,-41.66432 c -1.78079,-0.81714 -3.45715,-1.93911 -4.9249,-3.4058 -4.93304,-4.9379 -6.17479,-12.16489 -3.74098,-18.26432 l -0.15138,-0.38131 -22.66482,-22.66215 v 60.18274 c 1.61318,0.79892 3.13823,1.86242 4.48161,3.20575 6.62097,6.62098 6.62097,17.35032 0,23.97852 -6.62089,6.61852 -17.35703,6.61852 -23.97308,0 -6.62097,-6.63054 -6.62097,-17.35994 0,-23.97852 1.63711,-1.63472 3.53231,-2.8722 5.5547,-3.70043 v -60.74202 c -2.02239,-0.82807 -3.91277,-2.05367 -5.5547,-3.70043 -5.01507,-5.01265 -6.22315,-12.37599 -3.65178,-18.53461 L 89.619807,95.263066 C 43.633034,109.82774 32.580379,150.08896 72.325559,174.26139 c -34.03791,-0.0366 -66.0871573,34.549 -36.152887,66.19425 19.248277,18.83389 76.434828,18.10012 115.458918,7.2546 M 147.21542,132.1159 c -0.0868,0.30652 -0.14437,0.61951 -0.24867,0.92173 l 1.02715,1.02715 z"
       sodipodi:nodetypes="cscccccccccccsccccccccccccccc" /><path
       id="path3"
       style="fill:none;fill-opacity:1;stroke:#474747;stroke-width:4.7076;stroke-dasharray:none;stroke-opacity:1"
       d="m 151.40116,247.81339 c 33.61578,3.80401 71.85546,1.07188 86.10049,-12.86652 C 267.43594,203.30161 235.38668,168.716 201.34878,168.75262 243.52,143.10475 228.53447,99.319952 175.27545,87.362 193.75649,70.451969 187.01417,51.738847 151.20507,41.813421 101.62812,28.071884 104.2499,27.626273 98.912733,12.948738 M 125.5426,111.46483 c 5.9131,-1.99831 12.69307,-0.65685 17.40474,4.05723 4.7406,4.74297 6.06824,11.58081 4.01939,17.51557 l 24.5245,24.5218 c 5.93475,-2.0465 12.77736,-0.72354 17.51556,4.02211 6.62086,6.62087 6.62086,17.35 0,23.97578 -6.62584,6.62328 -17.3557,6.62328 -23.98389,0"
       sodipodi:nodetypes="ccccsccsccccc" /></g></svg>
