<?xml version="1.0" encoding="UTF-8" standalone="no"?>
<!-- Created with Inkscape (http://www.inkscape.org/) -->

<svg
   version="1.1"
   id="svg2"
   width="1058"
   height="595"
   viewBox="0 0 1058 595"
   sodipodi:docname="3-way-merge-en.svg"
   inkscape:version="1.2.2 (b0a8486541, 2022-12-01)"
   xmlns:inkscape="http://www.inkscape.org/namespaces/inkscape"
   xmlns:sodipodi="http://sodipodi.sourceforge.net/DTD/sodipodi-0.dtd"
   xmlns="http://www.w3.org/2000/svg"
   xmlns:svg="http://www.w3.org/2000/svg">
  <defs
     id="defs6">
    <marker
       style="overflow:visible;"
       id="Arrow2Mend"
       refX="0.0"
       refY="0.0"
       orient="auto"
       inkscape:stockid="Arrow2Mend"
       inkscape:isstock="true">
      <path
         transform="scale(0.6) rotate(180) translate(0,0)"
         d="M 8.7185878,4.0337352 L -2.2072895,0.016013256 L 8.7185884,-4.0017078 C 6.9730900,-1.6296469 6.9831476,1.6157441 8.7185878,4.0337352 z "
         style="stroke:context-stroke;fill-rule:evenodd;fill:context-stroke;stroke-width:0.62500000;stroke-linejoin:round;"
         id="path2113" />
    </marker>
    <marker
       style="overflow:visible"
       id="Arrow2Mstart"
       refX="0"
       refY="0"
       orient="auto"
       inkscape:stockid="Arrow2Mstart"
       inkscape:isstock="true">
      <path
         transform="scale(0.6)"
         d="M 8.7185878,4.0337352 -2.2072895,0.01601326 8.7185884,-4.0017078 c -1.7454984,2.3720609 -1.7354408,5.6174519 -6e-7,8.035443 z"
         style="fill:context-stroke;fill-rule:evenodd;stroke:context-stroke;stroke-width:0.625;stroke-linejoin:round"
         id="path1480" />
    </marker>
  </defs>
  <sodipodi:namedview
     id="namedview4"
     pagecolor="#ffffff"
     bordercolor="#666666"
     borderopacity="1.0"
     inkscape:pageshadow="2"
     inkscape:pageopacity="0.0"
     inkscape:pagecheckerboard="0"
     showgrid="false"
     inkscape:snap-bbox="true"
     inkscape:snap-bbox-midpoints="true"
     inkscape:zoom="0.41365747"
     inkscape:cx="529.42354"
     inkscape:cy="512.50133"
     inkscape:window-width="1440"
     inkscape:window-height="2560"
     inkscape:window-x="0"
     inkscape:window-y="0"
     inkscape:window-maximized="1"
     inkscape:current-layer="g8"
     inkscape:showpageshadow="2"
     inkscape:deskcolor="#d1d1d1" />
  <g
     inkscape:groupmode="layer"
     inkscape:label="Image"
     id="g8">
    <ellipse
       style="fill:#0000ff;stroke-width:20"
       id="circle1111"
       cx="88.777946"
       cy="135.09442"
       rx="29.773424"
       ry="29.773399" />
    <ellipse
       style="fill:#0000ff;stroke-width:20"
       id="circle1113"
       cx="228.77811"
       cy="135.09442"
       rx="29.773424"
       ry="29.773399" />
    <g
       id="path1115">
      <path
         style="color:#000000;fill:#000000;-inkscape-stroke:none"
         d="m 125.84961,132.62305 v 4.91406 h 72.42969 v -4.91406 z"
         id="path1409" />
      <g
         id="g1399">
        <g
           id="path1401">
          <path
             style="color:#000000;fill:#000000;fill-rule:evenodd;stroke-width:1.84246;stroke-linejoin:round;-inkscape-stroke:none"
             d="m 151.55235,146.97126 -32.20881,-11.84399 32.20881,-11.844 c -5.14562,6.99269 -5.11597,16.5599 0,23.68799 z"
             id="path1405" />
          <path
             style="color:#000000;fill:#000000;fill-rule:evenodd;stroke-linejoin:round;-inkscape-stroke:none"
             d="m 151.23437,122.41797 -32.20898,11.84375 a 0.92132214,0.92132214 0 0 0 0,1.73047 l 32.20898,11.84375 a 0.92132214,0.92132214 0 0 0 1.06641,-1.40235 c -4.88927,-6.81222 -4.91274,-15.93526 -0.006,-22.60351 a 0.92132214,0.92132214 0 0 0 -1.06055,-1.41211 z m -1.86132,2.64844 c -3.42066,6.23931 -3.38876,13.82249 0.0351,20.13476 l -27.39257,-10.07422 z"
             id="path1407" />
        </g>
      </g>
    </g>
    <g
       id="path1806">
      <path
         style="color:#000000;fill:#000000;-inkscape-stroke:none"
         d="m 265.84961,132.62305 v 4.91406 h 72.42969 v -4.91406 z"
         id="path1395" />
      <g
         id="g1385">
        <g
           id="path1387">
          <path
             style="color:#000000;fill:#000000;fill-rule:evenodd;stroke-width:1.84246;stroke-linejoin:round;-inkscape-stroke:none"
             d="m 291.55235,146.97126 -32.20881,-11.84399 32.20881,-11.844 c -5.14562,6.99269 -5.11597,16.5599 0,23.68799 z"
             id="path1391" />
          <path
             style="color:#000000;fill:#000000;fill-rule:evenodd;stroke-linejoin:round;-inkscape-stroke:none"
             d="m 291.23437,122.41797 -32.20898,11.84375 a 0.92132214,0.92132214 0 0 0 0,1.73047 l 32.20898,11.84375 a 0.92132214,0.92132214 0 0 0 1.06641,-1.40235 c -4.88927,-6.81222 -4.91274,-15.93526 -0.006,-22.60351 a 0.92132214,0.92132214 0 0 0 -1.06055,-1.41211 z m -1.86132,2.64844 c -3.42066,6.23931 -3.38876,13.82249 0.0352,20.13476 l -27.39258,-10.07422 z"
             id="path1393" />
        </g>
      </g>
    </g>
    <ellipse
       style="fill:#0000ff;stroke-width:20"
       id="ellipse1808"
       cx="368.77811"
       cy="135.09442"
       rx="29.773424"
       ry="29.773399" />
    <ellipse
       style="fill:#0000ff;stroke-width:20"
       id="ellipse1810"
       cx="228.77811"
       cy="235.09442"
       rx="29.773424"
       ry="29.773399" />
    <g
       id="path1812">
      <path
         style="color:#000000;fill:#000000;-inkscape-stroke:none"
         d="m 115.61523,160.02344 -2.71484,4.0957 87.4707,57.99023 2.71485,-4.09375 z"
         id="path1377" />
      <g
         id="g1367">
        <g
           id="path1369">
          <path
             style="color:#000000;fill:#000000;fill-rule:evenodd;stroke-width:1.84246;stroke-linejoin:round;-inkscape-stroke:none"
             d="m 129.10819,186.1842 -20.30031,-27.6692 33.3896,7.92606 c -8.15266,2.98485 -13.4145,10.97519 -13.08929,19.74314 z"
             id="path1373" />
          <path
             style="color:#000000;fill:#000000;fill-rule:evenodd;stroke-linejoin:round;-inkscape-stroke:none"
             d="m 109.02148,157.61914 a 0.92132214,0.92132214 0 0 0 -0.95703,1.44141 l 20.30078,27.66797 a 0.92132214,0.92132214 0 0 0 1.66407,-0.57813 c -0.3108,-8.37942 4.70997,-15.99739 12.48437,-18.84375 a 0.92132214,0.92132214 0 0 0 -0.10351,-1.76172 z m 2.01172,2.37109 28.36328,6.73243 c -6.29855,3.31006 -10.46331,9.6479 -11.09765,16.80078 z"
             id="path1375" />
        </g>
      </g>
    </g>
    <g
       id="path1985">
      <path
         style="color:#000000;fill:#000000;-inkscape-stroke:none"
         d="m 347.35742,156.02344 -87.4707,57.99218 2.71484,4.09375 87.47071,-57.99023 z"
         id="path1363" />
      <g
         id="g1353">
        <g
           id="path1355">
          <path
             style="color:#000000;fill:#000000;fill-rule:evenodd;stroke-width:1.84246;stroke-linejoin:round;-inkscape-stroke:none"
             d="m 289.23658,211.7711 -33.38959,7.92606 20.30032,-27.6692 c -0.42475,8.67149 4.88652,16.62905 13.08927,19.74314 z"
             id="path1359" />
          <path
             style="color:#000000;fill:#000000;fill-rule:evenodd;stroke-linejoin:round;-inkscape-stroke:none"
             d="m 276.06836,191.10937 a 0.92132214,0.92132214 0 0 0 -0.66406,0.37305 l -20.30078,27.66992 a 0.92132214,0.92132214 0 0 0 0.95703,1.44141 l 33.38867,-7.92578 a 0.92132214,0.92132214 0 0 0 0.11523,-1.75781 c -7.83926,-2.9761 -12.90113,-10.56874 -12.49609,-18.83789 a 0.92132214,0.92132214 0 0 0 -1,-0.9629 z m -0.75195,3.60938 c 0.59695,7.09045 4.81424,13.39288 11.15625,16.76172 l -28.40039,6.74219 z"
             id="path1361" />
        </g>
      </g>
    </g>
    <ellipse
       style="fill:#008000;stroke-width:4.913;stroke-dasharray:4.913, 4.913"
       id="path2400"
       cx="88.777946"
       cy="135.09442"
       rx="12.799814"
       ry="12.923018" />
    <ellipse
       style="fill:#ffff00;stroke-width:4.913;stroke-dasharray:4.913, 4.913"
       id="ellipse2482"
       cx="228.77795"
       cy="135.09442"
       rx="12.799814"
       ry="12.923018" />
    <ellipse
       style="fill:#ffff00;stroke-width:4.913;stroke-dasharray:4.913, 4.913"
       id="ellipse2502"
       cx="228.77795"
       cy="135.09442"
       rx="12.799814"
       ry="12.923018" />
    <ellipse
       style="fill:#ffff00;stroke-width:4.913;stroke-dasharray:4.913, 4.913"
       id="ellipse2504"
       cx="228.77795"
       cy="235.09442"
       rx="12.799814"
       ry="12.923018" />
    <ellipse
       style="fill:#ffff00;stroke-width:4.913;stroke-dasharray:4.913, 4.913"
       id="ellipse2506"
       cx="368.77795"
       cy="135.09442"
       rx="12.799814"
       ry="12.923018" />
    <g
       aria-label="A = B =&gt; A ou B"
       id="text4724"
       style="font-weight:bold;font-size:40px;-inkscape-font-specification:'sans-serif Bold'">
      <path
         d="m 105.39787,49.234421 -2.08,-6.8 H 92.917871 l -2.08,6.8 h -6.52 l 10.08,-28.68 h 7.399999 l 10.12,28.68 z m -5.599999,-18.52 q -0.2,-0.68 -0.52,-1.72 -0.32,-1.04 -0.64,-2.12 -0.32,-1.08 -0.52,-1.88 -0.2,0.8 -0.56,2 -0.32,1.16 -0.64,2.24 -0.28,1.04 -0.44,1.48 l -2.04,6.64 h 7.439999 z"
         style="fill:#d4aa00"
         id="path1304" />
      <path
         d="m 124.0379,33.474421 v -4.24 h 19.4 v 4.24 z m 0,7.6 v -4.28 h 19.4 v 4.28 z"
         id="path1306" />
      <path
         d="m 168.07793,20.674421 q 5.72,0 8.64,1.6 2.92,1.6 2.92,5.64 0,2.44 -1.16,4.12 -1.12,1.68 -3.24,2.04 v 0.2 q 1.44,0.28 2.6,1 1.16,0.72 1.84,2.08 0.68,1.36 0.68,3.6 0,3.88 -2.8,6.08 -2.8,2.2 -7.68,2.2 h -10.68 v -28.56 z m 0.68,11.32 q 2.64,0 3.64,-0.84 1.04,-0.84 1.04,-2.44 0,-1.64 -1.2,-2.36 -1.2,-0.72 -3.8,-0.72 h -3.2 v 6.36 z m -3.52,4.8 v 7.44 h 3.96 q 2.72,0 3.8,-1.04 1.08,-1.08 1.08,-2.84 0,-1.6 -1.12,-2.56 -1.08,-1 -3.96,-1 z"
         style="fill:#d4aa00"
         id="path1308" />
      <path
         d="m 194.59798,33.474421 v -4.24 h 19.4 v 4.24 z m 0,7.6 v -4.28 h 19.4 v 4.28 z"
         id="path1310" />
      <path
         d="m 217.478,40.594421 13.36,-5.48 -13.36,-6.2 v -4.68 l 19.4,9.68 v 2.8 l -19.4,8.56 z"
         id="path1312" />
      <path
         d="m 270.11802,49.234421 -2.08,-6.8 h -10.4 l -2.08,6.8 h -6.52 l 10.08,-28.68 h 7.4 l 10.12,28.68 z m -5.6,-18.52 q -0.2,-0.68 -0.52,-1.72 -0.32,-1.04 -0.64,-2.12 -0.32,-1.08 -0.52,-1.88 -0.2,0.8 -0.56,2 -0.32,1.16 -0.64,2.24 -0.28,1.04 -0.44,1.48 l -2.04,6.64 h 7.44 z"
         style="fill:#d4aa00"
         id="path1314" />
      <path
         d="m 309.99806,38.274421 q 0,5.44 -2.88,8.4 -2.84,2.96 -7.76,2.96 -3.04,0 -5.44,-1.32 -2.36,-1.32 -3.72,-3.84 -1.36,-2.56 -1.36,-6.2 0,-5.44 2.84,-8.36 2.84,-2.92 7.8,-2.92 3.08,0 5.44,1.32 2.36,1.32 3.72,3.84 1.36,2.48 1.36,6.12 z m -15.08,0 q 0,3.24 1.04,4.92 1.08,1.64 3.48,1.64 2.36,0 3.4,-1.64 1.08,-1.68 1.08,-4.92 0,-3.24 -1.08,-4.84 -1.04,-1.64 -3.44,-1.64 -2.36,0 -3.44,1.64 -1.04,1.6 -1.04,4.84 z"
         id="path1316" />
      <path
         d="m 334.95803,27.394421 v 21.84 h -4.56 l -0.8,-2.8 h -0.32 q -1.04,1.68 -2.88,2.44 -1.8,0.76 -3.84,0.76 -3.52,0 -5.64,-1.88 -2.12,-1.92 -2.12,-6.12 v -14.24 h 5.96 v 12.76 q 0,2.32 0.84,3.52 0.84,1.2 2.68,1.2 2.72,0 3.72,-1.84 1,-1.88 1,-5.36 v -10.28 z"
         id="path1318" />
      <path
         d="m 360.95803,20.674421 q 5.72,0 8.64,1.6 2.92,1.6 2.92,5.64 0,2.44 -1.16,4.12 -1.12,1.68 -3.24,2.04 v 0.2 q 1.44,0.28 2.6,1 1.16,0.72 1.84,2.08 0.68,1.36 0.68,3.6 0,3.88 -2.8,6.08 -2.8,2.2 -7.68,2.2 h -10.68 v -28.56 z m 0.68,11.32 q 2.64,0 3.64,-0.84 1.04,-0.84 1.04,-2.44 0,-1.64 -1.2,-2.36 -1.2,-0.72 -3.8,-0.72 h -3.2 v 6.36 z m -3.52,4.8 v 7.44 h 3.96 q 2.72,0 3.8,-1.04 1.08,-1.08 1.08,-2.84 0,-1.6 -1.12,-2.56 -1.08,-1 -3.96,-1 z"
         style="fill:#d4aa00"
         id="path1320" />
    </g>
    <ellipse
       style="fill:#0000ff;stroke-width:20"
       id="ellipse6982"
       cx="88.777946"
       cy="455.09442"
       rx="29.773424"
       ry="29.773399" />
    <ellipse
       style="fill:#0000ff;stroke-width:20"
       id="ellipse6984"
       cx="228.77811"
       cy="455.09442"
       rx="29.773424"
       ry="29.773399" />
    <g
       id="path6986">
      <path
         style="color:#000000;fill:#000000;-inkscape-stroke:none"
         d="m 125.84961,452.62305 v 4.91406 h 72.42969 v -4.91406 z"
         id="path1298" />
      <g
         id="g1288">
        <g
           id="path1290">
          <path
             style="color:#000000;fill:#000000;fill-rule:evenodd;stroke-width:1.84246;stroke-linejoin:round;-inkscape-stroke:none"
             d="m 151.55235,466.97126 -32.20881,-11.84399 32.20881,-11.844 c -5.14562,6.99269 -5.11597,16.5599 0,23.68799 z"
             id="path1294" />
          <path
             style="color:#000000;fill:#000000;fill-rule:evenodd;stroke-linejoin:round;-inkscape-stroke:none"
             d="m 151.23437,442.41797 -32.20898,11.84375 a 0.92132214,0.92132214 0 0 0 0,1.73047 l 32.20898,11.84375 a 0.92132214,0.92132214 0 0 0 1.06641,-1.40235 c -4.88927,-6.81222 -4.91274,-15.93526 -0.006,-22.60351 a 0.92132214,0.92132214 0 0 0 -1.06055,-1.41211 z m -1.86132,2.64844 c -3.42066,6.23931 -3.38876,13.82249 0.0351,20.13476 l -27.39257,-10.07422 z"
             id="path1296" />
        </g>
      </g>
    </g>
    <g
       id="path6988">
      <path
         style="color:#000000;fill:#000000;-inkscape-stroke:none"
         d="m 265.84961,452.62305 v 4.91406 h 72.42969 v -4.91406 z"
         id="path1284" />
      <g
         id="g1274">
        <g
           id="path1276">
          <path
             style="color:#000000;fill:#000000;fill-rule:evenodd;stroke-width:1.84246;stroke-linejoin:round;-inkscape-stroke:none"
             d="m 291.55235,466.97126 -32.20881,-11.84399 32.20881,-11.844 c -5.14562,6.99269 -5.11597,16.5599 0,23.68799 z"
             id="path1280" />
          <path
             style="color:#000000;fill:#000000;fill-rule:evenodd;stroke-linejoin:round;-inkscape-stroke:none"
             d="m 291.23437,442.41797 -32.20898,11.84375 a 0.92132214,0.92132214 0 0 0 0,1.73047 l 32.20898,11.84375 a 0.92132214,0.92132214 0 0 0 1.06641,-1.40235 c -4.88927,-6.81222 -4.91274,-15.93526 -0.006,-22.60351 a 0.92132214,0.92132214 0 0 0 -1.06055,-1.41211 z m -1.86132,2.64844 c -3.42066,6.23931 -3.38876,13.82249 0.0352,20.13476 l -27.39258,-10.07422 z"
             id="path1282" />
        </g>
      </g>
    </g>
    <ellipse
       style="fill:#0000ff;stroke-width:20"
       id="ellipse6990"
       cx="368.77811"
       cy="455.09442"
       rx="29.773424"
       ry="29.773399" />
    <ellipse
       style="fill:#0000ff;stroke-width:20"
       id="ellipse6992"
       cx="228.77811"
       cy="555.09442"
       rx="29.773424"
       ry="29.773399" />
    <g
       id="path6994">
      <path
         style="color:#000000;fill:#000000;-inkscape-stroke:none"
         d="m 115.61523,480.02344 -2.71484,4.0957 87.4707,57.99023 2.71485,-4.09375 z"
         id="path1266" />
      <g
         id="g1256">
        <g
           id="path1258">
          <path
             style="color:#000000;fill:#000000;fill-rule:evenodd;stroke-width:1.84246;stroke-linejoin:round;-inkscape-stroke:none"
             d="m 129.10819,506.1842 -20.30031,-27.6692 33.3896,7.92606 c -8.15266,2.98485 -13.4145,10.97519 -13.08929,19.74314 z"
             id="path1262" />
          <path
             style="color:#000000;fill:#000000;fill-rule:evenodd;stroke-linejoin:round;-inkscape-stroke:none"
             d="m 109.02148,477.61914 a 0.92132214,0.92132214 0 0 0 -0.95703,1.44141 l 20.30078,27.66797 a 0.92132214,0.92132214 0 0 0 1.66407,-0.57813 c -0.3108,-8.37942 4.70997,-15.99739 12.48437,-18.84375 a 0.92132214,0.92132214 0 0 0 -0.10351,-1.76172 z m 2.01172,2.37109 28.36328,6.73243 c -6.29855,3.31006 -10.46331,9.6479 -11.09765,16.80078 z"
             id="path1264" />
        </g>
      </g>
    </g>
    <g
       id="path6996">
      <path
         style="color:#000000;fill:#000000;-inkscape-stroke:none"
         d="m 347.35742,476.02344 -87.4707,57.99218 2.71484,4.09375 87.47071,-57.99023 z"
         id="path1252" />
      <g
         id="g1242">
        <g
           id="path1244">
          <path
             style="color:#000000;fill:#000000;fill-rule:evenodd;stroke-width:1.84246;stroke-linejoin:round;-inkscape-stroke:none"
             d="m 289.23658,531.7711 -33.38959,7.92606 20.30032,-27.6692 c -0.42475,8.67149 4.88652,16.62905 13.08927,19.74314 z"
             id="path1248" />
          <path
             style="color:#000000;fill:#000000;fill-rule:evenodd;stroke-linejoin:round;-inkscape-stroke:none"
             d="m 276.06836,511.10937 a 0.92132214,0.92132214 0 0 0 -0.66406,0.37305 l -20.30078,27.66992 a 0.92132214,0.92132214 0 0 0 0.95703,1.44141 l 33.38867,-7.92578 a 0.92132214,0.92132214 0 0 0 0.11523,-1.75781 c -7.83926,-2.9761 -12.90113,-10.56874 -12.49609,-18.83789 a 0.92132214,0.92132214 0 0 0 -1,-0.9629 z m -0.75195,3.60938 c 0.59695,7.09045 4.81424,13.39288 11.15625,16.76172 l -28.40039,6.74219 z"
             id="path1250" />
        </g>
      </g>
    </g>
    <ellipse
       style="fill:#ffff00;stroke-width:4.913;stroke-dasharray:4.913, 4.913"
       id="ellipse6998"
       cx="88.777946"
       cy="455.09442"
       rx="12.799814"
       ry="12.923018" />
    <ellipse
       style="fill:#ffff00;stroke-width:4.913;stroke-dasharray:4.913, 4.913"
       id="ellipse7000"
       cx="228.77795"
       cy="455.09442"
       rx="12.799814"
       ry="12.923018" />
    <ellipse
       style="fill:#ff0000;stroke-width:4.913;stroke-dasharray:4.913, 4.913"
       id="ellipse7002"
       cx="228.77795"
       cy="455.09442"
       rx="12.799814"
       ry="12.923018" />
    <ellipse
       style="fill:#ffff00;stroke-width:4.913;stroke-dasharray:4.913, 4.913"
       id="ellipse7004"
       cx="228.77795"
       cy="555.09442"
       rx="12.799814"
       ry="12.923018" />
    <ellipse
       style="fill:#ff0000;stroke-width:4.913;stroke-dasharray:4.913, 4.913"
       id="ellipse7006"
       cx="368.77795"
       cy="455.09442"
       rx="12.799814"
       ry="12.923018" />
    <g
       aria-label="O = B =&gt; A"
       id="text7010"
       style="font-weight:bold;font-size:40px;-inkscape-font-specification:'sans-serif Bold'">
      <path
         d="m 158.85789,355.07441 q 0,4.44 -1.48,7.76 -1.44,3.28 -4.44,5.12 -3,1.84 -7.68,1.84 -4.64,0 -7.68,-1.84 -3,-1.84 -4.48,-5.16 -1.44,-3.32 -1.44,-7.76 0,-4.44 1.44,-7.72 1.48,-3.28 4.48,-5.08 3.04,-1.84 7.72,-1.84 4.64,0 7.64,1.84 3,1.8 4.44,5.12 1.48,3.28 1.48,7.72 z m -20.84,0 q 0,4.48 1.72,7.08 1.72,2.56 5.52,2.56 3.88,0 5.56,-2.56 1.68,-2.6 1.68,-7.08 0,-4.52 -1.68,-7.08 -1.68,-2.56 -5.52,-2.56 -3.84,0 -5.56,2.56 -1.72,2.56 -1.72,7.08 z"
         style="fill:#d4aa00"
         id="path1205" />
      <path
         d="m 173.29788,353.63441 v -4.24 h 19.4 v 4.24 z m 0,7.6 v -4.28 h 19.4 v 4.28 z"
         id="path1207" />
      <path
         d="m 217.33791,340.83441 q 5.72,0 8.64,1.6 2.92,1.6 2.92,5.64 0,2.44 -1.16,4.12 -1.12,1.68 -3.24,2.04 v 0.2 q 1.44,0.28 2.6,1 1.16,0.72 1.84,2.08 0.68,1.36 0.68,3.6 0,3.88 -2.8,6.08 -2.8,2.2 -7.68,2.2 h -10.68 v -28.56 z m 0.68,11.32 q 2.64,0 3.64,-0.84 1.04,-0.84 1.04,-2.44 0,-1.64 -1.2,-2.36 -1.2,-0.72 -3.8,-0.72 h -3.2 v 6.36 z m -3.52,4.8 v 7.44 h 3.96 q 2.72,0 3.8,-1.04 1.08,-1.08 1.08,-2.84 0,-1.6 -1.12,-2.56 -1.08,-1 -3.96,-1 z"
         style="fill:#d4aa00"
         id="path1209" />
      <path
         d="m 243.85795,353.63441 v -4.24 h 19.4 v 4.24 z m 0,7.6 v -4.28 h 19.4 v 4.28 z"
         id="path1211" />
      <path
         d="m 266.73797,360.75441 13.36,-5.48 -13.36,-6.2 v -4.68 l 19.4,9.68 v 2.8 l -19.4,8.56 z"
         id="path1213" />
      <path
         d="m 319.378,369.39441 -2.08,-6.8 h -10.4 l -2.08,6.8 h -6.52 l 10.08,-28.68 h 7.4 l 10.12,28.68 z m -5.6,-18.52 q -0.2,-0.68 -0.52,-1.72 -0.32,-1.04 -0.64,-2.12 -0.32,-1.08 -0.52,-1.88 -0.2,0.8 -0.56,2 -0.32,1.16 -0.64,2.24 -0.28,1.04 -0.44,1.48 l -2.04,6.64 h 7.44 z"
         style="fill:#ff0000"
         id="path1215" />
    </g>
    <ellipse
       style="fill:#0000ff;stroke-width:20"
       id="ellipse7012"
       cx="688.77795"
       cy="135.09442"
       rx="29.773424"
       ry="29.773399" />
    <ellipse
       style="fill:#0000ff;stroke-width:20"
       id="ellipse7014"
       cx="828.77808"
       cy="135.09442"
       rx="29.773424"
       ry="29.773399" />
    <g
       id="path7016">
      <path
         style="color:#000000;fill:#000000;-inkscape-stroke:none"
         d="m 725.84961,132.62305 v 4.91406 h 72.42969 v -4.91406 z"
         id="path1199" />
      <g
         id="g1189">
        <g
           id="path1191">
          <path
             style="color:#000000;fill:#000000;fill-rule:evenodd;stroke-width:1.84246;stroke-linejoin:round;-inkscape-stroke:none"
             d="m 751.55235,146.97126 -32.20881,-11.84399 32.20881,-11.844 c -5.14562,6.99269 -5.11597,16.5599 0,23.68799 z"
             id="path1195" />
          <path
             style="color:#000000;fill:#000000;fill-rule:evenodd;stroke-linejoin:round;-inkscape-stroke:none"
             d="m 751.23437,122.41797 -32.20898,11.84375 a 0.92132214,0.92132214 0 0 0 0,1.73047 l 32.20898,11.84375 a 0.92132214,0.92132214 0 0 0 1.06641,-1.40235 c -4.88927,-6.81222 -4.91274,-15.93526 -0.006,-22.60351 a 0.92132214,0.92132214 0 0 0 -1.06055,-1.41211 z m -1.86132,2.64844 c -3.42066,6.23931 -3.38876,13.82249 0.0351,20.13476 l -27.39258,-10.07422 z"
             id="path1197" />
        </g>
      </g>
    </g>
    <g
       id="path7018">
      <path
         style="color:#000000;fill:#000000;-inkscape-stroke:none"
         d="m 865.84961,132.62305 v 4.91406 h 72.42969 v -4.91406 z"
         id="path1185" />
      <g
         id="g1175">
        <g
           id="path1177">
          <path
             style="color:#000000;fill:#000000;fill-rule:evenodd;stroke-width:1.84246;stroke-linejoin:round;-inkscape-stroke:none"
             d="m 891.55235,146.97126 -32.20881,-11.84399 32.20881,-11.844 c -5.14562,6.99269 -5.11597,16.5599 0,23.68799 z"
             id="path1181" />
          <path
             style="color:#000000;fill:#000000;fill-rule:evenodd;stroke-linejoin:round;-inkscape-stroke:none"
             d="m 891.23437,122.41797 -32.20898,11.84375 a 0.92132214,0.92132214 0 0 0 0,1.73047 l 32.20898,11.84375 a 0.92132214,0.92132214 0 0 0 1.06641,-1.40235 c -4.88927,-6.81222 -4.91274,-15.93526 -0.006,-22.60351 a 0.92132214,0.92132214 0 0 0 -1.06055,-1.41211 z m -1.86132,2.64844 c -3.42066,6.23931 -3.38876,13.82249 0.0351,20.13476 l -27.39258,-10.07422 z"
             id="path1183" />
        </g>
      </g>
    </g>
    <ellipse
       style="fill:#0000ff;stroke-width:20"
       id="ellipse7020"
       cx="968.77808"
       cy="135.09442"
       rx="29.773424"
       ry="29.773399" />
    <ellipse
       style="fill:#0000ff;stroke-width:20"
       id="ellipse7022"
       cx="828.77808"
       cy="235.09442"
       rx="29.773424"
       ry="29.773399" />
    <g
       id="path7024">
      <path
         style="color:#000000;fill:#000000;-inkscape-stroke:none"
         d="m 715.61523,160.02344 -2.71484,4.0957 87.4707,57.99023 2.71485,-4.09375 z"
         id="path1167" />
      <g
         id="g1157">
        <g
           id="path1159">
          <path
             style="color:#000000;fill:#000000;fill-rule:evenodd;stroke-width:1.84246;stroke-linejoin:round;-inkscape-stroke:none"
             d="m 729.10819,186.1842 -20.30031,-27.6692 33.3896,7.92606 c -8.15266,2.98485 -13.4145,10.97519 -13.08929,19.74314 z"
             id="path1163" />
          <path
             style="color:#000000;fill:#000000;fill-rule:evenodd;stroke-linejoin:round;-inkscape-stroke:none"
             d="m 709.02148,157.61914 a 0.92132214,0.92132214 0 0 0 -0.95703,1.44141 l 20.30078,27.66797 a 0.92132214,0.92132214 0 0 0 1.66407,-0.57813 c -0.3108,-8.37942 4.70997,-15.99739 12.48437,-18.84375 a 0.92132214,0.92132214 0 0 0 -0.10351,-1.76172 z m 2.01172,2.37109 28.36328,6.73243 c -6.29855,3.31006 -10.46331,9.6479 -11.09765,16.80078 z"
             id="path1165" />
        </g>
      </g>
    </g>
    <g
       id="path7026">
      <path
         style="color:#000000;fill:#000000;-inkscape-stroke:none"
         d="m 947.35742,156.02344 -87.4707,57.99218 2.71484,4.09375 87.47071,-57.99023 z"
         id="path1153" />
      <g
         id="g1143">
        <g
           id="path1145">
          <path
             style="color:#000000;fill:#000000;fill-rule:evenodd;stroke-width:1.84246;stroke-linejoin:round;-inkscape-stroke:none"
             d="m 889.23658,211.7711 -33.38959,7.92606 20.30031,-27.6692 c -0.42474,8.67149 4.88653,16.62905 13.08928,19.74314 z"
             id="path1149" />
          <path
             style="color:#000000;fill:#000000;fill-rule:evenodd;stroke-linejoin:round;-inkscape-stroke:none"
             d="m 876.06836,191.10937 a 0.92132214,0.92132214 0 0 0 -0.66406,0.37305 l -20.30078,27.66992 a 0.92132214,0.92132214 0 0 0 0.95703,1.44141 l 33.38867,-7.92578 a 0.92132214,0.92132214 0 0 0 0.11523,-1.75781 c -7.83926,-2.9761 -12.90112,-10.56874 -12.49609,-18.83789 a 0.92132214,0.92132214 0 0 0 -1,-0.9629 z m -0.75195,3.60938 c 0.59696,7.09045 4.81424,13.39288 11.15625,16.76172 l -28.40039,6.74219 z"
             id="path1151" />
        </g>
      </g>
    </g>
    <ellipse
       style="fill:#ff0000;stroke-width:4.913;stroke-dasharray:4.913, 4.913"
       id="ellipse7028"
       cx="688.77795"
       cy="135.09442"
       rx="12.799814"
       ry="12.923018" />
    <ellipse
       style="fill:#ffff00;stroke-width:4.913;stroke-dasharray:4.913, 4.913"
       id="ellipse7030"
       cx="828.77795"
       cy="135.09442"
       rx="12.799814"
       ry="12.923018" />
    <ellipse
       style="fill:#ff0000;stroke-width:4.913;stroke-dasharray:4.913, 4.913"
       id="ellipse7032"
       cx="828.77795"
       cy="135.09442"
       rx="12.799814"
       ry="12.923018" />
    <ellipse
       style="fill:#ffff00;stroke-width:4.913;stroke-dasharray:4.913, 4.913"
       id="ellipse7034"
       cx="828.77795"
       cy="235.09442"
       rx="12.799814"
       ry="12.923018" />
    <ellipse
       style="fill:#ffff00;stroke-width:4.913;stroke-dasharray:4.913, 4.913"
       id="ellipse7036"
       cx="968.77808"
       cy="135.09442"
       rx="12.799814"
       ry="12.923018" />
    <g
       aria-label="O = A =&gt; B"
       id="text7040"
       style="font-weight:bold;font-size:40px;-inkscape-font-specification:'sans-serif Bold'">
      <path
         d="m 759.91801,35.074417 q 0,4.44 -1.48,7.76 -1.44,3.28 -4.44,5.12 -3,1.84 -7.68,1.84 -4.64,0 -7.68,-1.84 -3,-1.84 -4.48,-5.16 -1.44,-3.32 -1.44,-7.76 0,-4.44 1.44,-7.72 1.48,-3.28 4.48,-5.08 3.04,-1.84 7.72,-1.84 4.64,0 7.64,1.84 3,1.8 4.44,5.12 1.48,3.28 1.48,7.72 z m -20.84,0 q 0,4.48 1.72,7.08 1.72,2.56 5.52,2.56 3.88,0 5.56,-2.56 1.68,-2.6 1.68,-7.08 0,-4.52 -1.68,-7.08 -1.68,-2.56 -5.52,-2.56 -3.84,0 -5.56,2.56 -1.72,2.56 -1.72,7.08 z"
         style="fill:#ff0000"
         id="path1105" />
      <path
         d="m 774.358,33.634417 v -4.24 h 19.4 v 4.24 z m 0,7.6 v -4.28 h 19.4 v 4.28 z"
         id="path1107" />
      <path
         d="m 826.99803,49.394417 -2.08,-6.8 h -10.4 l -2.08,6.8 h -6.52 l 10.08,-28.68 h 7.4 l 10.12,28.68 z m -5.6,-18.52 q -0.2,-0.68 -0.52,-1.72 -0.32,-1.04 -0.64,-2.12 -0.32,-1.08 -0.52,-1.88 -0.2,0.8 -0.56,2 -0.32,1.16 -0.64,2.24 -0.28,1.04 -0.44,1.48 l -2.04,6.64 h 7.44 z"
         style="fill:#ff0000"
         id="path1109" />
      <path
         d="m 845.63806,33.634417 v -4.24 h 19.4 v 4.24 z m 0,7.6 v -4.28 h 19.4 v 4.28 z"
         id="path1111" />
      <path
         d="m 868.51808,40.754417 13.36,-5.48 -13.36,-6.2 v -4.68 l 19.4,9.68 v 2.8 l -19.4,8.56 z"
         id="path1113" />
      <path
         d="m 912.55811,20.834417 q 5.72,0 8.64,1.6 2.92,1.6 2.92,5.64 0,2.44 -1.16,4.12 -1.12,1.68 -3.24,2.04 v 0.2 q 1.44,0.28 2.6,1 1.16,0.72 1.84,2.08 0.68,1.36 0.68,3.6 0,3.88 -2.8,6.08 -2.8,2.2 -7.68,2.2 h -10.68 v -28.56 z m 0.68,11.32 q 2.64,0 3.64,-0.84 1.04,-0.84 1.04,-2.44 0,-1.64 -1.2,-2.36 -1.2,-0.72 -3.8,-0.72 h -3.2 v 6.36 z m -3.52,4.8 v 7.44 h 3.96 q 2.72,0 3.8,-1.04 1.08,-1.08 1.08,-2.84 0,-1.6 -1.12,-2.56 -1.08,-1 -3.96,-1 z"
         style="fill:#d4aa00"
         id="path1116" />
    </g>
    <ellipse
       style="fill:#0000ff;stroke-width:20"
       id="ellipse7042"
       cx="688.77795"
       cy="455.09442"
       rx="29.773424"
       ry="29.773399" />
    <ellipse
       style="fill:#0000ff;stroke-width:20"
       id="ellipse7044"
       cx="828.77808"
       cy="455.09442"
       rx="29.773424"
       ry="29.773399" />
    <g
       id="path7046">
      <path
         style="color:#000000;fill:#000000;-inkscape-stroke:none"
         d="m 725.84961,452.62305 v 4.91406 h 72.42969 v -4.91406 z"
         id="path1099" />
      <g
         id="g1089">
        <g
           id="path1091">
          <path
             style="color:#000000;fill:#000000;fill-rule:evenodd;stroke-width:1.84246;stroke-linejoin:round;-inkscape-stroke:none"
             d="m 751.55235,466.97126 -32.20881,-11.84399 32.20881,-11.844 c -5.14562,6.99269 -5.11597,16.5599 0,23.68799 z"
             id="path1095" />
          <path
             style="color:#000000;fill:#000000;fill-rule:evenodd;stroke-linejoin:round;-inkscape-stroke:none"
             d="m 751.23437,442.41797 -32.20898,11.84375 a 0.92132214,0.92132214 0 0 0 0,1.73047 l 32.20898,11.84375 a 0.92132214,0.92132214 0 0 0 1.06641,-1.40235 c -4.88927,-6.81222 -4.91274,-15.93526 -0.006,-22.60351 a 0.92132214,0.92132214 0 0 0 -1.06055,-1.41211 z m -1.86132,2.64844 c -3.42066,6.23931 -3.38876,13.82249 0.0351,20.13476 l -27.39258,-10.07422 z"
             id="path1097" />
        </g>
      </g>
    </g>
    <g
       id="path7048">
      <path
         style="color:#000000;fill:#000000;-inkscape-stroke:none"
         d="m 865.84961,452.62305 v 4.91406 h 72.42969 v -4.91406 z"
         id="path1085" />
      <g
         id="g1075">
        <g
           id="path1077">
          <path
             style="color:#000000;fill:#000000;fill-rule:evenodd;stroke-width:1.84246;stroke-linejoin:round;-inkscape-stroke:none"
             d="m 891.55235,466.97126 -32.20881,-11.84399 32.20881,-11.844 c -5.14562,6.99269 -5.11597,16.5599 0,23.68799 z"
             id="path1081" />
          <path
             style="color:#000000;fill:#000000;fill-rule:evenodd;stroke-linejoin:round;-inkscape-stroke:none"
             d="m 891.23437,442.41797 -32.20898,11.84375 a 0.92132214,0.92132214 0 0 0 0,1.73047 l 32.20898,11.84375 a 0.92132214,0.92132214 0 0 0 1.06641,-1.40235 c -4.88927,-6.81222 -4.91274,-15.93526 -0.006,-22.60351 a 0.92132214,0.92132214 0 0 0 -1.06055,-1.41211 z m -1.86132,2.64844 c -3.42066,6.23931 -3.38876,13.82249 0.0351,20.13476 l -27.39258,-10.07422 z"
             id="path1083" />
        </g>
      </g>
    </g>
    <ellipse
       style="fill:#0000ff;stroke-width:20"
       id="ellipse7050"
       cx="968.77808"
       cy="455.09442"
       rx="29.773424"
       ry="29.773399" />
    <ellipse
       style="fill:#0000ff;stroke-width:20"
       id="ellipse7052"
       cx="828.77808"
       cy="555.09442"
       rx="29.773424"
       ry="29.773399" />
    <g
       id="path7054">
      <path
         style="color:#000000;fill:#000000;-inkscape-stroke:none"
         d="m 715.61523,480.02344 -2.71484,4.0957 87.4707,57.99023 2.71485,-4.09375 z"
         id="path1067" />
      <g
         id="g1057">
        <g
           id="path1059">
          <path
             style="color:#000000;fill:#000000;fill-rule:evenodd;stroke-width:1.84246;stroke-linejoin:round;-inkscape-stroke:none"
             d="m 729.10819,506.1842 -20.30031,-27.6692 33.3896,7.92606 c -8.15266,2.98485 -13.4145,10.97519 -13.08929,19.74314 z"
             id="path1063" />
          <path
             style="color:#000000;fill:#000000;fill-rule:evenodd;stroke-linejoin:round;-inkscape-stroke:none"
             d="m 709.02148,477.61914 a 0.92132214,0.92132214 0 0 0 -0.95703,1.44141 l 20.30078,27.66797 a 0.92132214,0.92132214 0 0 0 1.66407,-0.57813 c -0.3108,-8.37942 4.70997,-15.99739 12.48437,-18.84375 a 0.92132214,0.92132214 0 0 0 -0.10351,-1.76172 z m 2.01172,2.37109 28.36328,6.73243 c -6.29855,3.31006 -10.46331,9.6479 -11.09765,16.80078 z"
             id="path1065" />
        </g>
      </g>
    </g>
    <g
       id="path7056">
      <path
         style="color:#000000;fill:#000000;-inkscape-stroke:none"
         d="m 947.35742,476.02344 -87.4707,57.99218 2.71484,4.09375 87.47071,-57.99023 z"
         id="path1053" />
      <g
         id="g1043">
        <g
           id="path1045">
          <path
             style="color:#000000;fill:#000000;fill-rule:evenodd;stroke-width:1.84246;stroke-linejoin:round;-inkscape-stroke:none"
             d="m 889.23658,531.7711 -33.38959,7.92606 20.30031,-27.6692 c -0.42474,8.67149 4.88653,16.62905 13.08928,19.74314 z"
             id="path1049" />
          <path
             style="color:#000000;fill:#000000;fill-rule:evenodd;stroke-linejoin:round;-inkscape-stroke:none"
             d="m 876.06836,511.10937 a 0.92132214,0.92132214 0 0 0 -0.66406,0.37305 l -20.30078,27.66992 a 0.92132214,0.92132214 0 0 0 0.95703,1.44141 l 33.38867,-7.92578 a 0.92132214,0.92132214 0 0 0 0.11523,-1.75781 c -7.83926,-2.9761 -12.90112,-10.56874 -12.49609,-18.83789 a 0.92132214,0.92132214 0 0 0 -1,-0.9629 z m -0.75195,3.60938 c 0.59696,7.09045 4.81424,13.39288 11.15625,16.76172 l -28.40039,6.74219 z"
             id="path1051" />
        </g>
      </g>
    </g>
    <ellipse
       style="fill:#008000;stroke-width:4.913;stroke-dasharray:4.913, 4.913"
       id="ellipse7058"
       cx="688.77795"
       cy="455.09442"
       rx="12.799814"
       ry="12.923018" />
    <ellipse
       style="fill:#ffff00;stroke-width:4.913;stroke-dasharray:4.913, 4.913"
       id="ellipse7060"
       cx="828.77795"
       cy="455.09442"
       rx="12.799814"
       ry="12.923018" />
    <ellipse
       style="fill:#ff0000;stroke-width:4.913;stroke-dasharray:4.913, 4.913"
       id="ellipse7062"
       cx="828.77795"
       cy="455.09442"
       rx="12.799814"
       ry="12.923018" />
    <ellipse
       style="fill:#ffff00;stroke-width:4.913;stroke-dasharray:4.913, 4.913"
       id="ellipse7064"
       cx="828.77795"
       cy="555.09442"
       rx="12.799814"
       ry="12.923018" />
    <path
       d="m 644.93364,355.81443 q 0,4.44 -1.48,7.76 -1.44,3.28 -4.44,5.12 -3,1.84 -7.68,1.84 -4.64,0 -7.68,-1.84 -3,-1.84 -4.48,-5.16 -1.44,-3.32 -1.44,-7.76 0,-4.44 1.44,-7.72 1.48,-3.28 4.48,-5.08 3.04,-1.84 7.72,-1.84 4.64,0 7.64,1.84 3,1.8 4.44,5.12 1.48,3.28 1.48,7.72 z m -20.84,0 q 0,4.48 1.72,7.08 1.72,2.56 5.52,2.56 3.88,0 5.56,-2.56 1.68,-2.6 1.68,-7.08 0,-4.52 -1.68,-7.08 -1.68,-2.56 -5.52,-2.56 -3.84,0 -5.56,2.56 -1.72,2.56 -1.72,7.08 z"
       style="font-weight:bold;font-size:40px;-inkscape-font-specification:'sans-serif Bold';fill:#008000"
       id="path972" />
    <path
       d="m 651.4919,350.85709 h 15.44922 l 4.92187,-5.95704 2.91016,2.44141 -2.83203,3.51563 h 4.58984 v 4.58984 h -8.16406 l -3.39844,4.29687 h 11.5625 v 4.62891 h -15.42969 l -4.92187,5.95703 -2.92969,-2.48047 2.85156,-3.47656 h -4.60937 v -4.62891 h 8.28125 l 3.4375,-4.29687 H 651.4919 Z"
       id="path974"
       style="font-weight:bold;font-size:40px;-inkscape-font-specification:'sans-serif Bold'" />
    <path
       d="m 715.77502,370.13443 -2.08,-6.8 h -10.4 l -2.08,6.8 h -6.52 l 10.08,-28.68 h 7.4 l 10.12,28.68 z m -5.6,-18.52 q -0.2,-0.68 -0.52,-1.72 -0.32,-1.04 -0.64,-2.12 -0.32,-1.08 -0.52,-1.88 -0.2,0.8 -0.56,2 -0.32,1.16 -0.64,2.24 -0.28,1.04 -0.44,1.48 l -2.04,6.64 h 7.44 z"
       style="font-weight:bold;font-size:40px;-inkscape-font-specification:'sans-serif Bold';fill:#ff0000"
       id="path976" />
    <path
       d="m 740.45911,350.85709 h 15.44922 l 4.92187,-5.95704 2.91016,2.44141 -2.83203,3.51563 h 4.58984 v 4.58984 h -8.16406 l -3.39844,4.29687 h 11.5625 v 4.62891 h -15.42969 l -4.92187,5.95703 -2.92969,-2.48047 2.85156,-3.47656 h -4.60937 v -4.62891 h 8.28125 l 3.4375,-4.29687 h -11.71875 z"
       id="path978"
       style="font-weight:bold;font-size:40px;-inkscape-font-specification:'sans-serif Bold'" />
    <path
       d="m 796.14223,341.57443 q 5.72,0 8.64,1.6 2.92,1.6 2.92,5.64 0,2.44 -1.16,4.12 -1.12,1.68 -3.24,2.04 v 0.2 q 1.44,0.28 2.6,1 1.16,0.72 1.84,2.08 0.68,1.36 0.68,3.6 0,3.88 -2.8,6.08 -2.8,2.2 -7.68,2.2 h -10.68 v -28.56 z m 0.68,11.32 q 2.64,0 3.64,-0.84 1.04,-0.84 1.04,-2.44 0,-1.64 -1.2,-2.36 -1.2,-0.72 -3.8,-0.72 h -3.2 v 6.36 z m -3.52,4.8 v 7.44 h 3.96 q 2.72,0 3.8,-1.04 1.08,-1.08 1.08,-2.84 0,-1.6 -1.12,-2.56 -1.08,-1 -3.96,-1 z"
       style="font-weight:bold;font-size:40px;-inkscape-font-specification:'sans-serif Bold';fill:#d4aa00"
       id="path980" />
    <path
       d="m 822.66228,354.37443 v -4.24 h 19.4 v 4.24 z m 0,7.6 v -4.28 h 19.4 v 4.28 z"
       id="path982"
       style="font-weight:bold;font-size:40px;-inkscape-font-specification:'sans-serif Bold'" />
    <path
       d="m 845.5423,361.49443 13.36,-5.48 -13.36,-6.2 v -4.68 l 19.4,9.68 v 2.8 l -19.4,8.56 z"
       id="path984"
       style="font-weight:bold;font-size:40px;-inkscape-font-specification:'sans-serif Bold'" />
    <g
       aria-label="B"
       id="text41582"
       style="font-weight:bold;font-size:40px;-inkscape-font-specification:'sans-serif Bold'">
      <path
         d="m 246.59934,176.43191 q 5.72,0 8.64,1.6 2.92,1.6 2.92,5.64 0,2.44 -1.16,4.12 -1.12,1.68 -3.24,2.04 v 0.2 q 1.44,0.28 2.6,1 1.16,0.72 1.84,2.08 0.68,1.36 0.68,3.6 0,3.88 -2.8,6.08 -2.8,2.2 -7.68,2.2 h -10.68 v -28.56 z m 0.68,11.32 q 2.64,0 3.64,-0.84 1.04,-0.84 1.04,-2.44 0,-1.64 -1.2,-2.36 -1.2,-0.72 -3.8,-0.72 h -3.2 v 6.36 z m -3.52,4.8 v 7.44 h 3.96 q 2.72,0 3.8,-1.04 1.08,-1.08 1.08,-2.84 0,-1.6 -1.12,-2.56 -1.08,-1 -3.96,-1 z"
         id="path967" />
    </g>
    <g
       aria-label="B"
       id="text41586"
       style="font-weight:bold;font-size:40px;-inkscape-font-specification:'sans-serif Bold'">
      <path
         d="m 246.59934,496.43194 q 5.72,0 8.64,1.6 2.92,1.6 2.92,5.64 0,2.44 -1.16,4.12 -1.12,1.68 -3.24,2.04 v 0.2 q 1.44,0.28 2.6,1 1.16,0.72 1.84,2.08 0.68,1.36 0.68,3.6 0,3.88 -2.8,6.08 -2.8,2.2 -7.68,2.2 h -10.68 v -28.56 z m 0.68,11.32 q 2.64,0 3.64,-0.84 1.04,-0.84 1.04,-2.44 0,-1.64 -1.2,-2.36 -1.2,-0.72 -3.8,-0.72 h -3.2 v 6.36 z m -3.52,4.8 v 7.44 h 3.96 q 2.72,0 3.8,-1.04 1.08,-1.08 1.08,-2.84 0,-1.6 -1.12,-2.56 -1.08,-1 -3.96,-1 z"
         id="path962" />
    </g>
    <g
       aria-label="B"
       id="text41590"
       style="font-weight:bold;font-size:40px;-inkscape-font-specification:'sans-serif Bold'">
      <path
         d="m 846.59932,176.43191 q 5.72,0 8.64,1.6 2.92,1.6 2.92,5.64 0,2.44 -1.16,4.12 -1.12,1.68 -3.24,2.04 v 0.2 q 1.44,0.28 2.6,1 1.16,0.72 1.84,2.08 0.68,1.36 0.68,3.6 0,3.88 -2.8,6.08 -2.8,2.2 -7.68,2.2 h -10.68 v -28.56 z m 0.68,11.32 q 2.64,0 3.64,-0.84 1.04,-0.84 1.04,-2.44 0,-1.64 -1.2,-2.36 -1.2,-0.72 -3.8,-0.72 h -3.2 v 6.36 z m -3.52,4.8 v 7.44 h 3.96 q 2.72,0 3.8,-1.04 1.08,-1.08 1.08,-2.84 0,-1.6 -1.12,-2.56 -1.08,-1 -3.96,-1 z"
         id="path957" />
    </g>
    <g
       aria-label="B"
       id="text41594"
       style="font-weight:bold;font-size:40px;-inkscape-font-specification:'sans-serif Bold'">
      <path
         d="m 846.59932,496.43194 q 5.72,0 8.64,1.6 2.92,1.6 2.92,5.64 0,2.44 -1.16,4.12 -1.12,1.68 -3.24,2.04 v 0.2 q 1.44,0.28 2.6,1 1.16,0.72 1.84,2.08 0.68,1.36 0.68,3.6 0,3.88 -2.8,6.08 -2.8,2.2 -7.68,2.2 h -10.68 v -28.56 z m 0.68,11.32 q 2.64,0 3.64,-0.84 1.04,-0.84 1.04,-2.44 0,-1.64 -1.2,-2.36 -1.2,-0.72 -3.8,-0.72 h -3.2 v 6.36 z m -3.52,4.8 v 7.44 h 3.96 q 2.72,0 3.8,-1.04 1.08,-1.08 1.08,-2.84 0,-1.6 -1.12,-2.56 -1.08,-1 -3.96,-1 z"
         id="path952" />
    </g>
    <g
       aria-label="A"
       id="text44475"
       style="font-weight:bold;font-size:40px;-inkscape-font-specification:'sans-serif Bold'">
      <path
         d="m 255.19934,104.99191 -2.08,-6.799997 h -10.4 l -2.08,6.799997 h -6.52 l 10.08,-28.679997 h 7.4 l 10.12,28.679997 z m -5.6,-18.519997 q -0.2,-0.68 -0.52,-1.72 -0.32,-1.04 -0.64,-2.12 -0.32,-1.08 -0.52,-1.88 -0.2,0.8 -0.56,2 -0.32,1.16 -0.64,2.24 -0.28,1.04 -0.44,1.48 l -2.04,6.64 h 7.44 z"
         id="path947" />
    </g>
    <g
       aria-label="A"
       id="text44479"
       style="font-weight:bold;font-size:40px;-inkscape-font-specification:'sans-serif Bold'">
      <path
         d="m 255.19934,424.99194 -2.08,-6.8 h -10.4 l -2.08,6.8 h -6.52 l 10.08,-28.68 h 7.4 l 10.12,28.68 z m -5.6,-18.52 q -0.2,-0.68 -0.52,-1.72 -0.32,-1.04 -0.64,-2.12 -0.32,-1.08 -0.52,-1.88 -0.2,0.8 -0.56,2 -0.32,1.16 -0.64,2.24 -0.28,1.04 -0.44,1.48 l -2.04,6.64 h 7.44 z"
         id="path942" />
    </g>
    <g
       aria-label="A"
       id="text44483"
       style="font-weight:bold;font-size:40px;-inkscape-font-specification:'sans-serif Bold'">
      <path
         d="m 855.19932,104.99191 -2.08,-6.799997 h -10.4 l -2.08,6.799997 h -6.52 l 10.08,-28.679997 h 7.4 l 10.12,28.679997 z m -5.6,-18.519997 q -0.2,-0.68 -0.52,-1.72 -0.32,-1.04 -0.64,-2.12 -0.32,-1.08 -0.52,-1.88 -0.2,0.8 -0.56,2 -0.32,1.16 -0.64,2.24 -0.28,1.04 -0.44,1.48 l -2.04,6.64 h 7.44 z"
         id="path937" />
    </g>
    <g
       aria-label="A"
       id="text44487"
       style="font-weight:bold;font-size:40px;-inkscape-font-specification:'sans-serif Bold'">
      <path
         d="m 855.19932,424.99194 -2.08,-6.8 h -10.4 l -2.08,6.8 h -6.52 l 10.08,-28.68 h 7.4 l 10.12,28.68 z m -5.6,-18.52 q -0.2,-0.68 -0.52,-1.72 -0.32,-1.04 -0.64,-2.12 -0.32,-1.08 -0.52,-1.88 -0.2,0.8 -0.56,2 -0.32,1.16 -0.64,2.24 -0.28,1.04 -0.44,1.48 l -2.04,6.64 h 7.44 z"
         id="path932" />
    </g>
    <g
       aria-label="?"
       id="text1008"
       style="font-weight:bold;font-size:40px;-inkscape-font-specification:'sans-serif Bold';fill:#ffccaa">
      <path
         d="m 965.05808,458.39442 q 0,-2 0.84,-3.36 0.84,-1.36 2.88,-2.84 1.8,-1.28 2.56,-2.2 0.8,-0.96 0.8,-2.24 0,-1.28 -0.96,-1.92 -0.92,-0.68 -2.6,-0.68 -1.68,0 -3.32,0.52 -1.64,0.52 -3.36,1.4 l -2.12,-4.28 q 1.96,-1.08 4.24,-1.76 2.28,-0.68 5,-0.68 4.16,0 6.44,2 2.32,2 2.32,5.08 0,1.64 -0.52,2.84 -0.52,1.2 -1.56,2.24 -1.04,1 -2.6,2.16 -1.16,0.84 -1.8,1.44 -0.64,0.6 -0.88,1.16 -0.2,0.56 -0.2,1.4 v 1.16 h -5.16 z m -0.64,8.12 q 0,-1.84 1,-2.56 1,-0.76 2.44,-0.76 1.4,0 2.4,0.76 1,0.72 1,2.56 0,1.76 -1,2.56 -1,0.76 -2.4,0.76 -1.44,0 -2.44,-0.76 -1,-0.8 -1,-2.56 z"
         id="path927" />
    </g>
    <text
       xml:space="preserve"
       style="font-weight:bold;font-size:40px;line-height:1.25;font-family:sans-serif;-inkscape-font-specification:'sans-serif Bold';text-align:center;text-anchor:middle"
       x="951.47858"
       y="366.91507"
       id="text411"><tspan
         sodipodi:role="line"
         id="tspan409"
         x="951.47858"
         y="366.91507">conflict!</tspan></text>
  </g>
</svg>
