<?xml version="1.0" encoding="UTF-8" standalone="no"?>
<!-- Created with Inkscape (http://www.inkscape.org/) -->

<svg
   version="1.1"
   id="svg2"
   width="1058"
   height="595"
   viewBox="0 0 1058 595"
   sodipodi:docname="conflito_submodulo.svg"
   inkscape:version="1.1.2 (0a00cf5339, 2022-02-04, custom)"
   xmlns:inkscape="http://www.inkscape.org/namespaces/inkscape"
   xmlns:sodipodi="http://sodipodi.sourceforge.net/DTD/sodipodi-0.dtd"
   xmlns="http://www.w3.org/2000/svg"
   xmlns:svg="http://www.w3.org/2000/svg">
  <defs
     id="defs6">
    <marker
       style="overflow:visible"
       id="Arrow2Mstart"
       refX="0.0"
       refY="0.0"
       orient="auto"
       inkscape:stockid="Arrow2Mstart"
       inkscape:isstock="true">
      <path
         transform="scale(0.6) translate(0,0)"
         d="M 8.7185878,4.0337352 L -2.2072895,0.016013256 L 8.7185884,-4.0017078 C 6.9730900,-1.6296469 6.9831476,1.6157441 8.7185878,4.0337352 z "
         style="stroke:context-stroke;fill-rule:evenodd;fill:context-stroke;stroke-width:0.62500000;stroke-linejoin:round"
         id="path1480" />
    </marker>
    <marker
       style="overflow:visible"
       id="Arrow2Lstart"
       refX="0.0"
       refY="0.0"
       orient="auto"
       inkscape:stockid="Arrow2Lstart"
       inkscape:isstock="true">
      <path
         transform="scale(1.1) translate(1,0)"
         d="M 8.7185878,4.0337352 L -2.2072895,0.016013256 L 8.7185884,-4.0017078 C 6.9730900,-1.6296469 6.9831476,1.6157441 8.7185878,4.0337352 z "
         style="stroke:context-stroke;fill-rule:evenodd;fill:context-stroke;stroke-width:0.62500000;stroke-linejoin:round"
         id="path1474" />
    </marker>
  </defs>
  <sodipodi:namedview
     id="namedview4"
     pagecolor="#ffffff"
     bordercolor="#666666"
     borderopacity="1.0"
     inkscape:pageshadow="2"
     inkscape:pageopacity="0.0"
     inkscape:pagecheckerboard="0"
     showgrid="false"
     showguides="true"
     inkscape:guide-bbox="true"
     inkscape:snap-grids="false"
     inkscape:snap-to-guides="true"
     inkscape:snap-page="false"
     inkscape:snap-global="true"
     inkscape:snap-bbox="true"
     inkscape:snap-others="false"
     inkscape:snap-nodes="false"
     inkscape:bbox-paths="true"
     inkscape:snap-bbox-midpoints="true"
     inkscape:bbox-nodes="true"
     inkscape:snap-bbox-edge-midpoints="true"
     inkscape:zoom="0.14638469"
     inkscape:cx="2524.1711"
     inkscape:cy="1034.9443"
     inkscape:window-width="1680"
     inkscape:window-height="1050"
     inkscape:window-x="0"
     inkscape:window-y="0"
     inkscape:window-maximized="1"
     inkscape:current-layer="g8" />
  <g
     inkscape:groupmode="layer"
     inkscape:label="Image"
     id="g8">
    <circle
       style="fill:#0000ff;stroke-width:20"
       id="path849-3"
       cx="79.697739"
       cy="118.52311"
       r="29.773399" />
    <circle
       style="fill:#0000ff;stroke-width:20"
       id="circle1358"
       cx="259.69775"
       cy="118.52311"
       r="29.773399" />
    <circle
       style="fill:#0000ff;stroke-width:20"
       id="circle1360"
       cx="439.69775"
       cy="118.52311"
       r="29.773399" />
    <g
       id="path1397">
      <path
         style="color:#000000;fill:#000000;-inkscape-stroke:none"
         d="m 116.76953,116.05273 v 4.91211 h 113.1543 v -4.91211 z"
         id="path1161" />
      <g
         id="g1151">
        <g
           id="path1153">
          <path
             style="color:#000000;fill:#000000;fill-rule:evenodd;stroke-width:1.84246;stroke-linejoin:round;-inkscape-stroke:none"
             d="m 142.47203,130.39991 -32.20874,-11.84397 32.20875,-11.84397 c -5.14562,6.99267 -5.11597,16.55986 -1e-5,23.68794 z"
             id="path1157" />
          <path
             style="color:#000000;fill:#000000;fill-rule:evenodd;stroke-linejoin:round;-inkscape-stroke:none"
             d="m 142.1543,105.84766 -32.20899,11.84375 a 0.92132214,0.92132214 0 0 0 0,1.72851 l 32.20899,11.84375 a 0.92132214,0.92132214 0 0 0 1.0664,-1.40039 c -4.88925,-6.81221 -4.91273,-15.93724 -0.006,-22.60547 a 0.92132214,0.92132214 0 0 0 -1.06054,-1.41015 z m -1.86133,2.64648 c -3.42105,6.23979 -3.38953,13.8241 0.0352,20.13672 l -27.39648,-10.07617 z"
             id="path1159" />
        </g>
      </g>
    </g>
    <g
       id="path1812">
      <path
         style="color:#000000;fill:#000000;-inkscape-stroke:none"
         d="m 296.76953,116.05273 v 4.91211 h 113.1543 v -4.91211 z"
         id="path1147" />
      <g
         id="g1137">
        <g
           id="path1139">
          <path
             style="color:#000000;fill:#000000;fill-rule:evenodd;stroke-width:1.84246;stroke-linejoin:round;-inkscape-stroke:none"
             d="m 322.47203,130.39991 -32.20874,-11.84397 32.20875,-11.84397 c -5.14562,6.99267 -5.11597,16.55986 -10e-6,23.68794 z"
             id="path1143" />
          <path
             style="color:#000000;fill:#000000;fill-rule:evenodd;stroke-linejoin:round;-inkscape-stroke:none"
             d="m 322.1543,105.84766 -32.20899,11.84375 a 0.92132214,0.92132214 0 0 0 0,1.72851 l 32.20899,11.84375 a 0.92132214,0.92132214 0 0 0 1.0664,-1.40039 c -4.88925,-6.81221 -4.91273,-15.93724 -0.006,-22.60547 a 0.92132214,0.92132214 0 0 0 -1.06054,-1.41015 z m -1.86133,2.64648 c -3.42105,6.23979 -3.38953,13.8241 0.0351,20.13672 l -27.39648,-10.07617 z"
             id="path1145" />
        </g>
      </g>
    </g>
    <circle
       style="fill:#0000ff;stroke-width:20"
       id="circle1816"
       cx="799.69775"
       cy="118.52311"
       r="29.773399" />
    <g
       id="path1818">
      <path
         style="color:#000000;fill:#000000;-inkscape-stroke:none"
         d="m 471.53711,116.05273 v 4.91211 h 298.38672 v -4.91211 z"
         id="path1131" />
      <g
         id="g1121">
        <g
           id="path1123">
          <path
             style="color:#000000;fill:#000000;fill-rule:evenodd;stroke-width:1.84246;stroke-linejoin:round;-inkscape-stroke:none"
             d="m 497.23912,130.39991 -32.20874,-11.84397 32.20875,-11.84397 c -5.14562,6.99267 -5.11597,16.55986 -10e-6,23.68794 z"
             id="path1127" />
          <path
             style="color:#000000;fill:#000000;fill-rule:evenodd;stroke-linejoin:round;-inkscape-stroke:none"
             d="m 496.92187,105.84766 -32.20898,11.84375 a 0.92132214,0.92132214 0 0 0 0,1.72851 l 32.20898,11.84375 a 0.92132214,0.92132214 0 0 0 1.06641,-1.40039 c -4.88926,-6.81221 -4.91469,-15.93724 -0.008,-22.60547 a 0.92132214,0.92132214 0 0 0 -1.0586,-1.41015 z m -1.86132,2.64648 c -3.42105,6.23979 -3.38953,13.8241 0.0352,20.13672 l -27.39843,-10.07617 z"
             id="path1129" />
        </g>
      </g>
    </g>
    <circle
       style="fill:#ff0000;stroke-width:20"
       id="circle1900"
       cx="79.697739"
       cy="398.5231"
       r="29.773399" />
    <circle
       style="fill:#ff0000;stroke-width:20"
       id="circle1902"
       cx="259.69775"
       cy="398.5231"
       r="29.773399" />
    <circle
       style="fill:#ff0000;stroke-width:20"
       id="circle1904"
       cx="439.69775"
       cy="398.5231"
       r="29.773399" />
    <g
       id="path1908">
      <path
         style="color:#000000;fill:#000000;-inkscape-stroke:none"
         d="m 116.76953,396.05273 v 4.91211 h 113.1543 v -4.91211 z"
         id="path1111" />
      <g
         id="g1101">
        <g
           id="path1103">
          <path
             style="color:#000000;fill:#000000;fill-rule:evenodd;stroke-width:1.84246;stroke-linejoin:round;-inkscape-stroke:none"
             d="m 142.47203,410.39991 -32.20874,-11.84397 32.20875,-11.84397 c -5.14562,6.99267 -5.11597,16.55986 -1e-5,23.68794 z"
             id="path1107" />
          <path
             style="color:#000000;fill:#000000;fill-rule:evenodd;stroke-linejoin:round;-inkscape-stroke:none"
             d="m 142.1543,385.84766 -32.20899,11.84375 a 0.92132214,0.92132214 0 0 0 0,1.72851 l 32.20899,11.84375 a 0.92132214,0.92132214 0 0 0 1.0664,-1.40039 c -4.88925,-6.81221 -4.91273,-15.93724 -0.006,-22.60547 a 0.92132214,0.92132214 0 0 0 -1.06054,-1.41015 z m -1.86133,2.64648 c -3.42105,6.23979 -3.38953,13.8241 0.0352,20.13672 l -27.39648,-10.07617 z"
             id="path1109" />
        </g>
      </g>
    </g>
    <g
       id="path1910">
      <path
         style="color:#000000;fill:#000000;-inkscape-stroke:none"
         d="m 296.76953,396.05273 v 4.91211 h 113.1543 v -4.91211 z"
         id="path1097" />
      <g
         id="g1087">
        <g
           id="path1089">
          <path
             style="color:#000000;fill:#000000;fill-rule:evenodd;stroke-width:1.84246;stroke-linejoin:round;-inkscape-stroke:none"
             d="m 322.47203,410.39991 -32.20874,-11.84397 32.20875,-11.84397 c -5.14562,6.99267 -5.11597,16.55986 -10e-6,23.68794 z"
             id="path1093" />
          <path
             style="color:#000000;fill:#000000;fill-rule:evenodd;stroke-linejoin:round;-inkscape-stroke:none"
             d="m 322.1543,385.84766 -32.20899,11.84375 a 0.92132214,0.92132214 0 0 0 0,1.72851 l 32.20899,11.84375 a 0.92132214,0.92132214 0 0 0 1.0664,-1.40039 c -4.88925,-6.81221 -4.91273,-15.93724 -0.006,-22.60547 a 0.92132214,0.92132214 0 0 0 -1.06054,-1.41015 z m -1.86133,2.64648 c -3.42105,6.23979 -3.38953,13.8241 0.0351,20.13672 l -27.39648,-10.07617 z"
             id="path1095" />
        </g>
      </g>
    </g>
    <g
       id="path1912">
      <path
         style="color:#000000;fill:#000000;-inkscape-stroke:none"
         d="m 476.76953,396.05273 v 4.91211 h 292.25781 v -4.91211 z"
         id="path1083" />
      <g
         id="g1073">
        <g
           id="path1075">
          <path
             style="color:#000000;fill:#000000;fill-rule:evenodd;stroke-width:1.84246;stroke-linejoin:round;-inkscape-stroke:none"
             d="m 502.47203,410.39991 -32.20874,-11.84397 32.20875,-11.84397 c -5.14562,6.99267 -5.11597,16.55986 -10e-6,23.68794 z"
             id="path1079" />
          <path
             style="color:#000000;fill:#000000;fill-rule:evenodd;stroke-linejoin:round;-inkscape-stroke:none"
             d="m 502.1543,385.84766 -32.20899,11.84375 a 0.92132214,0.92132214 0 0 0 0,1.72851 l 32.20899,11.84375 a 0.92132214,0.92132214 0 0 0 1.0664,-1.40039 c -4.88925,-6.81221 -4.91273,-15.93724 -0.006,-22.60547 a 0.92132214,0.92132214 0 0 0 -1.06054,-1.41015 z m -1.86133,2.64648 c -3.42105,6.23979 -3.38953,13.8241 0.0351,20.13672 l -27.39648,-10.07617 z"
             id="path1081" />
        </g>
      </g>
    </g>
    <circle
       style="fill:#ff0000;stroke-width:20"
       id="circle1914"
       cx="799.69775"
       cy="398.5231"
       r="29.773399" />
    <g
       id="path2016">
      <path
         style="color:#000000;fill:#000000;-inkscape-stroke:none"
         d="m 476.76953,496.05273 v 4.91211 h 113.1543 v -4.91211 z"
         id="path1067" />
      <g
         id="g1057">
        <g
           id="path1059">
          <path
             style="color:#000000;fill:#000000;fill-rule:evenodd;stroke-width:1.84246;stroke-linejoin:round;-inkscape-stroke:none"
             d="m 502.47203,510.39991 -32.20874,-11.84397 32.20875,-11.84397 c -5.14562,6.99267 -5.11597,16.55986 -10e-6,23.68794 z"
             id="path1063" />
          <path
             style="color:#000000;fill:#000000;fill-rule:evenodd;stroke-linejoin:round;-inkscape-stroke:none"
             d="m 502.1543,485.84766 -32.20899,11.84375 a 0.92132214,0.92132214 0 0 0 0,1.72851 l 32.20899,11.84375 a 0.92132214,0.92132214 0 0 0 1.0664,-1.40039 c -4.88925,-6.81221 -4.91273,-15.93724 -0.006,-22.60547 a 0.92132214,0.92132214 0 0 0 -1.06054,-1.41015 z m -1.86133,2.64648 c -3.42105,6.23979 -3.38953,13.8241 0.0351,20.13672 l -27.39648,-10.07617 z"
             id="path1065" />
        </g>
      </g>
    </g>
    <circle
       style="fill:#ff0000;stroke-width:20"
       id="circle2018"
       cx="619.69775"
       cy="498.5231"
       r="29.773399" />
    <circle
       style="fill:#ff0000;stroke-width:20"
       id="circle2020"
       cx="439.69775"
       cy="498.5231"
       r="29.773399" />
    <g
       id="path2022">
      <path
         style="color:#000000;fill:#000000;-inkscape-stroke:none"
         d="m 292.04492,417.68359 -2.47656,4.24414 119.48047,69.71485 2.47656,-4.24414 z"
         id="path1049" />
      <g
         id="g1039">
        <g
           id="path1041">
          <path
             style="color:#000000;fill:#000000;fill-rule:evenodd;stroke-width:1.84246;stroke-linejoin:round;-inkscape-stroke:none"
             d="m 307.01382,443.02986 -21.85043,-26.46208 33.78839,6.00228 c -7.96846,3.4465 -12.76441,11.72484 -11.93796,20.4598 z"
             id="path1045" />
          <path
             style="color:#000000;fill:#000000;fill-rule:evenodd;stroke-linejoin:round;-inkscape-stroke:none"
             d="m 285.32422,415.66016 a 0.92132214,0.92132214 0 0 0 -0.8711,1.49414 l 21.84961,26.46289 a 0.92132214,0.92132214 0 0 0 1.62891,-0.67383 c -0.78983,-8.34789 3.78798,-16.24075 11.38672,-19.52734 a 0.92132214,0.92132214 0 0 0 -0.20508,-1.75391 z m 2.14453,2.25195 28.70117,5.09961 c -6.09851,3.66504 -9.89114,10.23102 -10.11523,17.4082 z"
             id="path1047" />
        </g>
      </g>
    </g>
    <g
       id="text4179"
       style="font-size:40px;fill:#ffccaa" />
    <g
       aria-label="main"
       id="text9647"
       style="font-size:40px">
      <path
         d="m 777.43773,56.109709 q 3.72,0 5.6,1.92 1.92,1.88 1.92,6.08 v 14.24 h -5.96 v -12.76 q 0,-4.72 -3.28,-4.72 -2.36,0 -3.36,1.68 -1,1.68 -1,4.84 v 10.96 h -5.96 v -12.76 q 0,-4.72 -3.28,-4.72 -2.48,0 -3.44,1.88 -0.92,1.84 -0.92,5.32 v 10.28 h -5.96 v -21.84 h 4.56 l 0.8,2.8 h 0.32 q 1,-1.68 2.72,-2.44 1.76,-0.76 3.64,-0.76 2.4,0 4.08,0.8 1.68,0.76 2.56,2.4 h 0.52 q 1,-1.68 2.76,-2.44 1.8,-0.76 3.68,-0.76 z"
         style="-inkscape-font-specification:'sans-serif Bold'"
         id="path1019" />
      <path
         d="m 800.03775,56.069709 q 4.4,0 6.72,1.92 2.36,1.88 2.36,5.8 v 14.56 h -4.16 l -1.16,-2.96 h -0.16 q -1.4,1.76 -2.96,2.56 -1.56,0.8 -4.28,0.8 -2.92,0 -4.84,-1.68 -1.92,-1.72 -1.92,-5.24 0,-3.48 2.44,-5.12 2.44,-1.68 7.32,-1.84 l 3.8,-0.12 v -0.96 q 0,-1.72 -0.92,-2.52 -0.88,-0.8 -2.48,-0.8 -1.6,0 -3.12,0.48 -1.52,0.44 -3.04,1.12 l -1.96,-4.04 q 1.76,-0.92 3.88,-1.44 2.16,-0.52 4.48,-0.52 z m 0.84,12.24 q -2.88,0.08 -4,1.04 -1.12,0.96 -1.12,2.52 0,1.36 0.8,1.96 0.8,0.56 2.08,0.56 1.92,0 3.24,-1.12 1.32,-1.16 1.32,-3.24 v -1.8 z"
         style="-inkscape-font-specification:'sans-serif Bold'"
         id="path1021" />
      <path
         d="m 818.23775,47.949709 q 1.32,0 2.28,0.64 0.96,0.6 0.96,2.28 0,1.64 -0.96,2.28 -0.96,0.64 -2.28,0.64 -1.36,0 -2.32,-0.64 -0.92,-0.64 -0.92,-2.28 0,-1.68 0.92,-2.28 0.96,-0.64 2.32,-0.64 z m 2.96,8.56 v 21.84 h -5.96 v -21.84 z"
         style="-inkscape-font-specification:'sans-serif Bold'"
         id="path1023" />
      <path
         d="m 839.83776,56.109709 q 3.52,0 5.64,1.92 2.12,1.88 2.12,6.08 v 14.24 h -5.96 v -12.76 q 0,-2.36 -0.84,-3.52 -0.84,-1.2 -2.68,-1.2 -2.72,0 -3.72,1.88 -1,1.84 -1,5.32 v 10.28 h -5.96 v -21.84 h 4.56 l 0.8,2.8 h 0.32 q 1.04,-1.68 2.84,-2.44 1.84,-0.76 3.88,-0.76 z"
         style="-inkscape-font-specification:'sans-serif Bold'"
         id="path1025" />
    </g>
    <g
       aria-label="pr-branch"
       id="text12583"
       style="font-size:40px">
      <path
         d="m 536.75778,156.9097 q 3.68,0 5.96,2.88 2.28,2.84 2.28,8.4 0,5.56 -2.36,8.48 -2.36,2.88 -6.04,2.88 -2.36,0 -3.76,-0.84 -1.4,-0.88 -2.28,-1.96 h -0.32 q 0.32,1.68 0.32,3.2 v 8.8 h -5.96 v -31.44 h 4.84 l 0.84,2.84 h 0.28 q 0.88,-1.32 2.36,-2.28 1.48,-0.96 3.84,-0.96 z m -1.92,4.76 q -2.32,0 -3.28,1.44 -0.92,1.44 -1,4.4 v 0.64 q 0,3.16 0.92,4.88 0.96,1.68 3.44,1.68 2.04,0 3,-1.68 1,-1.72 1,-4.92 0,-6.44 -4.08,-6.44 z"
         style="-inkscape-font-specification:'sans-serif Bold'"
         id="path982" />
      <path
         d="m 562.11776,156.9097 q 0.44,0 1.04,0.04 0.6,0.04 0.96,0.12 l -0.44,5.6 q -0.28,-0.08 -0.84,-0.12 -0.52,-0.08 -0.92,-0.08 -1.52,0 -2.92,0.56 -1.4,0.52 -2.28,1.72 -0.84,1.2 -0.84,3.28 v 11.12 h -5.96 v -21.84 h 4.52 l 0.88,3.68 h 0.28 q 0.96,-1.68 2.64,-2.88 1.68,-1.2 3.88,-1.2 z"
         style="-inkscape-font-specification:'sans-serif Bold'"
         id="path984" />
      <path
         d="m 566.15778,170.8697 v -4.88 h 10.48 v 4.88 z"
         style="-inkscape-font-specification:'sans-serif Bold'"
         id="path986" />
      <path
         d="m 586.9178,155.8297 q 0,1.24 -0.08,2.44 -0.08,1.2 -0.16,1.88 h 0.24 q 0.88,-1.36 2.36,-2.28 1.48,-0.96 3.84,-0.96 3.68,0 5.96,2.88 2.28,2.84 2.28,8.4 0,5.6 -2.32,8.48 -2.32,2.88 -6.08,2.88 -2.4,0 -3.8,-0.84 -1.36,-0.88 -2.24,-1.96 h -0.4 l -1,2.4 h -4.56 v -30.4 h 5.96 z m 4.28,5.84 q -2.32,0 -3.28,1.44 -0.92,1.44 -1,4.4 v 0.64 q 0,3.16 0.92,4.88 0.96,1.68 3.44,1.68 1.84,0 2.92,-1.68 1.08,-1.72 1.08,-4.92 0,-3.2 -1.12,-4.8 -1.08,-1.64 -2.96,-1.64 z"
         style="-inkscape-font-specification:'sans-serif Bold'"
         id="path988" />
      <path
         d="m 618.47778,156.9097 q 0.44,0 1.04,0.04 0.6,0.04 0.96,0.12 l -0.44,5.6 q -0.28,-0.08 -0.84,-0.12 -0.52,-0.08 -0.92,-0.08 -1.52,0 -2.92,0.56 -1.4,0.52 -2.28,1.72 -0.84,1.2 -0.84,3.28 v 11.12 h -5.96 v -21.84 h 4.52 l 0.88,3.68 h 0.28 q 0.96,-1.68 2.64,-2.88 1.68,-1.2 3.88,-1.2 z"
         style="-inkscape-font-specification:'sans-serif Bold'"
         id="path990" />
      <path
         d="m 632.59778,156.8697 q 4.4,0 6.72,1.92 2.36,1.88 2.36,5.8 v 14.56 h -4.16 l -1.16,-2.96 h -0.16 q -1.4,1.76 -2.96,2.56 -1.56,0.8 -4.28,0.8 -2.92,0 -4.84,-1.68 -1.92,-1.72 -1.92,-5.24 0,-3.48 2.44,-5.12 2.44,-1.68 7.32,-1.84 l 3.8,-0.12 v -0.96 q 0,-1.72 -0.92,-2.52 -0.88,-0.8 -2.48,-0.8 -1.6,0 -3.12,0.48 -1.52,0.44 -3.04,1.12 l -1.96,-4.04 q 1.76,-0.92 3.88,-1.44 2.16,-0.52 4.48,-0.52 z m 0.84,12.24 q -2.88,0.08 -4,1.04 -1.12,0.96 -1.12,2.52 0,1.36 0.8,1.96 0.8,0.56 2.08,0.56 1.92,0 3.24,-1.12 1.32,-1.16 1.32,-3.24 v -1.8 z"
         style="-inkscape-font-specification:'sans-serif Bold'"
         id="path992" />
      <path
         d="m 660.19778,156.9097 q 3.52,0 5.64,1.92 2.12,1.88 2.12,6.08 v 14.24 h -5.96 v -12.76 q 0,-2.36 -0.84,-3.52 -0.84,-1.2 -2.68,-1.2 -2.72,0 -3.72,1.88 -1,1.84 -1,5.32 v 10.28 h -5.96 v -21.84 h 4.56 l 0.8,2.8 h 0.32 q 1.04,-1.68 2.84,-2.44 1.84,-0.76 3.88,-0.76 z"
         style="-inkscape-font-specification:'sans-serif Bold'"
         id="path994" />
      <path
         d="m 682.95776,179.5497 q -4.88,0 -7.56,-2.68 -2.64,-2.72 -2.64,-8.52 0,-4 1.36,-6.52 1.36,-2.52 3.76,-3.72 2.44,-1.2 5.6,-1.2 2.24,0 3.88,0.44 1.68,0.44 2.92,1.04 l -1.76,4.6 q -1.4,-0.56 -2.64,-0.92 -1.2,-0.36 -2.4,-0.36 -4.64,0 -4.64,6.6 0,3.28 1.2,4.84 1.24,1.56 3.44,1.56 1.88,0 3.32,-0.48 1.44,-0.52 2.8,-1.4 v 5.08 q -1.36,0.88 -2.88,1.24 -1.48,0.4 -3.76,0.4 z"
         style="-inkscape-font-specification:'sans-serif Bold'"
         id="path996" />
      <path
         d="m 700.59776,154.9497 q 0,1.6 -0.12,3.08 -0.08,1.48 -0.16,2.08 h 0.32 q 1.04,-1.68 2.68,-2.44 1.64,-0.76 3.64,-0.76 3.56,0 5.68,1.92 2.16,1.88 2.16,6.08 v 14.24 h -5.96 v -12.76 q 0,-4.72 -3.52,-4.72 -2.68,0 -3.72,1.88 -1,1.84 -1,5.32 v 10.28 h -5.96 v -30.4 h 5.96 z"
         style="-inkscape-font-specification:'sans-serif Bold'"
         id="path998" />
    </g>
    <g
       id="path14156">
      <path
         style="color:#000000;fill:#000000;stroke-dasharray:4.913, 4.913;-inkscape-stroke:none"
         d="m 617.19336,250.3457 v 4.91211 h 4.91406 v -4.91211 z m 0,9.82422 v 4.91406 h 4.91406 v -4.91406 z m 0,9.82617 v 4.91407 h 4.91406 v -4.91407 z m 0,9.82618 v 4.91406 h 4.91406 v -4.91406 z m 0,9.82617 v 4.91406 h 4.91406 v -4.91406 z m 0,9.82617 v 4.91406 h 4.91406 v -4.91406 z m 0,9.82617 v 4.91211 h 4.91406 v -4.91211 z m 0,9.82617 v 4.91211 h 4.91406 v -4.91211 z m 0,9.82617 v 4.91211 h 4.91406 v -4.91211 z m 0,9.82618 v 4.91211 h 4.91406 v -4.91211 z m 0,9.82617 v 4.91211 h 4.91406 v -4.91211 z m 0,9.82617 v 4.91211 h 4.91406 v -4.91211 z m 0,9.82617 v 4.91211 h 4.91406 v -4.91211 z m 0,9.82422 v 4.91406 h 4.91406 v -4.91406 z m 0,9.82617 v 4.91407 h 4.91406 v -4.91407 z m 0,9.82617 v 4.91407 h 4.91406 v -4.91407 z m 0,9.82618 v 4.91406 h 4.91406 v -4.91406 z m 0,9.82617 v 4.91406 h 4.91406 v -4.91406 z m 0,9.82617 v 4.91211 h 4.91406 v -4.91211 z m 0,9.82617 v 4.91211 h 4.91406 v -4.91211 z m 0,9.82617 v 4.91211 h 4.91406 v -4.91211 z m 0,9.82618 v 4.91211 h 4.91406 v -4.91211 z"
         id="path980" />
      <g
         id="g970">
        <g
           id="path972">
          <path
             style="color:#000000;fill:#000000;fill-rule:evenodd;stroke-width:1.84238;stroke-linejoin:round;-inkscape-stroke:none"
             d="m 631.5412,435.9032 -11.84344,32.2073 -11.84343,-32.20731 c 6.99236,5.14538 16.55912,5.11574 23.68687,1e-5 z"
             id="path976" />
          <path
             style="color:#000000;fill:#000000;fill-rule:evenodd;stroke-linejoin:round;-inkscape-stroke:none"
             d="m 631.74805,435.00586 a 0.92128214,0.92128214 0 0 0 -0.74414,0.14844 c -6.8119,4.88903 -15.93559,4.91446 -22.60352,0.008 a 0.92128214,0.92128214 0 0 0 -1.41016,1.05859 l 11.84375,32.20703 a 0.92128214,0.92128214 0 0 0 1.72852,0 l 11.84375,-32.20703 a 0.92128214,0.92128214 0 0 0 -0.6582,-1.21484 z m -1.97657,3.04101 -10.07421,27.39649 -10.06055,-27.36133 c 6.23913,3.42068 13.82266,3.38875 20.13476,-0.0352 z"
             id="path978" />
        </g>
      </g>
    </g>
    <g
       id="path14884">
      <path
         style="color:#000000;fill:#000000;-inkscape-stroke:none"
         d="m 292.04492,137.68359 -2.47656,4.24414 119.48047,69.71485 2.47656,-4.24414 z"
         id="path966" />
      <g
         id="g956">
        <g
           id="path958">
          <path
             style="color:#000000;fill:#000000;fill-rule:evenodd;stroke-width:1.84246;stroke-linejoin:round;-inkscape-stroke:none"
             d="m 307.01382,163.02986 -21.85043,-26.46208 33.78839,6.00228 c -7.96846,3.4465 -12.76441,11.72484 -11.93796,20.4598 z"
             id="path962" />
          <path
             style="color:#000000;fill:#000000;fill-rule:evenodd;stroke-linejoin:round;-inkscape-stroke:none"
             d="m 285.32422,135.66016 a 0.92132214,0.92132214 0 0 0 -0.8711,1.49414 l 21.84961,26.46289 a 0.92132214,0.92132214 0 0 0 1.62891,-0.67383 c -0.78983,-8.34789 3.78798,-16.24075 11.38672,-19.52734 a 0.92132214,0.92132214 0 0 0 -0.20508,-1.75391 z m 2.14453,2.25195 28.70117,5.09961 c -6.09851,3.66504 -9.89114,10.23102 -10.11523,17.4082 z"
             id="path964" />
        </g>
      </g>
    </g>
    <circle
       style="fill:#0000ff;stroke-width:20"
       id="circle14886"
       cx="439.69775"
       cy="218.5231"
       r="29.773399" />
    <circle
       style="fill:#0000ff;stroke-width:20"
       id="circle14888"
       cx="619.69775"
       cy="218.5231"
       r="29.773399" />
    <g
       id="path14890">
      <path
         style="color:#000000;fill:#000000;-inkscape-stroke:none"
         d="m 476.76953,216.05273 v 4.91211 h 113.1543 v -4.91211 z"
         id="path948" />
      <g
         id="g938">
        <g
           id="path940">
          <path
             style="color:#000000;fill:#000000;fill-rule:evenodd;stroke-width:1.84246;stroke-linejoin:round;-inkscape-stroke:none"
             d="m 502.47203,230.39991 -32.20874,-11.84397 32.20875,-11.84397 c -5.14562,6.99267 -5.11597,16.55986 -10e-6,23.68794 z"
             id="path944" />
          <path
             style="color:#000000;fill:#000000;fill-rule:evenodd;stroke-linejoin:round;-inkscape-stroke:none"
             d="m 502.1543,205.84766 -32.20899,11.84375 a 0.92132214,0.92132214 0 0 0 0,1.72851 l 32.20899,11.84375 a 0.92132214,0.92132214 0 0 0 1.0664,-1.40039 c -4.88925,-6.81221 -4.91273,-15.93724 -0.006,-22.60547 a 0.92132214,0.92132214 0 0 0 -1.06054,-1.41015 z m -1.86133,2.64648 c -3.42105,6.23979 -3.38953,13.8241 0.0351,20.13672 l -27.39648,-10.07617 z"
             id="path946" />
        </g>
      </g>
    </g>
    <g
       id="path15231">
      <path
         style="color:#000000;fill:#000000;stroke-dasharray:4.913, 4.913;-inkscape-stroke:none"
         d="m 797.19336,150.3457 v 4.91211 h 4.91406 v -4.91211 z m 0,9.82422 v 4.91406 h 4.91406 v -4.91406 z m 0,9.82617 v 4.91407 h 4.91406 v -4.91407 z m 0,9.82618 v 4.91406 h 4.91406 v -4.91406 z m 0,9.82617 v 4.91406 h 4.91406 v -4.91406 z m 0,9.82617 v 4.91406 h 4.91406 v -4.91406 z m 0,9.82617 v 4.91211 h 4.91406 v -4.91211 z m 0,9.82617 v 4.91211 h 4.91406 v -4.91211 z m 0,9.82617 v 4.91211 h 4.91406 v -4.91211 z m 0,9.82618 v 4.91211 h 4.91406 v -4.91211 z m 0,9.82617 v 4.91211 h 4.91406 v -4.91211 z m 0,9.82617 v 4.91211 h 4.91406 v -4.91211 z m 0,9.82617 v 4.91211 h 4.91406 v -4.91211 z m 0,9.82422 v 4.91406 h 4.91406 v -4.91406 z m 0,9.82617 v 4.91407 h 4.91406 v -4.91407 z m 0,9.82617 v 4.91407 h 4.91406 v -4.91407 z m 0,9.82618 v 4.91406 h 4.91406 v -4.91406 z m 0,9.82617 v 4.91406 h 4.91406 v -4.91406 z m 0,9.82617 v 4.91211 h 4.91406 v -4.91211 z m 0,9.82617 v 4.91211 h 4.91406 v -4.91211 z m 0,9.82617 v 4.91211 h 4.91406 v -4.91211 z m 0,9.82618 v 4.91211 h 4.91406 v -4.91211 z"
         id="path934" />
      <g
         id="g924">
        <g
           id="path926">
          <path
             style="color:#000000;fill:#000000;fill-rule:evenodd;stroke-width:1.84238;stroke-linejoin:round;-inkscape-stroke:none"
             d="m 811.5412,335.9032 -11.84344,32.2073 -11.84343,-32.20731 c 6.99236,5.14538 16.55912,5.11574 23.68687,1e-5 z"
             id="path930" />
          <path
             style="color:#000000;fill:#000000;fill-rule:evenodd;stroke-linejoin:round;-inkscape-stroke:none"
             d="m 811.74805,335.00586 a 0.92128214,0.92128214 0 0 0 -0.74414,0.14844 c -6.8119,4.88903 -15.93559,4.91446 -22.60352,0.008 a 0.92128214,0.92128214 0 0 0 -1.41016,1.05859 l 11.84375,32.20703 a 0.92128214,0.92128214 0 0 0 1.72852,0 l 11.84375,-32.20703 a 0.92128214,0.92128214 0 0 0 -0.6582,-1.21484 z m -1.97657,3.04101 -10.07421,27.39649 -10.06055,-27.36133 c 6.23913,3.42068 13.82266,3.38875 20.13476,-0.0352 z"
             id="path932" />
        </g>
      </g>
    </g>
    <circle
       style="fill:#0000ff;stroke-width:20"
       id="circle19111"
       cx="979.69775"
       cy="118.52311"
       r="29.773399" />
    <g
       id="path19113">
      <path
         style="color:#000000;fill:#000000;-inkscape-stroke:none"
         d="m 836.76953,116.05273 v 4.91211 h 113.1543 v -4.91211 z"
         id="path918" />
      <g
         id="g908">
        <g
           id="path910">
          <path
             style="color:#000000;fill:#000000;fill-rule:evenodd;stroke-width:1.84246;stroke-linejoin:round;-inkscape-stroke:none"
             d="m 862.47203,130.39991 -32.20874,-11.84397 32.20875,-11.84397 c -5.14562,6.99267 -5.11597,16.55986 -10e-6,23.68794 z"
             id="path914" />
          <path
             style="color:#000000;fill:#000000;fill-rule:evenodd;stroke-linejoin:round;-inkscape-stroke:none"
             d="m 862.1543,105.84766 -32.20899,11.84375 a 0.92132214,0.92132214 0 0 0 0,1.72851 l 32.20899,11.84375 a 0.92132214,0.92132214 0 0 0 1.0664,-1.40039 c -4.88925,-6.81221 -4.91273,-15.93724 -0.006,-22.60547 a 0.92132214,0.92132214 0 0 0 -1.06054,-1.41015 z m -1.86133,2.64648 c -3.42105,6.23979 -3.38953,13.8241 0.0352,20.13672 l -27.39648,-10.07617 z"
             id="path916" />
        </g>
      </g>
    </g>
    <g
       id="path19115">
      <path
         style="color:#000000;fill:#000000;-inkscape-stroke:none"
         d="m 949.58789,124.94531 -293.92578,88.88867 1.42187,4.70313 293.92579,-88.88867 z"
         id="path904" />
      <g
         id="g894">
        <g
           id="path896">
          <path
             style="color:#000000;fill:#000000;fill-rule:evenodd;stroke-width:1.84246;stroke-linejoin:round;-inkscape-stroke:none"
             d="m 684.41596,220.12842 -34.25828,-2.0133 27.40124,-20.66046 c -2.90111,8.18281 -0.10328,17.3318 6.85704,22.67376 z"
             id="path900" />
          <path
             style="color:#000000;fill:#000000;fill-rule:evenodd;stroke-linejoin:round;-inkscape-stroke:none"
             d="m 677.74805,196.55273 a 0.92132214,0.92132214 0 0 0 -0.74414,0.16602 l -27.40039,20.66016 a 0.92132214,0.92132214 0 0 0 0.5,1.65625 l 34.25781,2.01367 a 0.92132214,0.92132214 0 0 0 0.61523,-1.65039 c -6.65189,-5.10525 -9.31533,-13.83357 -6.54883,-21.63672 a 0.92132214,0.92132214 0 0 0 -0.67968,-1.20899 z m -1.75977,3.23829 c -1.4682,6.96246 0.75863,14.21273 5.86328,19.26367 l -29.13672,-1.71289 z"
             id="path902" />
        </g>
      </g>
    </g>
    <g
       id="path19406">
      <path
         style="color:#000000;fill:#000000;stroke-dasharray:4.913, 4.913;-inkscape-stroke:none"
         d="m 977.19336,150.3457 v 4.91211 h 4.91406 v -4.91211 z m 0,9.82422 v 4.91406 h 4.91406 v -4.91406 z m 0,9.82617 v 4.91407 h 4.91406 v -4.91407 z m 0,9.82618 v 4.91406 h 4.91406 v -4.91406 z m 0,9.82617 v 4.91406 h 4.91406 v -4.91406 z m 0,9.82617 v 4.91406 h 4.91406 v -4.91406 z m 0,9.82617 v 4.91211 h 4.91406 v -4.91211 z m 0,9.82617 v 4.91211 h 4.91406 v -4.91211 z m 0,9.82617 v 4.91211 h 4.91406 v -4.91211 z m 0,9.82618 v 4.91211 h 4.91406 v -4.91211 z m 0,9.82617 v 4.91211 h 4.91406 v -4.91211 z m 0,9.82617 v 4.91211 h 4.91406 v -4.91211 z m 0,9.82617 v 4.91211 h 4.91406 v -4.91211 z m 0,9.82422 v 4.91406 h 4.91406 v -4.91406 z m 0,9.82617 v 4.91407 h 4.91406 v -4.91407 z m 0,9.82617 v 4.91407 h 4.91406 v -4.91407 z m 0,9.82618 v 4.91406 h 4.91406 v -4.91406 z m 0,9.82617 v 4.91406 h 4.91406 v -4.91406 z m 0,9.82617 v 4.91211 h 4.91406 v -4.91211 z m 0,9.82617 v 4.91211 h 4.91406 v -4.91211 z m 0,9.82617 v 4.91211 h 4.91406 v -4.91211 z m 0,9.82618 v 4.91211 h 4.91406 v -4.91211 z"
         id="path890" />
      <g
         id="g880">
        <g
           id="path882">
          <path
             style="color:#000000;fill:#000000;fill-rule:evenodd;stroke-width:1.84238;stroke-linejoin:round;-inkscape-stroke:none"
             d="m 991.5412,335.9032 -11.84344,32.2073 -11.84343,-32.20731 c 6.99236,5.14538 16.55912,5.11574 23.68687,1e-5 z"
             id="path886" />
          <path
             style="color:#000000;fill:#000000;fill-rule:evenodd;stroke-linejoin:round;-inkscape-stroke:none"
             d="m 991.74805,335.00586 a 0.92128214,0.92128214 0 0 0 -0.74414,0.14844 c -6.8119,4.88903 -15.93559,4.91446 -22.60352,0.008 a 0.92128214,0.92128214 0 0 0 -1.41016,1.05859 l 11.84375,32.20703 a 0.92128214,0.92128214 0 0 0 1.72852,0 l 11.84375,-32.20703 a 0.92128214,0.92128214 0 0 0 -0.6582,-1.21484 z m -1.97657,3.04101 -10.07421,27.39649 -10.06055,-27.36133 c 6.23913,3.42068 13.82266,3.38875 20.13476,-0.0352 z"
             id="path888" />
        </g>
      </g>
    </g>
    <g
       aria-label="?"
       id="text19410"
       style="font-size:40px">
      <path
         d="m 975.97776,387.07152 q 0,-2 0.84,-3.36 0.84,-1.36 2.88,-2.84 1.8,-1.28 2.56,-2.2 0.8,-0.96 0.8,-2.24 0,-1.28 -0.96,-1.92 -0.92,-0.68 -2.6,-0.68 -1.68,0 -3.32,0.52 -1.64,0.52 -3.36,1.4 l -2.12,-4.28 q 1.96,-1.08 4.24,-1.76 2.28,-0.68 5,-0.68 4.16,0 6.44,2 2.32,2 2.32,5.08 0,1.64 -0.52,2.84 -0.52,1.2 -1.56,2.24 -1.04,1 -2.6,2.16 -1.16,0.84 -1.8,1.44 -0.64,0.6 -0.88,1.16 -0.2,0.56 -0.2,1.4 v 1.16 h -5.16 z m -0.64,8.12 q 0,-1.84 1,-2.56 1,-0.76 2.44,-0.76 1.4,0 2.4,0.76 1,0.72 1,2.56 0,1.76 -1,2.56 -1,0.76 -2.4,0.76 -1.44,0 -2.44,-0.76 -1,-0.8 -1,-2.56 z"
         style="-inkscape-font-specification:'sans-serif Bold'"
         id="path873" />
    </g>
  </g>
</svg>
