<?xml version="1.0" encoding="UTF-8" standalone="no"?>
<!-- Created with Inkscape (http://www.inkscape.org/) -->

<svg
   version="1.1"
   id="svg2"
   width="1058"
   height="595"
   viewBox="0 0 1058 595"
   sodipodi:docname="ff-antes.svg"
   inkscape:version="1.1.2 (0a00cf5339, 2022-02-04, custom)"
   xmlns:inkscape="http://www.inkscape.org/namespaces/inkscape"
   xmlns:sodipodi="http://sodipodi.sourceforge.net/DTD/sodipodi-0.dtd"
   xmlns="http://www.w3.org/2000/svg"
   xmlns:svg="http://www.w3.org/2000/svg">
  <defs
     id="defs6">
    <marker
       style="overflow:visible"
       id="Arrow2Mstart"
       refX="0.0"
       refY="0.0"
       orient="auto"
       inkscape:stockid="Arrow2Mstart"
       inkscape:isstock="true">
      <path
         transform="scale(0.6) translate(0,0)"
         d="M 8.7185878,4.0337352 L -2.2072895,0.016013256 L 8.7185884,-4.0017078 C 6.9730900,-1.6296469 6.9831476,1.6157441 8.7185878,4.0337352 z "
         style="stroke:context-stroke;fill-rule:evenodd;fill:context-stroke;stroke-width:0.62500000;stroke-linejoin:round"
         id="path1480" />
    </marker>
    <marker
       style="overflow:visible"
       id="Arrow2Lstart"
       refX="0.0"
       refY="0.0"
       orient="auto"
       inkscape:stockid="Arrow2Lstart"
       inkscape:isstock="true">
      <path
         transform="scale(1.1) translate(1,0)"
         d="M 8.7185878,4.0337352 L -2.2072895,0.016013256 L 8.7185884,-4.0017078 C 6.9730900,-1.6296469 6.9831476,1.6157441 8.7185878,4.0337352 z "
         style="stroke:context-stroke;fill-rule:evenodd;fill:context-stroke;stroke-width:0.62500000;stroke-linejoin:round"
         id="path1474" />
    </marker>
  </defs>
  <sodipodi:namedview
     id="namedview4"
     pagecolor="#ffffff"
     bordercolor="#666666"
     borderopacity="1.0"
     inkscape:pageshadow="2"
     inkscape:pageopacity="0.0"
     inkscape:pagecheckerboard="0"
     showgrid="false"
     showguides="true"
     inkscape:guide-bbox="true"
     inkscape:snap-grids="false"
     inkscape:snap-to-guides="true"
     inkscape:snap-page="false"
     inkscape:snap-global="true"
     inkscape:snap-bbox="true"
     inkscape:snap-others="false"
     inkscape:snap-nodes="false"
     inkscape:bbox-paths="true"
     inkscape:snap-bbox-midpoints="true"
     inkscape:bbox-nodes="true"
     inkscape:snap-bbox-edge-midpoints="true"
     inkscape:zoom="0.29276938"
     inkscape:cx="848.79096"
     inkscape:cy="1040.0678"
     inkscape:window-width="1680"
     inkscape:window-height="1050"
     inkscape:window-x="0"
     inkscape:window-y="0"
     inkscape:window-maximized="1"
     inkscape:current-layer="g8" />
  <g
     inkscape:groupmode="layer"
     inkscape:label="Image"
     id="g8">
    <circle
       style="fill:#0000ff;stroke-width:20"
       id="circle1212"
       cx="101.99962"
       cy="161.42519"
       r="29.773399" />
    <circle
       style="fill:#0000ff;stroke-width:20"
       id="circle1215"
       cx="281.99963"
       cy="161.42519"
       r="29.773399" />
    <circle
       style="fill:#0000ff;stroke-width:20"
       id="circle1218"
       cx="461.99963"
       cy="161.42519"
       r="29.773399" />
    <circle
       style="fill:#0000ff;stroke-width:20"
       id="circle1221"
       cx="641.99963"
       cy="161.42519"
       r="29.773399" />
    <g
       id="path1397">
      <path
         style="color:#000000;fill:#000000;-inkscape-stroke:none"
         d="m 139.07227,158.95508 v 4.91211 h 113.15429 v -4.91211 z"
         id="path1230" />
      <g
         id="g1077">
        <g
           id="path1079">
          <path
             style="color:#000000;fill:#000000;fill-rule:evenodd;stroke-width:1.84246;stroke-linejoin:round;-inkscape-stroke:none"
             d="m 164.7739,173.30199 -32.20874,-11.84397 32.20875,-11.84397 c -5.14562,6.99267 -5.11597,16.55986 -1e-5,23.68794 z"
             id="path1227" />
          <path
             style="color:#000000;fill:#000000;fill-rule:evenodd;stroke-linejoin:round;-inkscape-stroke:none"
             d="m 164.45508,148.75 -32.20703,11.84375 a 0.92132214,0.92132214 0 0 0 0,1.72852 l 32.20703,11.84375 a 0.92132214,0.92132214 0 0 0 1.0664,-1.4004 c -4.88925,-6.81221 -4.91273,-15.93724 -0.006,-22.60546 A 0.92132214,0.92132214 0 0 0 164.45508,148.75 Z m -1.85938,2.64648 c -3.42114,6.23983 -3.38955,13.82405 0.0352,20.13672 l -27.39844,-10.07617 z"
             id="path1224" />
        </g>
      </g>
    </g>
    <g
       id="path1812">
      <path
         style="color:#000000;fill:#000000;-inkscape-stroke:none"
         d="m 319.07227,158.95508 v 4.91211 h 113.15429 v -4.91211 z"
         id="path1239" />
      <g
         id="g1063">
        <g
           id="path1065">
          <path
             style="color:#000000;fill:#000000;fill-rule:evenodd;stroke-width:1.84246;stroke-linejoin:round;-inkscape-stroke:none"
             d="m 344.7739,173.30199 -32.20874,-11.84397 32.20875,-11.84397 c -5.14562,6.99267 -5.11597,16.55986 -10e-6,23.68794 z"
             id="path1236" />
          <path
             style="color:#000000;fill:#000000;fill-rule:evenodd;stroke-linejoin:round;-inkscape-stroke:none"
             d="m 344.45508,148.75 -32.20703,11.84375 a 0.92132214,0.92132214 0 0 0 0,1.72852 l 32.20703,11.84375 a 0.92132214,0.92132214 0 0 0 1.0664,-1.4004 c -4.88925,-6.81221 -4.91273,-15.93724 -0.006,-22.60546 A 0.92132214,0.92132214 0 0 0 344.45508,148.75 Z m -1.85938,2.64648 c -3.42114,6.23983 -3.38955,13.82405 0.0352,20.13672 l -27.39844,-10.07617 z"
             id="path1233" />
        </g>
      </g>
    </g>
    <g
       id="path1814">
      <path
         style="color:#000000;fill:#000000;-inkscape-stroke:none"
         d="m 499.07227,158.95508 v 4.91211 h 113.15429 v -4.91211 z"
         id="path1248" />
      <g
         id="g1049">
        <g
           id="path1051">
          <path
             style="color:#000000;fill:#000000;fill-rule:evenodd;stroke-width:1.84246;stroke-linejoin:round;-inkscape-stroke:none"
             d="m 524.7739,173.30199 -32.20874,-11.84397 32.20875,-11.84397 c -5.14562,6.99267 -5.11597,16.55986 -10e-6,23.68794 z"
             id="path1245" />
          <path
             style="color:#000000;fill:#000000;fill-rule:evenodd;stroke-linejoin:round;-inkscape-stroke:none"
             d="m 524.45508,148.75 -32.20703,11.84375 a 0.92132214,0.92132214 0 0 0 0,1.72852 l 32.20703,11.84375 a 0.92132214,0.92132214 0 0 0 1.0664,-1.4004 c -4.88925,-6.81221 -4.91273,-15.93724 -0.006,-22.60546 A 0.92132214,0.92132214 0 0 0 524.45508,148.75 Z m -1.85938,2.64648 c -3.42114,6.23983 -3.38955,13.82405 0.0352,20.13672 l -27.39844,-10.07617 z"
             id="path1242" />
        </g>
      </g>
    </g>
    <circle
       style="fill:#0000ff;stroke-width:20"
       id="circle1251"
       cx="821.99963"
       cy="161.42519"
       r="29.773399" />
    <g
       id="path1818">
      <path
         style="color:#000000;fill:#000000;-inkscape-stroke:none"
         d="m 679.07227,158.95508 v 4.91211 h 113.15429 v -4.91211 z"
         id="path1260" />
      <g
         id="g1033">
        <g
           id="path1035">
          <path
             style="color:#000000;fill:#000000;fill-rule:evenodd;stroke-width:1.84246;stroke-linejoin:round;-inkscape-stroke:none"
             d="m 704.7739,173.30199 -32.20874,-11.84397 32.20875,-11.84397 c -5.14562,6.99267 -5.11597,16.55986 -10e-6,23.68794 z"
             id="path1257" />
          <path
             style="color:#000000;fill:#000000;fill-rule:evenodd;stroke-linejoin:round;-inkscape-stroke:none"
             d="m 704.45508,148.75 -32.20703,11.84375 a 0.92132214,0.92132214 0 0 0 0,1.72852 l 32.20703,11.84375 a 0.92132214,0.92132214 0 0 0 1.0664,-1.4004 c -4.88925,-6.81221 -4.91273,-15.93724 -0.006,-22.60546 A 0.92132214,0.92132214 0 0 0 704.45508,148.75 Z m -1.85938,2.64648 c -3.42114,6.23983 -3.38955,13.82405 0.0352,20.13672 l -27.39844,-10.07617 z"
             id="path1254" />
        </g>
      </g>
    </g>
    <circle
       style="fill:#ff0000;stroke-width:20"
       id="circle1263"
       cx="101.99962"
       cy="341.42517"
       r="29.773399" />
    <circle
       style="fill:#ff0000;stroke-width:20"
       id="circle1266"
       cx="281.99963"
       cy="341.42517"
       r="29.773399" />
    <circle
       style="fill:#ff0000;stroke-width:20"
       id="circle1269"
       cx="461.99963"
       cy="341.42517"
       r="29.773399" />
    <g
       id="path1908">
      <path
         style="color:#000000;fill:#000000;-inkscape-stroke:none"
         d="m 139.07227,338.95508 v 4.91211 h 113.15429 v -4.91211 z"
         id="path1278" />
      <g
         id="g1013">
        <g
           id="path1015">
          <path
             style="color:#000000;fill:#000000;fill-rule:evenodd;stroke-width:1.84246;stroke-linejoin:round;-inkscape-stroke:none"
             d="m 164.7739,353.30199 -32.20874,-11.84397 32.20875,-11.84397 c -5.14562,6.99267 -5.11597,16.55986 -1e-5,23.68794 z"
             id="path1275" />
          <path
             style="color:#000000;fill:#000000;fill-rule:evenodd;stroke-linejoin:round;-inkscape-stroke:none"
             d="m 164.45508,328.75 -32.20703,11.84375 a 0.92132214,0.92132214 0 0 0 0,1.72852 l 32.20703,11.84375 a 0.92132214,0.92132214 0 0 0 1.0664,-1.4004 c -4.88925,-6.81221 -4.91273,-15.93724 -0.006,-22.60546 A 0.92132214,0.92132214 0 0 0 164.45508,328.75 Z m -1.85938,2.64648 c -3.42114,6.23983 -3.38955,13.82405 0.0352,20.13672 l -27.39844,-10.07617 z"
             id="path1272" />
        </g>
      </g>
    </g>
    <g
       id="path1910">
      <path
         style="color:#000000;fill:#000000;-inkscape-stroke:none"
         d="m 319.07227,338.95508 v 4.91211 h 113.15429 v -4.91211 z"
         id="path1287" />
      <g
         id="g999">
        <g
           id="path1001">
          <path
             style="color:#000000;fill:#000000;fill-rule:evenodd;stroke-width:1.84246;stroke-linejoin:round;-inkscape-stroke:none"
             d="m 344.7739,353.30199 -32.20874,-11.84397 32.20875,-11.84397 c -5.14562,6.99267 -5.11597,16.55986 -10e-6,23.68794 z"
             id="path1284" />
          <path
             style="color:#000000;fill:#000000;fill-rule:evenodd;stroke-linejoin:round;-inkscape-stroke:none"
             d="m 344.45508,328.75 -32.20703,11.84375 a 0.92132214,0.92132214 0 0 0 0,1.72852 l 32.20703,11.84375 a 0.92132214,0.92132214 0 0 0 1.0664,-1.4004 c -4.88925,-6.81221 -4.91273,-15.93724 -0.006,-22.60546 A 0.92132214,0.92132214 0 0 0 344.45508,328.75 Z m -1.85938,2.64648 c -3.42114,6.23983 -3.38955,13.82405 0.0352,20.13672 l -27.39844,-10.07617 z"
             id="path1281" />
        </g>
      </g>
    </g>
    <g
       id="path1912">
      <path
         style="color:#000000;fill:#000000;-inkscape-stroke:none"
         d="m 499.07227,338.95508 v 4.91211 h 292.25585 v -4.91211 z"
         id="path1296" />
      <g
         id="g985">
        <g
           id="path987">
          <path
             style="color:#000000;fill:#000000;fill-rule:evenodd;stroke-width:1.84246;stroke-linejoin:round;-inkscape-stroke:none"
             d="m 524.7739,353.30199 -32.20874,-11.84397 32.20875,-11.84397 c -5.14562,6.99267 -5.11597,16.55986 -10e-6,23.68794 z"
             id="path1293" />
          <path
             style="color:#000000;fill:#000000;fill-rule:evenodd;stroke-linejoin:round;-inkscape-stroke:none"
             d="m 524.45508,328.75 -32.20703,11.84375 a 0.92132214,0.92132214 0 0 0 0,1.72852 l 32.20703,11.84375 a 0.92132214,0.92132214 0 0 0 1.0664,-1.4004 c -4.88925,-6.81221 -4.91273,-15.93724 -0.006,-22.60546 A 0.92132214,0.92132214 0 0 0 524.45508,328.75 Z m -1.85938,2.64648 c -3.42114,6.23983 -3.38955,13.82405 0.0352,20.13672 l -27.39844,-10.07617 z"
             id="path1290" />
        </g>
      </g>
    </g>
    <circle
       style="fill:#ff0000;stroke-width:20"
       id="circle1299"
       cx="821.99963"
       cy="341.42517"
       r="29.773399" />
    <g
       id="path2016">
      <path
         style="color:#000000;fill:#000000;-inkscape-stroke:none"
         d="m 499.07227,438.95508 v 4.91211 h 113.15429 v -4.91211 z"
         id="path1308" />
      <g
         id="g969">
        <g
           id="path971">
          <path
             style="color:#000000;fill:#000000;fill-rule:evenodd;stroke-width:1.84246;stroke-linejoin:round;-inkscape-stroke:none"
             d="m 524.7739,453.30199 -32.20874,-11.84397 32.20875,-11.84397 c -5.14562,6.99267 -5.11597,16.55986 -10e-6,23.68794 z"
             id="path1305" />
          <path
             style="color:#000000;fill:#000000;fill-rule:evenodd;stroke-linejoin:round;-inkscape-stroke:none"
             d="m 524.45508,428.75 -32.20703,11.84375 a 0.92132214,0.92132214 0 0 0 0,1.72852 l 32.20703,11.84375 a 0.92132214,0.92132214 0 0 0 1.0664,-1.4004 c -4.88925,-6.81221 -4.91273,-15.93724 -0.006,-22.60546 A 0.92132214,0.92132214 0 0 0 524.45508,428.75 Z m -1.85938,2.64648 c -3.42114,6.23983 -3.38955,13.82405 0.0352,20.13672 l -27.39844,-10.07617 z"
             id="path1302" />
        </g>
      </g>
    </g>
    <circle
       style="fill:#ff0000;stroke-width:20"
       id="circle1311"
       cx="641.99963"
       cy="441.42517"
       r="29.773399" />
    <circle
       style="fill:#ff0000;stroke-width:20"
       id="circle1314"
       cx="461.99963"
       cy="441.42517"
       r="29.773399" />
    <g
       id="path2022">
      <path
         style="color:#000000;fill:#000000;-inkscape-stroke:none"
         d="m 314.34766,360.58594 -2.47657,4.24414 119.48047,69.71484 2.47461,-4.24414 z"
         id="path1323" />
      <g
         id="g951">
        <g
           id="path953">
          <path
             style="color:#000000;fill:#000000;fill-rule:evenodd;stroke-width:1.84246;stroke-linejoin:round;-inkscape-stroke:none"
             d="m 329.31569,385.93194 -21.85043,-26.46208 33.78839,6.00228 c -7.96846,3.4465 -12.76441,11.72484 -11.93796,20.4598 z"
             id="path1320" />
          <path
             style="color:#000000;fill:#000000;fill-rule:evenodd;stroke-linejoin:round;-inkscape-stroke:none"
             d="m 307.62695,358.5625 a 0.92132214,0.92132214 0 0 0 -0.87109,1.49414 l 21.84961,26.46094 a 0.92132214,0.92132214 0 0 0 1.62695,-0.67188 c -0.78983,-8.34789 3.78798,-16.24075 11.38672,-19.52734 a 0.92132214,0.92132214 0 0 0 -0.20508,-1.75391 z m 2.14453,2.25195 28.70118,5.09961 c -6.09906,3.66538 -9.89178,10.23222 -10.11524,17.41016 z"
             id="path1317" />
        </g>
      </g>
    </g>
    <g
       id="text4179"
       style="font-size:40px;fill:#ffccaa" />
    <g
       aria-label="main"
       id="text9647"
       style="font-size:40px">
      <path
         d="m 619.73961,99.011793 q 3.72,0 5.6,1.919997 1.92,1.88 1.92,6.08 v 14.24 h -5.96 v -12.76 q 0,-4.72 -3.28,-4.72 -2.36,0 -3.36,1.68 -1,1.68 -1,4.84 v 10.96 h -5.96 v -12.76 q 0,-4.72 -3.28,-4.72 -2.48,0 -3.44,1.88 -0.92,1.84 -0.92,5.32 v 10.28 h -5.96 V 99.411793 h 4.56 l 0.8,2.799997 h 0.32 q 1,-1.68 2.72,-2.439997 1.76,-0.76 3.64,-0.76 2.4,0 4.08,0.8 1.68,0.759997 2.56,2.399997 h 0.52 q 1,-1.68 2.76,-2.439997 1.8,-0.76 3.68,-0.76 z"
         style="-inkscape-font-specification:'sans-serif Bold'"
         id="path1335" />
      <path
         d="m 642.33963,98.971793 q 4.4,0 6.72,1.919997 2.36,1.88 2.36,5.8 v 14.56 h -4.16 l -1.16,-2.96 h -0.16 q -1.4,1.76 -2.96,2.56 -1.56,0.8 -4.28,0.8 -2.92,0 -4.84,-1.68 -1.92,-1.72 -1.92,-5.24 0,-3.48 2.44,-5.12 2.44,-1.68 7.32,-1.84 l 3.8,-0.12 v -0.96 q 0,-1.72 -0.92,-2.52 -0.88,-0.8 -2.48,-0.8 -1.6,0 -3.12,0.48 -1.52,0.44 -3.04,1.12 l -1.96,-4.04 q 1.76,-0.92 3.88,-1.439997 2.16,-0.52 4.48,-0.52 z m 0.84,12.239997 q -2.88,0.08 -4,1.04 -1.12,0.96 -1.12,2.52 0,1.36 0.8,1.96 0.8,0.56 2.08,0.56 1.92,0 3.24,-1.12 1.32,-1.16 1.32,-3.24 v -1.8 z"
         style="-inkscape-font-specification:'sans-serif Bold'"
         id="path1332" />
      <path
         d="m 660.53963,90.851793 q 1.32,0 2.28,0.64 0.96,0.6 0.96,2.28 0,1.64 -0.96,2.28 -0.96,0.64 -2.28,0.64 -1.36,0 -2.32,-0.64 -0.92,-0.64 -0.92,-2.28 0,-1.68 0.92,-2.28 0.96,-0.64 2.32,-0.64 z m 2.96,8.56 v 21.839997 h -5.96 V 99.411793 Z"
         style="-inkscape-font-specification:'sans-serif Bold'"
         id="path1329" />
      <path
         d="m 682.13964,99.011793 q 3.52,0 5.64,1.919997 2.12,1.88 2.12,6.08 v 14.24 h -5.96 v -12.76 q 0,-2.36 -0.84,-3.52 -0.84,-1.2 -2.68,-1.2 -2.72,0 -3.72,1.88 -1,1.84 -1,5.32 v 10.28 h -5.96 V 99.411793 h 4.56 l 0.8,2.799997 h 0.32 q 1.04,-1.68 2.84,-2.439997 1.84,-0.76 3.88,-0.76 z"
         style="-inkscape-font-specification:'sans-serif Bold'"
         id="path1326" />
    </g>
    <g
       aria-label="pr-branch"
       id="text12583"
       style="font-size:40px">
      <path
         d="m 739.05966,99.811788 q 3.68,0 5.96,2.880002 2.28,2.84 2.28,8.4 0,5.56 -2.36,8.48 -2.36,2.88 -6.04,2.88 -2.36,0 -3.76,-0.84 -1.4,-0.88 -2.28,-1.96 h -0.32 q 0.32,1.68 0.32,3.2 v 8.8 h -5.96 v -31.44 h 4.84 l 0.84,2.84 h 0.28 q 0.88,-1.32 2.36,-2.28 1.48,-0.960002 3.84,-0.960002 z m -1.92,4.760002 q -2.32,0 -3.28,1.44 -0.92,1.44 -1,4.4 v 0.64 q 0,3.16 0.92,4.88 0.96,1.68 3.44,1.68 2.04,0 3,-1.68 1,-1.72 1,-4.92 0,-6.44 -4.08,-6.44 z"
         style="-inkscape-font-specification:'sans-serif Bold'"
         id="path1362" />
      <path
         d="m 764.41964,99.811788 q 0.44,0 1.04,0.04 0.6,0.04 0.96,0.12 l -0.44,5.600002 q -0.28,-0.08 -0.84,-0.12 -0.52,-0.08 -0.92,-0.08 -1.52,0 -2.92,0.56 -1.4,0.52 -2.28,1.72 -0.84,1.2 -0.84,3.28 v 11.12 h -5.96 v -21.84 h 4.52 l 0.88,3.68 h 0.28 q 0.96,-1.68 2.64,-2.88 1.68,-1.200002 3.88,-1.200002 z"
         style="-inkscape-font-specification:'sans-serif Bold'"
         id="path1359" />
      <path
         d="m 768.45966,113.77179 v -4.88 h 10.48 v 4.88 z"
         style="-inkscape-font-specification:'sans-serif Bold'"
         id="path1356" />
      <path
         d="m 789.21968,98.731788 q 0,1.24 -0.08,2.440002 -0.08,1.2 -0.16,1.88 h 0.24 q 0.88,-1.36 2.36,-2.28 1.48,-0.960002 3.84,-0.960002 3.68,0 5.96,2.880002 2.28,2.84 2.28,8.4 0,5.6 -2.32,8.48 -2.32,2.88 -6.08,2.88 -2.4,0 -3.8,-0.84 -1.36,-0.88 -2.24,-1.96 h -0.4 l -1,2.4 h -4.56 V 91.651788 h 5.96 z m 4.28,5.840002 q -2.32,0 -3.28,1.44 -0.92,1.44 -1,4.4 v 0.64 q 0,3.16 0.92,4.88 0.96,1.68 3.44,1.68 1.84,0 2.92,-1.68 1.08,-1.72 1.08,-4.92 0,-3.2 -1.12,-4.8 -1.08,-1.64 -2.96,-1.64 z"
         style="-inkscape-font-specification:'sans-serif Bold'"
         id="path1353" />
      <path
         d="m 820.77966,99.811788 q 0.44,0 1.04,0.04 0.6,0.04 0.96,0.12 l -0.44,5.600002 q -0.28,-0.08 -0.84,-0.12 -0.52,-0.08 -0.92,-0.08 -1.52,0 -2.92,0.56 -1.4,0.52 -2.28,1.72 -0.84,1.2 -0.84,3.28 v 11.12 h -5.96 v -21.84 h 4.52 l 0.88,3.68 h 0.28 q 0.96,-1.68 2.64,-2.88 1.68,-1.200002 3.88,-1.200002 z"
         style="-inkscape-font-specification:'sans-serif Bold'"
         id="path1350" />
      <path
         d="m 834.89966,99.771788 q 4.4,0 6.72,1.920002 2.36,1.88 2.36,5.8 v 14.56 h -4.16 l -1.16,-2.96 h -0.16 q -1.4,1.76 -2.96,2.56 -1.56,0.8 -4.28,0.8 -2.92,0 -4.84,-1.68 -1.92,-1.72 -1.92,-5.24 0,-3.48 2.44,-5.12 2.44,-1.68 7.32,-1.84 l 3.8,-0.12 v -0.96 q 0,-1.72 -0.92,-2.52 -0.88,-0.8 -2.48,-0.8 -1.6,0 -3.12,0.48 -1.52,0.44 -3.04,1.12 l -1.96,-4.04 q 1.76,-0.92 3.88,-1.44 2.16,-0.520002 4.48,-0.520002 z m 0.84,12.240002 q -2.88,0.08 -4,1.04 -1.12,0.96 -1.12,2.52 0,1.36 0.8,1.96 0.8,0.56 2.08,0.56 1.92,0 3.24,-1.12 1.32,-1.16 1.32,-3.24 v -1.8 z"
         style="-inkscape-font-specification:'sans-serif Bold'"
         id="path1347" />
      <path
         d="m 862.49966,99.811788 q 3.52,0 5.64,1.920002 2.12,1.88 2.12,6.08 v 14.24 h -5.96 v -12.76 q 0,-2.36 -0.84,-3.52 -0.84,-1.2 -2.68,-1.2 -2.72,0 -3.72,1.88 -1,1.84 -1,5.32 v 10.28 h -5.96 v -21.84 h 4.56 l 0.8,2.8 h 0.32 q 1.04,-1.68 2.84,-2.44 1.84,-0.760002 3.88,-0.760002 z"
         style="-inkscape-font-specification:'sans-serif Bold'"
         id="path1344" />
      <path
         d="m 885.25964,122.45179 q -4.88,0 -7.56,-2.68 -2.64,-2.72 -2.64,-8.52 0,-4 1.36,-6.52 1.36,-2.52 3.76,-3.72 2.44,-1.200002 5.6,-1.200002 2.24,0 3.88,0.440002 1.68,0.44 2.92,1.04 l -1.76,4.6 q -1.4,-0.56 -2.64,-0.92 -1.2,-0.36 -2.4,-0.36 -4.64,0 -4.64,6.6 0,3.28 1.2,4.84 1.24,1.56 3.44,1.56 1.88,0 3.32,-0.48 1.44,-0.52 2.8,-1.4 v 5.08 q -1.36,0.88 -2.88,1.24 -1.48,0.4 -3.76,0.4 z"
         style="-inkscape-font-specification:'sans-serif Bold'"
         id="path1341" />
      <path
         d="m 902.89964,97.851788 q 0,1.6 -0.12,3.080002 -0.08,1.48 -0.16,2.08 h 0.32 q 1.04,-1.68 2.68,-2.44 1.64,-0.760002 3.64,-0.760002 3.56,0 5.68,1.920002 2.16,1.88 2.16,6.08 v 14.24 h -5.96 v -12.76 q 0,-4.72 -3.52,-4.72 -2.68,0 -3.72,1.88 -1,1.84 -1,5.32 v 10.28 h -5.96 V 91.651788 h 5.96 z"
         style="-inkscape-font-specification:'sans-serif Bold'"
         id="path1338" />
    </g>
    <g
       id="path14156">
      <path
         style="color:#000000;fill:#000000;stroke-dasharray:4.913, 4.913;-inkscape-stroke:none"
         d="m 639.49609,193.24609 v 4.91407 h 4.91211 v -4.91407 z m 0,9.82618 v 4.91406 h 4.91211 v -4.91406 z m 0,9.82617 v 4.91406 h 4.91211 v -4.91406 z m 0,9.82617 v 4.91406 h 4.91211 v -4.91406 z m 0,9.82617 v 4.91406 h 4.91211 v -4.91406 z m 0,9.82617 v 4.91211 h 4.91211 v -4.91211 z m 0,9.82617 v 4.91211 h 4.91211 v -4.91211 z m 0,9.82618 v 4.91211 h 4.91211 v -4.91211 z m 0,9.82617 v 4.91211 h 4.91211 v -4.91211 z m 0,9.82617 v 4.91211 h 4.91211 v -4.91211 z m 0,9.82617 v 4.91211 h 4.91211 v -4.91211 z m 0,9.82422 v 4.91406 h 4.91211 v -4.91406 z m 0,9.82617 v 4.91407 h 4.91211 v -4.91407 z m 0,9.82617 v 4.91407 h 4.91211 v -4.91407 z m 0,9.82618 v 4.91406 h 4.91211 v -4.91406 z m 0,9.82617 v 4.91406 h 4.91211 v -4.91406 z m 0,9.82617 v 4.91211 h 4.91211 v -4.91211 z m 0,9.82617 v 4.91211 h 4.91211 v -4.91211 z m 0,9.82617 v 4.91211 h 4.91211 v -4.91211 z m 0,9.82618 v 4.91211 h 4.91211 v -4.91211 z m 0,9.82617 v 4.91211 h 4.91211 v -4.91211 z m 0,9.82617 v 4.91211 h 4.91211 v -4.91211 z"
         id="path1371" />
      <g
         id="g882">
        <g
           id="path884">
          <path
             style="color:#000000;fill:#000000;fill-rule:evenodd;stroke-width:1.84238;stroke-linejoin:round;-inkscape-stroke:none"
             d="m 653.84307,378.80528 -11.84344,32.2073 -11.84343,-32.20731 c 6.99236,5.14538 16.55912,5.11574 23.68687,10e-6 z"
             id="path1368" />
          <path
             style="color:#000000;fill:#000000;fill-rule:evenodd;stroke-linejoin:round;-inkscape-stroke:none"
             d="m 654.04883,377.9082 a 0.92128214,0.92128214 0 0 0 -0.74219,0.14844 c -6.8119,4.88904 -15.93558,4.91251 -22.60352,0.006 a 0.92128214,0.92128214 0 0 0 -1.4121,1.06055 l 11.84375,32.20703 a 0.92128214,0.92128214 0 0 0 1.72851,0 l 11.84375,-32.20703 a 0.92128214,0.92128214 0 0 0 -0.6582,-1.21485 z m -1.97461,3.04102 L 642,408.3457 631.93945,380.98437 c 6.23941,3.42072 13.82257,3.38923 20.13477,-0.0351 z"
             id="path1365" />
        </g>
      </g>
    </g>
    <g
       id="path14474">
      <path
         style="color:#000000;fill:#000000;stroke-dasharray:4.913, 4.913;-inkscape-stroke:none"
         d="m 819.49609,191.19922 v 4.65234 h 4.91211 v -4.65234 z m 0,9.5664 v 4.91211 h 4.91211 v -4.91211 z m 0,9.82618 v 4.91211 h 4.91211 v -4.91211 z m 0,9.82617 v 4.91211 h 4.91211 v -4.91211 z m 0,9.82422 v 4.91406 h 4.91211 v -4.91406 z m 0,9.82617 v 4.91406 h 4.91211 v -4.91406 z m 0,9.82617 v 4.91406 h 4.91211 v -4.91406 z m 0,9.82617 v 4.91407 h 4.91211 v -4.91407 z m 0,9.82617 v 4.91407 h 4.91211 v -4.91407 z m 0,9.82618 v 4.91211 h 4.91211 v -4.91211 z m 0,9.82617 v 4.91211 h 4.91211 v -4.91211 z m 0,9.82617 v 4.91211 h 4.91211 v -4.91211 z"
         id="path1380" />
      <g
         id="g868">
        <g
           id="path870">
          <path
             style="color:#000000;fill:#000000;fill-rule:evenodd;stroke-width:1.84238;stroke-linejoin:round;-inkscape-stroke:none"
             d="m 833.84307,278.23741 -11.84344,32.2073 -11.84343,-32.20731 c 6.99236,5.14538 16.55912,5.11574 23.68687,1e-5 z"
             id="path1377" />
          <path
             style="color:#000000;fill:#000000;fill-rule:evenodd;stroke-linejoin:round;-inkscape-stroke:none"
             d="m 834.04883,277.33984 a 0.92128214,0.92128214 0 0 0 -0.74219,0.14844 c -6.8119,4.88904 -15.93558,4.91446 -22.60352,0.008 a 0.92128214,0.92128214 0 0 0 -1.4121,1.0586 l 11.84375,32.20703 a 0.92128214,0.92128214 0 0 0 1.72851,0 l 11.84375,-32.20703 a 0.92128214,0.92128214 0 0 0 -0.6582,-1.21485 z m -1.97461,3.04102 L 822,307.77734 811.93945,280.41602 c 6.23947,3.42074 13.82253,3.38932 20.13477,-0.0352 z"
             id="path1374" />
        </g>
      </g>
    </g>
  </g>
</svg>
