<?xml version="1.0" encoding="UTF-8" standalone="no"?>
<!-- Created with Inkscape (http://www.inkscape.org/) -->

<svg
   version="1.1"
   id="svg2"
   width="1058"
   height="595"
   viewBox="0 0 1058 595"
   sodipodi:docname="ff-submodulo-depois.svg"
   inkscape:version="1.1.2 (0a00cf5339, 2022-02-04, custom)"
   xmlns:inkscape="http://www.inkscape.org/namespaces/inkscape"
   xmlns:sodipodi="http://sodipodi.sourceforge.net/DTD/sodipodi-0.dtd"
   xmlns="http://www.w3.org/2000/svg"
   xmlns:svg="http://www.w3.org/2000/svg">
  <defs
     id="defs6">
    <marker
       style="overflow:visible"
       id="Arrow2Mstart"
       refX="0.0"
       refY="0.0"
       orient="auto"
       inkscape:stockid="Arrow2Mstart"
       inkscape:isstock="true">
      <path
         transform="scale(0.6) translate(0,0)"
         d="M 8.7185878,4.0337352 L -2.2072895,0.016013256 L 8.7185884,-4.0017078 C 6.9730900,-1.6296469 6.9831476,1.6157441 8.7185878,4.0337352 z "
         style="stroke:context-stroke;fill-rule:evenodd;fill:context-stroke;stroke-width:0.62500000;stroke-linejoin:round"
         id="path1480" />
    </marker>
    <marker
       style="overflow:visible"
       id="Arrow2Lstart"
       refX="0.0"
       refY="0.0"
       orient="auto"
       inkscape:stockid="Arrow2Lstart"
       inkscape:isstock="true">
      <path
         transform="scale(1.1) translate(1,0)"
         d="M 8.7185878,4.0337352 L -2.2072895,0.016013256 L 8.7185884,-4.0017078 C 6.9730900,-1.6296469 6.9831476,1.6157441 8.7185878,4.0337352 z "
         style="stroke:context-stroke;fill-rule:evenodd;fill:context-stroke;stroke-width:0.62500000;stroke-linejoin:round"
         id="path1474" />
    </marker>
  </defs>
  <sodipodi:namedview
     id="namedview4"
     pagecolor="#ffffff"
     bordercolor="#666666"
     borderopacity="1.0"
     inkscape:pageshadow="2"
     inkscape:pageopacity="0.0"
     inkscape:pagecheckerboard="0"
     showgrid="false"
     showguides="true"
     inkscape:guide-bbox="true"
     inkscape:snap-grids="false"
     inkscape:snap-to-guides="true"
     inkscape:snap-page="false"
     inkscape:snap-global="true"
     inkscape:snap-bbox="true"
     inkscape:snap-others="false"
     inkscape:snap-nodes="false"
     inkscape:bbox-paths="true"
     inkscape:snap-bbox-midpoints="true"
     inkscape:bbox-nodes="true"
     inkscape:snap-bbox-edge-midpoints="true"
     inkscape:zoom="0.41403842"
     inkscape:cx="1001.1148"
     inkscape:cy="460.10223"
     inkscape:window-width="1680"
     inkscape:window-height="1050"
     inkscape:window-x="0"
     inkscape:window-y="0"
     inkscape:window-maximized="1"
     inkscape:current-layer="g8" />
  <g
     inkscape:groupmode="layer"
     inkscape:label="Image"
     id="g8">
    <circle
       style="fill:#0000ff;stroke-width:20"
       id="path849-3"
       cx="50.090088"
       cy="163.74252"
       r="29.773399" />
    <circle
       style="fill:#0000ff;stroke-width:20"
       id="circle1358"
       cx="230.09009"
       cy="163.74252"
       r="29.773399" />
    <circle
       style="fill:#0000ff;stroke-width:20"
       id="circle1360"
       cx="410.09009"
       cy="163.74252"
       r="29.773399" />
    <g
       id="path1397">
      <path
         style="color:#000000;fill:#000000;-inkscape-stroke:none"
         d="m 87.162109,161.27148 v 4.91407 H 200.31641 v -4.91407 z"
         id="path1092" />
      <g
         id="g1082">
        <g
           id="path1084">
          <path
             style="color:#000000;fill:#000000;fill-rule:evenodd;stroke-width:1.84246;stroke-linejoin:round;-inkscape-stroke:none"
             d="M 112.86438,175.61933 80.655641,163.77536 112.86439,151.93139 c -5.14562,6.99267 -5.11597,16.55986 -1e-5,23.68794 z"
             id="path1088" />
          <path
             style="color:#000000;fill:#000000;fill-rule:evenodd;stroke-linejoin:round;-inkscape-stroke:none"
             d="m 112.54688,151.06641 -32.208989,11.84375 a 0.92132214,0.92132214 0 0 0 0,1.73046 l 32.208989,11.84375 a 0.92132214,0.92132214 0 0 0 1.0664,-1.40234 c -4.88926,-6.81221 -4.91469,-15.93724 -0.008,-22.60547 a 0.92132214,0.92132214 0 0 0 -1.05859,-1.41015 z m -1.86133,2.64843 c -3.42069,6.23936 -3.38885,13.82247 0.0351,20.13477 L 83.326172,163.77539 Z"
             id="path1090" />
        </g>
      </g>
    </g>
    <g
       id="path1812">
      <path
         style="color:#000000;fill:#000000;-inkscape-stroke:none"
         d="m 267.16211,161.27148 v 4.91407 h 113.1543 v -4.91407 z"
         id="path1078" />
      <g
         id="g1068">
        <g
           id="path1070">
          <path
             style="color:#000000;fill:#000000;fill-rule:evenodd;stroke-width:1.84246;stroke-linejoin:round;-inkscape-stroke:none"
             d="m 292.86438,175.61933 -32.20874,-11.84397 32.20875,-11.84397 c -5.14562,6.99267 -5.11597,16.55986 -1e-5,23.68794 z"
             id="path1074" />
          <path
             style="color:#000000;fill:#000000;fill-rule:evenodd;stroke-linejoin:round;-inkscape-stroke:none"
             d="m 292.54687,151.06641 -32.20898,11.84375 a 0.92132214,0.92132214 0 0 0 0,1.73046 l 32.20898,11.84375 a 0.92132214,0.92132214 0 0 0 1.06641,-1.40234 c -4.88926,-6.81221 -4.91469,-15.93724 -0.008,-22.60547 a 0.92132214,0.92132214 0 0 0 -1.0586,-1.41015 z m -1.86132,2.64843 c -3.42069,6.23936 -3.38885,13.82247 0.0352,20.13477 l -27.39453,-10.07422 z"
             id="path1076" />
        </g>
      </g>
    </g>
    <circle
       style="fill:#ff0000;stroke-width:20"
       id="circle1900"
       cx="50.090088"
       cy="443.74252"
       r="29.773399" />
    <circle
       style="fill:#ff0000;stroke-width:20"
       id="circle1902"
       cx="230.09009"
       cy="443.74252"
       r="29.773399" />
    <circle
       style="fill:#ff0000;stroke-width:20"
       id="circle1904"
       cx="410.09009"
       cy="443.74252"
       r="29.773399" />
    <g
       id="path1908">
      <path
         style="color:#000000;fill:#000000;-inkscape-stroke:none"
         d="m 87.162109,441.27148 v 4.91407 H 200.31641 v -4.91407 z"
         id="path1058" />
      <g
         id="g1048">
        <g
           id="path1050">
          <path
             style="color:#000000;fill:#000000;fill-rule:evenodd;stroke-width:1.84246;stroke-linejoin:round;-inkscape-stroke:none"
             d="M 112.86438,455.61933 80.655641,443.77536 112.86439,431.93139 c -5.14562,6.99267 -5.11597,16.55986 -1e-5,23.68794 z"
             id="path1054" />
          <path
             style="color:#000000;fill:#000000;fill-rule:evenodd;stroke-linejoin:round;-inkscape-stroke:none"
             d="m 112.54688,431.06641 -32.208989,11.84375 a 0.92132214,0.92132214 0 0 0 0,1.73046 l 32.208989,11.84375 a 0.92132214,0.92132214 0 0 0 1.0664,-1.40234 c -4.88926,-6.81221 -4.91469,-15.93724 -0.008,-22.60547 a 0.92132214,0.92132214 0 0 0 -1.05859,-1.41015 z m -1.86133,2.64843 c -3.42069,6.23936 -3.38885,13.82247 0.0351,20.13477 L 83.326172,443.77539 Z"
             id="path1056" />
        </g>
      </g>
    </g>
    <g
       id="path1910">
      <path
         style="color:#000000;fill:#000000;-inkscape-stroke:none"
         d="m 267.16211,441.27148 v 4.91407 h 113.1543 v -4.91407 z"
         id="path1044" />
      <g
         id="g1034">
        <g
           id="path1036">
          <path
             style="color:#000000;fill:#000000;fill-rule:evenodd;stroke-width:1.84246;stroke-linejoin:round;-inkscape-stroke:none"
             d="m 292.86438,455.61933 -32.20874,-11.84397 32.20875,-11.84397 c -5.14562,6.99267 -5.11597,16.55986 -1e-5,23.68794 z"
             id="path1040" />
          <path
             style="color:#000000;fill:#000000;fill-rule:evenodd;stroke-linejoin:round;-inkscape-stroke:none"
             d="m 292.54687,431.06641 -32.20898,11.84375 a 0.92132214,0.92132214 0 0 0 0,1.73046 l 32.20898,11.84375 a 0.92132214,0.92132214 0 0 0 1.06641,-1.40234 c -4.88926,-6.81221 -4.91469,-15.93724 -0.008,-22.60547 a 0.92132214,0.92132214 0 0 0 -1.0586,-1.41015 z m -1.86132,2.64843 c -3.42069,6.23936 -3.38885,13.82247 0.0352,20.13477 l -27.39453,-10.07422 z"
             id="path1042" />
        </g>
      </g>
    </g>
    <circle
       style="fill:#ff0000;stroke-width:20"
       id="circle1914"
       cx="770.09009"
       cy="443.74252"
       r="29.773399" />
    <g
       id="path2016">
      <path
         style="color:#000000;fill:#000000;-inkscape-stroke:none"
         d="m 627.16211,441.27148 v 4.91407 h 113.1543 v -4.91407 z"
         id="path1028" />
      <g
         id="g1018">
        <g
           id="path1020">
          <path
             style="color:#000000;fill:#000000;fill-rule:evenodd;stroke-width:1.84246;stroke-linejoin:round;-inkscape-stroke:none"
             d="m 652.86438,455.61933 -32.20874,-11.84397 32.20875,-11.84397 c -5.14562,6.99267 -5.11597,16.55986 -10e-6,23.68794 z"
             id="path1024" />
          <path
             style="color:#000000;fill:#000000;fill-rule:evenodd;stroke-linejoin:round;-inkscape-stroke:none"
             d="m 652.54687,431.06641 -32.20898,11.84375 a 0.92132214,0.92132214 0 0 0 0,1.73046 l 32.20898,11.84375 a 0.92132214,0.92132214 0 0 0 1.06641,-1.40234 c -4.88926,-6.81221 -4.91469,-15.93724 -0.008,-22.60547 a 0.92132214,0.92132214 0 0 0 -1.0586,-1.41015 z m -1.86132,2.64843 c -3.42069,6.23936 -3.38885,13.82247 0.0351,20.13477 l -27.39453,-10.07422 z"
             id="path1026" />
        </g>
      </g>
    </g>
    <circle
       style="fill:#ff0000;stroke-width:20"
       id="circle2018"
       cx="590.09009"
       cy="443.74252"
       r="29.773399" />
    <g
       id="text4179"
       style="font-size:40px;fill:#ffccaa" />
    <g
       aria-label="A"
       id="text9647"
       style="font-size:40px">
      <path
         d="m 957.3701,123.96913 -2.08,-6.8 h -10.4 l -2.08,6.8 h -6.52 l 10.08,-28.679999 h 7.4 l 10.12,28.679999 z m -5.6,-18.52 q -0.2,-0.68 -0.52,-1.72 -0.32,-1.04 -0.64,-2.12 -0.32,-1.08 -0.52,-1.879999 -0.2,0.799999 -0.56,1.999999 -0.32,1.16 -0.64,2.24 -0.28,1.04 -0.44,1.48 l -2.04,6.64 h 7.44 z"
         style="-inkscape-font-specification:'sans-serif Bold'"
         id="path1008" />
    </g>
    <g
       aria-label="B"
       id="text12583"
       style="font-size:40px">
      <path
         d="m 768.3901,195.40912 q 5.72,0 8.64,1.6 2.92,1.6 2.92,5.64 0,2.44 -1.16,4.12 -1.12,1.68 -3.24,2.04 v 0.2 q 1.44,0.28 2.6,1 1.16,0.72 1.84,2.08 0.68,1.36 0.68,3.6 0,3.88 -2.8,6.08 -2.8,2.2 -7.68,2.2 h -10.68 v -28.56 z m 0.68,11.32 q 2.64,0 3.64,-0.84 1.04,-0.84 1.04,-2.44 0,-1.64 -1.2,-2.36 -1.2,-0.72 -3.8,-0.72 h -3.2 v 6.36 z m -3.52,4.8 v 7.44 h 3.96 q 2.72,0 3.8,-1.04 1.08,-1.08 1.08,-2.84 0,-1.6 -1.12,-2.56 -1.08,-1 -3.96,-1 z"
         style="-inkscape-font-specification:'sans-serif Bold'"
         id="path1003" />
    </g>
    <g
       id="path14156">
      <path
         style="color:#000000;fill:#000000;stroke-dasharray:4.913, 4.913;-inkscape-stroke:none"
         d="m 587.58594,195.56445 v 4.91211 H 592.5 v -4.91211 z m 0,9.82617 v 4.91211 H 592.5 v -4.91211 z m 0,9.82618 v 4.91211 H 592.5 v -4.91211 z m 0,9.82617 v 4.91211 H 592.5 v -4.91211 z m 0,9.82617 v 4.91211 H 592.5 v -4.91211 z m 0,9.82422 v 4.91406 H 592.5 v -4.91406 z m 0,9.82617 v 4.91406 H 592.5 v -4.91406 z m 0,9.82617 v 4.91407 H 592.5 v -4.91407 z m 0,9.82617 v 4.91407 H 592.5 v -4.91407 z m 0,9.82618 v 4.91406 H 592.5 v -4.91406 z m 0,9.82617 v 4.91211 H 592.5 v -4.91211 z m 0,9.82617 v 4.91211 H 592.5 v -4.91211 z m 0,9.82617 v 4.91211 H 592.5 v -4.91211 z m 0,9.82617 v 4.91211 H 592.5 v -4.91211 z m 0,9.82618 v 4.91211 H 592.5 v -4.91211 z m 0,9.82617 v 4.91211 H 592.5 v -4.91211 z m 0,9.82422 v 4.91406 H 592.5 v -4.91406 z m 0,9.82617 v 4.91406 H 592.5 v -4.91406 z m 0,9.82617 v 4.91406 H 592.5 v -4.91406 z m 0,9.82617 v 4.91406 H 592.5 v -4.91406 z m 0,9.82617 v 4.91407 H 592.5 v -4.91407 z m 0,9.82618 v 4.91406 H 592.5 v -4.91406 z"
         id="path1001" />
      <g
         id="g991">
        <g
           id="path993">
          <path
             style="color:#000000;fill:#000000;fill-rule:evenodd;stroke-width:1.84238;stroke-linejoin:round;-inkscape-stroke:none"
             d="m 601.93355,381.12262 -11.84344,32.2073 -11.84343,-32.20731 c 6.99236,5.14538 16.55912,5.11574 23.68687,10e-6 z"
             id="path997" />
          <path
             style="color:#000000;fill:#000000;fill-rule:evenodd;stroke-linejoin:round;-inkscape-stroke:none"
             d="m 602.14062,380.22461 a 0.92128214,0.92128214 0 0 0 -0.74414,0.15039 c -6.81189,4.88904 -15.93558,4.91251 -22.60351,0.006 a 0.92128214,0.92128214 0 0 0 -1.41016,1.06055 l 11.8418,32.20703 a 0.92128214,0.92128214 0 0 0 1.73047,0 l 11.84375,-32.20703 a 0.92128214,0.92128214 0 0 0 -0.65821,-1.2168 z m -1.97656,3.04101 -10.07422,27.39258 -10.06054,-27.35742 c 6.23954,3.42098 13.82238,3.3894 20.13476,-0.0352 z"
             id="path999" />
        </g>
      </g>
    </g>
    <g
       id="path14884">
      <path
         style="color:#000000;fill:#000000;-inkscape-stroke:none"
         d="m 262.4375,182.9043 -2.47656,4.24414 119.48047,69.71289 2.47656,-4.24219 z"
         id="path987" />
      <g
         id="g977">
        <g
           id="path979">
          <path
             style="color:#000000;fill:#000000;fill-rule:evenodd;stroke-width:1.84246;stroke-linejoin:round;-inkscape-stroke:none"
             d="m 277.40617,208.24928 -21.85043,-26.46208 33.78839,6.00228 c -7.96846,3.4465 -12.76441,11.72484 -11.93796,20.4598 z"
             id="path983" />
          <path
             style="color:#000000;fill:#000000;fill-rule:evenodd;stroke-linejoin:round;-inkscape-stroke:none"
             d="m 255.7168,180.88086 a 0.92132214,0.92132214 0 0 0 -0.8711,1.49219 l 21.84961,26.46289 a 0.92132214,0.92132214 0 0 0 1.62891,-0.67383 c -0.78983,-8.34789 3.78602,-16.24075 11.38476,-19.52734 a 0.92132214,0.92132214 0 0 0 -0.20312,-1.75196 z m 2.14257,2.25 28.70313,5.10156 c -6.09842,3.66506 -9.89115,10.22913 -10.11523,17.40625 z"
             id="path985" />
        </g>
      </g>
    </g>
    <circle
       style="fill:#0000ff;stroke-width:20"
       id="circle14886"
       cx="410.09009"
       cy="263.74252"
       r="29.773399" />
    <circle
       style="fill:#0000ff;stroke-width:20"
       id="circle14888"
       cx="770.09009"
       cy="263.74252"
       r="29.773399" />
    <g
       id="path14890">
      <path
         style="color:#000000;fill:#000000;-inkscape-stroke:none"
         d="m 447.16211,261.27148 v 4.91407 h 292.33203 v -4.91407 z"
         id="path969" />
      <g
         id="g959">
        <g
           id="path961">
          <path
             style="color:#000000;fill:#000000;fill-rule:evenodd;stroke-width:1.84246;stroke-linejoin:round;-inkscape-stroke:none"
             d="m 472.86438,275.61933 -32.20874,-11.84397 32.20875,-11.84397 c -5.14562,6.99267 -5.11597,16.55986 -1e-5,23.68794 z"
             id="path965" />
          <path
             style="color:#000000;fill:#000000;fill-rule:evenodd;stroke-linejoin:round;-inkscape-stroke:none"
             d="m 472.54687,251.06641 -32.20898,11.84375 a 0.92132214,0.92132214 0 0 0 0,1.73046 l 32.20898,11.84375 a 0.92132214,0.92132214 0 0 0 1.06641,-1.40234 c -4.88926,-6.81221 -4.91469,-15.93724 -0.008,-22.60547 a 0.92132214,0.92132214 0 0 0 -1.0586,-1.41015 z m -1.86132,2.64843 c -3.42069,6.23936 -3.38885,13.82247 0.0352,20.13477 l -27.39453,-10.07422 z"
             id="path967" />
        </g>
      </g>
    </g>
    <circle
       style="fill:#0000ff;stroke-width:20"
       id="circle30330"
       cx="590.09009"
       cy="163.74252"
       r="29.773399" />
    <g
       id="path30332">
      <path
         style="color:#000000;fill:#000000;-inkscape-stroke:none"
         d="m 447.16211,161.27148 v 4.91407 h 113.1543 v -4.91407 z"
         id="path953" />
      <g
         id="g943">
        <g
           id="path945">
          <path
             style="color:#000000;fill:#000000;fill-rule:evenodd;stroke-width:1.84246;stroke-linejoin:round;-inkscape-stroke:none"
             d="m 472.86438,175.61933 -32.20874,-11.84397 32.20875,-11.84397 c -5.14562,6.99267 -5.11597,16.55986 -1e-5,23.68794 z"
             id="path949" />
          <path
             style="color:#000000;fill:#000000;fill-rule:evenodd;stroke-linejoin:round;-inkscape-stroke:none"
             d="m 472.54687,151.06641 -32.20898,11.84375 a 0.92132214,0.92132214 0 0 0 0,1.73046 l 32.20898,11.84375 a 0.92132214,0.92132214 0 0 0 1.06641,-1.40234 c -4.88926,-6.81221 -4.91469,-15.93724 -0.008,-22.60547 a 0.92132214,0.92132214 0 0 0 -1.0586,-1.41015 z m -1.86132,2.64843 c -3.42069,6.23936 -3.38885,13.82247 0.0352,20.13477 l -27.39453,-10.07422 z"
             id="path951" />
        </g>
      </g>
    </g>
    <g
       id="path34972">
      <path
         style="color:#000000;fill:#000000;-inkscape-stroke:none"
         d="m 447.16211,441.27148 v 4.91407 h 113.1543 v -4.91407 z"
         id="path939" />
      <g
         id="g929">
        <g
           id="path931">
          <path
             style="color:#000000;fill:#000000;fill-rule:evenodd;stroke-width:1.84246;stroke-linejoin:round;-inkscape-stroke:none"
             d="m 472.86438,455.61933 -32.20874,-11.84397 32.20875,-11.84397 c -5.14562,6.99267 -5.11597,16.55986 -1e-5,23.68794 z"
             id="path935" />
          <path
             style="color:#000000;fill:#000000;fill-rule:evenodd;stroke-linejoin:round;-inkscape-stroke:none"
             d="m 472.54687,431.06641 -32.20898,11.84375 a 0.92132214,0.92132214 0 0 0 0,1.73046 l 32.20898,11.84375 a 0.92132214,0.92132214 0 0 0 1.06641,-1.40234 c -4.88926,-6.81221 -4.91469,-15.93724 -0.008,-22.60547 a 0.92132214,0.92132214 0 0 0 -1.0586,-1.41015 z m -1.86132,2.64843 c -3.42069,6.23936 -3.38885,13.82247 0.0352,20.13477 l -27.39453,-10.07422 z"
             id="path937" />
        </g>
      </g>
    </g>
    <g
       id="path36589">
      <path
         style="color:#000000;fill:#000000;stroke-dasharray:4.913, 4.913;-inkscape-stroke:none"
         d="m 767.58594,293.82422 v 4.91211 H 772.5 v -4.91211 z m 0,9.82617 v 4.91211 H 772.5 v -4.91211 z m 0,9.82617 v 4.91211 H 772.5 v -4.91211 z m 0,9.82617 v 4.91211 H 772.5 v -4.91211 z m 0,9.82618 v 4.91211 H 772.5 v -4.91211 z m 0,9.82617 v 4.91211 H 772.5 v -4.91211 z m 0,9.82422 v 4.91406 H 772.5 v -4.91406 z m 0,9.82617 v 4.91406 H 772.5 v -4.91406 z m 0,9.82617 v 4.91406 H 772.5 v -4.91406 z m 0,9.82617 v 4.91406 H 772.5 v -4.91406 z m 0,9.82617 v 4.91407 H 772.5 v -4.91407 z m 0,9.82618 v 4.91406 H 772.5 v -4.91406 z"
         id="path925" />
      <g
         id="g915">
        <g
           id="path917">
          <path
             style="color:#000000;fill:#000000;fill-rule:evenodd;stroke-width:1.84238;stroke-linejoin:round;-inkscape-stroke:none"
             d="m 781.93355,381.12262 -11.84344,32.2073 -11.84343,-32.20731 c 6.99236,5.14538 16.55912,5.11574 23.68687,10e-6 z"
             id="path921" />
          <path
             style="color:#000000;fill:#000000;fill-rule:evenodd;stroke-linejoin:round;-inkscape-stroke:none"
             d="m 782.14062,380.22461 a 0.92128214,0.92128214 0 0 0 -0.74414,0.15039 c -6.81189,4.88904 -15.93558,4.91251 -22.60351,0.006 a 0.92128214,0.92128214 0 0 0 -1.41016,1.06055 l 11.8418,32.20703 a 0.92128214,0.92128214 0 0 0 1.73047,0 l 11.84375,-32.20703 a 0.92128214,0.92128214 0 0 0 -0.65821,-1.2168 z m -1.97656,3.04101 -10.07422,27.39258 -10.06054,-27.35742 c 6.23954,3.42098 13.82238,3.3894 20.13476,-0.0352 z"
             id="path923" />
        </g>
      </g>
    </g>
    <circle
       style="fill:#0000ff;stroke-width:20"
       id="circle36822"
       cx="950.09009"
       cy="163.74252"
       r="29.773399" />
    <g
       id="path36824">
      <path
         style="color:#000000;fill:#000000;-inkscape-stroke:none"
         d="m 627.16211,161.27148 v 4.91407 h 292.33203 v -4.91407 z"
         id="path909" />
      <g
         id="g899">
        <g
           id="path901">
          <path
             style="color:#000000;fill:#000000;fill-rule:evenodd;stroke-width:1.84246;stroke-linejoin:round;-inkscape-stroke:none"
             d="m 652.86438,175.61933 -32.20874,-11.84397 32.20875,-11.84397 c -5.14562,6.99267 -5.11597,16.55986 -10e-6,23.68794 z"
             id="path905" />
          <path
             style="color:#000000;fill:#000000;fill-rule:evenodd;stroke-linejoin:round;-inkscape-stroke:none"
             d="m 652.54687,151.06641 -32.20898,11.84375 a 0.92132214,0.92132214 0 0 0 0,1.73046 l 32.20898,11.84375 a 0.92132214,0.92132214 0 0 0 1.06641,-1.40234 c -4.88926,-6.81221 -4.91469,-15.93724 -0.008,-22.60547 a 0.92132214,0.92132214 0 0 0 -1.0586,-1.41015 z m -1.86132,2.64843 c -3.42069,6.23936 -3.38885,13.82247 0.0351,20.13477 l -27.39453,-10.07422 z"
             id="path907" />
        </g>
      </g>
    </g>
    <g
       id="path36826">
      <path
         style="color:#000000;fill:#000000;-inkscape-stroke:none"
         d="m 926.74609,177.04297 -122,80.00976 2.69532,4.10938 122,-80.00977 z"
         id="path895" />
      <g
         id="g885">
        <g
           id="path887">
          <path
             style="color:#000000;fill:#000000;fill-rule:evenodd;stroke-width:1.84246;stroke-linejoin:round;-inkscape-stroke:none"
             d="m 834.10757,254.95631 -33.42862,7.75953 20.43793,-27.56762 c -0.46796,8.66924 4.80357,16.65316 12.99069,19.80809 z"
             id="path891" />
          <path
             style="color:#000000;fill:#000000;fill-rule:evenodd;stroke-linejoin:round;-inkscape-stroke:none"
             d="m 821.04297,234.23047 a 0.92132214,0.92132214 0 0 0 -0.66602,0.36914 l -20.4375,27.56836 a 0.92132214,0.92132214 0 0 0 0.94727,1.44531 l 33.42969,-7.75976 a 0.92132214,0.92132214 0 0 0 0.12304,-1.75586 c -7.82432,-3.01513 -12.84859,-10.63338 -12.40234,-18.90039 a 0.92132214,0.92132214 0 0 0 -0.99414,-0.9668 z m -0.77149,3.60547 c 0.56168,7.09273 4.74792,13.41589 11.07227,16.8164 l -28.43164,6.59961 z"
             id="path893" />
        </g>
      </g>
    </g>
    <g
       id="path37117">
      <path
         style="color:#000000;fill:#000000;stroke-dasharray:4.913, 4.913;-inkscape-stroke:none"
         d="m 941.33008,192.82422 -2.53906,3.93945 4.13085,2.66016 2.53711,-3.93946 z m -5.19922,8.07031 -2.66016,4.12891 4.13086,2.66211 2.66016,-4.13086 z m -5.32031,8.25977 -2.66211,4.13086 4.13086,2.66015 2.66015,-4.13086 z m -5.32227,8.26172 -2.66016,4.1289 4.13086,2.66016 2.66016,-4.12891 z m -5.32031,8.25976 -2.66016,4.13086 4.12891,2.66016 2.66015,-4.13086 z m -5.32227,8.25977 -2.66015,4.13086 4.13086,2.66015 2.66015,-4.13086 z m -5.32031,8.26172 -2.66016,4.1289 4.12891,2.66211 2.66211,-4.13086 z m -5.32227,8.25976 -2.66015,4.13086 4.13086,2.66016 2.66015,-4.13086 z m -5.32031,8.25977 -2.66015,4.13086 4.1289,2.66015 2.66211,-4.1289 z m -5.32031,8.26172 -2.66211,4.1289 4.13086,2.66211 2.66016,-4.13086 z m -5.32227,8.25976 -2.66015,4.13086 4.13086,2.66016 2.66015,-4.13086 z m -5.32031,8.25977 -2.66211,4.13086 4.13086,2.66015 2.66016,-4.1289 z m -5.32226,8.26172 -2.66016,4.1289 4.13086,2.66211 2.66016,-4.13086 z m -5.32032,8.25976 -2.66211,4.13086 4.13086,2.66016 2.66016,-4.13086 z m -5.32226,8.25977 -2.66016,4.13086 4.13086,2.66015 2.66016,-4.1289 z m -5.32031,8.26172 -2.66016,4.1289 4.12891,2.66211 2.66015,-4.13086 z m -5.32227,8.25976 -2.66016,4.13086 4.13086,2.66016 2.66016,-4.13086 z m -5.32031,8.26172 -2.66016,4.12891 4.12891,2.66015 2.66211,-4.1289 z m -5.32227,8.25977 -2.66015,4.13085 4.13085,2.66016 2.66016,-4.13086 z m -5.32031,8.25976 -2.66016,4.13086 4.12891,2.66016 2.66211,-4.13086 z m -5.32031,8.26172 -2.66211,4.12891 4.13086,2.66211 2.66015,-4.13086 z m -5.32227,8.25977 -2.66016,4.13085 4.13086,2.66016 2.66016,-4.13086 z m -5.32031,8.25976 -2.66211,4.13086 4.13086,2.66016 2.66015,-4.12891 z m -5.32227,8.26172 -2.66015,4.12891 4.13086,2.66211 2.66015,-4.13086 z m -5.32031,8.25977 -2.66016,4.13085 4.12891,2.66016 2.66016,-4.13086 z m -5.32227,8.25976 -2.66015,4.13086 4.13086,2.66016 2.66015,-4.12891 z m -5.32031,8.26172 -2.66015,4.12891 4.1289,2.66211 2.66211,-4.13086 z m -5.32226,8.25977 -2.66016,4.13085 4.13086,2.66016 2.66016,-4.13086 z"
         id="path881" />
      <g
         id="g871">
        <g
           id="path873">
          <path
             style="color:#000000;fill:#000000;fill-rule:evenodd;stroke-width:1.84238;stroke-linejoin:round;-inkscape-stroke:none"
             d="m 821.0988,405.96014 -27.39807,20.66212 7.48513,-33.48955 c 3.09186,8.11224 11.15044,13.26811 19.91294,12.82743 z"
             id="path877" />
          <path
             style="color:#000000;fill:#000000;fill-rule:evenodd;stroke-linejoin:round;-inkscape-stroke:none"
             d="m 801.11914,392.21484 a 0.92128214,0.92128214 0 0 0 -0.83203,0.7168 l -7.48633,33.49023 a 0.92128214,0.92128214 0 0 0 1.45508,0.93555 l 27.39844,-20.66211 a 0.92128214,0.92128214 0 0 0 -0.60157,-1.65429 c -8.3742,0.42115 -16.05745,-4.50048 -19.00586,-12.23633 a 0.92128214,0.92128214 0 0 0 -0.92773,-0.58985 z m 0.38477,3.71485 c 3.39274,6.25527 9.78579,10.33357 16.94726,10.87304 l -23.30469,17.57618 z"
             id="path879" />
        </g>
      </g>
    </g>
  </g>
</svg>
