<?xml version="1.0" encoding="UTF-8" standalone="no"?>
<!-- Created with Inkscape (http://www.inkscape.org/) -->

<svg
   version="1.1"
   id="svg2"
   width="1058"
   height="595"
   viewBox="0 0 1058 595"
   sodipodi:docname="merge_duvida-en.svg"
   inkscape:version="1.2.2 (b0a8486541, 2022-12-01)"
   xmlns:inkscape="http://www.inkscape.org/namespaces/inkscape"
   xmlns:sodipodi="http://sodipodi.sourceforge.net/DTD/sodipodi-0.dtd"
   xmlns="http://www.w3.org/2000/svg"
   xmlns:svg="http://www.w3.org/2000/svg">
  <defs
     id="defs6">
    <marker
       style="overflow:visible"
       id="Arrow2Mstart"
       refX="0.0"
       refY="0.0"
       orient="auto"
       inkscape:stockid="Arrow2Mstart"
       inkscape:isstock="true">
      <path
         transform="scale(0.6) translate(0,0)"
         d="M 8.7185878,4.0337352 L -2.2072895,0.016013256 L 8.7185884,-4.0017078 C 6.9730900,-1.6296469 6.9831476,1.6157441 8.7185878,4.0337352 z "
         style="stroke:context-stroke;fill-rule:evenodd;fill:context-stroke;stroke-width:0.62500000;stroke-linejoin:round"
         id="path1480" />
    </marker>
    <marker
       style="overflow:visible"
       id="Arrow2Lstart"
       refX="0.0"
       refY="0.0"
       orient="auto"
       inkscape:stockid="Arrow2Lstart"
       inkscape:isstock="true">
      <path
         transform="scale(1.1) translate(1,0)"
         d="M 8.7185878,4.0337352 L -2.2072895,0.016013256 L 8.7185884,-4.0017078 C 6.9730900,-1.6296469 6.9831476,1.6157441 8.7185878,4.0337352 z "
         style="stroke:context-stroke;fill-rule:evenodd;fill:context-stroke;stroke-width:0.62500000;stroke-linejoin:round"
         id="path1474" />
    </marker>
    <marker
       style="overflow:visible"
       id="Arrow2Mstart-6"
       refX="0"
       refY="0"
       orient="auto"
       inkscape:stockid="Arrow2Mstart"
       inkscape:isstock="true">
      <path
         transform="scale(0.6)"
         d="M 8.7185878,4.0337352 -2.2072895,0.01601326 8.7185884,-4.0017078 c -1.7454984,2.3720609 -1.7354408,5.6174519 -6e-7,8.035443 z"
         style="fill:context-stroke;fill-rule:evenodd;stroke:context-stroke;stroke-width:0.625;stroke-linejoin:round"
         id="path1480-7" />
    </marker>
    <marker
       style="overflow:visible"
       id="marker40874"
       refX="0"
       refY="0"
       orient="auto"
       inkscape:stockid="Arrow2Mstart"
       inkscape:isstock="true">
      <path
         transform="scale(0.6)"
         d="M 8.7185878,4.0337352 -2.2072895,0.01601326 8.7185884,-4.0017078 c -1.7454984,2.3720609 -1.7354408,5.6174519 -6e-7,8.035443 z"
         style="fill:context-stroke;fill-rule:evenodd;stroke:context-stroke;stroke-width:0.625;stroke-linejoin:round"
         id="path40872" />
    </marker>
    <marker
       style="overflow:visible"
       id="marker40878"
       refX="0"
       refY="0"
       orient="auto"
       inkscape:stockid="Arrow2Mstart"
       inkscape:isstock="true">
      <path
         transform="scale(0.6)"
         d="M 8.7185878,4.0337352 -2.2072895,0.01601326 8.7185884,-4.0017078 c -1.7454984,2.3720609 -1.7354408,5.6174519 -6e-7,8.035443 z"
         style="fill:context-stroke;fill-rule:evenodd;stroke:context-stroke;stroke-width:0.625;stroke-linejoin:round"
         id="path40876" />
    </marker>
  </defs>
  <sodipodi:namedview
     id="namedview4"
     pagecolor="#ffffff"
     bordercolor="#666666"
     borderopacity="1.0"
     inkscape:pageshadow="2"
     inkscape:pageopacity="0.0"
     inkscape:pagecheckerboard="0"
     showgrid="false"
     showguides="true"
     inkscape:guide-bbox="true"
     inkscape:snap-grids="false"
     inkscape:snap-to-guides="true"
     inkscape:snap-page="false"
     inkscape:snap-global="true"
     inkscape:snap-bbox="true"
     inkscape:snap-others="false"
     inkscape:snap-nodes="false"
     inkscape:bbox-paths="true"
     inkscape:snap-bbox-midpoints="true"
     inkscape:bbox-nodes="true"
     inkscape:snap-bbox-edge-midpoints="true"
     inkscape:zoom="0.41403842"
     inkscape:cx="446.81844"
     inkscape:cy="504.78407"
     inkscape:window-width="1440"
     inkscape:window-height="2560"
     inkscape:window-x="0"
     inkscape:window-y="0"
     inkscape:window-maximized="1"
     inkscape:current-layer="g8"
     inkscape:showpageshadow="2"
     inkscape:deskcolor="#d1d1d1" />
  <g
     inkscape:groupmode="layer"
     inkscape:label="Image"
     id="g8">
    <circle
       style="fill:#0000ff;stroke-width:20"
       id="path849-3"
       cx="50.090088"
       cy="163.74252"
       r="29.773399" />
    <circle
       style="fill:#0000ff;stroke-width:20"
       id="circle1358"
       cx="230.09009"
       cy="163.74252"
       r="29.773399" />
    <circle
       style="fill:#0000ff;stroke-width:20"
       id="circle1360"
       cx="410.09009"
       cy="163.74252"
       r="29.773399" />
    <g
       id="path1397">
      <path
         style="color:#000000;fill:#000000;-inkscape-stroke:none"
         d="m 87.162109,161.27148 v 4.91407 H 200.31641 v -4.91407 z"
         id="path343" />
      <g
         id="g333">
        <g
           id="path335">
          <path
             style="color:#000000;fill:#000000;fill-rule:evenodd;stroke-width:1.84246;stroke-linejoin:round;-inkscape-stroke:none"
             d="M 112.86438,175.61933 80.655641,163.77536 112.86439,151.93139 c -5.14562,6.99267 -5.11597,16.55986 -1e-5,23.68794 z"
             id="path339" />
          <path
             style="color:#000000;fill:#000000;fill-rule:evenodd;stroke-linejoin:round;-inkscape-stroke:none"
             d="m 112.54688,151.06641 -32.208989,11.84375 a 0.92132214,0.92132214 0 0 0 0,1.73046 l 32.208989,11.84375 a 0.92132214,0.92132214 0 0 0 1.0664,-1.40234 c -4.88926,-6.81221 -4.91469,-15.93724 -0.008,-22.60547 a 0.92132214,0.92132214 0 0 0 -1.05859,-1.41015 z m -1.86133,2.64843 c -3.42069,6.23936 -3.38885,13.82247 0.0351,20.13477 L 83.326172,163.77539 Z"
             id="path341" />
        </g>
      </g>
    </g>
    <g
       id="path1812">
      <path
         style="color:#000000;fill:#000000;-inkscape-stroke:none"
         d="m 267.16211,161.27148 v 4.91407 h 113.1543 v -4.91407 z"
         id="path329" />
      <g
         id="g319">
        <g
           id="path321">
          <path
             style="color:#000000;fill:#000000;fill-rule:evenodd;stroke-width:1.84246;stroke-linejoin:round;-inkscape-stroke:none"
             d="m 292.86438,175.61933 -32.20874,-11.84397 32.20875,-11.84397 c -5.14562,6.99267 -5.11597,16.55986 -1e-5,23.68794 z"
             id="path325" />
          <path
             style="color:#000000;fill:#000000;fill-rule:evenodd;stroke-linejoin:round;-inkscape-stroke:none"
             d="m 292.54687,151.06641 -32.20898,11.84375 a 0.92132214,0.92132214 0 0 0 0,1.73046 l 32.20898,11.84375 a 0.92132214,0.92132214 0 0 0 1.06641,-1.40234 c -4.88926,-6.81221 -4.91469,-15.93724 -0.008,-22.60547 a 0.92132214,0.92132214 0 0 0 -1.0586,-1.41015 z m -1.86132,2.64843 c -3.42069,6.23936 -3.38885,13.82247 0.0352,20.13477 l -27.39453,-10.07422 z"
             id="path327" />
        </g>
      </g>
    </g>
    <g
       id="text4179"
       style="font-size:40px;fill:#ffccaa" />
    <g
       aria-label="main"
       id="text9647"
       style="font-size:40px">
      <path
         d="m 567.83007,93.329122 q 3.72,0 5.6,1.92 1.92,1.88 1.92,6.079998 v 14.24 h -5.96 v -12.76 q 0,-4.719998 -3.28,-4.719998 -2.36,0 -3.36,1.68 -1,1.679998 -1,4.839998 v 10.96 h -5.96 v -12.76 q 0,-4.719998 -3.28,-4.719998 -2.48,0 -3.44,1.88 -0.92,1.839998 -0.92,5.319998 v 10.28 h -5.96 V 93.729122 h 4.56 l 0.8,2.8 h 0.32 q 1,-1.68 2.72,-2.44 1.76,-0.76 3.64,-0.76 2.4,0 4.08,0.8 1.68,0.76 2.56,2.4 h 0.52 q 1,-1.68 2.76,-2.44 1.8,-0.76 3.68,-0.76 z"
         style="-inkscape-font-specification:'sans-serif Bold'"
         id="path299" />
      <path
         d="m 590.43008,93.289122 q 4.4,0 6.72,1.92 2.36,1.88 2.36,5.799998 v 14.56 h -4.16 l -1.16,-2.96 h -0.16 q -1.4,1.76 -2.96,2.56 -1.56,0.8 -4.28,0.8 -2.92,0 -4.84,-1.68 -1.92,-1.72 -1.92,-5.24 0,-3.48 2.44,-5.12 2.44,-1.68 7.32,-1.84 l 3.8,-0.12 v -0.96 q 0,-1.719998 -0.92,-2.519998 -0.88,-0.8 -2.48,-0.8 -1.6,0 -3.12,0.48 -1.52,0.44 -3.04,1.12 l -1.96,-4.04 q 1.76,-0.92 3.88,-1.44 2.16,-0.52 4.48,-0.52 z m 0.84,12.239998 q -2.88,0.08 -4,1.04 -1.12,0.96 -1.12,2.52 0,1.36 0.8,1.96 0.8,0.56 2.08,0.56 1.92,0 3.24,-1.12 1.32,-1.16 1.32,-3.24 v -1.8 z"
         style="-inkscape-font-specification:'sans-serif Bold'"
         id="path301" />
      <path
         d="m 608.63009,85.169122 q 1.32,0 2.28,0.64 0.96,0.6 0.96,2.28 0,1.64 -0.96,2.28 -0.96,0.64 -2.28,0.64 -1.36,0 -2.32,-0.64 -0.92,-0.64 -0.92,-2.28 0,-1.68 0.92,-2.28 0.96,-0.64 2.32,-0.64 z m 2.96,8.56 v 21.839998 h -5.96 V 93.729122 Z"
         style="-inkscape-font-specification:'sans-serif Bold'"
         id="path303" />
      <path
         d="m 630.2301,93.329122 q 3.52,0 5.64,1.92 2.12,1.88 2.12,6.079998 v 14.24 h -5.96 v -12.76 q 0,-2.36 -0.84,-3.519998 -0.84,-1.2 -2.68,-1.2 -2.72,0 -3.72,1.88 -1,1.839998 -1,5.319998 v 10.28 h -5.96 V 93.729122 h 4.56 l 0.8,2.8 h 0.32 q 1.04,-1.68 2.84,-2.44 1.84,-0.76 3.88,-0.76 z"
         style="-inkscape-font-specification:'sans-serif Bold'"
         id="path305" />
    </g>
    <g
       aria-label="pr-branch"
       id="text12583"
       style="font-size:40px">
      <path
         d="m 687.15012,192.12913 q 3.68,0 5.96,2.88 2.28,2.84 2.28,8.4 0,5.56 -2.36,8.48 -2.36,2.88 -6.04,2.88 -2.36,0 -3.76,-0.84 -1.4,-0.88 -2.28,-1.96 h -0.32 q 0.32,1.68 0.32,3.2 v 8.8 h -5.96 v -31.44 h 4.84 l 0.84,2.84 h 0.28 q 0.88,-1.32 2.36,-2.28 1.48,-0.96 3.84,-0.96 z m -1.92,4.76 q -2.32,0 -3.28,1.44 -0.92,1.44 -1,4.4 v 0.64 q 0,3.16 0.92,4.88 0.96,1.68 3.44,1.68 2.04,0 3,-1.68 1,-1.72 1,-4.92 0,-6.44 -4.08,-6.44 z"
         style="-inkscape-font-specification:'sans-serif Bold'"
         id="path262" />
      <path
         d="m 712.51009,192.12913 q 0.44,0 1.04,0.04 0.6,0.04 0.96,0.12 l -0.44,5.6 q -0.28,-0.08 -0.84,-0.12 -0.52,-0.08 -0.92,-0.08 -1.52,0 -2.92,0.56 -1.4,0.52 -2.28,1.72 -0.84,1.2 -0.84,3.28 v 11.12 h -5.96 v -21.84 h 4.52 l 0.88,3.68 h 0.28 q 0.96,-1.68 2.64,-2.88 1.68,-1.2 3.88,-1.2 z"
         style="-inkscape-font-specification:'sans-serif Bold'"
         id="path264" />
      <path
         d="m 716.55011,206.08913 v -4.88 h 10.48 v 4.88 z"
         style="-inkscape-font-specification:'sans-serif Bold'"
         id="path266" />
      <path
         d="m 737.31013,191.04913 q 0,1.24 -0.08,2.44 -0.08,1.2 -0.16,1.88 h 0.24 q 0.88,-1.36 2.36,-2.28 1.48,-0.96 3.84,-0.96 3.68,0 5.96,2.88 2.28,2.84 2.28,8.4 0,5.6 -2.32,8.48 -2.32,2.88 -6.08,2.88 -2.4,0 -3.8,-0.84 -1.36,-0.88 -2.24,-1.96 h -0.4 l -1,2.4 h -4.56 v -30.4 h 5.96 z m 4.28,5.84 q -2.32,0 -3.28,1.44 -0.92,1.44 -1,4.4 v 0.64 q 0,3.16 0.92,4.88 0.96,1.68 3.44,1.68 1.84,0 2.92,-1.68 1.08,-1.72 1.08,-4.92 0,-3.2 -1.12,-4.8 -1.08,-1.64 -2.96,-1.64 z"
         style="-inkscape-font-specification:'sans-serif Bold'"
         id="path268" />
      <path
         d="m 768.87011,192.12913 q 0.44,0 1.04,0.04 0.6,0.04 0.96,0.12 l -0.44,5.6 q -0.28,-0.08 -0.84,-0.12 -0.52,-0.08 -0.92,-0.08 -1.52,0 -2.92,0.56 -1.4,0.52 -2.28,1.72 -0.84,1.2 -0.84,3.28 v 11.12 h -5.96 v -21.84 h 4.52 l 0.88,3.68 h 0.28 q 0.96,-1.68 2.64,-2.88 1.68,-1.2 3.88,-1.2 z"
         style="-inkscape-font-specification:'sans-serif Bold'"
         id="path270" />
      <path
         d="m 782.99011,192.08913 q 4.4,0 6.72,1.92 2.36,1.88 2.36,5.8 v 14.56 h -4.16 l -1.16,-2.96 h -0.16 q -1.4,1.76 -2.96,2.56 -1.56,0.8 -4.28,0.8 -2.92,0 -4.84,-1.68 -1.92,-1.72 -1.92,-5.24 0,-3.48 2.44,-5.12 2.44,-1.68 7.32,-1.84 l 3.8,-0.12 v -0.96 q 0,-1.72 -0.92,-2.52 -0.88,-0.8 -2.48,-0.8 -1.6,0 -3.12,0.48 -1.52,0.44 -3.04,1.12 l -1.96,-4.04 q 1.76,-0.92 3.88,-1.44 2.16,-0.52 4.48,-0.52 z m 0.84,12.24 q -2.88,0.08 -4,1.04 -1.12,0.96 -1.12,2.52 0,1.36 0.8,1.96 0.8,0.56 2.08,0.56 1.92,0 3.24,-1.12 1.32,-1.16 1.32,-3.24 v -1.8 z"
         style="-inkscape-font-specification:'sans-serif Bold'"
         id="path272" />
      <path
         d="m 810.59011,192.12913 q 3.52,0 5.64,1.92 2.12,1.88 2.12,6.08 v 14.24 h -5.96 v -12.76 q 0,-2.36 -0.84,-3.52 -0.84,-1.2 -2.68,-1.2 -2.72,0 -3.72,1.88 -1,1.84 -1,5.32 v 10.28 h -5.96 v -21.84 h 4.56 l 0.8,2.8 h 0.32 q 1.04,-1.68 2.84,-2.44 1.84,-0.76 3.88,-0.76 z"
         style="-inkscape-font-specification:'sans-serif Bold'"
         id="path274" />
      <path
         d="m 833.3501,214.76913 q -4.88,0 -7.56,-2.68 -2.64,-2.72 -2.64,-8.52 0,-4 1.36,-6.52 1.36,-2.52 3.76,-3.72 2.44,-1.2 5.6,-1.2 2.24,0 3.88,0.44 1.68,0.44 2.92,1.04 l -1.76,4.6 q -1.4,-0.56 -2.64,-0.92 -1.2,-0.36 -2.4,-0.36 -4.64,0 -4.64,6.6 0,3.28 1.2,4.84 1.24,1.56 3.44,1.56 1.88,0 3.32,-0.48 1.44,-0.52 2.8,-1.4 v 5.08 q -1.36,0.88 -2.88,1.24 -1.48,0.4 -3.76,0.4 z"
         style="-inkscape-font-specification:'sans-serif Bold'"
         id="path276" />
      <path
         d="m 850.9901,190.16913 q 0,1.6 -0.12,3.08 -0.08,1.48 -0.16,2.08 h 0.32 q 1.04,-1.68 2.68,-2.44 1.64,-0.76 3.64,-0.76 3.56,0 5.68,1.92 2.16,1.88 2.16,6.08 v 14.24 h -5.96 v -12.76 q 0,-4.72 -3.52,-4.72 -2.68,0 -3.72,1.88 -1,1.84 -1,5.32 v 10.28 h -5.96 v -30.4 h 5.96 z"
         style="-inkscape-font-specification:'sans-serif Bold'"
         id="path278" />
    </g>
    <g
       id="path14156">
      <path
         style="color:#000000;fill:#000000;stroke-dasharray:4.913, 4.913;-inkscape-stroke:none"
         d="m 587.58594,195.56445 v 4.91211 H 592.5 v -4.91211 z m 0,9.82617 v 4.91211 H 592.5 v -4.91211 z m 0,9.82618 v 4.91211 H 592.5 v -4.91211 z m 0,9.82617 v 4.91211 H 592.5 v -4.91211 z m 0,9.82617 v 4.91211 H 592.5 v -4.91211 z m 0,9.82422 v 4.91406 H 592.5 v -4.91406 z m 0,9.82617 v 4.91406 H 592.5 v -4.91406 z m 0,9.82617 v 4.91407 H 592.5 v -4.91407 z m 0,9.82617 v 4.91407 H 592.5 v -4.91407 z m 0,9.82618 v 4.91406 H 592.5 v -4.91406 z m 0,9.82617 v 4.91211 H 592.5 v -4.91211 z m 0,9.82617 v 4.91211 H 592.5 v -4.91211 z m 0,9.82617 v 4.91211 H 592.5 v -4.91211 z m 0,9.82617 v 4.91211 H 592.5 v -4.91211 z m 0,9.82618 v 4.91211 H 592.5 v -4.91211 z m 0,9.82617 v 4.91211 H 592.5 v -4.91211 z m 0,9.82422 v 4.91406 H 592.5 v -4.91406 z m 0,9.82617 v 4.91406 H 592.5 v -4.91406 z m 0,9.82617 v 4.91406 H 592.5 v -4.91406 z m 0,9.82617 v 4.91406 H 592.5 v -4.91406 z m 0,9.82617 v 4.91407 H 592.5 v -4.91407 z m 0,9.82618 v 4.91406 H 592.5 v -4.91406 z"
         id="path260" />
      <g
         id="g250">
        <g
           id="path252">
          <path
             style="color:#000000;fill:#000000;fill-rule:evenodd;stroke-width:1.84238;stroke-linejoin:round;-inkscape-stroke:none"
             d="m 601.93355,381.12262 -11.84344,32.2073 -11.84343,-32.20731 c 6.99236,5.14538 16.55912,5.11574 23.68687,10e-6 z"
             id="path256" />
          <path
             style="color:#000000;fill:#000000;fill-rule:evenodd;stroke-linejoin:round;-inkscape-stroke:none"
             d="m 602.14062,380.22461 a 0.92128214,0.92128214 0 0 0 -0.74414,0.15039 c -6.81189,4.88904 -15.93558,4.91251 -22.60351,0.006 a 0.92128214,0.92128214 0 0 0 -1.41016,1.06055 l 11.8418,32.20703 a 0.92128214,0.92128214 0 0 0 1.73047,0 l 11.84375,-32.20703 a 0.92128214,0.92128214 0 0 0 -0.65821,-1.2168 z m -1.97656,3.04101 -10.07422,27.39258 -10.06054,-27.35742 c 6.23954,3.42098 13.82238,3.3894 20.13476,-0.0352 z"
             id="path258" />
        </g>
      </g>
    </g>
    <g
       id="path14884">
      <path
         style="color:#000000;fill:#000000;-inkscape-stroke:none"
         d="m 262.4375,182.9043 -2.47656,4.24414 119.48047,69.71289 2.47656,-4.24219 z"
         id="path246" />
      <g
         id="g236">
        <g
           id="path238">
          <path
             style="color:#000000;fill:#000000;fill-rule:evenodd;stroke-width:1.84246;stroke-linejoin:round;-inkscape-stroke:none"
             d="m 277.40617,208.24928 -21.85043,-26.46208 33.78839,6.00228 c -7.96846,3.4465 -12.76441,11.72484 -11.93796,20.4598 z"
             id="path242" />
          <path
             style="color:#000000;fill:#000000;fill-rule:evenodd;stroke-linejoin:round;-inkscape-stroke:none"
             d="m 255.7168,180.88086 a 0.92132214,0.92132214 0 0 0 -0.8711,1.49219 l 21.84961,26.46289 a 0.92132214,0.92132214 0 0 0 1.62891,-0.67383 c -0.78983,-8.34789 3.78602,-16.24075 11.38476,-19.52734 a 0.92132214,0.92132214 0 0 0 -0.20312,-1.75196 z m 2.14257,2.25 28.70313,5.10156 c -6.09842,3.66506 -9.89115,10.22913 -10.11523,17.40625 z"
             id="path244" />
        </g>
      </g>
    </g>
    <circle
       style="fill:#0000ff;stroke-width:20"
       id="circle14886"
       cx="410.09009"
       cy="263.74252"
       r="29.773399" />
    <circle
       style="fill:#0000ff;stroke-width:20"
       id="circle14888"
       cx="770.09009"
       cy="263.74252"
       r="29.773399" />
    <g
       id="path14890">
      <path
         style="color:#000000;fill:#000000;-inkscape-stroke:none"
         d="m 447.16211,261.27148 v 4.91407 h 292.33203 v -4.91407 z"
         id="path228" />
      <g
         id="g218">
        <g
           id="path220">
          <path
             style="color:#000000;fill:#000000;fill-rule:evenodd;stroke-width:1.84246;stroke-linejoin:round;-inkscape-stroke:none"
             d="m 472.86438,275.61933 -32.20874,-11.84397 32.20875,-11.84397 c -5.14562,6.99267 -5.11597,16.55986 -1e-5,23.68794 z"
             id="path224" />
          <path
             style="color:#000000;fill:#000000;fill-rule:evenodd;stroke-linejoin:round;-inkscape-stroke:none"
             d="m 472.54687,251.06641 -32.20898,11.84375 a 0.92132214,0.92132214 0 0 0 0,1.73046 l 32.20898,11.84375 a 0.92132214,0.92132214 0 0 0 1.06641,-1.40234 c -4.88926,-6.81221 -4.91469,-15.93724 -0.008,-22.60547 a 0.92132214,0.92132214 0 0 0 -1.0586,-1.41015 z m -1.86132,2.64843 c -3.42069,6.23936 -3.38885,13.82247 0.0352,20.13477 l -27.39453,-10.07422 z"
             id="path226" />
        </g>
      </g>
    </g>
    <circle
       style="fill:#0000ff;stroke-width:20"
       id="circle30330"
       cx="590.09009"
       cy="163.74252"
       r="29.773399" />
    <g
       id="path30332">
      <path
         style="color:#000000;fill:#000000;-inkscape-stroke:none"
         d="m 447.16211,161.27148 v 4.91407 h 113.1543 v -4.91407 z"
         id="path212" />
      <g
         id="g202">
        <g
           id="path204">
          <path
             style="color:#000000;fill:#000000;fill-rule:evenodd;stroke-width:1.84246;stroke-linejoin:round;-inkscape-stroke:none"
             d="m 472.86438,175.61933 -32.20874,-11.84397 32.20875,-11.84397 c -5.14562,6.99267 -5.11597,16.55986 -1e-5,23.68794 z"
             id="path208" />
          <path
             style="color:#000000;fill:#000000;fill-rule:evenodd;stroke-linejoin:round;-inkscape-stroke:none"
             d="m 472.54687,151.06641 -32.20898,11.84375 a 0.92132214,0.92132214 0 0 0 0,1.73046 l 32.20898,11.84375 a 0.92132214,0.92132214 0 0 0 1.06641,-1.40234 c -4.88926,-6.81221 -4.91469,-15.93724 -0.008,-22.60547 a 0.92132214,0.92132214 0 0 0 -1.0586,-1.41015 z m -1.86132,2.64843 c -3.42069,6.23936 -3.38885,13.82247 0.0352,20.13477 l -27.39453,-10.07422 z"
             id="path210" />
        </g>
      </g>
    </g>
    <g
       id="path36589">
      <path
         style="color:#000000;fill:#000000;stroke-dasharray:4.913, 4.913;-inkscape-stroke:none"
         d="m 767.58594,293.82422 v 4.91211 H 772.5 v -4.91211 z m 0,9.82617 v 4.91211 H 772.5 v -4.91211 z m 0,9.82617 v 4.91211 H 772.5 v -4.91211 z m 0,9.82617 v 4.91211 H 772.5 v -4.91211 z m 0,9.82618 v 4.91211 H 772.5 v -4.91211 z m 0,9.82617 v 4.91211 H 772.5 v -4.91211 z m 0,9.82422 v 4.91406 H 772.5 v -4.91406 z m 0,9.82617 v 4.91406 H 772.5 v -4.91406 z m 0,9.82617 v 4.91406 H 772.5 v -4.91406 z m 0,9.82617 v 4.91406 H 772.5 v -4.91406 z m 0,9.82617 v 4.91407 H 772.5 v -4.91407 z m 0,9.82618 v 4.91406 H 772.5 v -4.91406 z"
         id="path198" />
      <g
         id="g188">
        <g
           id="path190">
          <path
             style="color:#000000;fill:#000000;fill-rule:evenodd;stroke-width:1.84238;stroke-linejoin:round;-inkscape-stroke:none"
             d="m 781.93355,381.12262 -11.84344,32.2073 -11.84343,-32.20731 c 6.99236,5.14538 16.55912,5.11574 23.68687,10e-6 z"
             id="path194" />
          <path
             style="color:#000000;fill:#000000;fill-rule:evenodd;stroke-linejoin:round;-inkscape-stroke:none"
             d="m 782.14062,380.22461 a 0.92128214,0.92128214 0 0 0 -0.74414,0.15039 c -6.81189,4.88904 -15.93558,4.91251 -22.60351,0.006 a 0.92128214,0.92128214 0 0 0 -1.41016,1.06055 l 11.8418,32.20703 a 0.92128214,0.92128214 0 0 0 1.73047,0 l 11.84375,-32.20703 a 0.92128214,0.92128214 0 0 0 -0.65821,-1.2168 z m -1.97656,3.04101 -10.07422,27.39258 -10.06054,-27.35742 c 6.23954,3.42098 13.82238,3.3894 20.13476,-0.0352 z"
             id="path196" />
        </g>
      </g>
    </g>
    <g
       id="path43623">
      <path
         style="color:#000000;fill:#000000;-inkscape-stroke:none"
         d="m 927.75586,185.71484 -121.89258,75.92774 2.59766,4.16992 121.89258,-75.92773 z"
         id="path184" />
      <g
         id="g174">
        <g
           id="path176">
          <path
             style="color:#000000;fill:#000000;fill-rule:evenodd;stroke-width:1.84246;stroke-linejoin:round;-inkscape-stroke:none"
             d="m 835.26524,260.232 -33.60073,6.97662 21.07624,-27.08273 c -0.67032,8.65595 4.4133,16.76082 12.52449,20.10611 z"
             id="path180" />
          <path
             style="color:#000000;fill:#000000;fill-rule:evenodd;stroke-linejoin:round;-inkscape-stroke:none"
             d="m 822.6875,239.20703 a 0.92132214,0.92132214 0 0 0 -0.67383,0.35352 l -21.07617,27.08203 a 0.92132214,0.92132214 0 0 0 0.91406,1.46875 l 33.60156,-6.97656 a 0.92132214,0.92132214 0 0 0 0.16407,-1.75391 c -7.75176,-3.19705 -12.59625,-10.92926 -11.95703,-19.18359 a 0.92132214,0.92132214 0 0 0 -0.97266,-0.99024 z m -0.85352,3.58399 c 0.39525,7.10485 4.43177,13.5247 10.67579,17.07226 l -28.58204,5.93359 z"
             id="path182" />
        </g>
      </g>
    </g>
    <g
       id="path44219">
      <path
         style="color:#000000;fill:#000000;-inkscape-stroke:none"
         d="m 627.16211,161.27148 v 4.91407 h 292.33203 v -4.91407 z"
         id="path170" />
      <g
         id="g160">
        <g
           id="path162">
          <path
             style="color:#000000;fill:#000000;fill-rule:evenodd;stroke-width:1.84246;stroke-linejoin:round;-inkscape-stroke:none"
             d="m 652.86438,175.61933 -32.20874,-11.84397 32.20875,-11.84397 c -5.14562,6.99267 -5.11597,16.55986 -10e-6,23.68794 z"
             id="path166" />
          <path
             style="color:#000000;fill:#000000;fill-rule:evenodd;stroke-linejoin:round;-inkscape-stroke:none"
             d="m 652.54687,151.06641 -32.20898,11.84375 a 0.92132214,0.92132214 0 0 0 0,1.73046 l 32.20898,11.84375 a 0.92132214,0.92132214 0 0 0 1.06641,-1.40234 c -4.88926,-6.81221 -4.91469,-15.93724 -0.008,-22.60547 a 0.92132214,0.92132214 0 0 0 -1.0586,-1.41015 z m -1.86132,2.64843 c -3.42069,6.23936 -3.38885,13.82247 0.0351,20.13477 l -27.39453,-10.07422 z"
             id="path168" />
        </g>
      </g>
    </g>
    <circle
       style="fill:#0000ff;stroke-width:20"
       id="circle44221"
       cx="950.09009"
       cy="163.74252"
       r="29.773399" />
    <g
       id="path53250">
      <path
         style="color:#000000;fill:#000000;stroke-dasharray:4.913, 4.913;-inkscape-stroke:none"
         d="m 947.58594,195.56445 v 4.91211 H 952.5 v -4.91211 z m 0,9.82617 v 4.91211 H 952.5 v -4.91211 z m 0,9.82618 v 4.91211 H 952.5 v -4.91211 z m 0,9.82617 v 4.91211 H 952.5 v -4.91211 z m 0,9.82617 v 4.91211 H 952.5 v -4.91211 z m 0,9.82422 v 4.91406 H 952.5 v -4.91406 z m 0,9.82617 v 4.91406 H 952.5 v -4.91406 z m 0,9.82617 v 4.91407 H 952.5 v -4.91407 z m 0,9.82617 v 4.91407 H 952.5 v -4.91407 z m 0,9.82618 v 4.91406 H 952.5 v -4.91406 z m 0,9.82617 v 4.91211 H 952.5 v -4.91211 z m 0,9.82617 v 4.91211 H 952.5 v -4.91211 z m 0,9.82617 v 4.91211 H 952.5 v -4.91211 z m 0,9.82617 v 4.91211 H 952.5 v -4.91211 z m 0,9.82618 v 4.91211 H 952.5 v -4.91211 z m 0,9.82617 v 4.91211 H 952.5 v -4.91211 z m 0,9.82422 v 4.91406 H 952.5 v -4.91406 z m 0,9.82617 v 4.91406 H 952.5 v -4.91406 z m 0,9.82617 v 4.91406 H 952.5 v -4.91406 z m 0,9.82617 v 4.91406 H 952.5 v -4.91406 z m 0,9.82617 v 4.91407 H 952.5 v -4.91407 z m 0,9.82618 v 4.91406 H 952.5 v -4.91406 z"
         id="path64" />
      <g
         id="g54">
        <g
           id="path56">
          <path
             style="color:#000000;fill:#000000;fill-rule:evenodd;stroke-width:1.84238;stroke-linejoin:round;-inkscape-stroke:none"
             d="m 961.93355,381.12262 -11.84344,32.2073 -11.84343,-32.20731 c 6.99236,5.14538 16.55912,5.11574 23.68687,10e-6 z"
             id="path60" />
          <path
             style="color:#000000;fill:#000000;fill-rule:evenodd;stroke-linejoin:round;-inkscape-stroke:none"
             d="m 962.14062,380.22461 a 0.92128214,0.92128214 0 0 0 -0.74414,0.15039 c -6.81189,4.88904 -15.93558,4.91251 -22.60351,0.006 a 0.92128214,0.92128214 0 0 0 -1.41016,1.06055 l 11.8418,32.20703 a 0.92128214,0.92128214 0 0 0 1.73047,0 l 11.84375,-32.20703 a 0.92128214,0.92128214 0 0 0 -0.65821,-1.2168 z m -1.97656,3.04101 -10.07422,27.39258 -10.06054,-27.35742 c 6.23954,3.42098 13.82238,3.3894 20.13476,-0.0352 z"
             id="path62" />
        </g>
      </g>
    </g>
    <g
       aria-label="?"
       id="text55256"
       style="font-size:40px">
      <path
         d="m 946.37009,442.29094 q 0,-2 0.84,-3.36 0.84,-1.36 2.88,-2.84 1.8,-1.28 2.56,-2.2 0.8,-0.96 0.8,-2.24 0,-1.28 -0.96,-1.92 -0.92,-0.68 -2.6,-0.68 -1.68,0 -3.32,0.52 -1.64,0.52 -3.36,1.4 l -2.12,-4.28 q 1.96,-1.08 4.24,-1.76 2.28,-0.68 5,-0.68 4.16,0 6.44,2 2.32,2 2.32,5.08 0,1.64 -0.52,2.84 -0.52,1.2 -1.56,2.24 -1.04,1 -2.6,2.16 -1.16,0.84 -1.8,1.44 -0.64,0.6 -0.88,1.16 -0.2,0.56 -0.2,1.4 v 1.16 h -5.16 z m -0.64,8.12 q 0,-1.84 1,-2.56 1,-0.76 2.44,-0.76 1.4,0 2.4,0.76 1,0.72 1,2.56 0,1.76 -1,2.56 -1,0.76 -2.4,0.76 -1.44,0 -2.44,-0.76 -1,-0.8 -1,-2.56 z"
         style="-inkscape-font-specification:'sans-serif Bold'"
         id="path47" />
    </g>
    <text
       xml:space="preserve"
       style="font-weight:bold;font-size:40px;line-height:1.25;font-family:sans-serif;-inkscape-font-specification:'sans-serif Bold'"
       x="513.44904"
       y="457.07669"
       id="text337"><tspan
         sodipodi:role="line"
         id="tspan335"
         x="513.44904"
         y="457.07669">Older</tspan><tspan
         sodipodi:role="line"
         x="513.44904"
         y="507.07669"
         id="tspan339">version</tspan></text>
    <text
       xml:space="preserve"
       style="font-weight:bold;font-size:40px;line-height:1.25;font-family:sans-serif;-inkscape-font-specification:'sans-serif Bold'"
       x="699.5462"
       y="458.67703"
       id="text343"><tspan
         sodipodi:role="line"
         id="tspan341"
         x="699.5462"
         y="458.67703">Newer</tspan><tspan
         sodipodi:role="line"
         x="699.5462"
         y="508.67703"
         id="tspan345">version</tspan></text>
  </g>
</svg>
