<?xml version="1.0" encoding="UTF-8" standalone="no"?>
<!-- Created with Inkscape (http://www.inkscape.org/) -->

<svg
   version="1.1"
   id="svg2"
   width="1058"
   height="595"
   viewBox="0 0 1058 595"
   sodipodi:docname="merge-github-antes.svg"
   inkscape:version="1.1.2 (0a00cf5339, 2022-02-04, custom)"
   xmlns:inkscape="http://www.inkscape.org/namespaces/inkscape"
   xmlns:sodipodi="http://sodipodi.sourceforge.net/DTD/sodipodi-0.dtd"
   xmlns="http://www.w3.org/2000/svg"
   xmlns:svg="http://www.w3.org/2000/svg">
  <defs
     id="defs6">
    <marker
       style="overflow:visible"
       id="Arrow2Mstart"
       refX="0.0"
       refY="0.0"
       orient="auto"
       inkscape:stockid="Arrow2Mstart"
       inkscape:isstock="true">
      <path
         transform="scale(0.6) translate(0,0)"
         d="M 8.7185878,4.0337352 L -2.2072895,0.016013256 L 8.7185884,-4.0017078 C 6.9730900,-1.6296469 6.9831476,1.6157441 8.7185878,4.0337352 z "
         style="stroke:context-stroke;fill-rule:evenodd;fill:context-stroke;stroke-width:0.62500000;stroke-linejoin:round"
         id="path1480" />
    </marker>
    <marker
       style="overflow:visible"
       id="Arrow2Lstart"
       refX="0.0"
       refY="0.0"
       orient="auto"
       inkscape:stockid="Arrow2Lstart"
       inkscape:isstock="true">
      <path
         transform="scale(1.1) translate(1,0)"
         d="M 8.7185878,4.0337352 L -2.2072895,0.016013256 L 8.7185884,-4.0017078 C 6.9730900,-1.6296469 6.9831476,1.6157441 8.7185878,4.0337352 z "
         style="stroke:context-stroke;fill-rule:evenodd;fill:context-stroke;stroke-width:0.62500000;stroke-linejoin:round"
         id="path1474" />
    </marker>
  </defs>
  <sodipodi:namedview
     id="namedview4"
     pagecolor="#ffffff"
     bordercolor="#666666"
     borderopacity="1.0"
     inkscape:pageshadow="2"
     inkscape:pageopacity="0.0"
     inkscape:pagecheckerboard="0"
     showgrid="false"
     showguides="true"
     inkscape:guide-bbox="true"
     inkscape:snap-grids="false"
     inkscape:snap-to-guides="true"
     inkscape:snap-page="false"
     inkscape:snap-global="true"
     inkscape:snap-bbox="true"
     inkscape:snap-others="false"
     inkscape:snap-nodes="false"
     inkscape:bbox-paths="true"
     inkscape:snap-bbox-midpoints="true"
     inkscape:bbox-nodes="true"
     inkscape:snap-bbox-edge-midpoints="true"
     inkscape:zoom="0.58553875"
     inkscape:cx="787.30913"
     inkscape:cy="163.09766"
     inkscape:window-width="775"
     inkscape:window-height="502"
     inkscape:window-x="881"
     inkscape:window-y="54"
     inkscape:window-maximized="1"
     inkscape:current-layer="g8" />
  <g
     inkscape:groupmode="layer"
     inkscape:label="Image"
     id="g8">
    <circle
       style="fill:#0000ff;stroke-width:20"
       id="path849-3"
       cx="150.09009"
       cy="163.74252"
       r="29.773399" />
    <circle
       style="fill:#0000ff;stroke-width:20"
       id="circle1358"
       cx="330.09009"
       cy="163.74252"
       r="29.773399" />
    <circle
       style="fill:#0000ff;stroke-width:20"
       id="circle1360"
       cx="510.09009"
       cy="163.74252"
       r="29.773399" />
    <g
       id="path1397">
      <path
         style="color:#000000;fill:#000000;-inkscape-stroke:none"
         d="m 187.16211,161.27148 v 4.91407 h 113.1543 v -4.91407 z"
         id="path261" />
      <g
         id="g251">
        <g
           id="path253">
          <path
             style="color:#000000;fill:#000000;fill-rule:evenodd;stroke-width:1.84246;stroke-linejoin:round;-inkscape-stroke:none"
             d="m 212.86438,175.61933 -32.20874,-11.84397 32.20875,-11.84397 c -5.14562,6.99267 -5.11597,16.55986 -10e-6,23.68794 z"
             id="path257" />
          <path
             style="color:#000000;fill:#000000;fill-rule:evenodd;stroke-linejoin:round;-inkscape-stroke:none"
             d="m 212.54687,151.06641 -32.20898,11.84375 a 0.92132214,0.92132214 0 0 0 0,1.73046 l 32.20898,11.84375 a 0.92132214,0.92132214 0 0 0 1.06641,-1.40234 c -4.88926,-6.81221 -4.91469,-15.93724 -0.008,-22.60547 a 0.92132214,0.92132214 0 0 0 -1.0586,-1.41015 z m -1.86132,2.64843 c -3.42069,6.23936 -3.38885,13.82247 0.0351,20.13477 l -27.39453,-10.07422 z"
             id="path259" />
        </g>
      </g>
    </g>
    <g
       id="path1812">
      <path
         style="color:#000000;fill:#000000;-inkscape-stroke:none"
         d="m 367.16211,161.27148 v 4.91407 h 113.1543 v -4.91407 z"
         id="path247" />
      <g
         id="g237">
        <g
           id="path239">
          <path
             style="color:#000000;fill:#000000;fill-rule:evenodd;stroke-width:1.84246;stroke-linejoin:round;-inkscape-stroke:none"
             d="m 392.86438,175.61933 -32.20874,-11.84397 32.20875,-11.84397 c -5.14562,6.99267 -5.11597,16.55986 -1e-5,23.68794 z"
             id="path243" />
          <path
             style="color:#000000;fill:#000000;fill-rule:evenodd;stroke-linejoin:round;-inkscape-stroke:none"
             d="m 392.54687,151.06641 -32.20898,11.84375 a 0.92132214,0.92132214 0 0 0 0,1.73046 l 32.20898,11.84375 a 0.92132214,0.92132214 0 0 0 1.06641,-1.40234 c -4.88926,-6.81221 -4.91469,-15.93724 -0.008,-22.60547 a 0.92132214,0.92132214 0 0 0 -1.0586,-1.41015 z m -1.86132,2.64843 c -3.42069,6.23936 -3.38885,13.82247 0.0352,20.13477 l -27.39453,-10.07422 z"
             id="path245" />
        </g>
      </g>
    </g>
    <circle
       style="fill:#ff0000;stroke-width:20"
       id="circle1900"
       cx="150.09009"
       cy="443.74252"
       r="29.773399" />
    <circle
       style="fill:#ff0000;stroke-width:20"
       id="circle1902"
       cx="330.09009"
       cy="443.74252"
       r="29.773399" />
    <circle
       style="fill:#ff0000;stroke-width:20"
       id="circle1904"
       cx="510.09009"
       cy="443.74252"
       r="29.773399" />
    <g
       id="path1908">
      <path
         style="color:#000000;fill:#000000;-inkscape-stroke:none"
         d="m 187.16211,441.27148 v 4.91407 h 113.1543 v -4.91407 z"
         id="path227" />
      <g
         id="g217">
        <g
           id="path219">
          <path
             style="color:#000000;fill:#000000;fill-rule:evenodd;stroke-width:1.84246;stroke-linejoin:round;-inkscape-stroke:none"
             d="m 212.86438,455.61933 -32.20874,-11.84397 32.20875,-11.84397 c -5.14562,6.99267 -5.11597,16.55986 -10e-6,23.68794 z"
             id="path223" />
          <path
             style="color:#000000;fill:#000000;fill-rule:evenodd;stroke-linejoin:round;-inkscape-stroke:none"
             d="m 212.54687,431.06641 -32.20898,11.84375 a 0.92132214,0.92132214 0 0 0 0,1.73046 l 32.20898,11.84375 a 0.92132214,0.92132214 0 0 0 1.06641,-1.40234 c -4.88926,-6.81221 -4.91469,-15.93724 -0.008,-22.60547 a 0.92132214,0.92132214 0 0 0 -1.0586,-1.41015 z m -1.86132,2.64843 c -3.42069,6.23936 -3.38885,13.82247 0.0351,20.13477 l -27.39453,-10.07422 z"
             id="path225" />
        </g>
      </g>
    </g>
    <g
       id="path1910">
      <path
         style="color:#000000;fill:#000000;-inkscape-stroke:none"
         d="m 367.16211,441.27148 v 4.91407 h 113.1543 v -4.91407 z"
         id="path213" />
      <g
         id="g203">
        <g
           id="path205">
          <path
             style="color:#000000;fill:#000000;fill-rule:evenodd;stroke-width:1.84246;stroke-linejoin:round;-inkscape-stroke:none"
             d="m 392.86438,455.61933 -32.20874,-11.84397 32.20875,-11.84397 c -5.14562,6.99267 -5.11597,16.55986 -1e-5,23.68794 z"
             id="path209" />
          <path
             style="color:#000000;fill:#000000;fill-rule:evenodd;stroke-linejoin:round;-inkscape-stroke:none"
             d="m 392.54687,431.06641 -32.20898,11.84375 a 0.92132214,0.92132214 0 0 0 0,1.73046 l 32.20898,11.84375 a 0.92132214,0.92132214 0 0 0 1.06641,-1.40234 c -4.88926,-6.81221 -4.91469,-15.93724 -0.008,-22.60547 a 0.92132214,0.92132214 0 0 0 -1.0586,-1.41015 z m -1.86132,2.64843 c -3.42069,6.23936 -3.38885,13.82247 0.0352,20.13477 l -27.39453,-10.07422 z"
             id="path211" />
        </g>
      </g>
    </g>
    <circle
       style="fill:#ff0000;stroke-width:20"
       id="circle1914"
       cx="870.09009"
       cy="443.74252"
       r="29.773399" />
    <g
       id="path2016">
      <path
         style="color:#000000;fill:#000000;-inkscape-stroke:none"
         d="m 727.16211,441.27148 v 4.91407 h 113.1543 v -4.91407 z"
         id="path197" />
      <g
         id="g187">
        <g
           id="path189">
          <path
             style="color:#000000;fill:#000000;fill-rule:evenodd;stroke-width:1.84246;stroke-linejoin:round;-inkscape-stroke:none"
             d="m 752.86438,455.61933 -32.20874,-11.84397 32.20875,-11.84397 c -5.14562,6.99267 -5.11597,16.55986 -10e-6,23.68794 z"
             id="path193" />
          <path
             style="color:#000000;fill:#000000;fill-rule:evenodd;stroke-linejoin:round;-inkscape-stroke:none"
             d="m 752.54687,431.06641 -32.20898,11.84375 a 0.92132214,0.92132214 0 0 0 0,1.73046 l 32.20898,11.84375 a 0.92132214,0.92132214 0 0 0 1.06641,-1.40234 c -4.88926,-6.81221 -4.91469,-15.93724 -0.008,-22.60547 a 0.92132214,0.92132214 0 0 0 -1.0586,-1.41015 z m -1.86132,2.64843 c -3.42069,6.23936 -3.38885,13.82247 0.0351,20.13477 l -27.39453,-10.07422 z"
             id="path195" />
        </g>
      </g>
    </g>
    <circle
       style="fill:#ff0000;stroke-width:20"
       id="circle2018"
       cx="690.09009"
       cy="443.74252"
       r="29.773399" />
    <g
       id="text4179"
       style="font-size:40px;fill:#ffccaa" />
    <g
       aria-label="main"
       id="text9647"
       style="font-size:40px">
      <path
         d="m 667.83007,103.32912 q 3.72,0 5.6,1.92 1.92,1.88 1.92,6.08 v 14.24 h -5.96 v -12.76 q 0,-4.72 -3.28,-4.72 -2.36,0 -3.36,1.68 -1,1.68 -1,4.84 v 10.96 h -5.96 v -12.76 q 0,-4.72 -3.28,-4.72 -2.48,0 -3.44,1.88 -0.92,1.84 -0.92,5.32 v 10.28 h -5.96 v -21.84 h 4.56 l 0.8,2.8 h 0.32 q 1,-1.68 2.72,-2.44 1.76,-0.76 3.64,-0.76 2.4,0 4.08,0.8 1.68,0.76 2.56,2.4 h 0.52 q 1,-1.68 2.76,-2.44 1.8,-0.76 3.68,-0.76 z"
         style="-inkscape-font-specification:'sans-serif Bold'"
         id="path165" />
      <path
         d="m 690.43008,103.28912 q 4.4,0 6.72,1.92 2.36,1.88 2.36,5.8 v 14.56 h -4.16 l -1.16,-2.96 h -0.16 q -1.4,1.76 -2.96,2.56 -1.56,0.8 -4.28,0.8 -2.92,0 -4.84,-1.68 -1.92,-1.72 -1.92,-5.24 0,-3.48 2.44,-5.12 2.44,-1.68 7.32,-1.84 l 3.8,-0.12 v -0.96 q 0,-1.72 -0.92,-2.52 -0.88,-0.8 -2.48,-0.8 -1.6,0 -3.12,0.48 -1.52,0.44 -3.04,1.12 l -1.96,-4.04 q 1.76,-0.92 3.88,-1.44 2.16,-0.52 4.48,-0.52 z m 0.84,12.24 q -2.88,0.08 -4,1.04 -1.12,0.96 -1.12,2.52 0,1.36 0.8,1.96 0.8,0.56 2.08,0.56 1.92,0 3.24,-1.12 1.32,-1.16 1.32,-3.24 v -1.8 z"
         style="-inkscape-font-specification:'sans-serif Bold'"
         id="path167" />
      <path
         d="m 708.63009,95.169122 q 1.32,0 2.28,0.64 0.96,0.6 0.96,2.28 0,1.64 -0.96,2.279998 -0.96,0.64 -2.28,0.64 -1.36,0 -2.32,-0.64 -0.92,-0.639998 -0.92,-2.279998 0,-1.68 0.92,-2.28 0.96,-0.64 2.32,-0.64 z m 2.96,8.559998 v 21.84 h -5.96 v -21.84 z"
         style="-inkscape-font-specification:'sans-serif Bold'"
         id="path169" />
      <path
         d="m 730.2301,103.32912 q 3.52,0 5.64,1.92 2.12,1.88 2.12,6.08 v 14.24 h -5.96 v -12.76 q 0,-2.36 -0.84,-3.52 -0.84,-1.2 -2.68,-1.2 -2.72,0 -3.72,1.88 -1,1.84 -1,5.32 v 10.28 h -5.96 v -21.84 h 4.56 l 0.8,2.8 h 0.32 q 1.04,-1.68 2.84,-2.44 1.84,-0.76 3.88,-0.76 z"
         style="-inkscape-font-specification:'sans-serif Bold'"
         id="path171" />
    </g>
    <g
       aria-label="pr-branch"
       id="text12583"
       style="font-size:40px">
      <path
         d="m 787.15012,202.12913 q 3.68,0 5.96,2.88 2.28,2.84 2.28,8.4 0,5.56 -2.36,8.48 -2.36,2.88 -6.04,2.88 -2.36,0 -3.76,-0.84 -1.4,-0.88 -2.28,-1.96 h -0.32 q 0.32,1.68 0.32,3.2 v 8.8 h -5.96 v -31.44 h 4.84 l 0.84,2.84 h 0.28 q 0.88,-1.32 2.36,-2.28 1.48,-0.96 3.84,-0.96 z m -1.92,4.76 q -2.32,0 -3.28,1.44 -0.92,1.44 -1,4.4 v 0.64 q 0,3.16 0.92,4.88 0.96,1.68 3.44,1.68 2.04,0 3,-1.68 1,-1.72 1,-4.92 0,-6.44 -4.08,-6.44 z"
         style="-inkscape-font-specification:'sans-serif Bold'"
         id="path128" />
      <path
         d="m 812.51009,202.12913 q 0.44,0 1.04,0.04 0.6,0.04 0.96,0.12 l -0.44,5.6 q -0.28,-0.08 -0.84,-0.12 -0.52,-0.08 -0.92,-0.08 -1.52,0 -2.92,0.56 -1.4,0.52 -2.28,1.72 -0.84,1.2 -0.84,3.28 v 11.12 h -5.96 v -21.84 h 4.52 l 0.88,3.68 h 0.28 q 0.96,-1.68 2.64,-2.88 1.68,-1.2 3.88,-1.2 z"
         style="-inkscape-font-specification:'sans-serif Bold'"
         id="path130" />
      <path
         d="m 816.55011,216.08913 v -4.88 h 10.48 v 4.88 z"
         style="-inkscape-font-specification:'sans-serif Bold'"
         id="path132" />
      <path
         d="m 837.31013,201.04913 q 0,1.24 -0.08,2.44 -0.08,1.2 -0.16,1.88 h 0.24 q 0.88,-1.36 2.36,-2.28 1.48,-0.96 3.84,-0.96 3.68,0 5.96,2.88 2.28,2.84 2.28,8.4 0,5.6 -2.32,8.48 -2.32,2.88 -6.08,2.88 -2.4,0 -3.8,-0.84 -1.36,-0.88 -2.24,-1.96 h -0.4 l -1,2.4 h -4.56 v -30.4 h 5.96 z m 4.28,5.84 q -2.32,0 -3.28,1.44 -0.92,1.44 -1,4.4 v 0.64 q 0,3.16 0.92,4.88 0.96,1.68 3.44,1.68 1.84,0 2.92,-1.68 1.08,-1.72 1.08,-4.92 0,-3.2 -1.12,-4.8 -1.08,-1.64 -2.96,-1.64 z"
         style="-inkscape-font-specification:'sans-serif Bold'"
         id="path134" />
      <path
         d="m 868.87011,202.12913 q 0.44,0 1.04,0.04 0.6,0.04 0.96,0.12 l -0.44,5.6 q -0.28,-0.08 -0.84,-0.12 -0.52,-0.08 -0.92,-0.08 -1.52,0 -2.92,0.56 -1.4,0.52 -2.28,1.72 -0.84,1.2 -0.84,3.28 v 11.12 h -5.96 v -21.84 h 4.52 l 0.88,3.68 h 0.28 q 0.96,-1.68 2.64,-2.88 1.68,-1.2 3.88,-1.2 z"
         style="-inkscape-font-specification:'sans-serif Bold'"
         id="path136" />
      <path
         d="m 882.99011,202.08913 q 4.4,0 6.72,1.92 2.36,1.88 2.36,5.8 v 14.56 h -4.16 l -1.16,-2.96 h -0.16 q -1.4,1.76 -2.96,2.56 -1.56,0.8 -4.28,0.8 -2.92,0 -4.84,-1.68 -1.92,-1.72 -1.92,-5.24 0,-3.48 2.44,-5.12 2.44,-1.68 7.32,-1.84 l 3.8,-0.12 v -0.96 q 0,-1.72 -0.92,-2.52 -0.88,-0.8 -2.48,-0.8 -1.6,0 -3.12,0.48 -1.52,0.44 -3.04,1.12 l -1.96,-4.04 q 1.76,-0.92 3.88,-1.44 2.16,-0.52 4.48,-0.52 z m 0.84,12.24 q -2.88,0.08 -4,1.04 -1.12,0.96 -1.12,2.52 0,1.36 0.8,1.96 0.8,0.56 2.08,0.56 1.92,0 3.24,-1.12 1.32,-1.16 1.32,-3.24 v -1.8 z"
         style="-inkscape-font-specification:'sans-serif Bold'"
         id="path138" />
      <path
         d="m 910.59011,202.12913 q 3.52,0 5.64,1.92 2.12,1.88 2.12,6.08 v 14.24 h -5.96 v -12.76 q 0,-2.36 -0.84,-3.52 -0.84,-1.2 -2.68,-1.2 -2.72,0 -3.72,1.88 -1,1.84 -1,5.32 v 10.28 h -5.96 v -21.84 h 4.56 l 0.8,2.8 h 0.32 q 1.04,-1.68 2.84,-2.44 1.84,-0.76 3.88,-0.76 z"
         style="-inkscape-font-specification:'sans-serif Bold'"
         id="path140" />
      <path
         d="m 933.3501,224.76913 q -4.88,0 -7.56,-2.68 -2.64,-2.72 -2.64,-8.52 0,-4 1.36,-6.52 1.36,-2.52 3.76,-3.72 2.44,-1.2 5.6,-1.2 2.24,0 3.88,0.44 1.68,0.44 2.92,1.04 l -1.76,4.6 q -1.4,-0.56 -2.64,-0.92 -1.2,-0.36 -2.4,-0.36 -4.64,0 -4.64,6.6 0,3.28 1.2,4.84 1.24,1.56 3.44,1.56 1.88,0 3.32,-0.48 1.44,-0.52 2.8,-1.4 v 5.08 q -1.36,0.88 -2.88,1.24 -1.48,0.4 -3.76,0.4 z"
         style="-inkscape-font-specification:'sans-serif Bold'"
         id="path142" />
      <path
         d="m 950.9901,200.16913 q 0,1.6 -0.12,3.08 -0.08,1.48 -0.16,2.08 h 0.32 q 1.04,-1.68 2.68,-2.44 1.64,-0.76 3.64,-0.76 3.56,0 5.68,1.92 2.16,1.88 2.16,6.08 v 14.24 h -5.96 v -12.76 q 0,-4.72 -3.52,-4.72 -2.68,0 -3.72,1.88 -1,1.84 -1,5.32 v 10.28 h -5.96 v -30.4 h 5.96 z"
         style="-inkscape-font-specification:'sans-serif Bold'"
         id="path144" />
    </g>
    <g
       id="path14156">
      <path
         style="color:#000000;fill:#000000;stroke-dasharray:4.913, 4.913;-inkscape-stroke:none"
         d="m 687.58594,195.56445 v 4.91211 H 692.5 v -4.91211 z m 0,9.82617 v 4.91211 H 692.5 v -4.91211 z m 0,9.82618 v 4.91211 H 692.5 v -4.91211 z m 0,9.82617 v 4.91211 H 692.5 v -4.91211 z m 0,9.82617 v 4.91211 H 692.5 v -4.91211 z m 0,9.82422 v 4.91406 H 692.5 v -4.91406 z m 0,9.82617 v 4.91406 H 692.5 v -4.91406 z m 0,9.82617 v 4.91407 H 692.5 v -4.91407 z m 0,9.82617 v 4.91407 H 692.5 v -4.91407 z m 0,9.82618 v 4.91406 H 692.5 v -4.91406 z m 0,9.82617 v 4.91211 H 692.5 v -4.91211 z m 0,9.82617 v 4.91211 H 692.5 v -4.91211 z m 0,9.82617 v 4.91211 H 692.5 v -4.91211 z m 0,9.82617 v 4.91211 H 692.5 v -4.91211 z m 0,9.82618 v 4.91211 H 692.5 v -4.91211 z m 0,9.82617 v 4.91211 H 692.5 v -4.91211 z m 0,9.82422 v 4.91406 H 692.5 v -4.91406 z m 0,9.82617 v 4.91406 H 692.5 v -4.91406 z m 0,9.82617 v 4.91406 H 692.5 v -4.91406 z m 0,9.82617 v 4.91406 H 692.5 v -4.91406 z m 0,9.82617 v 4.91407 H 692.5 v -4.91407 z m 0,9.82618 v 4.91406 H 692.5 v -4.91406 z"
         id="path126" />
      <g
         id="g116">
        <g
           id="path118">
          <path
             style="color:#000000;fill:#000000;fill-rule:evenodd;stroke-width:1.84238;stroke-linejoin:round;-inkscape-stroke:none"
             d="m 701.93355,381.12262 -11.84344,32.2073 -11.84343,-32.20731 c 6.99236,5.14538 16.55912,5.11574 23.68687,10e-6 z"
             id="path122" />
          <path
             style="color:#000000;fill:#000000;fill-rule:evenodd;stroke-linejoin:round;-inkscape-stroke:none"
             d="m 702.14062,380.22461 a 0.92128214,0.92128214 0 0 0 -0.74414,0.15039 c -6.81189,4.88904 -15.93558,4.91251 -22.60351,0.006 a 0.92128214,0.92128214 0 0 0 -1.41016,1.06055 l 11.8418,32.20703 a 0.92128214,0.92128214 0 0 0 1.73047,0 l 11.84375,-32.20703 a 0.92128214,0.92128214 0 0 0 -0.65821,-1.2168 z m -1.97656,3.04101 -10.07422,27.39258 -10.06054,-27.35742 c 6.23954,3.42098 13.82238,3.3894 20.13476,-0.0352 z"
             id="path124" />
        </g>
      </g>
    </g>
    <circle
       style="fill:#0000ff;stroke-width:20"
       id="circle14888"
       cx="870.09009"
       cy="263.74252"
       r="29.773399" />
    <g
       id="path14890"
       transform="matrix(1.0042604,0.29259423,-0.29541217,0.99468078,75.66217,-240.71187)">
      <path
         style="color:#000000;fill:#000000;-inkscape-stroke:none"
         d="m 547.16211,261.27148 v 4.91407 h 292.33203 v -4.91407 z"
         id="path94" />
      <g
         id="g84">
        <g
           id="path86">
          <path
             style="color:#000000;fill:#000000;fill-rule:evenodd;stroke-width:1.84246;stroke-linejoin:round;-inkscape-stroke:none"
             d="m 572.86438,275.61933 -32.20874,-11.84397 32.20875,-11.84397 c -5.14562,6.99267 -5.11597,16.55986 -10e-6,23.68794 z"
             id="path90" />
          <path
             style="color:#000000;fill:#000000;fill-rule:evenodd;stroke-linejoin:round;-inkscape-stroke:none"
             d="m 572.54687,251.06641 -32.20898,11.84375 a 0.92132214,0.92132214 0 0 0 0,1.73046 l 32.20898,11.84375 a 0.92132214,0.92132214 0 0 0 1.06641,-1.40234 c -4.88926,-6.81221 -4.91469,-15.93724 -0.008,-22.60547 a 0.92132214,0.92132214 0 0 0 -1.0586,-1.41015 z m -1.86132,2.64843 c -3.42069,6.23936 -3.38885,13.82247 0.0351,20.13477 l -27.39453,-10.07422 z"
             id="path92" />
        </g>
      </g>
    </g>
    <circle
       style="fill:#0000ff;stroke-width:20"
       id="circle30330"
       cx="690.09009"
       cy="163.74252"
       r="29.773399" />
    <g
       id="path30332">
      <path
         style="color:#000000;fill:#000000;-inkscape-stroke:none"
         d="m 547.16211,161.27148 v 4.91407 h 113.1543 v -4.91407 z"
         id="path78" />
      <g
         id="g68">
        <g
           id="path70">
          <path
             style="color:#000000;fill:#000000;fill-rule:evenodd;stroke-width:1.84246;stroke-linejoin:round;-inkscape-stroke:none"
             d="m 572.86438,175.61933 -32.20874,-11.84397 32.20875,-11.84397 c -5.14562,6.99267 -5.11597,16.55986 -10e-6,23.68794 z"
             id="path74" />
          <path
             style="color:#000000;fill:#000000;fill-rule:evenodd;stroke-linejoin:round;-inkscape-stroke:none"
             d="m 572.54687,151.06641 -32.20898,11.84375 a 0.92132214,0.92132214 0 0 0 0,1.73046 l 32.20898,11.84375 a 0.92132214,0.92132214 0 0 0 1.06641,-1.40234 c -4.88926,-6.81221 -4.91469,-15.93724 -0.008,-22.60547 a 0.92132214,0.92132214 0 0 0 -1.0586,-1.41015 z m -1.86132,2.64843 c -3.42069,6.23936 -3.38885,13.82247 0.0351,20.13477 l -27.39453,-10.07422 z"
             id="path76" />
        </g>
      </g>
    </g>
    <g
       id="path34972">
      <path
         style="color:#000000;fill:#000000;-inkscape-stroke:none"
         d="m 547.16211,441.27148 v 4.91407 h 113.1543 v -4.91407 z"
         id="path64" />
      <g
         id="g54">
        <g
           id="path56">
          <path
             style="color:#000000;fill:#000000;fill-rule:evenodd;stroke-width:1.84246;stroke-linejoin:round;-inkscape-stroke:none"
             d="m 572.86438,455.61933 -32.20874,-11.84397 32.20875,-11.84397 c -5.14562,6.99267 -5.11597,16.55986 -10e-6,23.68794 z"
             id="path60" />
          <path
             style="color:#000000;fill:#000000;fill-rule:evenodd;stroke-linejoin:round;-inkscape-stroke:none"
             d="m 572.54687,431.06641 -32.20898,11.84375 a 0.92132214,0.92132214 0 0 0 0,1.73046 l 32.20898,11.84375 a 0.92132214,0.92132214 0 0 0 1.06641,-1.40234 c -4.88926,-6.81221 -4.91469,-15.93724 -0.008,-22.60547 a 0.92132214,0.92132214 0 0 0 -1.0586,-1.41015 z m -1.86132,2.64843 c -3.42069,6.23936 -3.38885,13.82247 0.0351,20.13477 l -27.39453,-10.07422 z"
             id="path62" />
        </g>
      </g>
    </g>
    <g
       id="path36589">
      <path
         style="color:#000000;fill:#000000;stroke-dasharray:4.913, 4.913;-inkscape-stroke:none"
         d="m 867.58594,293.82422 v 4.91211 H 872.5 v -4.91211 z m 0,9.82617 v 4.91211 H 872.5 v -4.91211 z m 0,9.82617 v 4.91211 H 872.5 v -4.91211 z m 0,9.82617 v 4.91211 H 872.5 v -4.91211 z m 0,9.82618 v 4.91211 H 872.5 v -4.91211 z m 0,9.82617 v 4.91211 H 872.5 v -4.91211 z m 0,9.82422 v 4.91406 H 872.5 v -4.91406 z m 0,9.82617 v 4.91406 H 872.5 v -4.91406 z m 0,9.82617 v 4.91406 H 872.5 v -4.91406 z m 0,9.82617 v 4.91406 H 872.5 v -4.91406 z m 0,9.82617 v 4.91407 H 872.5 v -4.91407 z m 0,9.82618 v 4.91406 H 872.5 v -4.91406 z"
         id="path50" />
      <g
         id="g40">
        <g
           id="path42">
          <path
             style="color:#000000;fill:#000000;fill-rule:evenodd;stroke-width:1.84238;stroke-linejoin:round;-inkscape-stroke:none"
             d="m 881.93355,381.12262 -11.84344,32.2073 -11.84343,-32.20731 c 6.99236,5.14538 16.55912,5.11574 23.68687,10e-6 z"
             id="path46" />
          <path
             style="color:#000000;fill:#000000;fill-rule:evenodd;stroke-linejoin:round;-inkscape-stroke:none"
             d="m 882.14062,380.22461 a 0.92128214,0.92128214 0 0 0 -0.74414,0.15039 c -6.81189,4.88904 -15.93558,4.91251 -22.60351,0.006 a 0.92128214,0.92128214 0 0 0 -1.41016,1.06055 l 11.8418,32.20703 a 0.92128214,0.92128214 0 0 0 1.73047,0 l 11.84375,-32.20703 a 0.92128214,0.92128214 0 0 0 -0.65821,-1.2168 z m -1.97656,3.04101 -10.07422,27.39258 -10.06054,-27.35742 c 6.23954,3.42098 13.82238,3.3894 20.13476,-0.0352 z"
             id="path48" />
        </g>
      </g>
    </g>
  </g>
</svg>
