<?xml version="1.0" encoding="UTF-8" standalone="no"?>
<!-- Created with Inkscape (http://www.inkscape.org/) -->

<svg
   version="1.1"
   id="svg2"
   width="1058"
   height="595"
   viewBox="0 0 1058 595"
   sodipodi:docname="merge-github-ff.svg"
   inkscape:version="1.1.2 (0a00cf5339, 2022-02-04, custom)"
   xmlns:inkscape="http://www.inkscape.org/namespaces/inkscape"
   xmlns:sodipodi="http://sodipodi.sourceforge.net/DTD/sodipodi-0.dtd"
   xmlns="http://www.w3.org/2000/svg"
   xmlns:svg="http://www.w3.org/2000/svg">
  <defs
     id="defs6">
    <marker
       style="overflow:visible"
       id="Arrow2Mstart"
       refX="0.0"
       refY="0.0"
       orient="auto"
       inkscape:stockid="Arrow2Mstart"
       inkscape:isstock="true">
      <path
         transform="scale(0.6) translate(0,0)"
         d="M 8.7185878,4.0337352 L -2.2072895,0.016013256 L 8.7185884,-4.0017078 C 6.9730900,-1.6296469 6.9831476,1.6157441 8.7185878,4.0337352 z "
         style="stroke:context-stroke;fill-rule:evenodd;fill:context-stroke;stroke-width:0.62500000;stroke-linejoin:round"
         id="path1480" />
    </marker>
    <marker
       style="overflow:visible"
       id="Arrow2Lstart"
       refX="0.0"
       refY="0.0"
       orient="auto"
       inkscape:stockid="Arrow2Lstart"
       inkscape:isstock="true">
      <path
         transform="scale(1.1) translate(1,0)"
         d="M 8.7185878,4.0337352 L -2.2072895,0.016013256 L 8.7185884,-4.0017078 C 6.9730900,-1.6296469 6.9831476,1.6157441 8.7185878,4.0337352 z "
         style="stroke:context-stroke;fill-rule:evenodd;fill:context-stroke;stroke-width:0.62500000;stroke-linejoin:round"
         id="path1474" />
    </marker>
    <marker
       style="overflow:visible"
       id="Arrow2Mstart-6"
       refX="0"
       refY="0"
       orient="auto"
       inkscape:stockid="Arrow2Mstart"
       inkscape:isstock="true">
      <path
         transform="scale(0.6)"
         d="M 8.7185878,4.0337352 -2.2072895,0.01601326 8.7185884,-4.0017078 c -1.7454984,2.3720609 -1.7354408,5.6174519 -6e-7,8.035443 z"
         style="fill:context-stroke;fill-rule:evenodd;stroke:context-stroke;stroke-width:0.625;stroke-linejoin:round"
         id="path1480-7" />
    </marker>
    <marker
       style="overflow:visible"
       id="marker40874"
       refX="0"
       refY="0"
       orient="auto"
       inkscape:stockid="Arrow2Mstart"
       inkscape:isstock="true">
      <path
         transform="scale(0.6)"
         d="M 8.7185878,4.0337352 -2.2072895,0.01601326 8.7185884,-4.0017078 c -1.7454984,2.3720609 -1.7354408,5.6174519 -6e-7,8.035443 z"
         style="fill:context-stroke;fill-rule:evenodd;stroke:context-stroke;stroke-width:0.625;stroke-linejoin:round"
         id="path40872" />
    </marker>
    <marker
       style="overflow:visible"
       id="marker40878"
       refX="0"
       refY="0"
       orient="auto"
       inkscape:stockid="Arrow2Mstart"
       inkscape:isstock="true">
      <path
         transform="scale(0.6)"
         d="M 8.7185878,4.0337352 -2.2072895,0.01601326 8.7185884,-4.0017078 c -1.7454984,2.3720609 -1.7354408,5.6174519 -6e-7,8.035443 z"
         style="fill:context-stroke;fill-rule:evenodd;stroke:context-stroke;stroke-width:0.625;stroke-linejoin:round"
         id="path40876" />
    </marker>
  </defs>
  <sodipodi:namedview
     id="namedview4"
     pagecolor="#ffffff"
     bordercolor="#666666"
     borderopacity="1.0"
     inkscape:pageshadow="2"
     inkscape:pageopacity="0.0"
     inkscape:pagecheckerboard="0"
     showgrid="false"
     showguides="true"
     inkscape:guide-bbox="true"
     inkscape:snap-grids="false"
     inkscape:snap-to-guides="true"
     inkscape:snap-page="false"
     inkscape:snap-global="true"
     inkscape:snap-bbox="true"
     inkscape:snap-others="false"
     inkscape:snap-nodes="false"
     inkscape:bbox-paths="true"
     inkscape:snap-bbox-midpoints="true"
     inkscape:bbox-nodes="true"
     inkscape:snap-bbox-edge-midpoints="true"
     inkscape:zoom="0.41403842"
     inkscape:cx="752.34564"
     inkscape:cy="423.87371"
     inkscape:window-width="1680"
     inkscape:window-height="1050"
     inkscape:window-x="0"
     inkscape:window-y="0"
     inkscape:window-maximized="1"
     inkscape:current-layer="g8" />
  <g
     inkscape:groupmode="layer"
     inkscape:label="Image"
     id="g8">
    <circle
       style="fill:#0000ff;stroke-width:20"
       id="path849-3"
       cx="50.090088"
       cy="163.74252"
       r="29.773399" />
    <circle
       style="fill:#0000ff;stroke-width:20"
       id="circle1358"
       cx="230.09009"
       cy="163.74252"
       r="29.773399" />
    <circle
       style="fill:#0000ff;stroke-width:20"
       id="circle1360"
       cx="410.09009"
       cy="163.74252"
       r="29.773399" />
    <g
       id="path1397">
      <path
         style="color:#000000;fill:#000000;-inkscape-stroke:none"
         d="m 87.162109,161.27148 v 4.91407 H 200.31641 v -4.91407 z"
         id="path315" />
      <g
         id="g305">
        <g
           id="path307">
          <path
             style="color:#000000;fill:#000000;fill-rule:evenodd;stroke-width:1.84246;stroke-linejoin:round;-inkscape-stroke:none"
             d="M 112.86438,175.61933 80.655641,163.77536 112.86439,151.93139 c -5.14562,6.99267 -5.11597,16.55986 -1e-5,23.68794 z"
             id="path311" />
          <path
             style="color:#000000;fill:#000000;fill-rule:evenodd;stroke-linejoin:round;-inkscape-stroke:none"
             d="m 112.54688,151.06641 -32.208989,11.84375 a 0.92132214,0.92132214 0 0 0 0,1.73046 l 32.208989,11.84375 a 0.92132214,0.92132214 0 0 0 1.0664,-1.40234 c -4.88926,-6.81221 -4.91469,-15.93724 -0.008,-22.60547 a 0.92132214,0.92132214 0 0 0 -1.05859,-1.41015 z m -1.86133,2.64843 c -3.42069,6.23936 -3.38885,13.82247 0.0351,20.13477 L 83.326172,163.77539 Z"
             id="path313" />
        </g>
      </g>
    </g>
    <g
       id="path1812">
      <path
         style="color:#000000;fill:#000000;-inkscape-stroke:none"
         d="m 267.16211,161.27148 v 4.91407 h 113.1543 v -4.91407 z"
         id="path301" />
      <g
         id="g291">
        <g
           id="path293">
          <path
             style="color:#000000;fill:#000000;fill-rule:evenodd;stroke-width:1.84246;stroke-linejoin:round;-inkscape-stroke:none"
             d="m 292.86438,175.61933 -32.20874,-11.84397 32.20875,-11.84397 c -5.14562,6.99267 -5.11597,16.55986 -1e-5,23.68794 z"
             id="path297" />
          <path
             style="color:#000000;fill:#000000;fill-rule:evenodd;stroke-linejoin:round;-inkscape-stroke:none"
             d="m 292.54687,151.06641 -32.20898,11.84375 a 0.92132214,0.92132214 0 0 0 0,1.73046 l 32.20898,11.84375 a 0.92132214,0.92132214 0 0 0 1.06641,-1.40234 c -4.88926,-6.81221 -4.91469,-15.93724 -0.008,-22.60547 a 0.92132214,0.92132214 0 0 0 -1.0586,-1.41015 z m -1.86132,2.64843 c -3.42069,6.23936 -3.38885,13.82247 0.0352,20.13477 l -27.39453,-10.07422 z"
             id="path299" />
        </g>
      </g>
    </g>
    <circle
       style="fill:#ff0000;stroke-width:20"
       id="circle1900"
       cx="50.090088"
       cy="443.74252"
       r="29.773399" />
    <circle
       style="fill:#ff0000;stroke-width:20"
       id="circle1902"
       cx="230.09009"
       cy="443.74252"
       r="29.773399" />
    <circle
       style="fill:#ff0000;stroke-width:20"
       id="circle1904"
       cx="410.09009"
       cy="443.74252"
       r="29.773399" />
    <g
       id="path1908">
      <path
         style="color:#000000;fill:#000000;-inkscape-stroke:none"
         d="m 87.162109,441.27148 v 4.91407 H 200.31641 v -4.91407 z"
         id="path281" />
      <g
         id="g271">
        <g
           id="path273">
          <path
             style="color:#000000;fill:#000000;fill-rule:evenodd;stroke-width:1.84246;stroke-linejoin:round;-inkscape-stroke:none"
             d="M 112.86438,455.61933 80.655641,443.77536 112.86439,431.93139 c -5.14562,6.99267 -5.11597,16.55986 -1e-5,23.68794 z"
             id="path277" />
          <path
             style="color:#000000;fill:#000000;fill-rule:evenodd;stroke-linejoin:round;-inkscape-stroke:none"
             d="m 112.54688,431.06641 -32.208989,11.84375 a 0.92132214,0.92132214 0 0 0 0,1.73046 l 32.208989,11.84375 a 0.92132214,0.92132214 0 0 0 1.0664,-1.40234 c -4.88926,-6.81221 -4.91469,-15.93724 -0.008,-22.60547 a 0.92132214,0.92132214 0 0 0 -1.05859,-1.41015 z m -1.86133,2.64843 c -3.42069,6.23936 -3.38885,13.82247 0.0351,20.13477 L 83.326172,443.77539 Z"
             id="path279" />
        </g>
      </g>
    </g>
    <g
       id="path1910">
      <path
         style="color:#000000;fill:#000000;-inkscape-stroke:none"
         d="m 267.16211,441.27148 v 4.91407 h 113.1543 v -4.91407 z"
         id="path267" />
      <g
         id="g257">
        <g
           id="path259">
          <path
             style="color:#000000;fill:#000000;fill-rule:evenodd;stroke-width:1.84246;stroke-linejoin:round;-inkscape-stroke:none"
             d="m 292.86438,455.61933 -32.20874,-11.84397 32.20875,-11.84397 c -5.14562,6.99267 -5.11597,16.55986 -1e-5,23.68794 z"
             id="path263" />
          <path
             style="color:#000000;fill:#000000;fill-rule:evenodd;stroke-linejoin:round;-inkscape-stroke:none"
             d="m 292.54687,431.06641 -32.20898,11.84375 a 0.92132214,0.92132214 0 0 0 0,1.73046 l 32.20898,11.84375 a 0.92132214,0.92132214 0 0 0 1.06641,-1.40234 c -4.88926,-6.81221 -4.91469,-15.93724 -0.008,-22.60547 a 0.92132214,0.92132214 0 0 0 -1.0586,-1.41015 z m -1.86132,2.64843 c -3.42069,6.23936 -3.38885,13.82247 0.0352,20.13477 l -27.39453,-10.07422 z"
             id="path265" />
        </g>
      </g>
    </g>
    <circle
       style="fill:#ff0000;stroke-width:20"
       id="circle1914"
       cx="770.09009"
       cy="443.74252"
       r="29.773399" />
    <g
       id="path2016">
      <path
         style="color:#000000;fill:#000000;-inkscape-stroke:none"
         d="m 627.16211,441.27148 v 4.91407 h 113.1543 v -4.91407 z"
         id="path251" />
      <g
         id="g241">
        <g
           id="path243">
          <path
             style="color:#000000;fill:#000000;fill-rule:evenodd;stroke-width:1.84246;stroke-linejoin:round;-inkscape-stroke:none"
             d="m 652.86438,455.61933 -32.20874,-11.84397 32.20875,-11.84397 c -5.14562,6.99267 -5.11597,16.55986 -10e-6,23.68794 z"
             id="path247" />
          <path
             style="color:#000000;fill:#000000;fill-rule:evenodd;stroke-linejoin:round;-inkscape-stroke:none"
             d="m 652.54687,431.06641 -32.20898,11.84375 a 0.92132214,0.92132214 0 0 0 0,1.73046 l 32.20898,11.84375 a 0.92132214,0.92132214 0 0 0 1.06641,-1.40234 c -4.88926,-6.81221 -4.91469,-15.93724 -0.008,-22.60547 a 0.92132214,0.92132214 0 0 0 -1.0586,-1.41015 z m -1.86132,2.64843 c -3.42069,6.23936 -3.38885,13.82247 0.0351,20.13477 l -27.39453,-10.07422 z"
             id="path249" />
        </g>
      </g>
    </g>
    <circle
       style="fill:#ff0000;stroke-width:20"
       id="circle2018"
       cx="590.09009"
       cy="443.74252"
       r="29.773399" />
    <g
       id="text4179"
       style="font-size:40px;fill:#ffccaa" />
    <g
       aria-label="main"
       id="text9647"
       style="font-size:40px">
      <path
         d="m 567.83007,93.329122 q 3.72,0 5.6,1.92 1.92,1.88 1.92,6.079998 v 14.24 h -5.96 v -12.76 q 0,-4.719998 -3.28,-4.719998 -2.36,0 -3.36,1.68 -1,1.679998 -1,4.839998 v 10.96 h -5.96 v -12.76 q 0,-4.719998 -3.28,-4.719998 -2.48,0 -3.44,1.88 -0.92,1.839998 -0.92,5.319998 v 10.28 h -5.96 V 93.729122 h 4.56 l 0.8,2.8 h 0.32 q 1,-1.68 2.72,-2.44 1.76,-0.76 3.64,-0.76 2.4,0 4.08,0.8 1.68,0.76 2.56,2.4 h 0.52 q 1,-1.68 2.76,-2.44 1.8,-0.76 3.68,-0.76 z"
         style="-inkscape-font-specification:'sans-serif Bold'"
         id="path219" />
      <path
         d="m 590.43008,93.289122 q 4.4,0 6.72,1.92 2.36,1.88 2.36,5.799998 v 14.56 h -4.16 l -1.16,-2.96 h -0.16 q -1.4,1.76 -2.96,2.56 -1.56,0.8 -4.28,0.8 -2.92,0 -4.84,-1.68 -1.92,-1.72 -1.92,-5.24 0,-3.48 2.44,-5.12 2.44,-1.68 7.32,-1.84 l 3.8,-0.12 v -0.96 q 0,-1.719998 -0.92,-2.519998 -0.88,-0.8 -2.48,-0.8 -1.6,0 -3.12,0.48 -1.52,0.44 -3.04,1.12 l -1.96,-4.04 q 1.76,-0.92 3.88,-1.44 2.16,-0.52 4.48,-0.52 z m 0.84,12.239998 q -2.88,0.08 -4,1.04 -1.12,0.96 -1.12,2.52 0,1.36 0.8,1.96 0.8,0.56 2.08,0.56 1.92,0 3.24,-1.12 1.32,-1.16 1.32,-3.24 v -1.8 z"
         style="-inkscape-font-specification:'sans-serif Bold'"
         id="path221" />
      <path
         d="m 608.63009,85.169122 q 1.32,0 2.28,0.64 0.96,0.6 0.96,2.28 0,1.64 -0.96,2.28 -0.96,0.64 -2.28,0.64 -1.36,0 -2.32,-0.64 -0.92,-0.64 -0.92,-2.28 0,-1.68 0.92,-2.28 0.96,-0.64 2.32,-0.64 z m 2.96,8.56 v 21.839998 h -5.96 V 93.729122 Z"
         style="-inkscape-font-specification:'sans-serif Bold'"
         id="path223" />
      <path
         d="m 630.2301,93.329122 q 3.52,0 5.64,1.92 2.12,1.88 2.12,6.079998 v 14.24 h -5.96 v -12.76 q 0,-2.36 -0.84,-3.519998 -0.84,-1.2 -2.68,-1.2 -2.72,0 -3.72,1.88 -1,1.839998 -1,5.319998 v 10.28 h -5.96 V 93.729122 h 4.56 l 0.8,2.8 h 0.32 q 1.04,-1.68 2.84,-2.44 1.84,-0.76 3.88,-0.76 z"
         style="-inkscape-font-specification:'sans-serif Bold'"
         id="path225" />
    </g>
    <g
       aria-label="pr-branch"
       id="text12583"
       style="font-size:40px">
      <path
         d="m 867.15012,182.12913 q 3.68,0 5.96,2.88 2.28,2.84 2.28,8.4 0,5.56 -2.36,8.48 -2.36,2.88 -6.04,2.88 -2.36,0 -3.76,-0.84 -1.4,-0.88 -2.28,-1.96 h -0.32 q 0.32,1.68 0.32,3.2 v 8.8 h -5.96 v -31.44 h 4.84 l 0.84,2.84 h 0.28 q 0.88,-1.32 2.36,-2.28 1.48,-0.96 3.84,-0.96 z m -1.92,4.76 q -2.32,0 -3.28,1.44 -0.92,1.44 -1,4.4 v 0.64 q 0,3.16 0.92,4.88 0.96,1.68 3.44,1.68 2.04,0 3,-1.68 1,-1.72 1,-4.92 0,-6.44 -4.08,-6.44 z"
         style="-inkscape-font-specification:'sans-serif Bold'"
         id="path182" />
      <path
         d="m 892.51009,182.12913 q 0.44,0 1.04,0.04 0.6,0.04 0.96,0.12 l -0.44,5.6 q -0.28,-0.08 -0.84,-0.12 -0.52,-0.08 -0.92,-0.08 -1.52,0 -2.92,0.56 -1.4,0.52 -2.28,1.72 -0.84,1.2 -0.84,3.28 v 11.12 h -5.96 v -21.84 h 4.52 l 0.88,3.68 h 0.28 q 0.96,-1.68 2.64,-2.88 1.68,-1.2 3.88,-1.2 z"
         style="-inkscape-font-specification:'sans-serif Bold'"
         id="path184" />
      <path
         d="m 896.55011,196.08913 v -4.88 h 10.48 v 4.88 z"
         style="-inkscape-font-specification:'sans-serif Bold'"
         id="path186" />
      <path
         d="m 917.31013,181.04913 q 0,1.24 -0.08,2.44 -0.08,1.2 -0.16,1.88 h 0.24 q 0.88,-1.36 2.36,-2.28 1.48,-0.96 3.84,-0.96 3.68,0 5.96,2.88 2.28,2.84 2.28,8.4 0,5.6 -2.32,8.48 -2.32,2.88 -6.08,2.88 -2.4,0 -3.8,-0.84 -1.36,-0.88 -2.24,-1.96 h -0.4 l -1,2.4 h -4.56 v -30.4 h 5.96 z m 4.28,5.84 q -2.32,0 -3.28,1.44 -0.92,1.44 -1,4.4 v 0.64 q 0,3.16 0.92,4.88 0.96,1.68 3.44,1.68 1.84,0 2.92,-1.68 1.08,-1.72 1.08,-4.92 0,-3.2 -1.12,-4.8 -1.08,-1.64 -2.96,-1.64 z"
         style="-inkscape-font-specification:'sans-serif Bold'"
         id="path188" />
      <path
         d="m 948.87011,182.12913 q 0.44,0 1.04,0.04 0.6,0.04 0.96,0.12 l -0.44,5.6 q -0.28,-0.08 -0.84,-0.12 -0.52,-0.08 -0.92,-0.08 -1.52,0 -2.92,0.56 -1.4,0.52 -2.28,1.72 -0.84,1.2 -0.84,3.28 v 11.12 h -5.96 v -21.84 h 4.52 l 0.88,3.68 h 0.28 q 0.96,-1.68 2.64,-2.88 1.68,-1.2 3.88,-1.2 z"
         style="-inkscape-font-specification:'sans-serif Bold'"
         id="path190" />
      <path
         d="m 962.99011,182.08913 q 4.4,0 6.72,1.92 2.36,1.88 2.36,5.8 v 14.56 h -4.16 l -1.16,-2.96 h -0.16 q -1.4,1.76 -2.96,2.56 -1.56,0.8 -4.28,0.8 -2.92,0 -4.84,-1.68 -1.92,-1.72 -1.92,-5.24 0,-3.48 2.44,-5.12 2.44,-1.68 7.32,-1.84 l 3.8,-0.12 v -0.96 q 0,-1.72 -0.92,-2.52 -0.88,-0.8 -2.48,-0.8 -1.6,0 -3.12,0.48 -1.52,0.44 -3.04,1.12 l -1.96,-4.04 q 1.76,-0.92 3.88,-1.44 2.16,-0.52 4.48,-0.52 z m 0.84,12.24 q -2.88,0.08 -4,1.04 -1.12,0.96 -1.12,2.52 0,1.36 0.8,1.96 0.8,0.56 2.08,0.56 1.92,0 3.24,-1.12 1.32,-1.16 1.32,-3.24 v -1.8 z"
         style="-inkscape-font-specification:'sans-serif Bold'"
         id="path192" />
      <path
         d="m 990.59011,182.12913 q 3.52,0 5.64,1.92 2.12,1.88 2.12,6.08 v 14.24 h -5.96 v -12.76 q 0,-2.36 -0.84,-3.52 -0.84,-1.2 -2.68,-1.2 -2.72,0 -3.72,1.88 -1,1.84 -1,5.32 v 10.28 h -5.96 v -21.84 h 4.56 l 0.8,2.8 h 0.32 q 1.04,-1.68 2.84,-2.44 1.84,-0.76 3.88,-0.76 z"
         style="-inkscape-font-specification:'sans-serif Bold'"
         id="path194" />
      <path
         d="m 1013.3501,204.76913 q -4.88,0 -7.56,-2.68 -2.64,-2.72 -2.64,-8.52 0,-4 1.36,-6.52 1.36,-2.52 3.76,-3.72 2.44,-1.2 5.6,-1.2 2.24,0 3.88,0.44 1.68,0.44 2.92,1.04 l -1.76,4.6 q -1.4,-0.56 -2.64,-0.92 -1.2,-0.36 -2.4,-0.36 -4.64,0 -4.64,6.6 0,3.28 1.2,4.84 1.24,1.56 3.44,1.56 1.88,0 3.32,-0.48 1.44,-0.52 2.8,-1.4 v 5.08 q -1.36,0.88 -2.88,1.24 -1.48,0.4 -3.76,0.4 z"
         style="-inkscape-font-specification:'sans-serif Bold'"
         id="path196" />
      <path
         d="m 1030.9901,180.16913 q 0,1.6 -0.12,3.08 -0.08,1.48 -0.16,2.08 h 0.32 q 1.04,-1.68 2.68,-2.44 1.64,-0.76 3.64,-0.76 3.56,0 5.68,1.92 2.16,1.88 2.16,6.08 v 14.24 h -5.96 v -12.76 q 0,-4.72 -3.52,-4.72 -2.68,0 -3.72,1.88 -1,1.84 -1,5.32 v 10.28 h -5.96 v -30.4 h 5.96 z"
         style="-inkscape-font-specification:'sans-serif Bold'"
         id="path198" />
    </g>
    <g
       id="path14156">
      <path
         style="color:#000000;fill:#000000;stroke-dasharray:4.913, 4.913;-inkscape-stroke:none"
         d="m 587.58594,195.56445 v 4.91211 H 592.5 v -4.91211 z m 0,9.82617 v 4.91211 H 592.5 v -4.91211 z m 0,9.82618 v 4.91211 H 592.5 v -4.91211 z m 0,9.82617 v 4.91211 H 592.5 v -4.91211 z m 0,9.82617 v 4.91211 H 592.5 v -4.91211 z m 0,9.82422 v 4.91406 H 592.5 v -4.91406 z m 0,9.82617 v 4.91406 H 592.5 v -4.91406 z m 0,9.82617 v 4.91407 H 592.5 v -4.91407 z m 0,9.82617 v 4.91407 H 592.5 v -4.91407 z m 0,9.82618 v 4.91406 H 592.5 v -4.91406 z m 0,9.82617 v 4.91211 H 592.5 v -4.91211 z m 0,9.82617 v 4.91211 H 592.5 v -4.91211 z m 0,9.82617 v 4.91211 H 592.5 v -4.91211 z m 0,9.82617 v 4.91211 H 592.5 v -4.91211 z m 0,9.82618 v 4.91211 H 592.5 v -4.91211 z m 0,9.82617 v 4.91211 H 592.5 v -4.91211 z m 0,9.82422 v 4.91406 H 592.5 v -4.91406 z m 0,9.82617 v 4.91406 H 592.5 v -4.91406 z m 0,9.82617 v 4.91406 H 592.5 v -4.91406 z m 0,9.82617 v 4.91406 H 592.5 v -4.91406 z m 0,9.82617 v 4.91407 H 592.5 v -4.91407 z m 0,9.82618 v 4.91406 H 592.5 v -4.91406 z"
         id="path180" />
      <g
         id="g170">
        <g
           id="path172">
          <path
             style="color:#000000;fill:#000000;fill-rule:evenodd;stroke-width:1.84238;stroke-linejoin:round;-inkscape-stroke:none"
             d="m 601.93355,381.12262 -11.84344,32.2073 -11.84343,-32.20731 c 6.99236,5.14538 16.55912,5.11574 23.68687,10e-6 z"
             id="path176" />
          <path
             style="color:#000000;fill:#000000;fill-rule:evenodd;stroke-linejoin:round;-inkscape-stroke:none"
             d="m 602.14062,380.22461 a 0.92128214,0.92128214 0 0 0 -0.74414,0.15039 c -6.81189,4.88904 -15.93558,4.91251 -22.60351,0.006 a 0.92128214,0.92128214 0 0 0 -1.41016,1.06055 l 11.8418,32.20703 a 0.92128214,0.92128214 0 0 0 1.73047,0 l 11.84375,-32.20703 a 0.92128214,0.92128214 0 0 0 -0.65821,-1.2168 z m -1.97656,3.04101 -10.07422,27.39258 -10.06054,-27.35742 c 6.23954,3.42098 13.82238,3.3894 20.13476,-0.0352 z"
             id="path178" />
        </g>
      </g>
    </g>
    <g
       id="path14884">
      <path
         style="color:#000000;fill:#000000;-inkscape-stroke:none"
         d="m 262.4375,182.9043 -2.47656,4.24414 119.48047,69.71289 2.47656,-4.24219 z"
         id="path166" />
      <g
         id="g156">
        <g
           id="path158">
          <path
             style="color:#000000;fill:#000000;fill-rule:evenodd;stroke-width:1.84246;stroke-linejoin:round;-inkscape-stroke:none"
             d="m 277.40617,208.24928 -21.85043,-26.46208 33.78839,6.00228 c -7.96846,3.4465 -12.76441,11.72484 -11.93796,20.4598 z"
             id="path162" />
          <path
             style="color:#000000;fill:#000000;fill-rule:evenodd;stroke-linejoin:round;-inkscape-stroke:none"
             d="m 255.7168,180.88086 a 0.92132214,0.92132214 0 0 0 -0.8711,1.49219 l 21.84961,26.46289 a 0.92132214,0.92132214 0 0 0 1.62891,-0.67383 c -0.78983,-8.34789 3.78602,-16.24075 11.38476,-19.52734 a 0.92132214,0.92132214 0 0 0 -0.20312,-1.75196 z m 2.14257,2.25 28.70313,5.10156 c -6.09842,3.66506 -9.89115,10.22913 -10.11523,17.40625 z"
             id="path164" />
        </g>
      </g>
    </g>
    <circle
       style="fill:#0000ff;stroke-width:20"
       id="circle14886"
       cx="410.09009"
       cy="263.74252"
       r="29.773399" />
    <circle
       style="fill:#0000ff;stroke-width:20"
       id="circle14888"
       cx="770.09009"
       cy="263.74252"
       r="29.773399" />
    <g
       id="path14890">
      <path
         style="color:#000000;fill:#000000;-inkscape-stroke:none"
         d="m 447.16211,261.27148 v 4.91407 h 292.33203 v -4.91407 z"
         id="path148" />
      <g
         id="g138">
        <g
           id="path140">
          <path
             style="color:#000000;fill:#000000;fill-rule:evenodd;stroke-width:1.84246;stroke-linejoin:round;-inkscape-stroke:none"
             d="m 472.86438,275.61933 -32.20874,-11.84397 32.20875,-11.84397 c -5.14562,6.99267 -5.11597,16.55986 -1e-5,23.68794 z"
             id="path144" />
          <path
             style="color:#000000;fill:#000000;fill-rule:evenodd;stroke-linejoin:round;-inkscape-stroke:none"
             d="m 472.54687,251.06641 -32.20898,11.84375 a 0.92132214,0.92132214 0 0 0 0,1.73046 l 32.20898,11.84375 a 0.92132214,0.92132214 0 0 0 1.06641,-1.40234 c -4.88926,-6.81221 -4.91469,-15.93724 -0.008,-22.60547 a 0.92132214,0.92132214 0 0 0 -1.0586,-1.41015 z m -1.86132,2.64843 c -3.42069,6.23936 -3.38885,13.82247 0.0352,20.13477 l -27.39453,-10.07422 z"
             id="path146" />
        </g>
      </g>
    </g>
    <circle
       style="fill:#0000ff;stroke-width:20"
       id="circle30330"
       cx="590.09009"
       cy="163.74252"
       r="29.773399" />
    <g
       id="path30332">
      <path
         style="color:#000000;fill:#000000;-inkscape-stroke:none"
         d="m 447.16211,161.27148 v 4.91407 h 113.1543 v -4.91407 z"
         id="path132" />
      <g
         id="g122">
        <g
           id="path124">
          <path
             style="color:#000000;fill:#000000;fill-rule:evenodd;stroke-width:1.84246;stroke-linejoin:round;-inkscape-stroke:none"
             d="m 472.86438,175.61933 -32.20874,-11.84397 32.20875,-11.84397 c -5.14562,6.99267 -5.11597,16.55986 -1e-5,23.68794 z"
             id="path128" />
          <path
             style="color:#000000;fill:#000000;fill-rule:evenodd;stroke-linejoin:round;-inkscape-stroke:none"
             d="m 472.54687,151.06641 -32.20898,11.84375 a 0.92132214,0.92132214 0 0 0 0,1.73046 l 32.20898,11.84375 a 0.92132214,0.92132214 0 0 0 1.06641,-1.40234 c -4.88926,-6.81221 -4.91469,-15.93724 -0.008,-22.60547 a 0.92132214,0.92132214 0 0 0 -1.0586,-1.41015 z m -1.86132,2.64843 c -3.42069,6.23936 -3.38885,13.82247 0.0352,20.13477 l -27.39453,-10.07422 z"
             id="path130" />
        </g>
      </g>
    </g>
    <g
       id="path34972">
      <path
         style="color:#000000;fill:#000000;-inkscape-stroke:none"
         d="m 447.16211,441.27148 v 4.91407 h 113.1543 v -4.91407 z"
         id="path118" />
      <g
         id="g108">
        <g
           id="path110">
          <path
             style="color:#000000;fill:#000000;fill-rule:evenodd;stroke-width:1.84246;stroke-linejoin:round;-inkscape-stroke:none"
             d="m 472.86438,455.61933 -32.20874,-11.84397 32.20875,-11.84397 c -5.14562,6.99267 -5.11597,16.55986 -1e-5,23.68794 z"
             id="path114" />
          <path
             style="color:#000000;fill:#000000;fill-rule:evenodd;stroke-linejoin:round;-inkscape-stroke:none"
             d="m 472.54687,431.06641 -32.20898,11.84375 a 0.92132214,0.92132214 0 0 0 0,1.73046 l 32.20898,11.84375 a 0.92132214,0.92132214 0 0 0 1.06641,-1.40234 c -4.88926,-6.81221 -4.91469,-15.93724 -0.008,-22.60547 a 0.92132214,0.92132214 0 0 0 -1.0586,-1.41015 z m -1.86132,2.64843 c -3.42069,6.23936 -3.38885,13.82247 0.0352,20.13477 l -27.39453,-10.07422 z"
             id="path116" />
        </g>
      </g>
    </g>
    <g
       id="path36589">
      <path
         style="color:#000000;fill:#000000;stroke-dasharray:4.913, 4.913;-inkscape-stroke:none"
         d="m 767.58594,293.82422 v 4.91211 H 772.5 v -4.91211 z m 0,9.82617 v 4.91211 H 772.5 v -4.91211 z m 0,9.82617 v 4.91211 H 772.5 v -4.91211 z m 0,9.82617 v 4.91211 H 772.5 v -4.91211 z m 0,9.82618 v 4.91211 H 772.5 v -4.91211 z m 0,9.82617 v 4.91211 H 772.5 v -4.91211 z m 0,9.82422 v 4.91406 H 772.5 v -4.91406 z m 0,9.82617 v 4.91406 H 772.5 v -4.91406 z m 0,9.82617 v 4.91406 H 772.5 v -4.91406 z m 0,9.82617 v 4.91406 H 772.5 v -4.91406 z m 0,9.82617 v 4.91407 H 772.5 v -4.91407 z m 0,9.82618 v 4.91406 H 772.5 v -4.91406 z"
         id="path104" />
      <g
         id="g94">
        <g
           id="path96">
          <path
             style="color:#000000;fill:#000000;fill-rule:evenodd;stroke-width:1.84238;stroke-linejoin:round;-inkscape-stroke:none"
             d="m 781.93355,381.12262 -11.84344,32.2073 -11.84343,-32.20731 c 6.99236,5.14538 16.55912,5.11574 23.68687,10e-6 z"
             id="path100" />
          <path
             style="color:#000000;fill:#000000;fill-rule:evenodd;stroke-linejoin:round;-inkscape-stroke:none"
             d="m 782.14062,380.22461 a 0.92128214,0.92128214 0 0 0 -0.74414,0.15039 c -6.81189,4.88904 -15.93558,4.91251 -22.60351,0.006 a 0.92128214,0.92128214 0 0 0 -1.41016,1.06055 l 11.8418,32.20703 a 0.92128214,0.92128214 0 0 0 1.73047,0 l 11.84375,-32.20703 a 0.92128214,0.92128214 0 0 0 -0.65821,-1.2168 z m -1.97656,3.04101 -10.07422,27.39258 -10.06054,-27.35742 c 6.23954,3.42098 13.82238,3.3894 20.13476,-0.0352 z"
             id="path102" />
        </g>
      </g>
    </g>
    <g
       id="path37117">
      <path
         style="color:#000000;fill:#000000;stroke-dasharray:4.913, 4.913;-inkscape-stroke:none"
         d="m 932.33594,293.01758 -3.54883,3.39844 3.39648,3.54882 3.54883,-3.39648 z m -7.09961,6.79492 -3.54883,3.39648 3.39648,3.54883 3.55079,-3.39648 z m -7.09766,6.79297 -3.55078,3.39648 3.39648,3.55078 3.55079,-3.39843 z m -7.09961,6.79297 -3.55078,3.39648 3.39844,3.55078 3.54883,-3.39648 z m -7.09961,6.79492 -3.54883,3.39648 3.39649,3.54883 3.54883,-3.39648 z m -7.09961,6.79297 -3.54882,3.39648 3.39648,3.54883 3.54883,-3.39648 z m -7.09961,6.79297 -3.54882,3.39648 3.39648,3.55078 3.55078,-3.39844 z m -7.09765,6.79297 -3.55078,3.39648 3.39648,3.55078 3.55078,-3.39648 z m -7.09961,6.79492 -3.55078,3.39648 3.39843,3.54883 3.54883,-3.39648 z m -7.09961,6.79297 -3.54883,3.39648 3.39649,3.54883 3.54882,-3.39649 z m -7.09961,6.79296 -3.54883,3.39649 3.39649,3.55078 3.54882,-3.39648 z m -7.09961,6.79297 -3.54883,3.39649 3.39649,3.55078 3.55078,-3.39649 z m -7.09766,6.79493 -3.55078,3.39648 3.39649,3.54883 3.55078,-3.39649 z m -7.09961,6.79296 -3.55078,3.39649 3.39844,3.54883 3.54883,-3.39649 z m -7.0996,6.79297 -3.54883,3.39649 3.39648,3.55078 3.54883,-3.39649 z m -7.09961,6.79297 -3.54883,3.39844 3.39648,3.54883 3.54883,-3.39649 z m -7.09961,6.79492 -3.54883,3.39649 3.39648,3.54883 3.55078,-3.39649 z m -7.09766,6.79297 -3.55078,3.39649 3.39648,3.54882 3.55078,-3.39648 z m -7.09961,6.79297 -3.55078,3.39649 3.39844,3.55078 3.54883,-3.39649 z"
         id="path90" />
      <g
         id="g80">
        <g
           id="path82">
          <path
             style="color:#000000;fill:#000000;fill-rule:evenodd;stroke-width:1.84238;stroke-linejoin:round;-inkscape-stroke:none"
             d="m 829.48867,411.29477 -31.45784,13.71063 15.08125,-30.82423 c 1.11687,8.60933 7.75254,15.50076 16.37659,17.1136 z"
             id="path86" />
          <path
             style="color:#000000;fill:#000000;fill-rule:evenodd;stroke-linejoin:round;-inkscape-stroke:none"
             d="m 813.26172,393.27148 a 0.92128214,0.92128214 0 0 0 -0.97656,0.50391 l -15.08204,30.82422 a 0.92128214,0.92128214 0 0 0 1.19532,1.25 l 31.45898,-13.71094 a 0.92128214,0.92128214 0 0 0 -0.19922,-1.75 c -8.24189,-1.54137 -14.56776,-8.11629 -15.63281,-16.32617 a 0.92128214,0.92128214 0 0 0 -0.76367,-0.79102 z m -0.49219,3.70508 c 1.84278,6.87328 7.11019,12.3291 13.94922,14.52149 l -26.75977,11.66211 z"
             id="path88" />
        </g>
      </g>
    </g>
    <circle
       style="fill:#0000ff;stroke-width:20"
       id="circle43621"
       cx="950.09009"
       cy="263.74252"
       r="29.773399" />
    <g
       id="path43623">
      <path
         style="color:#000000;fill:#000000;-inkscape-stroke:none"
         d="m 807.16211,261.27148 v 4.91407 h 113.1543 v -4.91407 z"
         id="path74" />
      <g
         id="g64">
        <g
           id="path66">
          <path
             style="color:#000000;fill:#000000;fill-rule:evenodd;stroke-width:1.84246;stroke-linejoin:round;-inkscape-stroke:none"
             d="m 832.86438,275.61933 -32.20874,-11.84397 32.20875,-11.84397 c -5.14562,6.99267 -5.11597,16.55986 -10e-6,23.68794 z"
             id="path70" />
          <path
             style="color:#000000;fill:#000000;fill-rule:evenodd;stroke-linejoin:round;-inkscape-stroke:none"
             d="m 832.54687,251.06641 -32.20898,11.84375 a 0.92132214,0.92132214 0 0 0 0,1.73046 l 32.20898,11.84375 a 0.92132214,0.92132214 0 0 0 1.06641,-1.40234 c -4.88926,-6.81221 -4.91469,-15.93724 -0.008,-22.60547 a 0.92132214,0.92132214 0 0 0 -1.0586,-1.41015 z m -1.86132,2.64843 c -3.42069,6.23936 -3.38885,13.82247 0.0351,20.13477 l -27.39453,-10.07422 z"
             id="path72" />
        </g>
      </g>
    </g>
    <g
       id="path43724">
      <path
         style="color:#000000;fill:#000000;-inkscape-stroke:none"
         d="m 627.73242,169.96484 -1.04101,4.80078 301.83984,65.51758 1.04297,-4.80078 z"
         id="path60" />
      <g
         id="g50">
        <g
           id="path52">
          <path
             style="color:#000000;fill:#000000;fill-rule:evenodd;stroke-width:1.84246;stroke-linejoin:round;-inkscape-stroke:none"
             d="m 649.80623,189.43713 -28.96338,-18.40666 33.98815,-4.74221 c -6.51183,5.74204 -8.51228,15.0978 -5.02477,23.14887 z"
             id="path56" />
          <path
             style="color:#000000;fill:#000000;fill-rule:evenodd;stroke-linejoin:round;-inkscape-stroke:none"
             d="m 654.70312,165.375 -33.98828,4.74219 a 0.92132214,0.92132214 0 0 0 -0.36523,1.6914 l 28.96289,18.40625 a 0.92132214,0.92132214 0 0 0 1.33984,-1.14453 c -3.33296,-7.6943 -1.42259,-16.61617 4.78711,-22.09179 a 0.92132214,0.92132214 0 0 0 -0.73633,-1.60352 z m -2.38085,2.19336 c -4.66606,5.37201 -6.24386,12.79062 -4.23633,19.68555 l -24.63477,-15.65625 z"
             id="path58" />
        </g>
      </g>
    </g>
  </g>
</svg>
