<?xml version="1.0" encoding="UTF-8" standalone="no"?>
<!-- Created with Inkscape (http://www.inkscape.org/) -->

<svg
   version="1.1"
   id="svg2"
   width="1058"
   height="595"
   viewBox="0 0 1058 595"
   sodipodi:docname="objetos_submodulo-en.svg"
   inkscape:version="1.2.2 (b0a8486541, 2022-12-01)"
   xmlns:inkscape="http://www.inkscape.org/namespaces/inkscape"
   xmlns:sodipodi="http://sodipodi.sourceforge.net/DTD/sodipodi-0.dtd"
   xmlns="http://www.w3.org/2000/svg"
   xmlns:svg="http://www.w3.org/2000/svg">
  <defs
     id="defs6">
    <marker
       style="overflow:visible;"
       id="Arrow2Mend"
       refX="0.0"
       refY="0.0"
       orient="auto"
       inkscape:stockid="Arrow2Mend"
       inkscape:isstock="true">
      <path
         transform="scale(0.6) rotate(180) translate(0,0)"
         d="M 8.7185878,4.0337352 L -2.2072895,0.016013256 L 8.7185884,-4.0017078 C 6.9730900,-1.6296469 6.9831476,1.6157441 8.7185878,4.0337352 z "
         style="stroke:context-stroke;fill-rule:evenodd;fill:context-stroke;stroke-width:0.62500000;stroke-linejoin:round;"
         id="path2113" />
    </marker>
    <marker
       style="overflow:visible"
       id="Arrow2Mstart"
       refX="0"
       refY="0"
       orient="auto"
       inkscape:stockid="Arrow2Mstart"
       inkscape:isstock="true">
      <path
         transform="scale(0.6)"
         d="M 8.7185878,4.0337352 -2.2072895,0.01601326 8.7185884,-4.0017078 c -1.7454984,2.3720609 -1.7354408,5.6174519 -6e-7,8.035443 z"
         style="fill:context-stroke;fill-rule:evenodd;stroke:context-stroke;stroke-width:0.625;stroke-linejoin:round"
         id="path1480" />
    </marker>
  </defs>
  <sodipodi:namedview
     id="namedview4"
     pagecolor="#ffffff"
     bordercolor="#666666"
     borderopacity="1.0"
     inkscape:pageshadow="2"
     inkscape:pageopacity="0.0"
     inkscape:pagecheckerboard="0"
     showgrid="false"
     inkscape:snap-bbox="true"
     inkscape:snap-bbox-midpoints="true"
     inkscape:zoom="0.41365747"
     inkscape:cx="693.81075"
     inkscape:cy="865.45034"
     inkscape:window-width="1440"
     inkscape:window-height="2560"
     inkscape:window-x="0"
     inkscape:window-y="0"
     inkscape:window-maximized="1"
     inkscape:current-layer="g8"
     inkscape:snap-bbox-edge-midpoints="true"
     inkscape:showpageshadow="2"
     inkscape:deskcolor="#d1d1d1" />
  <g
     inkscape:groupmode="layer"
     inkscape:label="Image"
     id="g8">
    <g
       id="path7018">
      <path
         style="color:#000000;fill:#000000;-inkscape-stroke:none"
         d="m 217.80273,193.1582 v 4.91407 h 58.84961 v -4.91407 z"
         id="path400" />
      <g
         id="g390">
        <g
           id="path392">
          <path
             style="color:#000000;fill:#000000;fill-rule:evenodd;stroke-width:1.84246;stroke-linejoin:round;-inkscape-stroke:none"
             d="m 250.95018,183.72415 32.20881,11.84399 -32.20881,11.844 c 5.14562,-6.99269 5.11597,-16.5599 0,-23.68799 z"
             id="path396" />
          <path
             style="color:#000000;fill:#000000;fill-rule:evenodd;stroke-linejoin:round;-inkscape-stroke:none"
             d="m 251.26758,182.85937 a 0.92132214,0.92132214 0 0 0 -1.06641,1.40235 c 4.88927,6.81222 4.91469,15.93527 0.008,22.60351 a 0.92132214,0.92132214 0 0 0 1.0586,1.41211 l 32.20898,-11.84375 a 0.92132214,0.92132214 0 0 0 0,-1.73047 z m 1.82617,2.63282 27.39453,10.07617 -27.35937,10.06055 c 3.42095,-6.23986 3.38964,-13.82413 -0.0352,-20.13672 z"
             id="path398" />
        </g>
      </g>
    </g>
    <rect
       style="fill:#0000ff;stroke-width:4.913;stroke-dasharray:4.913, 4.913"
       id="rect5586"
       width="211.09549"
       height="74.27504"
       x="6.8385177"
       y="158.52502"
       ry="29.032969" />
    <g
       aria-label="commit"
       id="text8417"
       style="font-size:26.6667px">
      <path
         d="m 69.066203,205.92922 q -3.253338,0 -5.040007,-1.78667 -1.760002,-1.81334 -1.760002,-5.68001 0,-2.66667 0.906668,-4.34667 0.906668,-1.68 2.50667,-2.48 1.626669,-0.8 3.733338,-0.8 1.493335,0 2.58667,0.29333 1.120001,0.29333 1.946669,0.69333 l -1.173335,3.06667 q -0.933334,-0.37333 -1.760002,-0.61333 -0.800001,-0.24 -1.600002,-0.24 -3.093337,0 -3.093337,4.40001 0,2.18667 0.800001,3.22667 0.826667,1.04 2.293336,1.04 1.253335,0 2.213336,-0.32 0.960001,-0.34667 1.866669,-0.93334 v 3.38667 q -0.906668,0.58667 -1.920002,0.82667 -0.986668,0.26667 -2.50667,0.26667 z"
         style="-inkscape-font-specification:'sans-serif Bold';fill:#ffffff"
         id="path361" />
      <path
         d="m 90.079561,198.35588 q 0,3.62667 -1.920003,5.6 -1.893335,1.97334 -5.173339,1.97334 -2.02667,0 -3.626672,-0.88 -1.573335,-0.88 -2.480003,-2.56001 -0.906668,-1.70666 -0.906668,-4.13333 0,-3.62668 1.893336,-5.57334 1.893336,-1.94667 5.200007,-1.94667 2.053336,0 3.626671,0.88 1.573335,0.88 2.480003,2.56 0.906668,1.65334 0.906668,4.08001 z m -10.053346,0 q 0,2.16 0.693334,3.28 0.720001,1.09333 2.320003,1.09333 1.573335,0 2.266669,-1.09333 0.720001,-1.12 0.720001,-3.28 0,-2.16001 -0.720001,-3.22667 -0.693334,-1.09334 -2.293336,-1.09334 -1.573335,0 -2.293336,1.09334 -0.693334,1.06666 -0.693334,3.22667 z"
         style="-inkscape-font-specification:'sans-serif Bold';fill:#ffffff"
         id="path363" />
      <path
         d="m 110.45291,190.83587 q 2.48,0 3.73333,1.28 1.28001,1.25333 1.28001,4.05334 v 9.49334 h -3.97334 v -8.50668 q 0,-3.14667 -2.18667,-3.14667 -1.57334,0 -2.24,1.12001 -0.66667,1.12 -0.66667,3.22667 v 7.30667 h -3.97334 v -8.50668 q 0,-3.14667 -2.18667,-3.14667 -1.653335,0 -2.293336,1.25334 -0.613334,1.22667 -0.613334,3.54667 v 6.85334 h -3.973339 v -14.56002 h 3.040004 l 0.533334,1.86667 h 0.213334 q 0.666667,-1.12 1.813335,-1.62667 1.173332,-0.50666 2.426672,-0.50666 1.6,0 2.72,0.53333 1.12,0.50667 1.70667,1.6 h 0.34667 q 0.66666,-1.12 1.84,-1.62667 1.2,-0.50666 2.45334,-0.50666 z"
         style="-inkscape-font-specification:'sans-serif Bold';fill:#ffffff"
         id="path365" />
      <path
         d="m 136.63961,190.83587 q 2.48001,0 3.73334,1.28 1.28,1.25333 1.28,4.05334 v 9.49334 h -3.97334 v -8.50668 q 0,-3.14667 -2.18667,-3.14667 -1.57333,0 -2.24,1.12001 -0.66667,1.12 -0.66667,3.22667 v 7.30667 h -3.97333 v -8.50668 q 0,-3.14667 -2.18667,-3.14667 -1.65334,0 -2.29334,1.25334 -0.61333,1.22667 -0.61333,3.54667 v 6.85334 h -3.97334 v -14.56002 h 3.04 l 0.53334,1.86667 h 0.21333 q 0.66667,-1.12 1.81333,-1.62667 1.17334,-0.50666 2.42667,-0.50666 1.60001,0 2.72001,0.53333 1.12,0.50667 1.70667,1.6 h 0.34666 q 0.66667,-1.12 1.84001,-1.62667 1.2,-0.50666 2.45333,-0.50666 z"
         style="-inkscape-font-specification:'sans-serif Bold';fill:#ffffff"
         id="path367" />
      <path
         d="m 147.73297,185.39586 q 0.88001,0 1.52001,0.42667 0.64,0.4 0.64,1.52 0,1.09333 -0.64,1.52 -0.64,0.42667 -1.52001,0.42667 -0.90666,0 -1.54666,-0.42667 -0.61334,-0.42667 -0.61334,-1.52 0,-1.12 0.61334,-1.52 0.64,-0.42667 1.54666,-0.42667 z m 1.97334,5.70667 v 14.56002 h -3.97334 v -14.56002 z"
         style="-inkscape-font-specification:'sans-serif Bold';fill:#ffffff"
         id="path369" />
      <path
         d="m 159.99966,202.75588 q 0.66667,0 1.28,-0.13333 0.61334,-0.13334 1.22667,-0.32 v 2.96 q -0.64,0.26667 -1.6,0.45334 -0.93334,0.21333 -2.05334,0.21333 -1.30667,0 -2.34667,-0.42667 -1.01333,-0.42667 -1.62667,-1.46667 -0.58666,-1.06666 -0.58666,-2.93333 v -7.01335 h -1.89334 v -1.68 l 2.18667,-1.33333 1.14667,-3.06667 h 2.53333 v 3.09333 h 4.08001 v 2.98667 h -4.08001 v 7.01335 q 0,0.82666 0.48,1.25333 0.48001,0.4 1.25334,0.4 z"
         style="-inkscape-font-specification:'sans-serif Bold';fill:#ffffff"
         id="path371" />
    </g>
    <rect
       style="fill:#008000;stroke-width:4.913;stroke-dasharray:4.913, 4.913"
       id="rect20450"
       width="208.86392"
       height="185.56676"
       x="284.08002"
       y="158.43062"
       ry="29.032969" />
    <g
       aria-label="tree"
       id="text20572"
       style="font-size:26.6667px">
      <path
         d="m 369.6586,181.89577 q 0.66666,0 1.28,-0.13333 0.61333,-0.13333 1.22667,-0.32 v 2.96 q -0.64001,0.26667 -1.60001,0.45334 -0.93333,0.21333 -2.05333,0.21333 -1.30667,0 -2.34667,-0.42667 -1.01334,-0.42666 -1.62667,-1.46666 -0.58667,-1.06667 -0.58667,-2.93334 v -7.01334 h -1.89333 v -1.68001 l 2.18667,-1.33333 1.14666,-3.06667 h 2.53334 v 3.09334 h 4.08 v 2.98667 h -4.08 v 7.01334 q 0,0.82667 0.48,1.25333 0.48,0.4 1.25334,0.4 z"
         style="-inkscape-font-specification:'sans-serif Bold';fill:#ffffff"
         id="path342" />
      <path
         d="m 383.23195,169.97576 q 0.29333,0 0.69333,0.0267 0.4,0.0267 0.64,0.08 l -0.29333,3.73333 q -0.18667,-0.0533 -0.56,-0.08 -0.34667,-0.0533 -0.61334,-0.0533 -1.01333,0 -1.94667,0.37333 -0.93333,0.34667 -1.52,1.14667 -0.56,0.8 -0.56,2.18667 v 7.41334 h -3.97334 v -14.56001 h 3.01334 l 0.58667,2.45333 h 0.18666 q 0.64,-1.12 1.76001,-1.92 1.12,-0.8 2.58667,-0.8 z"
         style="-inkscape-font-specification:'sans-serif Bold';fill:#ffffff"
         id="path344" />
      <path
         d="m 392.67196,169.97576 q 3.01333,0 4.77334,1.73333 1.76,1.70667 1.76,4.88001 v 1.92 h -9.38668 q 0.0533,1.68001 0.98667,2.64001 0.96,0.96 2.64,0.96 1.41334,0 2.56001,-0.26667 1.14666,-0.29333 2.37333,-0.88 v 3.06667 q -1.06667,0.53333 -2.26667,0.77333 -1.17333,0.26667 -2.85333,0.26667 -2.18667,0 -3.86668,-0.8 -1.68,-0.82667 -2.64,-2.48 -0.96,-1.65334 -0.96,-4.16001 0,-2.56 0.85333,-4.24 0.88,-1.70667 2.42667,-2.56001 1.54667,-0.85333 3.60001,-0.85333 z m 0.0267,2.82667 q -1.14666,0 -1.92,0.74667 -0.74667,0.74666 -0.88,2.32 h 5.57334 q -0.0267,-1.33334 -0.69333,-2.18667 -0.66667,-0.88 -2.08001,-0.88 z"
         style="-inkscape-font-specification:'sans-serif Bold';fill:#ffffff"
         id="path346" />
      <path
         d="m 408.43197,169.97576 q 3.01334,0 4.77334,1.73333 1.76,1.70667 1.76,4.88001 v 1.92 h -9.38668 q 0.0533,1.68001 0.98667,2.64001 0.96,0.96 2.64,0.96 1.41334,0 2.56001,-0.26667 1.14667,-0.29333 2.37333,-0.88 v 3.06667 q -1.06666,0.53333 -2.26667,0.77333 -1.17333,0.26667 -2.85333,0.26667 -2.18667,0 -3.86667,-0.8 -1.68001,-0.82667 -2.64001,-2.48 -0.96,-1.65334 -0.96,-4.16001 0,-2.56 0.85334,-4.24 0.88,-1.70667 2.42666,-2.56001 1.54667,-0.85333 3.60001,-0.85333 z m 0.0267,2.82667 q -1.14667,0 -1.92001,0.74667 -0.74666,0.74666 -0.88,2.32 h 5.57334 q -0.0267,-1.33334 -0.69333,-2.18667 -0.66667,-0.88 -2.08,-0.88 z"
         style="-inkscape-font-specification:'sans-serif Bold';fill:#ffffff"
         id="path348" />
    </g>
    <g
       id="path29509">
      <path
         style="color:#000000;fill:#000000;-inkscape-stroke:none"
         d="m 559.61914,190.64844 -103.0957,62.86914 2.55859,4.19531 103.09375,-62.86914 z"
         id="path274" />
      <g
         id="g264">
        <g
           id="path266">
          <path
             style="color:#000000;fill:#000000;fill-rule:evenodd;stroke-width:1.84246;stroke-linejoin:round;-inkscape-stroke:none"
             d="m 532.76271,195.97525 33.66553,-6.65731 -21.33247,26.88146 c 0.75247,-8.64921 -4.25397,-16.802 -12.33306,-20.22415 z"
             id="path270" />
          <path
             style="color:#000000;fill:#000000;fill-rule:evenodd;stroke-linejoin:round;-inkscape-stroke:none"
             d="m 566.25,188.41406 -33.66602,6.65821 a 0.92132214,0.92132214 0 0 0 -0.17968,1.75195 c 7.72108,3.2705 12.49099,11.04701 11.77343,19.29492 a 0.92132214,0.92132214 0 0 0 1.64063,0.65234 l 21.33203,-26.88086 A 0.92132214,0.92132214 0 0 0 566.25,188.41406 Z m -2.09961,2.29297 -18.12305,22.83789 c -0.32714,-7.10928 -4.30269,-13.56688 -10.51367,-17.17383 z"
             id="path272" />
        </g>
      </g>
    </g>
    <rect
       style="fill:#ff0000;stroke-width:4.913;stroke-dasharray:4.913, 4.913"
       id="rect29648"
       width="211.09549"
       height="74.27504"
       x="566.83856"
       y="158.52502"
       ry="29.032969" />
    <g
       aria-label="blob"
       id="text29750"
       style="font-size:26.6667px">
      <path
         d="m 648.79962,190.11587 q 0,0.82666 -0.0533,1.62666 -0.0533,0.80001 -0.10666,1.25334 h 0.16 q 0.58667,-0.90667 1.57333,-1.52 0.98667,-0.64 2.56001,-0.64 2.45333,0 3.97333,1.92 1.52001,1.89333 1.52001,5.60001 0,3.73333 -1.54667,5.65334 -1.54667,1.92 -4.05334,1.92 -1.6,0 -2.53334,-0.56 -0.90666,-0.58667 -1.49333,-1.30667 h -0.26667 l -0.66667,1.6 h -3.04 v -20.26669 h 3.97334 z m 2.85333,3.89333 q -1.54666,0 -2.18666,0.96001 -0.61334,0.96 -0.66667,2.93333 v 0.42667 q 0,2.10667 0.61333,3.25334 0.64,1.12 2.29334,1.12 1.22667,0 1.94667,-1.12 0.72,-1.14667 0.72,-3.28001 0,-2.13333 -0.74667,-3.2 -0.72,-1.09334 -1.97334,-1.09334 z"
         style="-inkscape-font-specification:'sans-serif Bold';fill:#ffffff"
         id="path243" />
      <path
         d="m 665.67962,205.66255 h -3.97333 v -20.26669 h 3.97333 z"
         style="-inkscape-font-specification:'sans-serif Bold';fill:#ffffff"
         id="path245" />
      <path
         d="m 683.06632,198.35588 q 0,3.62667 -1.92,5.6 -1.89334,1.97334 -5.17334,1.97334 -2.02667,0 -3.62667,-0.88 -1.57334,-0.88 -2.48,-2.56001 -0.90667,-1.70666 -0.90667,-4.13333 0,-3.62668 1.89333,-5.57334 1.89334,-1.94667 5.20001,-1.94667 2.05334,0 3.62667,0.88 1.57334,0.88 2.48,2.56 0.90667,1.65334 0.90667,4.08001 z m -10.05334,0 q 0,2.16 0.69333,3.28 0.72,1.09333 2.32,1.09333 1.57334,0 2.26667,-1.09333 0.72,-1.12 0.72,-3.28 0,-2.16001 -0.72,-3.22667 -0.69333,-1.09334 -2.29333,-1.09334 -1.57334,0 -2.29334,1.09334 -0.69333,1.06666 -0.69333,3.22667 z"
         style="-inkscape-font-specification:'sans-serif Bold';fill:#ffffff"
         id="path247" />
      <path
         d="m 690.31965,190.11587 q 0,0.82666 -0.0533,1.62666 -0.0533,0.80001 -0.10667,1.25334 h 0.16 q 0.58667,-0.90667 1.57333,-1.52 0.98667,-0.64 2.56001,-0.64 2.45333,0 3.97334,1.92 1.52,1.89333 1.52,5.60001 0,3.73333 -1.54667,5.65334 -1.54667,1.92 -4.05334,1.92 -1.6,0 -2.53334,-0.56 -0.90666,-0.58667 -1.49333,-1.30667 h -0.26667 l -0.66667,1.6 h -3.04 v -20.26669 h 3.97334 z m 2.85334,3.89333 q -1.54667,0 -2.18667,0.96001 -0.61334,0.96 -0.66667,2.93333 v 0.42667 q 0,2.10667 0.61333,3.25334 0.64,1.12 2.29334,1.12 1.22667,0 1.94667,-1.12 0.72,-1.14667 0.72,-3.28001 0,-2.13333 -0.74667,-3.2 -0.72,-1.09334 -1.97333,-1.09334 z"
         style="-inkscape-font-specification:'sans-serif Bold';fill:#ffffff"
         id="path249" />
    </g>
    <g
       id="path31331">
      <path
         style="color:#000000;fill:#000000;-inkscape-stroke:none"
         d="m 455.73242,287.26953 v 4.91406 h 103.37305 v -4.91406 z"
         id="path241" />
      <g
         id="g231">
        <g
           id="path233">
          <path
             style="color:#000000;fill:#000000;fill-rule:evenodd;stroke-width:1.84246;stroke-linejoin:round;-inkscape-stroke:none"
             d="m 533.40401,277.83528 32.20881,11.84399 -32.20881,11.844 c 5.14562,-6.99269 5.11597,-16.5599 0,-23.68799 z"
             id="path237" />
          <path
             style="color:#000000;fill:#000000;fill-rule:evenodd;stroke-linejoin:round;-inkscape-stroke:none"
             d="m 533.72266,276.9707 a 0.92132214,0.92132214 0 0 0 -1.06641,1.40235 c 4.88927,6.81222 4.91274,15.93526 0.006,22.60351 a 0.92132214,0.92132214 0 0 0 1.06055,1.41211 l 32.20898,-11.8457 a 0.92132214,0.92132214 0 0 0 0,-1.72852 z m 1.82421,2.63282 27.39844,10.07617 -27.36133,10.06054 c 3.42111,-6.2399 3.38775,-13.82403 -0.0371,-20.13671 z"
             id="path239" />
        </g>
      </g>
    </g>
    <rect
       style="fill:#008000;stroke-width:4.913;stroke-dasharray:4.913, 4.913"
       id="rect31432"
       width="208.86389"
       height="49.795727"
       x="566.53394"
       y="264.7814"
       ry="23.822317" />
    <g
       aria-label="tree"
       id="text31436"
       style="font-size:26.6667px">
      <path
         d="m 652.11251,295.46595 q 0.66667,0 1.28001,-0.13333 0.61333,-0.13334 1.22666,-0.32 v 2.96 q -0.64,0.26667 -1.6,0.45333 -0.93333,0.21334 -2.05333,0.21334 -1.30667,0 -2.34667,-0.42667 -1.01334,-0.42667 -1.62667,-1.46667 -0.58667,-1.06667 -0.58667,-2.93334 v -7.01334 h -1.89334 v -1.68 l 2.18667,-1.33334 1.14667,-3.06667 h 2.53334 v 3.09334 h 4.08 v 2.98667 h -4.08 v 7.01334 q 0,0.82667 0.48,1.25334 0.48,0.4 1.25333,0.4 z"
         style="-inkscape-font-specification:'sans-serif Bold';fill:#ffffff"
         id="path210" />
      <path
         d="m 665.68586,283.54593 q 0.29334,0 0.69334,0.0267 0.4,0.0267 0.64,0.08 l -0.29333,3.73334 q -0.18667,-0.0533 -0.56001,-0.08 -0.34666,-0.0533 -0.61333,-0.0533 -1.01333,0 -1.94667,0.37333 -0.93333,0.34667 -1.52,1.14667 -0.56,0.8 -0.56,2.18667 v 7.41334 h -3.97334 V 283.8126 h 3.01334 l 0.58667,2.45334 h 0.18666 q 0.64,-1.12 1.76,-1.92 1.12001,-0.80001 2.58667,-0.80001 z"
         style="-inkscape-font-specification:'sans-serif Bold';fill:#ffffff"
         id="path212" />
      <path
         d="m 675.12588,283.54593 q 3.01333,0 4.77334,1.73334 1.76,1.70667 1.76,4.88001 v 1.92 h -9.38668 q 0.0533,1.68 0.98667,2.64 0.96,0.96 2.64,0.96 1.41334,0 2.56,-0.26666 1.14667,-0.29334 2.37334,-0.88001 v 3.06668 q -1.06667,0.53333 -2.26667,0.77333 -1.17333,0.26667 -2.85334,0.26667 -2.18667,0 -3.86667,-0.8 -1.68,-0.82667 -2.64,-2.48001 -0.96,-1.65333 -0.96,-4.16 0,-2.56001 0.85333,-4.24001 0.88,-1.70667 2.42667,-2.56 1.54667,-0.85334 3.60001,-0.85334 z m 0.0267,2.82667 q -1.14667,0 -1.92,0.74667 -0.74667,0.74667 -0.88,2.32001 h 5.57334 q -0.0267,-1.33334 -0.69333,-2.18667 -0.66667,-0.88001 -2.08001,-0.88001 z"
         style="-inkscape-font-specification:'sans-serif Bold';fill:#ffffff"
         id="path214" />
      <path
         d="m 690.88589,283.54593 q 3.01334,0 4.77334,1.73334 1.76,1.70667 1.76,4.88001 v 1.92 h -9.38668 q 0.0533,1.68 0.98667,2.64 0.96,0.96 2.64,0.96 1.41334,0 2.56001,-0.26666 1.14666,-0.29334 2.37333,-0.88001 v 3.06668 q -1.06667,0.53333 -2.26667,0.77333 -1.17333,0.26667 -2.85333,0.26667 -2.18667,0 -3.86668,-0.8 -1.68,-0.82667 -2.64,-2.48001 -0.96,-1.65333 -0.96,-4.16 0,-2.56001 0.85333,-4.24001 0.88,-1.70667 2.42667,-2.56 1.54667,-0.85334 3.60001,-0.85334 z m 0.0267,2.82667 q -1.14666,0 -1.92,0.74667 -0.74667,0.74667 -0.88,2.32001 h 5.57334 q -0.0267,-1.33334 -0.69333,-2.18667 -0.66667,-0.88001 -2.08001,-0.88001 z"
         style="-inkscape-font-specification:'sans-serif Bold';fill:#ffffff"
         id="path216" />
    </g>
    <g
       id="path31446">
      <path
         style="color:#000000;fill:#000000;-inkscape-stroke:none"
         d="m 455.73242,287.26953 v 4.91406 h 103.37305 v -4.91406 z"
         id="path208" />
      <g
         id="g198">
        <g
           id="path200">
          <path
             style="color:#000000;fill:#000000;fill-rule:evenodd;stroke-width:1.84246;stroke-linejoin:round;-inkscape-stroke:none"
             d="m 533.40401,277.83528 32.20881,11.84399 -32.20881,11.844 c 5.14562,-6.99269 5.11597,-16.5599 0,-23.68799 z"
             id="path204" />
          <path
             style="color:#000000;fill:#000000;fill-rule:evenodd;stroke-linejoin:round;-inkscape-stroke:none"
             d="m 533.72266,276.9707 a 0.92132214,0.92132214 0 0 0 -1.06641,1.40235 c 4.88927,6.81222 4.91274,15.93526 0.006,22.60351 a 0.92132214,0.92132214 0 0 0 1.06055,1.41211 l 32.20898,-11.8457 a 0.92132214,0.92132214 0 0 0 0,-1.72852 z m 1.82421,2.63282 27.39844,10.07617 -27.36133,10.06054 c 3.42111,-6.2399 3.38775,-13.82403 -0.0371,-20.13671 z"
             id="path206" />
        </g>
      </g>
    </g>
    <g
       id="path41202">
      <path
         style="color:#000000;fill:#000000;-inkscape-stroke:none"
         d="m 465.93555,320.78906 -3.05469,3.84571 92.15625,73.20898 3.05664,-3.8457 z"
         id="path157" />
      <g
         id="g147">
        <g
           id="path149">
          <path
             style="color:#000000;fill:#000000;fill-rule:evenodd;stroke-width:1.84246;stroke-linejoin:round;-inkscape-stroke:none"
             d="m 543.83733,370.62323 17.85251,29.30828 -32.5868,-10.76048 c 8.3786,-2.27465 14.30634,-9.78426 14.73429,-18.5478 z"
             id="path153" />
          <path
             style="color:#000000;fill:#000000;fill-rule:evenodd;stroke-linejoin:round;-inkscape-stroke:none"
             d="m 543.60937,369.73047 a 0.92132214,0.92132214 0 0 0 -0.6914,0.84765 c -0.40899,8.37521 -6.06679,15.53402 -14.05664,17.70313 a 0.92132214,0.92132214 0 0 0 -0.0469,1.76367 l 32.58594,10.76172 a 0.92132214,0.92132214 0 0 0 1.07617,-1.35352 L 544.625,370.14453 a 0.92132214,0.92132214 0 0 0 -1.01563,-0.41406 z m 0.80469,3.61133 15.18555,24.92968 -27.68164,-9.14062 c 6.56002,-2.75768 11.2509,-8.71613 12.49609,-15.78906 z"
             id="path155" />
        </g>
      </g>
    </g>
    <rect
       style="fill:#0000ff;stroke-width:4.913;stroke-dasharray:4.913, 4.913"
       id="rect41341"
       width="211.09549"
       height="74.27504"
       x="556.56555"
       y="395.92105"
       ry="29.032969" />
    <rect
       style="fill:#008000;stroke-width:4.913;stroke-dasharray:4.913, 4.913"
       id="rect42927"
       width="208.86389"
       height="49.795727"
       x="843.53174"
       y="408.16071"
       ry="23.822317" />
    <g
       aria-label="tree"
       id="text42931"
       style="font-size:26.6667px">
      <path
         d="m 929.11032,438.84525 q 0.66666,0 1.28,-0.13333 0.61333,-0.13333 1.22667,-0.32 v 2.96 q -0.64,0.26667 -1.60001,0.45334 -0.93333,0.21333 -2.05333,0.21333 -1.30667,0 -2.34667,-0.42667 -1.01334,-0.42666 -1.62667,-1.46667 -0.58667,-1.06666 -0.58667,-2.93333 v -7.01335 h -1.89333 v -1.68 l 2.18667,-1.33333 1.14666,-3.06667 h 2.53334 v 3.09333 h 4.08001 v 2.98667 h -4.08001 v 7.01335 q 0,0.82666 0.48,1.25333 0.48,0.4 1.25334,0.4 z"
         style="-inkscape-font-specification:'sans-serif Bold';fill:#ffffff"
         id="path55" />
      <path
         d="m 942.68367,426.92524 q 0.29333,0 0.69333,0.0267 0.4,0.0267 0.64,0.08 l -0.29333,3.73334 q -0.18667,-0.0533 -0.56,-0.08 -0.34667,-0.0533 -0.61334,-0.0533 -1.01333,0 -1.94667,0.37333 -0.93333,0.34667 -1.52,1.14667 -0.56,0.8 -0.56,2.18667 v 7.41334 h -3.97334 V 427.1919 h 3.01334 l 0.58667,2.45334 h 0.18666 q 0.64001,-1.12 1.76001,-1.92 1.12,-0.8 2.58667,-0.8 z"
         style="-inkscape-font-specification:'sans-serif Bold';fill:#ffffff"
         id="path57" />
      <path
         d="m 952.12368,426.92524 q 3.01334,0 4.77334,1.73333 1.76,1.70667 1.76,4.88001 v 1.92 h -9.38668 q 0.0533,1.68 0.98667,2.64 0.96,0.96001 2.64,0.96001 1.41334,0 2.56001,-0.26667 1.14666,-0.29333 2.37333,-0.88 v 3.06667 q -1.06667,0.53333 -2.26667,0.77333 -1.17333,0.26667 -2.85333,0.26667 -2.18667,0 -3.86668,-0.8 -1.68,-0.82667 -2.64,-2.48 -0.96,-1.65334 -0.96,-4.16001 0,-2.56 0.85333,-4.24001 0.88001,-1.70666 2.42667,-2.56 1.54667,-0.85333 3.60001,-0.85333 z m 0.0267,2.82667 q -1.14667,0 -1.92001,0.74667 -0.74666,0.74666 -0.88,2.32 h 5.57334 q -0.0267,-1.33334 -0.69333,-2.18667 -0.66667,-0.88 -2.08,-0.88 z"
         style="-inkscape-font-specification:'sans-serif Bold';fill:#ffffff"
         id="path59" />
      <path
         d="m 967.88369,426.92524 q 3.01334,0 4.77334,1.73333 1.76,1.70667 1.76,4.88001 v 1.92 h -9.38668 q 0.0533,1.68 0.98667,2.64 0.96,0.96001 2.64,0.96001 1.41334,0 2.56001,-0.26667 1.14667,-0.29333 2.37333,-0.88 v 3.06667 q -1.06666,0.53333 -2.26667,0.77333 -1.17333,0.26667 -2.85333,0.26667 -2.18667,0 -3.86667,-0.8 -1.68001,-0.82667 -2.64001,-2.48 -0.96,-1.65334 -0.96,-4.16001 0,-2.56 0.85334,-4.24001 0.88,-1.70666 2.42667,-2.56 1.54666,-0.85333 3.6,-0.85333 z m 0.0267,2.82667 q -1.14667,0 -1.92001,0.74667 -0.74666,0.74666 -0.88,2.32 h 5.57334 q -0.0267,-1.33334 -0.69333,-2.18667 -0.66667,-0.88 -2.08,-0.88 z"
         style="-inkscape-font-specification:'sans-serif Bold';fill:#ffffff"
         id="path61" />
    </g>
    <g
       id="path42933">
      <path
         style="color:#000000;fill:#000000;-inkscape-stroke:none"
         d="m 767.66016,430.64844 v 4.91406 h 68.44336 v -4.91406 z"
         id="path53" />
      <g
         id="g43">
        <g
           id="path45">
          <path
             style="color:#000000;fill:#000000;fill-rule:evenodd;stroke-width:1.84246;stroke-linejoin:round;-inkscape-stroke:none"
             d="m 810.40189,421.21458 32.20881,11.84399 -32.20881,11.844 c 5.14562,-6.99269 5.11597,-16.5599 0,-23.68799 z"
             id="path49" />
          <path
             style="color:#000000;fill:#000000;fill-rule:evenodd;stroke-linejoin:round;-inkscape-stroke:none"
             d="m 810.7207,420.34961 a 0.92132214,0.92132214 0 0 0 -1.0664,1.40234 c 4.88926,6.81223 4.91273,15.93722 0.006,22.60547 a 0.92132214,0.92132214 0 0 0 1.06054,1.41016 l 32.20703,-11.84375 a 0.92132214,0.92132214 0 0 0 0,-1.73047 z m 1.82422,2.63476 27.39453,10.07422 -27.35742,10.06055 c 3.42069,-6.23937 3.38691,-13.82246 -0.0371,-20.13477 z"
             id="path51" />
        </g>
      </g>
    </g>
    <text
       xml:space="preserve"
       style="font-weight:bold;font-size:26.6667px;line-height:1.25;font-family:sans-serif;-inkscape-font-specification:'sans-serif Bold';fill:#ffffff"
       x="366.38055"
       y="264.5867"
       id="text590"><tspan
         sodipodi:role="line"
         id="tspan588"
         x="366.38055"
         y="264.5867">file</tspan></text>
    <text
       xml:space="preserve"
       style="font-weight:bold;font-size:26.6667px;line-height:1.25;font-family:sans-serif;-inkscape-font-specification:'sans-serif Bold';fill:#ffffff"
       x="329.95624"
       y="295.61386"
       id="text884"><tspan
         sodipodi:role="line"
         id="tspan882"
         x="329.95624"
         y="295.61386">directory</tspan></text>
    <text
       xml:space="preserve"
       style="font-weight:bold;font-size:26.6667px;line-height:1.25;font-family:sans-serif;-inkscape-font-specification:'sans-serif Bold';fill:#ffffff"
       x="312.38052"
       y="327.87918"
       id="text884-3"><tspan
         sodipodi:role="line"
         id="tspan882-6"
         x="312.38052"
         y="327.87918">submodule</tspan></text>
    <text
       xml:space="preserve"
       style="font-weight:bold;font-size:26.6667px;line-height:1.25;font-family:sans-serif;-inkscape-font-specification:'sans-serif Bold';fill:#ffffff"
       x="663.11597"
       y="426.30771"
       id="text884-3-7"><tspan
         sodipodi:role="line"
         id="tspan882-6-5"
         x="663.11597"
         y="426.30771"
         style="text-align:center;text-anchor:middle">submodule</tspan><tspan
         sodipodi:role="line"
         x="663.11597"
         y="459.64108"
         id="tspan653"
         style="text-align:center;text-anchor:middle">commit</tspan></text>
  </g>
</svg>
