<?xml version="1.0" encoding="UTF-8" standalone="no"?>
<!-- Created with Inkscape (http://www.inkscape.org/) -->

<svg
   version="1.1"
   id="svg2"
   width="1058"
   height="595"
   viewBox="0 0 1058 595"
   sodipodi:docname="objetos.svg"
   inkscape:version="1.1.2 (0a00cf5339, 2022-02-04, custom)"
   xmlns:inkscape="http://www.inkscape.org/namespaces/inkscape"
   xmlns:sodipodi="http://sodipodi.sourceforge.net/DTD/sodipodi-0.dtd"
   xmlns="http://www.w3.org/2000/svg"
   xmlns:svg="http://www.w3.org/2000/svg">
  <defs
     id="defs6">
    <marker
       style="overflow:visible;"
       id="Arrow2Mend"
       refX="0.0"
       refY="0.0"
       orient="auto"
       inkscape:stockid="Arrow2Mend"
       inkscape:isstock="true">
      <path
         transform="scale(0.6) rotate(180) translate(0,0)"
         d="M 8.7185878,4.0337352 L -2.2072895,0.016013256 L 8.7185884,-4.0017078 C 6.9730900,-1.6296469 6.9831476,1.6157441 8.7185878,4.0337352 z "
         style="stroke:context-stroke;fill-rule:evenodd;fill:context-stroke;stroke-width:0.62500000;stroke-linejoin:round;"
         id="path2113" />
    </marker>
    <marker
       style="overflow:visible"
       id="Arrow2Mstart"
       refX="0"
       refY="0"
       orient="auto"
       inkscape:stockid="Arrow2Mstart"
       inkscape:isstock="true">
      <path
         transform="scale(0.6)"
         d="M 8.7185878,4.0337352 -2.2072895,0.01601326 8.7185884,-4.0017078 c -1.7454984,2.3720609 -1.7354408,5.6174519 -6e-7,8.035443 z"
         style="fill:context-stroke;fill-rule:evenodd;stroke:context-stroke;stroke-width:0.625;stroke-linejoin:round"
         id="path1480" />
    </marker>
  </defs>
  <sodipodi:namedview
     id="namedview4"
     pagecolor="#ffffff"
     bordercolor="#666666"
     borderopacity="1.0"
     inkscape:pageshadow="2"
     inkscape:pageopacity="0.0"
     inkscape:pagecheckerboard="0"
     showgrid="false"
     inkscape:snap-bbox="true"
     inkscape:snap-bbox-midpoints="true"
     inkscape:zoom="0.41365747"
     inkscape:cx="714.35915"
     inkscape:cy="151.09119"
     inkscape:window-width="1680"
     inkscape:window-height="1050"
     inkscape:window-x="0"
     inkscape:window-y="0"
     inkscape:window-maximized="1"
     inkscape:current-layer="g8"
     inkscape:snap-bbox-edge-midpoints="true" />
  <g
     inkscape:groupmode="layer"
     inkscape:label="Image"
     id="g8">
    <g
       id="path7018">
      <path
         style="color:#000000;fill:#000000;-inkscape-stroke:none"
         d="m 308.04492,151.84766 v 4.91211 h 58.84961 v -4.91211 z"
         id="path509" />
      <g
         id="g499">
        <g
           id="path501">
          <path
             style="color:#000000;fill:#000000;fill-rule:evenodd;stroke-width:1.84246;stroke-linejoin:round;-inkscape-stroke:none"
             d="m 341.19264,142.41266 32.20881,11.84399 -32.20881,11.844 c 5.14562,-6.99269 5.11597,-16.5599 0,-23.68799 z"
             id="path505" />
          <path
             style="color:#000000;fill:#000000;fill-rule:evenodd;stroke-linejoin:round;-inkscape-stroke:none"
             d="m 341.50977,141.54883 a 0.92132214,0.92132214 0 0 0 -1.06641,1.40039 c 4.88927,6.81222 4.91469,15.93722 0.008,22.60547 a 0.92132214,0.92132214 0 0 0 1.0586,1.41015 l 32.20898,-11.84375 a 0.92132214,0.92132214 0 0 0 0,-1.72851 z m 1.82617,2.63281 27.39843,10.07617 -27.36328,10.06055 c 3.42114,-6.23984 3.38957,-13.82404 -0.0351,-20.13672 z"
             id="path507" />
        </g>
      </g>
    </g>
    <rect
       style="fill:#0000ff;stroke-width:4.913;stroke-dasharray:4.913, 4.913"
       id="rect5586"
       width="211.09549"
       height="74.27504"
       x="97.080978"
       y="117.21355"
       ry="29.032969" />
    <g
       aria-label="commit pai"
       id="text8417"
       style="font-size:26.6667px">
      <path
         d="m 135.80197,161.55108 q -3.25333,0 -5.04,-1.78667 -1.76,-1.81334 -1.76,-5.68001 0,-2.66667 0.90666,-4.34667 0.90667,-1.68 2.50667,-2.48001 1.62667,-0.8 3.73334,-0.8 1.49334,0 2.58667,0.29334 1.12,0.29333 1.94667,0.69333 l -1.17333,3.06667 q -0.93334,-0.37333 -1.76001,-0.61333 -0.8,-0.24 -1.6,-0.24 -3.09334,0 -3.09334,4.4 0,2.18667 0.8,3.22667 0.82667,1.04 2.29334,1.04 1.25334,0 2.21334,-0.32 0.96,-0.34666 1.86667,-0.93333 v 3.38667 q -0.90667,0.58667 -1.92001,0.82667 -0.98666,0.26667 -2.50667,0.26667 z"
         style="-inkscape-font-specification:'sans-serif Bold';fill:#ffffff"
         id="path458" />
      <path
         d="m 156.81533,153.97773 q 0,3.62667 -1.92,5.60001 -1.89334,1.97334 -5.17334,1.97334 -2.02667,0 -3.62667,-0.88001 -1.57334,-0.88 -2.48,-2.56 -0.90667,-1.70667 -0.90667,-4.13334 0,-3.62667 1.89333,-5.57334 1.89334,-1.94667 5.20001,-1.94667 2.05334,0 3.62667,0.88 1.57334,0.88001 2.48,2.56001 0.90667,1.65333 0.90667,4.08 z m -10.05334,0 q 0,2.16001 0.69333,3.28001 0.72,1.09333 2.32,1.09333 1.57334,0 2.26667,-1.09333 0.72,-1.12 0.72,-3.28001 0,-2.16 -0.72,-3.22667 -0.69333,-1.09333 -2.29333,-1.09333 -1.57334,0 -2.29334,1.09333 -0.69333,1.06667 -0.69333,3.22667 z"
         style="-inkscape-font-specification:'sans-serif Bold';fill:#ffffff"
         id="path460" />
      <path
         d="m 177.18868,146.45772 q 2.48,0 3.73334,1.28 1.28,1.25334 1.28,4.05334 v 9.49335 h -3.97334 v -8.50668 q 0,-3.14667 -2.18667,-3.14667 -1.57334,0 -2.24,1.12 -0.66667,1.12 -0.66667,3.22667 v 7.30668 H 169.162 v -8.50668 q 0,-3.14667 -2.18667,-3.14667 -1.65333,0 -2.29334,1.25334 -0.61333,1.22666 -0.61333,3.54667 v 6.85334 h -3.97334 v -14.56002 h 3.04001 l 0.53333,1.86667 h 0.21333 q 0.66667,-1.12 1.81334,-1.62667 1.17333,-0.50667 2.42667,-0.50667 1.6,0 2.72,0.53334 1.12,0.50666 1.70667,1.6 h 0.34667 q 0.66667,-1.12 1.84,-1.62667 1.2,-0.50667 2.45334,-0.50667 z"
         style="-inkscape-font-specification:'sans-serif Bold';fill:#ffffff"
         id="path462" />
      <path
         d="m 203.37538,146.45772 q 2.48001,0 3.73334,1.28 1.28,1.25334 1.28,4.05334 v 9.49335 h -3.97333 v -8.50668 q 0,-3.14667 -2.18667,-3.14667 -1.57334,0 -2.24001,1.12 -0.66666,1.12 -0.66666,3.22667 v 7.30668 h -3.97334 v -8.50668 q 0,-3.14667 -2.18667,-3.14667 -1.65334,0 -2.29334,1.25334 -0.61333,1.22666 -0.61333,3.54667 v 6.85334 h -3.97334 v -14.56002 h 3.04 l 0.53334,1.86667 h 0.21333 q 0.66667,-1.12 1.81334,-1.62667 1.17333,-0.50667 2.42667,-0.50667 1.6,0 2.72,0.53334 1.12,0.50666 1.70667,1.6 h 0.34667 q 0.66666,-1.12 1.84,-1.62667 1.2,-0.50667 2.45333,-0.50667 z"
         style="-inkscape-font-specification:'sans-serif Bold';fill:#ffffff"
         id="path464" />
      <path
         d="m 214.46875,141.01772 q 0.88,0 1.52,0.42666 0.64,0.4 0.64,1.52001 0,1.09333 -0.64,1.52 -0.64,0.42666 -1.52,0.42666 -0.90667,0 -1.54667,-0.42666 -0.61334,-0.42667 -0.61334,-1.52 0,-1.12001 0.61334,-1.52001 0.64,-0.42666 1.54667,-0.42666 z m 1.97333,5.70667 v 14.56002 h -3.97334 v -14.56002 z"
         style="-inkscape-font-specification:'sans-serif Bold';fill:#ffffff"
         id="path466" />
      <path
         d="m 226.73543,158.37774 q 0.66667,0 1.28,-0.13334 0.61334,-0.13333 1.22667,-0.32 v 2.96001 q -0.64,0.26667 -1.6,0.45333 -0.93334,0.21334 -2.05334,0.21334 -1.30667,0 -2.34667,-0.42667 -1.01333,-0.42667 -1.62667,-1.46667 -0.58666,-1.06667 -0.58666,-2.93334 v -7.01334 h -1.89334 v -1.68 l 2.18667,-1.33334 1.14667,-3.06667 h 2.53334 v 3.09334 h 4.08 v 2.98667 h -4.08 v 7.01334 q 0,0.82667 0.48,1.25334 0.48,0.4 1.25333,0.4 z"
         style="-inkscape-font-specification:'sans-serif Bold';fill:#ffffff"
         id="path468" />
      <path
         d="m 247.21547,146.45772 q 2.45333,0 3.97333,1.92001 1.52001,1.89333 1.52001,5.6 0,3.70667 -1.57334,5.65334 -1.57334,1.92001 -4.02667,1.92001 -1.57334,0 -2.50667,-0.56001 -0.93334,-0.58666 -1.52,-1.30666 h -0.21334 q 0.21334,1.12 0.21334,2.13333 v 5.86668 h -3.97334 v -20.96003 h 3.22667 l 0.56,1.89334 h 0.18667 q 0.58666,-0.88001 1.57333,-1.52001 0.98667,-0.64 2.56001,-0.64 z m -1.28001,3.17334 q -1.54666,0 -2.18667,0.96 -0.61333,0.96 -0.66666,2.93334 v 0.42667 q 0,2.10667 0.61333,3.25333 0.64,1.12 2.29334,1.12 1.36,0 2,-1.12 0.66667,-1.14666 0.66667,-3.28 0,-4.29334 -2.72001,-4.29334 z"
         style="-inkscape-font-specification:'sans-serif Bold';fill:#ffffff"
         id="path470" />
      <path
         d="m 261.96213,146.43106 q 2.93334,0 4.48001,1.28 1.57334,1.25333 1.57334,3.86667 v 9.70668 h -2.77334 l -0.77334,-1.97334 h -0.10666 q -0.93334,1.17334 -1.97334,1.70667 -1.04,0.53334 -2.85334,0.53334 -1.94666,0 -3.22667,-1.12001 -1.28,-1.14666 -1.28,-3.49333 0,-2.32001 1.62667,-3.41334 1.62667,-1.12 4.88001,-1.22667 l 2.53333,-0.08 v -0.64 q 0,-1.14667 -0.61333,-1.68 -0.58667,-0.53334 -1.65334,-0.53334 -1.06666,0 -2.08,0.32 -1.01333,0.29334 -2.02667,0.74667 l -1.30667,-2.69334 q 1.17334,-0.61333 2.58667,-0.96 1.44001,-0.34666 2.98667,-0.34666 z m 0.56,8.16001 q -1.92,0.0533 -2.66667,0.69333 -0.74666,0.64 -0.74666,1.68 0,0.90667 0.53333,1.30667 0.53334,0.37334 1.38667,0.37334 1.28,0 2.16,-0.74667 0.88,-0.77334 0.88,-2.16001 v -1.2 z"
         style="-inkscape-font-specification:'sans-serif Bold';fill:#ffffff"
         id="path472" />
      <path
         d="m 274.09549,141.01772 q 0.88,0 1.52,0.42666 0.64,0.4 0.64,1.52001 0,1.09333 -0.64,1.52 -0.64,0.42666 -1.52,0.42666 -0.90667,0 -1.54667,-0.42666 -0.61334,-0.42667 -0.61334,-1.52 0,-1.12001 0.61334,-1.52001 0.64,-0.42666 1.54667,-0.42666 z m 1.97333,5.70667 v 14.56002 h -3.97334 v -14.56002 z"
         style="-inkscape-font-specification:'sans-serif Bold';fill:#ffffff"
         id="path474" />
    </g>
    <rect
       style="fill:#008000;stroke-width:4.913;stroke-dasharray:4.913, 4.913"
       id="rect20450"
       width="208.86389"
       height="152.09026"
       x="374.32248"
       y="117.11913"
       ry="29.032969" />
    <g
       aria-label="tree"
       id="text20572"
       style="font-size:26.6667px">
      <path
         d="m 459.90106,140.5843 q 0.66666,0 1.28,-0.13334 0.61333,-0.13333 1.22667,-0.32 v 2.96001 q -0.64,0.26666 -1.6,0.45333 -0.93334,0.21333 -2.05334,0.21333 -1.30667,0 -2.34667,-0.42666 -1.01334,-0.42667 -1.62667,-1.46667 -0.58667,-1.06667 -0.58667,-2.93334 v -7.01334 h -1.89333 v -1.68 l 2.18667,-1.33334 1.14667,-3.06667 h 2.53333 v 3.09334 h 4.08001 v 2.98667 h -4.08001 v 7.01334 q 0,0.82667 0.48,1.25334 0.48,0.4 1.25334,0.4 z"
         style="-inkscape-font-specification:'sans-serif Bold';fill:#ffffff"
         id="path439" />
      <path
         d="m 473.47441,128.66428 q 0.29333,0 0.69333,0.0267 0.4,0.0267 0.64,0.08 l -0.29333,3.73334 q -0.18667,-0.0533 -0.56,-0.08 -0.34667,-0.0533 -0.61334,-0.0533 -1.01333,0 -1.94666,0.37334 -0.93334,0.34666 -1.52001,1.14666 -0.56,0.80001 -0.56,2.18667 v 7.41335 h -3.97334 v -14.56002 h 3.01334 l 0.58667,2.45333 h 0.18667 q 0.64,-1.12 1.76,-1.92 1.12,-0.8 2.58667,-0.8 z"
         style="-inkscape-font-specification:'sans-serif Bold';fill:#ffffff"
         id="path441" />
      <path
         d="m 482.91442,128.66428 q 3.01334,0 4.77334,1.73334 1.76,1.70667 1.76,4.88 v 1.92001 h -9.38668 q 0.0533,1.68 0.98667,2.64 0.96,0.96 2.64,0.96 1.41334,0 2.56001,-0.26667 1.14667,-0.29333 2.37333,-0.88 v 3.06667 q -1.06666,0.53334 -2.26667,0.77334 -1.17333,0.26666 -2.85333,0.26666 -2.18667,0 -3.86667,-0.8 -1.68001,-0.82666 -2.64001,-2.48 -0.96,-1.65334 -0.96,-4.16001 0,-2.56 0.85334,-4.24 0.88,-1.70667 2.42667,-2.56 1.54666,-0.85334 3.6,-0.85334 z m 0.0267,2.82667 q -1.14667,0 -1.92001,0.74667 -0.74666,0.74667 -0.88,2.32 h 5.57334 q -0.0267,-1.33333 -0.69333,-2.18667 -0.66667,-0.88 -2.08,-0.88 z"
         style="-inkscape-font-specification:'sans-serif Bold';fill:#ffffff"
         id="path443" />
      <path
         d="m 498.67443,128.66428 q 3.01334,0 4.77334,1.73334 1.76,1.70667 1.76,4.88 v 1.92001 h -9.38668 q 0.0533,1.68 0.98667,2.64 0.96,0.96 2.64001,0.96 1.41333,0 2.56,-0.26667 1.14667,-0.29333 2.37334,-0.88 v 3.06667 q -1.06667,0.53334 -2.26667,0.77334 -1.17334,0.26666 -2.85334,0.26666 -2.18667,0 -3.86667,-0.8 -1.68,-0.82666 -2.64001,-2.48 -0.96,-1.65334 -0.96,-4.16001 0,-2.56 0.85334,-4.24 0.88,-1.70667 2.42667,-2.56 1.54667,-0.85334 3.6,-0.85334 z m 0.0267,2.82667 q -1.14667,0 -1.92,0.74667 -0.74667,0.74667 -0.88001,2.32 h 5.57335 q -0.0267,-1.33333 -0.69334,-2.18667 -0.66667,-0.88 -2.08,-0.88 z"
         style="-inkscape-font-specification:'sans-serif Bold';fill:#ffffff"
         id="path445" />
    </g>
    <g
       aria-label="arquivo"
       id="text24320"
       style="font-size:26.6667px">
      <path
         d="m 435.90103,208.5776 q 2.93334,0 4.48001,1.28 1.57333,1.25334 1.57333,3.86668 v 9.70667 h -2.77334 l -0.77333,-1.97333 h -0.10667 q -0.93333,1.17333 -1.97333,1.70667 -1.04,0.53333 -2.85334,0.53333 -1.94667,0 -3.22667,-1.12 -1.28,-1.14667 -1.28,-3.49334 0,-2.32 1.62667,-3.41334 1.62667,-1.12 4.88,-1.22666 l 2.53334,-0.08 v -0.64 q 0,-1.14667 -0.61333,-1.68001 -0.58667,-0.53333 -1.65334,-0.53333 -1.06667,0 -2.08,0.32 -1.01334,0.29333 -2.02667,0.74667 l -1.30667,-2.69334 q 1.17333,-0.61333 2.58667,-0.96 1.44,-0.34667 2.98667,-0.34667 z m 0.56,8.16001 q -1.92,0.0533 -2.66667,0.69334 -0.74667,0.64 -0.74667,1.68 0,0.90667 0.53334,1.30667 0.53333,0.37333 1.38667,0.37333 1.28,0 2.16,-0.74667 0.88,-0.77333 0.88,-2.16 v -1.2 z"
         style="-inkscape-font-specification:'sans-serif Bold';fill:#ffffff"
         id="path410" />
      <path
         d="m 454.16772,208.60427 q 0.29334,0 0.69334,0.0267 0.4,0.0267 0.64,0.08 l -0.29334,3.73333 q -0.18666,-0.0533 -0.56,-0.08 -0.34666,-0.0533 -0.61333,-0.0533 -1.01334,0 -1.94667,0.37333 -0.93333,0.34667 -1.52,1.14667 -0.56,0.8 -0.56,2.18667 v 7.41334 h -3.97334 v -14.56001 h 3.01334 l 0.58666,2.45333 h 0.18667 q 0.64,-1.12 1.76,-1.92 1.12,-0.8 2.58667,-0.8 z"
         style="-inkscape-font-specification:'sans-serif Bold';fill:#ffffff"
         id="path412" />
      <path
         d="m 466.35441,223.72429 q 0,-1.12 0.16,-2.18667 h -0.16 q -0.56001,0.90667 -1.54667,1.54667 -0.98667,0.61333 -2.58667,0.61333 -2.45334,0 -3.97334,-1.89333 -1.52,-1.92001 -1.52,-5.62668 0,-3.73334 1.54667,-5.65334 1.54666,-1.92 4.02667,-1.92 1.6,0 2.58667,0.61333 1.01333,0.61334 1.62667,1.52 h 0.10666 l 0.34667,-1.86666 h 3.36 v 20.96002 h -3.97333 z m -2.72001,-3.14667 q 1.65334,0 2.29334,-0.96 0.66667,-0.98667 0.69333,-2.93334 v -0.48 q 0,-2.13334 -0.66666,-3.25334 -0.64001,-1.12 -2.37334,-1.12 -1.41334,0 -2.10667,1.14667 -0.69333,1.12 -0.69333,3.25333 0,4.34668 2.85333,4.34668 z"
         style="-inkscape-font-specification:'sans-serif Bold';fill:#ffffff"
         id="path414" />
      <path
         d="m 487.84775,208.87094 v 14.56001 h -3.04 l -0.53334,-1.86667 h -0.21333 q -0.69334,1.12001 -1.92,1.62667 -1.20001,0.50667 -2.56001,0.50667 -2.34667,0 -3.76,-1.25333 -1.41334,-1.28001 -1.41334,-4.08001 v -9.49334 h 3.97334 v 8.50667 q 0,1.54667 0.56,2.34667 0.56,0.8 1.78667,0.8 1.81334,0 2.48,-1.22666 0.66667,-1.25334 0.66667,-3.57334 v -6.85334 z"
         style="-inkscape-font-specification:'sans-serif Bold';fill:#ffffff"
         id="path416" />
      <path
         d="m 494.00775,203.16426 q 0.88,0 1.52,0.42667 0.64,0.4 0.64,1.52 0,1.09334 -0.64,1.52 -0.64,0.42667 -1.52,0.42667 -0.90667,0 -1.54667,-0.42667 -0.61334,-0.42666 -0.61334,-1.52 0,-1.12 0.61334,-1.52 0.64,-0.42667 1.54667,-0.42667 z m 1.97333,5.70668 v 14.56001 h -3.97334 v -14.56001 z"
         style="-inkscape-font-specification:'sans-serif Bold';fill:#ffffff"
         id="path418" />
      <path
         d="m 503.60777,223.43095 -5.54667,-14.56001 h 4.16 l 2.8,8.29334 q 0.24001,0.74667 0.37334,1.54667 0.16,0.8 0.18667,1.44 h 0.10666 q 0.08,-1.44 0.58667,-2.98667 l 2.8,-8.29334 h 4.16001 l -5.54667,14.56001 z"
         style="-inkscape-font-specification:'sans-serif Bold';fill:#ffffff"
         id="path420" />
      <path
         d="m 528.54114,216.12428 q 0,3.62667 -1.92001,5.60001 -1.89333,1.97333 -5.17333,1.97333 -2.02667,0 -3.62668,-0.88 -1.57333,-0.88 -2.48,-2.56 -0.90667,-1.70667 -0.90667,-4.13334 0,-3.62667 1.89334,-5.57334 1.89333,-1.94667 5.20001,-1.94667 2.05333,0 3.62667,0.88 1.57333,0.88 2.48,2.56 0.90667,1.65334 0.90667,4.08001 z m -10.05335,0 q 0,2.16 0.69334,3.28 0.72,1.09334 2.32,1.09334 1.57333,0 2.26667,-1.09334 0.72,-1.12 0.72,-3.28 0,-2.16 -0.72,-3.22667 -0.69334,-1.09334 -2.29334,-1.09334 -1.57333,0 -2.29333,1.09334 -0.69334,1.06667 -0.69334,3.22667 z"
         style="-inkscape-font-specification:'sans-serif Bold';fill:#ffffff"
         id="path422" />
    </g>
    <g
       aria-label="diretório"
       id="text26934"
       style="font-size:26.6667px">
      <path
         d="m 426.86101,254.52431 q -2.42667,0 -3.97334,-1.89333 -1.52,-1.92001 -1.52,-5.62668 0,-3.73334 1.54666,-5.65334 1.54667,-1.92 4.05334,-1.92 1.57334,0 2.58667,0.61333 1.01334,0.61334 1.6,1.52001 h 0.13334 q -0.08,-0.42667 -0.18667,-1.22667 -0.10667,-0.82667 -0.10667,-1.68001 v -4.66667 h 3.97334 v 20.26669 h -3.04 l -0.77334,-1.89333 h -0.16 q -0.58666,0.90667 -1.57333,1.54667 -0.98667,0.61333 -2.56,0.61333 z m 1.38666,-3.17334 q 1.65334,0 2.32001,-0.96 0.66666,-0.98666 0.69333,-2.93333 v -0.42667 q 0,-2.13334 -0.66667,-3.25334 -0.64,-1.12 -2.4,-1.12 -1.30667,0 -2.05334,1.14667 -0.74666,1.12 -0.74666,3.25334 0,2.13333 0.74666,3.22667 0.74667,1.06666 2.10667,1.06666 z"
         style="-inkscape-font-specification:'sans-serif Bold';fill:#ffffff"
         id="path373" />
      <path
         d="m 441.12768,233.99095 q 0.88,0 1.52,0.42667 0.64,0.4 0.64,1.52 0,1.09334 -0.64,1.52 -0.64,0.42667 -1.52,0.42667 -0.90667,0 -1.54667,-0.42667 -0.61334,-0.42666 -0.61334,-1.52 0,-1.12 0.61334,-1.52 0.64,-0.42667 1.54667,-0.42667 z m 1.97333,5.70668 v 14.56001 h -3.97334 v -14.56001 z"
         style="-inkscape-font-specification:'sans-serif Bold';fill:#ffffff"
         id="path375" />
      <path
         d="m 455.39437,239.43096 q 0.29333,0 0.69333,0.0267 0.4,0.0267 0.64,0.08 l -0.29333,3.73333 q -0.18667,-0.0533 -0.56,-0.08 -0.34667,-0.0533 -0.61333,-0.0533 -1.01334,0 -1.94667,0.37333 -0.93334,0.34667 -1.52001,1.14667 -0.56,0.8 -0.56,2.18667 v 7.41334 h -3.97333 v -14.56001 h 3.01333 l 0.58667,2.45333 h 0.18667 q 0.64,-1.12 1.76,-1.92 1.12,-0.8 2.58667,-0.8 z"
         style="-inkscape-font-specification:'sans-serif Bold';fill:#ffffff"
         id="path377" />
      <path
         d="m 464.83438,239.43096 q 3.01334,0 4.77334,1.73333 1.76,1.70667 1.76,4.88001 v 1.92 h -9.38668 q 0.0533,1.68001 0.98667,2.64001 0.96,0.96 2.64001,0.96 1.41333,0 2.56,-0.26667 1.14667,-0.29333 2.37334,-0.88 v 3.06667 q -1.06667,0.53333 -2.26667,0.77333 -1.17334,0.26667 -2.85334,0.26667 -2.18667,0 -3.86667,-0.8 -1.68,-0.82667 -2.64001,-2.48 -0.96,-1.65334 -0.96,-4.16001 0,-2.56 0.85334,-4.24 0.88,-1.70667 2.42667,-2.56001 1.54667,-0.85333 3.6,-0.85333 z m 0.0267,2.82667 q -1.14667,0 -1.92,0.74667 -0.74667,0.74666 -0.88,2.32 h 5.57334 q -0.0267,-1.33333 -0.69334,-2.18667 -0.66667,-0.88 -2.08,-0.88 z"
         style="-inkscape-font-specification:'sans-serif Bold';fill:#ffffff"
         id="path379" />
      <path
         d="m 480.72773,251.35097 q 0.66666,0 1.28,-0.13333 0.61333,-0.13333 1.22666,-0.32 v 2.96 q -0.64,0.26667 -1.6,0.45334 -0.93333,0.21333 -2.05333,0.21333 -1.30667,0 -2.34667,-0.42667 -1.01334,-0.42666 -1.62667,-1.46666 -0.58667,-1.06667 -0.58667,-2.93334 v -7.01334 h -1.89333 v -1.68001 l 2.18666,-1.33333 1.14667,-3.06667 h 2.53334 v 3.09334 h 4.08 v 2.98667 h -4.08 v 7.01334 q 0,0.82667 0.48,1.25333 0.48,0.4 1.25334,0.4 z"
         style="-inkscape-font-specification:'sans-serif Bold';fill:#ffffff"
         id="path381" />
      <path
         d="m 499.39441,246.95097 q 0,3.62667 -1.92,5.60001 -1.89334,1.97333 -5.17334,1.97333 -2.02667,0 -3.62667,-0.88 -1.57334,-0.88 -2.48,-2.56 -0.90667,-1.70667 -0.90667,-4.13334 0,-3.62667 1.89333,-5.57334 1.89334,-1.94667 5.20001,-1.94667 2.05334,0 3.62667,0.88 1.57334,0.88 2.48,2.56 0.90667,1.65334 0.90667,4.08001 z m -10.05334,0 q 0,2.16 0.69333,3.28 0.72,1.09334 2.32,1.09334 1.57334,0 2.26667,-1.09334 0.72,-1.12 0.72,-3.28 0,-2.16 -0.72,-3.22667 -0.69333,-1.09334 -2.29333,-1.09334 -1.57334,0 -2.29334,1.09334 -0.69333,1.06667 -0.69333,3.22667 z m 8.13334,-12.85335 q -0.37333,0.37333 -0.98667,0.90667 -0.61333,0.53333 -1.33333,1.12 -0.69334,0.58667 -1.38667,1.12 -0.66667,0.50667 -1.17334,0.85333 h -2.64 v -0.34666 q 0.42667,-0.50667 0.98667,-1.17334 0.58667,-0.69333 1.14667,-1.41333 0.56,-0.74667 0.93333,-1.33334 h 4.45334 z"
         style="-inkscape-font-specification:'sans-serif Bold';fill:#ffffff"
         id="path383" />
      <path
         d="m 510.80774,239.43096 q 0.29334,0 0.69334,0.0267 0.4,0.0267 0.64,0.08 l -0.29333,3.73333 q -0.18667,-0.0533 -0.56,-0.08 -0.34667,-0.0533 -0.61334,-0.0533 -1.01333,0 -1.94667,0.37333 -0.93333,0.34667 -1.52,1.14667 -0.56,0.8 -0.56,2.18667 v 7.41334 h -3.97334 v -14.56001 h 3.01334 l 0.58667,2.45333 h 0.18666 q 0.64,-1.12 1.76,-1.92 1.12001,-0.8 2.58667,-0.8 z"
         style="-inkscape-font-specification:'sans-serif Bold';fill:#ffffff"
         id="path385" />
      <path
         d="m 516.7811,233.99095 q 0.88,0 1.52,0.42667 0.64,0.4 0.64,1.52 0,1.09334 -0.64,1.52 -0.64,0.42667 -1.52,0.42667 -0.90667,0 -1.54667,-0.42667 -0.61333,-0.42666 -0.61333,-1.52 0,-1.12 0.61333,-1.52 0.64,-0.42667 1.54667,-0.42667 z m 1.97334,5.70668 v 14.56001 h -3.97334 v -14.56001 z"
         style="-inkscape-font-specification:'sans-serif Bold';fill:#ffffff"
         id="path387" />
      <path
         d="m 536.14114,246.95097 q 0,3.62667 -1.92001,5.60001 -1.89333,1.97333 -5.17334,1.97333 -2.02667,0 -3.62667,-0.88 -1.57333,-0.88 -2.48,-2.56 -0.90667,-1.70667 -0.90667,-4.13334 0,-3.62667 1.89334,-5.57334 1.89333,-1.94667 5.2,-1.94667 2.05334,0 3.62667,0.88 1.57334,0.88 2.48001,2.56 0.90667,1.65334 0.90667,4.08001 z m -10.05335,0 q 0,2.16 0.69333,3.28 0.72,1.09334 2.32001,1.09334 1.57333,0 2.26667,-1.09334 0.72,-1.12 0.72,-3.28 0,-2.16 -0.72,-3.22667 -0.69334,-1.09334 -2.29334,-1.09334 -1.57334,0 -2.29334,1.09334 -0.69333,1.06667 -0.69333,3.22667 z"
         style="-inkscape-font-specification:'sans-serif Bold';fill:#ffffff"
         id="path389" />
    </g>
    <g
       id="path29509">
      <path
         style="color:#000000;fill:#000000;-inkscape-stroke:none"
         d="m 649.86133,149.33789 -103.09571,62.86914 2.5586,4.19336 103.09375,-62.86914 z"
         id="path371" />
      <g
         id="g361">
        <g
           id="path363">
          <path
             style="color:#000000;fill:#000000;fill-rule:evenodd;stroke-width:1.84246;stroke-linejoin:round;-inkscape-stroke:none"
             d="m 623.00517,154.66376 33.66553,-6.65731 -21.33247,26.88146 c 0.75247,-8.64921 -4.25397,-16.802 -12.33306,-20.22415 z"
             id="path367" />
          <path
             style="color:#000000;fill:#000000;fill-rule:evenodd;stroke-linejoin:round;-inkscape-stroke:none"
             d="m 656.49219,147.10352 -33.66602,6.65625 a 0.92132214,0.92132214 0 0 0 -0.17969,1.75195 c 7.72109,3.2705 12.491,11.04896 11.77344,19.29687 a 0.92132214,0.92132214 0 0 0 1.64063,0.65235 l 21.33203,-26.88086 a 0.92132214,0.92132214 0 0 0 -0.90039,-1.47656 z m -2.09961,2.29296 -18.12305,22.83594 c -0.32764,-7.10827 -4.30179,-13.56702 -10.51172,-17.17383 z"
             id="path369" />
        </g>
      </g>
    </g>
    <rect
       style="fill:#ff0000;stroke-width:4.913;stroke-dasharray:4.913, 4.913"
       id="rect29648"
       width="211.09549"
       height="74.27504"
       x="657.08099"
       y="117.21355"
       ry="29.032969" />
    <g
       aria-label="blob"
       id="text29750"
       style="font-size:26.6667px">
      <path
         d="m 739.04205,148.80439 q 0,0.82667 -0.0533,1.62667 -0.0533,0.8 -0.10667,1.25333 h 0.16 q 0.58667,-0.90667 1.57333,-1.52 0.98667,-0.64 2.56001,-0.64 2.45333,0 3.97334,1.92 1.52,1.89334 1.52,5.60001 0,3.73334 -1.54667,5.65334 -1.54667,1.92 -4.05334,1.92 -1.6,0 -2.53334,-0.56 -0.90666,-0.58667 -1.49333,-1.30667 h -0.26667 l -0.66667,1.6 h -3.04 v -20.26669 h 3.97334 z m 2.85334,3.89334 q -1.54667,0 -2.18667,0.96 -0.61334,0.96 -0.66667,2.93333 v 0.42667 q 0,2.10667 0.61333,3.25334 0.64,1.12 2.29334,1.12 1.22667,0 1.94667,-1.12 0.72,-1.14667 0.72,-3.28001 0,-2.13333 -0.74667,-3.2 -0.72,-1.09333 -1.97333,-1.09333 z"
         style="-inkscape-font-specification:'sans-serif Bold';fill:#ffffff"
         id="path340" />
      <path
         d="m 755.92206,164.35107 h -3.97334 v -20.26669 h 3.97334 z"
         style="-inkscape-font-specification:'sans-serif Bold';fill:#ffffff"
         id="path342" />
      <path
         d="m 773.30875,157.0444 q 0,3.62667 -1.92,5.60001 -1.89333,1.97333 -5.17334,1.97333 -2.02667,0 -3.62667,-0.88 -1.57334,-0.88 -2.48,-2.56 -0.90667,-1.70667 -0.90667,-4.13334 0,-3.62667 1.89333,-5.57334 1.89334,-1.94667 5.20001,-1.94667 2.05334,0 3.62667,0.88 1.57334,0.88 2.48001,2.56 0.90666,1.65334 0.90666,4.08001 z m -10.05334,0 q 0,2.16 0.69333,3.28 0.72,1.09334 2.32,1.09334 1.57334,0 2.26667,-1.09334 0.72001,-1.12 0.72001,-3.28 0,-2.16 -0.72001,-3.22667 -0.69333,-1.09334 -2.29333,-1.09334 -1.57334,0 -2.29334,1.09334 -0.69333,1.06667 -0.69333,3.22667 z"
         style="-inkscape-font-specification:'sans-serif Bold';fill:#ffffff"
         id="path344" />
      <path
         d="m 780.56208,148.80439 q 0,0.82667 -0.0533,1.62667 -0.0533,0.8 -0.10667,1.25333 h 0.16 q 0.58667,-0.90667 1.57334,-1.52 0.98666,-0.64 2.56,-0.64 2.45334,0 3.97334,1.92 1.52,1.89334 1.52,5.60001 0,3.73334 -1.54667,5.65334 -1.54667,1.92 -4.05334,1.92 -1.6,0 -2.53333,-0.56 -0.90667,-0.58667 -1.49334,-1.30667 h -0.26667 l -0.66666,1.6 h -3.04001 v -20.26669 h 3.97334 z m 2.85334,3.89334 q -1.54667,0 -2.18667,0.96 -0.61334,0.96 -0.66667,2.93333 v 0.42667 q 0,2.10667 0.61333,3.25334 0.64001,1.12 2.29334,1.12 1.22667,0 1.94667,-1.12 0.72,-1.14667 0.72,-3.28001 0,-2.13333 -0.74667,-3.2 -0.72,-1.09333 -1.97333,-1.09333 z"
         style="-inkscape-font-specification:'sans-serif Bold';fill:#ffffff"
         id="path346" />
    </g>
    <g
       id="path31331">
      <path
         style="color:#000000;fill:#000000;-inkscape-stroke:none"
         d="m 545.97461,245.95898 v 4.91211 h 103.37305 v -4.91211 z"
         id="path338" />
      <g
         id="g328">
        <g
           id="path330">
          <path
             style="color:#000000;fill:#000000;fill-rule:evenodd;stroke-width:1.84246;stroke-linejoin:round;-inkscape-stroke:none"
             d="m 623.64647,236.52379 32.20881,11.84399 -32.20881,11.844 c 5.14562,-6.99269 5.11597,-16.5599 0,-23.68799 z"
             id="path334" />
          <path
             style="color:#000000;fill:#000000;fill-rule:evenodd;stroke-linejoin:round;-inkscape-stroke:none"
             d="m 623.96484,235.6582 a 0.92132214,0.92132214 0 0 0 -1.0664,1.40235 c 4.88926,6.81222 4.91273,15.93722 0.006,22.60547 a 0.92132214,0.92132214 0 0 0 1.06054,1.41015 l 32.20899,-11.84375 a 0.92132214,0.92132214 0 0 0 0,-1.72851 z m 1.82422,2.63477 27.39844,10.07422 -27.36133,10.0625 c 3.42105,-6.23981 3.38758,-13.82409 -0.0371,-20.13672 z"
             id="path336" />
        </g>
      </g>
    </g>
    <rect
       style="fill:#008000;stroke-width:4.913;stroke-dasharray:4.913, 4.913"
       id="rect31432"
       width="208.86389"
       height="152.09026"
       x="656.65222"
       y="216.92216"
       ry="29.032969" />
    <g
       aria-label="tree"
       id="text31436"
       style="font-size:26.6667px">
      <path
         d="m 742.2308,240.38732 q 0.66667,0 1.28,-0.13333 0.61334,-0.13334 1.22667,-0.32 v 2.96 q -0.64,0.26667 -1.6,0.45333 -0.93334,0.21334 -2.05334,0.21334 -1.30667,0 -2.34667,-0.42667 -1.01333,-0.42667 -1.62667,-1.46667 -0.58666,-1.06667 -0.58666,-2.93333 v -7.01335 h -1.89334 v -1.68 l 2.18667,-1.33333 1.14667,-3.06667 h 2.53333 v 3.09333 h 4.08001 v 2.98667 h -4.08001 v 7.01335 q 0,0.82666 0.48,1.25333 0.48001,0.4 1.25334,0.4 z"
         style="-inkscape-font-specification:'sans-serif Bold';fill:#ffffff"
         id="path307" />
      <path
         d="m 755.80415,228.46731 q 0.29333,0 0.69333,0.0267 0.40001,0.0267 0.64001,0.08 l -0.29334,3.73334 q -0.18667,-0.0533 -0.56,-0.08 -0.34667,-0.0533 -0.61333,-0.0533 -1.01334,0 -1.94667,0.37333 -0.93334,0.34667 -1.52,1.14667 -0.56,0.8 -0.56,2.18667 v 7.41334 h -3.97334 v -14.56002 h 3.01333 l 0.58667,2.45334 h 0.18667 q 0.64,-1.12 1.76,-1.92 1.12,-0.8 2.58667,-0.8 z"
         style="-inkscape-font-specification:'sans-serif Bold';fill:#ffffff"
         id="path309" />
      <path
         d="m 765.24416,228.46731 q 3.01334,0 4.77334,1.73333 1.76,1.70667 1.76,4.88001 v 1.92 h -9.38667 q 0.0533,1.68 0.98666,2.64 0.96,0.96 2.64001,0.96 1.41333,0 2.56,-0.26666 1.14667,-0.29334 2.37334,-0.88 v 3.06667 q -1.06667,0.53333 -2.26667,0.77333 -1.17334,0.26667 -2.85334,0.26667 -2.18667,0 -3.86667,-0.8 -1.68,-0.82667 -2.64001,-2.48001 -0.96,-1.65333 -0.96,-4.16 0,-2.56 0.85334,-4.24001 0.88,-1.70667 2.42667,-2.56 1.54667,-0.85333 3.6,-0.85333 z m 0.0267,2.82667 q -1.14667,0 -1.92,0.74666 -0.74667,0.74667 -0.88,2.32001 h 5.57334 q -0.0267,-1.33334 -0.69334,-2.18667 -0.66667,-0.88 -2.08,-0.88 z"
         style="-inkscape-font-specification:'sans-serif Bold';fill:#ffffff"
         id="path311" />
      <path
         d="m 781.00417,228.46731 q 3.01334,0 4.77334,1.73333 1.76001,1.70667 1.76001,4.88001 v 1.92 h -9.38668 q 0.0533,1.68 0.98667,2.64 0.96,0.96 2.64,0.96 1.41333,0 2.56,-0.26666 1.14667,-0.29334 2.37334,-0.88 v 3.06667 q -1.06667,0.53333 -2.26667,0.77333 -1.17334,0.26667 -2.85334,0.26667 -2.18667,0 -3.86667,-0.8 -1.68,-0.82667 -2.64,-2.48001 -0.96,-1.65333 -0.96,-4.16 0,-2.56 0.85333,-4.24001 0.88,-1.70667 2.42667,-2.56 1.54667,-0.85333 3.6,-0.85333 z m 0.0267,2.82667 q -1.14667,0 -1.92,0.74666 -0.74667,0.74667 -0.88,2.32001 h 5.57334 q -0.0267,-1.33334 -0.69334,-2.18667 -0.66666,-0.88 -2.08,-0.88 z"
         style="-inkscape-font-specification:'sans-serif Bold';fill:#ffffff"
         id="path313" />
    </g>
    <g
       aria-label="arquivo"
       id="text31440"
       style="font-size:26.6667px">
      <path
         d="m 718.23077,308.38063 q 2.93334,0 4.48001,1.28 1.57333,1.25333 1.57333,3.86667 v 9.70668 h -2.77333 l -0.77334,-1.97334 h -0.10666 q -0.93334,1.17334 -1.97334,1.70667 -1.04,0.53334 -2.85334,0.53334 -1.94667,0 -3.22667,-1.12001 -1.28,-1.14666 -1.28,-3.49333 0,-2.32001 1.62667,-3.41334 1.62667,-1.12 4.88001,-1.22667 l 2.53333,-0.08 v -0.64 q 0,-1.14667 -0.61333,-1.68 -0.58667,-0.53334 -1.65334,-0.53334 -1.06667,0 -2.08,0.32 -1.01333,0.29334 -2.02667,0.74667 l -1.30667,-2.69334 q 1.17334,-0.61333 2.58667,-0.96 1.44,-0.34666 2.98667,-0.34666 z m 0.56,8.16001 q -1.92,0.0533 -2.66667,0.69333 -0.74666,0.64 -0.74666,1.68 0,0.90667 0.53333,1.30667 0.53333,0.37333 1.38667,0.37333 1.28,0 2.16,-0.74666 0.88,-0.77334 0.88,-2.16001 v -1.2 z"
         style="-inkscape-font-specification:'sans-serif Bold';fill:#ffffff"
         id="path278" />
      <path
         d="m 736.49746,308.40729 q 0.29334,0 0.69334,0.0267 0.4,0.0267 0.64,0.08 l -0.29333,3.73334 q -0.18667,-0.0533 -0.56,-0.08 -0.34667,-0.0533 -0.61334,-0.0533 -1.01333,0 -1.94667,0.37334 -0.93333,0.34667 -1.52,1.14667 -0.56,0.8 -0.56,2.18667 v 7.41334 h -3.97334 v -14.56002 h 3.01334 l 0.58667,2.45334 h 0.18666 q 0.64,-1.12001 1.76,-1.92001 1.12001,-0.8 2.58667,-0.8 z"
         style="-inkscape-font-specification:'sans-serif Bold';fill:#ffffff"
         id="path280" />
      <path
         d="m 748.68415,323.52731 q 0,-1.12 0.16,-2.18667 h -0.16 q -0.56,0.90667 -1.54667,1.54667 -0.98667,0.61334 -2.58667,0.61334 -2.45334,0 -3.97334,-1.89334 -1.52,-1.92 -1.52,-5.62667 0,-3.73334 1.54667,-5.65334 1.54667,-1.92001 4.02667,-1.92001 1.6,0 2.58667,0.61334 1.01333,0.61333 1.62667,1.52 h 0.10667 l 0.34666,-1.86667 h 3.36001 v 20.96003 h -3.97334 z m -2.72001,-3.14667 q 1.65334,0 2.29334,-0.96 0.66667,-0.98667 0.69334,-2.93334 v -0.48 q 0,-2.13333 -0.66667,-3.25333 -0.64,-1.12001 -2.37334,-1.12001 -1.41333,0 -2.10667,1.14667 -0.69333,1.12 -0.69333,3.25334 0,4.34667 2.85333,4.34667 z"
         style="-inkscape-font-specification:'sans-serif Bold';fill:#ffffff"
         id="path282" />
      <path
         d="m 770.17749,308.67396 v 14.56002 h -3.04 l -0.53334,-1.86667 h -0.21333 q -0.69333,1.12 -1.92,1.62667 -1.2,0.50667 -2.56001,0.50667 -2.34666,0 -3.76,-1.25334 -1.41333,-1.28 -1.41333,-4.08 v -9.49335 h 3.97333 v 8.50668 q 0,1.54667 0.56,2.34667 0.56,0.8 1.78667,0.8 1.81334,0 2.48001,-1.22667 0.66666,-1.25334 0.66666,-3.57334 v -6.85334 z"
         style="-inkscape-font-specification:'sans-serif Bold';fill:#ffffff"
         id="path284" />
      <path
         d="m 776.33749,302.96729 q 0.88,0 1.52,0.42666 0.64,0.4 0.64,1.52001 0,1.09333 -0.64,1.52 -0.64,0.42666 -1.52,0.42666 -0.90667,0 -1.54667,-0.42666 -0.61333,-0.42667 -0.61333,-1.52 0,-1.12001 0.61333,-1.52001 0.64,-0.42666 1.54667,-0.42666 z m 1.97334,5.70667 v 14.56002 h -3.97334 v -14.56002 z"
         style="-inkscape-font-specification:'sans-serif Bold';fill:#ffffff"
         id="path286" />
      <path
         d="m 785.93751,323.23398 -5.54667,-14.56002 h 4.16 l 2.80001,8.29334 q 0.24,0.74667 0.37333,1.54667 0.16,0.8 0.18667,1.44 h 0.10666 q 0.08,-1.44 0.58667,-2.98667 l 2.80001,-8.29334 h 4.16 l -5.54667,14.56002 z"
         style="-inkscape-font-specification:'sans-serif Bold';fill:#ffffff"
         id="path288" />
      <path
         d="m 810.87088,315.9273 q 0,3.62667 -1.92,5.60001 -1.89334,1.97334 -5.17334,1.97334 -2.02667,0 -3.62667,-0.88001 -1.57334,-0.88 -2.48001,-2.56 -0.90666,-1.70667 -0.90666,-4.13334 0,-3.62667 1.89333,-5.57334 1.89334,-1.94667 5.20001,-1.94667 2.05333,0 3.62667,0.88 1.57333,0.88001 2.48,2.56001 0.90667,1.65333 0.90667,4.08 z m -10.05335,0 q 0,2.16001 0.69334,3.28001 0.72,1.09333 2.32,1.09333 1.57334,0 2.26667,-1.09333 0.72,-1.12 0.72,-3.28001 0,-2.16 -0.72,-3.22667 -0.69333,-1.09333 -2.29334,-1.09333 -1.57333,0 -2.29333,1.09333 -0.69334,1.06667 -0.69334,3.22667 z"
         style="-inkscape-font-specification:'sans-serif Bold';fill:#ffffff"
         id="path290" />
    </g>
    <g
       aria-label="diretório"
       id="text31444"
       style="font-size:26.6667px">
      <path
         d="m 709.19072,354.32734 q -2.42667,0 -3.97334,-1.89334 -1.52,-1.92 -1.52,-5.62667 0,-3.73334 1.54667,-5.65334 1.54666,-1.92001 4.05333,-1.92001 1.57334,0 2.58667,0.61334 1.01334,0.61333 1.60001,1.52 h 0.13333 q -0.08,-0.42667 -0.18667,-1.22667 -0.10666,-0.82667 -0.10666,-1.68 v -4.66667 h 3.97333 v 20.26669 h -3.04 l -0.77333,-1.89334 h -0.16 q -0.58667,0.90667 -1.57334,1.54667 -0.98667,0.61334 -2.56,0.61334 z m 1.38667,-3.17334 q 1.65333,0 2.32,-0.96 0.66667,-0.98667 0.69333,-2.93334 v -0.42667 q 0,-2.13333 -0.66666,-3.25333 -0.64001,-1.12001 -2.40001,-1.12001 -1.30667,0 -2.05333,1.14667 -0.74667,1.12 -0.74667,3.25334 0,2.13334 0.74667,3.22667 0.74666,1.06667 2.10667,1.06667 z"
         style="-inkscape-font-specification:'sans-serif Bold';fill:#ffffff"
         id="path241" />
      <path
         d="m 723.45739,333.79398 q 0.88,0 1.52,0.42666 0.64,0.4 0.64,1.52001 0,1.09333 -0.64,1.52 -0.64,0.42666 -1.52,0.42666 -0.90667,0 -1.54667,-0.42666 -0.61334,-0.42667 -0.61334,-1.52 0,-1.12001 0.61334,-1.52001 0.64,-0.42666 1.54667,-0.42666 z m 1.97333,5.70667 v 14.56002 h -3.97334 v -14.56002 z"
         style="-inkscape-font-specification:'sans-serif Bold';fill:#ffffff"
         id="path243" />
      <path
         d="m 737.72408,339.23398 q 0.29333,0 0.69334,0.0267 0.4,0.0267 0.64,0.08 l -0.29334,3.73334 q -0.18666,-0.0533 -0.56,-0.08 -0.34667,-0.0533 -0.61333,-0.0533 -1.01334,0 -1.94667,0.37334 -0.93334,0.34667 -1.52,1.14667 -0.56,0.8 -0.56,2.18667 v 7.41334 h -3.97334 v -14.56002 h 3.01333 l 0.58667,2.45334 h 0.18667 q 0.64,-1.12 1.76,-1.92001 1.12,-0.8 2.58667,-0.8 z"
         style="-inkscape-font-specification:'sans-serif Bold';fill:#ffffff"
         id="path245" />
      <path
         d="m 747.16409,339.23398 q 3.01334,0 4.77334,1.73334 1.76001,1.70667 1.76001,4.88001 v 1.92 h -9.38668 q 0.0533,1.68 0.98666,2.64 0.96001,0.96 2.64001,0.96 1.41333,0 2.56,-0.26666 1.14667,-0.29334 2.37334,-0.88001 v 3.06667 q -1.06667,0.53334 -2.26667,0.77334 -1.17334,0.26667 -2.85334,0.26667 -2.18667,0 -3.86667,-0.80001 -1.68,-0.82666 -2.64,-2.48 -0.96,-1.65333 -0.96,-4.16 0,-2.56001 0.85333,-4.24001 0.88,-1.70667 2.42667,-2.56 1.54667,-0.85334 3.6,-0.85334 z m 0.0267,2.82667 q -1.14667,0 -1.92,0.74667 -0.74667,0.74667 -0.88,2.32 h 5.57334 q -0.0267,-1.33333 -0.69334,-2.18667 -0.66666,-0.88 -2.08,-0.88 z"
         style="-inkscape-font-specification:'sans-serif Bold';fill:#ffffff"
         id="path247" />
      <path
         d="m 763.05744,351.154 q 0.66666,0 1.28,-0.13333 0.61333,-0.13334 1.22667,-0.32001 v 2.96001 q -0.64,0.26667 -1.60001,0.45333 -0.93333,0.21334 -2.05333,0.21334 -1.30667,0 -2.34667,-0.42667 -1.01334,-0.42667 -1.62667,-1.46667 -0.58667,-1.06667 -0.58667,-2.93334 v -7.01334 h -1.89333 v -1.68 l 2.18667,-1.33334 1.14666,-3.06667 h 2.53334 v 3.09334 h 4.08001 v 2.98667 h -4.08001 v 7.01334 q 0,0.82667 0.48,1.25334 0.48,0.4 1.25334,0.4 z"
         style="-inkscape-font-specification:'sans-serif Bold';fill:#ffffff"
         id="path249" />
      <path
         d="m 781.72412,346.75399 q 0,3.62667 -1.92,5.60001 -1.89333,1.97334 -5.17334,1.97334 -2.02667,0 -3.62667,-0.88001 -1.57333,-0.88 -2.48,-2.56 -0.90667,-1.70667 -0.90667,-4.13334 0,-3.62667 1.89334,-5.57334 1.89333,-1.94667 5.2,-1.94667 2.05334,0 3.62667,0.88 1.57334,0.88001 2.48001,2.56001 0.90666,1.65333 0.90666,4.08 z m -10.05334,0 q 0,2.16001 0.69333,3.28001 0.72,1.09333 2.32001,1.09333 1.57333,0 2.26667,-1.09333 0.72,-1.12 0.72,-3.28001 0,-2.16 -0.72,-3.22667 -0.69334,-1.09333 -2.29334,-1.09333 -1.57334,0 -2.29334,1.09333 -0.69333,1.06667 -0.69333,3.22667 z m 8.13334,-12.85335 q -0.37333,0.37334 -0.98667,0.90667 -0.61333,0.53334 -1.33333,1.12 -0.69334,0.58667 -1.38667,1.12 -0.66667,0.50667 -1.17333,0.85334 h -2.64001 v -0.34667 q 0.42667,-0.50667 0.98667,-1.17333 0.58667,-0.69334 1.14667,-1.41334 0.56,-0.74667 0.93333,-1.33333 h 4.45334 z"
         style="-inkscape-font-specification:'sans-serif Bold';fill:#ffffff"
         id="path251" />
      <path
         d="m 793.13746,339.23398 q 0.29333,0 0.69333,0.0267 0.4,0.0267 0.64,0.08 l -0.29333,3.73334 q -0.18667,-0.0533 -0.56,-0.08 -0.34667,-0.0533 -0.61334,-0.0533 -1.01333,0 -1.94667,0.37334 -0.93333,0.34667 -1.52,1.14667 -0.56,0.8 -0.56,2.18667 v 7.41334 h -3.97334 v -14.56002 h 3.01334 l 0.58667,2.45334 h 0.18666 q 0.64001,-1.12 1.76001,-1.92001 1.12,-0.8 2.58667,-0.8 z"
         style="-inkscape-font-specification:'sans-serif Bold';fill:#ffffff"
         id="path253" />
      <path
         d="m 799.11081,333.79398 q 0.88,0 1.52,0.42666 0.64001,0.4 0.64001,1.52001 0,1.09333 -0.64001,1.52 -0.64,0.42666 -1.52,0.42666 -0.90667,0 -1.54667,-0.42666 -0.61333,-0.42667 -0.61333,-1.52 0,-1.12001 0.61333,-1.52001 0.64,-0.42666 1.54667,-0.42666 z m 1.97334,5.70667 v 14.56002 h -3.97334 v -14.56002 z"
         style="-inkscape-font-specification:'sans-serif Bold';fill:#ffffff"
         id="path255" />
      <path
         d="m 818.47085,346.75399 q 0,3.62667 -1.92,5.60001 -1.89334,1.97334 -5.17334,1.97334 -2.02667,0 -3.62668,-0.88001 -1.57333,-0.88 -2.48,-2.56 -0.90667,-1.70667 -0.90667,-4.13334 0,-3.62667 1.89334,-5.57334 1.89333,-1.94667 5.20001,-1.94667 2.05333,0 3.62667,0.88 1.57333,0.88001 2.48,2.56001 0.90667,1.65333 0.90667,4.08 z m -10.05335,0 q 0,2.16001 0.69334,3.28001 0.72,1.09333 2.32,1.09333 1.57333,0 2.26667,-1.09333 0.72,-1.12 0.72,-3.28001 0,-2.16 -0.72,-3.22667 -0.69334,-1.09333 -2.29334,-1.09333 -1.57333,0 -2.29333,1.09333 -0.69334,1.06667 -0.69334,3.22667 z"
         style="-inkscape-font-specification:'sans-serif Bold';fill:#ffffff"
         id="path257" />
    </g>
    <g
       id="path31446">
      <path
         style="color:#000000;fill:#000000;-inkscape-stroke:none"
         d="m 545.97461,245.95898 v 4.91211 h 103.37305 v -4.91211 z"
         id="path239" />
      <g
         id="g229">
        <g
           id="path231">
          <path
             style="color:#000000;fill:#000000;fill-rule:evenodd;stroke-width:1.84246;stroke-linejoin:round;-inkscape-stroke:none"
             d="m 623.64647,236.52379 32.20881,11.84399 -32.20881,11.844 c 5.14562,-6.99269 5.11597,-16.5599 0,-23.68799 z"
             id="path235" />
          <path
             style="color:#000000;fill:#000000;fill-rule:evenodd;stroke-linejoin:round;-inkscape-stroke:none"
             d="m 623.96484,235.6582 a 0.92132214,0.92132214 0 0 0 -1.0664,1.40235 c 4.88926,6.81222 4.91273,15.93722 0.006,22.60547 a 0.92132214,0.92132214 0 0 0 1.06054,1.41015 l 32.20899,-11.84375 a 0.92132214,0.92132214 0 0 0 0,-1.72851 z m 1.82422,2.63477 27.39844,10.07422 -27.36133,10.0625 c 3.42105,-6.23981 3.38758,-13.82409 -0.0371,-20.13672 z"
             id="path237" />
        </g>
      </g>
    </g>
    <g
       id="path31448">
      <path
         style="color:#000000;fill:#000000;-inkscape-stroke:none"
         d="m 822.54883,311.60742 v 4.91406 h 103.37304 v -4.91406 z"
         id="path225" />
      <g
         id="g215">
        <g
           id="path217">
          <path
             style="color:#000000;fill:#000000;fill-rule:evenodd;stroke-width:1.84246;stroke-linejoin:round;-inkscape-stroke:none"
             d="m 900.21942,302.17278 32.20881,11.84399 -32.20881,11.844 c 5.14562,-6.99269 5.11597,-16.5599 0,-23.68799 z"
             id="path221" />
          <path
             style="color:#000000;fill:#000000;fill-rule:evenodd;stroke-linejoin:round;-inkscape-stroke:none"
             d="m 900.53711,301.30859 a 0.92132214,0.92132214 0 0 0 -1.06641,1.40039 c 4.88927,6.81223 4.91274,15.93722 0.006,22.60547 a 0.92132214,0.92132214 0 0 0 1.06055,1.41016 l 32.20898,-11.84375 a 0.92132214,0.92132214 0 0 0 0,-1.72852 z m 1.82617,2.63282 27.39649,10.07421 -27.36133,10.0625 c 3.42105,-6.2398 3.38953,-13.82409 -0.0352,-20.13671 z"
             id="path223" />
        </g>
      </g>
    </g>
    <g
       id="path31450">
      <path
         style="color:#000000;fill:#000000;-inkscape-stroke:none"
         d="m 823.33789,343.75781 v 4.91406 h 103.37305 v -4.91406 z"
         id="path211" />
      <g
         id="g201">
        <g
           id="path203">
          <path
             style="color:#000000;fill:#000000;fill-rule:evenodd;stroke-width:1.84246;stroke-linejoin:round;-inkscape-stroke:none"
             d="m 901.00967,334.32317 32.20881,11.84399 -32.20881,11.844 c 5.14562,-6.99269 5.11597,-16.5599 0,-23.68799 z"
             id="path207" />
          <path
             style="color:#000000;fill:#000000;fill-rule:evenodd;stroke-linejoin:round;-inkscape-stroke:none"
             d="m 901.32812,333.45898 a 0.92132214,0.92132214 0 0 0 -1.0664,1.40039 c 4.88927,6.81223 4.91274,15.93723 0.006,22.60547 a 0.92132214,0.92132214 0 0 0 1.06054,1.41016 l 32.20899,-11.84375 a 0.92132214,0.92132214 0 0 0 0,-1.72852 z m 1.82422,2.63282 27.39844,10.07617 -27.36133,10.06055 c 3.42105,-6.23981 3.38758,-13.8241 -0.0371,-20.13672 z"
             id="path209" />
        </g>
      </g>
    </g>
    <g
       aria-label="..."
       id="text33718"
       style="font-weight:bold;font-size:40px;-inkscape-font-specification:'sans-serif Bold'">
      <path
         d="m 939.65439,314.23549 q 0,-1.84 1,-2.56 1,-0.76 2.44,-0.76 1.4,0 2.4,0.76 1,0.72 1,2.56 0,1.76 -1,2.56 -1,0.76 -2.4,0.76 -1.44,0 -2.44,-0.76 -1,-0.8 -1,-2.56 z"
         id="path186" />
      <path
         d="m 951.05438,314.23549 q 0,-1.84 1,-2.56 1,-0.76 2.44,-0.76 1.4,0 2.4,0.76 1,0.72 1,2.56 0,1.76 -1,2.56 -1,0.76 -2.4,0.76 -1.44,0 -2.44,-0.76 -1,-0.8 -1,-2.56 z"
         id="path188" />
      <path
         d="m 962.45438,314.23549 q 0,-1.84 1,-2.56 1,-0.76 2.44,-0.76 1.4,0 2.4,0.76 1,0.72 1,2.56 0,1.76 -1,2.56 -1,0.76 -2.4,0.76 -1.44,0 -2.44,-0.76 -1,-0.8 -1,-2.56 z"
         id="path190" />
    </g>
    <g
       aria-label="..."
       id="text34000"
       style="font-weight:bold;font-size:40px;-inkscape-font-specification:'sans-serif Bold'">
      <path
         d="m 939.65439,345.92864 q 0,-1.84 1,-2.56 1,-0.76 2.44,-0.76 1.4,0 2.4,0.76 1,0.72 1,2.56 0,1.76 -1,2.56 -1,0.76 -2.4,0.76 -1.44,0 -2.44,-0.76 -1,-0.8 -1,-2.56 z"
         id="path173" />
      <path
         d="m 951.05438,345.92864 q 0,-1.84 1,-2.56 1,-0.76 2.44,-0.76 1.4,0 2.4,0.76 1,0.72 1,2.56 0,1.76 -1,2.56 -1,0.76 -2.4,0.76 -1.44,0 -2.44,-0.76 -1,-0.8 -1,-2.56 z"
         id="path175" />
      <path
         d="m 962.45438,345.92864 q 0,-1.84 1,-2.56 1,-0.76 2.44,-0.76 1.4,0 2.4,0.76 1,0.72 1,2.56 0,1.76 -1,2.56 -1,0.76 -2.4,0.76 -1.44,0 -2.44,-0.76 -1,-0.8 -1,-2.56 z"
         id="path177" />
    </g>
    <rect
       style="fill:#0000ff;stroke-width:4.913;stroke-dasharray:4.913, 4.913"
       id="rect34002"
       width="211.09549"
       height="74.27504"
       x="97.080978"
       y="277.21353"
       ry="29.032969" />
    <g
       aria-label="commit filho"
       id="text34006"
       style="font-size:26.6667px">
      <path
         d="m 125.70863,324.68439 q -3.25334,0 -5.04001,-1.78667 -1.76,-1.81333 -1.76,-5.68 0,-2.66667 0.90667,-4.34668 0.90667,-1.68 2.50667,-2.48 1.62667,-0.8 3.73334,-0.8 1.49333,0 2.58667,0.29333 1.12,0.29334 1.94666,0.69334 l -1.17333,3.06667 q -0.93333,-0.37334 -1.76,-0.61334 -0.8,-0.24 -1.6,-0.24 -3.09334,0 -3.09334,4.40001 0,2.18667 0.8,3.22667 0.82667,1.04 2.29334,1.04 1.25333,0 2.21333,-0.32 0.96,-0.34667 1.86667,-0.93333 v 3.38667 q -0.90667,0.58666 -1.92,0.82666 -0.98667,0.26667 -2.50667,0.26667 z"
         style="-inkscape-font-specification:'sans-serif Bold';fill:#ffffff"
         id="path130" />
      <path
         d="m 146.72199,317.11105 q 0,3.62667 -1.92001,5.60001 -1.89333,1.97333 -5.17334,1.97333 -2.02667,0 -3.62667,-0.88 -1.57333,-0.88 -2.48,-2.56 -0.90667,-1.70667 -0.90667,-4.13334 0,-3.62667 1.89334,-5.57334 1.89333,-1.94667 5.2,-1.94667 2.05334,0 3.62668,0.88 1.57333,0.88 2.48,2.56 0.90667,1.65334 0.90667,4.08001 z m -10.05335,0 q 0,2.16 0.69333,3.28 0.72001,1.09334 2.32001,1.09334 1.57333,0 2.26667,-1.09334 0.72,-1.12 0.72,-3.28 0,-2.16 -0.72,-3.22667 -0.69334,-1.09334 -2.29334,-1.09334 -1.57333,0 -2.29334,1.09334 -0.69333,1.06667 -0.69333,3.22667 z"
         style="-inkscape-font-specification:'sans-serif Bold';fill:#ffffff"
         id="path132" />
      <path
         d="m 167.09533,309.59104 q 2.48,0 3.73334,1.28 1.28,1.25334 1.28,4.05334 v 9.49334 h -3.97334 v -8.50667 q 0,-3.14667 -2.18667,-3.14667 -1.57333,0 -2.24,1.12 -0.66667,1.12 -0.66667,3.22667 v 7.30667 h -3.97334 v -8.50667 q 0,-3.14667 -2.18666,-3.14667 -1.65334,0 -2.29334,1.25333 -0.61333,1.22667 -0.61333,3.54667 v 6.85334 h -3.97334 v -14.56001 h 3.04 l 0.53333,1.86667 h 0.21334 q 0.66667,-1.12001 1.81333,-1.62667 1.17334,-0.50667 2.42667,-0.50667 1.60001,0 2.72001,0.53333 1.12,0.50667 1.70667,1.60001 h 0.34666 q 0.66667,-1.12001 1.84001,-1.62667 1.2,-0.50667 2.45333,-0.50667 z"
         style="-inkscape-font-specification:'sans-serif Bold';fill:#ffffff"
         id="path134" />
      <path
         d="m 193.28204,309.59104 q 2.48,0 3.73334,1.28 1.28,1.25334 1.28,4.05334 v 9.49334 h -3.97334 v -8.50667 q 0,-3.14667 -2.18667,-3.14667 -1.57334,0 -2.24,1.12 -0.66667,1.12 -0.66667,3.22667 v 7.30667 h -3.97334 v -8.50667 q 0,-3.14667 -2.18667,-3.14667 -1.65333,0 -2.29333,1.25333 -0.61334,1.22667 -0.61334,3.54667 v 6.85334 h -3.97334 v -14.56001 h 3.04001 l 0.53333,1.86667 h 0.21333 q 0.66667,-1.12001 1.81334,-1.62667 1.17334,-0.50667 2.42667,-0.50667 1.6,0 2.72,0.53333 1.12001,0.50667 1.70667,1.60001 h 0.34667 q 0.66667,-1.12001 1.84,-1.62667 1.2,-0.50667 2.45334,-0.50667 z"
         style="-inkscape-font-specification:'sans-serif Bold';fill:#ffffff"
         id="path136" />
      <path
         d="m 204.3754,304.15103 q 0.88,0 1.52,0.42667 0.64,0.4 0.64,1.52 0,1.09334 -0.64,1.52 -0.64,0.42667 -1.52,0.42667 -0.90667,0 -1.54667,-0.42667 -0.61333,-0.42666 -0.61333,-1.52 0,-1.12 0.61333,-1.52 0.64,-0.42667 1.54667,-0.42667 z m 1.97334,5.70668 v 14.56001 h -3.97334 v -14.56001 z"
         style="-inkscape-font-specification:'sans-serif Bold';fill:#ffffff"
         id="path138" />
      <path
         d="m 216.64209,321.51105 q 0.66666,0 1.28,-0.13333 0.61333,-0.13333 1.22667,-0.32 v 2.96 q -0.64001,0.26667 -1.60001,0.45334 -0.93333,0.21333 -2.05333,0.21333 -1.30667,0 -2.34667,-0.42667 -1.01334,-0.42666 -1.62667,-1.46666 -0.58667,-1.06667 -0.58667,-2.93334 v -7.01334 h -1.89333 v -1.68001 l 2.18666,-1.33333 1.14667,-3.06667 h 2.53334 v 3.09334 h 4.08 v 2.98667 h -4.08 v 7.01334 q 0,0.82667 0.48,1.25333 0.48,0.4 1.25334,0.4 z"
         style="-inkscape-font-specification:'sans-serif Bold';fill:#ffffff"
         id="path140" />
      <path
         d="m 237.06879,312.84438 h -3.44001 v 11.57334 h -3.97334 v -11.57334 h -2.18667 v -1.92001 l 2.18667,-1.06666 v -1.06667 q 0,-1.86667 0.61334,-2.88001 0.64,-1.04 1.78667,-1.46666 1.17333,-0.42667 2.74667,-0.42667 1.17333,0 2.10667,0.18667 0.96,0.18666 1.54666,0.42666 l -1.01333,2.90667 q -0.45333,-0.13333 -0.98667,-0.24 -0.53333,-0.13333 -1.22667,-0.13333 -0.82666,0 -1.22666,0.50667 -0.37334,0.50666 -0.37334,1.28 v 0.90667 h 3.44001 z m 4.26667,-8.69335 q 0.88,0 1.52,0.42667 0.64,0.4 0.64,1.52 0,1.09334 -0.64,1.52 -0.64,0.42667 -1.52,0.42667 -0.90667,0 -1.54667,-0.42667 -0.61333,-0.42666 -0.61333,-1.52 0,-1.12 0.61333,-1.52 0.64,-0.42667 1.54667,-0.42667 z m 1.97333,5.70668 v 14.56001 h -3.97333 v -14.56001 z"
         style="-inkscape-font-specification:'sans-serif Bold';fill:#ffffff"
         id="path142" />
      <path
         d="m 251.44212,324.41772 h -3.97334 v -20.26669 h 3.97334 z"
         style="-inkscape-font-specification:'sans-serif Bold';fill:#ffffff"
         id="path144" />
      <path
         d="m 259.57547,308.28437 q 0,1.06667 -0.08,2.05334 -0.0533,0.98666 -0.10667,1.38667 h 0.21333 q 0.69334,-1.12001 1.78667,-1.62667 1.09334,-0.50667 2.42667,-0.50667 2.37334,0 3.78667,1.28 1.44,1.25334 1.44,4.05334 v 9.49334 h -3.97333 v -8.50667 q 0,-3.14667 -2.34667,-3.14667 -1.78667,0 -2.48001,1.25333 -0.66666,1.22667 -0.66666,3.54667 v 6.85334 h -3.97334 v -20.26669 h 3.97334 z"
         style="-inkscape-font-specification:'sans-serif Bold';fill:#ffffff"
         id="path146" />
      <path
         d="m 286.34883,317.11105 q 0,3.62667 -1.92,5.60001 -1.89334,1.97333 -5.17334,1.97333 -2.02667,0 -3.62667,-0.88 -1.57334,-0.88 -2.48001,-2.56 -0.90666,-1.70667 -0.90666,-4.13334 0,-3.62667 1.89333,-5.57334 1.89334,-1.94667 5.20001,-1.94667 2.05333,0 3.62667,0.88 1.57334,0.88 2.48,2.56 0.90667,1.65334 0.90667,4.08001 z m -10.05335,0 q 0,2.16 0.69334,3.28 0.72,1.09334 2.32,1.09334 1.57334,0 2.26667,-1.09334 0.72,-1.12 0.72,-3.28 0,-2.16 -0.72,-3.22667 -0.69333,-1.09334 -2.29333,-1.09334 -1.57334,0 -2.29334,1.09334 -0.69334,1.06667 -0.69334,3.22667 z"
         style="-inkscape-font-specification:'sans-serif Bold';fill:#ffffff"
         id="path148" />
    </g>
    <g
       id="path34008">
      <path
         style="color:#000000;fill:#000000;-inkscape-stroke:none"
         d="m 200.21875,198.91602 v 78.34765 h 4.91406 v -78.34765 z"
         id="path128" />
      <g
         id="g118">
        <g
           id="path120">
          <path
             style="color:#000000;fill:#000000;fill-rule:evenodd;stroke-width:1.84246;stroke-linejoin:round;-inkscape-stroke:none"
             d="m 190.78474,224.61845 11.84399,-32.20881 11.844,32.20881 c -6.99269,-5.14562 -16.5599,-5.11597 -23.68799,0 z"
             id="path124" />
          <path
             style="color:#000000;fill:#000000;fill-rule:evenodd;stroke-linejoin:round;-inkscape-stroke:none"
             d="m 202.62891,191.48828 a 0.92132214,0.92132214 0 0 0 -0.86524,0.60352 l -11.84375,32.20898 a 0.92132214,0.92132214 0 0 0 1.40235,1.06641 c 6.81222,-4.88927 15.93526,-4.91274 22.60351,-0.006 a 0.92132214,0.92132214 0 0 0 1.41211,-1.06055 L 203.49414,192.0918 a 0.92132214,0.92132214 0 0 0 -0.86523,-0.60352 z m 0,3.59375 10.06054,27.35742 c -6.23985,-3.42095 -13.82412,-3.38964 -20.13672,0.0352 z"
             id="path126" />
        </g>
      </g>
    </g>
    <g
       id="path37309">
      <path
         style="color:#000000;fill:#000000;-inkscape-stroke:none"
         d="m 309.81445,349.6582 -3.27539,3.66016 58.38281,52.24609 3.2754,-3.66015 z"
         id="path114" />
      <g
         id="g104">
        <g
           id="path106">
          <path
             style="color:#000000;fill:#000000;fill-rule:evenodd;stroke-width:1.84246;stroke-linejoin:round;-inkscape-stroke:none"
             d="m 319.39948,377.48916 -16.10339,-30.30459 31.89983,12.65259 c -8.49756,1.77949 -14.8554,8.92863 -15.79644,17.652 z"
             id="path110" />
          <path
             style="color:#000000;fill:#000000;fill-rule:evenodd;stroke-linejoin:round;-inkscape-stroke:none"
             d="m 303.63477,346.32812 a 0.92132214,0.92132214 0 0 0 -1.15235,1.28907 l 16.10352,30.30468 a 0.92132214,0.92132214 0 0 0 1.72851,-0.33398 c 0.89934,-8.33681 6.96702,-15.15268 15.07032,-16.84961 a 0.92132214,0.92132214 0 0 0 0.15039,-1.75781 z m 1.65039,2.63672 27.0957,10.74805 c -6.70883,2.36916 -11.74114,8.0425 -13.39844,15.0293 z"
             id="path112" />
        </g>
      </g>
    </g>
    <g
       aria-label="branch"
       id="text37313"
       style="font-weight:bold;font-size:40px;-inkscape-font-specification:'sans-serif Bold'">
      <path
         d="m 379.13121,401.77723 q 0,1.24 -0.08,2.44 -0.08,1.2 -0.16,1.88 h 0.24 q 0.88,-1.36 2.36,-2.28 1.48,-0.96 3.84,-0.96 3.68,0 5.96,2.88 2.28,2.84 2.28,8.4 0,5.6 -2.32,8.48 -2.32,2.88 -6.08,2.88 -2.4,0 -3.8,-0.84 -1.36,-0.88 -2.24,-1.96 h -0.4 l -1,2.4 h -4.56 v -30.4 h 5.96 z m 4.28,5.84 q -2.32,0 -3.28,1.44 -0.92,1.44 -1,4.4 v 0.64 q 0,3.16 0.92,4.88 0.96,1.68 3.44,1.68 1.84,0 2.92,-1.68 1.08,-1.72 1.08,-4.92 0,-3.2 -1.12,-4.8 -1.08,-1.64 -2.96,-1.64 z"
         id="path77" />
      <path
         d="m 410.69119,402.85723 q 0.44,0 1.04,0.04 0.6,0.04 0.96,0.12 l -0.44,5.6 q -0.28,-0.08 -0.84,-0.12 -0.52,-0.08 -0.92,-0.08 -1.52,0 -2.92,0.56 -1.4,0.52 -2.28,1.72 -0.84,1.2 -0.84,3.28 v 11.12 h -5.96 v -21.84 h 4.52 l 0.88,3.68 h 0.28 q 0.96,-1.68 2.64,-2.88 1.68,-1.2 3.88,-1.2 z"
         id="path79" />
      <path
         d="m 424.81119,402.81723 q 4.4,0 6.72,1.92 2.36,1.88 2.36,5.8 v 14.56 h -4.16 l -1.16,-2.96 h -0.16 q -1.4,1.76 -2.96,2.56 -1.56,0.8 -4.28,0.8 -2.92,0 -4.84,-1.68 -1.92,-1.72 -1.92,-5.24 0,-3.48 2.44,-5.12 2.44,-1.68 7.32,-1.84 l 3.8,-0.12 v -0.96 q 0,-1.72 -0.92,-2.52 -0.88,-0.8 -2.48,-0.8 -1.6,0 -3.12,0.48 -1.52,0.44 -3.04,1.12 l -1.96,-4.04 q 1.76,-0.92 3.88,-1.44 2.16,-0.52 4.48,-0.52 z m 0.84,12.24 q -2.88,0.08 -4,1.04 -1.12,0.96 -1.12,2.52 0,1.36 0.8,1.96 0.8,0.56 2.08,0.56 1.92,0 3.24,-1.12 1.32,-1.16 1.32,-3.24 v -1.8 z"
         id="path81" />
      <path
         d="m 452.41119,402.85723 q 3.52,0 5.64,1.92 2.12,1.88 2.12,6.08 v 14.24 h -5.96 v -12.76 q 0,-2.36 -0.84,-3.52 -0.84,-1.2 -2.68,-1.2 -2.72,0 -3.72,1.88 -1,1.84 -1,5.32 v 10.28 h -5.96 v -21.84 h 4.56 l 0.8,2.8 h 0.32 q 1.04,-1.68 2.84,-2.44 1.84,-0.76 3.88,-0.76 z"
         id="path83" />
      <path
         d="m 475.17117,425.49723 q -4.88,0 -7.56,-2.68 -2.64,-2.72 -2.64,-8.52 0,-4 1.36,-6.52 1.36,-2.52 3.76,-3.72 2.44,-1.2 5.6,-1.2 2.24,0 3.88,0.44 1.68,0.44 2.92,1.04 l -1.76,4.6 q -1.4,-0.56 -2.64,-0.92 -1.2,-0.36 -2.4,-0.36 -4.64,0 -4.64,6.6 0,3.28 1.2,4.84 1.24,1.56 3.44,1.56 1.88,0 3.32,-0.48 1.44,-0.52 2.8,-1.4 v 5.08 q -1.36,0.88 -2.88,1.24 -1.48,0.4 -3.76,0.4 z"
         id="path85" />
      <path
         d="m 492.81117,400.89723 q 0,1.6 -0.12,3.08 -0.08,1.48 -0.16,2.08 h 0.32 q 1.04,-1.68 2.68,-2.44 1.64,-0.76 3.64,-0.76 3.56,0 5.68,1.92 2.16,1.88 2.16,6.08 v 14.24 h -5.96 v -12.76 q 0,-4.72 -3.52,-4.72 -2.68,0 -3.72,1.88 -1,1.84 -1,5.32 v 10.28 h -5.96 v -30.4 h 5.96 z"
         id="path87" />
    </g>
    <g
       id="path38209">
      <path
         style="color:#000000;fill:#000000;-inkscape-stroke:none"
         d="m 200.21875,358.91602 v 78.34765 h 4.91406 v -78.34765 z"
         id="path75" />
      <g
         id="g65">
        <g
           id="path67">
          <path
             style="color:#000000;fill:#000000;fill-rule:evenodd;stroke-width:1.84246;stroke-linejoin:round;-inkscape-stroke:none"
             d="m 190.78474,384.61845 11.84399,-32.20881 11.844,32.20881 c -6.99269,-5.14562 -16.5599,-5.11597 -23.68799,0 z"
             id="path71" />
          <path
             style="color:#000000;fill:#000000;fill-rule:evenodd;stroke-linejoin:round;-inkscape-stroke:none"
             d="m 202.62891,351.48828 a 0.92132214,0.92132214 0 0 0 -0.86524,0.60352 l -11.84375,32.20898 a 0.92132214,0.92132214 0 0 0 1.40235,1.06641 c 6.81222,-4.88927 15.93526,-4.91274 22.60351,-0.006 a 0.92132214,0.92132214 0 0 0 1.41211,-1.06055 L 203.49414,352.0918 a 0.92132214,0.92132214 0 0 0 -0.86523,-0.60352 z m 0,3.59375 10.06054,27.35742 c -6.23985,-3.42095 -13.82412,-3.38964 -20.13672,0.0352 z"
             id="path73" />
        </g>
      </g>
    </g>
    <g
       aria-label="..."
       id="text38213"
       style="font-weight:bold;font-size:40px;-inkscape-font-specification:'sans-serif Bold'">
      <path
         d="m 187.80873,448.58278 q 0,-1.84 1,-2.56 1,-0.76 2.44,-0.76 1.4,0 2.4,0.76 1,0.72 1,2.56 0,1.76 -1,2.56 -1,0.76 -2.4,0.76 -1.44,0 -2.44,-0.76 -1,-0.8 -1,-2.56 z"
         id="path50" />
      <path
         d="m 199.20873,448.58278 q 0,-1.84 1,-2.56 1,-0.76 2.44,-0.76 1.4,0 2.4,0.76 1,0.72 1,2.56 0,1.76 -1,2.56 -1,0.76 -2.4,0.76 -1.44,0 -2.44,-0.76 -1,-0.8 -1,-2.56 z"
         id="path52" />
      <path
         d="m 210.60872,448.58278 q 0,-1.84 1,-2.56 1,-0.76 2.44,-0.76 1.4,0 2.4,0.76 1,0.72 1,2.56 0,1.76 -1,2.56 -1,0.76 -2.4,0.76 -1.44,0 -2.44,-0.76 -1,-0.8 -1,-2.56 z"
         id="path54" />
    </g>
  </g>
</svg>
