<svg version="1.1" xmlns="http://www.w3.org/2000/svg" viewBox="0 0 891.6137322458123 784.1944322866905" width="1783.2274644916247" height="1568.388864573381">
  <!-- svg-source:excalidraw -->
  
  <defs>
    <style class="style-fonts">
      @font-face {
        font-family: "Virgil";
        src: url("https://excalidraw.com/Virgil.woff2");
      }
      @font-face {
        font-family: "Cascadia";
        src: url("https://excalidraw.com/Cascadia.woff2");
      }
      @font-face {
        font-family: "Assistant";
        src: url("https://excalidraw.com/Assistant-Regular.woff2");
      }
    </style>
    
  </defs>
  <g stroke-linecap="round" transform="translate(10 166.9946806080912) rotate(0 44.5 44.5)"><path d="M22.25 0 C37.11 -2.78, 52.27 3.02, 66.75 0 C78.9 -1.61, 89.05 7.51, 89 22.25 C86.18 34.51, 90.28 51.42, 89 66.75 C88.27 84.5, 78.61 85.58, 66.75 89 C57.4 89.85, 46.59 89.84, 22.25 89 C8.48 91.52, 2.92 78.54, 0 66.75 C-3.13 57.23, -1.24 43.56, 0 22.25 C-0.56 7.52, 7.4 2.82, 22.25 0" stroke="none" stroke-width="0" fill="#a5d8ff"></path><path d="M22.25 0 C40.86 -1.12, 57.87 0.98, 66.75 0 M22.25 0 C36.11 -0.61, 50.32 -0.27, 66.75 0 M66.75 0 C83.03 -1.26, 87.13 9.4, 89 22.25 M66.75 0 C81.43 -1.82, 89.09 8.49, 89 22.25 M89 22.25 C87.82 38.66, 90.69 56.77, 89 66.75 M89 22.25 C89.34 36.46, 88.46 50.34, 89 66.75 M89 66.75 C90.36 79.87, 83.54 89.12, 66.75 89 M89 66.75 C90.29 82.66, 83.66 89.08, 66.75 89 M66.75 89 C51.57 89.41, 36.91 86.83, 22.25 89 M66.75 89 C48.75 87.87, 32.11 89.43, 22.25 89 M22.25 89 C9.03 89.08, 1.97 81.96, 0 66.75 M22.25 89 C8.6 90.73, 0.47 80.53, 0 66.75 M0 66.75 C1.39 50.62, -0.5 35.43, 0 22.25 M0 66.75 C0.06 54.94, -0.48 43.02, 0 22.25 M0 22.25 C-1.06 8.91, 6.13 -1.43, 22.25 0 M0 22.25 C-1.22 7.8, 6.43 -1.75, 22.25 0" stroke="#1e1e1e" stroke-width="2" fill="none"></path></g><g stroke-linecap="round" transform="translate(27 188.9946806080912) rotate(0 26.5 26.5)"><path d="M17 1.98 C21.92 -0.35, 31.04 -0.32, 36.38 1.49 C41.73 3.31, 46.23 8.08, 49.07 12.88 C51.9 17.68, 54.43 24.65, 53.38 30.28 C52.33 35.91, 47.39 42.86, 42.77 46.66 C38.14 50.46, 31.18 53.11, 25.63 53.08 C20.09 53.04, 13.7 50.25, 9.49 46.44 C5.28 42.63, 1.41 35.73, 0.38 30.22 C-0.66 24.7, 0.26 18.09, 3.3 13.36 C6.33 8.63, 15.93 3.94, 18.59 1.85 C21.25 -0.25, 19.17 0.57, 19.26 0.77 M30.4 0.21 C35.66 0.27, 41.4 3.9, 45.29 8.06 C49.17 12.21, 53.35 19.41, 53.71 25.16 C54.08 30.91, 51.1 37.91, 47.47 42.53 C43.84 47.15, 37.63 51.62, 31.93 52.9 C26.23 54.19, 18.07 53.21, 13.29 50.25 C8.5 47.28, 5.36 40.35, 3.24 35.09 C1.12 29.84, -0.81 23.67, 0.56 18.71 C1.93 13.76, 6.72 8.64, 11.46 5.37 C16.2 2.11, 25.82 -0.29, 28.98 -0.86 C32.13 -1.44, 30.25 1.48, 30.39 1.92" stroke="none" stroke-width="0" fill="#b2f2bb"></path><path d="M17.09 2.14 C22.21 -0.11, 30.55 -0.96, 35.81 0.85 C41.07 2.65, 45.82 8.03, 48.64 12.98 C51.46 17.94, 53.52 24.95, 52.73 30.58 C51.93 36.21, 48.25 43.03, 43.89 46.76 C39.52 50.5, 32.2 52.97, 26.54 52.97 C20.89 52.98, 14.43 50.5, 9.95 46.79 C5.48 43.08, 0.68 36.31, -0.31 30.72 C-1.3 25.12, 0.98 17.94, 4 13.22 C7.02 8.5, 15.33 4.22, 17.82 2.38 C20.31 0.53, 18.67 1.9, 18.95 2.13 M38.01 1.67 C43.29 3.75, 49.13 9.54, 51.55 14.87 C53.96 20.19, 54.06 28.11, 52.48 33.62 C50.91 39.12, 46.91 44.56, 42.1 47.89 C37.28 51.23, 29.57 54, 23.59 53.61 C17.61 53.23, 10.07 49.91, 6.22 45.61 C2.38 41.3, 0.53 33.69, 0.54 27.78 C0.54 21.87, 3.23 14.87, 6.25 10.13 C9.28 5.39, 13.17 0.58, 18.7 -0.66 C24.23 -1.89, 36.1 1.84, 39.43 2.72 C42.75 3.6, 39.25 4.12, 38.67 4.62" stroke="#1e1e1e" stroke-width="2" fill="none"></path></g><g stroke-linecap="round" transform="translate(141.5 93.49468060809119) rotate(0 44.5 44.5)"><path d="M22.25 0 C38.87 -1.17, 55.91 0.66, 66.75 0 C80.96 -0.88, 91.79 6.16, 89 22.25 C88.42 35.41, 90.27 51.83, 89 66.75 C85.75 82.99, 83.68 89.54, 66.75 89 C55.45 88.67, 46.6 86.66, 22.25 89 C3.84 85.95, 1.2 84.29, 0 66.75 C0.91 55.23, 0.22 41.78, 0 22.25 C3.05 9.4, 6.35 -2.14, 22.25 0" stroke="none" stroke-width="0" fill="#a5d8ff"></path><path d="M22.25 0 C32.82 -1.2, 43.02 1.3, 66.75 0 M22.25 0 C30.64 0.18, 40.63 -0.17, 66.75 0 M66.75 0 C81.57 -1.52, 88.37 7.85, 89 22.25 M66.75 0 C81.25 1.57, 87.16 6.11, 89 22.25 M89 22.25 C88.45 35.74, 88.91 45.37, 89 66.75 M89 22.25 C88.45 32.86, 88.55 43.29, 89 66.75 M89 66.75 C89.62 80.63, 82.09 90.78, 66.75 89 M89 66.75 C87.05 80.42, 82.3 87.38, 66.75 89 M66.75 89 C49.58 90.17, 31.75 87.24, 22.25 89 M66.75 89 C53.12 88.36, 37.61 89.91, 22.25 89 M22.25 89 C7.77 89.21, -1.32 81.57, 0 66.75 M22.25 89 C5.32 88.16, 0.55 81, 0 66.75 M0 66.75 C0.03 57.67, -1.4 46.93, 0 22.25 M0 66.75 C-0.19 58.44, 1.12 48.85, 0 22.25 M0 22.25 C-1.07 6.17, 8.21 1.94, 22.25 0 M0 22.25 C-0.73 7.7, 6.38 2.08, 22.25 0" stroke="#1e1e1e" stroke-width="2" fill="none"></path></g><g stroke-linecap="round" transform="translate(158.5 115.49468060809119) rotate(0 26.5 26.5)"><path d="M14.59 1.92 C19.3 -0.76, 27.04 -0.56, 32.58 1 C38.13 2.56, 44.6 6.74, 47.86 11.29 C51.13 15.83, 52.71 22.77, 52.17 28.26 C51.64 33.76, 48.3 40.24, 44.65 44.26 C40.99 48.28, 35.6 51.54, 30.25 52.38 C24.9 53.23, 17.35 52.52, 12.55 49.34 C7.74 46.16, 3.24 38.84, 1.43 33.31 C-0.39 27.78, -1.17 21.49, 1.65 16.16 C4.47 10.82, 15.26 3.85, 18.37 1.3 C21.47 -1.25, 20.16 0.3, 20.3 0.86 M36.93 3.11 C41.91 4.87, 48.3 9.38, 50.79 14.52 C53.28 19.66, 53.4 28.31, 51.87 33.96 C50.35 39.62, 46.18 45.26, 41.65 48.46 C37.11 51.67, 30.25 53.8, 24.64 53.2 C19.03 52.59, 11.95 48.85, 7.96 44.83 C3.97 40.82, 1.52 34.54, 0.71 29.13 C-0.09 23.71, -0.09 17, 3.11 12.36 C6.32 7.72, 14.43 3.13, 19.96 1.28 C25.49 -0.56, 33.37 1.08, 36.31 1.29 C39.25 1.5, 37.7 1.86, 37.62 2.52" stroke="none" stroke-width="0" fill="#ffec99"></path><path d="M36.66 1.38 C41.92 3.31, 47.64 9.43, 50.2 14.61 C52.77 19.8, 53.46 27.03, 52.04 32.48 C50.62 37.94, 46.12 43.97, 41.67 47.36 C37.21 50.75, 30.73 53.2, 25.3 52.82 C19.88 52.43, 13.37 48.98, 9.09 45.06 C4.81 41.15, 0.53 34.77, -0.38 29.31 C-1.28 23.85, 0.49 16.86, 3.66 12.33 C6.83 7.79, 12.79 3.66, 18.65 2.1 C24.51 0.53, 35.33 2.64, 38.82 2.95 C42.31 3.26, 39.72 3.6, 39.58 3.94 M28.13 -0.69 C33.65 -0.56, 40.89 4.47, 44.79 8.3 C48.68 12.13, 50.75 17.06, 51.5 22.29 C52.26 27.52, 51.92 34.99, 49.31 39.69 C46.7 44.39, 41.53 48.58, 35.85 50.5 C30.16 52.41, 20.51 53.17, 15.22 51.19 C9.94 49.22, 6.73 43.69, 4.12 38.66 C1.51 33.64, -1.29 26.4, -0.44 21.05 C0.4 15.7, 4.36 10.3, 9.19 6.56 C14.01 2.82, 25.63 -0.56, 28.52 -1.42 C31.42 -2.27, 26.66 0.72, 26.54 1.43" stroke="#1e1e1e" stroke-width="2" fill="none"></path></g><g stroke-linecap="round" transform="translate(144.5 240.4946806080912) rotate(0 44.5 44.5)"><path d="M22.25 0 C38.41 2.6, 47.23 1.36, 66.75 0 C83.33 2.52, 85.55 8.63, 89 22.25 C90.22 34.02, 86.23 46.64, 89 66.75 C88.73 79.22, 83.05 86.01, 66.75 89 C53.05 91.45, 43.32 86.63, 22.25 89 C8.76 86.12, -2.12 82.03, 0 66.75 C-0.57 51.29, -3.75 39.54, 0 22.25 C3.07 5.16, 5.92 -0.36, 22.25 0" stroke="none" stroke-width="0" fill="#a5d8ff"></path><path d="M22.25 0 C40.06 0.77, 55.23 -0.42, 66.75 0 M22.25 0 C38.97 0, 55.7 -0.71, 66.75 0 M66.75 0 C82.32 -0.34, 87.2 8.2, 89 22.25 M66.75 0 C82.92 0.35, 87.68 5.95, 89 22.25 M89 22.25 C89.73 36.06, 86.95 51.17, 89 66.75 M89 22.25 C88.6 36.93, 89.42 52.4, 89 66.75 M89 66.75 C88.8 82.43, 83.28 90.1, 66.75 89 M89 66.75 C88.32 80.22, 81.62 87.99, 66.75 89 M66.75 89 C55.07 88.74, 44.63 89.95, 22.25 89 M66.75 89 C51.55 89.97, 35.89 89.04, 22.25 89 M22.25 89 C8.49 90.49, 0.03 83, 0 66.75 M22.25 89 C8.56 87.63, 0.87 82.33, 0 66.75 M0 66.75 C2.03 50.5, 1.31 33.68, 0 22.25 M0 66.75 C-0.38 51.88, 0.9 39.43, 0 22.25 M0 22.25 C1.95 7.8, 8.39 -1.59, 22.25 0 M0 22.25 C0.01 9.67, 6.68 -1.15, 22.25 0" stroke="#1e1e1e" stroke-width="2" fill="none"></path></g><g stroke-linecap="round" transform="translate(161.5 262.4946806080912) rotate(0 26.5 26.5)"><path d="M33.34 1.53 C38.6 2.52, 43.69 6.86, 47.09 11.37 C50.49 15.89, 53.93 23, 53.74 28.6 C53.55 34.2, 50.01 41.08, 45.94 44.98 C41.86 48.88, 35.1 51.57, 29.29 52.01 C23.48 52.45, 15.95 50.61, 11.08 47.65 C6.21 44.68, 1.42 39.39, 0.05 34.22 C-1.32 29.04, 0.34 21.78, 2.87 16.59 C5.39 11.41, 9.39 5.42, 15.17 3.12 C20.96 0.82, 32.79 2.33, 37.56 2.8 C42.33 3.28, 43.93 5.57, 43.79 5.97 M36.54 0.64 C41.8 2.07, 47.13 9.02, 49.99 13.83 C52.84 18.64, 54.65 24.08, 53.68 29.5 C52.71 34.91, 48.58 42.33, 44.17 46.34 C39.76 50.35, 32.91 53.48, 27.21 53.54 C21.51 53.6, 14.66 50.41, 9.98 46.68 C5.31 42.95, 0.26 36.88, -0.84 31.17 C-1.95 25.46, 0.23 17.54, 3.36 12.41 C6.48 7.29, 12.67 2.42, 17.89 0.41 C23.11 -1.6, 31.68 0.25, 34.67 0.34 C37.65 0.44, 35.68 0.44, 35.8 0.98" stroke="none" stroke-width="0" fill="#ffec99"></path><path d="M23.65 0.12 C28.86 -0.85, 36.48 0.96, 41.09 4.13 C45.7 7.29, 49.69 13.81, 51.3 19.11 C52.91 24.41, 52.79 30.68, 50.73 35.94 C48.67 41.2, 43.94 48.05, 38.93 50.69 C33.93 53.32, 26.41 53.05, 20.7 51.75 C15 50.45, 8.18 47.37, 4.71 42.9 C1.24 38.43, -0.57 30.81, -0.11 24.94 C0.36 19.07, 3.18 11.99, 7.51 7.69 C11.84 3.39, 22 0.18, 25.87 -0.84 C29.74 -1.86, 30.57 1.11, 30.72 1.57 M24.28 0.72 C29.82 -0.02, 38.59 2.72, 43.17 5.76 C47.74 8.8, 50.5 13.74, 51.71 18.99 C52.92 24.24, 52.99 31.75, 50.44 37.26 C47.88 42.76, 41.79 49.77, 36.37 52.03 C30.96 54.29, 23.2 52.83, 17.93 50.83 C12.67 48.83, 7.58 44.38, 4.79 40.02 C1.99 35.66, 0.74 29.97, 1.16 24.68 C1.59 19.38, 3.38 12.15, 7.34 8.24 C11.29 4.34, 21.99 2.56, 24.89 1.24 C27.78 -0.07, 24.61 -0.06, 24.7 0.37" stroke="#1e1e1e" stroke-width="2" fill="none"></path></g><g stroke-linecap="round" transform="translate(277.5 165.4946806080912) rotate(0 44.5 44.5)"><path d="M22.25 0 C34.97 -2.97, 50.42 0.27, 66.75 0 C78.1 -1.9, 90.32 5.26, 89 22.25 C87.24 41.49, 90.51 53.01, 89 66.75 C92.02 82.63, 84.63 91.07, 66.75 89 C55.1 88.4, 39.99 89.27, 22.25 89 C10.8 87.16, 0.39 79.59, 0 66.75 C3.56 54.59, 2.38 46.57, 0 22.25 C2.73 4.79, 7.2 -3, 22.25 0" stroke="none" stroke-width="0" fill="#a5d8ff"></path><path d="M22.25 0 C32.62 -1.34, 46.45 0.43, 66.75 0 M22.25 0 C38.76 -0.88, 56.3 0.85, 66.75 0 M66.75 0 C80.33 -0.83, 88.8 8.46, 89 22.25 M66.75 0 C82.61 -0.39, 89.27 6.96, 89 22.25 M89 22.25 C88.23 37.81, 90.65 51.9, 89 66.75 M89 22.25 C88.18 39.77, 88.86 56.8, 89 66.75 M89 66.75 C88.77 79.59, 81.7 90.89, 66.75 89 M89 66.75 C90.97 82.48, 79.82 87.3, 66.75 89 M66.75 89 C55.53 91.02, 46.92 90.19, 22.25 89 M66.75 89 C56.01 90.21, 44.98 90.08, 22.25 89 M22.25 89 C9.25 89.86, 0.14 80.12, 0 66.75 M22.25 89 C9.22 89.56, -1.27 83.45, 0 66.75 M0 66.75 C-1 55.59, -0.92 46.62, 0 22.25 M0 66.75 C-0.21 50.21, 0.77 34.78, 0 22.25 M0 22.25 C0.03 7.09, 6.86 -0.34, 22.25 0 M0 22.25 C1.78 7.58, 6.5 1.05, 22.25 0" stroke="#1e1e1e" stroke-width="2" fill="none"></path></g><g stroke-linecap="round" transform="translate(294.5 187.4946806080912) rotate(0 26.5 26.5)"><path d="M37.42 1.21 C42.35 3.1, 46.76 9.47, 49.14 14.52 C51.52 19.57, 52.88 26.08, 51.69 31.53 C50.5 36.99, 46.31 43.84, 42.01 47.27 C37.72 50.7, 31.57 52.41, 25.91 52.1 C20.25 51.8, 12.48 49.08, 8.07 45.46 C3.65 41.84, 0.15 35.91, -0.6 30.38 C-1.35 24.85, 0.42 17.21, 3.58 12.31 C6.74 7.4, 12.6 2.43, 18.33 0.96 C24.06 -0.51, 34.46 3.04, 37.98 3.47 C41.5 3.9, 39.55 3.26, 39.46 3.55 M16.3 1.47 C21.44 -0.77, 30.35 -1.83, 35.78 0.27 C41.2 2.38, 46.19 8.7, 48.83 14.11 C51.48 19.52, 52.56 27.31, 51.63 32.71 C50.71 38.12, 47.63 43, 43.26 46.53 C38.89 50.06, 30.98 54.13, 25.41 53.9 C19.83 53.66, 13.79 48.93, 9.82 45.14 C5.85 41.36, 2.41 36.41, 1.6 31.18 C0.8 25.96, 2.35 18.93, 5 13.8 C7.65 8.68, 15.14 2.37, 17.49 0.46 C19.83 -1.46, 18.96 1.87, 19.07 2.33" stroke="none" stroke-width="0" fill="#ffec99"></path><path d="M30.45 0.08 C35.56 0.59, 41.59 5.36, 45.49 9.55 C49.39 13.74, 53.62 19.64, 53.85 25.2 C54.07 30.76, 50.41 38.29, 46.81 42.91 C43.22 47.53, 37.81 51.75, 32.29 52.92 C26.76 54.08, 18.78 52.65, 13.67 49.9 C8.56 47.14, 3.52 41.62, 1.64 36.39 C-0.25 31.17, 0.63 23.87, 2.36 18.57 C4.1 13.26, 6.78 7.4, 12.06 4.56 C17.35 1.72, 29.91 1.94, 34.1 1.53 C38.29 1.13, 37.48 1.92, 37.2 2.13 M26.12 -1.49 C31.53 -1.51, 38.84 3.52, 43.46 7.49 C48.08 11.45, 53.02 17.12, 53.84 22.28 C54.67 27.45, 51.64 33.75, 48.4 38.46 C45.17 43.17, 39.38 48.59, 34.42 50.53 C29.47 52.47, 23.59 51.99, 18.67 50.09 C13.76 48.19, 7.88 43.93, 4.94 39.14 C2 34.34, 0.14 26.65, 1.03 21.32 C1.91 16, 5.97 10.49, 10.26 7.18 C14.54 3.87, 23.99 2.34, 26.74 1.44 C29.49 0.54, 26.6 1.46, 26.76 1.77" stroke="#1e1e1e" stroke-width="2" fill="none"></path></g><g stroke-linecap="round"><g transform="translate(141 141.9946806080912) rotate(0 -19.5 28)"><path d="M-0.31 0.57 C-6.84 9.9, -31.64 47.68, -38.24 56.91 M1.73 -0.17 C-4.98 8.74, -32.26 45.7, -38.79 55.27" stroke="#1e1e1e" stroke-width="2" fill="none"></path></g><g transform="translate(141 141.9946806080912) rotate(0 -19.5 28)"><path d="M-32.09 31.18 C-33.47 41.55, -35.45 47.95, -38.79 55.27 M-32.09 31.18 C-33.55 38.24, -36.91 45.54, -38.79 55.27" stroke="#1e1e1e" stroke-width="2" fill="none"></path></g><g transform="translate(141 141.9946806080912) rotate(0 -19.5 28)"><path d="M-18.17 41.12 C-24.91 47.69, -32.15 50.32, -38.79 55.27 M-18.17 41.12 C-23.64 45.32, -31.1 49.69, -38.79 55.27" stroke="#1e1e1e" stroke-width="2" fill="none"></path></g></g><mask></mask><g stroke-linecap="round"><g transform="translate(143 278.9946806080912) rotate(0 -21 -28.5)"><path d="M0.97 -0.74 C-5.8 -10.2, -33.84 -46.79, -41.07 -56.26 M0.01 1.49 C-6.78 -8.35, -34.29 -48.33, -41.53 -57.99" stroke="#1e1e1e" stroke-width="2" fill="none"></path></g><g transform="translate(143 278.9946806080912) rotate(0 -21 -28.5)"><path d="M-20.92 -43.84 C-27.52 -45.77, -30.36 -51.7, -41.53 -57.99 M-20.92 -43.84 C-26.93 -48.15, -31.89 -50.44, -41.53 -57.99" stroke="#1e1e1e" stroke-width="2" fill="none"></path></g><g transform="translate(143 278.9946806080912) rotate(0 -21 -28.5)"><path d="M-34.84 -33.9 C-37.9 -38.5, -37.15 -47, -41.53 -57.99 M-34.84 -33.9 C-37.3 -40.87, -38.69 -45.71, -41.53 -57.99" stroke="#1e1e1e" stroke-width="2" fill="none"></path></g></g><mask></mask><g stroke-linecap="round"><g transform="translate(276 195.9946806080912) rotate(0 -22.5 -25)"><path d="M0.86 -0.54 C-6.7 -9.07, -37.49 -41.92, -45.01 -50.09 M-0.15 1.8 C-7.89 -6.03, -38.54 -39.69, -45.97 -48.6" stroke="#1e1e1e" stroke-width="2" fill="none"></path></g><g transform="translate(276 195.9946806080912) rotate(0 -22.5 -25)"><path d="M-24.04 -36.59 C-32.24 -40.39, -38.69 -43.14, -45.97 -48.6 M-24.04 -36.59 C-31.79 -41.31, -39.14 -44.77, -45.97 -48.6" stroke="#1e1e1e" stroke-width="2" fill="none"></path></g><g transform="translate(276 195.9946806080912) rotate(0 -22.5 -25)"><path d="M-36.89 -25.3 C-40.98 -32.9, -43.21 -39.35, -45.97 -48.6 M-36.89 -25.3 C-40.39 -33.87, -43.4 -41.14, -45.97 -48.6" stroke="#1e1e1e" stroke-width="2" fill="none"></path></g></g><mask></mask><g stroke-linecap="round"><g transform="translate(277 215.9946806080912) rotate(0 -22 36)"><path d="M-0.37 0.98 C-7.62 12.94, -35.89 60.47, -43.17 72.31 M1.63 0.45 C-5.73 11.97, -35.93 58.21, -43.69 70.35" stroke="#1e1e1e" stroke-width="2" fill="none"></path></g><g transform="translate(277 215.9946806080912) rotate(0 -22 36)"><path d="M-38.11 45.98 C-38.17 55.28, -41.11 61.68, -43.69 70.35 M-38.11 45.98 C-39.76 53.7, -40.61 60.31, -43.69 70.35" stroke="#1e1e1e" stroke-width="2" fill="none"></path></g><g transform="translate(277 215.9946806080912) rotate(0 -22 36)"><path d="M-23.75 55.27 C-28.54 61.5, -36.15 64.87, -43.69 70.35 M-23.75 55.27 C-29.73 60.32, -34.88 64.14, -43.69 70.35" stroke="#1e1e1e" stroke-width="2" fill="none"></path></g></g><mask></mask><g stroke-linecap="round"><g transform="translate(276.43602866192623 106.88303685251691) rotate(0 -22.666027493310793 1.888835624442578)"><path d="M-0.4 -0.08 C-7.89 0.48, -37.54 2.68, -44.96 3.4 M0.4 -0.6 C-7.13 0.02, -37.62 3.24, -45.21 3.91" stroke="#1e1e1e" stroke-width="2" fill="none"></path></g><g transform="translate(276.43602866192623 106.88303685251691) rotate(0 -22.666027493310793 1.888835624442578)"><path d="M-24.69 -5.92 C-30.89 -2.42, -37.48 0.48, -45.21 3.91 M-24.69 -5.92 C-32.83 -1.71, -40.55 1.32, -45.21 3.91" stroke="#1e1e1e" stroke-width="2" fill="none"></path></g><g transform="translate(276.43602866192623 106.88303685251691) rotate(0 -22.666027493310793 1.888835624442578)"><path d="M-23.18 9.57 C-29.83 8.49, -36.86 6.82, -45.21 3.91 M-23.18 9.57 C-31.87 7.79, -40.18 4.83, -45.21 3.91" stroke="#1e1e1e" stroke-width="2" fill="none"></path></g></g><mask></mask><g transform="translate(287.76904240858175 82.57235185697635) rotate(0 12.005859375 20.700000000000003)"><text x="0" y="33.120703125" font-family="Helvetica, Segoe UI Emoji" font-size="36px" fill="#1e1e1e" text-anchor="start" style="white-space: pre;" direction="ltr" dominant-baseline="alphabetic">A</text></g><g transform="translate(301.62050365449386 324.72874553822675) rotate(0 12.005859375 20.69999999999999)"><text x="0" y="33.120703125" font-family="Helvetica, Segoe UI Emoji" font-size="36px" fill="#1e1e1e" text-anchor="start" style="white-space: pre;" direction="ltr" dominant-baseline="alphabetic">B</text></g><g stroke-linecap="round"><g transform="translate(297.84283240560876 342.3578780330242) rotate(0 -30.850981865895278 -14.481073120726393)"><path d="M0.81 -0.52 C-9.66 -5.41, -51.39 -24.9, -61.9 -29.79 M-0.22 1.83 C-10.94 -2.9, -52.44 -23.55, -62.95 -28.69" stroke="#1e1e1e" stroke-width="2" fill="none"></path></g><g transform="translate(297.84283240560876 342.3578780330242) rotate(0 -30.850981865895278 -14.481073120726393)"><path d="M-38.1 -25.97 C-48.28 -27.15, -58.13 -28.72, -62.95 -28.69 M-38.1 -25.97 C-44.36 -27.11, -49.02 -27.32, -62.95 -28.69" stroke="#1e1e1e" stroke-width="2" fill="none"></path></g><g transform="translate(297.84283240560876 342.3578780330242) rotate(0 -30.850981865895278 -14.481073120726393)"><path d="M-45.67 -10.63 C-52.95 -17.62, -59.96 -24.94, -62.95 -28.69 M-45.67 -10.63 C-50.24 -15.26, -53.2 -18.9, -62.95 -28.69" stroke="#1e1e1e" stroke-width="2" fill="none"></path></g></g><mask></mask><g transform="translate(74.96022872138536 11.182031880759979) rotate(0 123.60058593750003 20.700000000000003)"><text x="0" y="33.120703125" font-family="Helvetica, Segoe UI Emoji" font-size="36px" fill="#1e1e1e" text-anchor="start" style="white-space: pre;" direction="ltr" dominant-baseline="alphabetic">A = B =&gt; A or B</text></g><g stroke-linecap="round" transform="translate(507.4337472911502 170.84954372584468) rotate(0 44.5 44.5)"><path d="M22.25 0 C38.67 2.24, 50.72 -3.11, 66.75 0 C78.76 0.86, 86.59 4.98, 89 22.25 C90.52 39.11, 92.32 50.15, 89 66.75 C89.57 81.97, 81.54 87.23, 66.75 89 C52.96 91.39, 30.86 85.38, 22.25 89 C5.25 91.59, 0.09 80.87, 0 66.75 C0.87 55.42, -1.11 41.82, 0 22.25 C1.55 8.39, 6.48 2.36, 22.25 0" stroke="none" stroke-width="0" fill="#a5d8ff"></path><path d="M22.25 0 C34.42 -0.12, 43.97 -0.96, 66.75 0 M22.25 0 C32.46 -0.93, 44.4 -0.85, 66.75 0 M66.75 0 C81.52 -1.52, 90.4 5.68, 89 22.25 M66.75 0 C80.23 1.54, 90.82 5.6, 89 22.25 M89 22.25 C89.71 38.4, 88.4 58.6, 89 66.75 M89 22.25 C88.49 39.73, 89.88 57.6, 89 66.75 M89 66.75 C89.3 80.94, 80.19 89.85, 66.75 89 M89 66.75 C88.57 80.17, 79.95 87.83, 66.75 89 M66.75 89 C55.76 90.48, 46.61 87.42, 22.25 89 M66.75 89 C56.02 88.83, 46.01 88.4, 22.25 89 M22.25 89 C6.39 87.65, -1.2 80.01, 0 66.75 M22.25 89 C7.58 90.61, -0.9 82.03, 0 66.75 M0 66.75 C0.94 54.22, 0.9 40.31, 0 22.25 M0 66.75 C-0.67 53.24, -0.72 40.56, 0 22.25 M0 22.25 C-1.12 8.82, 5.93 1.65, 22.25 0 M0 22.25 C-0.53 9.08, 7.85 -1.88, 22.25 0" stroke="#1e1e1e" stroke-width="2" fill="none"></path></g><g stroke-linecap="round" transform="translate(524.4337472911502 192.84954372584468) rotate(0 26.5 26.5)"><path d="M27.63 0.07 C33.02 -0.06, 40.58 2.65, 44.87 6.53 C49.16 10.42, 52.57 17.62, 53.35 23.35 C54.13 29.09, 52.66 36.13, 49.55 40.92 C46.44 45.72, 40.28 50.52, 34.69 52.12 C29.11 53.73, 21.33 52.86, 16.05 50.58 C10.77 48.29, 5.48 43.42, 3.01 38.4 C0.54 33.37, -0.08 26.01, 1.23 20.42 C2.55 14.83, 6.17 8.29, 10.9 4.87 C15.62 1.44, 26.29 0.52, 29.6 -0.13 C32.91 -0.78, 31.06 0.41, 30.75 0.96 M17.65 1.04 C22.21 -1.57, 28.26 -1.62, 33.54 0.11 C38.82 1.85, 46.29 6.34, 49.32 11.43 C52.35 16.53, 52.6 25.13, 51.73 30.68 C50.86 36.23, 48.02 40.89, 44.09 44.74 C40.15 48.6, 33.53 53.49, 28.12 53.81 C22.71 54.12, 16.17 50.22, 11.62 46.62 C7.07 43.02, 2.25 37.74, 0.82 32.2 C-0.6 26.65, 0.24 18.45, 3.07 13.34 C5.9 8.23, 15.54 3.11, 17.8 1.52 C20.06 -0.07, 16.52 3.44, 16.64 3.8" stroke="none" stroke-width="0" fill="#b2f2bb"></path><path d="M19.6 0.6 C24.66 -1.22, 31.23 0.3, 36.24 2.59 C41.24 4.88, 47.08 9.25, 49.64 14.33 C52.19 19.4, 52.92 27.6, 51.59 33.05 C50.26 38.49, 45.96 43.55, 41.68 47 C37.39 50.46, 31.56 53.79, 25.9 53.76 C20.24 53.74, 11.97 50.93, 7.72 46.86 C3.47 42.79, 0.94 35.22, 0.41 29.34 C-0.13 23.46, 1.14 16.23, 4.52 11.57 C7.91 6.91, 17.4 3.09, 20.73 1.4 C24.06 -0.29, 24.45 1.28, 24.49 1.43 M29.88 -0.29 C34.96 -0.1, 40.98 4.94, 44.78 9 C48.58 13.07, 52.37 18.68, 52.68 24.11 C52.99 29.55, 50.13 37.06, 46.65 41.62 C43.16 46.19, 37.21 50.09, 31.76 51.52 C26.32 52.95, 18.73 52.38, 13.99 50.2 C9.26 48.01, 5.69 43.78, 3.37 38.4 C1.05 33.03, -1.57 23.42, 0.07 17.96 C1.72 12.49, 8.29 8.72, 13.23 5.62 C18.17 2.52, 26.79 0.42, 29.71 -0.64 C32.64 -1.71, 30.98 -1.18, 30.79 -0.77" stroke="#1e1e1e" stroke-width="2" fill="none"></path></g><g stroke-linecap="round" transform="translate(638.9337472911502 97.34954372584468) rotate(0 44.5 44.5)"><path d="M22.25 0 C36.04 1.46, 53.06 -1.83, 66.75 0 C82.83 -0.39, 85.56 9.02, 89 22.25 C90.33 38.44, 89.72 52.07, 89 66.75 C92.01 80.58, 81.33 92.28, 66.75 89 C48.21 90.8, 34.1 87.5, 22.25 89 C5.97 88.33, -2.8 82.31, 0 66.75 C1.83 54.09, -0.65 41.85, 0 22.25 C0.17 6.02, 8.97 3.35, 22.25 0" stroke="none" stroke-width="0" fill="#a5d8ff"></path><path d="M22.25 0 C33.64 0.1, 49.25 -0.92, 66.75 0 M22.25 0 C33.32 -0.57, 45.15 -0.68, 66.75 0 M66.75 0 C80.41 1.34, 90.58 5.83, 89 22.25 M66.75 0 C83.65 0.45, 87.84 8.14, 89 22.25 M89 22.25 C90.59 34.43, 87.49 41.96, 89 66.75 M89 22.25 C89.4 36.34, 88.55 51.5, 89 66.75 M89 66.75 C88.63 80.35, 80.16 87.98, 66.75 89 M89 66.75 C87.81 80.38, 80.75 89.08, 66.75 89 M66.75 89 C48.58 90.33, 34.47 88.77, 22.25 89 M66.75 89 C55.36 87.89, 44.39 87.77, 22.25 89 M22.25 89 C7.56 90.4, -0.78 81.97, 0 66.75 M22.25 89 C7.54 90.44, -0.65 82.98, 0 66.75 M0 66.75 C-0.23 51.88, -1.29 34.37, 0 22.25 M0 66.75 C-0.32 54.5, -0.51 41.67, 0 22.25 M0 22.25 C-0.46 8.86, 7.8 -1.64, 22.25 0 M0 22.25 C1.02 5.65, 8.57 0.7, 22.25 0" stroke="#1e1e1e" stroke-width="2" fill="none"></path></g><g stroke-linecap="round" transform="translate(655.9337472911502 120.60876747547309) rotate(0 26.5 26.5)"><path d="M27.82 0.54 C33.21 0.45, 40.51 3.28, 44.66 7.03 C48.81 10.78, 52.07 17.54, 52.73 23.02 C53.38 28.49, 51.56 35.19, 48.57 39.87 C45.59 44.55, 40 49.32, 34.8 51.1 C29.61 52.89, 22.57 52.71, 17.42 50.59 C12.27 48.47, 6.58 43.32, 3.91 38.39 C1.23 33.45, 0.22 26.38, 1.36 20.97 C2.5 15.56, 5.97 9.3, 10.74 5.94 C15.51 2.58, 26.19 1.42, 29.96 0.79 C33.73 0.16, 33.23 1.69, 33.35 2.17 M19.02 0.18 C24.1 -1.46, 30.61 0.46, 35.76 2.59 C40.9 4.72, 47.03 7.85, 49.91 12.95 C52.78 18.06, 54 27.55, 53.01 33.2 C52.02 38.84, 48.54 43.51, 43.94 46.83 C39.35 50.15, 31.35 53.4, 25.44 53.13 C19.53 52.86, 12.47 49.16, 8.48 45.2 C4.48 41.25, 2.19 34.68, 1.46 29.4 C0.74 24.12, 1.08 18.33, 4.12 13.51 C7.16 8.68, 17.48 2.57, 19.68 0.45 C21.89 -1.67, 17.2 0.24, 17.34 0.79" stroke="none" stroke-width="0" fill="#b2f2bb"></path><path d="M18.3 1.14 C23.31 -0.74, 30.91 0.68, 36.06 2.79 C41.22 4.91, 46.4 8.78, 49.23 13.85 C52.05 18.92, 54.25 27.44, 53 33.22 C51.74 39, 46.29 45.33, 41.69 48.54 C37.08 51.75, 30.83 53, 25.34 52.46 C19.86 51.92, 13.01 48.95, 8.77 45.31 C4.52 41.67, 0.47 36.01, -0.14 30.6 C-0.75 25.19, 1.09 18.07, 5.13 12.84 C9.17 7.61, 19.76 1.12, 24.08 -0.78 C28.39 -2.68, 30.75 0.84, 31.03 1.44 M21.98 -0.58 C27.24 -2.01, 34.2 0.04, 39 2.97 C43.79 5.9, 48.79 11.49, 50.75 16.99 C52.7 22.49, 52.41 30.27, 50.73 35.95 C49.05 41.64, 45.71 48.49, 40.67 51.1 C35.63 53.72, 26.06 52.75, 20.48 51.66 C14.9 50.57, 10.6 48.95, 7.2 44.56 C3.8 40.17, -0.01 31.45, 0.06 25.31 C0.14 19.16, 4.06 12.04, 7.63 7.71 C11.2 3.38, 19.18 0.67, 21.49 -0.67 C23.79 -2.01, 21.23 -1.1, 21.44 -0.32" stroke="#1e1e1e" stroke-width="2" fill="none"></path></g><g stroke-linecap="round" transform="translate(641.9337472911502 244.34954372584468) rotate(0 44.5 44.5)"><path d="M22.25 0 C37.91 0.15, 47.64 2.15, 66.75 0 C83.56 3.41, 87.13 7.99, 89 22.25 C92 35.08, 88.74 53.19, 89 66.75 C91.44 79.83, 78.02 86.83, 66.75 89 C48.75 88.17, 30.85 89.56, 22.25 89 C7.64 87.74, -1.81 83.13, 0 66.75 C0.38 50.8, 1.76 41, 0 22.25 C3.35 8.88, 7.02 -0.08, 22.25 0" stroke="none" stroke-width="0" fill="#a5d8ff"></path><path d="M22.25 0 C34.22 1.33, 47.37 0.2, 66.75 0 M22.25 0 C31.64 1.06, 43 -0.41, 66.75 0 M66.75 0 C83.38 0.39, 87.99 8.04, 89 22.25 M66.75 0 C80.21 -0.79, 90.92 9.43, 89 22.25 M89 22.25 C89.18 40.01, 90.45 55.86, 89 66.75 M89 22.25 C88.51 33.55, 87.98 45.58, 89 66.75 M89 66.75 C87.97 80.53, 80.86 89.07, 66.75 89 M89 66.75 C90.89 83.85, 79.96 87.67, 66.75 89 M66.75 89 C48.64 90.61, 30.77 87.99, 22.25 89 M66.75 89 C56.47 89.35, 45.65 88.84, 22.25 89 M22.25 89 C7.52 90.25, -0.56 82.8, 0 66.75 M22.25 89 C8.63 90.35, 0.84 81.62, 0 66.75 M0 66.75 C0.05 50.48, 1.53 35.22, 0 22.25 M0 66.75 C0.1 51, 0.52 32.99, 0 22.25 M0 22.25 C0.88 5.88, 8.42 0.61, 22.25 0 M0 22.25 C1.68 6.04, 5.69 -1.8, 22.25 0" stroke="#1e1e1e" stroke-width="2" fill="none"></path></g><g stroke-linecap="round" transform="translate(658.9337472911502 266.3495437258447) rotate(0 26.5 26.5)"><path d="M33.44 1.34 C38.55 2.28, 44.51 6.37, 47.74 10.87 C50.96 15.37, 53.12 22.7, 52.8 28.35 C52.49 33.99, 49.73 40.76, 45.84 44.73 C41.95 48.7, 35.07 51.63, 29.44 52.16 C23.81 52.7, 16.71 51.05, 12.07 47.94 C7.43 44.82, 3.34 38.86, 1.61 33.48 C-0.12 28.11, -0.47 20.77, 1.69 15.68 C3.86 10.59, 8.51 5.02, 14.59 2.95 C20.68 0.89, 33.78 3.02, 38.19 3.3 C42.6 3.59, 41.44 4.35, 41.06 4.67 M17.63 0.04 C22.9 -2, 31.02 0.43, 36.59 2.56 C42.16 4.68, 48.36 7.96, 51.06 12.8 C53.75 17.65, 54.07 26.05, 52.77 31.64 C51.46 37.22, 47.46 42.81, 43.22 46.3 C38.99 49.8, 33.06 52.31, 27.37 52.58 C21.68 52.85, 13.41 51.68, 9.07 47.92 C4.73 44.15, 2.49 35.98, 1.36 29.99 C0.22 24.01, -0.66 16.76, 2.26 12.02 C5.18 7.27, 16.3 3.28, 18.87 1.51 C21.44 -0.27, 17.75 1.15, 17.67 1.37" stroke="none" stroke-width="0" fill="#ffec99"></path><path d="M25.19 -0.58 C30.81 -1, 39.44 2.89, 43.86 6.71 C48.28 10.53, 50.72 17, 51.72 22.36 C52.73 27.72, 52.43 34.14, 49.86 38.86 C47.29 43.57, 41.68 48.4, 36.29 50.65 C30.9 52.9, 22.79 54.01, 17.51 52.38 C12.24 50.76, 7.63 46.02, 4.65 40.87 C1.67 35.73, -1.13 27.14, -0.35 21.5 C0.44 15.86, 4.33 10.58, 9.37 7.04 C14.41 3.5, 26.2 1.38, 29.89 0.27 C33.58 -0.84, 31.62 0, 31.5 0.39 M17.71 0.45 C22.84 -1.36, 30.47 -0.49, 36.05 2.05 C41.64 4.59, 48.67 10.82, 51.22 15.7 C53.76 20.58, 52.54 25.8, 51.32 31.32 C50.1 36.84, 48.21 45.33, 43.9 48.8 C39.59 52.27, 31.13 52.85, 25.45 52.14 C19.77 51.44, 14.16 48.44, 9.83 44.58 C5.5 40.73, 0.56 34.57, -0.54 28.99 C-1.63 23.42, 0.04 15.57, 3.23 11.12 C6.42 6.67, 16.12 3.8, 18.59 2.29 C21.07 0.78, 17.93 1.64, 18.06 2.04" stroke="#1e1e1e" stroke-width="2" fill="none"></path></g><g stroke-linecap="round" transform="translate(774.9337472911502 169.34954372584468) rotate(0 44.5 44.5)"><path d="M22.25 0 C37.1 3.05, 46.12 0.21, 66.75 0 C81.97 -0.04, 87.23 10.42, 89 22.25 C91.39 32.61, 85.38 44.3, 89 66.75 C91.59 81.67, 80.87 87.55, 66.75 89 C54.46 87.9, 39.9 90.71, 22.25 89 C8.39 88.07, 2.36 81.75, 0 66.75 C3.01 56.59, -0.75 43.43, 0 22.25 C1.05 10.63, 4.23 -0.47, 22.25 0" stroke="none" stroke-width="0" fill="#a5d8ff"></path><path d="M22.25 0 C36.45 1.42, 51.95 -1.16, 66.75 0 M22.25 0 C39.47 0.55, 54.4 0.67, 66.75 0 M66.75 0 C80.39 -0.69, 90.67 9.16, 89 22.25 M66.75 0 C83.29 -1.56, 87.07 7.97, 89 22.25 M89 22.25 C88.75 36.67, 90.24 53.51, 89 66.75 M89 22.25 C88.17 32.34, 88.32 43.52, 89 66.75 M89 66.75 C90.64 83.55, 80.17 87.84, 66.75 89 M89 66.75 C90.89 83.58, 81.68 87.72, 66.75 89 M66.75 89 C48.5 87.58, 31.37 88.91, 22.25 89 M66.75 89 C50.34 89.71, 33.54 89.69, 22.25 89 M22.25 89 C8.47 90.18, 0.73 81.62, 0 66.75 M22.25 89 C8.38 87.82, -1.12 81.38, 0 66.75 M0 66.75 C1.11 54.28, 1.36 44.33, 0 22.25 M0 66.75 C0.36 49.41, 0.42 33.92, 0 22.25 M0 22.25 C1.46 6.22, 5.91 -1.57, 22.25 0 M0 22.25 C0.55 5.88, 5.86 0.79, 22.25 0" stroke="#1e1e1e" stroke-width="2" fill="none"></path></g><g stroke-linecap="round" transform="translate(791.9337472911502 191.34954372584468) rotate(0 26.5 26.5)"><path d="M31.9 0.04 C37.44 0.82, 44.39 5.17, 48.02 9.61 C51.65 14.04, 53.85 20.93, 53.69 26.66 C53.52 32.39, 50.83 39.61, 47.03 43.98 C43.24 48.36, 36.83 52.02, 30.93 52.93 C25.04 53.84, 16.72 52.38, 11.66 49.43 C6.59 46.47, 2.11 40.56, 0.53 35.21 C-1.04 29.86, 0.08 22.8, 2.23 17.33 C4.38 11.85, 7.93 4.91, 13.44 2.36 C18.95 -0.19, 31.03 1.85, 35.28 2.03 C39.54 2.2, 38.94 3.07, 38.96 3.42 M15.72 2.19 C20.29 -0.7, 27.22 -0.44, 32.52 0.8 C37.82 2.05, 43.92 5.25, 47.53 9.67 C51.15 14.08, 54.5 21.26, 54.23 27.28 C53.95 33.31, 49.78 41.68, 45.9 45.8 C42.02 49.93, 36.79 51.69, 30.93 52.05 C25.07 52.4, 15.51 50.85, 10.74 47.92 C5.97 44.99, 3.79 39.83, 2.29 34.46 C0.79 29.09, -0.22 21.15, 1.74 15.71 C3.69 10.27, 11.84 3.84, 14.02 1.81 C16.21 -0.22, 14.69 3.08, 14.85 3.54" stroke="none" stroke-width="0" fill="#ffec99"></path><path d="M18.04 2.03 C23.02 -0.07, 31.72 -0.35, 37.12 1.63 C42.53 3.62, 47.99 8.65, 50.46 13.94 C52.93 19.23, 53.16 27.62, 51.96 33.37 C50.76 39.13, 47.86 45.33, 43.26 48.45 C38.66 51.58, 30.13 52.47, 24.36 52.12 C18.58 51.77, 12.49 50.1, 8.61 46.38 C4.72 42.66, 1.83 35.65, 1.06 29.8 C0.3 23.96, 0.74 16.18, 4 11.3 C7.26 6.43, 17.78 2.41, 20.62 0.58 C23.47 -1.26, 21.12 -0.1, 21.07 0.27 M20.86 2.38 C25.9 0.5, 31.48 -0.76, 36.63 1.61 C41.77 3.98, 49.15 11.44, 51.74 16.59 C54.33 21.74, 53.63 27.49, 52.16 32.51 C50.69 37.53, 47.7 43.49, 42.91 46.72 C38.12 49.94, 29.44 52.33, 23.44 51.89 C17.43 51.45, 10.75 47.73, 6.87 44.07 C3 40.4, 0.65 35.28, 0.21 29.87 C-0.24 24.46, 0.95 16.28, 4.2 11.6 C7.45 6.93, 17.18 3.39, 19.71 1.85 C22.23 0.3, 19.11 1.91, 19.34 2.33" stroke="#1e1e1e" stroke-width="2" fill="none"></path></g><g stroke-linecap="round"><g transform="translate(638.4337472911502 145.84954372584468) rotate(0 -19.5 28)"><path d="M-0.7 0.8 C-7.19 10.15, -31.85 45.81, -38.05 55.05 M1.13 0.18 C-5.5 9.74, -31.96 46.51, -38.5 56.09" stroke="#1e1e1e" stroke-width="2" fill="none"></path></g><g transform="translate(638.4337472911502 145.84954372584468) rotate(0 -19.5 28)"><path d="M-31.98 31.95 C-33.27 42.43, -38.6 51.58, -38.5 56.09 M-31.98 31.95 C-34.78 39.34, -35.43 48.26, -38.5 56.09" stroke="#1e1e1e" stroke-width="2" fill="none"></path></g><g transform="translate(638.4337472911502 145.84954372584468) rotate(0 -19.5 28)"><path d="M-17.99 41.79 C-24.37 48.55, -34.88 54.05, -38.5 56.09 M-17.99 41.79 C-25.21 46.08, -30.33 51.86, -38.5 56.09" stroke="#1e1e1e" stroke-width="2" fill="none"></path></g></g><mask></mask><g stroke-linecap="round"><g transform="translate(640.4337472911502 282.8495437258447) rotate(0 -21 -28.5)"><path d="M0.95 -0.95 C-5.75 -10.55, -33.66 -47.49, -40.92 -56.77 M-0.01 1.17 C-6.72 -8.89, -34.03 -48.78, -41.31 -58.77" stroke="#1e1e1e" stroke-width="2" fill="none"></path></g><g transform="translate(640.4337472911502 282.8495437258447) rotate(0 -21 -28.5)"><path d="M-20.8 -44.47 C-27.43 -45.96, -30.4 -52.22, -41.31 -58.77 M-20.8 -44.47 C-26.67 -48.4, -33.56 -54.69, -41.31 -58.77" stroke="#1e1e1e" stroke-width="2" fill="none"></path></g><g transform="translate(640.4337472911502 282.8495437258447) rotate(0 -21 -28.5)"><path d="M-34.79 -34.63 C-38.11 -38.61, -37.71 -47.24, -41.31 -58.77 M-34.79 -34.63 C-35.97 -41.78, -38.22 -51.33, -41.31 -58.77" stroke="#1e1e1e" stroke-width="2" fill="none"></path></g></g><mask></mask><g stroke-linecap="round"><g transform="translate(773.4337472911502 199.84954372584468) rotate(0 -22.5 -25)"><path d="M1.08 0.23 C-6.68 -7.88, -37.81 -41.18, -45.61 -49.62 M0.18 -0.69 C-7.26 -9.09, -35.98 -43.45, -43.21 -51.55" stroke="#1e1e1e" stroke-width="2" fill="none"></path></g><g transform="translate(773.4337472911502 199.84954372584468) rotate(0 -22.5 -25)"><path d="M-21.41 -39.31 C-29.19 -44.77, -37.22 -49.59, -43.21 -51.55 M-21.41 -39.31 C-26.56 -43.05, -33.94 -45.39, -43.21 -51.55" stroke="#1e1e1e" stroke-width="2" fill="none"></path></g><g transform="translate(773.4337472911502 199.84954372584468) rotate(0 -22.5 -25)"><path d="M-34.38 -28.16 C-37.15 -37.96, -40.27 -47.01, -43.21 -51.55 M-34.38 -28.16 C-36.18 -34.98, -40.11 -40.28, -43.21 -51.55" stroke="#1e1e1e" stroke-width="2" fill="none"></path></g></g><mask></mask><g stroke-linecap="round"><g transform="translate(774.4337472911502 219.84954372584468) rotate(0 -22 36)"><path d="M-0.61 0.38 C-8.24 12.27, -37.65 59.48, -44.72 71.59 M1.28 -0.47 C-6.06 11.57, -34.96 60.96, -42.38 72.91" stroke="#1e1e1e" stroke-width="2" fill="none"></path></g><g transform="translate(774.4337472911502 219.84954372584468) rotate(0 -22 36)"><path d="M-37.62 48.37 C-38.8 56.72, -41.97 69.14, -42.38 72.91 M-37.62 48.37 C-40.12 58.08, -40.57 68.23, -42.38 72.91" stroke="#1e1e1e" stroke-width="2" fill="none"></path></g><g transform="translate(774.4337472911502 219.84954372584468) rotate(0 -22 36)"><path d="M-22.96 57.17 C-29.87 62.01, -38.75 71.01, -42.38 72.91 M-22.96 57.17 C-31.2 63.37, -37.33 70.11, -42.38 72.91" stroke="#1e1e1e" stroke-width="2" fill="none"></path></g></g><mask></mask><g stroke-linecap="round"><g transform="translate(773.8697759530764 110.7378999702704) rotate(0 -22.66602749331082 1.888835624442578)"><path d="M-0.33 -0.19 C-7.76 0.49, -37.44 3.66, -44.87 4.26 M0.5 -0.76 C-6.94 -0.24, -37.47 2.78, -45.07 3.54" stroke="#1e1e1e" stroke-width="2" fill="none"></path></g><g transform="translate(773.8697759530764 110.7378999702704) rotate(0 -22.66602749331082 1.888835624442578)"><path d="M-24.57 -6.31 C-30.01 -3.08, -33.91 -0.71, -45.07 3.54 M-24.57 -6.31 C-29.09 -3.56, -34.06 -1.87, -45.07 3.54" stroke="#1e1e1e" stroke-width="2" fill="none"></path></g><g transform="translate(773.8697759530764 110.7378999702704) rotate(0 -22.66602749331082 1.888835624442578)"><path d="M-23.03 9.18 C-28.88 8.54, -33.16 7.04, -45.07 3.54 M-23.03 9.18 C-27.85 8.33, -33.17 6.42, -45.07 3.54" stroke="#1e1e1e" stroke-width="2" fill="none"></path></g></g><mask></mask><g transform="translate(785.202789699732 86.42721497472985) rotate(0 12.005859375 20.700000000000003)"><text x="0" y="33.120703125" font-family="Helvetica, Segoe UI Emoji" font-size="36px" fill="#1e1e1e" text-anchor="start" style="white-space: pre;" direction="ltr" dominant-baseline="alphabetic">A</text></g><g transform="translate(799.0542509456441 328.58360865598024) rotate(0 12.005859375 20.69999999999999)"><text x="0" y="33.120703125" font-family="Helvetica, Segoe UI Emoji" font-size="36px" fill="#1e1e1e" text-anchor="start" style="white-space: pre;" direction="ltr" dominant-baseline="alphabetic">B</text></g><g stroke-linecap="round"><g transform="translate(795.276579696759 346.2127411507777) rotate(0 -30.850981865895278 -14.481073120726393)"><path d="M-1.01 0.29 C-11.33 -4.23, -50.95 -22.97, -61.04 -27.91 M0.67 -0.61 C-9.83 -5.37, -51.16 -24.88, -61.64 -29.48" stroke="#1e1e1e" stroke-width="2" fill="none"></path></g><g transform="translate(795.276579696759 346.2127411507777) rotate(0 -30.850981865895278 -14.481073120726393)"><path d="M-36.72 -27.48 C-45.55 -27.33, -53.6 -28.88, -61.64 -29.48 M-36.72 -27.48 C-43.56 -28.52, -50.76 -28.95, -61.64 -29.48" stroke="#1e1e1e" stroke-width="2" fill="none"></path></g><g transform="translate(795.276579696759 346.2127411507777) rotate(0 -30.850981865895278 -14.481073120726393)"><path d="M-43.84 -11.93 C-49.9 -17.54, -55.29 -24.91, -61.64 -29.48 M-43.84 -11.93 C-48.67 -17.17, -53.96 -21.76, -61.64 -29.48" stroke="#1e1e1e" stroke-width="2" fill="none"></path></g></g><mask></mask><g transform="translate(598.8376747547314 10) rotate(0 88.56738281249994 20.700000000000003)"><text x="0" y="33.120703125" font-family="Helvetica, Segoe UI Emoji" font-size="36px" fill="#1e1e1e" text-anchor="start" style="white-space: pre;" direction="ltr" dominant-baseline="alphabetic">A = O =&gt; B</text></g><g stroke-linecap="round" transform="translate(16.945913716925816 571.2055042388013) rotate(0 44.5 44.5)"><path d="M22.25 0 C30.82 1.14, 45.69 0.75, 66.75 0 C83.23 -1.75, 88.07 9.25, 89 22.25 C88.44 31.9, 85.36 45.19, 89 66.75 C91.75 81.09, 79.15 85.9, 66.75 89 C52.73 85.82, 39.73 88.44, 22.25 89 C5.16 87.58, 0.87 84.34, 0 66.75 C-3.15 53.43, -2.45 34.77, 0 22.25 C0.57 10.77, 5.03 2.24, 22.25 0" stroke="none" stroke-width="0" fill="#a5d8ff"></path><path d="M22.25 0 C38.5 2, 54.37 1.29, 66.75 0 M22.25 0 C37.49 -0.84, 52.78 -0.76, 66.75 0 M66.75 0 C81.76 1.1, 90.21 6.74, 89 22.25 M66.75 0 C80.37 0.85, 90.69 6.53, 89 22.25 M89 22.25 C88.9 38.99, 89.81 54.06, 89 66.75 M89 22.25 C89.81 35.44, 89.81 48.38, 89 66.75 M89 66.75 C87.01 81.31, 80.65 88.16, 66.75 89 M89 66.75 C88.34 80.78, 81.1 89.17, 66.75 89 M66.75 89 C55.59 90.61, 44.32 86.76, 22.25 89 M66.75 89 C52.71 89.55, 40.5 89.32, 22.25 89 M22.25 89 C5.74 88.1, 0.79 83.35, 0 66.75 M22.25 89 C8.05 89.13, -1.97 83.26, 0 66.75 M0 66.75 C0.68 52.7, -1.67 43.77, 0 22.25 M0 66.75 C1.03 50.61, -0.12 34.2, 0 22.25 M0 22.25 C-0.58 9.26, 8.98 1.17, 22.25 0 M0 22.25 C-1.95 7.03, 7.81 -0.95, 22.25 0" stroke="#1e1e1e" stroke-width="2" fill="none"></path></g><g stroke-linecap="round" transform="translate(33.945913716925816 593.2055042388013) rotate(0 26.5 26.5)"><path d="M30.86 0 C36.4 0.61, 43.34 5.01, 47.12 9.11 C50.9 13.22, 53.59 18.88, 53.54 24.61 C53.48 30.34, 50.25 39, 46.79 43.5 C43.34 48.01, 38.3 50.45, 32.81 51.64 C27.31 52.83, 18.89 53.22, 13.83 50.61 C8.78 48.01, 4.43 41.44, 2.47 36.01 C0.5 30.59, 0.24 23.27, 2.05 18.07 C3.86 12.88, 7.41 7.63, 13.34 4.84 C19.26 2.05, 32.73 1.06, 37.62 1.34 C42.5 1.61, 43 6.04, 42.66 6.48 M39.17 4.11 C44.11 6.51, 49.35 11.92, 51.34 16.89 C53.33 21.86, 52.71 28.66, 51.1 33.92 C49.48 39.18, 46.36 45.05, 41.65 48.44 C36.93 51.83, 28.61 55.09, 22.82 54.24 C17.04 53.4, 10.97 47.91, 6.93 43.38 C2.89 38.85, -1.33 32.56, -1.4 27.05 C-1.46 21.54, 3.02 14.91, 6.52 10.29 C10.02 5.68, 14.28 0.84, 19.59 -0.63 C24.89 -2.09, 35.36 0.91, 38.33 1.48 C41.31 2.05, 37.77 2.29, 37.43 2.79" stroke="none" stroke-width="0" fill="#b2f2bb"></path><path d="M35.42 1.08 C40.5 2.46, 45.62 7.21, 48.45 12.06 C51.27 16.91, 52.96 24.4, 52.36 30.17 C51.76 35.95, 49.06 43.01, 44.86 46.73 C40.66 50.44, 32.89 52.21, 27.19 52.45 C21.48 52.69, 15.13 51.5, 10.64 48.18 C6.14 44.86, 1.45 38.26, 0.21 32.52 C-1.03 26.79, 0.5 18.74, 3.2 13.77 C5.9 8.81, 10.62 4.53, 16.39 2.75 C22.17 0.97, 33.95 2.7, 37.85 3.11 C41.75 3.51, 40.05 4.81, 39.79 5.16 M31.81 0.69 C36.89 1.44, 44.03 6.03, 47.47 10.62 C50.92 15.21, 52.89 22.44, 52.47 28.23 C52.06 34.01, 48.98 41.08, 44.96 45.31 C40.95 49.54, 34.21 53.01, 28.4 53.59 C22.58 54.18, 14.43 52.01, 10.1 48.83 C5.76 45.66, 3.91 40.1, 2.4 34.52 C0.89 28.94, -0.99 20.77, 1.06 15.36 C3.1 9.95, 9.46 4.31, 14.67 2.06 C19.87 -0.18, 29.07 1.91, 32.27 1.91 C35.48 1.91, 34.03 1.93, 33.87 2.08" stroke="#1e1e1e" stroke-width="2" fill="none"></path></g><g stroke-linecap="round" transform="translate(148.44591371692582 497.7055042388013) rotate(0 44.5 44.5)"><path d="M22.25 0 C38.97 -1.97, 51.47 1.61, 66.75 0 C80.81 -0.93, 92.48 7.06, 89 22.25 C90.99 31.71, 85.8 39.06, 89 66.75 C88.39 78.14, 79.38 87.57, 66.75 89 C54.47 87.56, 47.59 91.74, 22.25 89 C10.21 92.19, -1.21 79.15, 0 66.75 C0.96 52.45, -2 33.68, 0 22.25 C-1.08 9.13, 9.61 1.91, 22.25 0" stroke="none" stroke-width="0" fill="#a5d8ff"></path><path d="M22.25 0 C40.87 -1.52, 59.29 -0.65, 66.75 0 M22.25 0 C33.59 0.73, 45.36 -0.16, 66.75 0 M66.75 0 C80.52 0.74, 90.47 6.64, 89 22.25 M66.75 0 C82.53 0.34, 88.14 7.22, 89 22.25 M89 22.25 C88.86 40.84, 88.9 56.75, 89 66.75 M89 22.25 C88.19 37.78, 88.72 53.15, 89 66.75 M89 66.75 C88.43 80.88, 81.16 89.15, 66.75 89 M89 66.75 C88.28 82.66, 79.66 89.91, 66.75 89 M66.75 89 C49.01 87.81, 30.66 87.21, 22.25 89 M66.75 89 C49.53 88.75, 34.38 90.08, 22.25 89 M22.25 89 C7.97 89.11, -1.71 83.04, 0 66.75 M22.25 89 C6.83 91.22, 0.89 82.86, 0 66.75 M0 66.75 C1.76 55.93, -0.27 49.57, 0 22.25 M0 66.75 C-0.09 52.01, 0.99 36.01, 0 22.25 M0 22.25 C-1.69 7.08, 7.76 -0.82, 22.25 0 M0 22.25 C-1.58 9.6, 8.16 -1.1, 22.25 0" stroke="#1e1e1e" stroke-width="2" fill="none"></path></g><g stroke-linecap="round" transform="translate(165.44591371692582 519.7055042388013) rotate(0 26.5 26.5)"><path d="M23.69 -0.7 C28.73 -1.66, 35.39 1.84, 40.2 4.93 C45 8.02, 50.8 12.44, 52.55 17.85 C54.29 23.27, 52.9 32.13, 50.67 37.42 C48.45 42.7, 44.04 47.15, 39.17 49.59 C34.3 52.03, 26.91 53.1, 21.44 52.06 C15.97 51.02, 9.81 47.95, 6.34 43.34 C2.87 38.73, 0.53 30.18, 0.61 24.4 C0.7 18.63, 2.56 12.88, 6.86 8.7 C11.15 4.52, 22.3 0.57, 26.38 -0.69 C30.46 -1.95, 31.33 0.52, 31.31 1.14 M36.06 1.69 C41.22 3.3, 48.19 8.73, 50.84 14.08 C53.49 19.44, 53.37 28.44, 51.95 33.84 C50.54 39.24, 47.06 43.42, 42.36 46.47 C37.66 49.53, 29.21 52.32, 23.76 52.19 C18.3 52.07, 13.72 49.67, 9.63 45.72 C5.53 41.78, 0.13 34.35, -0.81 28.51 C-1.75 22.67, 0.89 15.35, 3.98 10.69 C7.08 6.04, 12.48 2.15, 17.76 0.58 C23.05 -0.98, 32.53 1.14, 35.66 1.32 C38.8 1.49, 36.64 1.03, 36.55 1.63" stroke="none" stroke-width="0" fill="#ffec99"></path><path d="M23.66 0.2 C29.17 -0.48, 37.46 2.19, 42.14 5.31 C46.81 8.44, 50.25 13.48, 51.72 18.98 C53.19 24.47, 53.33 32.99, 50.95 38.31 C48.57 43.62, 42.61 48.63, 37.44 50.87 C32.27 53.11, 25.37 53.14, 19.93 51.76 C14.48 50.38, 8.03 47.05, 4.79 42.6 C1.55 38.15, 0.01 30.7, 0.46 25.06 C0.92 19.41, 2.87 12.84, 7.51 8.74 C12.15 4.65, 24.04 1.67, 28.33 0.49 C32.61 -0.68, 33.09 1.49, 33.2 1.69 M24.28 -0.46 C29.7 -1.04, 37.23 1.66, 41.81 5.21 C46.39 8.76, 50.55 15.25, 51.75 20.85 C52.96 26.44, 51.21 33.6, 49.04 38.76 C46.86 43.93, 43.92 49.64, 38.71 51.84 C33.49 54.04, 23.53 53.79, 17.74 51.96 C11.94 50.12, 7.02 45.37, 3.92 40.82 C0.82 36.28, -1.7 30.15, -0.88 24.69 C-0.05 19.23, 4.79 12.29, 8.84 8.07 C12.9 3.86, 20.71 0.41, 23.46 -0.61 C26.21 -1.64, 25.03 1.35, 25.34 1.91" stroke="#1e1e1e" stroke-width="2" fill="none"></path></g><g stroke-linecap="round" transform="translate(151.44591371692582 644.7055042388013) rotate(0 44.5 44.5)"><path d="M22.25 0 C32.67 -1.33, 48.1 -0.76, 66.75 0 C78.83 -3.43, 87.14 10.17, 89 22.25 C87.85 31.54, 86.26 46.29, 89 66.75 C86.31 79.75, 81.52 86.74, 66.75 89 C57.95 92.81, 42.36 87.18, 22.25 89 C10.9 87.26, 1.62 82.15, 0 66.75 C-0.55 50.97, 2.72 33.68, 0 22.25 C-2.54 4.7, 3.88 -0.53, 22.25 0" stroke="none" stroke-width="0" fill="#a5d8ff"></path><path d="M22.25 0 C31.88 -0.54, 42.61 0.26, 66.75 0 M22.25 0 C37.53 0.52, 54.6 -0.24, 66.75 0 M66.75 0 C82.41 0.3, 88.25 7.25, 89 22.25 M66.75 0 C83.38 0.86, 90.67 7.07, 89 22.25 M89 22.25 C89.98 40.34, 90.5 54.79, 89 66.75 M89 22.25 C88.51 34.65, 88.58 47.82, 89 66.75 M89 66.75 C88.37 82.52, 79.91 89.79, 66.75 89 M89 66.75 C91.27 83.27, 79.43 89, 66.75 89 M66.75 89 C56.48 89.64, 44.39 87.02, 22.25 89 M66.75 89 C55.67 89.45, 43.18 90.12, 22.25 89 M22.25 89 C6.91 90.93, 0.77 82.69, 0 66.75 M22.25 89 C5.31 87.57, 1.68 83.29, 0 66.75 M0 66.75 C1.16 55.9, 1.66 46.32, 0 22.25 M0 66.75 C-1.19 49.12, -0.18 31.41, 0 22.25 M0 22.25 C-1.38 9.31, 8.06 -0.95, 22.25 0 M0 22.25 C0.89 9.25, 8.06 1.05, 22.25 0" stroke="#1e1e1e" stroke-width="2" fill="none"></path></g><g stroke-linecap="round" transform="translate(168.44591371692582 666.7055042388013) rotate(0 26.5 26.5)"><path d="M15.54 1.95 C20.29 -0.74, 27.07 0.05, 32.55 1.45 C38.02 2.86, 44.88 5.97, 48.4 10.39 C51.93 14.8, 54.02 22.09, 53.71 27.96 C53.4 33.84, 50.51 41.62, 46.55 45.63 C42.59 49.63, 35.77 51.49, 29.95 52 C24.12 52.51, 16.48 51.83, 11.59 48.69 C6.71 45.56, 2.04 38.63, 0.64 33.2 C-0.76 27.78, -0.03 21.48, 3.2 16.13 C6.43 10.77, 16.01 3.63, 20.03 1.07 C24.05 -1.48, 27.06 0.52, 27.32 0.81 M22.7 1.67 C27.85 0.5, 36.02 0.34, 40.63 3.03 C45.24 5.71, 48.44 12.22, 50.36 17.8 C52.27 23.37, 54.23 31.32, 52.11 36.47 C50 41.63, 42.96 46.32, 37.69 48.73 C32.41 51.14, 26 52.05, 20.47 50.93 C14.94 49.81, 8.13 46.4, 4.53 42 C0.94 37.61, -1.5 30.27, -1.1 24.54 C-0.69 18.81, 3.03 11.62, 6.96 7.63 C10.89 3.63, 19.6 1.54, 22.49 0.59 C25.38 -0.37, 23.92 1.62, 24.3 1.91" stroke="none" stroke-width="0" fill="#b2f2bb"></path><path d="M27.33 -0.5 C32.71 -0.58, 40.61 3.72, 44.79 7.71 C48.96 11.71, 51.69 18.03, 52.39 23.47 C53.09 28.91, 51.99 35.53, 48.99 40.38 C45.98 45.23, 39.75 50.67, 34.37 52.56 C28.99 54.45, 21.97 53.86, 16.72 51.7 C11.46 49.54, 5.54 44.69, 2.83 39.6 C0.13 34.51, -0.84 26.78, 0.5 21.17 C1.85 15.55, 5.85 9.54, 10.9 5.88 C15.95 2.23, 27.26 0.1, 30.79 -0.76 C34.31 -1.62, 32.32 0.14, 32.06 0.7 M21.41 1.1 C26.51 -0.09, 33.24 1.23, 38.48 4.14 C43.73 7.04, 50.96 13.29, 52.88 18.52 C54.8 23.76, 52.29 30.47, 50.01 35.55 C47.72 40.63, 44.04 45.99, 39.18 49 C34.33 52.01, 26.26 54.42, 20.89 53.62 C15.51 52.83, 10.61 48.85, 6.92 44.22 C3.23 39.59, -1.23 31.41, -1.26 25.84 C-1.28 20.27, 2.86 15.03, 6.79 10.8 C10.71 6.58, 19.98 1.95, 22.3 0.49 C24.61 -0.98, 20.75 1.36, 20.69 2.02" stroke="#1e1e1e" stroke-width="2" fill="none"></path></g><g stroke-linecap="round" transform="translate(284.4459137169258 569.7055042388013) rotate(0 44.5 44.5)"><path d="M22.25 0 C31.71 -3.35, 44.8 2.83, 66.75 0 C81.09 -2.44, 85.9 6.8, 89 22.25 C85.82 29.51, 88.44 38.18, 89 66.75 C87.58 82.46, 84.34 91.79, 66.75 89 C52.94 86.72, 33.78 89.03, 22.25 89 C10.77 86.61, 2.24 80.5, 0 66.75 C-3.03 48.56, -4.03 35.28, 0 22.25 C0.77 6.35, 9.82 2.15, 22.25 0" stroke="none" stroke-width="0" fill="#a5d8ff"></path><path d="M22.25 0 C35.32 1.17, 45.49 -1.1, 66.75 0 M22.25 0 C37.66 0.32, 51.87 0.09, 66.75 0 M66.75 0 C83.15 0.75, 90.45 7.11, 89 22.25 M66.75 0 C83.6 -0.3, 89.96 8.61, 89 22.25 M89 22.25 C89.08 36.52, 88.51 52.08, 89 66.75 M89 22.25 C88.59 34.51, 88.07 46.23, 89 66.75 M89 66.75 C90.98 83.05, 79.71 89, 66.75 89 M89 66.75 C88.11 80.9, 80.01 90.57, 66.75 89 M66.75 89 C50.4 89.42, 37.61 89.18, 22.25 89 M66.75 89 C52.9 90.29, 39.95 89.88, 22.25 89 M22.25 89 C5.59 87.76, 1.46 83.07, 0 66.75 M22.25 89 C5.65 88.37, 1.58 82.78, 0 66.75 M0 66.75 C1.51 57.03, 0.83 42.48, 0 22.25 M0 66.75 C-0.77 55.09, 0.25 41.06, 0 22.25 M0 22.25 C0.78 9.01, 7.98 0.91, 22.25 0 M0 22.25 C-1.12 6.82, 8.59 -0.49, 22.25 0" stroke="#1e1e1e" stroke-width="2" fill="none"></path></g><g stroke-linecap="round" transform="translate(301.4459137169258 591.7055042388013) rotate(0 26.5 26.5)"><path d="M17.07 1.47 C22.12 -1.03, 29.97 -0.96, 35.44 1 C40.91 2.96, 46.9 8.5, 49.89 13.22 C52.87 17.94, 54.3 23.8, 53.33 29.32 C52.36 34.84, 48.46 42.52, 44.08 46.35 C39.7 50.18, 32.52 52.07, 27.03 52.29 C21.55 52.52, 15.64 51.03, 11.15 47.72 C6.66 44.4, 1.32 37.98, 0.11 32.42 C-1.1 26.86, -0.14 19.82, 3.89 14.36 C7.92 8.89, 19.78 1.8, 24.29 -0.35 C28.81 -2.5, 31.04 1, 30.98 1.48 M37.37 2.25 C42.52 4.61, 49.93 11.05, 52.16 16.22 C54.38 21.38, 52.69 28.04, 50.74 33.25 C48.78 38.45, 45.2 44.3, 40.42 47.45 C35.64 50.61, 27.82 52.81, 22.05 52.17 C16.28 51.52, 9.47 47.84, 5.79 43.59 C2.12 39.33, 0.14 32.13, 0 26.64 C-0.15 21.16, 1.26 14.82, 4.93 10.68 C8.59 6.53, 16.12 3.13, 21.98 1.78 C27.85 0.42, 37.54 2, 40.13 2.52 C42.72 3.05, 38.08 4.36, 37.54 4.95" stroke="none" stroke-width="0" fill="#ffec99"></path><path d="M19.18 1.33 C24.26 -0.59, 32.57 -0.37, 37.78 2.07 C42.98 4.52, 47.95 10.69, 50.4 16.01 C52.85 21.34, 53.96 28.5, 52.49 34.01 C51.03 39.51, 46.34 45.82, 41.61 49.04 C36.89 52.26, 29.68 53.88, 24.14 53.32 C18.59 52.77, 12.21 49.95, 8.34 45.71 C4.46 41.47, 1.51 33.7, 0.89 27.89 C0.27 22.09, 1.03 15.55, 4.61 10.9 C8.2 6.24, 18.86 1.73, 22.39 -0.03 C25.91 -1.79, 25.62 -0.11, 25.76 0.32 M34.1 1.82 C39.41 2.64, 43.32 6.39, 46.36 10.69 C49.41 14.99, 52.65 21.77, 52.38 27.61 C52.11 33.45, 48.42 41.4, 44.74 45.72 C41.06 50.03, 35.95 53.13, 30.27 53.5 C24.6 53.87, 15.43 50.98, 10.67 47.96 C5.91 44.95, 3.05 40.73, 1.71 35.41 C0.36 30.1, 0.65 21.33, 2.58 16.08 C4.52 10.83, 8.39 6.23, 13.33 3.91 C18.27 1.59, 28.95 2.47, 32.24 2.16 C35.53 1.85, 33.35 2.03, 33.08 2.06" stroke="#1e1e1e" stroke-width="2" fill="none"></path></g><g stroke-linecap="round"><g transform="translate(147.94591371692582 546.2055042388013) rotate(0 -19.5 28)"><path d="M-0.64 0.44 C-7.11 9.77, -31.8 46.25, -38.12 55.54 M1.23 -0.37 C-5.39 9.16, -31.89 47.17, -38.6 56.83" stroke="#1e1e1e" stroke-width="2" fill="none"></path></g><g transform="translate(147.94591371692582 546.2055042388013) rotate(0 -19.5 28)"><path d="M-32.2 32.66 C-33.85 42.81, -37.67 50.87, -38.6 56.83 M-32.2 32.66 C-33.52 40.64, -35.59 47.72, -38.6 56.83" stroke="#1e1e1e" stroke-width="2" fill="none"></path></g><g transform="translate(147.94591371692582 546.2055042388013) rotate(0 -19.5 28)"><path d="M-18.16 42.43 C-24.83 48.98, -33.71 53.52, -38.6 56.83 M-18.16 42.43 C-23.87 47.32, -30.36 51.33, -38.6 56.83" stroke="#1e1e1e" stroke-width="2" fill="none"></path></g></g><mask></mask><g stroke-linecap="round"><g transform="translate(149.94591371692582 683.2055042388013) rotate(0 -21 -28.5)"><path d="M0.88 -0.46 C-5.93 -10.01, -34.28 -47.38, -41.51 -56.82 M-0.11 -1.75 C-6.98 -11.12, -34.97 -46.18, -42.2 -55.19" stroke="#1e1e1e" stroke-width="2" fill="none"></path></g><g transform="translate(149.94591371692582 683.2055042388013) rotate(0 -21 -28.5)"><path d="M-20.86 -42.17 C-26.95 -44.41, -31.15 -49.2, -42.2 -55.19 M-20.86 -42.17 C-26.45 -46.04, -32.52 -49.81, -42.2 -55.19" stroke="#1e1e1e" stroke-width="2" fill="none"></path></g><g transform="translate(149.94591371692582 683.2055042388013) rotate(0 -21 -28.5)"><path d="M-34.22 -31.5 C-37.05 -36.47, -37.95 -43.9, -42.2 -55.19 M-34.22 -31.5 C-36.01 -38.53, -38.18 -45.41, -42.2 -55.19" stroke="#1e1e1e" stroke-width="2" fill="none"></path></g></g><mask></mask><g stroke-linecap="round"><g transform="translate(282.9459137169258 600.2055042388013) rotate(0 -22.5 -25)"><path d="M0.49 0.18 C-7.23 -8.1, -38.03 -41.81, -45.45 -50.1 M-0.71 -0.78 C-8.7 -8.81, -39.36 -40.14, -46.64 -48.62" stroke="#1e1e1e" stroke-width="2" fill="none"></path></g><g transform="translate(282.9459137169258 600.2055042388013) rotate(0 -22.5 -25)"><path d="M-24.41 -37.18 C-32.37 -42.11, -41.14 -44.07, -46.64 -48.62 M-24.41 -37.18 C-31.11 -41.2, -39.07 -44.41, -46.64 -48.62" stroke="#1e1e1e" stroke-width="2" fill="none"></path></g><g transform="translate(282.9459137169258 600.2055042388013) rotate(0 -22.5 -25)"><path d="M-36.96 -25.57 C-40.19 -34.89, -44.27 -41.19, -46.64 -48.62 M-36.96 -25.57 C-39.51 -33.49, -43.24 -40.62, -46.64 -48.62" stroke="#1e1e1e" stroke-width="2" fill="none"></path></g></g><mask></mask><g stroke-linecap="round"><g transform="translate(283.9459137169258 620.2055042388013) rotate(0 -22 36)"><path d="M-0.45 -0.1 C-7.71 11.94, -35.95 60.46, -43.06 72.45 M1.51 -1.2 C-5.86 10.46, -36.02 58.19, -43.52 70.56" stroke="#1e1e1e" stroke-width="2" fill="none"></path></g><g transform="translate(283.9459137169258 620.2055042388013) rotate(0 -22 36)"><path d="M-38.4 46.09 C-40.28 55.98, -41.1 64.22, -43.52 70.56 M-38.4 46.09 C-39.22 53.57, -40.68 60.8, -43.52 70.56" stroke="#1e1e1e" stroke-width="2" fill="none"></path></g><g transform="translate(283.9459137169258 620.2055042388013) rotate(0 -22 36)"><path d="M-23.86 55.11 C-30.71 61.87, -36.5 67.03, -43.52 70.56 M-23.86 55.11 C-28.91 60, -34.51 64.66, -43.52 70.56" stroke="#1e1e1e" stroke-width="2" fill="none"></path></g></g><mask></mask><g stroke-linecap="round"><g transform="translate(283.38194237885205 511.09386048322705) rotate(0 -22.66602749331082 1.8888356244425495)"><path d="M0.43 0.21 C-7.02 0.83, -37.39 3.11, -44.93 3.69 M-0.01 -0.16 C-7.49 0.55, -37.67 3.61, -45.16 4.35" stroke="#1e1e1e" stroke-width="2" fill="none"></path></g><g transform="translate(283.38194237885205 511.09386048322705) rotate(0 -22.66602749331082 1.8888356244425495)"><path d="M-24.67 -5.52 C-29.68 -2.12, -35.58 0.62, -45.16 4.35 M-24.67 -5.52 C-30.32 -2.25, -36.9 0.13, -45.16 4.35" stroke="#1e1e1e" stroke-width="2" fill="none"></path></g><g transform="translate(283.38194237885205 511.09386048322705) rotate(0 -22.66602749331082 1.8888356244425495)"><path d="M-23.12 9.96 C-28.53 9.3, -34.84 7.98, -45.16 4.35 M-23.12 9.96 C-29.24 8.8, -36.27 6.73, -45.16 4.35" stroke="#1e1e1e" stroke-width="2" fill="none"></path></g></g><mask></mask><g transform="translate(294.71495612550757 486.7831754876866) rotate(0 12.005859375 20.69999999999999)"><text x="0" y="33.120703125" font-family="Helvetica, Segoe UI Emoji" font-size="36px" fill="#1e1e1e" text-anchor="start" style="white-space: pre;" direction="ltr" dominant-baseline="alphabetic">A</text></g><g transform="translate(308.5664173714197 728.9395691689369) rotate(0 12.005859375 20.69999999999999)"><text x="0" y="33.120703125" font-family="Helvetica, Segoe UI Emoji" font-size="36px" fill="#1e1e1e" text-anchor="start" style="white-space: pre;" direction="ltr" dominant-baseline="alphabetic">B</text></g><g stroke-linecap="round"><g transform="translate(304.7887461225346 746.5687016637344) rotate(0 -30.850981865895278 -14.481073120726364)"><path d="M0.5 0.62 C-9.87 -4.02, -50.64 -23.07, -61.2 -28.03 M-0.69 -0.1 C-11.28 -5.05, -51.9 -25.03, -61.89 -29.66" stroke="#1e1e1e" stroke-width="2" fill="none"></path></g><g transform="translate(304.7887461225346 746.5687016637344) rotate(0 -30.850981865895278 -14.481073120726364)"><path d="M-37.01 -27.21 C-45.62 -27.22, -54.75 -30.99, -61.89 -29.66 M-37.01 -27.21 C-44.41 -28.37, -51.46 -28.64, -61.89 -29.66" stroke="#1e1e1e" stroke-width="2" fill="none"></path></g><g transform="translate(304.7887461225346 746.5687016637344) rotate(0 -30.850981865895278 -14.481073120726364)"><path d="M-44.4 -11.79 C-50.12 -17.82, -56.39 -27.57, -61.89 -29.66 M-44.4 -11.79 C-49.62 -17.33, -54.55 -22.03, -61.89 -29.66" stroke="#1e1e1e" stroke-width="2" fill="none"></path></g></g><mask></mask><g transform="translate(81.90614243831124 415.39285551147015) rotate(0 89.5517578125 20.69999999999999)"><text x="0" y="33.120703125" font-family="Helvetica, Segoe UI Emoji" font-size="36px" fill="#1e1e1e" text-anchor="start" style="white-space: pre;" direction="ltr" dominant-baseline="alphabetic">B = O =&gt; A</text></g><g stroke-linecap="round" transform="translate(514.379661008076 575.0603673565547) rotate(0 44.5 44.5)"><path d="M22.25 0 C43.03 -1.2, 58.46 1.11, 66.75 0 C84.93 -2.39, 91.24 6.33, 89 22.25 C86.95 35, 85.95 52.66, 89 66.75 C89.77 80.51, 83.99 91.15, 66.75 89 C50.85 90.88, 33.16 89.14, 22.25 89 C7.49 87.06, -2.48 79.72, 0 66.75 C2.34 54.17, -0.94 44.66, 0 22.25 C3.06 10.46, 10.59 1.66, 22.25 0" stroke="none" stroke-width="0" fill="#a5d8ff"></path><path d="M22.25 0 C37.18 -0.49, 51.82 -0.13, 66.75 0 M22.25 0 C33.73 0.43, 45 0.36, 66.75 0 M66.75 0 C83.56 1.47, 87.13 7.42, 89 22.25 M66.75 0 C80.7 -0.68, 87.43 8.99, 89 22.25 M89 22.25 C88.3 38.49, 90.97 53.7, 89 66.75 M89 22.25 C88.36 36.81, 89.01 49.99, 89 66.75 M89 66.75 C87.17 80.34, 83.04 90.49, 66.75 89 M89 66.75 C87.23 80.96, 83.17 90.19, 66.75 89 M66.75 89 C57.31 90.44, 45.34 87.18, 22.25 89 M66.75 89 C53.45 89.76, 41.86 88.34, 22.25 89 M22.25 89 C8.19 90.59, 0.56 82.5, 0 66.75 M22.25 89 C6.3 88.4, 1.17 81.09, 0 66.75 M0 66.75 C-1.96 52.64, -1.46 43.87, 0 22.25 M0 66.75 C0.13 53.06, -0.31 40.88, 0 22.25 M0 22.25 C-1.5 6.4, 7.38 -1.26, 22.25 0 M0 22.25 C-0.91 7.98, 9.18 1.78, 22.25 0" stroke="#1e1e1e" stroke-width="2" fill="none"></path></g><g stroke-linecap="round" transform="translate(531.379661008076 597.0603673565547) rotate(0 26.5 26.5)"><path d="M19.91 0.52 C25.27 -1.21, 34.11 0.22, 39.12 2.6 C44.13 4.98, 47.91 9.47, 49.96 14.81 C52.02 20.14, 52.92 29.11, 51.45 34.61 C49.98 40.11, 45.92 44.8, 41.15 47.81 C36.38 50.83, 28.61 53.27, 22.83 52.68 C17.05 52.09, 10.31 48.45, 6.45 44.27 C2.59 40.08, -0.02 33.13, -0.34 27.56 C-0.65 21.99, 0.36 15.53, 4.58 10.87 C8.79 6.22, 20.52 1.15, 24.97 -0.38 C29.42 -1.91, 31.01 1.04, 31.26 1.69 M21.35 1.05 C26.82 -0.2, 35.29 2.12, 40.14 5.04 C44.99 7.95, 48.68 13.3, 50.47 18.54 C52.26 23.77, 52.55 31.15, 50.89 36.45 C49.23 41.75, 45.54 47.84, 40.51 50.33 C35.47 52.83, 26.65 52.63, 20.66 51.43 C14.68 50.24, 8 47.44, 4.61 43.18 C1.22 38.92, -0.13 31.37, 0.32 25.88 C0.77 20.38, 3.53 14.44, 7.32 10.23 C11.11 6.01, 20.81 2.12, 23.05 0.59 C25.3 -0.94, 20.71 0.72, 20.8 1.04" stroke="none" stroke-width="0" fill="#ffc9c9"></path><path d="M22.79 -0.04 C28.22 -1.25, 36.05 -0.07, 40.93 3.14 C45.81 6.35, 50.25 13.83, 52.07 19.21 C53.89 24.58, 54.01 30.36, 51.84 35.4 C49.67 40.44, 44.2 46.74, 39.03 49.47 C33.85 52.19, 26.24 52.77, 20.79 51.76 C15.35 50.74, 9.75 47.85, 6.36 43.36 C2.97 38.88, 0.48 30.52, 0.47 24.84 C0.45 19.15, 2.08 13.32, 6.29 9.24 C10.51 5.15, 22.28 1.92, 25.74 0.33 C29.2 -1.27, 27.06 -0.67, 27.06 -0.32 M37.4 2.08 C42.43 4.33, 49.89 12.18, 52.09 17.52 C54.29 22.85, 52.33 28.75, 50.61 34.1 C48.88 39.46, 46.45 46.35, 41.73 49.65 C37.02 52.96, 28.18 54.57, 22.3 53.92 C16.43 53.27, 10.01 49.99, 6.49 45.76 C2.98 41.52, 1.58 34.43, 1.2 28.49 C0.82 22.54, 0.92 14.83, 4.23 10.08 C7.55 5.33, 15.48 0.94, 21.07 0 C26.65 -0.94, 34.75 3.97, 37.74 4.44 C40.73 4.9, 38.95 2.42, 39.01 2.77" stroke="#1e1e1e" stroke-width="2" fill="none"></path></g><g stroke-linecap="round" transform="translate(645.879661008076 501.56036735655476) rotate(0 44.5 44.5)"><path d="M22.25 0 C36.8 -2.52, 46.89 -1.21, 66.75 0 C83.3 2.19, 90.91 4.88, 89 22.25 C88.98 31.17, 90.62 44.38, 89 66.75 C91.35 82.11, 78.32 89.36, 66.75 89 C50.25 87.25, 31.14 87.33, 22.25 89 C5.08 88.38, 2.76 83.79, 0 66.75 C3.3 59.07, 3.41 46.97, 0 22.25 C-0.62 9.7, 7.76 -2.16, 22.25 0" stroke="none" stroke-width="0" fill="#a5d8ff"></path><path d="M22.25 0 C32.82 -0.29, 44.95 -0.5, 66.75 0 M22.25 0 C38.66 0.56, 52.16 -0.17, 66.75 0 M66.75 0 C80.81 -0.59, 87.63 8.78, 89 22.25 M66.75 0 C82.67 1.04, 87.07 6.39, 89 22.25 M89 22.25 C89.5 35.65, 90.85 51.97, 89 66.75 M89 22.25 C88.26 39.26, 89.9 58.27, 89 66.75 M89 66.75 C87.46 81.04, 82.96 90.04, 66.75 89 M89 66.75 C87.94 83.35, 80.91 91.13, 66.75 89 M66.75 89 C49.58 88.97, 32.25 87.25, 22.25 89 M66.75 89 C49.57 89.59, 31.9 89.24, 22.25 89 M22.25 89 C6.45 88.48, 1.02 81.16, 0 66.75 M22.25 89 C6.83 91.22, -0.23 79.83, 0 66.75 M0 66.75 C-0.05 56.29, -1.49 48.19, 0 22.25 M0 66.75 C-0.48 57.15, 0.25 47.94, 0 22.25 M0 22.25 C-0.79 7.9, 8.95 1.55, 22.25 0 M0 22.25 C2.04 6.64, 5.86 2.22, 22.25 0" stroke="#1e1e1e" stroke-width="2" fill="none"></path></g><g stroke-linecap="round" transform="translate(662.879661008076 524.8195911061832) rotate(0 26.5 26.5)"><path d="M22.34 -0.73 C27.4 -1.62, 35.39 1.84, 40.27 4.95 C45.16 8.06, 50.02 12.65, 51.65 17.91 C53.29 23.18, 52.42 31.28, 50.1 36.53 C47.78 41.78, 42.69 46.91, 37.72 49.42 C32.76 51.94, 25.77 52.75, 20.31 51.61 C14.84 50.47, 8.41 47.02, 4.93 42.56 C1.45 38.11, -0.99 30.43, -0.6 24.89 C-0.21 19.35, 2.56 13.32, 7.25 9.32 C11.94 5.32, 23.74 2.42, 27.53 0.89 C31.32 -0.64, 29.96 -0.08, 29.99 0.14 M31.42 1.6 C36.63 2.36, 43.44 6.72, 47.18 11.23 C50.93 15.73, 54.27 23.27, 53.88 28.63 C53.49 33.99, 49.12 39.41, 44.86 43.4 C40.6 47.39, 33.71 51.76, 28.3 52.58 C22.9 53.39, 16.79 51.2, 12.43 48.31 C8.08 45.41, 3.74 40.51, 2.18 35.19 C0.61 29.88, 1.25 21.77, 3.07 16.41 C4.88 11.06, 7.99 5.76, 13.06 3.06 C18.13 0.36, 30.23 0.52, 33.5 0.22 C36.76 -0.09, 33.07 0.88, 32.65 1.21" stroke="none" stroke-width="0" fill="#b2f2bb"></path><path d="M22.74 1.32 C28.06 0.12, 36.07 0.15, 40.87 2.84 C45.68 5.54, 49.87 12.06, 51.55 17.47 C53.23 22.88, 52.87 29.86, 50.95 35.3 C49.03 40.75, 44.88 47.41, 40.04 50.14 C35.2 52.87, 27.67 52.77, 21.91 51.68 C16.15 50.58, 8.97 47.81, 5.47 43.58 C1.96 39.36, 0.71 32.21, 0.89 26.33 C1.07 20.44, 2.25 12.7, 6.55 8.27 C10.84 3.84, 22.67 0.95, 26.65 -0.25 C30.62 -1.45, 30.43 0.75, 30.41 1.08 M17.24 0.86 C22.26 -1.17, 32.2 0.34, 37.54 2.74 C42.87 5.14, 46.84 10.16, 49.24 15.29 C51.65 20.41, 52.85 27.97, 51.97 33.48 C51.08 38.98, 48.55 45.1, 43.92 48.31 C39.3 51.52, 30.05 53.2, 24.22 52.73 C18.39 52.26, 13.13 49.05, 8.96 45.52 C4.79 41.99, -0.05 37.17, -0.79 31.53 C-1.52 25.88, 1.26 16.51, 4.55 11.67 C7.85 6.83, 16.57 4, 18.97 2.47 C21.38 0.93, 19.06 2.3, 18.97 2.46" stroke="#1e1e1e" stroke-width="2" fill="none"></path></g><g stroke-linecap="round" transform="translate(648.879661008076 648.5603673565547) rotate(0 44.5 44.5)"><path d="M22.25 0 C34.36 2.43, 44.95 -2.3, 66.75 0 C78.86 -3.54, 88.47 8.19, 89 22.25 C91.88 34.8, 86.27 46.66, 89 66.75 C91.6 80.5, 82.45 89.07, 66.75 89 C53.46 87.96, 47.61 90.79, 22.25 89 C5.29 87.92, -1.18 84.64, 0 66.75 C-1.32 51.92, -0.36 30.37, 0 22.25 C2.2 4.09, 7.37 -1.5, 22.25 0" stroke="none" stroke-width="0" fill="#a5d8ff"></path><path d="M22.25 0 C35.59 -1.53, 47.86 2.12, 66.75 0 M22.25 0 C38.48 -0.3, 54.81 0.68, 66.75 0 M66.75 0 C82.53 0.9, 87.32 6.52, 89 22.25 M66.75 0 C82.5 2.03, 89.63 7.54, 89 22.25 M89 22.25 C91.25 32.56, 90.43 39.49, 89 66.75 M89 22.25 C88.55 32.56, 90.01 43.93, 89 66.75 M89 66.75 C88.07 83.12, 81 90.85, 66.75 89 M89 66.75 C90.8 82.93, 79.64 88.62, 66.75 89 M66.75 89 C54.53 89.34, 37.57 89.47, 22.25 89 M66.75 89 C49.37 88.94, 33.46 88.99, 22.25 89 M22.25 89 C6.9 90.93, -0.2 80.06, 0 66.75 M22.25 89 C5.23 87.81, 1.76 81.27, 0 66.75 M0 66.75 C-1.53 55.19, -0.41 44.58, 0 22.25 M0 66.75 C-0.39 55.91, 0.77 45.35, 0 22.25 M0 22.25 C1.77 6.75, 6.06 1.93, 22.25 0 M0 22.25 C-1.11 8.45, 7.78 2.14, 22.25 0" stroke="#1e1e1e" stroke-width="2" fill="none"></path></g><g stroke-linecap="round" transform="translate(665.879661008076 670.5603673565547) rotate(0 26.5 26.5)"><path d="M14.21 2.27 C18.79 -0.66, 26.07 -0.78, 31.47 0.48 C36.87 1.74, 43.11 5.41, 46.63 9.83 C50.14 14.25, 52.77 21.23, 52.57 27 C52.38 32.77, 49.35 40.22, 45.46 44.46 C41.58 48.69, 34.74 51.54, 29.24 52.39 C23.73 53.24, 16.97 52.42, 12.42 49.56 C7.88 46.71, 3.76 40.93, 1.97 35.26 C0.19 29.6, -0.74 21.17, 1.72 15.59 C4.17 10.02, 14.03 4.01, 16.71 1.8 C19.39 -0.41, 17.64 1.97, 17.81 2.35 M35.52 2.06 C40.65 3.08, 45.24 6.61, 47.87 11.25 C50.49 15.88, 51.82 24.14, 51.28 29.88 C50.74 35.62, 48.41 41.69, 44.62 45.69 C40.83 49.69, 34.08 53.55, 28.52 53.88 C22.95 54.21, 16.11 51.26, 11.23 47.66 C6.35 44.05, 0.42 37.91, -0.76 32.25 C-1.94 26.58, 1.21 18.73, 4.14 13.69 C7.08 8.64, 11.91 4.23, 16.85 1.99 C21.79 -0.25, 30.99 0.44, 33.8 0.24 C36.6 0.04, 33.71 0.01, 33.66 0.8" stroke="none" stroke-width="0" fill="#ffec99"></path><path d="M39.07 2.79 C43.81 5.09, 48.62 10.61, 50.83 16.03 C53.04 21.44, 54 29.94, 52.34 35.3 C50.68 40.67, 45.89 45.24, 40.87 48.21 C35.85 51.18, 27.76 53.75, 22.22 53.12 C16.67 52.48, 11.28 48.85, 7.59 44.4 C3.9 39.95, 0.26 32.18, 0.07 26.42 C-0.13 20.66, 2.77 14.06, 6.44 9.81 C10.11 5.57, 16.12 1.92, 22.1 0.94 C28.08 -0.04, 38.8 2.76, 42.33 3.93 C45.86 5.1, 43.5 7.57, 43.28 7.95 M22.2 1.4 C27.26 0.43, 35.06 2.48, 40.18 5.46 C45.3 8.44, 51.31 14.14, 52.91 19.27 C54.5 24.4, 52.07 31.25, 49.77 36.26 C47.47 41.27, 44.1 46.39, 39.12 49.32 C34.14 52.25, 25.38 55.04, 19.87 53.82 C14.36 52.61, 9.26 46.55, 6.05 42.03 C2.84 37.51, 0.39 32.12, 0.6 26.68 C0.81 21.24, 3.69 13.86, 7.28 9.39 C10.88 4.92, 19.43 1.35, 22.17 -0.14 C24.91 -1.63, 23.62 -0.29, 23.74 0.45" stroke="#1e1e1e" stroke-width="2" fill="none"></path></g><g stroke-linecap="round" transform="translate(781.879661008076 573.5603673565547) rotate(0 44.5 44.5)"><path d="M22.25 0 C35.59 -2.98, 53.83 1.34, 66.75 0 C80.51 2.41, 91.15 9.77, 89 22.25 C90.88 35.16, 89.14 50.32, 89 66.75 C87.06 79.11, 79.72 86.66, 66.75 89 C52.04 88.41, 40.41 92.55, 22.25 89 C10.46 92.17, 1.66 80.97, 0 66.75 C2.12 47.26, -0.12 32.92, 0 22.25 C2.44 10.32, 7.87 -0.26, 22.25 0" stroke="none" stroke-width="0" fill="#a5d8ff"></path><path d="M22.25 0 C33.35 -2.31, 41.52 -1.21, 66.75 0 M22.25 0 C34.76 0.15, 45.48 -0.75, 66.75 0 M66.75 0 C82.38 1.77, 89.55 7.53, 89 22.25 M66.75 0 C79.61 1.68, 88.41 9.63, 89 22.25 M89 22.25 C88 38.78, 90.73 50.85, 89 66.75 M89 22.25 C88.84 35.15, 89.01 47.45, 89 66.75 M89 66.75 C90.57 82.75, 79.89 88.67, 66.75 89 M89 66.75 C89.39 80.64, 80 91.18, 66.75 89 M66.75 89 C53.56 89.73, 38.1 88.2, 22.25 89 M66.75 89 C54.29 89.87, 42.25 88.14, 22.25 89 M22.25 89 C5.51 87.97, 1.53 81.31, 0 66.75 M22.25 89 C5.86 87.02, -0.39 79.38, 0 66.75 M0 66.75 C-0.84 56.09, -1.08 44.7, 0 22.25 M0 66.75 C0.55 51.98, -1.02 38.86, 0 22.25 M0 22.25 C-0.97 8.32, 7.73 1.86, 22.25 0 M0 22.25 C-1.53 8.85, 6.72 1.1, 22.25 0" stroke="#1e1e1e" stroke-width="2" fill="none"></path></g><g transform="translate(806.358176633076 597.3603673565547) rotate(0 20.021484375 20.69999999999999)"><text x="20.021484375" y="33.120703125" font-family="Helvetica, Segoe UI Emoji" font-size="36px" fill="#1e1e1e" text-anchor="middle" style="white-space: pre;" direction="ltr" dominant-baseline="alphabetic">??</text></g><g stroke-linecap="round"><g transform="translate(645.379661008076 550.0603673565547) rotate(0 -19.5 28)"><path d="M-0.46 -0.35 C-6.91 9.11, -33.49 47.34, -39.82 56.82 M1.49 -1.59 C-4.48 7.55, -30.81 45.78, -37.54 55.13" stroke="#1e1e1e" stroke-width="2" fill="none"></path></g><g transform="translate(645.379661008076 550.0603673565547) rotate(0 -19.5 28)"><path d="M-31.05 30.98 C-32.98 34.58, -32.37 41.88, -37.54 55.13 M-31.05 30.98 C-33.1 40.17, -35.46 47.68, -37.54 55.13" stroke="#1e1e1e" stroke-width="2" fill="none"></path></g><g transform="translate(645.379661008076 550.0603673565547) rotate(0 -19.5 28)"><path d="M-17.05 40.8 C-21.87 42.31, -24.15 47.58, -37.54 55.13 M-17.05 40.8 C-23.85 46.54, -31.04 50.65, -37.54 55.13" stroke="#1e1e1e" stroke-width="2" fill="none"></path></g></g><mask></mask><g stroke-linecap="round"><g transform="translate(647.379661008076 687.0603673565547) rotate(0 -21 -28.5)"><path d="M-0.82 0.82 C-7.65 -8.53, -34.4 -46.73, -41.43 -56.46 M0.95 0.2 C-5.95 -9.47, -35.15 -48.84, -42.08 -58.3" stroke="#1e1e1e" stroke-width="2" fill="none"></path></g><g transform="translate(647.379661008076 687.0603673565547) rotate(0 -21 -28.5)"><path d="M-21.26 -44.47 C-25.29 -47.28, -31.2 -53.51, -42.08 -58.3 M-21.26 -44.47 C-26.35 -47.76, -32.8 -50.61, -42.08 -58.3" stroke="#1e1e1e" stroke-width="2" fill="none"></path></g><g transform="translate(647.379661008076 687.0603673565547) rotate(0 -21 -28.5)"><path d="M-35.02 -34.31 C-35.43 -39.69, -37.74 -48.57, -42.08 -58.3 M-35.02 -34.31 C-36.64 -40.32, -39.58 -45.76, -42.08 -58.3" stroke="#1e1e1e" stroke-width="2" fill="none"></path></g></g><mask></mask><g stroke-linecap="round"><g transform="translate(780.379661008076 604.0603673565547) rotate(0 -22.5 -25)"><path d="M0.57 0.54 C-6.96 -8.02, -38.49 -42.29, -46.01 -50.54 M-0.6 -0.22 C-7.69 -8.69, -36.41 -40.86, -43.82 -49.28" stroke="#1e1e1e" stroke-width="2" fill="none"></path></g><g transform="translate(780.379661008076 604.0603673565547) rotate(0 -22.5 -25)"><path d="M-21.84 -37.37 C-26.11 -41.7, -33 -41.99, -43.82 -49.28 M-21.84 -37.37 C-31.27 -41.26, -39.2 -45.65, -43.82 -49.28" stroke="#1e1e1e" stroke-width="2" fill="none"></path></g><g transform="translate(780.379661008076 604.0603673565547) rotate(0 -22.5 -25)"><path d="M-34.64 -26.03 C-36.02 -33.05, -39.95 -35.96, -43.82 -49.28 M-34.64 -26.03 C-39.13 -34.32, -42.09 -43.12, -43.82 -49.28" stroke="#1e1e1e" stroke-width="2" fill="none"></path></g></g><mask></mask><g stroke-linecap="round"><g transform="translate(781.379661008076 624.0603673565547) rotate(0 -22 36)"><path d="M-1.01 -0.54 C-8.35 11.55, -36.41 60.96, -43.52 73.06 M0.67 1.79 C-6.85 13.52, -36.73 59.56, -44.22 71.49" stroke="#1e1e1e" stroke-width="2" fill="none"></path></g><g transform="translate(781.379661008076 624.0603673565547) rotate(0 -22 36)"><path d="M-38.77 47.09 C-41.45 56.31, -40.68 64.54, -44.22 71.49 M-38.77 47.09 C-40.9 55.55, -41.92 62.59, -44.22 71.49" stroke="#1e1e1e" stroke-width="2" fill="none"></path></g><g transform="translate(781.379661008076 624.0603673565547) rotate(0 -22 36)"><path d="M-24.36 56.31 C-32.09 62.21, -36.32 67.24, -44.22 71.49 M-24.36 56.31 C-30.81 62.06, -36.24 66.28, -44.22 71.49" stroke="#1e1e1e" stroke-width="2" fill="none"></path></g></g><mask></mask><g stroke-linecap="round"><g transform="translate(780.8156896700023 514.9487236009804) rotate(0 -22.66602749331082 1.8888356244425495)"><path d="M0.22 0.49 C-7.24 1.16, -37.51 3.19, -45.18 3.81 M-0.33 0.26 C-7.81 1.05, -38.14 4.01, -45.53 4.52" stroke="#1e1e1e" stroke-width="2" fill="none"></path></g><g transform="translate(780.8156896700023 514.9487236009804) rotate(0 -22.66602749331082 1.8888356244425495)"><path d="M-24.9 -5.05 C-28.5 -2.67, -33.79 -1.73, -45.53 4.52 M-24.9 -5.05 C-32.42 -1.11, -40.76 1.88, -45.53 4.52" stroke="#1e1e1e" stroke-width="2" fill="none"></path></g><g transform="translate(780.8156896700023 514.9487236009804) rotate(0 -22.66602749331082 1.8888356244425495)"><path d="M-23.57 10.45 C-27.43 9.48, -33 7.07, -45.53 4.52 M-23.57 10.45 C-31.56 8.62, -40.4 5.82, -45.53 4.52" stroke="#1e1e1e" stroke-width="2" fill="none"></path></g></g><mask></mask><g transform="translate(792.1487034166578 490.63803860544004) rotate(0 12.005859375 20.69999999999999)"><text x="0" y="33.120703125" font-family="Helvetica, Segoe UI Emoji" font-size="36px" fill="#1e1e1e" text-anchor="start" style="white-space: pre;" direction="ltr" dominant-baseline="alphabetic">A</text></g><g transform="translate(806.0001646625699 732.7944322866904) rotate(0 12.005859375 20.69999999999999)"><text x="0" y="33.120703125" font-family="Helvetica, Segoe UI Emoji" font-size="36px" fill="#1e1e1e" text-anchor="start" style="white-space: pre;" direction="ltr" dominant-baseline="alphabetic">B</text></g><g stroke-linecap="round"><g transform="translate(802.2224934136848 750.4235647814878) rotate(0 -30.850981865895278 -14.481073120726364)"><path d="M-0.31 1.16 C-10.34 -3.71, -50.82 -23.15, -61.24 -28.3 M1.73 0.72 C-8.33 -4.57, -51.57 -25.16, -61.94 -30.07" stroke="#1e1e1e" stroke-width="2" fill="none"></path></g><g transform="translate(802.2224934136848 750.4235647814878) rotate(0 -30.850981865895278 -14.481073120726364)"><path d="M-37.06 -27.69 C-40.48 -27.49, -46.63 -30.61, -61.94 -30.07 M-37.06 -27.69 C-43.76 -28.35, -48.22 -28.12, -61.94 -30.07" stroke="#1e1e1e" stroke-width="2" fill="none"></path></g><g transform="translate(802.2224934136848 750.4235647814878) rotate(0 -30.850981865895278 -14.481073120726364)"><path d="M-44.41 -12.25 C-46.37 -15.34, -50.94 -21.76, -61.94 -30.07 M-44.41 -12.25 C-49.48 -16.63, -52.19 -20.08, -61.94 -30.07" stroke="#1e1e1e" stroke-width="2" fill="none"></path></g></g><mask></mask><g transform="translate(523.9340447458123 412.9515998810819) rotate(0 178.83984375 20.69999999999999)"><text x="0" y="33.120703125" font-family="Helvetica, Segoe UI Emoji" font-size="36px" fill="#1e1e1e" text-anchor="start" style="white-space: pre;" direction="ltr" dominant-baseline="alphabetic">A   B   O =&gt; conflict!</text></g></svg>