<svg version="1.1" xmlns="http://www.w3.org/2000/svg" viewBox="0 0 1617.4232453609002 1316.591953308941" width="1617.4232453609002" height="1316.591953308941">
  <!-- svg-source:excalidraw -->
  
  <defs>
    <style class="style-fonts">
      @font-face {
        font-family: "Virgil";
        src: url("https://excalidraw.com/Virgil.woff2");
      }
      @font-face {
        font-family: "Cascadia";
        src: url("https://excalidraw.com/Cascadia.woff2");
      }
      @font-face {
        font-family: "Assistant";
        src: url("https://excalidraw.com/Assistant-Regular.woff2");
      }
    </style>
    
  </defs>
  <g stroke-linecap="round" transform="translate(48.88940524489465 188.55260416460905) rotate(0 44.5 44.499999999999986)"><path d="M22.25 0 C37.11 -2.78, 52.27 3.02, 66.75 0 C78.9 -1.61, 89.05 7.51, 89 22.25 C86.18 34.51, 90.28 51.42, 89 66.75 C88.27 84.5, 78.61 85.58, 66.75 89 C57.4 89.85, 46.59 89.84, 22.25 89 C8.48 91.52, 2.92 78.54, 0 66.75 C-3.13 57.23, -1.24 43.56, 0 22.25 C-0.56 7.52, 7.4 2.82, 22.25 0" stroke="none" stroke-width="0" fill="#a5d8ff"></path><path d="M22.25 0 C40.86 -1.12, 57.87 0.98, 66.75 0 M22.25 0 C36.11 -0.61, 50.32 -0.27, 66.75 0 M66.75 0 C83.03 -1.26, 87.13 9.4, 89 22.25 M66.75 0 C81.43 -1.82, 89.09 8.49, 89 22.25 M89 22.25 C87.82 38.66, 90.69 56.77, 89 66.75 M89 22.25 C89.34 36.46, 88.46 50.34, 89 66.75 M89 66.75 C90.36 79.87, 83.54 89.12, 66.75 89 M89 66.75 C90.29 82.66, 83.66 89.08, 66.75 89 M66.75 89 C51.57 89.41, 36.91 86.83, 22.25 89 M66.75 89 C48.75 87.87, 32.11 89.43, 22.25 89 M22.25 89 C9.03 89.08, 1.97 81.96, 0 66.75 M22.25 89 C8.6 90.73, 0.47 80.53, 0 66.75 M0 66.75 C1.39 50.62, -0.5 35.43, 0 22.25 M0 66.75 C0.06 54.94, -0.48 43.02, 0 22.25 M0 22.25 C-1.06 8.91, 6.13 -1.43, 22.25 0 M0 22.25 C-1.22 7.8, 6.43 -1.75, 22.25 0" stroke="#1e1e1e" stroke-width="2" fill="none"></path></g><g stroke-linecap="round" transform="translate(236.88520290188035 187.69005829501924) rotate(0 44.5 44.5)"><path d="M22.25 0 C38.87 -1.17, 55.91 0.66, 66.75 0 C80.96 -0.88, 91.79 6.16, 89 22.25 C88.42 35.41, 90.27 51.83, 89 66.75 C85.75 82.99, 83.68 89.54, 66.75 89 C55.45 88.67, 46.6 86.66, 22.25 89 C3.84 85.95, 1.2 84.29, 0 66.75 C0.91 55.23, 0.22 41.78, 0 22.25 C3.05 9.4, 6.35 -2.14, 22.25 0" stroke="none" stroke-width="0" fill="#a5d8ff"></path><path d="M22.25 0 C32.82 -1.2, 43.02 1.3, 66.75 0 M22.25 0 C30.64 0.18, 40.63 -0.17, 66.75 0 M66.75 0 C81.57 -1.52, 88.37 7.85, 89 22.25 M66.75 0 C81.25 1.57, 87.16 6.11, 89 22.25 M89 22.25 C88.45 35.74, 88.91 45.37, 89 66.75 M89 22.25 C88.45 32.86, 88.55 43.29, 89 66.75 M89 66.75 C89.62 80.63, 82.09 90.78, 66.75 89 M89 66.75 C87.05 80.42, 82.3 87.38, 66.75 89 M66.75 89 C49.58 90.17, 31.75 87.24, 22.25 89 M66.75 89 C53.12 88.36, 37.61 89.91, 22.25 89 M22.25 89 C7.77 89.21, -1.32 81.57, 0 66.75 M22.25 89 C5.32 88.16, 0.55 81, 0 66.75 M0 66.75 C0.03 57.67, -1.4 46.93, 0 22.25 M0 66.75 C-0.19 58.44, 1.12 48.85, 0 22.25 M0 22.25 C-1.07 6.17, 8.21 1.94, 22.25 0 M0 22.25 C-0.73 7.7, 6.38 2.08, 22.25 0" stroke="#1e1e1e" stroke-width="2" fill="none"></path></g><g stroke-linecap="round"><g transform="translate(233.46395443086664 233.74565284338115) rotate(0 -46.69081600482161 -0.6720622819821642)"><path d="M-0.31 0.57 C-15.9 0.34, -76.96 -0.1, -92.62 -0.43 M1.73 -0.17 C-14.04 -0.81, -77.58 -2.08, -93.17 -2.08" stroke="#1e1e1e" stroke-width="2" fill="none"></path></g><g transform="translate(233.46395443086664 233.74565284338115) rotate(0 -46.69081600482161 -0.6720622819821642)"><path d="M-69.58 -10.35 C-77.49 -6.01, -85.86 -5.61, -93.17 -2.08 M-69.58 -10.35 C-75.87 -7.87, -84.21 -5.22, -93.17 -2.08" stroke="#1e1e1e" stroke-width="2" fill="none"></path></g><g transform="translate(233.46395443086664 233.74565284338115) rotate(0 -46.69081600482161 -0.6720622819821642)"><path d="M-69.78 6.75 C-77.75 4.62, -86.05 -1.46, -93.17 -2.08 M-69.78 6.75 C-75.87 4.2, -84.15 1.82, -93.17 -2.08" stroke="#1e1e1e" stroke-width="2" fill="none"></path></g></g><mask></mask><g stroke-linecap="round" transform="translate(425.29527285151653 188.76564736965253) rotate(0 44.5 44.5)"><path d="M22.25 0 C32.21 3.49, 41.8 1.04, 66.75 0 C84.24 1.91, 92.31 5.54, 89 22.25 C85.98 39.96, 89.39 57.33, 89 66.75 C86.29 85.07, 82.81 92.59, 66.75 89 C51.07 85.6, 35.6 87.18, 22.25 89 C9.08 88.06, 1.9 78.15, 0 66.75 C0.02 54.81, 1.37 45.09, 0 22.25 C2.43 6.2, 8.97 2.83, 22.25 0" stroke="none" stroke-width="0" fill="#a5d8ff"></path><path d="M22.25 0 C35.48 -1.14, 53.07 -0.44, 66.75 0 M22.25 0 C36.04 -0.91, 51.83 -0.98, 66.75 0 M66.75 0 C82.57 -0.67, 88.89 8.55, 89 22.25 M66.75 0 C81.17 -1.62, 90.38 9.23, 89 22.25 M89 22.25 C88.2 40.28, 88.54 58.07, 89 66.75 M89 22.25 C88.95 36.21, 88.65 49.41, 89 66.75 M89 66.75 C89.97 82.67, 80.02 89.26, 66.75 89 M89 66.75 C87.44 80.37, 83.53 87.13, 66.75 89 M66.75 89 C55.07 87.8, 43.73 88.23, 22.25 89 M66.75 89 C50.35 88.89, 34.25 89.22, 22.25 89 M22.25 89 C5.42 89.1, -1.15 82.7, 0 66.75 M22.25 89 C9.67 89.79, -1.86 82.32, 0 66.75 M0 66.75 C-1.42 54.68, -0.46 40.82, 0 22.25 M0 66.75 C0.25 58.01, -0.22 47.34, 0 22.25 M0 22.25 C-0.15 5.54, 5.94 0.1, 22.25 0 M0 22.25 C0.64 9.68, 9.43 1.51, 22.25 0" stroke="#1e1e1e" stroke-width="2" fill="none"></path></g><g stroke-linecap="round"><g transform="translate(421.8740243805029 234.82124191801444) rotate(0 -46.69081600482161 -0.6720622819821642)"><path d="M-0.77 0.22 C-16.33 0.24, -78.49 -0.82, -93.73 -1.08 M1.03 -0.7 C-14.68 -0.96, -79.29 -3.18, -94.87 -3.06" stroke="#1e1e1e" stroke-width="2" fill="none"></path></g><g transform="translate(421.8740243805029 234.82124191801444) rotate(0 -46.69081600482161 -0.6720622819821642)"><path d="M-71.24 -11.22 C-77.26 -9.78, -83.51 -5.12, -94.87 -3.06 M-71.24 -11.22 C-77.47 -9.96, -85 -6.86, -94.87 -3.06" stroke="#1e1e1e" stroke-width="2" fill="none"></path></g><g transform="translate(421.8740243805029 234.82124191801444) rotate(0 -46.69081600482161 -0.6720622819821642)"><path d="M-71.52 5.88 C-77.3 2.75, -83.48 2.84, -94.87 -3.06 M-71.52 5.88 C-77.57 2, -85.02 -0.04, -94.87 -3.06" stroke="#1e1e1e" stroke-width="2" fill="none"></path></g></g><mask></mask><g stroke-linecap="round" transform="translate(613.8980704701563 188.22785283233588) rotate(0 44.5 44.5)"><path d="M22.25 0 C40.79 3.78, 51.71 -2.49, 66.75 0 C78.06 -2.69, 89.02 9.79, 89 22.25 C91.1 39.32, 89.5 55.07, 89 66.75 C89.82 80, 81.2 92.36, 66.75 89 C46.28 89.72, 29.57 87.3, 22.25 89 C10.85 86.54, 0.79 82.92, 0 66.75 C1.77 48.25, 1.7 29.91, 0 22.25 C3.57 5.19, 5.95 1.84, 22.25 0" stroke="none" stroke-width="0" fill="#a5d8ff"></path><path d="M22.25 0 C34.94 -0.43, 50.21 -1.23, 66.75 0 M22.25 0 C39.27 -0.51, 54.53 -0.46, 66.75 0 M66.75 0 C82.02 1.24, 88.92 6.6, 89 22.25 M66.75 0 C82.69 -0.86, 86.78 5.37, 89 22.25 M89 22.25 C90.71 36.54, 87.11 52.91, 89 66.75 M89 22.25 C88.88 36.92, 89.51 50.74, 89 66.75 M89 66.75 C87.56 80.24, 81.82 89.03, 66.75 89 M89 66.75 C90.49 81.11, 83.4 87.07, 66.75 89 M66.75 89 C52.02 87.25, 36.04 88.99, 22.25 89 M66.75 89 C55.71 89.95, 45.23 89.08, 22.25 89 M22.25 89 C6.27 87.31, 1.1 82.32, 0 66.75 M22.25 89 C7.71 88.49, -0.83 80.62, 0 66.75 M0 66.75 C2.06 51.17, 1.52 37.39, 0 22.25 M0 66.75 C0.38 49.84, 0.66 33, 0 22.25 M0 22.25 C1.69 5.69, 8.63 0.33, 22.25 0 M0 22.25 C0.89 7.68, 5.48 -1.25, 22.25 0" stroke="#1e1e1e" stroke-width="2" fill="none"></path></g><g stroke-linecap="round"><g transform="translate(610.4768219991427 234.2834473806978) rotate(0 -46.69081600482161 -0.6720622819821642)"><path d="M-0.44 -0.75 C-16.02 -0.67, -78.9 -0.68, -94.3 -0.62 M1.54 1.47 C-13.6 1.31, -76.26 -1.75, -92.07 -2.36" stroke="#1e1e1e" stroke-width="2" fill="none"></path></g><g transform="translate(610.4768219991427 234.2834473806978) rotate(0 -46.69081600482161 -0.6720622819821642)"><path d="M-68.23 -9.87 C-75.11 -9.74, -78.21 -5.59, -92.07 -2.36 M-68.23 -9.87 C-76.96 -7.17, -85.99 -3.6, -92.07 -2.36" stroke="#1e1e1e" stroke-width="2" fill="none"></path></g><g transform="translate(610.4768219991427 234.2834473806978) rotate(0 -46.69081600482161 -0.6720622819821642)"><path d="M-68.98 7.21 C-75.53 3.36, -78.45 3.53, -92.07 -2.36 M-68.98 7.21 C-77.6 3.44, -86.34 0.54, -92.07 -2.36" stroke="#1e1e1e" stroke-width="2" fill="none"></path></g></g><mask></mask><g stroke-linecap="round" transform="translate(802.3081404197925 189.30344190696917) rotate(0 44.49999999999994 44.5)"><path d="M22.25 0 C36.07 -2.01, 56.96 3.05, 66.75 0 C85.05 -2.51, 87.16 10.08, 89 22.25 C90.06 33.31, 88.85 50.91, 89 66.75 C92.18 81.04, 78.68 85.81, 66.75 89 C55.15 86.31, 37.46 90.1, 22.25 89 C10.61 89.78, -0.34 83.53, 0 66.75 C3.15 52.65, -1.88 44.84, 0 22.25 C3.34 8.99, 6.42 -3.58, 22.25 0" stroke="none" stroke-width="0" fill="#a5d8ff"></path><path d="M22.25 0 C35.19 1.21, 47.3 2.31, 66.75 0 M22.25 0 C35.11 0.67, 47.5 -0.36, 66.75 0 M66.75 0 C82.54 -0.75, 87.07 5.64, 89 22.25 M66.75 0 C82.15 -1.45, 89.61 9.71, 89 22.25 M89 22.25 C88.91 36.85, 89.19 47.27, 89 66.75 M89 22.25 C88.35 38.19, 89.19 55.48, 89 66.75 M89 66.75 C90.3 81.17, 83.16 87.32, 66.75 89 M89 66.75 C90.25 82.31, 79.67 90.2, 66.75 89 M66.75 89 C55.29 88.49, 46.12 88.43, 22.25 89 M66.75 89 C48.54 88.2, 32.02 89.41, 22.25 89 M22.25 89 C7.67 88.56, -0.72 80.75, 0 66.75 M22.25 89 C8.31 87.75, -0.85 83.68, 0 66.75 M0 66.75 C1.41 53.85, 0.93 42.76, 0 22.25 M0 66.75 C0.62 51.63, 0.38 38.4, 0 22.25 M0 22.25 C0.77 7.64, 5.73 -1.09, 22.25 0 M0 22.25 C0.94 9.58, 5.85 2.15, 22.25 0" stroke="#1e1e1e" stroke-width="2" fill="none"></path></g><g stroke-linecap="round"><g transform="translate(798.8868919487788 235.35903645533108) rotate(0 -46.69081600482161 -0.6720622819821642)"><path d="M0.52 0.94 C-14.69 0.57, -76.59 -1.13, -92.2 -1.53 M-0.66 0.39 C-15.85 0.14, -77.01 0.01, -92.53 -0.1" stroke="#1e1e1e" stroke-width="2" fill="none"></path></g><g transform="translate(798.8868919487788 235.35903645533108) rotate(0 -46.69081600482161 -0.6720622819821642)"><path d="M-69 -8.54 C-72.63 -4.58, -79.78 -4.23, -92.53 -0.1 M-69 -8.54 C-75.83 -6.36, -82.12 -3.88, -92.53 -0.1" stroke="#1e1e1e" stroke-width="2" fill="none"></path></g><g transform="translate(798.8868919487788 235.35903645533108) rotate(0 -46.69081600482161 -0.6720622819821642)"><path d="M-69.07 8.56 C-72.79 8.7, -79.92 5.23, -92.53 -0.1 M-69.07 8.56 C-75.92 5.79, -82.19 3.32, -92.53 -0.1" stroke="#1e1e1e" stroke-width="2" fill="none"></path></g></g><mask></mask><g stroke-linecap="round" transform="translate(427.6500222393847 328.6966062049568) rotate(0 44.5 44.5)"><path d="M22.25 0 C38.54 1.24, 50.62 1.24, 66.75 0 C82.05 1.92, 90.4 9.48, 89 22.25 C86.15 34.06, 84.89 38.76, 89 66.75 C88.42 79.82, 82.98 88.23, 66.75 89 C51.68 90.59, 32.19 86.18, 22.25 89 C4.64 86.72, 1.58 79.95, 0 66.75 C-0.4 50.1, 3.08 39.63, 0 22.25 C3.36 5.42, 5.44 -2.23, 22.25 0" stroke="none" stroke-width="0" fill="#a5d8ff"></path><path d="M22.25 0 C37.82 0.79, 53.81 1.27, 66.75 0 M22.25 0 C34.69 -0.09, 47.29 0.38, 66.75 0 M66.75 0 C81.01 0.12, 88.41 6.85, 89 22.25 M66.75 0 C82.48 0.17, 90.72 8.99, 89 22.25 M89 22.25 C89.48 36.99, 90.52 49.76, 89 66.75 M89 22.25 C89.36 36.2, 88.45 49.6, 89 66.75 M89 66.75 C89.88 80.22, 80.53 88.56, 66.75 89 M89 66.75 C88.35 79.74, 83.1 90.39, 66.75 89 M66.75 89 C53.2 90.35, 44.26 91, 22.25 89 M66.75 89 C52.23 88.94, 35.91 88.96, 22.25 89 M22.25 89 C8.83 90.39, 0.59 82.94, 0 66.75 M22.25 89 C7.78 90.53, 2.05 81.74, 0 66.75 M0 66.75 C0.06 54.07, 0.77 42.48, 0 22.25 M0 66.75 C0.55 49.08, -1.37 30.67, 0 22.25 M0 22.25 C-1.84 9.02, 8.17 1.01, 22.25 0 M0 22.25 C-2.08 5.13, 8.59 0.03, 22.25 0" stroke="#1e1e1e" stroke-width="2" fill="none"></path></g><g stroke-linecap="round"><g transform="translate(424.2287737683712 374.7522007533188) rotate(0 -47.427294735533735 -61.06331820037684)"><path d="M0.74 0.96 C-15.1 -19.48, -77.91 -101.65, -93.83 -122.25 M-0.34 0.41 C-16.34 -19.86, -78.37 -100.45, -94.24 -120.77" stroke="#1e1e1e" stroke-width="2" fill="none"></path></g><g transform="translate(424.2287737683712 374.7522007533188) rotate(0 -47.427294735533735 -61.06331820037684)"><path d="M-73.1 -107.44 C-79.96 -110.92, -90.18 -117.88, -94.24 -120.77 M-73.1 -107.44 C-79.29 -110.76, -84.28 -114.35, -94.24 -120.77" stroke="#1e1e1e" stroke-width="2" fill="none"></path></g><g transform="translate(424.2287737683712 374.7522007533188) rotate(0 -47.427294735533735 -61.06331820037684)"><path d="M-86.61 -96.97 C-88.13 -104.7, -92.96 -115.83, -94.24 -120.77 M-86.61 -96.97 C-89.25 -102.96, -90.75 -109.27, -94.24 -120.77" stroke="#1e1e1e" stroke-width="2" fill="none"></path></g></g><mask></mask><g stroke-linecap="round" transform="translate(616.2528198580246 328.1588116676402) rotate(0 44.5 44.5)"><path d="M22.25 0 C36.98 1.76, 52.19 1.9, 66.75 0 C78.26 -2.72, 88.72 5.17, 89 22.25 C87.64 37, 89.62 54.52, 89 66.75 C90.86 81.09, 84.03 89.58, 66.75 89 C49.33 85.97, 39.05 86.62, 22.25 89 C7.64 90.04, 0.21 81.41, 0 66.75 C2.63 55.13, -2.71 45.29, 0 22.25 C3.51 4.73, 5.29 -3.54, 22.25 0" stroke="none" stroke-width="0" fill="#a5d8ff"></path><path d="M22.25 0 C38.13 -0.33, 53.6 -1.31, 66.75 0 M22.25 0 C34.11 -0.03, 46.26 -0.37, 66.75 0 M66.75 0 C82.36 0.15, 90.49 8.78, 89 22.25 M66.75 0 C81.36 2.06, 90.09 7.51, 89 22.25 M89 22.25 C89.58 38.47, 87.29 58.31, 89 66.75 M89 22.25 C89.31 34.27, 88.34 47.43, 89 66.75 M89 66.75 C88.43 79.98, 82.9 90.21, 66.75 89 M89 66.75 C88.36 80.55, 82.92 87.34, 66.75 89 M66.75 89 C51.71 89.61, 33.25 90.35, 22.25 89 M66.75 89 C52.45 89.87, 37.03 89.85, 22.25 89 M22.25 89 C7.73 90.33, 1.78 81.72, 0 66.75 M22.25 89 C6.92 90.25, 0.44 81.93, 0 66.75 M0 66.75 C1.66 55.99, -0.92 43.31, 0 22.25 M0 66.75 C-0.5 54.77, 0.8 41.69, 0 22.25 M0 22.25 C-1.81 5.43, 8.44 0.02, 22.25 0 M0 22.25 C0.93 7.85, 5.98 0.73, 22.25 0" stroke="#1e1e1e" stroke-width="2" fill="none"></path></g><g stroke-linecap="round"><g transform="translate(612.8315713870109 374.2144062160021) rotate(0 -46.69081600482161 -0.6720622819821642)"><path d="M0.03 -0.49 C-15.8 -0.75, -78.22 -1.56, -93.94 -1.67 M-1.42 -1.79 C-17.54 -1.86, -80.1 -0.65, -95.18 -0.3" stroke="#1e1e1e" stroke-width="2" fill="none"></path></g><g transform="translate(612.8315713870109 374.2144062160021) rotate(0 -46.69081600482161 -0.6720622819821642)"><path d="M-71.87 -9.33 C-81.67 -6.78, -90.37 -3.91, -95.18 -0.3 M-71.87 -9.33 C-79.64 -6.71, -86.41 -3.47, -95.18 -0.3" stroke="#1e1e1e" stroke-width="2" fill="none"></path></g><g transform="translate(612.8315713870109 374.2144062160021) rotate(0 -46.69081600482161 -0.6720622819821642)"><path d="M-71.52 7.76 C-81.44 3.74, -90.28 0.02, -95.18 -0.3 M-71.52 7.76 C-79.35 4.92, -86.23 2.7, -95.18 -0.3" stroke="#1e1e1e" stroke-width="2" fill="none"></path></g></g><mask></mask><g stroke-linecap="round"><g transform="translate(798.2957264137985 242.723823762452) rotate(0 -45.21785854339737 65.61102348210949)"><path d="M-0.92 0.24 C-15.96 22.17, -75.8 109.52, -90.78 131.29 M0.79 -0.68 C-14.38 21.49, -76.49 110.75, -91.91 132.87" stroke="#1e1e1e" stroke-width="2" fill="none"></path></g><g transform="translate(798.2957264137985 242.723823762452) rotate(0 -45.21785854339737 65.61102348210949)"><path d="M-85.5 108.7 C-86.8 114.21, -88.7 120.32, -91.91 132.87 M-85.5 108.7 C-86.4 115.95, -88.99 122.74, -91.91 132.87" stroke="#1e1e1e" stroke-width="2" fill="none"></path></g><g transform="translate(798.2957264137985 242.723823762452) rotate(0 -45.21785854339737 65.61102348210949)"><path d="M-71.47 118.47 C-76.3 121.39, -81.76 125.03, -91.91 132.87 M-71.47 118.47 C-76.22 123.08, -82.62 127.21, -91.91 132.87" stroke="#1e1e1e" stroke-width="2" fill="none"></path></g></g><mask></mask><g stroke-linecap="round" transform="translate(619.1987347808731 10) rotate(0 44.5 44.5)"><path d="M22.25 0 C30.62 -2.53, 42.95 -2.38, 66.75 0 C84.92 2.31, 91.37 6.69, 89 22.25 C87.42 31.84, 88.19 39.55, 89 66.75 C89.12 81.2, 78.17 90.6, 66.75 89 C54.94 88.74, 44.82 86.57, 22.25 89 C4.66 90.61, 0.27 81.92, 0 66.75 C3.52 49.03, -0.92 36.08, 0 22.25 C-2.27 3.84, 10.82 0.93, 22.25 0" stroke="none" stroke-width="0" fill="#a5d8ff"></path><path d="M22.25 0 C38.15 1.39, 56.35 -0.83, 66.75 0 M22.25 0 C32.72 -0.19, 44.36 -0.05, 66.75 0 M66.75 0 C81.22 0.6, 90.82 9.05, 89 22.25 M66.75 0 C81.09 -1.43, 86.78 8.61, 89 22.25 M89 22.25 C87.17 31.61, 87.6 44.71, 89 66.75 M89 22.25 C87.76 31.91, 88.94 41.35, 89 66.75 M89 66.75 C87.32 80.94, 80.55 88.49, 66.75 89 M89 66.75 C87.44 83.65, 80.51 88.25, 66.75 89 M66.75 89 C51.03 87.04, 33.57 87.18, 22.25 89 M66.75 89 C49.86 88.31, 32.47 88.58, 22.25 89 M22.25 89 C6.21 89.24, -0.26 80.45, 0 66.75 M22.25 89 C7.36 88.79, 1.68 83.17, 0 66.75 M0 66.75 C-1.89 54.39, -1.28 43.63, 0 22.25 M0 66.75 C0.27 58.49, -0.51 48.86, 0 22.25 M0 22.25 C0 6.59, 6.52 1.94, 22.25 0 M0 22.25 C-1.85 7.81, 5.17 1.21, 22.25 0" stroke="#1e1e1e" stroke-width="2" fill="none"></path></g><g stroke-linecap="round"><g transform="translate(615.7774863098596 56.05559454836191) rotate(0 -45.21785854339731 78.13116190421573)"><path d="M0.97 -0.21 C-14.27 25.87, -75.4 129.73, -90.8 155.66 M0.02 -1.37 C-15.46 24.93, -77.09 130.62, -91.94 156.88" stroke="#1e1e1e" stroke-width="2" fill="none"></path></g><g transform="translate(615.7774863098596 56.05559454836191) rotate(0 -45.21785854339731 78.13116190421573)"><path d="M-87.62 132.25 C-89.65 140.31, -91.82 147.85, -91.94 156.88 M-87.62 132.25 C-88.85 137.32, -89.88 143.49, -91.94 156.88" stroke="#1e1e1e" stroke-width="2" fill="none"></path></g><g transform="translate(615.7774863098596 56.05559454836191) rotate(0 -45.21785854339731 78.13116190421573)"><path d="M-72.81 140.79 C-79.97 145.97, -87.32 150.52, -91.94 156.88 M-72.81 140.79 C-77.27 143.87, -81.6 148.15, -91.94 156.88" stroke="#1e1e1e" stroke-width="2" fill="none"></path></g></g><mask></mask><g stroke-linecap="round" transform="translate(807.6088047305093 11.075589074633285) rotate(0 44.5 44.5)"><path d="M22.25 0 C35.13 2.96, 43.71 -0.08, 66.75 0 C79.17 -2.93, 86.89 6.49, 89 22.25 C89.09 34.26, 85.55 48.63, 89 66.75 C85.79 83.69, 83.35 86.57, 66.75 89 C51.44 89.98, 41.93 88.7, 22.25 89 C9.37 87.89, 1.33 84.85, 0 66.75 C-2.01 52.24, 3.66 45.8, 0 22.25 C0.39 7.59, 5.49 1.16, 22.25 0" stroke="none" stroke-width="0" fill="#a5d8ff"></path><path d="M22.25 0 C38.18 -1.56, 54.57 -1.13, 66.75 0 M22.25 0 C33.05 0.48, 45.12 0.99, 66.75 0 M66.75 0 C81.15 -1.24, 87.07 8.45, 89 22.25 M66.75 0 C80.25 -1.36, 91.3 5.61, 89 22.25 M89 22.25 C87.21 31.32, 88.37 40.75, 89 66.75 M89 22.25 C88.25 34.05, 88.57 46.25, 89 66.75 M89 66.75 C87.64 83.38, 80.65 88.35, 66.75 89 M89 66.75 C90.95 79.36, 81.65 90.62, 66.75 89 M66.75 89 C59.48 88.61, 48.27 89.04, 22.25 89 M66.75 89 C55.33 88.99, 44.99 88.3, 22.25 89 M22.25 89 C7.37 88.82, 1.47 82.96, 0 66.75 M22.25 89 C6.86 89.26, 0.95 79.47, 0 66.75 M0 66.75 C-1.63 54.01, 1.66 41.14, 0 22.25 M0 66.75 C0.18 49.19, -0.26 33.43, 0 22.25 M0 22.25 C-1.61 7.76, 5.46 1.06, 22.25 0 M0 22.25 C-1.29 8.24, 5.85 -1.59, 22.25 0" stroke="#1e1e1e" stroke-width="2" fill="none"></path></g><g stroke-linecap="round"><g transform="translate(804.1875562594958 57.131183622995195) rotate(0 -46.69081600482161 -0.6720622819821642)"><path d="M-1.01 -0.93 C-16.64 -1.16, -78.73 -1.84, -94.14 -1.98 M0.65 1.2 C-14.56 1.17, -76 -0.46, -91.83 -0.78" stroke="#1e1e1e" stroke-width="2" fill="none"></path></g><g transform="translate(804.1875562594958 57.131183622995195) rotate(0 -46.69081600482161 -0.6720622819821642)"><path d="M-68.14 -8.78 C-76.12 -8.09, -82.03 -4.88, -91.83 -0.78 M-68.14 -8.78 C-73.42 -5.81, -80.73 -5.16, -91.83 -0.78" stroke="#1e1e1e" stroke-width="2" fill="none"></path></g><g transform="translate(804.1875562594958 57.131183622995195) rotate(0 -46.69081600482161 -0.6720622819821642)"><path d="M-68.54 8.32 C-76.33 4.4, -82.13 2.99, -91.83 -0.78 M-68.54 8.32 C-73.69 6.83, -80.89 3.02, -91.83 -0.78" stroke="#1e1e1e" stroke-width="2" fill="none"></path></g></g><mask></mask><g stroke-linecap="round" transform="translate(992.0628449383389 187.29268990822794) rotate(0 44.5 44.5)"><path d="M22.25 0 C35.88 4.31, 45.4 -1.87, 66.75 0 C78.41 -1.9, 86.52 7.04, 89 22.25 C91.5 31.54, 89.74 45.44, 89 66.75 C87.17 83.61, 78.7 91.67, 66.75 89 C50.96 86.82, 30.53 86.31, 22.25 89 C5.25 89.92, 1.35 82.43, 0 66.75 C1.81 57.55, 2.54 45.58, 0 22.25 C-3.43 6.41, 8.72 1.6, 22.25 0" stroke="none" stroke-width="0" fill="#a5d8ff"></path><path d="M22.25 0 C35.18 -0.33, 46.95 -1.41, 66.75 0 M22.25 0 C36.78 -1.12, 51.69 0.7, 66.75 0 M66.75 0 C80.65 -1.17, 87.01 6.7, 89 22.25 M66.75 0 C81.14 -1.69, 90.27 5.26, 89 22.25 M89 22.25 C90.71 35.53, 90.75 48.44, 89 66.75 M89 22.25 C88.67 40.05, 88.93 57.44, 89 66.75 M89 66.75 C87.49 80.88, 79.86 89.45, 66.75 89 M89 66.75 C88.39 79.33, 81.12 87.68, 66.75 89 M66.75 89 C50.21 87.56, 32.4 89.26, 22.25 89 M66.75 89 C52.47 89.67, 36.96 88.91, 22.25 89 M22.25 89 C5.58 89.55, 0.16 82.13, 0 66.75 M22.25 89 C6.23 88.76, -1.97 83.26, 0 66.75 M0 66.75 C-0.46 58.27, 0.63 47.72, 0 22.25 M0 66.75 C0.29 50.37, -0.99 34.4, 0 22.25 M0 22.25 C-1.87 6.92, 8.41 -1.54, 22.25 0 M0 22.25 C-1.47 9.37, 8.53 2.25, 22.25 0" stroke="#1e1e1e" stroke-width="2" fill="none"></path></g><g stroke-linecap="round"><g transform="translate(988.6415964673254 233.34828445658985) rotate(0 -46.69081600482161 -0.6720622819821642)"><path d="M-0.01 0.21 C-15.82 -0.02, -78.43 -0.72, -94.04 -0.91 M-1.47 -0.73 C-16.97 -1.36, -76.15 -2.42, -91.67 -2.8" stroke="#1e1e1e" stroke-width="2" fill="none"></path></g><g transform="translate(988.6415964673254 233.34828445658985) rotate(0 -46.69081600482161 -0.6720622819821642)"><path d="M-68 -10.85 C-76.42 -8.95, -84.85 -5.31, -91.67 -2.8 M-68 -10.85 C-76.55 -7.48, -84.53 -6.21, -91.67 -2.8" stroke="#1e1e1e" stroke-width="2" fill="none"></path></g><g transform="translate(988.6415964673254 233.34828445658985) rotate(0 -46.69081600482161 -0.6720622819821642)"><path d="M-68.36 6.25 C-76.71 1.79, -85 -0.94, -91.67 -2.8 M-68.36 6.25 C-76.72 3.83, -84.58 -0.69, -91.67 -2.8" stroke="#1e1e1e" stroke-width="2" fill="none"></path></g></g><mask></mask><g stroke-linecap="round"><g transform="translate(1022.3539986601866 177.1149297307976) rotate(0 -62.89334808048841 -62.53627566180103)"><path d="M-1.02 -0.89 C-22.06 -21.82, -104.83 -105.27, -125.49 -125.81 M0.65 1.26 C-20.59 -19.51, -105.29 -103.45, -126.29 -124.66" stroke="#1e1e1e" stroke-width="2" fill="none"></path></g><g transform="translate(1022.3539986601866 177.1149297307976) rotate(0 -62.89334808048841 -62.53627566180103)"><path d="M-103.62 -114.11 C-113.3 -117.63, -121.26 -120.63, -126.29 -124.66 M-103.62 -114.11 C-112.56 -117.86, -121.33 -121.49, -126.29 -124.66" stroke="#1e1e1e" stroke-width="2" fill="none"></path></g><g transform="translate(1022.3539986601866 177.1149297307976) rotate(0 -62.89334808048841 -62.53627566180103)"><path d="M-115.71 -102.01 C-120.98 -109.81, -124.56 -117.19, -126.29 -124.66 M-115.71 -102.01 C-120.1 -110.43, -124.28 -118.67, -126.29 -124.66" stroke="#1e1e1e" stroke-width="2" fill="none"></path></g></g><mask></mask><g transform="translate(1474.9719020628143 203.79459389935317) rotate(0 49.6619987487793 22.5)"><text x="0" y="31.536" font-family="Virgil, Segoe UI Emoji" font-size="36px" fill="#1e1e1e" text-anchor="start" style="white-space: pre;" direction="ltr" dominant-baseline="alphabetic">Dirty!</text></g><g stroke-linecap="round" transform="translate(46.46728549294312 556.0013985418796) rotate(0 44.5 44.5)"><path d="M22.25 0 C33.37 -1.68, 43.5 -0.17, 66.75 0 C82.78 2.21, 88.99 10.94, 89 22.25 C89.63 34, 89.56 53.56, 89 66.75 C88.34 81.3, 84.67 90.02, 66.75 89 C51.1 86.62, 38.7 91.75, 22.25 89 C10.52 86.01, 1 81.92, 0 66.75 C1.27 49.96, -0.18 38.74, 0 22.25 C-0.39 4.61, 6.64 -3.57, 22.25 0" stroke="none" stroke-width="0" fill="#a5d8ff"></path><path d="M22.25 0 C33.61 1.31, 47.02 1.01, 66.75 0 M22.25 0 C34.82 0.09, 46.88 0.09, 66.75 0 M66.75 0 C81.12 0.85, 87.52 8.13, 89 22.25 M66.75 0 C80.53 -1.8, 89.9 9.28, 89 22.25 M89 22.25 C90.86 35, 89.58 51.06, 89 66.75 M89 22.25 C88.53 34.31, 88.46 47.11, 89 66.75 M89 66.75 C90.52 81.48, 81.69 89.19, 66.75 89 M89 66.75 C90.67 83.52, 80.64 88.35, 66.75 89 M66.75 89 C50.83 88.58, 34.42 87.5, 22.25 89 M66.75 89 C49.45 89.03, 33.58 87.96, 22.25 89 M22.25 89 C8.68 89.54, -0.04 83.23, 0 66.75 M22.25 89 C5.72 90.38, -1.75 82.6, 0 66.75 M0 66.75 C0 57.02, -0.97 44.23, 0 22.25 M0 66.75 C-0.32 51.03, 0.03 35.57, 0 22.25 M0 22.25 C0.21 8.86, 7.98 1.96, 22.25 0 M0 22.25 C-0.24 8.72, 6.4 0.54, 22.25 0" stroke="#1e1e1e" stroke-width="2" fill="none"></path></g><g stroke-linecap="round" transform="translate(234.46308314992882 555.1388526722899) rotate(0 44.5 44.5)"><path d="M22.25 0 C38.34 0.78, 58.32 2.42, 66.75 0 C81.57 3.53, 90.48 9.98, 89 22.25 C89 34.67, 88.36 44.9, 89 66.75 C92.08 82.61, 81.08 90.98, 66.75 89 C54.8 92.1, 51.15 85.64, 22.25 89 C8.41 89.34, 1.84 85.15, 0 66.75 C0.15 54.23, -0.84 32.43, 0 22.25 C-0.78 3.85, 7.33 1.23, 22.25 0" stroke="none" stroke-width="0" fill="#a5d8ff"></path><path d="M22.25 0 C39.51 0.97, 54.83 0.37, 66.75 0 M22.25 0 C36.05 0.04, 48.37 0.39, 66.75 0 M66.75 0 C80.1 0.71, 88.08 5.85, 89 22.25 M66.75 0 C82.49 1.86, 89.2 9.12, 89 22.25 M89 22.25 C89.59 34.93, 89.13 46.63, 89 66.75 M89 22.25 C87.7 36.14, 89.38 51.76, 89 66.75 M89 66.75 C89.11 81.77, 83.03 90.68, 66.75 89 M89 66.75 C88.06 80.93, 83.16 90.92, 66.75 89 M66.75 89 C52.04 87.18, 37.9 87.36, 22.25 89 M66.75 89 C55.09 88.19, 43.6 89.35, 22.25 89 M22.25 89 C7.38 90.65, -1.48 82.78, 0 66.75 M22.25 89 C5.67 90.02, -0.88 80.59, 0 66.75 M0 66.75 C-1.12 57.83, 1.01 48.27, 0 22.25 M0 66.75 C0.28 56.75, 0.15 47.83, 0 22.25 M0 22.25 C0.56 9.38, 7.2 1.13, 22.25 0 M0 22.25 C-1.02 7.95, 6.36 -0.24, 22.25 0" stroke="#1e1e1e" stroke-width="2" fill="none"></path></g><g stroke-linecap="round"><g transform="translate(231.04183467891505 601.1944472206517) rotate(0 -46.69081600482161 -0.6720622819821642)"><path d="M0.8 -0.36 C-14.85 -0.66, -77.35 -1.24, -92.94 -1.39 M-0.23 -1.6 C-16.09 -1.73, -78.17 -0.16, -93.65 0.12" stroke="#1e1e1e" stroke-width="2" fill="none"></path></g><g transform="translate(231.04183467891505 601.1944472206517) rotate(0 -46.69081600482161 -0.6720622819821642)"><path d="M-70.35 -8.94 C-79.83 -4.58, -88.2 -0.73, -93.65 0.12 M-70.35 -8.94 C-77.7 -5.71, -85.37 -2.99, -93.65 0.12" stroke="#1e1e1e" stroke-width="2" fill="none"></path></g><g transform="translate(231.04183467891505 601.1944472206517) rotate(0 -46.69081600482161 -0.6720622819821642)"><path d="M-69.98 8.16 C-79.65 5.99, -88.17 3.31, -93.65 0.12 M-69.98 8.16 C-77.55 6.13, -85.33 3.59, -93.65 0.12" stroke="#1e1e1e" stroke-width="2" fill="none"></path></g></g><mask></mask><g stroke-linecap="round" transform="translate(422.8731530995651 556.2144417469231) rotate(0 44.5 44.5)"><path d="M22.25 0 C36.29 3.03, 51.83 2.07, 66.75 0 C80.06 0.06, 85.56 7.4, 89 22.25 C91.94 37.8, 88.35 53.29, 89 66.75 C85.77 78.66, 79.92 86.41, 66.75 89 C50.11 88.68, 33.32 91.9, 22.25 89 C9.36 91.06, -1.17 82.19, 0 66.75 C-0.69 45.82, 0 33.27, 0 22.25 C-0.57 8.67, 8 -1.59, 22.25 0" stroke="none" stroke-width="0" fill="#a5d8ff"></path><path d="M22.25 0 C38.5 0.97, 55.06 1.08, 66.75 0 M22.25 0 C35.2 0.17, 49.17 -0.97, 66.75 0 M66.75 0 C82.37 1.62, 89.17 8.9, 89 22.25 M66.75 0 C80.54 1.76, 87.88 7.71, 89 22.25 M89 22.25 C89.6 36.9, 87.32 53.11, 89 66.75 M89 22.25 C89.39 31.73, 90.06 41.86, 89 66.75 M89 66.75 C88.18 81.02, 82.95 90.67, 66.75 89 M89 66.75 C89.94 82.13, 80.89 89.54, 66.75 89 M66.75 89 C56.49 87.47, 47.9 89.13, 22.25 89 M66.75 89 C57.36 89.94, 47.27 89.72, 22.25 89 M22.25 89 C5.9 89.88, -0.76 80.72, 0 66.75 M22.25 89 C5.53 88.78, 2.21 80.25, 0 66.75 M0 66.75 C-1.8 51.43, -0.66 37.02, 0 22.25 M0 66.75 C0.24 55.17, -0.15 42.2, 0 22.25 M0 22.25 C-0.89 7.88, 6.49 -0.21, 22.25 0 M0 22.25 C2.11 7.3, 6.81 -0.86, 22.25 0" stroke="#1e1e1e" stroke-width="2" fill="none"></path></g><g stroke-linecap="round"><g transform="translate(419.45190462855135 602.2700362952851) rotate(0 -46.69081600482161 -0.6720622819821642)"><path d="M0.68 0.09 C-14.83 -0.11, -76.91 -1.1, -92.64 -1.25 M-0.42 -0.91 C-16.07 -0.89, -77.5 0.67, -93.19 0.33" stroke="#1e1e1e" stroke-width="2" fill="none"></path></g><g transform="translate(419.45190462855135 602.2700362952851) rotate(0 -46.69081600482161 -0.6720622819821642)"><path d="M-69.74 -8.33 C-77.5 -4.04, -85.39 -2.83, -93.19 0.33 M-69.74 -8.33 C-78.3 -6.06, -85.48 -1.5, -93.19 0.33" stroke="#1e1e1e" stroke-width="2" fill="none"></path></g><g transform="translate(419.45190462855135 602.2700362952851) rotate(0 -46.69081600482161 -0.6720622819821642)"><path d="M-69.66 8.77 C-77.43 7.3, -85.36 2.75, -93.19 0.33 M-69.66 8.77 C-78.12 5.18, -85.33 3.88, -93.19 0.33" stroke="#1e1e1e" stroke-width="2" fill="none"></path></g></g><mask></mask><g stroke-linecap="round" transform="translate(611.4759507182048 555.6766472096065) rotate(0 44.5 44.5)"><path d="M22.25 0 C38.44 -0.51, 54.23 -0.58, 66.75 0 C82.54 -0.66, 88.71 10.5, 89 22.25 C85.65 33.94, 87.22 48.88, 89 66.75 C92.47 84.69, 78.59 90, 66.75 89 C54.93 91.86, 38.04 90.41, 22.25 89 C10.66 88.61, -2.81 80.81, 0 66.75 C-0.55 59.07, 0.6 47.29, 0 22.25 C0.97 4.66, 8.19 -1, 22.25 0" stroke="none" stroke-width="0" fill="#a5d8ff"></path><path d="M22.25 0 C38.27 -0.74, 54.84 -1.76, 66.75 0 M22.25 0 C37.58 1.16, 52.21 1.09, 66.75 0 M66.75 0 C80.68 1.53, 88.02 7.67, 89 22.25 M66.75 0 C83.14 -0.24, 90.97 8.16, 89 22.25 M89 22.25 C86.85 33.32, 88.53 41.47, 89 66.75 M89 22.25 C88.91 35.74, 90.01 50.63, 89 66.75 M89 66.75 C89.82 82.06, 80.98 89.47, 66.75 89 M89 66.75 C87.07 83.31, 79.85 88.25, 66.75 89 M66.75 89 C54.27 90.37, 45.9 89.06, 22.25 89 M66.75 89 C48.97 89.71, 32.34 88.84, 22.25 89 M22.25 89 C5.78 88.81, 1.92 80.42, 0 66.75 M22.25 89 C8.32 90.11, 1.07 79.76, 0 66.75 M0 66.75 C-0.26 54.1, 1.54 41.61, 0 22.25 M0 66.75 C-0.4 49.26, -0.41 31.2, 0 22.25 M0 22.25 C1.84 7.32, 6.89 -0.75, 22.25 0 M0 22.25 C0.36 8.18, 8.83 -0.01, 22.25 0" stroke="#1e1e1e" stroke-width="2" fill="none"></path></g><g stroke-linecap="round"><g transform="translate(608.054702247191 601.7322417579685) rotate(0 -46.69081600482161 -0.6720622819821642)"><path d="M-0.28 0.51 C-16.12 0.34, -78.66 -0.45, -94.27 -0.92 M1.77 -0.27 C-13.75 -0.81, -75.9 -2.61, -92.02 -2.81" stroke="#1e1e1e" stroke-width="2" fill="none"></path></g><g transform="translate(608.054702247191 601.7322417579685) rotate(0 -46.69081600482161 -0.6720622819821642)"><path d="M-68.35 -10.85 C-76.06 -9.47, -84.78 -6, -92.02 -2.81 M-68.35 -10.85 C-73.48 -8.14, -79.26 -6.33, -92.02 -2.81" stroke="#1e1e1e" stroke-width="2" fill="none"></path></g><g transform="translate(608.054702247191 601.7322417579685) rotate(0 -46.69081600482161 -0.6720622819821642)"><path d="M-68.72 6.25 C-76.32 1.43, -84.89 -1.28, -92.02 -2.81 M-68.72 6.25 C-73.84 5.17, -79.54 3.19, -92.02 -2.81" stroke="#1e1e1e" stroke-width="2" fill="none"></path></g></g><mask></mask><g stroke-linecap="round" transform="translate(799.886020667841 556.7522362842399) rotate(0 44.5 44.5)"><path d="M22.25 0 C36.62 -0.65, 48.8 3.09, 66.75 0 C82.61 -0.5, 90.98 4.18, 89 22.25 C92.1 35.09, 85.64 42.73, 89 66.75 C89.34 83.42, 85.15 90.95, 66.75 89 C54.09 88.75, 32.15 88.36, 22.25 89 C3.85 88.91, 1.23 81.02, 0 66.75 C0.84 49.09, 0.64 35.95, 0 22.25 C-0.31 6.7, 4.96 -3.55, 22.25 0" stroke="none" stroke-width="0" fill="#a5d8ff"></path><path d="M22.25 0 C35.27 -0.59, 45.3 1.11, 66.75 0 M22.25 0 C38.74 0.44, 55.66 -0.2, 66.75 0 M66.75 0 C82.93 -0.21, 90.71 8.06, 89 22.25 M66.75 0 C79.62 -1.88, 86.88 5.37, 89 22.25 M89 22.25 C89.17 40.43, 90.66 54.88, 89 66.75 M89 22.25 C89.72 34.58, 89 46.66, 89 66.75 M89 66.75 C87.32 83.09, 80.07 88.35, 66.75 89 M89 66.75 C87.63 82, 82.11 86.94, 66.75 89 M66.75 89 C52.23 87.51, 35.61 87.47, 22.25 89 M66.75 89 C50.61 88.71, 37.08 88.23, 22.25 89 M22.25 89 C8.2 89.97, 0.93 80, 0 66.75 M22.25 89 C7.16 88.49, 0.54 81.17, 0 66.75 M0 66.75 C1.64 52.73, 0.81 38.24, 0 22.25 M0 66.75 C1.12 52.31, -0.06 37.6, 0 22.25 M0 22.25 C0.31 8.08, 8.65 -0.01, 22.25 0 M0 22.25 C2.25 8.36, 9.05 -0.97, 22.25 0" stroke="#1e1e1e" stroke-width="2" fill="none"></path></g><g stroke-linecap="round"><g transform="translate(796.4647721968272 602.8078308326017) rotate(0 -46.69081600482161 -0.6720622819821642)"><path d="M-0.55 -0.94 C-15.89 -1.07, -77.46 -0.46, -92.91 -0.37 M1.36 1.18 C-14.01 0.69, -77.72 -1.4, -93.61 -1.99" stroke="#1e1e1e" stroke-width="2" fill="none"></path></g><g transform="translate(796.4647721968272 602.8078308326017) rotate(0 -46.69081600482161 -0.6720622819821642)"><path d="M-69.84 -9.72 C-76.75 -7.3, -78.94 -6.16, -93.61 -1.99 M-69.84 -9.72 C-79.26 -6.52, -86.99 -3.86, -93.61 -1.99" stroke="#1e1e1e" stroke-width="2" fill="none"></path></g><g transform="translate(796.4647721968272 602.8078308326017) rotate(0 -46.69081600482161 -0.6720622819821642)"><path d="M-70.43 7.37 C-77.27 5.93, -79.32 3.2, -93.61 -1.99 M-70.43 7.37 C-79.55 4.17, -87.06 0.44, -93.61 -1.99" stroke="#1e1e1e" stroke-width="2" fill="none"></path></g></g><mask></mask><g stroke-linecap="round" transform="translate(989.6407251863875 554.7414842854985) rotate(0 44.5 44.5)"><path d="M22.25 0 C41.39 -0.52, 51.24 -0.91, 66.75 0 C78.01 -0.09, 90.23 6.85, 89 22.25 C90.1 34.39, 89.9 51.06, 89 66.75 C88.69 80.87, 79.12 85.45, 66.75 89 C55.18 91.38, 42.93 90.15, 22.25 89 C8.59 87.12, -2.09 78.38, 0 66.75 C-1.01 50.01, 2.43 39.6, 0 22.25 C-1.45 5.87, 4.05 2.53, 22.25 0" stroke="none" stroke-width="0" fill="#a5d8ff"></path><path d="M22.25 0 C39.17 1.43, 57.38 -0.84, 66.75 0 M22.25 0 C34.75 -0.13, 46.13 -0.14, 66.75 0 M66.75 0 C79.9 1.51, 87.49 6.76, 89 22.25 M66.75 0 C80.21 0.41, 89.53 5.36, 89 22.25 M89 22.25 C90.77 36.94, 90.32 53.07, 89 66.75 M89 22.25 C88.01 37.47, 89.79 52.3, 89 66.75 M89 66.75 C89.79 82.55, 82.52 87.41, 66.75 89 M89 66.75 C88.74 81.08, 82.12 88.59, 66.75 89 M66.75 89 C54.9 88.91, 40.26 88.24, 22.25 89 M66.75 89 C53.28 88.9, 37.71 88.58, 22.25 89 M22.25 89 C7.73 89.66, 1.23 81.58, 0 66.75 M22.25 89 C9.67 89.95, 1.64 80.61, 0 66.75 M0 66.75 C0.95 52.97, 0.27 41.62, 0 22.25 M0 66.75 C-0.84 51.33, -0.4 36.8, 0 22.25 M0 22.25 C1.93 9.14, 5.75 0.55, 22.25 0 M0 22.25 C0.22 8.59, 9.7 1.24, 22.25 0" stroke="#1e1e1e" stroke-width="2" fill="none"></path></g><g stroke-linecap="round"><g transform="translate(986.2194767153737 600.7970788338605) rotate(0 -46.69081600482161 -0.6720622819821642)"><path d="M0.87 1.01 C-14.79 0.71, -78.3 -1.46, -93.87 -1.68 M-0.13 0.49 C-15.99 0.36, -79.62 0.12, -95.08 -0.33" stroke="#1e1e1e" stroke-width="2" fill="none"></path></g><g transform="translate(986.2194767153737 600.7970788338605) rotate(0 -46.69081600482161 -0.6720622819821642)"><path d="M-71.47 -8.54 C-76.99 -6.68, -86.45 -1.98, -95.08 -0.33 M-71.47 -8.54 C-80.79 -5.1, -90.39 -1.43, -95.08 -0.33" stroke="#1e1e1e" stroke-width="2" fill="none"></path></g><g transform="translate(986.2194767153737 600.7970788338605) rotate(0 -46.69081600482161 -0.6720622819821642)"><path d="M-71.71 8.56 C-77.17 5.2, -86.56 4.67, -95.08 -0.33 M-71.71 8.56 C-81.01 5.44, -90.51 2.55, -95.08 -0.33" stroke="#1e1e1e" stroke-width="2" fill="none"></path></g></g><mask></mask><g transform="translate(1472.5497823108626 571.2433882766238) rotate(0 49.6619987487793 22.5)"><text x="0" y="31.536" font-family="Virgil, Segoe UI Emoji" font-size="36px" fill="#1e1e1e" text-anchor="start" style="white-space: pre;" direction="ltr" dominant-baseline="alphabetic">Dirty!</text></g><g stroke-linecap="round" transform="translate(547.7293910250157 800.619333236792) rotate(0 44.5 44.5)"><path d="M22.25 0 C33.31 -2.72, 49.19 3.19, 66.75 0 C82.24 0.98, 92.35 7.88, 89 22.25 C90.48 30.4, 89.14 41.47, 89 66.75 C90.34 79.37, 78.37 88.95, 66.75 89 C54.4 86.33, 32.48 89.25, 22.25 89 C7.32 89.24, 1.32 81.32, 0 66.75 C1.75 50.77, -2.72 31.87, 0 22.25 C-1.54 6.21, 9.43 -1.02, 22.25 0" stroke="none" stroke-width="0" fill="#a5d8ff"></path><path d="M22.25 0 C35.55 -0.74, 44.64 0.46, 66.75 0 M22.25 0 C37.75 1.35, 52.04 0.72, 66.75 0 M66.75 0 C83.24 1.92, 90.66 8.75, 89 22.25 M66.75 0 C82.07 0.22, 91.09 5.32, 89 22.25 M89 22.25 C90.65 37.78, 89.94 54.09, 89 66.75 M89 22.25 C88.8 38.85, 88.41 54.79, 89 66.75 M89 66.75 C88.62 83.45, 82.29 88.02, 66.75 89 M89 66.75 C88.49 83.5, 79.36 88.37, 66.75 89 M66.75 89 C50.9 88.39, 34.62 87.73, 22.25 89 M66.75 89 C50.87 88, 33.82 88.91, 22.25 89 M22.25 89 C6.37 87.79, 0.81 82.56, 0 66.75 M22.25 89 C6.87 90.47, 0.23 82.86, 0 66.75 M0 66.75 C0.94 53.82, -1.66 39.7, 0 22.25 M0 66.75 C0.87 51.97, 0.02 37.18, 0 22.25 M0 22.25 C1.01 8.64, 7.02 1.67, 22.25 0 M0 22.25 C1.5 8.98, 9.26 1.48, 22.25 0" stroke="#1e1e1e" stroke-width="2" fill="none"></path></g><g transform="translate(1466.8744987687965 841.1870557057894) rotate(0 49.6619987487793 22.5)"><text x="0" y="31.536" font-family="Virgil, Segoe UI Emoji" font-size="36px" fill="#1e1e1e" text-anchor="start" style="white-space: pre;" direction="ltr" dominant-baseline="alphabetic">Dirty!</text></g><g stroke-linecap="round" transform="translate(10.06306939037836 1031.997107992518) rotate(0 59.52740780131376 82.29161135995605)"><path d="M29.76 0 C43.34 -1.07, 58.55 -1.23, 89.29 0 C112.67 2.56, 117.25 8.79, 119.05 29.76 C121.13 56.12, 116.22 81, 119.05 134.82 C120.39 157.89, 112.26 167.52, 89.29 164.58 C63 161.59, 41.03 162.27, 29.76 164.58 C10.55 164.31, 2.18 156.86, 0 134.82 C-1.94 98.38, -3.1 63.69, 0 29.76 C-2.02 8.6, 11.1 -1.71, 29.76 0" stroke="none" stroke-width="0" fill="#ffec99"></path><path d="M29.76 0 C50.11 1.82, 66.7 1.23, 89.29 0 M29.76 0 C41.64 0.89, 56.23 0, 89.29 0 M89.29 0 C108.55 0.04, 120.42 9.4, 119.05 29.76 M89.29 0 C107.17 1.39, 118.97 7.9, 119.05 29.76 M119.05 29.76 C120.55 57.52, 120.02 83.98, 119.05 134.82 M119.05 29.76 C119.89 53.5, 119.9 77.88, 119.05 134.82 M119.05 134.82 C120.31 153.18, 108.64 165, 89.29 164.58 M119.05 134.82 C117.97 156.2, 108.15 166.09, 89.29 164.58 M89.29 164.58 C66.69 164.78, 44.91 163.08, 29.76 164.58 M89.29 164.58 C66.91 164.62, 41.83 165.01, 29.76 164.58 M29.76 164.58 C8.53 165.7, 1.3 153.74, 0 134.82 M29.76 164.58 C9.18 164.44, 1.56 154.36, 0 134.82 M0 134.82 C2.3 102.4, 2.43 72.43, 0 29.76 M0 134.82 C-1.14 98.29, -0.99 63.6, 0 29.76 M0 29.76 C0.54 9.09, 10.72 0.06, 29.76 0 M0 29.76 C-2.09 11.93, 10.41 -0.14, 29.76 0" stroke="#1e1e1e" stroke-width="2" fill="none"></path></g><g stroke-linecap="round" transform="translate(10 1061.7923465883646) rotate(0 110.60495967990721 80.8727904744394)"><path d="M32 0 C61.83 -4.8, 97.8 -4.21, 189.21 0 C208.04 -0.6, 221.38 9.39, 221.21 32 C219.25 63.95, 222.18 94.8, 221.21 129.75 C224.29 153.07, 209.29 161.64, 189.21 161.75 C133.11 162.61, 76.17 160.34, 32 161.75 C11.24 163.01, 1.61 154.61, 0 129.75 C0.69 89.61, 1.49 53.67, 0 32 C1.06 9.28, 13.3 -0.49, 32 0" stroke="none" stroke-width="0" fill="#ffec99"></path><path d="M32 0 C70.31 2.47, 111.12 2.37, 189.21 0 M32 0 C79.31 0.26, 127.27 -0.14, 189.21 0 M189.21 0 C210.45 -0.39, 222.85 9.26, 221.21 32 M189.21 0 C211.6 1.36, 221.79 9.22, 221.21 32 M221.21 32 C220.27 68.65, 220.88 108.57, 221.21 129.75 M221.21 32 C221.27 58.4, 221.69 83.52, 221.21 129.75 M221.21 129.75 C219.65 152.1, 211.91 159.79, 189.21 161.75 M221.21 129.75 C219.1 149.37, 211.54 162.98, 189.21 161.75 M189.21 161.75 C146.79 158.85, 103.78 161.94, 32 161.75 M189.21 161.75 C137.57 159.98, 85.24 160.22, 32 161.75 M32 161.75 C10.13 160.32, 0.05 150.35, 0 129.75 M32 161.75 C10.49 163.01, -0.06 150.1, 0 129.75 M0 129.75 C-0.51 96.52, -2.12 62.47, 0 32 M0 129.75 C-0.45 102.19, -0.14 73.55, 0 32 M0 32 C0.49 9.94, 12.62 0.8, 32 0 M0 32 C1.03 8.42, 12.18 2, 32 0" stroke="#1e1e1e" stroke-width="2" fill="none"></path></g><g transform="translate(52.564626565494336 1257.589628789639) rotate(0 72.86399841308594 22.5)"><text x="0" y="31.536" font-family="Virgil, Segoe UI Emoji" font-size="36px" fill="#1e1e1e" text-anchor="start" style="white-space: pre;" direction="ltr" dominant-baseline="alphabetic">Version 1</text></g><g stroke-linecap="round" transform="translate(305.2408829681857 1028.651189946991) rotate(0 59.52740780131376 82.29161135995605)"><path d="M29.76 0 C54.29 -0.11, 76.18 0.9, 89.29 0 C112.15 -2.66, 118.58 10.48, 119.05 29.76 C119.43 54.41, 118.04 85.01, 119.05 134.82 C120.66 157.95, 109.88 168.14, 89.29 164.58 C78.24 165.12, 65.77 163.24, 29.76 164.58 C11.52 167.48, -0.97 152.61, 0 134.82 C0.79 103.2, -0.52 76.38, 0 29.76 C-1.48 12.45, 9.94 -1.52, 29.76 0" stroke="none" stroke-width="0" fill="#ffec99"></path><path d="M29.76 0 C46.98 2.16, 62.26 0.7, 89.29 0 M29.76 0 C53.92 -1.02, 78.31 0.11, 89.29 0 M89.29 0 C110.59 0.52, 119.04 8.95, 119.05 29.76 M89.29 0 C108.88 -0.34, 120.68 9.86, 119.05 29.76 M119.05 29.76 C119.29 52.85, 119.51 76.67, 119.05 134.82 M119.05 29.76 C118.82 55.29, 118.42 79.11, 119.05 134.82 M119.05 134.82 C120.33 154.12, 110.45 164.81, 89.29 164.58 M119.05 134.82 C119.19 152.6, 110.08 165.94, 89.29 164.58 M89.29 164.58 C68.52 162.65, 45.27 165.57, 29.76 164.58 M89.29 164.58 C73.32 164.92, 56.42 164.09, 29.76 164.58 M29.76 164.58 C10.51 164.12, -1.92 153.44, 0 134.82 M29.76 164.58 C10.03 164.16, -0.52 154.79, 0 134.82 M0 134.82 C-0.25 107.45, 0.71 77.43, 0 29.76 M0 134.82 C0.54 108.49, -0.33 82.64, 0 29.76 M0 29.76 C-0.25 9.92, 8.87 0.78, 29.76 0 M0 29.76 C2.07 10.98, 10.08 -1.8, 29.76 0" stroke="#1e1e1e" stroke-width="2" fill="none"></path></g><g stroke-linecap="round" transform="translate(305.17781357780734 1058.446428542837) rotate(0 110.60495967990721 80.8727904744394)"><path d="M32 0 C79.16 0.96, 125.92 -2.48, 189.21 0 C210.07 0.56, 219.91 13.82, 221.21 32 C217.91 54.1, 222.19 79.92, 221.21 129.75 C221.96 154.64, 207.5 165.09, 189.21 161.75 C146.4 161.1, 100.93 165.18, 32 161.75 C9.7 159.7, -0.88 151.33, 0 129.75 C-0.84 103.85, -1.93 81.6, 0 32 C0.02 9.15, 11.39 -0.82, 32 0" stroke="none" stroke-width="0" fill="#ffec99"></path><path d="M32 0 C72.73 -1.04, 117.79 -1.44, 189.21 0 M32 0 C82.3 1.66, 131.4 1.73, 189.21 0 M189.21 0 C210.53 -0.97, 220.99 10.37, 221.21 32 M189.21 0 C212.17 -0.06, 219.4 9.62, 221.21 32 M221.21 32 C222.49 52.13, 220.3 71.55, 221.21 129.75 M221.21 32 C220.33 62.38, 221.61 93.34, 221.21 129.75 M221.21 129.75 C222.52 151.31, 210.66 159.95, 189.21 161.75 M221.21 129.75 C222.16 152.44, 211.84 159.81, 189.21 161.75 M189.21 161.75 C140.93 161.24, 95.16 159.65, 32 161.75 M189.21 161.75 C133.11 161, 79.16 161.56, 32 161.75 M32 161.75 C8.74 160.52, 0.09 150.71, 0 129.75 M32 161.75 C10.15 161.88, -0.62 152.26, 0 129.75 M0 129.75 C1.11 92.47, -1.15 55.15, 0 32 M0 129.75 C-0.85 97.43, -0.63 64.63, 0 32 M0 32 C-1.05 11.44, 12.46 0.92, 32 0 M0 32 C0.16 8.87, 12.4 1.83, 32 0" stroke="#1e1e1e" stroke-width="2" fill="none"></path></g><g transform="translate(336.3918730591698 1257.0813525151443) rotate(0 80.802001953125 22.5)"><text x="0" y="31.536" font-family="Virgil, Segoe UI Emoji" font-size="36px" fill="#1e1e1e" text-anchor="start" style="white-space: pre;" direction="ltr" dominant-baseline="alphabetic">Version 2</text></g><g stroke-linecap="round" transform="translate(569.110032979062 1027.4865071987215) rotate(0 59.52740780131376 82.29161135995605)"><path d="M29.76 0 C50.48 2.82, 72.04 1.6, 89.29 0 C107.68 -1.59, 119.99 6.32, 119.05 29.76 C120.03 54.51, 119.71 82.08, 119.05 134.82 C117.57 152.81, 109.44 167.79, 89.29 164.58 C72.58 161.91, 56.67 162.32, 29.76 164.58 C7.3 162.08, -3.01 153.28, 0 134.82 C-1.89 100.16, -1.76 61.72, 0 29.76 C1.46 11.73, 6.35 -0.79, 29.76 0" stroke="none" stroke-width="0" fill="#ffec99"></path><path d="M29.76 0 C49.34 -0.35, 67.55 1.35, 89.29 0 M29.76 0 C51.57 -0.1, 72.31 -0.68, 89.29 0 M89.29 0 C110.03 1.94, 120.04 9.85, 119.05 29.76 M89.29 0 C109.32 1.82, 117.47 9.69, 119.05 29.76 M119.05 29.76 C118.66 66.47, 118.16 98.43, 119.05 134.82 M119.05 29.76 C119.85 59.05, 120.09 86.37, 119.05 134.82 M119.05 134.82 C119.64 155.44, 109.45 164.76, 89.29 164.58 M119.05 134.82 C118.32 153.34, 107.26 165.46, 89.29 164.58 M89.29 164.58 C73.83 165.94, 56.58 165.24, 29.76 164.58 M89.29 164.58 C71.05 163.66, 52.36 164.6, 29.76 164.58 M29.76 164.58 C8.04 165.13, -1.82 154.67, 0 134.82 M29.76 164.58 C9.73 164.71, -2.28 153.62, 0 134.82 M0 134.82 C2 99.68, 0.53 66.85, 0 29.76 M0 134.82 C0.2 107.43, 1.5 79.87, 0 29.76 M0 29.76 C1.82 11.77, 9.24 0.83, 29.76 0 M0 29.76 C0.83 10.71, 8.8 -1.05, 29.76 0" stroke="#1e1e1e" stroke-width="2" fill="none"></path></g><g stroke-linecap="round" transform="translate(569.0469635886836 1057.281745794568) rotate(0 110.60495967990721 80.8727904744394)"><path d="M32 0 C82.55 -0.51, 138.55 -4.17, 189.21 0 C211.48 -3.6, 219.54 7.73, 221.21 32 C224.64 56.09, 220.96 80.24, 221.21 129.75 C221.52 154.29, 208.72 163.47, 189.21 161.75 C134.67 156.84, 83.39 156.9, 32 161.75 C7.65 160.37, 1.31 149.23, 0 129.75 C-1.33 99.91, 2.86 76.7, 0 32 C-3.57 9.88, 7.07 1.4, 32 0" stroke="none" stroke-width="0" fill="#ffec99"></path><path d="M32 0 C85.4 1.69, 142.68 0.2, 189.21 0 M32 0 C78.17 -0.47, 123.32 1.24, 189.21 0 M189.21 0 C211.53 -0.08, 221.37 12.25, 221.21 32 M189.21 0 C208.96 -0.24, 222.02 12.91, 221.21 32 M221.21 32 C218.6 55.44, 219.9 83.72, 221.21 129.75 M221.21 32 C221.7 54.79, 221.63 77.93, 221.21 129.75 M221.21 129.75 C221.53 151.25, 209.9 160.59, 189.21 161.75 M221.21 129.75 C219.33 151.96, 210.04 163.97, 189.21 161.75 M189.21 161.75 C134.31 162.91, 78.72 161.05, 32 161.75 M189.21 161.75 C146.85 160.81, 104.14 160.88, 32 161.75 M32 161.75 C8.85 161.75, -0.17 151.19, 0 129.75 M32 161.75 C8.39 160.71, 0.75 149.71, 0 129.75 M0 129.75 C-0.77 97.61, -1.51 59.95, 0 32 M0 129.75 C1.29 108.07, 1.54 88.79, 0 32 M0 32 C-0.68 11.5, 11.39 0.68, 32 0 M0 32 C-1.12 9.62, 12.6 -1.27, 32 0" stroke="#1e1e1e" stroke-width="2" fill="none"></path></g><g transform="translate(571.8846053597165 1261.591953308941) rotate(0 107.40599822998047 22.5)"><text x="0" y="31.536" font-family="Virgil, Segoe UI Emoji" font-size="36px" fill="#1e1e1e" text-anchor="start" style="white-space: pre;" direction="ltr" dominant-baseline="alphabetic">Final Version</text></g><g stroke-linecap="round" transform="translate(864.2878465568692 1024.1405891531945) rotate(0 59.52740780131376 82.29161135995605)"><path d="M29.76 0 C51.99 -3.13, 70.66 -2.47, 89.29 0 C107.56 2.52, 117.16 12.12, 119.05 29.76 C118.58 61.69, 116.45 88.92, 119.05 134.82 C120.07 152.79, 106.16 161.64, 89.29 164.58 C72.66 162.46, 63.36 161.99, 29.76 164.58 C9.22 161.72, 0.68 151.93, 0 134.82 C-4.34 109.55, -4.36 87.26, 0 29.76 C-3.05 10.04, 7.01 -2.67, 29.76 0" stroke="none" stroke-width="0" fill="#ffec99"></path><path d="M29.76 0 C52.29 1.76, 74.92 1.43, 89.29 0 M29.76 0 C43.7 -0.61, 56.74 0.21, 89.29 0 M89.29 0 C107.76 -0.2, 119.76 11.87, 119.05 29.76 M89.29 0 C108.17 -1.63, 120.76 7.72, 119.05 29.76 M119.05 29.76 C117.39 52.17, 120.71 74.79, 119.05 134.82 M119.05 29.76 C119.52 61.5, 119.04 92.48, 119.05 134.82 M119.05 134.82 C117.42 155.43, 108.7 166.52, 89.29 164.58 M119.05 134.82 C120.25 155.93, 110.34 165.07, 89.29 164.58 M89.29 164.58 C69.76 164.27, 50.07 163.54, 29.76 164.58 M89.29 164.58 C69.25 164.75, 50.95 164.8, 29.76 164.58 M29.76 164.58 C7.94 163.68, 0.66 153.47, 0 134.82 M29.76 164.58 C11.05 166.16, -0.2 154.55, 0 134.82 M0 134.82 C-1.27 91.71, -0.12 52.49, 0 29.76 M0 134.82 C-1.3 111.47, -0.6 87.64, 0 29.76 M0 29.76 C-0.98 9.01, 11.6 -1.11, 29.76 0 M0 29.76 C1 8.55, 12.02 -2.2, 29.76 0" stroke="#1e1e1e" stroke-width="2" fill="none"></path></g><g stroke-linecap="round" transform="translate(864.2247771664911 1053.9358277490405) rotate(0 110.60495967990721 80.8727904744394)"><path d="M32 0 C70.57 -0.11, 110.9 5.35, 189.21 0 C208.65 2.2, 220.25 9.18, 221.21 32 C219.54 58.02, 222.38 78.72, 221.21 129.75 C218.23 148.14, 207.98 159.12, 189.21 161.75 C154.28 158.82, 116.04 157.8, 32 161.75 C11.35 159.01, -2.41 152.54, 0 129.75 C-1.85 96.91, -1.3 61.4, 0 32 C-2.91 8, 14.13 2.84, 32 0" stroke="none" stroke-width="0" fill="#ffec99"></path><path d="M32 0 C80.06 0.05, 127.32 -0.53, 189.21 0 M32 0 C94.49 0.85, 156.13 -0.04, 189.21 0 M189.21 0 C211.25 1.95, 220.37 9.25, 221.21 32 M189.21 0 C212.25 -2.21, 219.16 9.96, 221.21 32 M221.21 32 C222.53 68.3, 220.58 103.73, 221.21 129.75 M221.21 32 C221.05 64.53, 220.55 98.59, 221.21 129.75 M221.21 129.75 C220.78 153.01, 211.58 162.85, 189.21 161.75 M221.21 129.75 C222.41 151.56, 210.94 161.92, 189.21 161.75 M189.21 161.75 C152.5 161.26, 119.12 159.98, 32 161.75 M189.21 161.75 C137.64 161.8, 85.24 161.3, 32 161.75 M32 161.75 C11.32 160.55, 0.98 152.45, 0 129.75 M32 161.75 C10.46 161.63, 2.26 150.11, 0 129.75 M0 129.75 C0.28 109.54, -0.64 88.52, 0 32 M0 129.75 C0.69 91.73, -0.16 52.57, 0 32 M0 32 C1.68 9.56, 11.54 -1.19, 32 0 M0 32 C2.1 8.46, 11.99 -0.93, 32 0" stroke="#1e1e1e" stroke-width="2" fill="none"></path></g><g transform="translate(858.5494936244249 1258.246035263414) rotate(0 129.2220001220703 22.5)"><text x="0" y="31.536" font-family="Virgil, Segoe UI Emoji" font-size="36px" fill="#1e1e1e" text-anchor="start" style="white-space: pre;" direction="ltr" dominant-baseline="alphabetic">Final Version 2</text></g><g transform="translate(1462.1992463374627 1081.8569731538594) rotate(0 72.61199951171875 22.5)"><text x="0" y="31.536" font-family="Virgil, Segoe UI Emoji" font-size="36px" fill="#1e1e1e" text-anchor="start" style="white-space: pre;" direction="ltr" dominant-baseline="alphabetic">Perfect!</text></g></svg>