<svg version="1.1" xmlns="http://www.w3.org/2000/svg" viewBox="0 0 375.5 258.5" width="751" height="517">
  <!-- svg-source:excalidraw -->
  
  <defs>
    <style class="style-fonts">
      @font-face {
        font-family: "Virgil";
        src: url("https://excalidraw.com/Virgil.woff2");
      }
      @font-face {
        font-family: "Cascadia";
        src: url("https://excalidraw.com/Cascadia.woff2");
      }
      @font-face {
        font-family: "Assistant";
        src: url("https://excalidraw.com/Assistant-Regular.woff2");
      }
    </style>
    
  </defs>
  <g stroke-linecap="round" transform="translate(10 11.5) rotate(0 113.5 118.5)"><path d="M126.16 1.09 C138.7 0.82, 153.76 6.7, 165.26 12.61 C176.77 18.52, 186.5 26.87, 195.2 36.55 C203.9 46.24, 212.21 58.22, 217.46 70.7 C222.72 83.17, 226 97.7, 226.73 111.4 C227.47 125.11, 225.7 139.87, 221.9 152.93 C218.09 166, 211.48 178.93, 203.91 189.8 C196.33 200.66, 187.19 210.76, 176.42 218.13 C165.66 225.5, 151.89 230.92, 139.3 234.01 C126.7 237.1, 113.55 238.25, 100.85 236.66 C88.14 235.06, 74.58 230.6, 63.06 224.44 C51.55 218.28, 40.64 209.38, 31.75 199.69 C22.86 190.01, 14.84 178.57, 9.7 166.34 C4.57 154.1, 1.87 139.89, 0.96 126.29 C0.04 112.69, 0.46 97.73, 4.19 84.75 C7.92 71.76, 15.48 59.42, 23.33 48.39 C31.19 37.36, 40.69 26.05, 51.32 18.57 C61.95 11.1, 74.02 6.62, 87.09 3.55 C100.16 0.48, 122.65 0.06, 129.72 0.14 C136.8 0.21, 129.83 1.98, 129.56 3.99 M64.59 12.56 C74.62 5.03, 89.15 1.1, 102.11 -0.6 C115.06 -2.29, 129.62 -1.14, 142.32 2.39 C155.02 5.92, 167.61 12.54, 178.3 20.59 C188.99 28.63, 199.13 39.64, 206.48 50.64 C213.83 61.65, 219.02 73.82, 222.38 86.64 C225.75 99.46, 227.47 113.93, 226.67 127.57 C225.87 141.21, 223.09 156.05, 217.58 168.47 C212.08 180.88, 202.63 192.65, 193.66 202.07 C184.68 211.49, 175.12 219.29, 163.75 224.99 C152.37 230.7, 138.26 234.73, 125.38 236.29 C112.51 237.86, 99.14 237.88, 86.48 234.39 C73.82 230.89, 60.39 223.16, 49.44 215.3 C38.49 207.43, 28.3 198.04, 20.76 187.18 C13.22 176.33, 7.4 162.95, 4.19 150.17 C0.98 137.39, 0.71 124.02, 1.49 110.51 C2.26 97, 3.59 81.6, 8.84 69.1 C14.09 56.6, 23.79 45.28, 33 35.5 C42.2 25.72, 58.39 14.17, 64.06 10.4 C69.73 6.62, 65.94 10.95, 67 12.84" stroke="none" stroke-width="0" fill="#f08c0080"></path><path d="M159.02 10.72 C170.87 14.03, 182.06 23.36, 191.49 32.39 C200.92 41.41, 209.89 52.74, 215.62 64.88 C221.36 77.03, 224.47 91.63, 225.89 105.24 C227.32 118.86, 227.05 133.54, 224.17 146.56 C221.28 159.59, 215.74 172.14, 208.58 183.39 C201.43 194.64, 191.56 205.95, 181.24 214.06 C170.93 222.18, 159.02 228.38, 146.69 232.08 C134.36 235.79, 120.16 236.98, 107.25 236.3 C94.34 235.62, 81.09 233.26, 69.23 227.98 C57.36 222.7, 45.52 214.18, 36.05 204.64 C26.59 195.09, 18.18 182.65, 12.46 170.7 C6.73 158.75, 3.11 146.26, 1.68 132.94 C0.26 119.62, 0.89 104.02, 3.9 90.78 C6.91 77.55, 12.88 64.91, 19.74 53.53 C26.59 42.15, 34.86 30.71, 45.03 22.51 C55.2 14.31, 68.24 8.21, 80.77 4.34 C93.31 0.46, 106.14 -2.3, 120.25 -0.75 C134.36 0.8, 157.23 10.6, 165.43 13.64 C173.63 16.68, 170.56 15.88, 169.45 17.49 M130.7 0.51 C143.06 0.42, 157.86 7.99, 169.5 14.71 C181.14 21.42, 192.06 30.58, 200.55 40.78 C209.05 50.97, 216.29 62.97, 220.47 75.88 C224.66 88.79, 225.77 104.51, 225.66 118.22 C225.55 131.93, 223.81 145.38, 219.81 158.14 C215.81 170.9, 209.61 184.26, 201.64 194.77 C193.68 205.29, 183.41 214.5, 172.03 221.24 C160.65 227.98, 145.98 232.77, 133.36 235.22 C120.74 237.66, 108.87 238.06, 96.29 235.92 C83.7 233.79, 69.55 229.04, 57.86 222.42 C46.17 215.8, 34.57 206.25, 26.14 196.17 C17.71 186.1, 11.58 174.48, 7.28 161.96 C2.98 149.44, 0.62 134.58, 0.33 121.05 C0.04 107.52, 1.35 93.52, 5.54 80.77 C9.73 68.01, 17.11 54.94, 25.48 44.52 C33.85 34.09, 44.59 25.07, 55.76 18.22 C66.93 11.36, 79.72 6.29, 92.51 3.4 C105.3 0.5, 126.05 0.61, 132.49 0.86 C138.93 1.11, 131.52 2.63, 131.17 4.89" stroke="#1e1e1e" stroke-width="2" fill="none"></path></g><g stroke-linecap="round" transform="translate(138.5 10) rotate(0 113.5 118.5)"><path d="M161.19 11.49 C173.36 15.06, 184.29 24.05, 193.56 33.54 C202.82 43.03, 211.15 56.09, 216.77 68.44 C222.4 80.79, 226.29 94.5, 227.33 107.64 C228.37 120.78, 226.43 134.13, 223.02 147.29 C219.6 160.45, 214.06 175.28, 206.83 186.6 C199.59 197.92, 190.15 207.4, 179.6 215.23 C169.05 223.06, 156.05 230.12, 143.52 233.59 C130.99 237.06, 117.18 237.16, 104.42 236.07 C91.67 234.99, 78.57 232.45, 66.99 227.08 C55.41 221.71, 44.41 213.35, 34.92 203.86 C25.44 194.37, 15.78 182.36, 10.09 170.15 C4.39 157.94, 1.94 144.28, 0.76 130.6 C-0.42 116.93, -0.08 101.21, 3.01 88.1 C6.09 74.99, 11.76 62.78, 19.28 51.94 C26.8 41.09, 37.49 30.99, 48.15 23.01 C58.81 15.04, 71.04 7.73, 83.27 4.08 C95.49 0.42, 106.8 -1.23, 121.5 1.07 C136.2 3.37, 161.5 13.51, 171.46 17.87 C181.42 22.23, 182.02 25.54, 181.28 27.22 M153.51 8.22 C165.22 11.12, 177.09 21.17, 187.09 29.92 C197.1 38.67, 207.22 48.84, 213.54 60.72 C219.85 72.61, 223.32 87.55, 224.97 101.22 C226.61 114.89, 225.62 129.45, 223.39 142.73 C221.16 156.01, 217.94 169.71, 211.57 180.9 C205.21 192.09, 195.41 201.7, 185.19 209.89 C174.98 218.08, 162.48 225.7, 150.29 230.02 C138.11 234.33, 125.29 235.91, 112.11 235.79 C98.92 235.66, 83.37 233.93, 71.19 229.25 C59.02 224.56, 48.72 216.46, 39.07 207.67 C29.42 198.88, 19.44 188.34, 13.3 176.51 C7.15 164.68, 3.89 149.91, 2.2 136.69 C0.5 123.46, 0.91 110.61, 3.11 97.16 C5.32 83.72, 8.75 68.06, 15.45 56 C22.14 43.93, 33.23 33, 43.3 24.79 C53.38 16.58, 64.01 10.83, 75.89 6.73 C87.76 2.64, 101.62 0.15, 114.55 0.21 C127.48 0.27, 146.84 5.68, 153.47 7.1 C160.09 8.51, 155.01 6.81, 154.29 8.71" stroke="none" stroke-width="0" fill="#e0313180"></path><path d="M168.17 14.91 C179.95 19.17, 189.98 28.8, 198.39 38.83 C206.8 48.86, 213.73 62.56, 218.65 75.1 C223.57 87.65, 227.62 100.6, 227.9 114.09 C228.19 127.57, 224.46 143.14, 220.38 156.02 C216.3 168.89, 211.47 180.66, 203.44 191.35 C195.41 202.05, 183.28 212.99, 172.21 220.18 C161.15 227.37, 149.45 231.96, 137.04 234.49 C124.63 237.03, 110.78 237.29, 97.76 235.39 C84.73 233.48, 70.55 229.36, 58.89 223.06 C47.23 216.77, 36.31 207.69, 27.8 197.62 C19.29 187.55, 12.37 175.31, 7.84 162.65 C3.32 149.98, 1.04 135.2, 0.67 121.64 C0.3 108.07, 1.67 93.94, 5.6 81.27 C9.54 68.59, 16.14 56.25, 24.28 45.57 C32.42 34.88, 43.33 24.17, 54.42 17.14 C65.52 10.11, 78.32 5.93, 90.85 3.39 C103.38 0.86, 114.4 -1.68, 129.61 1.94 C144.81 5.56, 171.26 19.07, 182.08 25.12 C192.89 31.16, 195.72 36.85, 194.5 38.23 M110.78 1.41 C122.76 -0.93, 135.1 1.63, 147.28 5.61 C159.47 9.58, 173.57 17.09, 183.89 25.27 C194.21 33.45, 202.2 43.35, 209.21 54.67 C216.21 65.98, 222.98 79.81, 225.9 93.14 C228.83 106.47, 228.73 121.19, 226.76 134.64 C224.79 148.1, 220.14 161.65, 214.06 173.85 C207.98 186.06, 199.95 198.95, 190.28 207.86 C180.62 216.77, 168.03 222.63, 156.09 227.32 C144.14 232, 131.77 235.1, 118.63 235.98 C105.5 236.87, 89.78 236.58, 77.29 232.62 C64.8 228.65, 53.51 220.89, 43.7 212.18 C33.89 203.47, 25.36 192, 18.42 180.35 C11.49 168.7, 4.81 155.38, 2.11 142.28 C-0.59 129.18, 0.15 115.19, 2.23 101.76 C4.31 88.34, 8.89 73.82, 14.6 61.73 C20.32 49.65, 26.85 37.88, 36.51 29.27 C46.16 20.66, 60.43 15.18, 72.53 10.07 C84.63 4.96, 103.08 -0.12, 109.11 -1.39 C115.15 -2.66, 108.76 0.15, 108.75 2.45" stroke="#1e1e1e" stroke-width="2" fill="none"></path></g><g stroke-linecap="round" transform="translate(11.5 10) rotate(0 113.5 118.5)"><path d="M153.76 6.87 C166.07 9.65, 177.88 18.99, 187.57 28 C197.25 37.01, 205.71 49.17, 211.87 60.92 C218.03 72.67, 222.39 85.21, 224.53 98.51 C226.67 111.81, 226.83 127.48, 224.69 140.72 C222.56 153.96, 218.36 166.5, 211.72 177.93 C205.08 189.37, 194.85 200.61, 184.86 209.31 C174.88 218.01, 163.96 225.68, 151.83 230.15 C139.69 234.62, 125.2 236.09, 112.07 236.12 C98.94 236.16, 85.17 234.83, 73.06 230.35 C60.95 225.88, 49.08 218.12, 39.41 209.28 C29.73 200.45, 21.2 189.15, 15.02 177.35 C8.84 165.54, 4.39 151.96, 2.32 138.45 C0.26 124.95, 0.42 109.78, 2.65 96.3 C4.88 82.83, 9.09 69.28, 15.72 57.6 C22.34 45.92, 32.25 34.75, 42.4 26.23 C52.55 17.71, 64.61 10.97, 76.61 6.5 C88.62 2.04, 101.09 -1.02, 114.43 -0.55 C127.77 -0.09, 149.36 7.12, 156.66 9.29 C163.95 11.47, 159.03 10.62, 158.2 12.5 M138.12 2.17 C150.39 2.98, 163.14 10.55, 174.18 17.79 C185.21 25.03, 196.52 34.79, 204.33 45.62 C212.13 56.45, 217.21 69.64, 221.01 82.77 C224.8 95.9, 227.37 110.9, 227.1 124.41 C226.83 137.92, 224.36 151.21, 219.4 163.83 C214.44 176.45, 206.07 190.21, 197.34 200.14 C188.62 210.07, 178.49 217.23, 167.05 223.42 C155.6 229.61, 141.66 235.38, 128.69 237.3 C115.72 239.21, 101.92 238.1, 89.22 234.91 C76.52 231.72, 63.55 225.43, 52.48 218.14 C41.41 210.86, 30.86 202.15, 22.8 191.19 C14.75 180.23, 7.81 165.19, 4.16 152.39 C0.51 139.6, 0.23 127.85, 0.9 114.42 C1.57 100.99, 3.16 84.39, 8.18 71.82 C13.2 59.24, 22.36 48.51, 31.03 38.98 C39.7 29.45, 49.11 20.81, 60.2 14.65 C71.29 8.49, 84.54 3.89, 97.57 2 C110.59 0.12, 131.46 2.68, 138.35 3.35 C145.23 4.02, 139.2 3.92, 138.87 6.02" stroke="#1e1e1e" stroke-width="2" fill="none"></path></g><g transform="translate(51 115.5) rotate(0 26.790000915527344 12.5)"><text x="0" y="17.52" font-family="Virgil, Segoe UI Emoji" font-size="20px" fill="#1e1e1e" text-anchor="start" style="white-space: pre;" direction="ltr" dominant-baseline="alphabetic">Data</text></g><g transform="translate(278.20999908447266 113) rotate(0 23.139999389648438 12.5)"><text x="0" y="17.52" font-family="Virgil, Segoe UI Emoji" font-size="20px" fill="#1e1e1e" text-anchor="start" style="white-space: pre;" direction="ltr" dominant-baseline="alphabetic">Code</text></g><g transform="translate(165.86000061035156 100) rotate(0 22.720001220703125 25)"><text x="22.720001220703125" y="17.52" font-family="Virgil, Segoe UI Emoji" font-size="20px" fill="#1e1e1e" text-anchor="middle" style="white-space: pre;" direction="ltr" dominant-baseline="alphabetic">Git</text><text x="22.720001220703125" y="42.519999999999996" font-family="Virgil, Segoe UI Emoji" font-size="20px" fill="#1e1e1e" text-anchor="middle" style="white-space: pre;" direction="ltr" dominant-baseline="alphabetic">Repo</text></g></svg>