<svg version="1.1" xmlns="http://www.w3.org/2000/svg" viewBox="0 0 255 317.5" width="510" height="635">
  <!-- svg-source:excalidraw -->
  
  <defs>
    <style class="style-fonts">
      @font-face {
        font-family: "Virgil";
        src: url("https://excalidraw.com/Virgil.woff2");
      }
      @font-face {
        font-family: "Cascadia";
        src: url("https://excalidraw.com/Cascadia.woff2");
      }
      @font-face {
        font-family: "Assistant";
        src: url("https://excalidraw.com/Assistant-Regular.woff2");
      }
    </style>
    
  </defs>
  <g stroke-linecap="round" transform="translate(75 100.5) rotate(0 49 82)"><path d="M68.91 7.71 C75.55 11.08, 81.71 20.11, 86.24 28.84 C90.77 37.58, 94.15 48.54, 96.11 60.1 C98.06 71.66, 99.21 86.43, 97.97 98.22 C96.72 110, 92.84 121.53, 88.63 130.8 C84.42 140.07, 78.86 148.28, 72.69 153.82 C66.51 159.36, 58.8 163.34, 51.58 164.04 C44.35 164.74, 36.07 162.76, 29.34 158.02 C22.61 153.28, 15.9 144.66, 11.2 135.61 C6.5 126.56, 2.91 115.22, 1.14 103.74 C-0.63 92.25, -0.96 78.5, 0.59 66.7 C2.15 54.9, 6.15 42.61, 10.48 32.96 C14.81 23.31, 20.62 14.44, 26.57 8.81 C32.53 3.18, 38.53 -1.25, 46.23 -0.83 C53.93 -0.41, 67.91 8.48, 72.79 11.33 C77.67 14.18, 76.03 15.32, 75.5 16.26 M31.44 6.27 C37.68 1.1, 46.71 -1.56, 53.5 -0.66 C60.29 0.24, 66.25 5.66, 72.18 11.68 C78.1 17.7, 84.71 25.85, 89.05 35.47 C93.39 45.09, 97.04 57.52, 98.21 69.42 C99.37 81.32, 98.05 95.48, 96.04 106.85 C94.03 118.21, 90.92 129.14, 86.16 137.61 C81.41 146.08, 74.45 153.11, 67.52 157.66 C60.59 162.2, 51.87 165.65, 44.58 164.88 C37.29 164.1, 29.82 159.24, 23.78 152.99 C17.73 146.75, 12.19 137.1, 8.3 127.42 C4.41 117.74, 1.38 106.61, 0.42 94.91 C-0.54 83.21, 0.27 68.56, 2.51 57.23 C4.75 45.9, 8.88 35.55, 13.86 26.92 C18.84 18.3, 29.53 8.93, 32.39 5.48 C35.25 2.02, 31.18 5.03, 31.01 6.18" stroke="none" stroke-width="0" fill="#f08c00"></path><path d="M41.1 0.69 C47.81 -2.01, 57.26 0.18, 64.09 3.89 C70.92 7.6, 76.87 14.79, 82.08 22.94 C87.29 31.09, 92.6 41.76, 95.33 52.81 C98.07 63.86, 99.14 77.37, 98.47 89.23 C97.81 101.1, 95 113.96, 91.36 123.99 C87.73 134.02, 82.56 142.77, 76.65 149.42 C70.74 156.06, 62.94 162.13, 55.91 163.87 C48.88 165.61, 41.28 163.39, 34.47 159.86 C27.66 156.32, 20.08 150.75, 15.04 142.67 C9.99 134.58, 6.69 122.44, 4.21 111.34 C1.74 100.23, -0.05 87.93, 0.2 76.04 C0.45 64.15, 2.03 50.31, 5.7 39.99 C9.37 29.67, 15.47 20.78, 22.21 14.13 C28.95 7.47, 41.41 2.26, 46.16 0.06 C50.9 -2.13, 50.58 -0.49, 50.68 0.97 M58.6 2.44 C65.45 3.87, 75.04 11.35, 80.7 18.6 C86.35 25.86, 89.46 35.32, 92.53 45.98 C95.6 56.64, 99.21 70.45, 99.09 82.55 C98.97 94.64, 95.18 107.97, 91.82 118.53 C88.46 129.1, 84.26 138.94, 78.93 145.92 C73.61 152.91, 66.88 157.8, 59.88 160.45 C52.88 163.1, 43.73 164.24, 36.94 161.85 C30.15 159.45, 24.21 153.64, 19.12 146.06 C14.03 138.49, 9.65 126.83, 6.4 116.39 C3.16 105.96, -0.31 95.32, -0.35 83.45 C-0.39 71.59, 3.25 55.92, 6.18 45.19 C9.12 34.46, 11.89 26.47, 17.25 19.09 C22.61 11.7, 31.49 3.55, 38.34 0.88 C45.19 -1.8, 54.64 2.66, 58.35 3.03 C62.07 3.4, 60.78 2.13, 60.64 3.1" stroke="#1e1e1e" stroke-width="2" fill="none"></path></g><g stroke-linecap="round" transform="translate(114 99.5) rotate(0 50 85.5)"><path d="M55.67 1.05 C62.74 0.94, 70.64 7.01, 76.69 13.5 C82.74 19.98, 88.14 29.81, 91.98 39.97 C95.82 50.13, 98.88 62.2, 99.74 74.45 C100.59 86.71, 99.42 101.78, 97.09 113.5 C94.77 125.22, 90.89 135.92, 85.79 144.75 C80.7 153.58, 73.18 162.28, 66.53 166.51 C59.88 170.73, 52.97 171.38, 45.88 170.1 C38.79 168.81, 30.44 165.29, 23.98 158.77 C17.51 152.26, 10.89 141.46, 7.08 131.01 C3.28 120.56, 1.89 108.23, 1.12 96.09 C0.36 83.96, 0.32 70.04, 2.49 58.2 C4.66 46.36, 9.04 33.83, 14.15 25.07 C19.26 16.31, 25.31 9.41, 33.14 5.63 C40.98 1.85, 55.71 2.38, 61.18 2.37 C66.65 2.35, 66.17 4.08, 65.97 5.55 M65.46 4.41 C72.12 6.79, 77.3 15.36, 82.33 23.57 C87.37 31.77, 92.77 42.59, 95.66 53.62 C98.56 64.66, 100.29 77.48, 99.71 89.8 C99.13 102.11, 95.63 116.56, 92.19 127.53 C88.74 138.49, 84.51 148.73, 79.03 155.57 C73.55 162.4, 66.61 166.36, 59.31 168.53 C52.02 170.7, 42.22 172.15, 35.28 168.59 C28.34 165.03, 23.13 155.53, 17.67 147.16 C12.21 138.79, 5.38 129.82, 2.52 118.39 C-0.34 106.95, 0.07 90.87, 0.5 78.53 C0.94 66.19, 1.42 54.98, 5.11 44.35 C8.79 33.71, 16.63 22.14, 22.62 14.73 C28.6 7.32, 34.16 1.61, 41.01 -0.13 C47.86 -1.87, 59.65 3.65, 63.7 4.3 C67.75 4.94, 65.35 2.43, 65.32 3.76" stroke="none" stroke-width="0" fill="#f08c00"></path><path d="M65.43 2.9 C72.22 5.03, 78.12 13.28, 83.24 21.85 C88.36 30.42, 93.2 42.55, 96.14 54.32 C99.07 66.09, 101.41 80.02, 100.83 92.48 C100.26 104.94, 96.62 118.48, 92.68 129.08 C88.75 139.68, 82.96 149.24, 77.24 156.09 C71.53 162.94, 65.41 168.37, 58.41 170.16 C51.41 171.95, 42.38 170.33, 35.24 166.83 C28.09 163.34, 20.67 157.53, 15.53 149.2 C10.38 140.86, 6.99 128.5, 4.37 116.83 C1.75 105.17, -0.76 91.43, -0.21 79.21 C0.34 66.99, 3.97 54.17, 7.67 43.51 C11.37 32.85, 16.18 22.51, 22 15.26 C27.82 8, 35.33 1.68, 42.58 -0.01 C49.84 -1.7, 61.41 4.02, 65.51 5.12 C69.62 6.22, 67.46 5.41, 67.19 6.58 M64.94 5.38 C71.81 7.66, 80.34 14.74, 85.62 22.93 C90.89 31.11, 94.25 42.58, 96.61 54.5 C98.97 66.43, 100.27 81.75, 99.78 94.49 C99.28 107.22, 97.25 120.57, 93.63 130.91 C90.01 141.25, 84.13 150.12, 78.06 156.54 C71.98 162.96, 64.46 167.92, 57.19 169.42 C49.93 170.93, 41.52 169.2, 34.48 165.55 C27.43 161.9, 20.19 155.77, 14.95 147.5 C9.71 139.23, 5.71 127.7, 3.05 115.93 C0.4 104.15, -1.48 89.33, -1 76.86 C-0.52 64.39, 1.77 51.77, 5.93 41.11 C10.09 30.45, 17.77 19.57, 23.97 12.88 C30.16 6.18, 36.27 2.3, 43.1 0.93 C49.93 -0.43, 61.32 3.96, 64.94 4.68 C68.56 5.4, 65.16 4.15, 64.79 5.26" stroke="#1e1e1e" stroke-width="2" fill="none"></path></g><g stroke-linecap="round" transform="translate(41 105.5) rotate(0 50 85.5)"><path d="M69.18 7.81 C75.81 11.3, 82.44 19.92, 87.25 29.01 C92.06 38.11, 95.94 50.49, 98.03 62.38 C100.11 74.28, 100.96 88.22, 99.76 100.4 C98.57 112.58, 95.32 125.23, 90.86 135.46 C86.41 145.69, 79.68 156, 73.04 161.79 C66.41 167.58, 58.38 169.92, 51.06 170.21 C43.75 170.5, 35.62 168.17, 29.16 163.52 C22.69 158.88, 16.75 151.73, 12.29 142.32 C7.83 132.91, 4.16 119.35, 2.4 107.09 C0.65 94.82, 0.55 80.64, 1.77 68.74 C3 56.85, 5.58 45.53, 9.73 35.72 C13.89 25.91, 20.39 15.9, 26.71 9.88 C33.03 3.85, 39.66 -0.67, 47.67 -0.44 C55.69 -0.21, 69.92 8.63, 74.82 11.26 C79.71 13.88, 77.62 14.02, 77.06 15.29 M66.68 3.35 C73.19 6.07, 79.29 16.98, 84.33 25.83 C89.37 34.68, 94.55 45.05, 96.94 56.46 C99.33 67.87, 99.3 81.8, 98.68 94.29 C98.07 106.77, 96.95 120.85, 93.27 131.36 C89.59 141.86, 82.71 150.63, 76.62 157.31 C70.53 164, 64.06 170.02, 56.71 171.46 C49.37 172.9, 39.76 170.2, 32.56 165.94 C25.36 161.68, 18.27 154.49, 13.5 145.91 C8.73 137.33, 5.91 126.02, 3.94 114.45 C1.98 102.88, 1.17 88.79, 1.73 76.47 C2.28 64.15, 3.79 51.11, 7.27 40.55 C10.75 29.99, 16.61 19.84, 22.6 13.1 C28.59 6.36, 35.84 1.51, 43.22 0.11 C50.6 -1.29, 62.95 3.87, 66.87 4.72 C70.79 5.57, 67.22 4.06, 66.76 5.22" stroke="none" stroke-width="0" fill="#f08c00"></path><path d="M45.56 -0.43 C52.37 -2.56, 61.75 0.72, 68.57 5.51 C75.39 10.3, 81.6 18.97, 86.49 28.28 C91.37 37.6, 95.88 49.7, 97.88 61.38 C99.88 73.06, 99.67 86.16, 98.48 98.37 C97.28 110.59, 94.81 124.33, 90.7 134.65 C86.6 144.97, 80.16 154.42, 73.82 160.28 C67.49 166.15, 59.79 169.08, 52.7 169.83 C45.61 170.58, 37.92 169.02, 31.27 164.76 C24.62 160.49, 17.49 153.31, 12.79 144.26 C8.09 135.21, 5.06 122.51, 3.06 110.46 C1.07 98.41, -0.23 84.04, 0.82 71.94 C1.88 59.85, 5.24 48.05, 9.39 37.88 C13.53 27.72, 18.73 17.41, 25.7 10.96 C32.66 4.5, 46.13 0.6, 51.19 -0.84 C56.26 -2.28, 56.14 0.6, 56.07 2.29 M34.24 3.52 C40.51 -1.04, 51.01 -1.22, 58.22 0.45 C65.44 2.11, 71.45 6.72, 77.53 13.52 C83.61 20.31, 91.07 30.39, 94.73 41.23 C98.39 52.07, 99.15 66.23, 99.5 78.55 C99.85 90.87, 99.18 103.67, 96.83 115.17 C94.49 126.66, 90.87 138.64, 85.42 147.52 C79.97 156.41, 71.26 164.7, 64.11 168.46 C56.97 172.22, 49.4 172.05, 42.54 170.08 C35.69 168.11, 28.81 163.6, 22.99 156.64 C17.17 149.68, 11.24 138.95, 7.61 128.3 C3.99 117.64, 1.86 105.16, 1.24 92.72 C0.62 80.27, 1.24 65.49, 3.89 53.62 C6.53 41.75, 12.06 29.63, 17.12 21.48 C22.19 13.33, 31.35 7.62, 34.28 4.73 C37.21 1.83, 34.32 2.87, 34.7 4.13" stroke="#1e1e1e" stroke-width="2" fill="none"></path></g><g stroke-linecap="round" transform="translate(26 107.5) rotate(0 50 85.5)"><path d="M49.59 -0.36 C56.41 -1.77, 65.61 2.85, 72.28 8.4 C78.94 13.94, 85.2 23.07, 89.58 32.9 C93.97 42.73, 96.98 55.39, 98.57 67.39 C100.17 79.39, 100.77 93.01, 99.15 104.9 C97.53 116.79, 93.33 129.04, 88.84 138.71 C84.34 148.39, 78.85 157.4, 72.17 162.93 C65.49 168.46, 56.12 172.02, 48.74 171.91 C41.36 171.8, 34.3 168.04, 27.9 162.29 C21.49 156.55, 14.88 147.12, 10.32 137.42 C5.76 127.71, 2.15 116.03, 0.55 104.06 C-1.05 92.09, -1.11 77.66, 0.74 65.61 C2.59 53.57, 6.93 41.52, 11.68 31.81 C16.42 22.09, 22.46 12.68, 29.19 7.32 C35.92 1.97, 47.76 0.69, 52.07 -0.35 C56.37 -1.38, 54.92 -0.25, 55.02 1.12 M26.24 11.22 C32.25 4.73, 42.31 1.13, 49.68 0.39 C57.06 -0.36, 63.96 1.59, 70.48 6.75 C77 11.92, 84.05 21.95, 88.81 31.37 C93.57 40.79, 97.25 51.76, 99.01 63.26 C100.77 74.76, 100.67 88.16, 99.37 100.38 C98.08 112.61, 95.61 126.29, 91.22 136.61 C86.83 146.93, 79.77 156.35, 73.03 162.29 C66.3 168.22, 58.23 172.15, 50.8 172.23 C43.37 172.32, 34.98 167.86, 28.46 162.8 C21.94 157.75, 16.22 151.23, 11.68 141.9 C7.13 132.56, 3.18 118.63, 1.17 106.78 C-0.84 94.93, -1.58 82.9, -0.37 70.79 C0.84 58.69, 4 44.27, 8.45 34.15 C12.9 24.02, 23.45 13.62, 26.34 10.04 C29.23 6.46, 25.42 11.55, 25.79 12.65" stroke="none" stroke-width="0" fill="#f08c00"></path><path d="M55.52 -0.07 C62.54 -0.04, 70.97 6.14, 77.3 13.15 C83.62 20.17, 89.84 31.14, 93.48 42.01 C97.11 52.88, 98.39 66.26, 99.12 78.37 C99.84 90.49, 100.28 103.18, 97.83 114.71 C95.39 126.25, 89.7 139, 84.44 147.57 C79.19 156.15, 73.17 162.47, 66.29 166.16 C59.41 169.84, 50.56 171.16, 43.17 169.67 C35.78 168.17, 27.78 163.81, 21.95 157.18 C16.12 150.55, 11.74 140.47, 8.18 129.88 C4.63 119.28, 1.47 105.94, 0.61 93.62 C-0.25 81.3, 0.57 67.59, 3.03 55.97 C5.49 44.34, 10.16 32.48, 15.37 23.86 C20.58 15.24, 27.14 8.19, 34.26 4.23 C41.39 0.28, 53.9 0.22, 58.12 0.14 C62.33 0.07, 59.72 2.33, 59.55 3.77 M41.38 1.14 C48.22 -2.18, 55.66 1, 62.49 4.03 C69.32 7.07, 76.79 11.5, 82.35 19.35 C87.92 27.2, 92.82 39.65, 95.89 51.12 C98.95 62.59, 100.89 75.79, 100.75 88.19 C100.61 100.58, 98.65 114.49, 95.03 125.48 C91.42 136.46, 84.68 147.03, 79.06 154.1 C73.45 161.17, 68.08 165.56, 61.33 167.9 C54.58 170.25, 45.61 170.93, 38.57 168.2 C31.53 165.47, 24.59 159.19, 19.09 151.52 C13.59 143.84, 8.69 133.31, 5.58 122.16 C2.47 111.01, 0.22 97.32, 0.43 84.64 C0.65 71.96, 3.62 57.38, 6.87 46.09 C10.12 34.81, 14.36 24.45, 19.93 16.94 C25.5 9.42, 36.79 3.28, 40.29 1.01 C43.79 -1.26, 40.69 1.75, 40.95 3.31" stroke="#1e1e1e" stroke-width="2" fill="none"></path></g><g stroke-linecap="round" transform="translate(131 106.5) rotate(0 44.5 85.5)"><path d="M59.86 4.92 C65.79 7.91, 71.53 17.76, 76.1 26.45 C80.67 35.14, 85.31 45.35, 87.27 57.05 C89.23 68.75, 88.59 84.26, 87.85 96.65 C87.1 109.03, 85.98 121.24, 82.81 131.36 C79.63 141.47, 74.27 150.96, 68.79 157.34 C63.31 163.71, 56.33 168.24, 49.93 169.6 C43.54 170.95, 36.77 169.65, 30.42 165.46 C24.07 161.27, 16.65 153.28, 11.82 144.46 C6.98 135.64, 3.44 124.17, 1.42 112.54 C-0.6 100.9, -1.23 86.76, -0.32 74.67 C0.59 62.57, 3.31 50.48, 6.89 39.99 C10.48 29.49, 15.69 18.35, 21.21 11.71 C26.73 5.07, 33.14 1.03, 40 0.14 C46.85 -0.74, 58.64 4.86, 62.34 6.41 C66.05 7.96, 62.63 8.17, 62.23 9.43 M29.09 6.69 C34.56 0.94, 41.15 -2.23, 47.26 -1.31 C53.37 -0.39, 59.96 5.83, 65.75 12.2 C71.54 18.56, 78.35 26.84, 81.99 36.89 C85.62 46.93, 86.66 60.48, 87.58 72.46 C88.49 84.45, 89.01 96.88, 87.49 108.78 C85.97 120.67, 82.78 134.56, 78.45 143.84 C74.12 153.12, 67.8 160.07, 61.53 164.46 C55.26 168.86, 47.17 171.06, 40.84 170.22 C34.51 169.38, 28.82 165.45, 23.54 159.41 C18.25 153.36, 12.83 144, 9.14 133.96 C5.45 123.91, 2.79 111.26, 1.41 99.14 C0.03 87.01, -0.75 72.87, 0.88 61.2 C2.5 49.54, 6.45 38.38, 11.16 29.16 C15.87 19.94, 26.54 9.62, 29.12 5.9 C31.7 2.17, 26.4 5.59, 26.64 6.79" stroke="none" stroke-width="0" fill="#f08c00"></path><path d="M49.56 0.86 C55.59 0.61, 61.9 5.99, 67.32 12.25 C72.73 18.52, 78.59 28.07, 82.03 38.47 C85.47 48.86, 87.11 62.22, 87.95 74.6 C88.79 86.99, 88.98 100.89, 87.07 112.77 C85.16 124.64, 80.93 136.9, 76.49 145.83 C72.06 154.77, 66.37 162.3, 60.45 166.39 C54.53 170.47, 47.49 171.54, 40.97 170.36 C34.45 169.17, 27.09 165.86, 21.32 159.26 C15.55 152.67, 9.94 141.38, 6.36 130.79 C2.79 120.2, 0.41 107.97, -0.14 95.72 C-0.69 83.47, 0.96 69.04, 3.07 57.29 C5.18 45.53, 8.16 33.99, 12.52 25.2 C16.88 16.41, 21.7 8.2, 29.22 4.53 C36.73 0.86, 51.77 1.93, 57.61 3.17 C63.45 4.4, 64.64 10.39, 64.24 11.95 M50.68 0.99 C56.84 1.21, 64.11 7.39, 69.32 13.83 C74.52 20.27, 78.45 29.16, 81.91 39.62 C85.37 50.09, 89.3 64.49, 90.08 76.61 C90.86 88.73, 88.74 100.75, 86.59 112.35 C84.44 123.95, 81.84 137.35, 77.2 146.22 C72.56 155.09, 64.89 161.43, 58.73 165.59 C52.56 169.75, 46.6 172.36, 40.21 171.19 C33.82 170.01, 26.17 165.36, 20.38 158.56 C14.6 151.76, 8.61 141.05, 5.5 130.4 C2.39 119.74, 2.11 106.77, 1.72 94.64 C1.32 82.51, 1.48 69.35, 3.15 57.62 C4.81 45.89, 7.43 32.9, 11.72 24.25 C16 15.6, 22.64 9.45, 28.85 5.71 C35.07 1.97, 45.8 2.5, 49.01 1.81 C52.22 1.12, 47.9 0.58, 48.11 1.57" stroke="#1e1e1e" stroke-width="2" fill="none"></path></g><g stroke-linecap="round" transform="translate(145 113.5) rotate(0 50 85.5)"><path d="M67.53 4.62 C74.39 7.72, 81.87 17.78, 86.91 26.9 C91.94 36.02, 95.54 47.72, 97.74 59.34 C99.94 70.96, 101.11 84.54, 100.11 96.61 C99.1 108.69, 95.66 121.58, 91.69 131.8 C87.71 142.03, 82.4 151.49, 76.25 157.95 C70.09 164.41, 61.94 169.43, 54.75 170.57 C47.56 171.7, 39.77 169.05, 33.11 164.74 C26.45 160.43, 19.92 153.54, 14.8 144.72 C9.68 135.89, 4.82 123.48, 2.38 111.79 C-0.06 100.1, -0.81 86.9, 0.15 74.58 C1.11 62.25, 4.27 48.25, 8.15 37.82 C12.04 27.4, 17.34 18.31, 23.46 12.02 C29.59 5.74, 36.96 0.71, 44.9 0.11 C52.84 -0.49, 66.18 6.3, 71.1 8.42 C76.01 10.53, 74.7 11.68, 74.41 12.79 M63.22 2.17 C70.08 4.24, 79.49 12.05, 84.83 20.86 C90.18 29.67, 92.75 43.14, 95.29 55.04 C97.82 66.94, 100.16 80.01, 100.04 92.25 C99.91 104.49, 97.95 117.74, 94.53 128.48 C91.11 139.23, 85.36 149.97, 79.5 156.73 C73.64 163.49, 66.66 167.04, 59.36 169.04 C52.07 171.05, 42.75 172.32, 35.74 168.75 C28.73 165.17, 22.59 156.08, 17.32 147.59 C12.05 139.09, 6.94 129.23, 4.11 117.77 C1.28 106.3, 0.18 91.36, 0.33 78.8 C0.49 66.24, 1.32 52.77, 5.04 42.41 C8.76 32.05, 16.44 23.61, 22.66 16.64 C28.87 9.67, 35.41 2.55, 42.34 0.58 C49.26 -1.39, 60.82 3.92, 64.2 4.81 C67.59 5.7, 62.91 4.75, 62.65 5.92" stroke="none" stroke-width="0" fill="#f08c00"></path><path d="M53.86 -0.38 C60.85 -0.79, 68.64 5.17, 74.99 11.51 C81.34 17.84, 87.98 27.41, 91.97 37.65 C95.97 47.9, 98.11 60.69, 98.96 72.99 C99.81 85.28, 99.05 99.69, 97.06 111.43 C95.07 123.17, 91.76 134.58, 87.01 143.42 C82.25 152.26, 75.32 159.94, 68.53 164.46 C61.74 168.98, 53.62 171.27, 46.29 170.52 C38.97 169.76, 30.82 166.07, 24.58 159.94 C18.34 153.81, 12.9 144.03, 8.85 133.76 C4.81 123.5, 1.51 110.56, 0.3 98.34 C-0.9 86.11, -0.67 72.33, 1.64 60.41 C3.95 48.49, 9.06 36.04, 14.17 26.81 C19.28 17.59, 24.84 9.11, 32.31 5.08 C39.77 1.04, 53.64 2.62, 58.98 2.59 C64.33 2.57, 64.28 3.84, 64.38 4.92 M43.2 -0.4 C50.18 -3.64, 59.03 -0.86, 65.95 3.21 C72.88 7.28, 79.73 15.22, 84.74 24 C89.75 32.77, 93.48 44.31, 96 55.88 C98.52 67.44, 100.56 81.19, 99.85 93.38 C99.14 105.56, 95.69 118.17, 91.74 128.98 C87.8 139.79, 81.88 151.19, 76.2 158.24 C70.52 165.29, 64.44 169.9, 57.67 171.26 C50.91 172.63, 42.6 170.48, 35.62 166.45 C28.63 162.42, 21.38 155.51, 15.77 147.07 C10.16 138.63, 4.34 127.15, 1.96 115.81 C-0.43 104.46, 0.42 91.62, 1.46 79.02 C2.5 66.41, 4.48 50.76, 8.19 40.15 C11.9 29.55, 17.73 22.11, 23.72 15.38 C29.72 8.65, 40.63 1.9, 44.17 -0.25 C47.71 -2.4, 45.02 1.04, 44.96 2.47" stroke="#1e1e1e" stroke-width="2" fill="none"></path></g><g stroke-linecap="round" transform="translate(71 107) rotate(0 56 14.5)"><path d="M59.08 0.26 C68.92 -0.02, 81.89 0.6, 90.08 2.06 C98.26 3.53, 104.77 6.34, 108.19 9.06 C111.61 11.77, 112.66 15.85, 110.6 18.34 C108.53 20.84, 102.91 22.18, 95.82 24.03 C88.72 25.87, 77.88 28.73, 68.03 29.43 C58.18 30.13, 46.07 29.43, 36.72 28.24 C27.36 27.05, 18 24.34, 11.91 22.3 C5.82 20.25, 1.14 18.51, 0.17 15.96 C-0.8 13.42, 1.41 9.3, 6.09 7.04 C10.77 4.77, 18.63 3.45, 28.26 2.39 C37.88 1.32, 57.48 0.83, 63.86 0.65 C70.23 0.48, 66.59 1.04, 66.51 1.34 M59.69 -0.84 C69.32 -1.04, 80.3 -0.06, 88.43 1.74 C96.55 3.54, 104.56 7.26, 108.42 9.95 C112.29 12.64, 113.91 15.47, 111.62 17.89 C109.32 20.32, 101.8 22.73, 94.65 24.5 C87.5 26.26, 78.47 27.95, 68.7 28.49 C58.94 29.03, 45.52 28.69, 36.07 27.76 C26.62 26.82, 18.07 24.88, 11.98 22.87 C5.89 20.85, 0.57 18, -0.47 15.67 C-1.51 13.35, 0.57 11.34, 5.74 8.93 C10.92 6.51, 21.67 2.48, 30.59 1.17 C39.51 -0.14, 54.21 1.45, 59.28 1.07 C64.35 0.68, 61.06 -1.18, 61.01 -1.14" stroke="none" stroke-width="0" fill="#b2f2bb"></path><path d="M38.88 1.2 C47.82 0.36, 61.49 -0.28, 71.15 0.3 C80.82 0.89, 90.35 2.74, 96.89 4.71 C103.43 6.68, 108.67 9.62, 110.38 12.14 C112.1 14.67, 110.99 17.41, 107.19 19.85 C103.39 22.29, 95.9 25.29, 87.58 26.78 C79.26 28.27, 67.28 28.81, 57.25 28.79 C47.23 28.78, 36.15 28.01, 27.41 26.69 C18.67 25.36, 9.24 23.22, 4.79 20.87 C0.35 18.51, -0.48 15.1, 0.73 12.54 C1.95 9.98, 5.49 7.5, 12.1 5.51 C18.71 3.53, 35.36 1.5, 40.39 0.63 C45.42 -0.24, 42.14 0.03, 42.27 0.3 M54.25 0.71 C64.12 0.4, 78.04 1.41, 86.91 2.45 C95.77 3.48, 103.34 4.55, 107.45 6.95 C111.55 9.34, 113.13 14.17, 111.54 16.83 C109.95 19.5, 104.43 20.86, 97.9 22.94 C91.37 25.02, 82.06 28.38, 72.35 29.31 C62.65 30.24, 49.48 29.52, 39.66 28.53 C29.83 27.53, 20.02 25.38, 13.42 23.35 C6.82 21.32, 1.34 18.65, 0.05 16.36 C-1.25 14.06, 1.52 11.9, 5.66 9.6 C9.79 7.31, 16.34 4.1, 24.87 2.57 C33.39 1.04, 51.79 0.67, 56.82 0.44 C61.86 0.21, 55.26 1.03, 55.08 1.17" stroke="#1e1e1e" stroke-width="2" fill="none"></path></g><g stroke-linecap="round" transform="translate(10 118) rotate(0 50 85.5)"><path d="M37.75 1.97 C44.17 -1.81, 53.02 -0.65, 60.09 2.05 C67.16 4.75, 74.34 10.42, 80.17 18.18 C86 25.94, 91.91 37.65, 95.06 48.63 C98.22 59.61, 99.03 71.98, 99.11 84.07 C99.18 96.16, 98.58 109.95, 95.5 121.18 C92.43 132.41, 86.39 143.46, 80.64 151.45 C74.89 159.44, 67.99 166.07, 60.99 169.11 C53.99 172.14, 45.54 172.34, 38.65 169.65 C31.77 166.95, 25.24 160.77, 19.68 152.92 C14.11 145.07, 8.53 133.75, 5.27 122.54 C2.01 111.32, 0.35 97.87, 0.12 85.63 C-0.1 73.39, 0.9 60.28, 3.93 49.11 C6.95 37.94, 11.03 26.74, 18.29 18.61 C25.54 10.48, 41.1 2.94, 47.44 0.33 C53.78 -2.27, 56.36 1.56, 56.31 2.98 M55.9 0.92 C63.02 1.34, 71.55 7.92, 77.52 14.54 C83.49 21.17, 88.11 30.36, 91.73 40.67 C95.35 50.97, 98.11 64.21, 99.23 76.39 C100.35 88.57, 100.59 101.94, 98.45 113.77 C96.32 125.59, 91.7 138.75, 86.42 147.32 C81.13 155.9, 73.85 161.16, 66.75 165.2 C59.66 169.24, 50.94 172.59, 43.85 171.56 C36.77 170.52, 30.33 165.94, 24.23 158.99 C18.14 152.03, 11.06 140.61, 7.28 129.84 C3.49 119.07, 2.12 106.37, 1.52 94.35 C0.91 82.34, 1.34 69.57, 3.64 57.76 C5.93 45.94, 10.09 32.47, 15.29 23.47 C20.48 14.48, 27.88 7.83, 34.79 3.8 C41.7 -0.24, 53.33 -0.45, 56.74 -0.73 C60.14 -1.02, 55.49 0.43, 55.2 2.07" stroke="none" stroke-width="0" fill="#f08c00"></path><path d="M67.21 5.43 C73.93 8.33, 81.12 17.73, 86.32 26.97 C91.51 36.21, 96.17 49.16, 98.39 60.88 C100.62 72.59, 100.78 85.1, 99.67 97.26 C98.57 109.43, 95.91 123.42, 91.75 133.87 C87.58 144.31, 80.84 153.74, 74.69 159.93 C68.54 166.12, 62.08 170.27, 54.86 171.01 C47.63 171.75, 38.28 169.06, 31.34 164.37 C24.4 159.69, 18.15 151.75, 13.23 142.89 C8.3 134.02, 4.02 122.96, 1.81 111.18 C-0.39 99.41, -1.18 84.35, 0.01 72.23 C1.2 60.11, 4.95 48.55, 8.96 38.45 C12.97 28.35, 17.83 18.04, 24.09 11.63 C30.35 5.22, 38.34 0.14, 46.51 -0.04 C54.67 -0.22, 67.99 7.89, 73.08 10.57 C78.17 13.26, 77.4 14.81, 77.03 16.08 M49.5 -0.99 C56.46 -2.46, 65.58 2.47, 72.35 7.8 C79.11 13.13, 85.65 21.04, 90.1 30.97 C94.54 40.89, 97.65 55.25, 99.01 67.35 C100.37 79.45, 100.1 91.55, 98.25 103.57 C96.4 115.6, 92.43 129.86, 87.89 139.48 C83.35 149.1, 77.17 156.2, 71.02 161.3 C64.87 166.41, 57.85 169.77, 50.99 170.13 C44.13 170.5, 36.5 168.71, 29.84 163.5 C23.19 158.29, 15.89 148.8, 11.06 138.87 C6.23 128.95, 2.35 115.95, 0.84 103.96 C-0.67 91.97, 0.52 78.64, 1.99 66.93 C3.47 55.23, 5.52 43.27, 9.7 33.74 C13.89 24.21, 20.42 15.36, 27.1 9.73 C33.77 4.11, 46.22 1.27, 49.74 -0.03 C53.26 -1.33, 48.26 0.75, 48.21 1.94" stroke="#1e1e1e" stroke-width="2" fill="none"></path></g><g stroke-linecap="round" transform="translate(22 122) rotate(0 45.5 88)"><path d="M47.74 -0.51 C54.24 -1.16, 62.56 4.62, 68.5 10.93 C74.44 17.25, 79.59 26.82, 83.35 37.36 C87.11 47.9, 89.97 61.41, 91.05 74.19 C92.12 86.97, 91.65 101.7, 89.8 114.05 C87.96 126.41, 84.7 139.05, 79.98 148.34 C75.25 157.62, 67.85 165.18, 61.45 169.78 C55.06 174.37, 48.18 176.7, 41.63 175.9 C35.09 175.11, 27.68 171.25, 22.19 165.02 C16.7 158.79, 12.18 149.1, 8.7 138.53 C5.21 127.95, 2.33 114.3, 1.28 101.56 C0.24 88.82, 0.62 74.26, 2.42 62.08 C4.22 49.91, 7.8 37.81, 12.08 28.51 C16.37 19.22, 21.45 10.97, 28.15 6.32 C34.86 1.68, 47.47 1.03, 52.33 0.65 C57.18 0.27, 57.29 2.57, 57.28 4.03 M58.18 2.72 C64.56 4.93, 71.38 15.3, 76.2 24.31 C81.02 33.31, 84.46 45.19, 87.1 56.73 C89.75 68.26, 92.46 81.14, 92.07 93.52 C91.68 105.9, 88.02 119.94, 84.77 131 C81.52 142.06, 77.71 152.32, 72.59 159.89 C67.47 167.45, 60.58 174.12, 54.05 176.37 C47.53 178.63, 39.84 177.16, 33.44 173.39 C27.05 169.62, 20.81 162.62, 15.68 153.76 C10.56 144.9, 5.25 132.3, 2.69 120.22 C0.14 108.15, -0.23 94.15, 0.35 81.29 C0.93 68.43, 2.92 54.22, 6.16 43.07 C9.4 31.92, 14.57 21.33, 19.78 14.39 C24.98 7.44, 30.71 3.11, 37.39 1.38 C44.07 -0.34, 56.47 3.26, 59.87 4.03 C63.27 4.81, 58.31 4.76, 57.8 6.01" stroke="none" stroke-width="0" fill="#fab005"></path><path d="M45.55 -0.89 C51.9 -2.17, 59.24 2.94, 65.16 8.43 C71.08 13.92, 77.03 22.08, 81.06 32.07 C85.09 42.05, 87.67 56.02, 89.32 68.34 C90.96 80.67, 92.39 93.78, 90.94 106.02 C89.5 118.26, 84.76 131.65, 80.64 141.8 C76.52 151.94, 71.88 161.1, 66.21 166.9 C60.55 172.71, 53.2 176.38, 46.65 176.62 C40.09 176.85, 33.08 173.76, 26.88 168.29 C20.69 162.83, 13.76 153.81, 9.47 143.85 C5.18 133.88, 2.62 120.82, 1.17 108.49 C-0.29 96.17, -0.73 82.33, 0.75 69.89 C2.24 57.46, 6.13 44.03, 10.07 33.89 C14.01 23.75, 17.82 14.55, 24.41 9.05 C31 3.55, 44.52 1.74, 49.63 0.89 C54.74 0.04, 55.15 2.67, 55.07 3.97 M45.22 0.38 C51.38 -1.18, 60.19 1.99, 66.01 7.55 C71.83 13.11, 76.41 23.85, 80.16 33.73 C83.91 43.61, 86.99 54.45, 88.49 66.82 C90 79.2, 90.39 95.43, 89.19 107.97 C87.99 120.52, 85.11 132.25, 81.29 142.07 C77.47 151.88, 72.34 161.28, 66.29 166.85 C60.25 172.41, 51.97 175.43, 45.01 175.45 C38.05 175.46, 30.59 172.38, 24.54 166.94 C18.48 161.49, 12.47 152.75, 8.66 142.79 C4.86 132.83, 2.81 119.62, 1.71 107.16 C0.61 94.69, 0.77 80.3, 2.05 68.01 C3.34 55.72, 5.6 43.23, 9.43 33.4 C13.26 23.56, 19.18 14.5, 25.05 8.98 C30.91 3.46, 41.23 1.61, 44.6 0.29 C47.97 -1.03, 45.16 -0.47, 45.26 1.05" stroke="#1e1e1e" stroke-width="2" fill="none"></path></g><g stroke-linecap="round" transform="translate(48 122) rotate(0 50 91.5)"><path d="M32.77 5.88 C38.95 0.59, 48.76 -0.76, 56.2 0.73 C63.64 2.21, 71.36 7.57, 77.39 14.8 C83.42 22.03, 88.5 32.85, 92.38 44.09 C96.25 55.33, 99.89 69.24, 100.63 82.24 C101.36 95.23, 99.39 109.69, 96.79 122.07 C94.2 134.45, 90.16 147.09, 85.05 156.51 C79.94 165.93, 72.82 174.3, 66.13 178.58 C59.43 182.86, 52.12 183.73, 44.89 182.17 C37.65 180.61, 29.07 176.36, 22.72 169.25 C16.36 162.13, 10.51 150.67, 6.74 139.47 C2.97 128.26, 0.65 115.28, 0.09 102.03 C-0.47 88.78, 0.81 72.46, 3.38 59.96 C5.95 47.45, 9.57 36.53, 15.52 26.98 C21.47 17.44, 34.26 6.71, 39.09 2.68 C43.93 -1.35, 44.46 1.45, 44.51 2.8 M29.56 8.44 C35.55 2.26, 43.59 -0.52, 50.69 -0.06 C57.79 0.4, 65.4 5.03, 72.16 11.19 C78.91 17.35, 86.82 26.28, 91.21 36.89 C95.6 47.49, 97.48 61.79, 98.5 74.83 C99.52 87.87, 99.06 102.22, 97.34 115.13 C95.62 128.03, 92.87 142.31, 88.18 152.27 C83.48 162.24, 76.05 169.64, 69.16 174.91 C62.27 180.17, 53.86 184.3, 46.85 183.86 C39.84 183.41, 33.18 178.65, 27.09 172.23 C21 165.8, 14.78 155.96, 10.3 145.32 C5.82 134.68, 1.54 121.41, 0.22 108.39 C-1.1 95.37, 0.36 79.8, 2.37 67.19 C4.38 54.57, 7.73 42.86, 12.29 32.68 C16.85 22.49, 26.91 9.73, 29.71 6.06 C32.52 2.39, 28.81 8.98, 29.1 10.66" stroke="none" stroke-width="0" fill="#fab005"></path><path d="M37.44 3.31 C43.9 -0.94, 52.81 0.2, 60.18 2.84 C67.55 5.47, 75.81 11.13, 81.63 19.14 C87.46 27.15, 92.23 39.05, 95.13 50.88 C98.03 62.72, 99.15 76.95, 99.04 90.14 C98.92 103.33, 97.38 118.1, 94.44 130.02 C91.49 141.94, 86.81 153.31, 81.38 161.67 C75.94 170.03, 68.86 176.91, 61.82 180.2 C54.79 183.48, 46.38 184.28, 39.18 181.36 C31.98 178.44, 24.44 170.76, 18.63 162.68 C12.82 154.59, 7.48 144.71, 4.34 132.85 C1.19 120.98, -0.38 104.74, -0.25 91.48 C-0.11 78.22, 2.03 65.05, 5.17 53.27 C8.31 41.5, 12.11 29.61, 18.59 20.84 C25.07 12.07, 38.65 3.86, 44.05 0.64 C49.46 -2.57, 50.97 0.03, 51.01 1.55 M65.14 3.79 C72.08 6.69, 80.23 16.91, 85.45 26.15 C90.66 35.39, 94.09 46.96, 96.43 59.23 C98.76 71.49, 100.1 86.33, 99.46 99.72 C98.82 113.11, 96.29 128.24, 92.59 139.55 C88.9 150.86, 83.18 160.55, 77.27 167.58 C71.37 174.61, 64.18 179.95, 57.15 181.74 C50.12 183.54, 42.2 182.44, 35.08 178.37 C27.97 174.3, 19.99 166.72, 14.45 157.33 C8.92 147.94, 4.35 134.39, 1.87 122.04 C-0.61 109.7, -1.54 96.46, -0.44 83.27 C0.66 70.07, 4.35 54.27, 8.48 42.89 C12.62 31.52, 18.35 22.08, 24.36 15.02 C30.37 7.96, 37.82 2.1, 44.55 0.55 C51.29 -1, 61.49 4.63, 64.76 5.73 C68.04 6.83, 64.44 5.85, 64.21 7.14" stroke="#1e1e1e" stroke-width="2" fill="none"></path></g><g stroke-linecap="round" transform="translate(135 124.5) rotate(0 47 81.5)"><path d="M68.13 9.13 C74.04 13.11, 80.1 22.75, 84.13 32.3 C88.16 41.84, 90.81 54.64, 92.29 66.39 C93.77 78.15, 94.67 91.68, 93.02 102.83 C91.37 113.97, 86.97 124.38, 82.37 133.24 C77.76 142.11, 71.42 150.95, 65.4 156.01 C59.38 161.07, 53 163.84, 46.24 163.59 C39.47 163.33, 31.11 160.15, 24.81 154.49 C18.51 148.83, 12.5 139.19, 8.44 129.62 C4.38 120.05, 1.53 108.47, 0.46 97.06 C-0.61 85.66, 0.24 72.62, 2.02 61.2 C3.79 49.77, 6.94 37.67, 11.1 28.53 C15.27 19.39, 20.85 11.02, 27.02 6.37 C33.19 1.71, 40.71 -0.26, 48.14 0.62 C55.58 1.49, 67.47 9.14, 71.63 11.62 C75.78 14.09, 73.6 14.33, 73.1 15.47 M44.5 -0.8 C50.76 -2.89, 57.52 0.49, 63.87 5.32 C70.21 10.15, 77.9 19.38, 82.57 28.18 C87.25 36.98, 90.2 47.04, 91.92 58.14 C93.64 69.23, 93.85 83.17, 92.89 94.76 C91.93 106.35, 90.08 118.12, 86.15 127.68 C82.21 137.23, 75.29 146.41, 69.27 152.08 C63.25 157.75, 56.92 160.74, 50.05 161.68 C43.17 162.62, 34.13 162.17, 28 157.75 C21.87 153.32, 17.62 143.89, 13.27 135.11 C8.92 126.33, 3.97 116.22, 1.9 105.04 C-0.16 93.85, -0.44 79.58, 0.87 68.01 C2.18 56.44, 5.67 45.5, 9.77 35.6 C13.87 25.71, 19.5 14.74, 25.45 8.64 C31.4 2.55, 42.41 0.32, 45.45 -0.96 C48.49 -2.24, 43.63 -0.53, 43.69 0.95" stroke="none" stroke-width="0" fill="#f08c00"></path><path d="M35.02 3.06 C40.87 -0.97, 48.5 -1.02, 55.06 1.14 C61.63 3.31, 68.96 9, 74.42 16.05 C79.88 23.11, 84.48 33.02, 87.82 43.47 C91.17 53.92, 94.12 67.14, 94.49 78.75 C94.87 90.35, 92.95 102.38, 90.07 113.11 C87.2 123.83, 82.43 135.1, 77.25 143.09 C72.08 151.08, 65.46 157.83, 59.02 161.05 C52.58 164.27, 45.09 164.68, 38.61 162.41 C32.14 160.14, 25.55 154.6, 20.17 147.42 C14.79 140.24, 9.54 129.75, 6.33 119.32 C3.11 108.89, 1.16 96.52, 0.89 84.86 C0.61 73.2, 2.03 60.1, 4.67 49.34 C7.3 38.59, 11.11 28.4, 16.69 20.33 C22.27 12.27, 34.03 4.06, 38.14 0.95 C42.24 -2.15, 41.24 0.29, 41.32 1.7 M49.5 -0.2 C55.91 -0.96, 64.22 4.51, 70.05 10.52 C75.88 16.54, 80.48 26.16, 84.46 35.88 C88.43 45.6, 92.39 57.29, 93.91 68.83 C95.42 80.37, 95.29 93.88, 93.54 105.13 C91.79 116.38, 88.07 127.8, 83.4 136.3 C78.73 144.8, 71.9 151.76, 65.54 156.14 C59.18 160.52, 52.08 163.33, 45.24 162.56 C38.4 161.8, 30.57 156.98, 24.51 151.56 C18.45 146.13, 12.84 139.2, 8.9 130.01 C4.96 120.82, 2.22 108.33, 0.87 96.44 C-0.48 84.54, -1.2 69.96, 0.79 58.63 C2.77 47.3, 8.18 37.22, 12.79 28.46 C17.4 19.69, 22.53 11.01, 28.45 6.05 C34.37 1.08, 44.88 -0.83, 48.33 -1.34 C51.78 -1.84, 48.94 1.41, 49.13 3.02" stroke="#1e1e1e" stroke-width="2" fill="none"></path></g><g stroke-linecap="round" transform="translate(140 120.5) rotate(0 45.5 88)"><path d="M51.14 0.54 C57.37 0.97, 64.08 8.06, 69.73 15.26 C75.39 22.46, 81.64 33.08, 85.07 43.73 C88.49 54.39, 89.92 66.64, 90.3 79.18 C90.67 91.72, 89.47 106.8, 87.34 118.97 C85.22 131.14, 82.28 143.31, 77.56 152.2 C72.83 161.08, 65.52 168.59, 59 172.29 C52.48 175.98, 44.93 176.23, 38.43 174.38 C31.93 172.53, 25.26 168.04, 20.02 161.2 C14.78 154.35, 10.28 144.22, 6.97 133.29 C3.66 122.36, 0.99 108.41, 0.17 95.6 C-0.64 82.78, -0.2 68.17, 2.08 56.4 C4.35 44.64, 8.87 33.7, 13.83 25.01 C18.78 16.32, 24.32 7.84, 31.8 4.26 C39.28 0.67, 53.17 2.43, 58.73 3.5 C64.3 4.56, 65.41 9.2, 65.19 10.63 M52.76 0.61 C59.1 1.86, 67.54 10.53, 72.99 18.09 C78.44 25.64, 82.53 34.93, 85.46 45.95 C88.38 56.96, 90.09 71.49, 90.53 84.18 C90.96 96.87, 90.68 110.46, 88.06 122.08 C85.43 133.7, 79.83 145.58, 74.78 153.87 C69.73 162.15, 64.21 168.19, 57.76 171.79 C51.32 175.39, 42.42 177.72, 36.1 175.46 C29.78 173.19, 24.97 165.74, 19.85 158.2 C14.73 150.66, 8.64 141.33, 5.37 130.23 C2.1 119.13, 0.32 104.27, 0.23 91.6 C0.15 78.92, 2.08 66.15, 4.86 54.2 C7.64 42.24, 11.96 28.56, 16.94 19.85 C21.92 11.14, 28.7 5.12, 34.73 1.93 C40.77 -1.26, 49.79 0.56, 53.16 0.71 C56.53 0.87, 54.95 1.51, 54.93 2.88" stroke="none" stroke-width="0" fill="#fab005"></path><path d="M25.04 8.89 C30.22 2.42, 38.32 0.47, 44.86 0.48 C51.4 0.48, 58.21 3.45, 64.29 8.93 C70.37 14.42, 77.13 23.67, 81.35 33.38 C85.58 43.09, 88.3 54.91, 89.63 67.18 C90.95 79.45, 90.75 94.32, 89.29 106.99 C87.83 119.66, 84.81 133.1, 80.87 143.21 C76.92 153.32, 71.33 162.19, 65.64 167.66 C59.95 173.12, 53.19 176.13, 46.72 176 C40.26 175.87, 32.81 172.32, 26.86 166.86 C20.91 161.4, 15.15 152.99, 11.03 143.23 C6.91 133.47, 3.68 120.57, 2.11 108.27 C0.55 95.97, 0.35 81.95, 1.65 69.43 C2.95 56.92, 5.2 43.96, 9.89 33.18 C14.59 22.41, 25.67 9.63, 29.81 4.78 C33.95 -0.07, 34.45 2.54, 34.75 4.09 M65.76 9.26 C71.56 13.69, 76.22 24.93, 80.34 35.03 C84.46 45.13, 88.68 57.5, 90.48 69.84 C92.29 82.19, 92.55 96.78, 91.19 109.1 C89.82 121.41, 86.55 134.1, 82.29 143.72 C78.02 153.35, 71.61 161.5, 65.59 166.83 C59.56 172.16, 52.77 175.86, 46.14 175.7 C39.51 175.53, 31.82 171.12, 25.79 165.82 C19.77 160.51, 14.1 153.43, 10.02 143.86 C5.93 134.29, 2.94 121.12, 1.29 108.42 C-0.35 95.72, -1.46 80.06, 0.14 67.66 C1.74 55.27, 6.69 43.92, 10.9 34.04 C15.11 24.15, 19.81 14.27, 25.4 8.36 C30.99 2.44, 37.82 -1.78, 44.42 -1.47 C51.02 -1.16, 61.54 8.21, 64.99 10.22 C68.44 12.22, 65.36 9.56, 65.13 10.57" stroke="#1e1e1e" stroke-width="2" fill="none"></path></g><g stroke-linecap="round" transform="translate(106 120.5) rotate(0 49.5 91)"><path d="M48.9 0.73 C55.86 -0.39, 65.2 4.59, 71.69 10.09 C78.17 15.58, 83.59 23.49, 87.81 33.67 C92.04 43.86, 95.29 58.12, 97.04 71.22 C98.79 84.31, 99.9 99.34, 98.31 112.25 C96.72 125.15, 92.24 138.63, 87.49 148.65 C82.74 158.66, 76.24 166.81, 69.8 172.32 C63.36 177.84, 55.76 181.63, 48.86 181.73 C41.95 181.83, 34.72 178.71, 28.35 172.94 C21.98 167.17, 15.32 157.56, 10.66 147.1 C6 136.64, 1.97 122.85, 0.38 110.16 C-1.22 97.47, -0.75 83.67, 1.07 70.96 C2.9 58.25, 6.81 44.32, 11.31 33.9 C15.81 23.48, 21.19 14.1, 28.07 8.45 C34.95 2.8, 47.99 1.02, 52.59 0.01 C57.18 -1.01, 55.59 0.82, 55.63 2.37 M34.96 5.24 C41.36 0.14, 49.22 -1.59, 56.16 0.02 C63.09 1.62, 70.41 7.58, 76.55 14.86 C82.69 22.14, 89.33 32.42, 92.97 43.7 C96.61 54.98, 97.86 69.45, 98.4 82.54 C98.94 95.63, 98.84 109.65, 96.2 122.24 C93.56 134.83, 87.59 148.95, 82.54 158.09 C77.49 167.23, 72.53 173.04, 65.88 177.05 C59.24 181.06, 49.95 183.84, 42.67 182.15 C35.39 180.46, 28 174.17, 22.21 166.91 C16.42 159.65, 11.43 150.2, 7.95 138.58 C4.47 126.95, 1.93 110.69, 1.32 97.18 C0.71 83.66, 2.06 69.67, 4.29 57.48 C6.53 45.3, 9.5 33.01, 14.72 24.08 C19.94 15.16, 32.3 7.15, 35.63 3.93 C38.96 0.71, 34.58 3.04, 34.7 4.79" stroke="none" stroke-width="0" fill="#fab005"></path><path d="M52.56 0.67 C59.36 0.26, 66.96 5.82, 73.31 12.38 C79.67 18.93, 86.55 29.34, 90.7 39.98 C94.86 50.62, 97.32 63.34, 98.25 76.23 C99.17 89.11, 98.37 104.43, 96.26 117.28 C94.16 130.13, 90.31 143.5, 85.6 153.31 C80.89 163.12, 74.42 171.4, 67.99 176.15 C61.56 180.9, 54.05 182.93, 47.02 181.8 C40 180.68, 32.06 175.94, 25.83 169.42 C19.61 162.89, 13.74 153.33, 9.68 142.63 C5.62 131.93, 2.66 118.14, 1.5 105.23 C0.33 92.31, 0.73 77.83, 2.68 65.14 C4.62 52.45, 8.46 38.93, 13.16 29.09 C17.85 19.24, 23.66 10.78, 30.87 6.07 C38.07 1.36, 51.49 1.08, 56.38 0.82 C61.28 0.56, 60.18 3, 60.25 4.49 M43.05 2.03 C49.78 -0.63, 59.27 1.72, 66.41 5.98 C73.56 10.25, 80.7 18.39, 85.9 27.62 C91.1 36.85, 95.39 49.22, 97.62 61.37 C99.85 73.51, 100.18 87.54, 99.3 100.5 C98.42 113.46, 96.21 128.06, 92.35 139.12 C88.48 150.17, 82.3 159.54, 76.13 166.83 C69.96 174.12, 62.44 180.96, 55.31 182.86 C48.18 184.77, 40.34 182.9, 33.36 178.28 C26.38 173.66, 18.39 164.45, 13.43 155.14 C8.46 145.82, 5.86 134.8, 3.57 122.39 C1.28 109.98, -0.75 94.24, -0.31 80.69 C0.13 67.14, 2.39 52.02, 6.22 41.11 C10.05 30.19, 16.36 21.95, 22.66 15.2 C28.95 8.45, 40.4 2.84, 43.98 0.6 C47.57 -1.63, 43.83 0.18, 44.15 1.79" stroke="#1e1e1e" stroke-width="2" fill="none"></path></g><g stroke-linecap="round" transform="translate(81 123.5) rotate(0 48 92)"><path d="M51.04 0.87 C57.68 0.12, 65.1 4.25, 71.11 10.47 C77.12 16.68, 83.12 27.34, 87.09 38.14 C91.06 48.94, 93.77 62.14, 94.9 75.26 C96.03 88.37, 95.6 104.02, 93.87 116.82 C92.13 129.62, 89 142.18, 84.47 152.08 C79.94 161.98, 73.27 170.76, 66.71 176.22 C60.16 181.67, 52.16 185.37, 45.13 184.83 C38.09 184.3, 30.61 179.37, 24.5 173.02 C18.39 166.66, 12.37 157.48, 8.47 146.7 C4.57 135.92, 2.23 121.63, 1.09 108.34 C-0.05 95.05, -0.3 79.88, 1.64 66.94 C3.57 54, 8.04 40.77, 12.69 30.68 C17.34 20.59, 22.13 11.25, 29.55 6.4 C36.97 1.55, 51.64 1.5, 57.22 1.58 C62.79 1.67, 63.29 5.37, 62.99 6.92 M33.81 5.21 C39.97 0.38, 48.37 0.31, 55 2.26 C61.63 4.2, 67.98 9.93, 73.61 16.89 C79.23 23.85, 85.14 32.83, 88.75 44.02 C92.37 55.21, 94.74 70.78, 95.3 84 C95.85 97.23, 94.25 110.79, 92.07 123.37 C89.9 135.95, 87.11 150.25, 82.25 159.48 C77.39 168.71, 69.5 174.65, 62.9 178.74 C56.3 182.82, 49.53 185.62, 42.63 184.01 C35.74 182.39, 27.73 176.59, 21.55 169.06 C15.36 161.54, 8.93 150.27, 5.51 138.84 C2.09 127.4, 1.48 113.89, 1.03 100.43 C0.59 86.97, 0.3 70.78, 2.84 58.09 C5.37 45.39, 11.13 33.09, 16.22 24.26 C21.3 15.43, 30.65 8.32, 33.32 5.12 C36 1.92, 32.13 3.5, 32.27 5.08" stroke="none" stroke-width="0" fill="#fab005"></path><path d="M47.81 -0.56 C54.16 -2.01, 61.91 3.97, 68 9.62 C74.09 15.27, 79.89 23.07, 84.33 33.34 C88.77 43.6, 92.74 58.3, 94.63 71.19 C96.53 84.09, 97.3 97.76, 95.68 110.71 C94.05 123.66, 89.37 138.36, 84.91 148.9 C80.44 159.44, 74.98 168.14, 68.89 173.94 C62.79 179.75, 55.17 183.56, 48.34 183.74 C41.5 183.91, 34.16 180.5, 27.89 175.02 C21.61 169.53, 15 160.95, 10.67 150.82 C6.34 140.68, 3.41 127.27, 1.91 114.2 C0.41 101.13, 0.18 85.52, 1.67 72.39 C3.17 59.25, 6.71 45.87, 10.9 35.39 C15.08 24.91, 20.27 15.4, 26.79 9.51 C33.31 3.63, 45.72 1.23, 50.02 0.07 C54.31 -1.1, 52.52 1.03, 52.55 2.5 M47.43 -0.06 C54.05 -1.5, 63.1 4.41, 69.23 10.04 C75.36 15.66, 79.7 23.31, 84.2 33.7 C88.71 44.08, 94.35 59.3, 96.26 72.33 C98.17 85.35, 97.53 99.12, 95.64 111.85 C93.75 124.59, 89.16 138.1, 84.91 148.76 C80.65 159.42, 76.42 169.92, 70.1 175.8 C63.79 181.69, 54.09 184.19, 47.02 184.07 C39.96 183.96, 33.66 180.81, 27.69 175.11 C21.73 169.41, 15.65 160.15, 11.21 149.88 C6.77 139.62, 2.91 126.51, 1.05 113.51 C-0.81 100.52, -1.48 84.93, 0.05 71.92 C1.58 58.91, 5.51 45.96, 10.22 35.47 C14.93 24.97, 22.29 14.65, 28.33 8.97 C34.37 3.29, 43.1 2.34, 46.44 1.36 C49.78 0.38, 48.23 1.56, 48.36 3.09" stroke="#1e1e1e" stroke-width="2" fill="none"></path></g><g transform="translate(116 115) rotate(0 36.5 -52.5)" stroke="none"><path d="M2.04 1.91 C1.83 -1.39, 0.21 -16.75, 0.26 -20.82 C0.31 -24.9, 1.74 -19.97, 2.34 -22.53 C2.93 -25.09, 3.77 -33.62, 3.85 -36.18 C3.94 -38.74, 1.76 -34.05, 2.85 -37.89 C3.95 -41.74, 7.99 -53.65, 10.4 -59.27 C12.81 -64.88, 13.49 -66.03, 17.32 -71.6 C21.14 -77.17, 27.46 -87.01, 33.36 -92.71 C39.27 -98.41, 47.16 -103.51, 52.76 -105.8 C58.37 -108.09, 63.84 -106.8, 66.99 -106.45 C70.15 -106.09, 70.86 -105.54, 71.69 -103.66 C72.52 -101.79, 72.93 -96.81, 71.96 -95.19 C71 -93.58, 67.08 -94.51, 65.9 -93.99 C64.71 -93.47, 65.07 -91.9, 64.84 -92.09 C64.62 -92.27, 66.07 -95.34, 64.55 -95.08 C63.03 -94.82, 56.63 -91.44, 55.74 -90.53 C54.85 -89.61, 59.65 -89.72, 59.23 -89.59 C58.81 -89.46, 56.76 -91.66, 53.23 -89.75 C49.7 -87.85, 41.46 -82.23, 38.07 -78.17 C34.67 -74.1, 35.32 -73.23, 32.85 -65.37 C30.37 -57.51, 24.44 -39.14, 23.21 -31.01 C21.98 -22.89, 24.78 -19.53, 25.49 -16.6 C26.2 -13.67, 26.92 -15.53, 27.46 -13.42 C27.99 -11.31, 28.77 -5.71, 28.7 -3.95 C28.63 -2.18, 31 -3.21, 27.04 -2.82 C23.07 -2.44, 8.7 -1.89, 4.91 -1.63 C1.12 -1.37, 5.49 -1.18, 4.32 -1.27 C3.15 -1.35, -1.76 -2.08, -2.12 -2.14" stroke="none" stroke-width="0" fill="#b2f2bb" fill-rule="evenodd"></path><path fill="#1e1e1e" d="M -2.66,0 Q -2.66,0 -2.68,-1.15 -2.70,-2.3 -2.77,-3.69 -2.84,-5.08 -2.88,-6.85 -2.93,-8.62 -2.96,-10.29 -3.00,-11.96 -3.04,-13.37 -3.08,-14.78 -3.05,-16.99 -3.02,-19.20 -2.67,-20.49 -2.31,-21.79 -2.25,-22.86 -2.19,-23.94 -2.09,-26.34 -1.98,-28.74 -1.60,-30.51 -1.22,-32.28 -1.11,-33.38 -1.00,-34.48 -0.35,-36.42 0.29,-38.36 0.49,-40.39 0.68,-42.42 1.22,-44.20 1.76,-45.99 2.35,-47.87 2.95,-49.76 3.49,-51.47 4.04,-53.18 4.57,-54.38 5.09,-55.59 5.55,-57.68 6.00,-59.76 6.83,-61.51 7.66,-63.26 9.01,-65.51 10.36,-67.76 11.53,-69.78 12.69,-71.80 13.79,-73.37 14.89,-74.94 15.86,-76.51 16.83,-78.08 18.61,-80.54 20.40,-83.01 22.19,-85.04 23.98,-87.07 25.63,-89.05 27.27,-91.03 28.56,-92.51 29.85,-93.99 31.01,-95.05 32.18,-96.11 33.27,-96.91 34.36,-97.70 35.64,-98.58 36.93,-99.45 38.47,-100.20 40.02,-100.95 41.54,-101.55 43.06,-102.16 44.42,-102.90 45.78,-103.65 47.37,-104.34 48.97,-105.03 51.01,-105.34 53.04,-105.65 54.22,-106.06 55.40,-106.47 56.69,-106.73 57.97,-106.99 59.42,-107.10 60.88,-107.22 62.06,-107.29 63.23,-107.37 64.65,-107.49 66.06,-107.61 67.81,-107.23 69.57,-106.85 70.93,-105.39 72.30,-103.93 72.95,-102.81 73.60,-101.70 74.16,-100.69 74.72,-99.68 75.27,-98.66 75.82,-97.64 75.68,-96.21 75.55,-94.78 74.92,-93.75 74.29,-92.73 73.30,-92.33 72.30,-91.93 70.75,-91.82 69.20,-91.71 67.62,-91.45 66.04,-91.19 64.87,-90.55 63.70,-89.91 62.55,-89.61 61.40,-89.31 60.10,-88.67 58.80,-88.02 57.76,-87.47 56.73,-86.92 55.79,-86.37 54.85,-85.82 54.00,-85.09 53.15,-84.35 52.05,-83.58 50.95,-82.81 49.95,-82.28 48.95,-81.75 47.57,-80.52 46.18,-79.28 44.92,-77.70 43.65,-76.11 42.47,-74.46 41.28,-72.81 40.78,-71.80 40.28,-70.78 39.33,-68.88 38.37,-66.98 37.87,-65.45 37.37,-63.92 36.96,-62.78 36.56,-61.65 36.04,-60.53 35.51,-59.41 34.96,-57.22 34.41,-55.03 33.98,-53.23 33.55,-51.43 33.49,-49.97 33.42,-48.51 32.94,-47.31 32.45,-46.10 31.96,-44.07 31.47,-42.04 31.10,-40.58 30.72,-39.13 30.22,-38.08 29.72,-37.04 29.55,-35.11 29.37,-33.19 28.95,-31.94 28.52,-30.70 28.45,-29.45 28.39,-28.20 28.36,-26.72 28.33,-25.24 28.32,-23.62 28.32,-22.00 28.32,-20.48 28.32,-18.96 28.31,-17.54 28.29,-16.12 28.79,-14.61 29.29,-13.09 29.35,-11.95 29.41,-10.80 29.79,-9.68 30.18,-8.56 30.31,-7.22 30.45,-5.89 30.88,-3.80 31.32,-1.70 30.82,-0.71 30.32,0.26 28.85,0.83 27.38,1.39 25.78,1.36 24.18,1.32 22.98,1.30 21.78,1.28 20.69,1.26 19.60,1.25 17.96,1.26 16.32,1.26 14.79,1.27 13.26,1.28 12.05,1.30 10.83,1.32 9.00,1.34 7.17,1.36 4.04,2.08 0.91,2.79 0.44,2.86 -0.02,2.94 -0.49,2.85 -0.96,2.77 -1.38,2.55 -1.79,2.32 -2.12,1.97 -2.44,1.63 -2.64,1.19 -2.83,0.76 -2.88,0.28 -2.93,-0.18 -2.82,-0.64 -2.72,-1.11 -2.47,-1.51 -2.22,-1.92 -1.86,-2.22 -1.49,-2.53 -1.05,-2.70 -0.60,-2.87 -0.13,-2.89 0.34,-2.92 0.79,-2.78 1.25,-2.65 1.64,-2.38 2.04,-2.11 2.32,-1.73 2.60,-1.35 2.75,-0.90 2.90,-0.45 2.90,0.02 2.89,0.50 2.74,0.94 2.58,1.39 2.29,1.77 2.00,2.15 1.60,2.41 1.21,2.67 0.75,2.80 0.29,2.92 -0.18,2.89 -0.65,2.86 -1.09,2.68 -1.53,2.50 -1.89,2.19 -2.25,1.88 -2.49,1.47 -2.74,1.06 -2.83,0.59 -2.93,0.13 -2.88,-0.33 -2.82,-0.81 -2.62,-1.24 -2.41,-1.67 -2.08,-2.01 -1.75,-2.35 -1.33,-2.57 -0.91,-2.79 -0.91,-2.79 -0.91,-2.79 0.51,-3.27 1.94,-3.75 2.89,-4.35 3.85,-4.94 5.51,-5.15 7.17,-5.36 9.00,-5.34 10.83,-5.32 12.05,-5.30 13.26,-5.28 14.79,-5.28 16.31,-5.27 17.94,-5.27 19.57,-5.27 20.63,-5.30 21.70,-5.32 22.85,-5.37 24.01,-5.43 25.05,-5.13 26.10,-4.83 25.67,-3.31 25.25,-1.80 24.65,-2.69 24.05,-3.57 23.81,-5.31 23.56,-7.04 23.06,-8.86 22.56,-10.67 22.57,-12.00 22.58,-13.33 22.14,-14.56 21.70,-15.79 21.68,-17.38 21.67,-18.97 21.67,-20.49 21.68,-22.02 21.68,-23.67 21.69,-25.32 21.73,-26.95 21.76,-28.58 21.82,-29.67 21.88,-30.76 22.12,-32.05 22.36,-33.33 22.56,-34.46 22.75,-35.58 23.15,-37.69 23.54,-39.80 24.15,-41.26 24.75,-42.72 25.18,-44.42 25.62,-46.11 26.13,-47.62 26.64,-49.14 26.72,-50.45 26.81,-51.77 27.24,-53.13 27.67,-54.50 28.17,-56.31 28.67,-58.12 28.81,-59.42 28.95,-60.72 29.45,-61.88 29.96,-63.04 30.85,-65.18 31.75,-67.31 32.23,-68.98 32.70,-70.64 33.20,-71.71 33.70,-72.78 34.39,-73.82 35.07,-74.85 35.72,-76.05 36.37,-77.25 36.91,-78.22 37.46,-79.19 38.66,-80.58 39.86,-81.96 40.67,-83.06 41.47,-84.17 42.68,-85.26 43.88,-86.35 44.78,-87.02 45.67,-87.69 47.05,-88.54 48.44,-89.40 49.38,-90.31 50.32,-91.21 51.52,-91.92 52.73,-92.63 54.34,-93.20 55.95,-93.77 57.48,-94.69 59.02,-95.61 60.62,-95.74 62.22,-95.87 63.68,-96.71 65.15,-97.56 66.48,-97.94 67.81,-98.32 69.34,-98.32 70.86,-98.32 70.37,-97.15 69.88,-95.97 69.42,-96.98 68.96,-97.99 68.51,-98.96 68.07,-99.94 67.09,-101.15 66.11,-102.37 64.73,-102.45 63.36,-102.53 62.25,-102.54 61.13,-102.56 58.89,-102.45 56.64,-102.33 55.16,-101.94 53.67,-101.55 52.14,-101.32 50.60,-101.09 49.21,-100.51 47.82,-99.93 46.21,-99.05 44.60,-98.16 43.19,-97.64 41.78,-97.11 40.49,-96.55 39.20,-95.99 37.87,-95.15 36.54,-94.30 35.54,-93.76 34.53,-93.21 33.49,-92.47 32.44,-91.73 31.22,-90.32 30.00,-88.90 28.45,-86.79 26.90,-84.68 25.24,-82.49 23.58,-80.29 22.47,-78.87 21.37,-77.46 20.28,-76.07 19.18,-74.68 18.62,-73.70 18.05,-72.73 17.09,-71.38 16.13,-70.03 15.16,-67.88 14.18,-65.73 13.20,-63.59 12.22,-61.44 11.62,-59.61 11.02,-57.79 10.57,-56.51 10.11,-55.23 9.31,-53.55 8.51,-51.87 8.09,-50.23 7.67,-48.60 7.33,-46.68 6.99,-44.75 6.69,-42.98 6.39,-41.21 6.17,-39.93 5.94,-38.65 5.81,-37.57 5.67,-36.50 5.15,-35.20 4.64,-33.90 4.50,-32.56 4.36,-31.21 4.16,-29.95 3.96,-28.68 4.02,-27.11 4.09,-25.54 3.98,-23.51 3.86,-21.47 3.44,-20.28 3.02,-19.08 3.05,-16.93 3.08,-14.78 3.04,-13.37 3.00,-11.96 2.96,-10.29 2.93,-8.62 2.88,-6.85 2.84,-5.08 2.77,-3.69 2.70,-2.3 2.68,-1.15 2.66,0 2.62,0.31 2.59,0.63 2.47,0.93 2.36,1.23 2.17,1.50 1.99,1.76 1.75,1.98 1.51,2.19 1.23,2.34 0.94,2.49 0.63,2.57 0.32,2.64 -0.00,2.64 -0.32,2.64 -0.63,2.57 -0.94,2.49 -1.23,2.34 -1.51,2.19 -1.75,1.98 -1.99,1.76 -2.17,1.50 -2.36,1.23 -2.47,0.93 -2.59,0.63 -2.62,0.31 -2.66,-0.00 -2.66,-0.00 L -2.66,0 Z"></path></g><g transform="translate(69 160) rotate(0 18.5 15.5)" stroke="none"><path d="M-0.24 -0.8 C-1.17 1.67, -4.36 9.93, -4.9 15.06 C-5.45 20.19, -4.66 27.58, -3.52 29.96 C-2.38 32.34, 0.56 30.12, 1.94 29.33 C3.31 28.54, 2.05 26.13, 4.75 25.24 C7.44 24.34, 12.34 24.6, 18.11 23.95 C23.88 23.29, 35.34 21.34, 39.37 21.31 C43.4 21.28, 42.6 23.85, 42.28 23.77 C41.96 23.7, 39.95 22.28, 37.45 20.86 C34.96 19.44, 30.26 16.93, 27.33 15.24 C24.4 13.56, 21.4 11.49, 19.88 10.74 C18.35 9.98, 18.87 10.87, 18.16 10.7 C17.45 10.54, 18.1 10.78, 15.63 9.74 C13.16 8.71, 5.92 6.21, 3.35 4.52 C0.78 2.82, 0.79 0.09, 0.2 -0.41" stroke="none" stroke-width="0" fill="#1e1e1e" fill-rule="evenodd"></path><path fill="#1e1e1e" d="M 2.31,0.66 Q 2.31,0.66 1.61,2.63 0.90,4.61 0.28,6.82 -0.34,9.04 -0.85,10.68 -1.36,12.32 -1.48,13.43 -1.60,14.54 -1.59,15.87 -1.57,17.21 -1.49,18.64 -1.40,20.07 -1.33,21.55 -1.25,23.04 -1.18,24.54 -1.12,26.04 -1.06,27.13 -1.01,28.22 -0.65,29.45 -0.30,30.68 -0.34,31.05 -0.39,31.42 -0.52,31.78 -0.66,32.13 -0.87,32.44 -1.08,32.75 -1.37,33.00 -1.65,33.25 -1.98,33.42 -2.31,33.60 -2.68,33.69 -3.04,33.78 -3.42,33.78 -3.80,33.78 -4.16,33.69 -4.53,33.60 -4.86,33.42 -5.19,33.25 -5.47,33.00 -5.76,32.75 -5.97,32.44 -6.18,32.13 -6.32,31.78 -6.45,31.42 -6.50,31.05 -6.54,30.68 -5.77,29.40 -5.01,28.12 -3.68,27.56 -2.36,27.00 -1.02,26.38 0.31,25.77 1.26,24.99 2.22,24.21 3.59,23.71 4.97,23.22 6.53,22.65 8.10,22.08 9.64,21.56 11.17,21.03 12.27,20.95 13.37,20.87 15.24,20.45 17.11,20.03 18.22,19.96 19.34,19.90 20.70,19.84 22.07,19.77 24.17,19.36 26.28,18.95 27.35,18.89 28.43,18.83 30.17,18.79 31.92,18.75 33.46,18.74 35.01,18.72 36.22,18.72 37.42,18.72 38.63,19.18 39.84,19.64 41.03,20.53 42.21,21.41 42.76,21.69 43.32,21.96 43.49,22.33 43.67,22.70 43.75,23.10 43.83,23.51 43.82,23.92 43.80,24.33 43.69,24.72 43.57,25.12 43.37,25.47 43.16,25.83 42.88,26.13 42.59,26.42 42.24,26.64 41.90,26.86 41.51,26.99 41.12,27.12 40.71,27.15 40.30,27.19 39.89,27.12 39.49,27.06 39.11,26.89 38.73,26.73 38.40,26.49 38.07,26.24 37.81,25.92 37.55,25.60 36.54,24.69 35.53,23.78 34.55,23.28 33.56,22.78 31.92,22.05 30.28,21.33 29.11,20.78 27.93,20.22 25.93,19.26 23.93,18.29 22.09,16.96 20.25,15.63 19.37,14.99 18.48,14.36 17.38,13.71 16.28,13.06 15.53,12.30 14.78,11.54 13.18,11.08 11.57,10.61 9.99,10.06 8.41,9.50 7.18,8.93 5.94,8.36 4.45,7.88 2.95,7.39 0.37,4.68 -2.21,1.97 -2.47,1.56 -2.73,1.16 -2.84,0.69 -2.96,0.23 -2.91,-0.24 -2.87,-0.72 -2.68,-1.16 -2.49,-1.60 -2.17,-1.96 -1.85,-2.32 -1.43,-2.55 -1.01,-2.79 -0.54,-2.87 -0.07,-2.96 0.40,-2.90 0.88,-2.83 1.31,-2.62 1.74,-2.40 2.07,-2.06 2.41,-1.72 2.62,-1.29 2.84,-0.86 2.90,-0.38 2.96,0.09 2.87,0.56 2.78,1.03 2.54,1.45 2.30,1.86 1.94,2.18 1.59,2.50 1.14,2.69 0.70,2.88 0.22,2.92 -0.25,2.95 -0.71,2.84 -1.18,2.72 -1.58,2.46 -1.99,2.20 -2.29,1.82 -2.59,1.45 -2.75,1.00 -2.91,0.54 -2.92,0.06 -2.94,-0.41 -2.79,-0.87 -2.65,-1.32 -2.37,-1.71 -2.09,-2.10 -1.70,-2.38 -1.30,-2.66 -0.85,-2.80 -0.39,-2.94 0.08,-2.92 0.57,-2.91 1.02,-2.74 1.47,-2.57 1.84,-2.27 2.21,-1.97 2.21,-1.97 2.21,-1.97 3.56,-0.47 4.90,1.03 6.30,1.49 7.70,1.94 8.74,2.46 9.77,2.98 10.90,3.48 12.03,3.97 14.15,4.88 16.28,5.78 17.75,6.61 19.23,7.43 20.22,7.91 21.21,8.39 22.17,8.92 23.14,9.45 24.44,10.57 25.75,11.69 27.32,12.43 28.88,13.16 30.34,14.16 31.80,15.16 32.99,15.74 34.19,16.33 35.22,16.66 36.25,16.99 37.84,17.69 39.44,18.40 41.38,20.18 43.32,21.96 43.49,22.33 43.67,22.70 43.75,23.10 43.83,23.51 43.82,23.92 43.80,24.33 43.69,24.72 43.57,25.12 43.37,25.47 43.16,25.83 42.88,26.13 42.59,26.42 42.24,26.64 41.90,26.86 41.51,26.99 41.12,27.12 40.71,27.15 40.30,27.19 39.89,27.12 39.49,27.06 39.11,26.89 38.73,26.73 38.40,26.49 38.07,26.24 37.81,25.92 37.55,25.60 37.72,25.64 37.88,25.67 36.45,25.47 35.03,25.27 33.52,25.27 32.00,25.26 30.40,25.29 28.79,25.32 27.58,25.36 26.36,25.40 24.27,25.82 22.18,26.25 20.94,26.25 19.71,26.26 18.12,26.39 16.54,26.52 15.20,26.91 13.86,27.31 12.70,27.34 11.55,27.38 10.09,27.86 8.63,28.34 6.70,29.32 4.77,30.29 3.85,30.89 2.93,31.48 1.90,31.95 0.88,32.42 -0.30,32.83 -1.49,33.23 -0.89,31.96 -0.30,30.68 -0.34,31.05 -0.39,31.42 -0.52,31.78 -0.66,32.13 -0.87,32.44 -1.08,32.75 -1.37,33.00 -1.65,33.25 -1.98,33.42 -2.31,33.60 -2.68,33.69 -3.04,33.78 -3.42,33.78 -3.80,33.78 -4.16,33.69 -4.53,33.60 -4.86,33.42 -5.19,33.25 -5.47,33.00 -5.76,32.75 -5.97,32.44 -6.18,32.13 -6.32,31.78 -6.45,31.42 -6.50,31.05 -6.54,30.68 -6.56,30.96 -6.58,31.24 -6.78,29.73 -6.98,28.22 -6.92,27.13 -6.87,26.03 -6.80,24.53 -6.74,23.03 -6.65,21.52 -6.57,20.01 -6.43,18.46 -6.30,16.91 -6.02,15.36 -5.74,13.81 -5.43,12.45 -5.11,11.09 -4.59,9.63 -4.08,8.17 -3.64,5.80 -3.20,3.43 -2.76,1.38 -2.31,-0.66 -2.20,-0.92 -2.08,-1.19 -1.91,-1.42 -1.74,-1.66 -1.51,-1.84 -1.29,-2.02 -1.03,-2.15 -0.77,-2.27 -0.48,-2.33 -0.20,-2.39 0.08,-2.38 0.37,-2.37 0.65,-2.29 0.93,-2.21 1.18,-2.07 1.43,-1.92 1.64,-1.72 1.85,-1.52 2.01,-1.28 2.17,-1.03 2.26,-0.76 2.35,-0.48 2.38,-0.20 2.40,0.08 2.35,0.37 2.31,0.66 2.31,0.66 L 2.31,0.66 Z"></path></g><g transform="translate(143 183) rotate(0 26 -4.5)" stroke="none"><path d="M0.78 1.3 C0.71 0.44, -2.01 -0.6, -0.13 -2.68 C1.74 -4.77, 9.51 -10.31, 12.03 -11.23 C14.54 -12.15, 14.88 -8.14, 14.95 -8.21 C15.03 -8.28, 11.29 -10.93, 12.49 -11.65 C13.69 -12.37, 19.9 -11.41, 22.17 -12.52 C24.43 -13.63, 21.31 -17.73, 26.08 -18.3 C30.86 -18.87, 46.43 -20.13, 50.83 -15.95 C55.23 -11.77, 52.5 2.62, 52.48 6.78 C52.47 10.94, 53.72 9.7, 50.72 9.01 C47.72 8.31, 38.19 4.08, 34.48 2.6 C30.77 1.12, 29.47 0.11, 28.46 0.14 C27.45 0.17, 32.5 3.01, 28.42 2.78 C24.33 2.55, 8.88 -0.6, 3.95 -1.25 C-0.98 -1.9, -0.22 -1.58, -1.15 -1.12" stroke="none" stroke-width="0" fill="#1e1e1e" fill-rule="evenodd"></path><path fill="#1e1e1e" d="M -2.10,-1.40 Q -2.10,-1.40 -1.56,-2.28 -1.01,-3.17 -0.10,-4.25 0.81,-5.33 2.20,-6.44 3.60,-7.55 5.06,-8.54 6.53,-9.52 7.33,-10.22 8.13,-10.92 9.64,-11.54 11.15,-12.16 12.41,-13.13 13.67,-14.09 14.96,-14.56 16.25,-15.03 17.71,-15.77 19.17,-16.52 20.80,-17.15 22.43,-17.78 23.89,-18.32 25.35,-18.85 27.02,-19.00 28.69,-19.16 29.93,-19.14 31.17,-19.12 32.25,-19.33 33.33,-19.54 34.65,-19.67 35.96,-19.81 37.46,-19.93 38.97,-20.05 40.72,-20.49 42.48,-20.92 43.79,-21.06 45.10,-21.21 46.16,-21.25 47.23,-21.29 48.28,-21.03 49.33,-20.77 50.38,-20.04 51.42,-19.31 52.01,-17.87 52.61,-16.44 52.95,-14.80 53.29,-13.17 53.35,-11.99 53.41,-10.82 53.42,-9.01 53.44,-7.21 53.81,-5.91 54.18,-4.60 54.29,-3.26 54.41,-1.92 54.41,-0.46 54.42,0.99 54.80,2.19 55.18,3.40 55.29,4.74 55.41,6.07 55.44,7.13 55.47,8.18 55.42,8.60 55.38,9.02 55.24,9.41 55.10,9.81 54.87,10.16 54.63,10.51 54.33,10.79 54.02,11.07 53.65,11.28 53.28,11.48 52.88,11.58 52.47,11.69 52.05,11.70 51.63,11.71 51.22,11.62 50.82,11.52 50.44,11.33 50.07,11.15 49.75,10.87 49.43,10.60 49.18,10.26 48.94,9.92 48.78,9.53 48.63,9.14 48.57,8.73 48.51,8.31 48.84,9.41 49.16,10.51 47.03,9.63 44.89,8.75 43.31,8.16 41.72,7.58 40.31,7.01 38.90,6.44 37.68,6.25 36.46,6.06 35.41,5.60 34.37,5.13 33.26,5.14 32.16,5.16 30.29,4.70 28.42,4.25 26.57,4.21 24.71,4.18 23.36,4.12 22.00,4.06 20.48,4.09 18.96,4.11 17.87,4.15 16.77,4.18 15.69,4.17 14.60,4.15 12.55,4.14 10.50,4.13 9.18,4.16 7.87,4.19 6.53,4.21 5.18,4.23 2.07,3.58 -1.03,2.93 -1.47,2.68 -1.92,2.44 -2.26,2.07 -2.60,1.70 -2.80,1.24 -3.00,0.78 -3.05,0.28 -3.10,-0.21 -2.98,-0.70 -2.87,-1.19 -2.60,-1.62 -2.33,-2.05 -1.94,-2.36 -1.56,-2.68 -1.09,-2.86 -0.62,-3.04 -0.11,-3.06 0.38,-3.08 0.86,-2.94 1.35,-2.80 1.76,-2.51 2.17,-2.22 2.47,-1.81 2.77,-1.41 2.92,-0.93 3.07,-0.45 3.06,0.04 3.06,0.55 2.89,1.02 2.72,1.50 2.41,1.89 2.10,2.29 1.68,2.56 1.26,2.84 0.77,2.96 0.28,3.09 -0.21,3.06 -0.71,3.02 -1.18,2.83 -1.64,2.63 -2.02,2.30 -2.40,1.97 -2.65,1.53 -2.90,1.10 -3.00,0.61 -3.10,0.11 -3.04,-0.38 -2.98,-0.87 -2.76,-1.33 -2.54,-1.78 -2.19,-2.14 -1.84,-2.50 -1.39,-2.73 -0.94,-2.96 -0.44,-3.03 0.04,-3.10 0.54,-3.01 1.04,-2.93 1.03,-2.93 1.03,-2.93 3.11,-2.58 5.18,-2.23 6.53,-2.21 7.87,-2.19 9.18,-2.16 10.50,-2.13 12.55,-2.14 14.60,-2.15 15.69,-2.17 16.78,-2.18 17.88,-2.14 18.98,-2.11 20.51,-2.07 22.05,-2.03 23.44,-2.07 24.83,-2.11 26.11,-2.11 27.39,-2.11 28.45,-2.01 29.51,-1.91 31.03,-1.45 32.55,-0.99 33.63,-0.90 34.71,-0.82 36.08,-0.31 37.44,0.19 39.19,0.60 40.95,1.01 42.15,1.43 43.34,1.85 45.19,2.24 47.04,2.62 48.44,3.04 49.84,3.46 51.18,3.94 52.52,4.43 53.99,6.31 55.47,8.18 55.42,8.60 55.38,9.02 55.24,9.41 55.10,9.81 54.87,10.16 54.63,10.51 54.33,10.79 54.02,11.07 53.65,11.28 53.28,11.48 52.88,11.58 52.47,11.69 52.05,11.70 51.63,11.71 51.23,11.62 50.82,11.52 50.44,11.33 50.07,11.15 49.75,10.87 49.43,10.60 49.18,10.26 48.94,9.92 48.78,9.53 48.63,9.14 48.57,8.73 48.51,8.31 48.51,7.34 48.51,6.36 48.42,5.11 48.33,3.86 47.95,2.50 47.56,1.15 47.54,-0.24 47.52,-1.64 47.42,-2.98 47.31,-4.31 46.93,-5.71 46.55,-7.11 46.55,-8.41 46.54,-9.71 46.53,-11.07 46.53,-12.44 46.42,-13.57 46.31,-14.71 44.82,-14.70 43.33,-14.69 42.11,-14.29 40.90,-13.89 39.47,-13.88 38.05,-13.87 36.32,-13.73 34.59,-13.59 32.92,-13.21 31.25,-12.83 30.08,-12.79 28.90,-12.75 27.48,-12.69 26.07,-12.62 24.93,-12.26 23.80,-11.90 22.05,-11.35 20.31,-10.80 19.28,-10.23 18.26,-9.67 16.47,-9.19 14.68,-8.72 12.98,-7.85 11.28,-6.98 10.33,-6.26 9.39,-5.54 8.10,-4.55 6.81,-3.56 5.79,-2.72 4.76,-1.87 4.04,-1.07 3.31,-0.27 2.71,0.56 2.10,1.40 1.90,1.63 1.70,1.86 1.46,2.04 1.21,2.22 0.92,2.33 0.64,2.44 0.34,2.49 0.04,2.53 -0.26,2.49 -0.56,2.46 -0.85,2.36 -1.14,2.26 -1.39,2.09 -1.64,1.92 -1.85,1.69 -2.06,1.47 -2.20,1.20 -2.35,0.93 -2.43,0.64 -2.50,0.34 -2.51,0.04 -2.51,-0.26 -2.44,-0.56 -2.38,-0.85 -2.24,-1.13 -2.10,-1.40 -2.10,-1.40 L -2.10,-1.40 Z"></path></g><g transform="translate(119.29289014121889 225.46439021562423) rotate(0 7.875160935770452 -5.570235783837688)" stroke="none"><path d="M-0.34 0.32 C1.99 0.27, 12.46 2.23, 14.68 1.24 C16.89 0.25, 13.55 -3.73, 12.93 -5.62 C12.31 -7.51, 12.88 -11.02, 10.96 -10.08 C9.03 -9.15, 3.38 -1.66, 1.4 -0.01" stroke="none" stroke-width="0" fill="#1e1e1e" fill-rule="evenodd"></path><path fill="#1e1e1e" d="M 0,-2.64 Q 0,-2.64 1.21,-2.65 2.42,-2.66 3.76,-2.74 5.09,-2.81 6.71,-2.87 8.32,-2.92 10.45,-2.93 12.58,-2.94 13.67,-2.99 14.77,-3.03 15.06,-3.05 15.35,-3.07 15.72,-3.03 16.08,-2.98 16.43,-2.85 16.78,-2.72 17.08,-2.51 17.39,-2.30 17.63,-2.02 17.88,-1.74 18.05,-1.41 18.22,-1.09 18.31,-0.73 18.40,-0.37 18.40,0.00 18.40,0.37 18.31,0.73 18.22,1.09 18.05,1.41 17.88,1.74 17.63,2.02 17.39,2.30 17.08,2.51 16.78,2.72 16.43,2.85 16.08,2.98 15.72,3.03 15.35,3.07 14.08,2.42 12.82,1.77 11.87,0.31 10.93,-1.15 10.03,-2.84 9.13,-4.52 8.62,-5.66 8.12,-6.80 7.67,-8.01 7.23,-9.22 9.42,-8.74 11.60,-8.27 10.36,-6.89 9.12,-5.51 7.64,-3.96 6.16,-2.40 4.96,-1.11 3.76,0.17 3.20,1.08 2.64,1.98 2.26,2.35 1.87,2.73 1.39,2.95 0.90,3.18 0.37,3.24 -0.15,3.30 -0.68,3.19 -1.20,3.08 -1.66,2.81 -2.12,2.53 -2.47,2.13 -2.82,1.72 -3.02,1.22 -3.23,0.73 -3.26,0.19 -3.29,-0.33 -3.15,-0.85 -3.01,-1.37 -2.71,-1.81 -2.41,-2.26 -1.99,-2.59 -1.56,-2.91 -1.06,-3.09 -0.55,-3.26 -0.01,-3.26 0.51,-3.27 1.02,-3.10 1.53,-2.93 1.96,-2.61 2.39,-2.29 2.69,-1.85 2.99,-1.40 3.14,-0.89 3.29,-0.37 3.26,0.15 3.23,0.69 3.04,1.19 2.84,1.69 2.50,2.10 2.15,2.51 1.70,2.79 1.24,3.07 0.72,3.18 0.19,3.30 -0.33,3.25 -0.86,3.19 -1.35,2.97 -1.84,2.75 -2.23,2.38 -2.62,2.01 -2.87,1.54 -3.13,1.07 -3.22,0.54 -3.31,0.01 -3.22,-0.51 -3.14,-1.03 -2.89,-1.51 -2.64,-1.98 -2.64,-1.98 -2.64,-1.98 -1.13,-3.88 0.37,-5.77 1.60,-7.09 2.84,-8.40 4.37,-10.08 5.89,-11.75 7.31,-12.69 8.72,-13.62 11.38,-11.52 14.03,-9.41 14.46,-8.31 14.88,-7.20 15.67,-5.70 16.47,-4.21 16.96,-3.21 17.45,-2.22 16.40,-2.64 15.35,-3.07 15.72,-3.03 16.08,-2.98 16.43,-2.85 16.78,-2.72 17.08,-2.51 17.39,-2.30 17.63,-2.02 17.88,-1.74 18.05,-1.41 18.22,-1.09 18.31,-0.73 18.40,-0.37 18.40,-0.00 18.40,0.37 18.31,0.73 18.22,1.09 18.05,1.41 17.88,1.74 17.63,2.02 17.39,2.30 17.08,2.51 16.78,2.72 16.43,2.85 16.08,2.98 15.72,3.03 15.35,3.07 15.06,3.05 14.77,3.03 13.67,2.99 12.58,2.94 10.45,2.93 8.32,2.92 6.71,2.87 5.09,2.81 3.76,2.74 2.42,2.66 1.21,2.65 0,2.64 -0.31,2.60 -0.63,2.56 -0.93,2.45 -1.22,2.34 -1.49,2.16 -1.75,1.98 -1.96,1.74 -2.17,1.50 -2.32,1.22 -2.47,0.93 -2.55,0.62 -2.62,0.31 -2.62,-0.00 -2.62,-0.31 -2.55,-0.62 -2.47,-0.93 -2.32,-1.22 -2.17,-1.50 -1.96,-1.74 -1.75,-1.98 -1.49,-2.16 -1.22,-2.34 -0.93,-2.45 -0.63,-2.56 -0.31,-2.60 0.00,-2.64 0.00,-2.64 L 0,-2.64 Z"></path></g><g transform="translate(66.25209844522851 244.4582391101883) rotate(0 55.669690341711316 8.016435409206451)" stroke="none"><path fill="#1e1e1e" d="M 0.89,-1.49 Q 0.89,-1.49 2.20,-0.78 3.52,-0.06 4.75,0.41 5.99,0.89 7.27,1.69 8.54,2.50 10.18,3.63 11.82,4.76 13.71,5.76 15.60,6.76 17.97,8.00 20.34,9.24 22.59,10.28 24.84,11.32 27.07,12.29 29.30,13.26 31.52,14.19 33.75,15.12 35.90,15.76 38.06,16.40 40.25,16.93 42.44,17.46 44.34,17.65 46.23,17.84 48.05,17.89 49.87,17.94 51.55,18.17 53.22,18.41 54.82,18.48 56.41,18.55 58.26,18.38 60.11,18.21 61.92,17.87 63.72,17.54 65.51,17.13 67.30,16.73 68.79,16.26 70.27,15.80 71.53,15.51 72.78,15.22 73.93,14.85 75.08,14.48 76.51,13.88 77.93,13.28 79.60,12.54 81.26,11.80 83.01,11.00 84.76,10.20 86.31,9.54 87.87,8.87 88.96,8.31 90.06,7.75 91.21,7.04 92.35,6.33 93.75,5.68 95.15,5.03 96.00,4.35 96.85,3.68 97.70,2.89 98.56,2.10 99.42,1.24 100.29,0.39 101.71,-0.78 103.14,-1.95 104.67,-2.80 106.20,-3.64 107.78,-5.10 109.36,-6.56 109.75,-6.82 110.14,-7.08 110.59,-7.21 111.04,-7.33 111.51,-7.30 111.98,-7.27 112.41,-7.09 112.85,-6.92 113.20,-6.61 113.55,-6.31 113.79,-5.90 114.03,-5.50 114.13,-5.04 114.23,-4.58 114.17,-4.12 114.12,-3.65 113.92,-3.23 113.72,-2.81 113.39,-2.47 113.07,-2.13 112.65,-1.91 112.24,-1.70 111.78,-1.63 111.31,-1.55 110.85,-1.63 110.39,-1.71 109.98,-1.94 109.57,-2.16 109.25,-2.50 108.93,-2.84 108.73,-3.27 108.54,-3.70 108.49,-4.16 108.45,-4.63 108.55,-5.08 108.65,-5.54 108.90,-5.94 109.14,-6.34 109.50,-6.64 109.86,-6.94 110.30,-7.11 110.73,-7.28 111.20,-7.30 111.67,-7.32 112.12,-7.20 112.57,-7.07 112.96,-6.80 113.34,-6.53 113.62,-6.16 113.90,-5.78 114.05,-5.34 114.19,-4.89 114.19,-4.43 114.19,-3.96 114.03,-3.52 113.88,-3.07 113.59,-2.70 113.31,-2.33 113.31,-2.33 113.31,-2.33 111.00,-0.51 108.68,1.30 107.08,2.02 105.49,2.74 104.55,3.34 103.62,3.94 102.64,4.82 101.66,5.70 100.59,6.57 99.51,7.45 98.23,8.28 96.95,9.11 95.74,9.59 94.53,10.08 93.16,10.83 91.79,11.59 90.58,12.06 89.37,12.54 87.91,13.10 86.44,13.67 84.71,14.57 82.97,15.46 81.26,16.30 79.55,17.15 77.85,17.85 76.16,18.56 74.78,18.85 73.40,19.15 72.32,19.23 71.24,19.30 69.64,19.69 68.04,20.08 66.19,20.48 64.33,20.87 62.39,21.22 60.45,21.57 58.31,21.81 56.16,22.04 54.38,21.86 52.60,21.68 51.16,21.32 49.71,20.96 47.81,20.82 45.91,20.68 43.86,20.41 41.81,20.15 39.54,19.62 37.28,19.10 34.97,18.45 32.66,17.79 30.41,16.90 28.15,16.01 25.87,15.09 23.58,14.17 21.23,13.18 18.89,12.19 16.47,11.07 14.06,9.94 11.91,8.99 9.76,8.04 7.93,6.98 6.10,5.93 5.24,5.22 4.37,4.51 2.98,3.82 1.60,3.14 0.35,2.31 -0.89,1.49 -1.06,1.36 -1.22,1.23 -1.35,1.07 -1.48,0.90 -1.57,0.71 -1.66,0.52 -1.69,0.31 -1.73,0.11 -1.72,-0.09 -1.71,-0.30 -1.65,-0.50 -1.59,-0.70 -1.48,-0.88 -1.37,-1.06 -1.22,-1.21 -1.07,-1.36 -0.89,-1.47 -0.71,-1.58 -0.51,-1.64 -0.31,-1.71 -0.10,-1.72 0.09,-1.73 0.30,-1.70 0.51,-1.66 0.70,-1.57 0.89,-1.49 0.89,-1.49 L 0.89,-1.49 Z"></path></g></svg>