<svg version="1.1" xmlns="http://www.w3.org/2000/svg" viewBox="0 0 881 397.5" width="1762" height="795">
  <!-- svg-source:excalidraw -->
  
  <defs>
    <style class="style-fonts">
      @font-face {
        font-family: "Virgil";
        src: url("https://excalidraw.com/Virgil.woff2");
      }
      @font-face {
        font-family: "Cascadia";
        src: url("https://excalidraw.com/Cascadia.woff2");
      }
      @font-face {
        font-family: "Assistant";
        src: url("https://excalidraw.com/Assistant-Regular.woff2");
      }
    </style>
    
  </defs>
  <g stroke-linecap="round" transform="translate(10 49) rotate(0 96.5 43)"><path d="M21.5 0 C61.62 0.42, 104.44 -1.17, 171.5 0 C182.99 -0.37, 189.64 6.53, 193 21.5 C191.2 41.45, 191.93 56.77, 193 64.5 C191.85 81, 187.31 89.43, 171.5 86 C110.8 83.77, 54.43 84.87, 21.5 86 C9.23 84.21, -2.89 80.72, 0 64.5 C3.11 53.95, -0.83 44.27, 0 21.5 C3.55 7.78, 4.51 -0.27, 21.5 0" stroke="none" stroke-width="0" fill="#a5d8ff"></path><path d="M21.5 0 C52.67 -1.23, 85.89 -1.55, 171.5 0 M21.5 0 C57.6 0.06, 95.52 -0.25, 171.5 0 M171.5 0 C186.26 -1.71, 191.17 6.76, 193 21.5 M171.5 0 C187.74 0.35, 192.94 8.83, 193 21.5 M193 21.5 C194.9 32.8, 194.19 45.21, 193 64.5 M193 21.5 C193.68 35.71, 193.26 50.49, 193 64.5 M193 64.5 C194.23 79.71, 185.11 85.7, 171.5 86 M193 64.5 C193.37 76.71, 187.04 86.2, 171.5 86 M171.5 86 C130.8 85.35, 91.89 86.61, 21.5 86 M171.5 86 C137.45 85.29, 102.34 85.15, 21.5 86 M21.5 86 C8.64 87.28, 1.08 77.72, 0 64.5 M21.5 86 C7.26 83.78, -1.61 77.49, 0 64.5 M0 64.5 C-1.02 51.83, -1.63 40.07, 0 21.5 M0 64.5 C-0.1 53.75, 0.27 44.67, 0 21.5 M0 21.5 C0.4 6.71, 8.16 -0.66, 21.5 0 M0 21.5 C0.48 6.53, 7.25 -1.01, 21.5 0" stroke="#1e1e1e" stroke-width="2" fill="none"></path></g><g transform="translate(42.037109375 80.5) rotate(0 64.462890625 11.5)"><text x="64.462890625" y="18.400390625" font-family="Helvetica, Segoe UI Emoji" font-size="20px" fill="#1e1e1e" text-anchor="middle" style="white-space: pre;" direction="ltr" dominant-baseline="alphabetic">Parent commit</text></g><g stroke-linecap="round" transform="translate(10.5 214) rotate(0 96.5 43)"><path d="M21.5 0 C55.41 1.05, 85.17 -0.87, 171.5 0 C187.53 -3.12, 193.92 8.91, 193 21.5 C191.39 35.51, 189.64 48.8, 193 64.5 C191.2 78.28, 188.4 88.27, 171.5 86 C131.97 86.45, 96.26 83.99, 21.5 86 C3.67 89.32, 0.13 79.96, 0 64.5 C1.27 57.98, 3.72 46.52, 0 21.5 C-2 7.12, 5.42 2.13, 21.5 0" stroke="none" stroke-width="0" fill="#a5d8ff"></path><path d="M21.5 0 C66.71 -0.96, 107.63 -0.47, 171.5 0 M21.5 0 C79.89 -0.21, 139.33 0.14, 171.5 0 M171.5 0 C187.79 -0.92, 191.43 6.62, 193 21.5 M171.5 0 C185.76 1.5, 193.63 8.48, 193 21.5 M193 21.5 C190.74 31.98, 192.18 44.68, 193 64.5 M193 21.5 C193.87 32.45, 192.15 42.99, 193 64.5 M193 64.5 C194.38 78.96, 187.79 86.67, 171.5 86 M193 64.5 C194.33 78.92, 187.79 86.87, 171.5 86 M171.5 86 C139.04 84.96, 107.08 84.96, 21.5 86 M171.5 86 C131.66 85.48, 93.87 85.19, 21.5 86 M21.5 86 C9.13 84.75, -1.31 77.27, 0 64.5 M21.5 86 C9.21 87.27, -1.86 79.09, 0 64.5 M0 64.5 C0.28 49.1, 1.41 33.66, 0 21.5 M0 64.5 C-1.15 54.2, -0.31 45.44, 0 21.5 M0 21.5 C-1.44 8.06, 5.8 -0.13, 21.5 0 M0 21.5 C-1.33 6.83, 7.9 0.14, 21.5 0" stroke="#1e1e1e" stroke-width="2" fill="none"></path></g><g transform="translate(49.2119140625 245.5) rotate(0 57.7880859375 11.5)"><text x="57.7880859375" y="18.400390625" font-family="Helvetica, Segoe UI Emoji" font-size="20px" fill="#1e1e1e" text-anchor="middle" style="white-space: pre;" direction="ltr" dominant-baseline="alphabetic">Child commit</text></g><g stroke-linecap="round" transform="translate(311 84) rotate(0 102.5 51)"><path d="M25.5 0 C84.29 1.58, 143.56 -1.94, 179.5 0 C198.14 1.93, 206.4 6.6, 205 25.5 C203.54 36.92, 203.88 50.11, 205 76.5 C208.27 94.74, 196.55 99.73, 179.5 102 C126.76 105.87, 83.53 107.04, 25.5 102 C6.24 103.37, -2.26 89.91, 0 76.5 C3.05 62.23, 1.63 48.06, 0 25.5 C-1.59 8.27, 6.11 -0.21, 25.5 0" stroke="none" stroke-width="0" fill="#b2f2bb"></path><path d="M25.5 0 C62.57 -1.39, 100.37 -0.87, 179.5 0 M25.5 0 C83.79 0.59, 140.7 -0.42, 179.5 0 M179.5 0 C194.85 -0.44, 205.92 6.6, 205 25.5 M179.5 0 C195.08 -1.37, 205.18 9.92, 205 25.5 M205 25.5 C203.86 41.26, 203.48 55.16, 205 76.5 M205 25.5 C204.6 37.22, 203.86 51.05, 205 76.5 M205 76.5 C205.53 95.01, 197.37 100.52, 179.5 102 M205 76.5 C205.34 95.44, 196.02 99.75, 179.5 102 M179.5 102 C120.37 104.78, 56.87 104.63, 25.5 102 M179.5 102 C137.73 100.51, 96.66 101.85, 25.5 102 M25.5 102 C8.54 101.29, 0.11 91.53, 0 76.5 M25.5 102 C6.96 99.72, -2.11 92.95, 0 76.5 M0 76.5 C-1.74 58.64, 1.45 39.45, 0 25.5 M0 76.5 C0.65 58.98, 0.2 43.61, 0 25.5 M0 25.5 C-0.35 9.25, 8.68 -0.06, 25.5 0 M0 25.5 C1.43 9.02, 6.42 -0.4, 25.5 0" stroke="#1e1e1e" stroke-width="2" fill="none"></path></g><g transform="translate(375.1552734375 89) rotate(0 38.3447265625 46)"><text x="38.3447265625" y="18.400390625" font-family="Helvetica, Segoe UI Emoji" font-size="20px" fill="#1e1e1e" text-anchor="middle" style="white-space: pre;" direction="ltr" dominant-baseline="alphabetic">Tree</text><text x="38.3447265625" y="41.400390625" font-family="Helvetica, Segoe UI Emoji" font-size="20px" fill="#1e1e1e" text-anchor="middle" style="white-space: pre;" direction="ltr" dominant-baseline="alphabetic"></text><text x="38.3447265625" y="64.400390625" font-family="Helvetica, Segoe UI Emoji" font-size="20px" fill="#1e1e1e" text-anchor="middle" style="white-space: pre;" direction="ltr" dominant-baseline="alphabetic">file</text><text x="38.3447265625" y="87.400390625" font-family="Helvetica, Segoe UI Emoji" font-size="20px" fill="#1e1e1e" text-anchor="middle" style="white-space: pre;" direction="ltr" dominant-baseline="alphabetic">directory</text></g><g stroke-linecap="round" transform="translate(511.5 245) rotate(0 102.5 51)"><path d="M25.5 0 C82.53 -3.72, 138.33 -3.47, 179.5 0 C195 -3.45, 208.35 6.33, 205 25.5 C202.75 35.34, 205.61 47.62, 205 76.5 C204.48 96.12, 198.57 103.23, 179.5 102 C136.72 104.03, 101.95 100.21, 25.5 102 C5 104.88, -2.22 93.88, 0 76.5 C-2.84 60.5, -3.75 46.55, 0 25.5 C0.05 10.18, 8.71 -3.09, 25.5 0" stroke="none" stroke-width="0" fill="#b2f2bb"></path><path d="M25.5 0 C61.09 -0.31, 98.7 -2.36, 179.5 0 M25.5 0 C70.55 -2.11, 114.66 -1.05, 179.5 0 M179.5 0 C194.86 -1.83, 204.6 9.09, 205 25.5 M179.5 0 C194.83 -0.42, 205.94 9.93, 205 25.5 M205 25.5 C204.33 38.32, 203.02 53.78, 205 76.5 M205 25.5 C205.01 35.89, 203.99 47.52, 205 76.5 M205 76.5 C205.66 92.86, 196.13 102.25, 179.5 102 M205 76.5 C203.35 94.14, 197.76 102.22, 179.5 102 M179.5 102 C121.7 100.36, 61.38 101, 25.5 102 M179.5 102 C131.05 103.61, 81.74 103.57, 25.5 102 M25.5 102 C6.72 100.77, -1.64 95.17, 0 76.5 M25.5 102 C9.43 103.56, 0.46 95.24, 0 76.5 M0 76.5 C1.82 58.98, -0.17 43.83, 0 25.5 M0 76.5 C0.35 59.45, 0.64 41.38, 0 25.5 M0 25.5 C1.63 8.18, 7.15 -1.94, 25.5 0 M0 25.5 C-0.59 7.49, 10.06 -2.19, 25.5 0" stroke="#1e1e1e" stroke-width="2" fill="none"></path></g><g transform="translate(575.6552734375 250) rotate(0 38.3447265625 46)"><text x="38.3447265625" y="18.400390625" font-family="Helvetica, Segoe UI Emoji" font-size="20px" fill="#1e1e1e" text-anchor="middle" style="white-space: pre;" direction="ltr" dominant-baseline="alphabetic">Tree</text><text x="38.3447265625" y="41.400390625" font-family="Helvetica, Segoe UI Emoji" font-size="20px" fill="#1e1e1e" text-anchor="middle" style="white-space: pre;" direction="ltr" dominant-baseline="alphabetic"></text><text x="38.3447265625" y="64.400390625" font-family="Helvetica, Segoe UI Emoji" font-size="20px" fill="#1e1e1e" text-anchor="middle" style="white-space: pre;" direction="ltr" dominant-baseline="alphabetic">file</text><text x="38.3447265625" y="87.400390625" font-family="Helvetica, Segoe UI Emoji" font-size="20px" fill="#1e1e1e" text-anchor="middle" style="white-space: pre;" direction="ltr" dominant-baseline="alphabetic">directory</text></g><g stroke-linecap="round" transform="translate(712 10) rotate(0 79.5 48.000000000000014)"><path d="M69.23 0.8 C80.6 -0.62, 96.32 0.77, 107.84 3.32 C119.35 5.88, 130.33 10.73, 138.33 16.15 C146.32 21.57, 152.68 28.75, 155.79 35.85 C158.89 42.96, 159.84 51.38, 156.95 58.79 C154.06 66.19, 146.74 74.57, 138.44 80.27 C130.15 85.96, 118.47 90.32, 107.18 92.95 C95.9 95.59, 82.93 97.02, 70.75 96.08 C58.57 95.13, 44.4 91.47, 34.11 87.27 C23.82 83.07, 14.62 77.31, 8.99 70.89 C3.36 64.47, 0.45 56.33, 0.34 48.74 C0.23 41.14, 2.68 32.13, 8.34 25.31 C14 18.49, 23.5 11.88, 34.28 7.82 C45.05 3.76, 66.23 1.92, 73.01 0.94 C79.8 -0.03, 74.81 1.16, 74.97 1.98 M68.67 0.84 C79.66 -0.98, 92.95 0.3, 104.25 2.45 C115.55 4.59, 127.71 8.51, 136.45 13.72 C145.18 18.93, 153.33 26.11, 156.67 33.69 C160.01 41.28, 159.38 51.66, 156.49 59.23 C153.6 66.79, 147.28 73.34, 139.35 79.06 C131.41 84.79, 119.98 90.61, 108.89 93.57 C97.79 96.52, 85.03 97.43, 72.79 96.8 C60.55 96.18, 45.96 94.15, 35.43 89.8 C24.91 85.45, 15.54 77.35, 9.63 70.72 C3.73 64.09, 0.06 57.21, 0 50.01 C-0.06 42.82, 3.94 34.22, 9.29 27.54 C14.64 20.86, 22.65 14.62, 32.11 9.95 C41.56 5.27, 60.3 0.88, 66.02 -0.52 C71.74 -1.92, 65.82 0.83, 66.44 1.56" stroke="none" stroke-width="0" fill="#ffc9c9"></path><path d="M80.06 0.12 C91.76 -0.6, 104.86 2.8, 115.61 6.26 C126.37 9.72, 137.36 14.83, 144.59 20.87 C151.81 26.92, 157.34 35.31, 158.94 42.52 C160.55 49.74, 158.78 57.18, 154.22 64.15 C149.67 71.12, 140.97 79.42, 131.6 84.35 C122.22 89.28, 109.87 92.12, 97.97 93.74 C86.07 95.36, 71.91 95.7, 60.18 94.09 C48.46 92.47, 36.73 88.84, 27.61 84.05 C18.49 79.25, 9.83 72.45, 5.47 65.31 C1.11 58.17, 0.04 48.78, 1.43 41.2 C2.82 33.62, 7.11 25.68, 13.82 19.82 C20.53 13.96, 28.85 9.16, 41.7 6.03 C54.54 2.9, 80.79 1.45, 90.89 1.04 C100.99 0.63, 102.29 2.77, 102.29 3.57 M65.83 2.01 C76.81 0.24, 90.92 0.09, 102.69 2.23 C114.46 4.38, 127.44 9.39, 136.44 14.9 C145.45 20.41, 153.33 28.45, 156.74 35.27 C160.15 42.1, 159.25 48.66, 156.91 55.85 C154.58 63.04, 150.26 72.44, 142.72 78.44 C135.18 84.44, 122.97 88.91, 111.68 91.85 C100.39 94.78, 87.24 96.62, 74.97 96.02 C62.69 95.43, 48.46 92.36, 38.03 88.28 C27.61 84.2, 18.91 77.68, 12.41 71.53 C5.91 65.39, 0 58.59, -0.98 51.41 C-1.97 44.23, 1.35 35.44, 6.51 28.43 C11.66 21.43, 20.21 13.77, 29.94 9.37 C39.68 4.97, 59.01 3.24, 64.91 2.06 C70.8 0.87, 65.05 1.8, 65.31 2.24" stroke="#1e1e1e" stroke-width="2" fill="none"></path></g><g transform="translate(772.3787608956695 46.55887450304573) rotate(0 18.90625 11.5)"><text x="18.90625" y="18.400390625" font-family="Helvetica, Segoe UI Emoji" font-size="20px" fill="#1e1e1e" text-anchor="middle" style="white-space: pre;" direction="ltr" dominant-baseline="alphabetic">blob</text></g><g stroke-linecap="round"><g transform="translate(443 146) rotate(0 133.12992354488 -44.567056720023984)"><path d="M0.3 -0.42 C44.34 -14.9, 220.75 -72.43, 265.05 -86.73 M-1.01 -1.69 C43.33 -16.56, 222.87 -74.3, 267.27 -88.71" stroke="#1e1e1e" stroke-width="2" fill="none"></path></g><g transform="translate(443 146) rotate(0 133.12992354488 -44.567056720023984)"><path d="M247.54 -73.35 C254.08 -80.64, 262.49 -84.53, 267.27 -88.71 M247.54 -73.35 C255.42 -79.23, 260.92 -84.16, 267.27 -88.71" stroke="#1e1e1e" stroke-width="2" fill="none"></path></g><g transform="translate(443 146) rotate(0 133.12992354488 -44.567056720023984)"><path d="M242.28 -89.63 C250.78 -90.93, 261.13 -88.84, 267.27 -88.71 M242.28 -89.63 C252.11 -89.56, 259.52 -88.55, 267.27 -88.71" stroke="#1e1e1e" stroke-width="2" fill="none"></path></g></g><mask></mask><g stroke-linecap="round"><g transform="translate(455 177) rotate(0 31.17937810458244 36.37102027335206)"><path d="M-0.33 0.51 C9.93 12.66, 52.33 61.14, 62.68 73.01 M1.71 -0.27 C11.77 11.56, 52.23 59.22, 62.09 71.42" stroke="#1e1e1e" stroke-width="2" fill="none"></path></g><g transform="translate(455 177) rotate(0 31.17937810458244 36.37102027335206)"><path d="M40.5 58.83 C49.86 64.99, 59.21 68.45, 62.09 71.42 M40.5 58.83 C45.65 61.45, 52.06 66.17, 62.09 71.42" stroke="#1e1e1e" stroke-width="2" fill="none"></path></g><g transform="translate(455 177) rotate(0 31.17937810458244 36.37102027335206)"><path d="M53.65 47.89 C57.84 58.33, 62.01 66.1, 62.09 71.42 M53.65 47.89 C55.09 53.6, 57.82 61.38, 62.09 71.42" stroke="#1e1e1e" stroke-width="2" fill="none"></path></g></g><mask></mask><g stroke-linecap="round"><g transform="translate(646 311) rotate(0 73.20179591216151 -2.276175236320114)"><path d="M-1.17 0.44 C23.28 -0.29, 122.82 -2.4, 147.57 -3.26 M0.42 -0.38 C24.68 -0.93, 122.53 -4.43, 146.92 -4.99" stroke="#1e1e1e" stroke-width="2" fill="none"></path></g><g transform="translate(646 311) rotate(0 73.20179591216151 -2.276175236320114)"><path d="M123.7 4.26 C133.07 1.97, 142.29 -1.86, 146.92 -4.99 M123.7 4.26 C129.73 1.8, 134.27 -0.97, 146.92 -4.99" stroke="#1e1e1e" stroke-width="2" fill="none"></path></g><g transform="translate(646 311) rotate(0 73.20179591216151 -2.276175236320114)"><path d="M123.19 -12.83 C132.9 -8.7, 142.32 -6.12, 146.92 -4.99 M123.19 -12.83 C129.5 -11.17, 134.18 -9.81, 146.92 -4.99" stroke="#1e1e1e" stroke-width="2" fill="none"></path></g></g><mask></mask><g stroke-linecap="round"><g transform="translate(660 337) rotate(0 66.01508851862513 20.6378825534228)"><path d="M0.34 -0.44 C22.43 6.56, 110.84 36.07, 132.97 42.99 M-0.94 -1.72 C21.04 4.88, 110.22 34.12, 132.54 41.39" stroke="#1e1e1e" stroke-width="2" fill="none"></path></g><g transform="translate(660 337) rotate(0 66.01508851862513 20.6378825534228)"><path d="M107.55 42.23 C115.14 43.5, 125.87 43.51, 132.54 41.39 M107.55 42.23 C113.65 41.59, 118.52 41.81, 132.54 41.39" stroke="#1e1e1e" stroke-width="2" fill="none"></path></g><g transform="translate(660 337) rotate(0 66.01508851862513 20.6378825534228)"><path d="M112.86 25.97 C118.81 32.68, 127.77 38.11, 132.54 41.39 M112.86 25.97 C117.8 29, 121.48 32.86, 132.54 41.39" stroke="#1e1e1e" stroke-width="2" fill="none"></path></g></g><mask></mask><g transform="translate(811.6650390625 294) rotate(0 8.3349609375 11.5)"><text x="8.3349609375" y="18.400390625" font-family="Helvetica, Segoe UI Emoji" font-size="20px" fill="#1e1e1e" text-anchor="middle" style="white-space: pre;" direction="ltr" dominant-baseline="alphabetic">...</text></g><g transform="translate(813.6650390625 364.5) rotate(0 8.3349609375 11.5)"><text x="8.3349609375" y="18.400390625" font-family="Helvetica, Segoe UI Emoji" font-size="20px" fill="#1e1e1e" text-anchor="middle" style="white-space: pre;" direction="ltr" dominant-baseline="alphabetic">...</text></g><g stroke-linecap="round"><g transform="translate(205 97) rotate(0 53.6460888681747 15.077122348453841)"><path d="M-0.17 -0.82 C18.17 4.17, 90.76 24.65, 109.01 29.63 M-1.72 1.36 C16.56 6.56, 89.65 26.21, 108.07 30.98" stroke="#1e1e1e" stroke-width="2" fill="none"></path></g><g transform="translate(205 97) rotate(0 53.6460888681747 15.077122348453841)"><path d="M83.17 33.23 C87.08 32.81, 93.13 32.9, 108.07 30.98 M83.17 33.23 C88.57 32.63, 93.49 32.36, 108.07 30.98" stroke="#1e1e1e" stroke-width="2" fill="none"></path></g><g transform="translate(205 97) rotate(0 53.6460888681747 15.077122348453841)"><path d="M87.55 16.7 C90.48 19.77, 95.6 23.37, 108.07 30.98 M87.55 16.7 C91.94 19.86, 95.88 23.3, 108.07 30.98" stroke="#1e1e1e" stroke-width="2" fill="none"></path></g></g><mask></mask><g stroke-linecap="round"><g transform="translate(108 215) rotate(0 0.46926049347968046 -39.44762616120278)"><path d="M-0.47 -0.32 C-0.61 -13.35, -0.18 -65.82, -0.08 -78.58 M1.48 -1.53 C1.21 -14.37, -0.3 -64.49, -0.54 -77.35" stroke="#1e1e1e" stroke-width="2" fill="none"></path></g><g transform="translate(108 215) rotate(0 0.46926049347968046 -39.44762616120278)"><path d="M8.6 -54.08 C4.85 -60.98, 1.11 -68.99, -0.54 -77.35 M8.6 -54.08 C4.36 -63.23, 1.48 -71.75, -0.54 -77.35" stroke="#1e1e1e" stroke-width="2" fill="none"></path></g><g transform="translate(108 215) rotate(0 0.46926049347968046 -39.44762616120278)"><path d="M-8.5 -53.65 C-6.08 -60.64, -3.64 -68.8, -0.54 -77.35 M-8.5 -53.65 C-6.03 -63, -2.2 -71.69, -0.54 -77.35" stroke="#1e1e1e" stroke-width="2" fill="none"></path></g></g><mask></mask></svg>