<svg version="1.1" xmlns="http://www.w3.org/2000/svg" viewBox="0 0 2054.358945039839 586.7501857958539" width="4108.717890079678" height="1173.5003715917078">
  <!-- svg-source:excalidraw -->
  
  <defs>
    <style class="style-fonts">
      @font-face {
        font-family: "Virgil";
        src: url("https://excalidraw.com/Virgil.woff2");
      }
      @font-face {
        font-family: "Cascadia";
        src: url("https://excalidraw.com/Cascadia.woff2");
      }
      @font-face {
        font-family: "Assistant";
        src: url("https://excalidraw.com/Assistant-Regular.woff2");
      }
    </style>
    
  </defs>
  <g stroke-linecap="round" transform="translate(10 104.10732263516951) rotate(0 44.5 44.499999999999986)"><path d="M22.25 0 C37.11 -2.78, 52.27 3.02, 66.75 0 C78.9 -1.61, 89.05 7.51, 89 22.25 C86.18 34.51, 90.28 51.42, 89 66.75 C88.27 84.5, 78.61 85.58, 66.75 89 C57.4 89.85, 46.59 89.84, 22.25 89 C8.48 91.52, 2.92 78.54, 0 66.75 C-3.13 57.23, -1.24 43.56, 0 22.25 C-0.56 7.52, 7.4 2.82, 22.25 0" stroke="none" stroke-width="0" fill="#a5d8ff"></path><path d="M22.25 0 C40.86 -1.12, 57.87 0.98, 66.75 0 M22.25 0 C36.11 -0.61, 50.32 -0.27, 66.75 0 M66.75 0 C83.03 -1.26, 87.13 9.4, 89 22.25 M66.75 0 C81.43 -1.82, 89.09 8.49, 89 22.25 M89 22.25 C87.82 38.66, 90.69 56.77, 89 66.75 M89 22.25 C89.34 36.46, 88.46 50.34, 89 66.75 M89 66.75 C90.36 79.87, 83.54 89.12, 66.75 89 M89 66.75 C90.29 82.66, 83.66 89.08, 66.75 89 M66.75 89 C51.57 89.41, 36.91 86.83, 22.25 89 M66.75 89 C48.75 87.87, 32.11 89.43, 22.25 89 M22.25 89 C9.03 89.08, 1.97 81.96, 0 66.75 M22.25 89 C8.6 90.73, 0.47 80.53, 0 66.75 M0 66.75 C1.39 50.62, -0.5 35.43, 0 22.25 M0 66.75 C0.06 54.94, -0.48 43.02, 0 22.25 M0 22.25 C-1.06 8.91, 6.13 -1.43, 22.25 0 M0 22.25 C-1.22 7.8, 6.43 -1.75, 22.25 0" stroke="#1e1e1e" stroke-width="2" fill="none"></path></g><g stroke-linecap="round" transform="translate(197.9957976569857 103.2447767655797) rotate(0 44.5 44.5)"><path d="M22.25 0 C38.87 -1.17, 55.91 0.66, 66.75 0 C80.96 -0.88, 91.79 6.16, 89 22.25 C88.42 35.41, 90.27 51.83, 89 66.75 C85.75 82.99, 83.68 89.54, 66.75 89 C55.45 88.67, 46.6 86.66, 22.25 89 C3.84 85.95, 1.2 84.29, 0 66.75 C0.91 55.23, 0.22 41.78, 0 22.25 C3.05 9.4, 6.35 -2.14, 22.25 0" stroke="none" stroke-width="0" fill="#a5d8ff"></path><path d="M22.25 0 C32.82 -1.2, 43.02 1.3, 66.75 0 M22.25 0 C30.64 0.18, 40.63 -0.17, 66.75 0 M66.75 0 C81.57 -1.52, 88.37 7.85, 89 22.25 M66.75 0 C81.25 1.57, 87.16 6.11, 89 22.25 M89 22.25 C88.45 35.74, 88.91 45.37, 89 66.75 M89 22.25 C88.45 32.86, 88.55 43.29, 89 66.75 M89 66.75 C89.62 80.63, 82.09 90.78, 66.75 89 M89 66.75 C87.05 80.42, 82.3 87.38, 66.75 89 M66.75 89 C49.58 90.17, 31.75 87.24, 22.25 89 M66.75 89 C53.12 88.36, 37.61 89.91, 22.25 89 M22.25 89 C7.77 89.21, -1.32 81.57, 0 66.75 M22.25 89 C5.32 88.16, 0.55 81, 0 66.75 M0 66.75 C0.03 57.67, -1.4 46.93, 0 22.25 M0 66.75 C-0.19 58.44, 1.12 48.85, 0 22.25 M0 22.25 C-1.07 6.17, 8.21 1.94, 22.25 0 M0 22.25 C-0.73 7.7, 6.38 2.08, 22.25 0" stroke="#1e1e1e" stroke-width="2" fill="none"></path></g><g stroke-linecap="round" transform="translate(200.9957976569857 250.2447767655797) rotate(0 44.5 44.5)"><path d="M22.25 0 C38.41 2.6, 47.23 1.36, 66.75 0 C83.33 2.52, 85.55 8.63, 89 22.25 C90.22 34.02, 86.23 46.64, 89 66.75 C88.73 79.22, 83.05 86.01, 66.75 89 C53.05 91.45, 43.32 86.63, 22.25 89 C8.76 86.12, -2.12 82.03, 0 66.75 C-0.57 51.29, -3.75 39.54, 0 22.25 C3.07 5.16, 5.92 -0.36, 22.25 0" stroke="none" stroke-width="0" fill="#a5d8ff"></path><path d="M22.25 0 C40.06 0.77, 55.23 -0.42, 66.75 0 M22.25 0 C38.97 0, 55.7 -0.71, 66.75 0 M66.75 0 C82.32 -0.34, 87.2 8.2, 89 22.25 M66.75 0 C82.92 0.35, 87.68 5.95, 89 22.25 M89 22.25 C89.73 36.06, 86.95 51.17, 89 66.75 M89 22.25 C88.6 36.93, 89.42 52.4, 89 66.75 M89 66.75 C88.8 82.43, 83.28 90.1, 66.75 89 M89 66.75 C88.32 80.22, 81.62 87.99, 66.75 89 M66.75 89 C55.07 88.74, 44.63 89.95, 22.25 89 M66.75 89 C51.55 89.97, 35.89 89.04, 22.25 89 M22.25 89 C8.49 90.49, 0.03 83, 0 66.75 M22.25 89 C8.56 87.63, 0.87 82.33, 0 66.75 M0 66.75 C2.03 50.5, 1.31 33.68, 0 22.25 M0 66.75 C-0.38 51.88, 0.9 39.43, 0 22.25 M0 22.25 C1.95 7.8, 8.39 -1.59, 22.25 0 M0 22.25 C0.01 9.67, 6.68 -1.15, 22.25 0" stroke="#1e1e1e" stroke-width="2" fill="none"></path></g><g stroke-linecap="round"><g transform="translate(194.574549185972 149.3003713139416) rotate(0 -46.69081600482161 -0.6720622819821642)"><path d="M-0.31 0.57 C-15.9 0.34, -76.96 -0.1, -92.62 -0.43 M1.73 -0.17 C-14.04 -0.81, -77.58 -2.08, -93.17 -2.08" stroke="#1e1e1e" stroke-width="2" fill="none"></path></g><g transform="translate(194.574549185972 149.3003713139416) rotate(0 -46.69081600482161 -0.6720622819821642)"><path d="M-69.58 -10.35 C-77.49 -6.01, -85.86 -5.61, -93.17 -2.08 M-69.58 -10.35 C-75.87 -7.87, -84.21 -5.22, -93.17 -2.08" stroke="#1e1e1e" stroke-width="2" fill="none"></path></g><g transform="translate(194.574549185972 149.3003713139416) rotate(0 -46.69081600482161 -0.6720622819821642)"><path d="M-69.78 6.75 C-77.75 4.62, -86.05 -1.46, -93.17 -2.08 M-69.78 6.75 C-75.87 4.2, -84.15 1.82, -93.17 -2.08" stroke="#1e1e1e" stroke-width="2" fill="none"></path></g></g><mask></mask><g stroke-linecap="round"><g transform="translate(199.49579765698576 289.36428074781486) rotate(0 -49.24789882849288 -65.46514568157585)"><path d="M0.97 -0.74 C-15.21 -22.52, -80.92 -108.4, -97.57 -130.19 M0.01 1.49 C-16.2 -20.68, -81.37 -109.94, -98.03 -131.92" stroke="#1e1e1e" stroke-width="2" fill="none"></path></g><g transform="translate(199.49579765698576 289.36428074781486) rotate(0 -49.24789882849288 -65.46514568157585)"><path d="M-77.17 -118.15 C-83.83 -119.98, -86.73 -125.81, -98.03 -131.92 M-77.17 -118.15 C-83.23 -122.36, -88.26 -124.56, -98.03 -131.92" stroke="#1e1e1e" stroke-width="2" fill="none"></path></g><g transform="translate(199.49579765698576 289.36428074781486) rotate(0 -49.24789882849288 -65.46514568157585)"><path d="M-90.9 -107.96 C-94.07 -112.53, -93.43 -120.98, -98.03 -131.92 M-90.9 -107.96 C-93.46 -114.89, -94.97 -119.7, -98.03 -131.92" stroke="#1e1e1e" stroke-width="2" fill="none"></path></g></g><mask></mask><g stroke-linecap="round"><g transform="translate(243.1476692018981 53.68067276364994) rotate(0 0.9461288542362354 23.878510589129277)"><path d="M-0.4 -0.08 C-0.01 7.81, 1.82 39.33, 2.26 47.38 M0.4 -0.6 C0.74 7.35, 1.73 39.89, 2.02 47.89" stroke="#1e1e1e" stroke-width="2" fill="none"></path></g><g transform="translate(243.1476692018981 53.68067276364994) rotate(0 0.9461288542362354 23.878510589129277)"><path d="M-6.89 25.71 C-4.4 32.96, -2.31 39.5, 2.02 47.89 M-6.89 25.71 C-3.68 34.77, -0.04 42.57, 2.02 47.89" stroke="#1e1e1e" stroke-width="2" fill="none"></path></g><g transform="translate(243.1476692018981 53.68067276364994) rotate(0 0.9461288542362354 23.878510589129277)"><path d="M9.45 25.18 C7.12 32.52, 4.39 39.22, 2.02 47.89 M9.45 25.18 C6.34 34.4, 3.67 42.4, 2.02 47.89" stroke="#1e1e1e" stroke-width="2" fill="none"></path></g></g><mask></mask><g transform="translate(226.4307478095687 10) rotate(0 12.005859375 20.700000000000003)"><text x="0" y="33.120703125" font-family="Helvetica, Segoe UI Emoji" font-size="36px" fill="#1e1e1e" text-anchor="start" style="white-space: pre;" direction="ltr" dominant-baseline="alphabetic">A</text></g><g transform="translate(233.01846364243977 395.81713629472836) rotate(0 12.005859375 20.69999999999999)"><text x="0" y="33.120703125" font-family="Helvetica, Segoe UI Emoji" font-size="36px" fill="#1e1e1e" text-anchor="start" style="white-space: pre;" direction="ltr" dominant-baseline="alphabetic">B</text></g><g stroke-linecap="round"><g transform="translate(242.62710730962806 392.03946504584326) rotate(0 -0.3776465229441328 -25.076909803222662)"><path d="M0.81 -0.52 C0.5 -8.94, -0.61 -42.56, -0.95 -50.99 M-0.22 1.83 C-0.78 -6.43, -1.66 -41.21, -2.01 -49.88" stroke="#1e1e1e" stroke-width="2" fill="none"></path></g><g transform="translate(242.62710730962806 392.03946504584326) rotate(0 -0.3776465229441328 -25.076909803222662)"><path d="M7.3 -26.68 C3.03 -35.66, -0.99 -44.91, -2.01 -49.88 M7.3 -26.68 C4.51 -32.53, 3.32 -37.31, -2.01 -49.88" stroke="#1e1e1e" stroke-width="2" fill="none"></path></g><g transform="translate(242.62710730962806 392.03946504584326) rotate(0 -0.3776465229441328 -25.076909803222662)"><path d="M-9.79 -26.13 C-7.64 -35.43, -5.25 -44.88, -2.01 -49.88 M-9.79 -26.13 C-8.77 -32.26, -6.14 -37.16, -2.01 -49.88" stroke="#1e1e1e" stroke-width="2" fill="none"></path></g></g><mask></mask><g stroke-linecap="round"><g transform="translate(376.8520601051789 215.41063619100876) rotate(0 130.18776631762353 0.845375105958567)"><path d="M0.5 0.42 C43.89 0.59, 218.13 0.84, 261.35 1.02" stroke="#1e1e1e" stroke-width="4.5" fill="none" stroke-dasharray="1.5 10"></path></g><g transform="translate(376.8520601051789 215.41063619100876) rotate(0 130.18776631762353 0.845375105958567)"><path d="M237.83 9.51 C247.54 7.77, 254.72 1.99, 261.35 1.02" stroke="#1e1e1e" stroke-width="4.5" fill="none" stroke-dasharray="1.5 8"></path></g><g transform="translate(376.8520601051789 215.41063619100876) rotate(0 130.18776631762353 0.845375105958567)"><path d="M237.88 -7.59 C247.57 -2.78, 254.74 -2.02, 261.35 1.02" stroke="#1e1e1e" stroke-width="4.5" fill="none" stroke-dasharray="1.5 8"></path></g></g><mask></mask><g stroke-linecap="round" transform="translate(763.2409166874367 116.05750096831397) rotate(0 44.5 44.5)"><path d="M22.25 0 C35.6 1.98, 52.49 0.89, 66.75 0 C81.56 0.59, 91.47 10.37, 89 22.25 C91.56 41.3, 87.1 52.16, 89 66.75 C87.67 84.58, 85 86.22, 66.75 89 C55.67 84.93, 40.7 87.22, 22.25 89 C5.49 85.81, -0.12 83.7, 0 66.75 C-1.01 56.17, 1.35 41.9, 0 22.25 C1.97 4.48, 8.94 -0.72, 22.25 0" stroke="none" stroke-width="0" fill="#a5d8ff"></path><path d="M22.25 0 C39.22 0.59, 55.96 -1.6, 66.75 0 M22.25 0 C36.35 -0.74, 51.14 0.74, 66.75 0 M66.75 0 C79.6 1.52, 88.86 8.87, 89 22.25 M66.75 0 C80.75 0.01, 87.88 5.38, 89 22.25 M89 22.25 C88.42 36.95, 86.71 52.6, 89 66.75 M89 22.25 C90.01 36.62, 90.24 50.43, 89 66.75 M89 66.75 C88.01 80.79, 82.97 90.08, 66.75 89 M89 66.75 C89.75 79.38, 81.67 87.53, 66.75 89 M66.75 89 C50.56 90.65, 36.05 88.82, 22.25 89 M66.75 89 C53.28 88.84, 40.87 87.92, 22.25 89 M22.25 89 C7.68 87.54, -0.36 80.73, 0 66.75 M22.25 89 C6.02 87.21, -1.5 79.53, 0 66.75 M0 66.75 C0.95 54.41, 0.27 39.82, 0 22.25 M0 66.75 C0.25 54.07, 0.28 40.85, 0 22.25 M0 22.25 C0.04 7.31, 7.06 -0.57, 22.25 0 M0 22.25 C0.65 5.39, 8.2 -0.93, 22.25 0" stroke="#1e1e1e" stroke-width="2" fill="none"></path></g><g stroke-linecap="round" transform="translate(951.2367143444222 115.1949550987242) rotate(0 44.5 44.5)"><path d="M22.25 0 C33.27 0.45, 48.98 0.15, 66.75 0 C84.05 2.96, 90.72 5.78, 89 22.25 C88.12 34.9, 88.32 52.62, 89 66.75 C92.41 78.8, 81.65 86.13, 66.75 89 C57.79 87.1, 45.26 85.05, 22.25 89 C7.3 91.12, -1.63 84.97, 0 66.75 C2.16 53.93, 2.03 42.53, 0 22.25 C1.52 6.69, 4.23 -1.36, 22.25 0" stroke="none" stroke-width="0" fill="#a5d8ff"></path><path d="M22.25 0 C34.17 -1.75, 48.76 -0.36, 66.75 0 M22.25 0 C38.42 1.2, 52.51 0.99, 66.75 0 M66.75 0 C81.44 1.45, 88.27 7.42, 89 22.25 M66.75 0 C80.46 -2.04, 89.76 5.46, 89 22.25 M89 22.25 C87.04 34.57, 89.49 46.75, 89 66.75 M89 22.25 C90.27 36.72, 88.83 52.63, 89 66.75 M89 66.75 C90.39 82.67, 82.24 87.09, 66.75 89 M89 66.75 C89.08 80.11, 83.05 86.76, 66.75 89 M66.75 89 C53.01 88.94, 35.58 90.69, 22.25 89 M66.75 89 C56.37 88.36, 47.19 88.36, 22.25 89 M22.25 89 C7.05 88.15, -1.21 80.03, 0 66.75 M22.25 89 C5.91 86.95, 0.28 79.55, 0 66.75 M0 66.75 C-0.25 56.63, -0.32 45.07, 0 22.25 M0 66.75 C0.21 55.11, -0.12 43.54, 0 22.25 M0 22.25 C-0.36 6.85, 7.98 -1.76, 22.25 0 M0 22.25 C0.78 6.48, 8.94 0.63, 22.25 0" stroke="#1e1e1e" stroke-width="2" fill="none"></path></g><g stroke-linecap="round" transform="translate(954.2367143444222 262.1949550987242) rotate(0 44.5 44.5)"><path d="M22.25 0 C38.03 0.39, 56.32 2.76, 66.75 0 C83.3 -1.63, 89.27 10.34, 89 22.25 C87.33 43.03, 92.07 55.02, 89 66.75 C89.07 78.71, 78.7 91.36, 66.75 89 C55.71 85.55, 48.4 90.86, 22.25 89 C5.79 92.39, -2.19 81.33, 0 66.75 C1.5 49.53, 1.06 37.46, 0 22.25 C-3.19 6.06, 8.03 1.22, 22.25 0" stroke="none" stroke-width="0" fill="#a5d8ff"></path><path d="M22.25 0 C37.22 0.13, 52.48 0.21, 66.75 0 M22.25 0 C32.33 0.33, 44.31 0.29, 66.75 0 M66.75 0 C80.86 0, 88.02 5.65, 89 22.25 M66.75 0 C82.34 -1.96, 88.1 7.19, 89 22.25 M89 22.25 C89.11 36.63, 89.49 49.87, 89 66.75 M89 22.25 C88.93 34.43, 90.12 47.95, 89 66.75 M89 66.75 C89.65 79.67, 81.66 87.72, 66.75 89 M89 66.75 C90.47 79.34, 82.66 89.01, 66.75 89 M66.75 89 C49.88 90.28, 32.05 87.32, 22.25 89 M66.75 89 C52.66 87.95, 38.13 88.25, 22.25 89 M22.25 89 C6.2 87.44, -1.31 79.8, 0 66.75 M22.25 89 C7.7 86.96, -1.22 82.22, 0 66.75 M0 66.75 C-0.17 50.23, -0.77 33.76, 0 22.25 M0 66.75 C-0.13 52.29, -0.33 37.66, 0 22.25 M0 22.25 C0.56 5.66, 8.1 -0.81, 22.25 0 M0 22.25 C1.52 8.05, 7.43 -1.89, 22.25 0" stroke="#1e1e1e" stroke-width="2" fill="none"></path></g><g stroke-linecap="round"><g transform="translate(947.8154658734087 161.2505496470861) rotate(0 -46.69081600482161 -0.6720622819821642)"><path d="M-0.14 0.61 C-15.56 0.25, -78.04 -1.83, -93.47 -1.96 M-1.67 -0.11 C-17.17 -0.34, -79.22 -0.45, -94.47 -0.75" stroke="#1e1e1e" stroke-width="2" fill="none"></path></g><g transform="translate(947.8154658734087 161.2505496470861) rotate(0 -46.69081600482161 -0.6720622819821642)"><path d="M-70.9 -9.07 C-75.02 -7.43, -82.22 -4.36, -94.47 -0.75 M-70.9 -9.07 C-80.41 -4.86, -90.07 -2.28, -94.47 -0.75" stroke="#1e1e1e" stroke-width="2" fill="none"></path></g><g transform="translate(947.8154658734087 161.2505496470861) rotate(0 -46.69081600482161 -0.6720622819821642)"><path d="M-71.06 8.03 C-75.18 5.93, -82.35 5.25, -94.47 -0.75 M-71.06 8.03 C-80.34 5.45, -89.93 1.24, -94.47 -0.75" stroke="#1e1e1e" stroke-width="2" fill="none"></path></g></g><mask></mask><g stroke-linecap="round"><g transform="translate(952.7367143444225 301.3144590809593) rotate(0 -49.24789882849291 -65.46514568157579)"><path d="M-0.09 -0.62 C-16.38 -22.35, -81.24 -108.2, -97.84 -129.76 M-1.6 1.68 C-17.97 -20.41, -82.47 -109.01, -98.44 -131.27" stroke="#1e1e1e" stroke-width="2" fill="none"></path></g><g transform="translate(952.7367143444225 301.3144590809593) rotate(0 -49.24789882849291 -65.46514568157579)"><path d="M-77.74 -117.26 C-84.81 -120.22, -87.8 -127.34, -98.44 -131.27 M-77.74 -117.26 C-85.88 -122.37, -93.78 -128.53, -98.44 -131.27" stroke="#1e1e1e" stroke-width="2" fill="none"></path></g><g transform="translate(952.7367143444225 301.3144590809593) rotate(0 -49.24789882849291 -65.46514568157579)"><path d="M-91.6 -107.23 C-94.72 -113.07, -93.72 -123.08, -98.44 -131.27 M-91.6 -107.23 C-94.52 -116.21, -97.21 -126.14, -98.44 -131.27" stroke="#1e1e1e" stroke-width="2" fill="none"></path></g></g><mask></mask><g transform="translate(986.2593803298763 407.7673146278728) rotate(0 12.005859375 20.69999999999999)"><text x="0" y="33.120703125" font-family="Helvetica, Segoe UI Emoji" font-size="36px" fill="#1e1e1e" text-anchor="start" style="white-space: pre;" direction="ltr" dominant-baseline="alphabetic">B</text></g><g stroke-linecap="round"><g transform="translate(995.8680239970646 403.9896433789877) rotate(0 -0.3776465229440191 -25.076909803222634)"><path d="M-0.44 0 C-0.65 -8.68, -1.35 -42.69, -1.34 -51.22 M1.54 -1.04 C1.73 -9.69, 1.47 -42.01, 1.06 -50.24" stroke="#1e1e1e" stroke-width="2" fill="none"></path></g><g transform="translate(995.8680239970646 403.9896433789877) rotate(0 -0.3776465229440191 -25.076909803222634)"><path d="M10.21 -26.97 C7.36 -34.79, 2.91 -39.97, 1.06 -50.24 M10.21 -26.97 C8.28 -32.93, 6.73 -36.7, 1.06 -50.24" stroke="#1e1e1e" stroke-width="2" fill="none"></path></g><g transform="translate(995.8680239970646 403.9896433789877) rotate(0 -0.3776465229440191 -25.076909803222634)"><path d="M-6.89 -26.54 C-4.73 -34.42, -4.17 -39.73, 1.06 -50.24 M-6.89 -26.54 C-5.15 -32.58, -3.02 -36.44, 1.06 -50.24" stroke="#1e1e1e" stroke-width="2" fill="none"></path></g></g><mask></mask><g transform="translate(312.4044190366916 133.4337547838753) rotate(0 210.9375 21.599999999999994)"><text x="0" y="34.762499999999996" font-family="Cascadia, Segoe UI Emoji" font-size="36px" fill="#1e1e1e" text-anchor="start" style="white-space: pre;" direction="ltr" dominant-baseline="alphabetic">git merge --squash B</text></g><g stroke-linecap="round" transform="translate(41.75352983253197 138.34682193888673) rotate(0 8.414750448985217 8.414750448985217)"><path d="M8.92 0.02 C10.54 0.07, 12.7 1.34, 13.98 2.59 C15.25 3.84, 16.33 5.87, 16.57 7.53 C16.81 9.2, 16.36 11.12, 15.41 12.59 C14.46 14.05, 12.55 15.75, 10.87 16.33 C9.19 16.91, 6.95 16.82, 5.33 16.05 C3.71 15.29, 2.03 13.31, 1.17 11.72 C0.31 10.13, -0.25 8.28, 0.15 6.53 C0.54 4.78, 2.07 2.39, 3.53 1.23 C4.99 0.07, 7.89 -0.26, 8.89 -0.42 C9.89 -0.59, 9.48 -0.02, 9.54 0.23 M9.85 -0.3 C11.65 -0.26, 14.19 1.02, 15.36 2.61 C16.52 4.19, 16.9 7.44, 16.84 9.21 C16.79 10.98, 16.31 12.01, 15.04 13.24 C13.77 14.47, 10.98 16.31, 9.2 16.6 C7.43 16.89, 5.77 15.74, 4.4 14.96 C3.02 14.18, 1.52 13.64, 0.93 11.94 C0.34 10.25, 0.39 6.54, 0.85 4.8 C1.31 3.07, 2.22 2.42, 3.69 1.54 C5.16 0.67, 8.52 -0.19, 9.67 -0.46 C10.83 -0.73, 10.67 -0.32, 10.61 -0.06" stroke="none" stroke-width="0" fill="#b2f2bb"></path><path d="M8.81 -0.48 C10.66 -0.4, 13.24 1.32, 14.58 2.66 C15.93 4, 16.78 5.75, 16.87 7.56 C16.95 9.38, 16.03 12.16, 15.09 13.58 C14.14 15, 12.88 15.62, 11.17 16.09 C9.47 16.55, 6.6 16.96, 4.85 16.39 C3.1 15.81, 1.41 14.29, 0.66 12.63 C-0.09 10.96, -0.21 8.16, 0.34 6.38 C0.88 4.6, 2.35 3.04, 3.93 1.95 C5.5 0.86, 8.69 0.07, 9.77 -0.15 C10.85 -0.36, 10.46 0.42, 10.41 0.66 M8.06 0.63 C9.83 0.5, 12.23 1.08, 13.54 2.06 C14.85 3.05, 15.62 5.01, 15.92 6.55 C16.23 8.09, 15.98 9.65, 15.36 11.3 C14.74 12.96, 13.81 15.57, 12.2 16.46 C10.59 17.35, 7.46 17.05, 5.69 16.64 C3.93 16.23, 2.43 15.57, 1.6 14.01 C0.77 12.45, 0.68 9.1, 0.71 7.27 C0.74 5.45, 0.65 4.18, 1.79 3.07 C2.92 1.97, 6.66 1.15, 7.51 0.66 C8.37 0.17, 6.87 0.13, 6.9 0.13" stroke="#1971c2" stroke-width="2" fill="none"></path></g><g stroke-linecap="round" transform="translate(215.40338000704514 140.64175387951892) rotate(0 8.414750448985217 8.414750448985217)"><path d="M8.79 0.06 C10.53 0.05, 13.36 1.39, 14.64 2.67 C15.92 3.95, 16.31 6.01, 16.46 7.73 C16.61 9.46, 16.55 11.58, 15.54 13.03 C14.53 14.49, 12.2 15.99, 10.4 16.45 C8.6 16.91, 6.3 16.43, 4.73 15.78 C3.16 15.13, 1.71 14.09, 0.97 12.53 C0.22 10.98, -0.12 8.26, 0.25 6.44 C0.61 4.62, 1.71 2.71, 3.17 1.63 C4.63 0.56, 7.99 0.27, 9.02 -0.01 C10.04 -0.29, 9.33 -0.22, 9.33 -0.05 M8.52 -0.06 C10.31 -0.16, 12.73 0.64, 14.19 1.86 C15.65 3.08, 17.11 5.5, 17.28 7.26 C17.46 9.02, 16.2 10.82, 15.24 12.45 C14.28 14.08, 13.24 16.38, 11.54 17.02 C9.84 17.66, 6.91 17.12, 5.05 16.31 C3.2 15.51, 1.11 13.71, 0.4 12.2 C-0.31 10.7, 0.28 8.98, 0.81 7.3 C1.34 5.61, 2.21 3.31, 3.57 2.09 C4.93 0.87, 8.05 0.21, 8.95 -0.03 C9.86 -0.27, 9 0.52, 8.98 0.64" stroke="none" stroke-width="0" fill="#b2f2bb"></path><path d="M7.35 -0.06 C9.08 -0.24, 11.47 0.65, 13.02 1.77 C14.58 2.89, 16.2 4.95, 16.69 6.66 C17.18 8.38, 16.76 10.49, 15.96 12.06 C15.16 13.63, 13.54 15.37, 11.86 16.07 C10.18 16.77, 7.57 16.83, 5.87 16.27 C4.17 15.71, 2.64 14.17, 1.68 12.71 C0.71 11.25, -0.08 9.26, 0.1 7.53 C0.28 5.81, 1.38 3.68, 2.75 2.34 C4.11 1.01, 7.26 -0.06, 8.28 -0.47 C9.3 -0.87, 8.94 -0.36, 8.87 -0.09 M8.35 -0.72 C10.22 -0.61, 13.27 1.15, 14.61 2.63 C15.94 4.12, 16.2 6.51, 16.38 8.18 C16.57 9.86, 16.56 11.3, 15.74 12.68 C14.92 14.06, 13.26 15.92, 11.47 16.46 C9.68 17.01, 6.62 16.55, 4.98 15.95 C3.33 15.35, 2.35 14.36, 1.59 12.86 C0.83 11.35, 0.14 8.73, 0.43 6.93 C0.73 5.12, 1.95 3.06, 3.39 2.02 C4.82 0.97, 8.11 0.94, 9.05 0.65 C9.99 0.36, 8.99 0.33, 9.05 0.28" stroke="#1971c2" stroke-width="2" fill="none"></path></g><g stroke-linecap="round" transform="translate(246.00247254880958 140.64175387951892) rotate(0 8.414750448985217 8.414750448985217)"><path d="M7.29 -0.22 C8.97 -0.47, 11.36 0.22, 12.94 1.29 C14.53 2.37, 16.23 4.46, 16.79 6.23 C17.35 8, 17.15 10.27, 16.3 11.92 C15.45 13.57, 13.32 15.38, 11.7 16.13 C10.08 16.87, 8.34 16.83, 6.6 16.41 C4.86 15.99, 2.36 15, 1.28 13.6 C0.2 12.2, -0.12 9.89, 0.11 8.01 C0.34 6.13, 1.44 3.59, 2.67 2.34 C3.9 1.08, 6.61 0.88, 7.48 0.47 C8.34 0.06, 7.74 -0.18, 7.86 -0.13 M7.55 0.19 C9.25 -0.05, 11.91 0.45, 13.4 1.42 C14.89 2.39, 16.12 4.21, 16.5 6.01 C16.87 7.8, 16.49 10.49, 15.63 12.18 C14.76 13.88, 12.83 15.55, 11.32 16.17 C9.82 16.79, 8.22 16.32, 6.61 15.9 C5 15.49, 2.86 15.21, 1.66 13.67 C0.47 12.13, -0.83 8.44, -0.56 6.66 C-0.29 4.87, 1.78 4.01, 3.29 2.96 C4.81 1.9, 7.73 0.77, 8.55 0.33 C9.37 -0.1, 8.33 0.33, 8.23 0.32" stroke="none" stroke-width="0" fill="#ffc9c9"></path><path d="M10.17 -0.2 C11.8 0.12, 13.75 2.08, 14.93 3.58 C16.12 5.08, 17.3 7.06, 17.3 8.81 C17.3 10.56, 16.23 12.75, 14.96 14.1 C13.68 15.44, 11.41 16.61, 9.64 16.87 C7.87 17.12, 5.88 16.58, 4.33 15.62 C2.78 14.66, 0.94 12.86, 0.33 11.12 C-0.28 9.39, -0.03 6.83, 0.68 5.21 C1.39 3.59, 2.98 2.32, 4.58 1.41 C6.17 0.51, 9.27 -0.08, 10.24 -0.21 C11.21 -0.35, 10.4 0.43, 10.41 0.6 M9.23 0.65 C10.93 0.58, 13.26 1.65, 14.46 2.66 C15.66 3.68, 16.18 5.07, 16.44 6.75 C16.69 8.42, 16.9 11.2, 15.97 12.7 C15.05 14.2, 12.61 15.15, 10.88 15.73 C9.16 16.31, 7.2 16.88, 5.61 16.2 C4.01 15.52, 2.25 13.22, 1.32 11.64 C0.4 10.06, -0.37 8.29, 0.05 6.71 C0.47 5.13, 2.52 3.18, 3.85 2.13 C5.17 1.09, 7.23 0.77, 7.99 0.43 C8.76 0.09, 8.28 -0.05, 8.45 0.11" stroke="#e03131" stroke-width="2" fill="none"></path></g><g stroke-linecap="round" transform="translate(219.99324388830973 290.5773073341645) rotate(0 8.414750448985217 8.414750448985217)"><path d="M7.68 -0.17 C9.41 -0.37, 11.99 0.32, 13.48 1.53 C14.97 2.74, 16.29 5.24, 16.63 7.08 C16.96 8.91, 16.26 11.09, 15.51 12.53 C14.76 13.98, 13.78 15.06, 12.1 15.78 C10.42 16.49, 7.14 17.24, 5.42 16.82 C3.7 16.4, 2.65 14.84, 1.8 13.27 C0.94 11.71, 0.12 9.29, 0.29 7.43 C0.46 5.57, 1.56 3.44, 2.84 2.12 C4.12 0.8, 7.08 -0.14, 7.96 -0.48 C8.85 -0.82, 8.18 -0.19, 8.18 0.09 M6.64 -0.35 C8.33 -0.69, 11.14 -0.45, 12.75 0.64 C14.37 1.73, 15.78 4.27, 16.34 6.18 C16.91 8.09, 16.7 10.44, 16.11 12.09 C15.53 13.75, 14.33 15.27, 12.86 16.12 C11.39 16.98, 9.06 17.62, 7.31 17.23 C5.56 16.83, 3.63 15.35, 2.37 13.75 C1.11 12.14, -0.19 9.5, -0.23 7.61 C-0.28 5.72, 0.84 3.64, 2.09 2.4 C3.35 1.15, 6.53 0.4, 7.28 0.16 C8.03 -0.08, 6.62 0.89, 6.58 0.97" stroke="none" stroke-width="0" fill="#b2f2bb"></path><path d="M9.16 0.36 C10.8 0.5, 13.29 1.34, 14.49 2.66 C15.68 3.98, 16.26 6.44, 16.36 8.29 C16.46 10.14, 16.19 12.39, 15.09 13.77 C13.99 15.14, 11.52 16.12, 9.77 16.54 C8.02 16.95, 6.06 17.17, 4.58 16.27 C3.1 15.38, 1.54 12.91, 0.89 11.14 C0.23 9.38, 0.18 7.3, 0.67 5.71 C1.16 4.11, 2.21 2.47, 3.85 1.56 C5.48 0.66, 9.34 0.51, 10.49 0.3 C11.65 0.08, 10.89 0.21, 10.79 0.27 M7.39 0.5 C9.19 0.3, 11.87 0.9, 13.42 1.73 C14.97 2.55, 16.21 3.72, 16.7 5.46 C17.18 7.19, 17.16 10.46, 16.34 12.13 C15.52 13.8, 13.42 14.7, 11.8 15.46 C10.18 16.23, 8.31 16.98, 6.64 16.71 C4.97 16.44, 2.96 15.44, 1.79 13.85 C0.62 12.26, -0.59 9.17, -0.38 7.18 C-0.17 5.18, 1.82 3.03, 3.07 1.89 C4.32 0.76, 6.39 0.69, 7.11 0.38 C7.83 0.08, 7.31 -0.01, 7.39 0.07" stroke="#1971c2" stroke-width="2" fill="none"></path></g><g stroke-linecap="round" transform="translate(250.59233643007406 290.5773073341645) rotate(0 8.414750448985217 8.414750448985217)"><path d="M7.98 -0.21 C9.75 -0.29, 12.15 1.04, 13.53 2.21 C14.91 3.38, 15.8 5.21, 16.27 6.82 C16.74 8.43, 17.2 10.26, 16.36 11.88 C15.51 13.51, 12.84 15.76, 11.18 16.58 C9.52 17.39, 7.98 17.37, 6.37 16.79 C4.76 16.2, 2.57 14.66, 1.53 13.06 C0.5 11.47, 0.03 9.12, 0.17 7.24 C0.31 5.35, 1.07 2.95, 2.35 1.73 C3.62 0.51, 6.87 0.12, 7.84 -0.09 C8.81 -0.29, 8.13 0.38, 8.16 0.51 M6.34 -0.42 C8.07 -0.79, 10.5 0.24, 12.12 1.25 C13.73 2.25, 15.24 3.95, 16.05 5.59 C16.86 7.24, 17.38 9.36, 16.99 11.1 C16.6 12.84, 15.19 15.06, 13.7 16.03 C12.21 17.01, 9.97 17.33, 8.03 16.94 C6.09 16.55, 3.4 15.1, 2.05 13.69 C0.7 12.29, -0.01 10.23, -0.07 8.53 C-0.13 6.82, 0.71 4.73, 1.68 3.47 C2.66 2.21, 5.02 1.51, 5.77 0.95 C6.53 0.39, 6.07 0.13, 6.2 0.11" stroke="none" stroke-width="0" fill="#ffec99"></path><path d="M7.4 -0.02 C9.07 -0.32, 11.14 0.63, 12.65 1.68 C14.17 2.74, 16 4.65, 16.5 6.32 C16.99 8, 16.36 10.07, 15.63 11.74 C14.91 13.41, 13.66 15.65, 12.15 16.37 C10.65 17.09, 8.34 16.62, 6.63 16.09 C4.92 15.56, 3 14.52, 1.89 13.18 C0.78 11.85, -0.16 9.82, -0.02 8.08 C0.12 6.33, 1.36 4.07, 2.73 2.69 C4.1 1.31, 7.22 0.27, 8.18 -0.21 C9.14 -0.7, 8.56 -0.33, 8.51 -0.2 M8.11 0.29 C9.87 -0.12, 12.1 -0.12, 13.55 0.94 C15.01 2, 16.48 4.88, 16.83 6.65 C17.19 8.42, 16.49 9.98, 15.7 11.58 C14.92 13.18, 13.7 15.34, 12.13 16.24 C10.56 17.15, 8.14 17.64, 6.29 17.01 C4.44 16.39, 1.96 14.19, 1.03 12.5 C0.11 10.81, 0.55 8.51, 0.73 6.88 C0.91 5.24, 0.97 3.86, 2.12 2.7 C3.27 1.53, 6.69 0.3, 7.64 -0.12 C8.59 -0.54, 7.85 -0.01, 7.81 0.19" stroke="#f08c00" stroke-width="2" fill="none"></path></g><g stroke-linecap="round" transform="translate(796.2315261605062 148.37232783339678) rotate(0 8.41475044898516 8.414750448985217)"><path d="M6.74 0.56 C8.33 0.24, 11.13 0.14, 12.7 0.96 C14.28 1.77, 15.69 3.64, 16.2 5.44 C16.71 7.24, 16.34 9.98, 15.76 11.74 C15.17 13.49, 14.2 15.1, 12.68 15.96 C11.17 16.83, 8.42 17.32, 6.66 16.95 C4.9 16.58, 3.29 15.26, 2.11 13.76 C0.94 12.27, -0.36 9.84, -0.38 7.99 C-0.39 6.13, 0.63 3.96, 2.02 2.62 C3.42 1.28, 6.98 0.37, 8 -0.06 C9.01 -0.49, 8.13 -0.19, 8.12 0.04 M10.09 -0.2 C11.86 -0.22, 13.75 1.36, 14.79 2.65 C15.83 3.93, 16.39 5.59, 16.32 7.5 C16.26 9.41, 15.36 12.69, 14.39 14.11 C13.42 15.53, 12.24 15.66, 10.5 16.03 C8.75 16.4, 5.71 16.99, 3.95 16.3 C2.19 15.61, 0.57 13.52, -0.06 11.9 C-0.7 10.28, -0.46 8.36, 0.12 6.59 C0.69 4.81, 1.79 2.41, 3.4 1.25 C5 0.1, 8.66 -0.26, 9.74 -0.35 C10.82 -0.44, 10.05 0.4, 9.88 0.7" stroke="none" stroke-width="0" fill="#b2f2bb"></path><path d="M10.37 0.05 C11.95 0.24, 13.75 1.8, 14.78 3.26 C15.81 4.72, 16.59 7.09, 16.57 8.82 C16.55 10.55, 15.76 12.36, 14.66 13.65 C13.55 14.94, 11.8 16.25, 9.97 16.55 C8.14 16.84, 5.31 16.27, 3.69 15.41 C2.07 14.55, 0.72 13.17, 0.24 11.39 C-0.24 9.61, 0.07 6.41, 0.8 4.72 C1.54 3.03, 3.05 1.97, 4.65 1.26 C6.25 0.55, 9.4 0.55, 10.42 0.46 C11.43 0.37, 10.74 0.59, 10.73 0.71 M9.57 -0.56 C11.29 -0.31, 14.19 1.57, 15.39 3.09 C16.59 4.6, 16.78 6.67, 16.78 8.5 C16.77 10.33, 16.51 12.68, 15.33 14.08 C14.16 15.47, 11.43 16.51, 9.72 16.86 C8.01 17.22, 6.68 17.07, 5.06 16.21 C3.45 15.35, 0.88 13.49, 0.03 11.7 C-0.83 9.91, -0.74 7.18, -0.08 5.48 C0.58 3.78, 2.43 2.53, 3.99 1.51 C5.55 0.49, 8.36 -0.36, 9.26 -0.64 C10.17 -0.92, 9.48 -0.45, 9.43 -0.16" stroke="#1971c2" stroke-width="2" fill="none"></path></g><g stroke-linecap="round" transform="translate(969.8813763350194 150.66725977402908) rotate(0 8.41475044898516 8.414750448985217)"><path d="M6.27 -0.04 C7.95 -0.69, 10.35 -0.34, 11.91 0.54 C13.47 1.42, 14.81 3.51, 15.62 5.23 C16.43 6.96, 17.19 9.15, 16.76 10.89 C16.33 12.63, 14.54 14.68, 13.04 15.68 C11.55 16.68, 9.66 17.17, 7.82 16.9 C5.97 16.63, 3.29 15.41, 1.98 14.05 C0.66 12.7, -0.1 10.57, -0.08 8.78 C-0.05 7, 0.92 4.82, 2.1 3.36 C3.29 1.9, 6.13 0.46, 7.03 0.02 C7.93 -0.43, 7.49 0.53, 7.51 0.68 M10.6 0.19 C12.11 0.45, 13.78 1.36, 14.7 2.92 C15.61 4.49, 16.08 7.78, 16.08 9.56 C16.09 11.35, 15.94 12.36, 14.71 13.63 C13.49 14.9, 10.67 16.84, 8.72 17.18 C6.77 17.51, 4.47 16.59, 3.03 15.64 C1.59 14.68, 0.54 13.22, 0.08 11.44 C-0.38 9.66, -0.56 6.78, 0.25 4.95 C1.07 3.12, 3.19 1.17, 4.95 0.46 C6.72 -0.25, 10.05 0.63, 10.84 0.7 C11.63 0.78, 9.77 0.92, 9.69 0.91" stroke="none" stroke-width="0" fill="#b2f2bb"></path><path d="M9.75 0.11 C11.39 0.37, 13.56 1.84, 14.74 3.18 C15.93 4.52, 16.8 6.39, 16.88 8.15 C16.96 9.92, 16.44 12.35, 15.21 13.77 C13.98 15.18, 11.37 16.26, 9.49 16.64 C7.6 17.03, 5.37 17.07, 3.89 16.07 C2.41 15.07, 1.13 12.38, 0.59 10.65 C0.05 8.91, 0.1 7.25, 0.68 5.67 C1.26 4.08, 2.46 2.04, 4.06 1.16 C5.66 0.28, 9.09 0.46, 10.28 0.38 C11.46 0.31, 11.07 0.53, 11.16 0.72 M8.02 0.24 C9.73 0.08, 11.49 0.57, 12.96 1.58 C14.43 2.6, 16.37 4.61, 16.86 6.33 C17.34 8.05, 16.52 10.23, 15.87 11.9 C15.22 13.57, 14.61 15.53, 12.96 16.36 C11.31 17.19, 7.95 17.41, 5.98 16.9 C4.01 16.38, 2.15 14.72, 1.14 13.28 C0.13 11.85, -0.2 10.17, -0.09 8.27 C0.01 6.38, 0.59 3.36, 1.79 1.92 C2.99 0.48, 6.28 -0.12, 7.11 -0.38 C7.94 -0.64, 6.8 0.05, 6.77 0.36" stroke="#1971c2" stroke-width="2" fill="none"></path></g><g stroke-linecap="round" transform="translate(1000.4804688767839 150.66725977402908) rotate(0 8.41475044898516 8.414750448985217)"><path d="M10.17 -0.08 C11.8 0.3, 13.54 2.11, 14.69 3.64 C15.84 5.16, 17.11 7.26, 17.07 9.07 C17.03 10.88, 15.69 13.19, 14.46 14.49 C13.22 15.79, 11.51 16.76, 9.67 16.89 C7.82 17.01, 4.97 16.28, 3.4 15.24 C1.83 14.19, 0.62 12.32, 0.25 10.6 C-0.12 8.89, 0.41 6.61, 1.19 4.96 C1.97 3.32, 3.31 1.45, 4.93 0.74 C6.55 0.03, 9.9 0.74, 10.89 0.68 C11.88 0.63, 10.9 0.27, 10.88 0.41 M7.18 -0.47 C8.72 -0.62, 10.91 1.11, 12.5 2.13 C14.1 3.15, 16.26 3.93, 16.75 5.64 C17.24 7.34, 16.34 10.59, 15.42 12.36 C14.51 14.13, 12.83 15.45, 11.26 16.26 C9.68 17.06, 7.68 17.72, 5.99 17.2 C4.29 16.68, 2.02 14.81, 1.07 13.16 C0.13 11.5, 0 8.98, 0.31 7.28 C0.61 5.57, 1.78 4.06, 2.89 2.94 C4.01 1.82, 6.18 1.07, 7 0.55 C7.83 0.03, 7.66 -0.34, 7.86 -0.18" stroke="none" stroke-width="0" fill="#ffc9c9"></path><path d="M7.5 0.04 C9.26 -0.28, 11.76 0.08, 13.35 1.09 C14.94 2.1, 16.63 4.28, 17.04 6.09 C17.46 7.89, 16.71 10.2, 15.83 11.94 C14.95 13.68, 13.36 15.85, 11.77 16.54 C10.19 17.23, 8.02 16.58, 6.33 16.08 C4.63 15.57, 2.69 14.9, 1.58 13.51 C0.48 12.12, -0.38 9.59, -0.29 7.75 C-0.21 5.91, 0.68 3.77, 2.08 2.49 C3.48 1.2, 6.96 0.37, 8.12 0.04 C9.27 -0.28, 9.03 0.44, 9.02 0.55 M6.49 0.42 C8.1 -0.03, 11.08 0.47, 12.65 1.29 C14.21 2.1, 15.13 3.66, 15.88 5.34 C16.64 7.01, 17.77 9.6, 17.19 11.34 C16.62 13.08, 14.18 14.9, 12.45 15.77 C10.72 16.65, 8.54 16.8, 6.82 16.58 C5.1 16.36, 3.35 15.87, 2.14 14.45 C0.92 13.03, -0.35 10.01, -0.47 8.08 C-0.59 6.16, 0.36 4.18, 1.42 2.89 C2.48 1.6, 5.12 0.67, 5.9 0.34 C6.67 0.01, 5.98 0.71, 6.04 0.94" stroke="#e03131" stroke-width="2" fill="none"></path></g><g stroke-linecap="round" transform="translate(974.471240216284 300.60281322867456) rotate(0 8.41475044898516 8.414750448985217)"><path d="M6.72 0.32 C8.48 0.05, 11.5 0.45, 13.1 1.41 C14.7 2.37, 15.76 4.36, 16.33 6.06 C16.91 7.77, 17.24 10.05, 16.52 11.64 C15.8 13.24, 13.67 14.82, 12.02 15.62 C10.37 16.42, 8.23 16.79, 6.61 16.44 C4.99 16.09, 3.36 14.93, 2.3 13.52 C1.25 12.12, 0.25 9.73, 0.28 8.01 C0.32 6.3, 1.24 4.57, 2.5 3.23 C3.76 1.89, 6.83 0.42, 7.82 -0.02 C8.81 -0.46, 8.48 0.43, 8.42 0.6 M7.55 0.61 C9.38 0.46, 12.52 0.2, 13.93 1.3 C15.35 2.4, 15.87 5.32, 16.05 7.23 C16.24 9.13, 15.86 11.11, 15.04 12.73 C14.23 14.35, 12.79 16.34, 11.16 16.93 C9.52 17.52, 6.82 17.04, 5.21 16.27 C3.59 15.5, 2.25 13.77, 1.47 12.32 C0.69 10.86, 0.41 9.17, 0.54 7.55 C0.67 5.92, 0.92 3.89, 2.24 2.57 C3.56 1.25, 7.37 -0.08, 8.46 -0.37 C9.54 -0.67, 8.84 0.51, 8.74 0.81" stroke="none" stroke-width="0" fill="#b2f2bb"></path><path d="M8.24 -0.47 C10.07 -0.66, 12.76 0.42, 14.13 1.61 C15.5 2.79, 16.22 4.76, 16.47 6.64 C16.73 8.52, 16.48 11.37, 15.68 12.89 C14.87 14.42, 13.3 15.15, 11.66 15.79 C10.02 16.43, 7.64 17.19, 5.85 16.72 C4.06 16.25, 1.95 14.53, 0.91 12.95 C-0.12 11.37, -0.64 9.05, -0.34 7.25 C-0.04 5.45, 1.22 3.31, 2.72 2.16 C4.23 1.02, 7.77 0.73, 8.7 0.38 C9.64 0.03, 8.46 -0.09, 8.34 0.05 M9.31 0.37 C10.98 0.36, 12.54 1.23, 13.91 2.49 C15.28 3.74, 17.35 6.08, 17.51 7.89 C17.68 9.7, 16.12 11.93, 14.91 13.34 C13.7 14.74, 11.93 15.78, 10.27 16.3 C8.61 16.82, 6.61 17.26, 4.96 16.45 C3.32 15.64, 1.25 13.17, 0.41 11.44 C-0.43 9.7, -0.45 7.63, -0.06 6.03 C0.33 4.42, 1.34 2.7, 2.75 1.79 C4.15 0.88, 7.42 0.73, 8.38 0.58 C9.33 0.43, 8.5 0.94, 8.46 0.88" stroke="#1971c2" stroke-width="2" fill="none"></path></g><g stroke-linecap="round" transform="translate(1005.0703327580483 300.60281322867456) rotate(0 8.414750448985274 8.414750448985217)"><path d="M7.36 0.25 C9.11 -0.11, 11.13 0.57, 12.68 1.49 C14.23 2.42, 16.13 4.17, 16.66 5.8 C17.2 7.42, 16.6 9.61, 15.89 11.23 C15.18 12.86, 13.83 14.68, 12.39 15.57 C10.96 16.46, 9 16.9, 7.3 16.57 C5.59 16.23, 3.3 14.87, 2.15 13.56 C0.99 12.24, 0.34 10.47, 0.37 8.68 C0.4 6.89, 1.08 4.19, 2.32 2.82 C3.56 1.46, 6.95 0.9, 7.8 0.49 C8.64 0.08, 7.44 0.34, 7.38 0.35 M7.22 -0.47 C8.91 -0.9, 10.65 0.51, 12.05 1.56 C13.45 2.61, 14.95 4.07, 15.62 5.81 C16.28 7.55, 16.63 10.37, 16.04 12.01 C15.46 13.64, 13.6 14.93, 12.12 15.64 C10.64 16.35, 8.79 16.51, 7.17 16.28 C5.54 16.04, 3.67 15.48, 2.37 14.24 C1.06 13.01, -0.64 10.81, -0.67 8.87 C-0.7 6.92, 0.82 3.94, 2.18 2.58 C3.54 1.23, 6.73 1.04, 7.46 0.76 C8.2 0.48, 6.71 0.98, 6.59 0.89" stroke="none" stroke-width="0" fill="#ffec99"></path><path d="M8.94 -0.21 C10.61 -0.25, 12.4 0.62, 13.67 1.9 C14.94 3.18, 16.21 5.74, 16.57 7.46 C16.93 9.18, 16.7 10.67, 15.83 12.21 C14.97 13.74, 13.13 15.95, 11.35 16.66 C9.58 17.36, 6.95 17.11, 5.17 16.44 C3.39 15.77, 1.53 14.24, 0.68 12.66 C-0.18 11.08, -0.42 8.68, 0.03 6.96 C0.47 5.24, 1.95 3.5, 3.35 2.33 C4.76 1.15, 7.59 0.18, 8.45 -0.11 C9.3 -0.4, 8.41 0.44, 8.46 0.59 M8.73 0.21 C10.5 0.23, 13.75 1.54, 15.01 2.81 C16.26 4.08, 16.29 6.15, 16.26 7.84 C16.23 9.53, 15.78 11.45, 14.84 12.95 C13.9 14.45, 12.34 16.42, 10.62 16.82 C8.89 17.22, 6.18 16.21, 4.5 15.35 C2.82 14.49, 1.37 13.13, 0.55 11.66 C-0.26 10.18, -0.8 8.08, -0.4 6.5 C0 4.92, 1.44 3.13, 2.94 2.16 C4.43 1.2, 7.68 1.16, 8.57 0.72 C9.46 0.28, 8.09 -0.46, 8.27 -0.46" stroke="#f08c00" stroke-width="2" fill="none"></path></g><g stroke-linecap="round" transform="translate(1154.623397555922 143.39997529536018) rotate(0 8.41475044898516 8.414750448985217)"><path d="M7.76 -0.07 C9.42 -0.27, 11.33 0.86, 12.85 1.9 C14.37 2.94, 16.31 4.55, 16.88 6.16 C17.46 7.78, 17.02 9.99, 16.28 11.6 C15.54 13.21, 14.1 15, 12.46 15.81 C10.82 16.63, 8.15 16.81, 6.42 16.47 C4.69 16.14, 3.2 15.25, 2.06 13.8 C0.92 12.36, -0.51 9.58, -0.41 7.8 C-0.31 6.01, 1.25 4.43, 2.65 3.1 C4.04 1.78, 6.99 0.37, 7.95 -0.13 C8.9 -0.64, 8.35 -0.08, 8.4 0.06 M6.57 -0.52 C8.36 -0.78, 11.53 0.48, 13.06 1.55 C14.58 2.63, 15.16 4.34, 15.71 5.93 C16.26 7.52, 16.81 9.56, 16.35 11.09 C15.88 12.61, 14.58 14.21, 12.9 15.07 C11.23 15.94, 8.25 16.6, 6.32 16.3 C4.39 15.99, 2.36 14.51, 1.32 13.23 C0.27 11.95, -0.17 10.31, 0.05 8.63 C0.26 6.95, 1.37 4.65, 2.6 3.18 C3.83 1.7, 6.82 0.25, 7.46 -0.23 C8.09 -0.71, 6.48 0.06, 6.4 0.27" stroke="none" stroke-width="0" fill="#b2f2bb"></path><path d="M9.94 -0.02 C11.55 0.21, 13.53 1.54, 14.62 3.06 C15.72 4.58, 16.41 7.21, 16.49 9.09 C16.57 10.97, 16.3 12.98, 15.11 14.33 C13.91 15.68, 11.27 17, 9.31 17.19 C7.36 17.37, 4.93 16.4, 3.39 15.44 C1.86 14.48, 0.65 13.2, 0.12 11.43 C-0.4 9.66, -0.55 6.53, 0.23 4.83 C1.01 3.14, 3.11 2.04, 4.78 1.25 C6.45 0.47, 9.26 0.29, 10.23 0.11 C11.2 -0.07, 10.57 -0.03, 10.61 0.17 M8.65 0.14 C10.39 0.1, 12.1 1.64, 13.54 2.66 C14.97 3.67, 17.02 4.66, 17.27 6.23 C17.53 7.79, 16.02 10.26, 15.06 12.06 C14.1 13.87, 12.97 16.4, 11.51 17.04 C10.06 17.68, 8.1 16.59, 6.35 15.91 C4.6 15.22, 2.1 14.52, 1 12.92 C-0.09 11.32, -0.55 8, -0.22 6.3 C0.1 4.61, 1.43 3.69, 2.96 2.75 C4.49 1.81, 8.1 1.19, 8.97 0.66 C9.85 0.12, 8.31 -0.4, 8.19 -0.45" stroke="#1971c2" stroke-width="2" fill="none"></path></g><g stroke-linecap="round" transform="translate(1185.2224900976867 143.39997529536018) rotate(0 8.41475044898516 8.414750448985217)"><path d="M7.78 0.51 C9.51 0.36, 12.4 0.86, 13.9 1.84 C15.4 2.81, 16.39 4.65, 16.78 6.37 C17.16 8.08, 17.05 10.51, 16.2 12.12 C15.35 13.74, 13.3 15.26, 11.66 16.05 C10.02 16.84, 8.14 17.38, 6.35 16.85 C4.55 16.32, 1.91 14.38, 0.91 12.88 C-0.08 11.39, 0.07 9.65, 0.39 7.85 C0.71 6.05, 1.49 3.41, 2.84 2.08 C4.2 0.76, 7.53 0.23, 8.54 -0.12 C9.55 -0.46, 8.99 -0.12, 8.89 0 M7.71 0.48 C9.36 0.32, 10.85 0.81, 12.31 1.67 C13.77 2.53, 15.78 4.09, 16.48 5.64 C17.18 7.19, 17.3 9.34, 16.51 10.98 C15.71 12.62, 13.46 14.63, 11.71 15.48 C9.95 16.32, 7.63 16.35, 5.97 16.07 C4.32 15.79, 2.68 15.1, 1.79 13.8 C0.9 12.49, 0.47 10.15, 0.61 8.25 C0.76 6.35, 1.66 3.75, 2.67 2.38 C3.68 1.02, 5.94 0.4, 6.69 0.06 C7.44 -0.28, 7.11 0.26, 7.17 0.34" stroke="none" stroke-width="0" fill="#ffc9c9"></path><path d="M7.87 -0.23 C9.57 -0.27, 11.88 1, 13.43 2.23 C14.98 3.45, 16.82 5.31, 17.17 7.11 C17.53 8.9, 16.59 11.46, 15.54 12.98 C14.49 14.5, 12.57 15.58, 10.87 16.23 C9.17 16.87, 7.03 17.48, 5.35 16.84 C3.66 16.19, 1.59 13.91, 0.76 12.33 C-0.07 10.74, 0.05 9.08, 0.37 7.33 C0.68 5.59, 1.26 3.14, 2.63 1.86 C4 0.58, 7.46 -0.11, 8.58 -0.34 C9.7 -0.58, 9.31 0.27, 9.34 0.43 M8.88 0.76 C10.64 0.66, 13.72 0.71, 14.92 1.78 C16.13 2.84, 16.02 5.12, 16.12 7.15 C16.21 9.18, 16.28 12.46, 15.49 13.95 C14.69 15.44, 13.17 15.71, 11.37 16.1 C9.58 16.49, 6.55 17.09, 4.73 16.29 C2.91 15.49, 1.21 12.83, 0.46 11.28 C-0.28 9.74, -0.34 8.52, 0.28 7.01 C0.91 5.49, 2.74 3.46, 4.19 2.2 C5.63 0.93, 8.15 -0.18, 8.95 -0.59 C9.76 -1, 9.05 -0.55, 9 -0.26" stroke="#e03131" stroke-width="2" fill="none"></path></g><g stroke-linecap="round" transform="translate(1169.9229438268044 173.9990678371245) rotate(0 8.414750448985274 8.414750448985217)"><path d="M8.38 0.44 C9.98 0.33, 12.57 0.76, 13.89 1.83 C15.21 2.9, 16.03 5.07, 16.3 6.87 C16.57 8.67, 16.37 11.1, 15.52 12.63 C14.67 14.16, 12.94 15.44, 11.2 16.03 C9.46 16.62, 6.74 16.73, 5.07 16.17 C3.39 15.6, 1.96 14.24, 1.14 12.63 C0.31 11.03, -0.3 8.44, 0.12 6.54 C0.54 4.65, 2.15 2.32, 3.65 1.27 C5.15 0.23, 8.18 0.4, 9.11 0.27 C10.05 0.15, 9.29 0.41, 9.27 0.52 M6.88 -0.24 C8.69 -0.77, 11.35 -0.35, 12.97 0.57 C14.6 1.5, 16.17 3.49, 16.63 5.3 C17.09 7.11, 16.33 9.73, 15.72 11.43 C15.11 13.13, 14.54 14.59, 12.99 15.48 C11.45 16.37, 8.26 16.99, 6.46 16.79 C4.67 16.58, 3.21 15.54, 2.22 14.25 C1.24 12.95, 0.52 10.94, 0.56 9.01 C0.61 7.08, 1.39 4.16, 2.49 2.65 C3.6 1.15, 6.46 0.46, 7.19 -0.02 C7.92 -0.49, 6.78 -0.33, 6.87 -0.19" stroke="none" stroke-width="0" fill="#ffec99"></path><path d="M8.31 0.14 C10.07 -0.18, 12.15 0.44, 13.58 1.47 C15.02 2.5, 16.51 4.56, 16.9 6.32 C17.29 8.09, 16.71 10.36, 15.92 12.06 C15.14 13.76, 13.9 15.81, 12.18 16.53 C10.46 17.25, 7.33 16.89, 5.59 16.39 C3.84 15.89, 2.62 15.06, 1.72 13.54 C0.82 12.03, 0.01 9.19, 0.2 7.3 C0.4 5.4, 1.49 3.43, 2.9 2.19 C4.31 0.94, 7.75 0.2, 8.66 -0.17 C9.57 -0.55, 8.47 -0.19, 8.37 -0.07 M6 0.55 C7.59 -0.03, 10.61 0.05, 12.36 0.72 C14.12 1.39, 15.94 2.93, 16.52 4.58 C17.09 6.22, 16.54 8.84, 15.83 10.58 C15.13 12.31, 13.7 13.89, 12.28 14.96 C10.87 16.03, 8.91 17.12, 7.33 17.01 C5.75 16.89, 3.94 15.71, 2.8 14.28 C1.65 12.84, 0.75 10.24, 0.47 8.4 C0.2 6.56, 0.14 4.61, 1.14 3.25 C2.14 1.9, 5.6 0.83, 6.46 0.29 C7.32 -0.25, 6.19 -0.13, 6.3 -0.01" stroke="#f08c00" stroke-width="2" fill="none"></path></g><g stroke-linecap="round" transform="translate(1582.8542370972195 113.53772266594368) rotate(0 44.5 44.5)"><path d="M22.25 0 C38.19 -2.09, 53.95 -0.3, 66.75 0 C81.78 1.19, 85.96 3.91, 89 22.25 C90.27 38.88, 87.38 48.3, 89 66.75 C87.36 81.08, 78.95 86.92, 66.75 89 C52.77 88.43, 37.26 91.51, 22.25 89 C7.77 88.9, -0.05 78.03, 0 66.75 C0.98 49.07, -3.92 35.36, 0 22.25 C-0.47 7.85, 9.65 3.25, 22.25 0" stroke="none" stroke-width="0" fill="#a5d8ff"></path><path d="M22.25 0 C37.48 -1.94, 52.74 0.09, 66.75 0 M22.25 0 C35.39 0.18, 47.43 0.33, 66.75 0 M66.75 0 C79.65 -1.12, 90.75 7.43, 89 22.25 M66.75 0 C82.69 -1.94, 87.73 7.79, 89 22.25 M89 22.25 C87.63 37.02, 87.86 51.21, 89 66.75 M89 22.25 C87.73 37.41, 88.06 51.86, 89 66.75 M89 66.75 C87.62 80.27, 80.3 88.28, 66.75 89 M89 66.75 C89.05 82.86, 83.72 88.57, 66.75 89 M66.75 89 C57.95 87.87, 45.47 89.27, 22.25 89 M66.75 89 C52.56 90.17, 40.14 89.97, 22.25 89 M22.25 89 C8.66 87.76, -1.58 81.6, 0 66.75 M22.25 89 C6.61 88.4, -1.84 83.07, 0 66.75 M0 66.75 C-1.59 50.89, 0.74 35.21, 0 22.25 M0 66.75 C-0.41 57.15, 0.8 47.52, 0 22.25 M0 22.25 C1.85 5.43, 6.04 -1.47, 22.25 0 M0 22.25 C-0.69 6.31, 6.45 -2.07, 22.25 0" stroke="#1e1e1e" stroke-width="2" fill="none"></path></g><g stroke-linecap="round" transform="translate(1770.8500347542054 112.6751767963539) rotate(0 44.5 44.5)"><path d="M22.25 0 C33.8 -0.14, 44.75 1.75, 66.75 0 C78.54 -3.51, 90.1 4.43, 89 22.25 C88.47 28.71, 87.78 41.42, 89 66.75 C86.36 79.5, 81.85 88.39, 66.75 89 C54.22 92.03, 46.29 88.89, 22.25 89 C7.36 85.44, 1.59 83.52, 0 66.75 C-3.8 51, -0.79 37.21, 0 22.25 C2.23 10.67, 6.15 0.04, 22.25 0" stroke="none" stroke-width="0" fill="#a5d8ff"></path><path d="M22.25 0 C36.67 0.76, 54.44 0.56, 66.75 0 M22.25 0 C40.42 0.48, 56.09 -0.82, 66.75 0 M66.75 0 C83.33 0.02, 89.96 5.73, 89 22.25 M66.75 0 C80.31 0.37, 89.21 5.12, 89 22.25 M89 22.25 C88.1 36.29, 89.62 45.84, 89 66.75 M89 22.25 C88.02 35.81, 87.91 50.26, 89 66.75 M89 66.75 C87.71 80.86, 81.63 90.11, 66.75 89 M89 66.75 C91.13 81.15, 79.79 87.99, 66.75 89 M66.75 89 C47.82 88.52, 32.01 88.04, 22.25 89 M66.75 89 C52.14 90.22, 36.98 88.82, 22.25 89 M22.25 89 C5.83 89.02, -0.7 81.06, 0 66.75 M22.25 89 C5.57 90.49, 0.96 81.48, 0 66.75 M0 66.75 C1.08 54.45, -1.52 44.39, 0 22.25 M0 66.75 C0.98 49.44, 1.11 32.87, 0 22.25 M0 22.25 C-1.38 5.95, 6.82 -0.96, 22.25 0 M0 22.25 C-0.97 5.35, 8.61 0.49, 22.25 0" stroke="#1e1e1e" stroke-width="2" fill="none"></path></g><g stroke-linecap="round" transform="translate(1773.8500347542054 259.67517679635387) rotate(0 44.5 44.5)"><path d="M22.25 0 C32.72 1.35, 39.76 -3.35, 66.75 0 C82.68 -2.99, 86.16 9.35, 89 22.25 C87.14 37.47, 86.15 51.62, 89 66.75 C89.27 80.97, 79.2 88.7, 66.75 89 C53.81 89.57, 40.1 86.12, 22.25 89 C9.01 90.94, 1.32 83, 0 66.75 C0.3 56.75, 3.01 49.14, 0 22.25 C-1.26 7.46, 4.92 2.82, 22.25 0" stroke="none" stroke-width="0" fill="#a5d8ff"></path><path d="M22.25 0 C31.44 0.11, 43.47 1.77, 66.75 0 M22.25 0 C37.22 -0.89, 55 -0.32, 66.75 0 M66.75 0 C82.55 -1.68, 87.89 7.74, 89 22.25 M66.75 0 C81.8 -2.3, 88.62 6.35, 89 22.25 M89 22.25 C89.67 36.21, 89.29 51.63, 89 66.75 M89 22.25 C88.05 34.84, 88.1 48.38, 89 66.75 M89 66.75 C89.04 82.69, 83.44 88.62, 66.75 89 M89 66.75 C87.21 80.57, 83.69 90.25, 66.75 89 M66.75 89 C56.94 88.35, 47.74 87.79, 22.25 89 M66.75 89 C49.65 88.73, 30.52 89.36, 22.25 89 M22.25 89 C6.71 88.48, -1.6 82.88, 0 66.75 M22.25 89 C8.38 88.9, -1.12 79.73, 0 66.75 M0 66.75 C-2.03 54.84, 1.23 42.1, 0 22.25 M0 66.75 C0.57 54.27, -1.05 43.04, 0 22.25 M0 22.25 C-0.6 6.45, 6.58 -1.8, 22.25 0 M0 22.25 C1.19 7.91, 6.28 0.18, 22.25 0" stroke="#1e1e1e" stroke-width="2" fill="none"></path></g><g stroke-linecap="round"><g transform="translate(1767.428786283192 158.7307713447158) rotate(0 -46.69081600482161 -0.6720622819821642)"><path d="M0.12 1.09 C-15.3 1.04, -76.83 -0.39, -92.26 -0.65 M-1.28 0.62 C-16.78 0.25, -77.38 -1.91, -92.63 -2.4" stroke="#1e1e1e" stroke-width="2" fill="none"></path></g><g transform="translate(1767.428786283192 158.7307713447158) rotate(0 -46.69081600482161 -0.6720622819821642)"><path d="M-68.86 -10.15 C-74.65 -5.79, -82.91 -3.64, -92.63 -2.4 M-68.86 -10.15 C-76.93 -7.38, -86.2 -5.34, -92.63 -2.4" stroke="#1e1e1e" stroke-width="2" fill="none"></path></g><g transform="translate(1767.428786283192 158.7307713447158) rotate(0 -46.69081600482161 -0.6720622819821642)"><path d="M-69.44 6.94 C-75.01 5.84, -83.08 2.52, -92.63 -2.4 M-69.44 6.94 C-77.13 3.33, -86.19 -1.01, -92.63 -2.4" stroke="#1e1e1e" stroke-width="2" fill="none"></path></g></g><mask></mask><g stroke-linecap="round"><g transform="translate(1772.3500347542054 298.79468077858905) rotate(0 -49.24789882849291 -65.46514568157579)"><path d="M1.12 0.7 C-15.16 -21.16, -80.78 -108, -97.58 -130.05 M0.25 0.02 C-16.13 -21.65, -81.77 -109.93, -98.04 -131.71" stroke="#1e1e1e" stroke-width="2" fill="none"></path></g><g transform="translate(1772.3500347542054 298.79468077858905) rotate(0 -49.24789882849291 -65.46514568157579)"><path d="M-77.15 -117.98 C-82.59 -120.51, -88.75 -128.23, -98.04 -131.71 M-77.15 -117.98 C-81.88 -122.17, -88.02 -124.52, -98.04 -131.71" stroke="#1e1e1e" stroke-width="2" fill="none"></path></g><g transform="translate(1772.3500347542054 298.79468077858905) rotate(0 -49.24789882849291 -65.46514568157579)"><path d="M-90.86 -107.76 C-92.14 -113.59, -94.06 -124.47, -98.04 -131.71 M-90.86 -107.76 C-92.34 -114.44, -95.13 -119.28, -98.04 -131.71" stroke="#1e1e1e" stroke-width="2" fill="none"></path></g></g><mask></mask><g stroke-linecap="round"><g transform="translate(1998.6346224558065 67.08134923261301) rotate(0 0.9461288542363491 23.878510589129277)"><path d="M0.42 0.4 C0.56 8.26, 1.03 39.56, 1.36 47.45 M-0.03 0.14 C0.23 8.03, 1.94 39.95, 2.32 47.99" stroke="#1e1e1e" stroke-width="2" fill="none"></path></g><g transform="translate(1998.6346224558065 67.08134923261301) rotate(0 0.9461288542363491 23.878510589129277)"><path d="M-6.98 25.98 C-2.52 33.63, -0.16 44.12, 2.32 47.99 M-6.98 25.98 C-4.4 32.72, -1.28 38.76, 2.32 47.99" stroke="#1e1e1e" stroke-width="2" fill="none"></path></g><g transform="translate(1998.6346224558065 67.08134923261301) rotate(0 0.9461288542363491 23.878510589129277)"><path d="M9.35 25.15 C7.39 33.19, 3.33 44.01, 2.32 47.99 M9.35 25.15 C7.01 32.07, 5.22 38.37, 2.32 47.99" stroke="#1e1e1e" stroke-width="2" fill="none"></path></g></g><mask></mask><g transform="translate(1981.9177010634771 23.4006764689631) rotate(0 12.005859375 20.700000000000003)"><text x="0" y="33.120703125" font-family="Helvetica, Segoe UI Emoji" font-size="36px" fill="#1e1e1e" text-anchor="start" style="white-space: pre;" direction="ltr" dominant-baseline="alphabetic">A</text></g><g transform="translate(1805.8727007396596 405.24753632550255) rotate(0 12.005859375 20.69999999999999)"><text x="0" y="33.120703125" font-family="Helvetica, Segoe UI Emoji" font-size="36px" fill="#1e1e1e" text-anchor="start" style="white-space: pre;" direction="ltr" dominant-baseline="alphabetic">B</text></g><g stroke-linecap="round"><g transform="translate(1815.4813444068477 401.46986507661745) rotate(0 -0.3776465229440191 -25.076909803222634)"><path d="M0.58 -1.01 C0.17 -9.34, -1.22 -41.57, -1.42 -49.96 M-0.58 1.07 C-0.69 -7.64, 1.07 -43.36, 0.94 -51.98" stroke="#1e1e1e" stroke-width="2" fill="none"></path></g><g transform="translate(1815.4813444068477 401.46986507661745) rotate(0 -0.3776465229440191 -25.076909803222634)"><path d="M8.99 -28.31 C4.19 -38.55, 3.07 -46.42, 0.94 -51.98 M8.99 -28.31 C7.92 -33.43, 6.52 -37.41, 0.94 -51.98" stroke="#1e1e1e" stroke-width="2" fill="none"></path></g><g transform="translate(1815.4813444068477 401.46986507661745) rotate(0 -0.3776465229440191 -25.076909803222634)"><path d="M-8.11 -28.68 C-6.29 -38.86, -0.78 -46.59, 0.94 -51.98 M-8.11 -28.68 C-5.75 -33.65, -3.73 -37.55, 0.94 -51.98" stroke="#1e1e1e" stroke-width="2" fill="none"></path></g></g><mask></mask><g stroke-linecap="round"><g transform="translate(1952.6719327803135 162.34405031154668) rotate(0 -46.69081600482173 -0.6720622819821642)"><path d="M-0.66 0.19 C-16.31 -0.06, -77.78 -2.19, -93.27 -2.54 M1.19 -0.75 C-14.65 -0.82, -78.22 -1.61, -94.16 -1.63" stroke="#1e1e1e" stroke-width="2" fill="none"></path></g><g transform="translate(1952.6719327803135 162.34405031154668) rotate(0 -46.69081600482173 -0.6720622819821642)"><path d="M-70.6 -10.01 C-78.55 -7.03, -89.08 -4.64, -94.16 -1.63 M-70.6 -10.01 C-75.83 -7.55, -83.33 -5.62, -94.16 -1.63" stroke="#1e1e1e" stroke-width="2" fill="none"></path></g><g transform="translate(1952.6719327803135 162.34405031154668) rotate(0 -46.69081600482173 -0.6720622819821642)"><path d="M-70.73 7.09 C-78.5 4.11, -88.97 0.55, -94.16 -1.63 M-70.73 7.09 C-76.01 5.21, -83.48 2.8, -94.16 -1.63" stroke="#1e1e1e" stroke-width="2" fill="none"></path></g></g><mask></mask><g stroke-linecap="round" transform="translate(1955.358945039839 113.99480319148918) rotate(0 44.5 44.5)"><path d="M22.25 0 C31.73 -2.44, 42.13 -0.1, 66.75 0 C79.46 3.04, 89.35 7.31, 89 22.25 C90.15 36.86, 89.62 46.46, 89 66.75 C85.51 80.83, 81.11 89.43, 66.75 89 C50.68 86.22, 37.35 89.7, 22.25 89 C4.46 92.29, -0.25 80.17, 0 66.75 C-0.65 56.86, -2.44 39.49, 0 22.25 C1.81 10.22, 7.28 0.93, 22.25 0" stroke="none" stroke-width="0" fill="#a5d8ff"></path><path d="M22.25 0 C31.14 -0.37, 43.1 0.97, 66.75 0 M22.25 0 C33.24 0.04, 44.96 -0.21, 66.75 0 M66.75 0 C80.44 -1.54, 87.62 6.11, 89 22.25 M66.75 0 C80.11 -0.83, 89.05 8.69, 89 22.25 M89 22.25 C88.04 41.56, 90.01 55.66, 89 66.75 M89 22.25 C88.66 32.67, 88.38 43.23, 89 66.75 M89 66.75 C90.17 83.16, 82.82 87.76, 66.75 89 M89 66.75 C87.18 81.6, 80.78 88.4, 66.75 89 M66.75 89 C56.88 88.21, 45.57 88.54, 22.25 89 M66.75 89 C51.8 89.28, 36.44 88.16, 22.25 89 M22.25 89 C9.03 87.27, 1.85 79.6, 0 66.75 M22.25 89 C5.83 87.31, -0.69 80.48, 0 66.75 M0 66.75 C0.82 54.28, 0.56 42.41, 0 22.25 M0 66.75 C0.42 52.06, -0.89 39.38, 0 22.25 M0 22.25 C-1.66 5.84, 8.49 1.07, 22.25 0 M0 22.25 C-0.61 5.26, 6.37 -0.32, 22.25 0" stroke="#1e1e1e" stroke-width="2" fill="none"></path></g><g stroke-linecap="round" transform="translate(1615.844846570289 145.85254953102643) rotate(0 8.41475044898516 8.414750448985217)"><path d="M7.33 0.28 C9.09 0.04, 11.88 0.38, 13.43 1.33 C14.98 2.28, 16.17 4.22, 16.61 5.99 C17.05 7.76, 16.84 10.26, 16.05 11.97 C15.27 13.68, 13.63 15.57, 11.91 16.25 C10.18 16.93, 7.43 16.61, 5.72 16.03 C4 15.44, 2.63 14.11, 1.62 12.74 C0.61 11.38, -0.55 9.6, -0.35 7.85 C-0.16 6.1, 1.5 3.6, 2.8 2.26 C4.11 0.92, 6.61 0.19, 7.49 -0.22 C8.37 -0.62, 8.03 -0.38, 8.07 -0.19 M8.05 -0.44 C9.94 -0.59, 12.75 0.65, 14.18 1.82 C15.61 2.99, 16.45 4.79, 16.61 6.59 C16.77 8.4, 15.9 10.99, 15.13 12.64 C14.37 14.29, 13.52 15.92, 12.03 16.47 C10.54 17.02, 8.08 16.56, 6.17 15.94 C4.26 15.33, 1.62 14.19, 0.59 12.77 C-0.45 11.35, -0.46 9.04, -0.03 7.4 C0.41 5.75, 1.9 4.11, 3.2 2.88 C4.51 1.65, 7.07 0.37, 7.79 0.02 C8.52 -0.34, 7.46 0.73, 7.54 0.76" stroke="none" stroke-width="0" fill="#b2f2bb"></path><path d="M10.02 -0.32 C11.69 -0.1, 13.8 1.34, 14.87 2.75 C15.94 4.15, 16.51 6.31, 16.45 8.1 C16.39 9.9, 15.64 12.09, 14.51 13.53 C13.38 14.96, 11.34 16.28, 9.66 16.72 C7.99 17.15, 6 17.12, 4.45 16.15 C2.91 15.17, 1.09 12.57, 0.4 10.87 C-0.29 9.17, -0.38 7.65, 0.3 5.96 C0.98 4.27, 2.92 1.69, 4.51 0.73 C6.1 -0.24, 8.83 0.23, 9.83 0.16 C10.83 0.08, 10.42 0.18, 10.49 0.27 M10.92 -0.21 C12.44 0, 13.7 1.98, 14.63 3.48 C15.57 4.99, 16.67 6.94, 16.55 8.82 C16.42 10.69, 15.02 13.43, 13.86 14.75 C12.7 16.08, 11.35 16.75, 9.6 16.75 C7.85 16.76, 4.92 15.74, 3.34 14.78 C1.75 13.82, 0.59 12.75, 0.08 11 C-0.42 9.25, -0.46 5.89, 0.31 4.28 C1.09 2.68, 3.1 2.09, 4.74 1.37 C6.38 0.65, 9.11 0.21, 10.16 -0.06 C11.2 -0.33, 10.89 -0.3, 11.02 -0.23" stroke="#1971c2" stroke-width="2" fill="none"></path></g><g stroke-linecap="round" transform="translate(1789.4946967448027 148.14748147165872) rotate(0 8.41475044898516 8.414750448985217)"><path d="M7.64 -0.2 C9.41 -0.59, 11.67 0.06, 13.16 1.09 C14.64 2.12, 16.06 4.18, 16.56 6 C17.05 7.81, 16.94 10.42, 16.13 12 C15.32 13.58, 13.28 14.8, 11.68 15.49 C10.08 16.18, 8.28 16.47, 6.53 16.16 C4.79 15.86, 2.25 15.04, 1.21 13.63 C0.17 12.22, 0.17 9.58, 0.29 7.7 C0.4 5.82, 0.66 3.68, 1.89 2.34 C3.12 1, 6.72 0.01, 7.69 -0.34 C8.65 -0.69, 7.69 0.07, 7.7 0.22 M8.87 0.08 C10.58 0, 12.49 0.67, 13.67 1.85 C14.84 3.02, 15.51 5.29, 15.93 7.11 C16.35 8.93, 16.89 11.3, 16.19 12.74 C15.5 14.19, 13.62 15.19, 11.75 15.77 C9.88 16.35, 6.75 16.71, 4.98 16.22 C3.2 15.74, 1.85 14.27, 1.12 12.86 C0.38 11.46, 0.32 9.6, 0.56 7.81 C0.81 6.01, 1.42 3.3, 2.61 2.09 C3.8 0.89, 6.74 1.01, 7.72 0.59 C8.69 0.17, 8.24 -0.48, 8.45 -0.45" stroke="none" stroke-width="0" fill="#b2f2bb"></path><path d="M6.7 -0.11 C8.27 -0.55, 10.49 -0.19, 12.02 0.66 C13.56 1.51, 15.21 3.25, 15.91 4.98 C16.61 6.72, 16.69 9.23, 16.22 11.07 C15.76 12.91, 14.63 15.16, 13.11 16.04 C11.59 16.92, 8.97 16.61, 7.1 16.35 C5.24 16.09, 3.05 15.81, 1.91 14.47 C0.77 13.12, 0.36 10.16, 0.28 8.28 C0.2 6.39, 0.27 4.55, 1.44 3.16 C2.6 1.77, 6.16 0.47, 7.25 -0.07 C8.33 -0.61, 7.86 -0.31, 7.95 -0.1 M9.46 0.17 C11.04 0.44, 13.59 1.47, 14.71 2.95 C15.84 4.44, 16.17 7.26, 16.23 9.09 C16.28 10.92, 16.2 12.76, 15.05 13.93 C13.9 15.11, 11.2 15.8, 9.33 16.13 C7.45 16.45, 5.36 16.83, 3.81 15.88 C2.26 14.93, 0.57 12.08, 0.03 10.42 C-0.51 8.75, -0.1 7.5, 0.58 5.89 C1.25 4.27, 2.39 1.79, 4.07 0.72 C5.75 -0.34, 9.55 -0.3, 10.66 -0.49 C11.77 -0.68, 10.93 -0.57, 10.72 -0.42" stroke="#1971c2" stroke-width="2" fill="none"></path></g><g stroke-linecap="round" transform="translate(1820.0937892865672 148.14748147165872) rotate(0 8.41475044898516 8.414750448985217)"><path d="M9.54 -0.27 C11.24 -0.14, 13.45 1.21, 14.67 2.62 C15.88 4.04, 16.85 6.47, 16.85 8.2 C16.85 9.94, 15.75 11.7, 14.68 13.04 C13.6 14.38, 12.16 15.69, 10.4 16.21 C8.65 16.73, 5.73 16.94, 4.15 16.15 C2.56 15.37, 1.62 13.26, 0.91 11.51 C0.21 9.77, -0.57 7.43, -0.08 5.67 C0.4 3.91, 2.24 1.88, 3.81 0.96 C5.39 0.04, 8.39 0.3, 9.37 0.13 C10.35 -0.04, 9.69 -0.18, 9.71 -0.05 M7.15 0.08 C8.6 -0.23, 10.47 0.58, 12.07 1.57 C13.68 2.57, 16.06 4.45, 16.8 6.03 C17.54 7.6, 17.39 9.41, 16.54 11.01 C15.69 12.62, 13.35 14.7, 11.7 15.65 C10.05 16.61, 8.2 16.97, 6.63 16.75 C5.07 16.53, 3.44 15.75, 2.29 14.33 C1.14 12.9, -0.14 10.01, -0.26 8.2 C-0.38 6.38, 0.32 4.88, 1.6 3.42 C2.87 1.97, 6.33 0.01, 7.38 -0.52 C8.43 -1.06, 7.95 0, 7.89 0.21" stroke="none" stroke-width="0" fill="#ffc9c9"></path><path d="M6.14 -0.13 C7.73 -0.63, 10.27 -0.28, 11.91 0.6 C13.55 1.48, 15.18 3.35, 15.98 5.14 C16.79 6.93, 17.25 9.69, 16.74 11.34 C16.22 13, 14.49 14.1, 12.9 15.09 C11.3 16.07, 8.89 17.44, 7.17 17.22 C5.44 17, 3.79 15.17, 2.53 13.76 C1.27 12.36, -0.23 10.58, -0.36 8.82 C-0.5 7.05, 0.5 4.68, 1.73 3.19 C2.95 1.7, 6.02 0.3, 6.99 -0.13 C7.96 -0.57, 7.5 0.33, 7.56 0.57 M6.86 -0.1 C8.53 -0.38, 10.53 0.74, 12.17 1.7 C13.81 2.66, 16.07 4.14, 16.69 5.66 C17.31 7.19, 16.64 9.12, 15.9 10.85 C15.15 12.58, 13.82 15.2, 12.23 16.06 C10.65 16.91, 8.1 16.27, 6.37 15.97 C4.64 15.66, 2.98 15.55, 1.87 14.21 C0.75 12.88, -0.44 9.93, -0.3 7.93 C-0.16 5.93, 1.33 3.66, 2.68 2.23 C4.04 0.8, 7.16 -0.23, 7.82 -0.64 C8.47 -1.06, 6.76 -0.49, 6.63 -0.29" stroke="#e03131" stroke-width="2" fill="none"></path></g><g stroke-linecap="round" transform="translate(1794.0845606260668 298.0830349263042) rotate(0 8.41475044898516 8.414750448985217)"><path d="M7.43 -0.03 C9.12 -0.27, 11.58 0.6, 13.02 1.52 C14.45 2.43, 15.49 3.83, 16.04 5.46 C16.59 7.08, 17.02 9.49, 16.32 11.28 C15.62 13.06, 13.44 15.31, 11.85 16.18 C10.26 17.04, 8.57 16.97, 6.8 16.48 C5.03 16, 2.38 14.74, 1.23 13.26 C0.09 11.78, -0.18 9.37, -0.06 7.62 C0.06 5.86, 0.67 4.04, 1.96 2.72 C3.26 1.4, 6.69 0.12, 7.73 -0.31 C8.77 -0.74, 8.24 -0.1, 8.21 0.16 M7.88 0.33 C9.67 0.32, 12.86 1.32, 14.38 2.38 C15.91 3.43, 16.95 4.95, 17.03 6.67 C17.11 8.38, 15.87 11.01, 14.87 12.64 C13.86 14.28, 12.51 15.77, 11 16.48 C9.49 17.19, 7.51 17.6, 5.81 16.93 C4.1 16.25, 1.79 14.05, 0.76 12.45 C-0.26 10.85, -0.79 9.21, -0.35 7.34 C0.08 5.47, 1.76 2.45, 3.37 1.22 C4.98 -0.01, 8.48 0.16, 9.31 -0.05 C10.13 -0.26, 8.43 -0.11, 8.32 -0.05" stroke="none" stroke-width="0" fill="#b2f2bb"></path><path d="M6.89 -0.24 C8.6 -0.53, 11.03 0.19, 12.67 1.27 C14.3 2.35, 16.11 4.6, 16.69 6.25 C17.26 7.9, 16.89 9.48, 16.13 11.15 C15.38 12.82, 13.7 15.44, 12.17 16.29 C10.64 17.14, 8.76 16.72, 6.97 16.27 C5.18 15.82, 2.58 14.96, 1.43 13.59 C0.27 12.21, -0.12 9.84, 0.03 8 C0.19 6.15, 1.03 3.79, 2.35 2.51 C3.67 1.24, 6.98 0.68, 7.93 0.35 C8.89 0.01, 8.19 0.49, 8.08 0.51 M7.83 0.49 C9.64 0.41, 12.73 0.97, 14.15 1.95 C15.57 2.93, 16.12 4.54, 16.34 6.37 C16.56 8.19, 16.37 11.36, 15.45 12.91 C14.54 14.45, 12.51 14.97, 10.86 15.63 C9.2 16.28, 7.2 17.39, 5.52 16.84 C3.85 16.28, 1.62 14.05, 0.82 12.29 C0.02 10.53, 0.25 8.13, 0.73 6.29 C1.22 4.44, 2.52 2.35, 3.71 1.21 C4.91 0.07, 7.17 -0.32, 7.91 -0.55 C8.66 -0.79, 8.17 -0.31, 8.21 -0.19" stroke="#1971c2" stroke-width="2" fill="none"></path></g><g stroke-linecap="round" transform="translate(1824.6836531678314 298.0830349263042) rotate(0 8.41475044898516 8.414750448985217)"><path d="M7 0.29 C8.59 -0.17, 10.63 -0.16, 12.21 0.65 C13.79 1.46, 15.86 3.32, 16.48 5.14 C17.1 6.96, 16.52 9.84, 15.92 11.58 C15.32 13.32, 14.45 14.76, 12.87 15.58 C11.3 16.39, 8.3 16.83, 6.47 16.47 C4.64 16.11, 3.01 14.78, 1.89 13.44 C0.76 12.11, -0.29 10.23, -0.29 8.44 C-0.29 6.64, 0.64 4.06, 1.89 2.66 C3.14 1.27, 6.32 0.41, 7.21 0.07 C8.1 -0.26, 7.22 0.5, 7.26 0.64 M8.79 0.28 C10.67 0.02, 12.9 0.37, 14.09 1.46 C15.29 2.54, 15.72 4.89, 15.97 6.76 C16.22 8.64, 16.32 10.98, 15.62 12.69 C14.92 14.39, 13.51 16.38, 11.79 16.99 C10.07 17.6, 7.16 16.97, 5.3 16.34 C3.44 15.72, 1.45 14.9, 0.62 13.24 C-0.21 11.58, -0.18 8.25, 0.33 6.37 C0.84 4.48, 2.37 3.03, 3.67 1.94 C4.96 0.84, 7.29 0.17, 8.09 -0.22 C8.89 -0.61, 8.43 -0.64, 8.46 -0.39" stroke="none" stroke-width="0" fill="#ffec99"></path><path d="M6.79 0.14 C8.56 -0.13, 11.34 0.76, 12.91 1.6 C14.49 2.44, 15.7 3.47, 16.23 5.16 C16.76 6.86, 16.66 10.07, 16.1 11.77 C15.54 13.46, 14.47 14.51, 12.88 15.32 C11.29 16.14, 8.38 16.94, 6.56 16.66 C4.75 16.39, 3.05 15.08, 1.99 13.66 C0.93 12.23, 0.13 9.83, 0.21 8.11 C0.29 6.38, 1.25 4.57, 2.47 3.29 C3.69 2, 6.77 0.98, 7.53 0.41 C8.29 -0.17, 7.07 -0.21, 7.03 -0.16 M8.18 -0.01 C9.92 -0.41, 11.67 -0.09, 13.03 1.03 C14.39 2.14, 15.93 4.95, 16.35 6.69 C16.77 8.42, 16.3 9.78, 15.54 11.44 C14.78 13.1, 13.44 15.85, 11.81 16.64 C10.17 17.43, 7.39 16.88, 5.76 16.18 C4.12 15.48, 2.86 14.01, 2.02 12.44 C1.19 10.87, 0.73 8.53, 0.74 6.75 C0.75 4.98, 0.93 2.96, 2.08 1.78 C3.23 0.6, 6.73 0.04, 7.64 -0.34 C8.56 -0.72, 7.45 -0.72, 7.56 -0.49" stroke="#f08c00" stroke-width="2" fill="none"></path></g><g stroke-linecap="round" transform="translate(1974.2367179657053 140.88019699298982) rotate(0 8.41475044898516 8.414750448985217)"><path d="M7.58 -0.48 C9.31 -0.76, 12.22 0.08, 13.66 1.3 C15.1 2.52, 15.81 5.02, 16.23 6.82 C16.64 8.63, 17 10.61, 16.16 12.13 C15.33 13.65, 12.92 15.29, 11.2 15.94 C9.49 16.6, 7.55 16.58, 5.85 16.09 C4.16 15.6, 2.03 14.52, 1.05 13.01 C0.07 11.5, -0.29 8.82, -0.02 7.03 C0.25 5.23, 1.33 3.33, 2.66 2.23 C3.99 1.13, 6.99 0.77, 7.98 0.42 C8.97 0.08, 8.54 0.17, 8.59 0.15 M9.64 -0.44 C11.16 -0.43, 12.6 1.05, 13.78 2.45 C14.95 3.85, 16.4 6.03, 16.71 7.97 C17.03 9.91, 16.75 12.64, 15.66 14.08 C14.56 15.52, 12.06 16.19, 10.14 16.6 C8.22 17.01, 5.7 17.45, 4.16 16.54 C2.62 15.64, 1.44 12.93, 0.91 11.18 C0.39 9.42, 0.6 7.66, 1.02 6 C1.45 4.33, 2.06 2.27, 3.46 1.19 C4.85 0.11, 8.46 -0.42, 9.42 -0.5 C10.38 -0.59, 9.32 0.54, 9.21 0.67" stroke="none" stroke-width="0" fill="#b2f2bb"></path><path d="M7.35 0.57 C9.03 0.13, 11.16 -0.12, 12.63 0.8 C14.09 1.72, 15.49 4.4, 16.14 6.1 C16.8 7.81, 17.22 9.41, 16.55 11.02 C15.89 12.62, 13.76 14.81, 12.14 15.73 C10.53 16.64, 8.54 16.91, 6.87 16.53 C5.19 16.15, 3.16 14.76, 2.1 13.44 C1.04 12.12, 0.44 10.29, 0.49 8.59 C0.55 6.89, 1.36 4.71, 2.44 3.23 C3.51 1.74, 6.11 0.21, 6.94 -0.31 C7.78 -0.84, 7.41 -0.09, 7.46 0.05 M9.41 -0.49 C11.02 -0.27, 13.39 1.85, 14.55 3.2 C15.72 4.55, 16.35 5.76, 16.41 7.61 C16.47 9.45, 16.05 12.8, 14.93 14.26 C13.81 15.73, 11.35 16.23, 9.68 16.37 C8.01 16.51, 6.31 16.06, 4.9 15.1 C3.5 14.15, 2.06 12.32, 1.24 10.65 C0.41 8.98, -0.49 6.72, -0.05 5.08 C0.4 3.45, 2.31 1.76, 3.89 0.82 C5.48 -0.12, 8.42 -0.5, 9.46 -0.56 C10.5 -0.63, 10.17 0.18, 10.13 0.44" stroke="#1971c2" stroke-width="2" fill="none"></path></g><g stroke-linecap="round" transform="translate(2004.83581050747 140.88019699298982) rotate(0 8.41475044898516 8.414750448985217)"><path d="M9.26 -0.39 C10.99 -0.23, 12.64 1.39, 13.94 2.71 C15.24 4.02, 16.91 5.8, 17.06 7.51 C17.21 9.22, 15.94 11.54, 14.86 12.98 C13.78 14.43, 12.27 15.65, 10.56 16.17 C8.85 16.69, 6.24 16.84, 4.6 16.09 C2.96 15.34, 1.45 13.31, 0.72 11.67 C-0.01 10.04, -0.19 7.88, 0.24 6.27 C0.66 4.65, 1.72 3, 3.26 1.97 C4.8 0.93, 8.4 0.41, 9.48 0.05 C10.55 -0.32, 9.7 -0.41, 9.71 -0.22 M8.46 -0.12 C10.11 0.03, 12.83 1.16, 14.29 2.58 C15.76 4, 17.15 6.62, 17.27 8.4 C17.39 10.18, 16.23 11.83, 15.02 13.28 C13.82 14.74, 11.7 16.79, 10.03 17.14 C8.37 17.5, 6.46 16.28, 5.03 15.41 C3.6 14.53, 2.29 13.45, 1.46 11.88 C0.62 10.31, -0.37 7.8, 0 5.98 C0.38 4.15, 2.18 1.86, 3.69 0.94 C5.21 0.03, 8.24 0.72, 9.07 0.48 C9.9 0.25, 8.61 -0.62, 8.68 -0.46" stroke="none" stroke-width="0" fill="#ffc9c9"></path><path d="M8.37 -0.39 C10 -0.49, 12.2 1.29, 13.64 2.46 C15.07 3.62, 16.7 4.92, 16.98 6.61 C17.26 8.31, 16.25 11.03, 15.3 12.63 C14.35 14.22, 12.88 15.62, 11.28 16.18 C9.68 16.75, 7.32 16.56, 5.7 16.01 C4.09 15.46, 2.46 14.34, 1.6 12.87 C0.73 11.41, 0.34 9.11, 0.53 7.22 C0.72 5.33, 1.37 2.78, 2.73 1.54 C4.09 0.31, 7.68 0.12, 8.68 -0.17 C9.69 -0.47, 8.71 -0.42, 8.76 -0.22 M8.08 0.27 C9.79 0.13, 11.9 0.02, 13.34 1.21 C14.77 2.39, 16.34 5.55, 16.69 7.39 C17.04 9.22, 16.23 10.85, 15.44 12.23 C14.66 13.61, 13.5 15.08, 11.98 15.64 C10.46 16.2, 8.2 16.19, 6.32 15.61 C4.43 15.03, 1.73 13.64, 0.65 12.15 C-0.42 10.66, -0.44 8.48, -0.11 6.68 C0.21 4.88, 1.15 2.44, 2.62 1.35 C4.09 0.27, 7.82 0.35, 8.71 0.16 C9.6 -0.03, 8.11 0.1, 7.96 0.23" stroke="#e03131" stroke-width="2" fill="none"></path></g><g stroke-linecap="round" transform="translate(1989.5362642365876 171.47928953475414) rotate(0 8.41475044898516 8.414750448985217)"><path d="M5.99 0.52 C7.64 0.05, 10.77 0.01, 12.37 0.72 C13.98 1.43, 14.96 3.16, 15.64 4.77 C16.31 6.38, 16.9 8.6, 16.43 10.37 C15.96 12.15, 14.32 14.42, 12.83 15.43 C11.33 16.44, 9.2 16.65, 7.45 16.45 C5.69 16.26, 3.6 15.42, 2.32 14.25 C1.03 13.08, -0.17 11.22, -0.28 9.42 C-0.38 7.62, 0.52 5.07, 1.66 3.45 C2.8 1.83, 5.66 0.19, 6.55 -0.29 C7.44 -0.76, 6.93 0.35, 6.99 0.6 M6.94 0.2 C8.81 -0.04, 11.64 0.94, 13.16 1.85 C14.69 2.75, 15.65 3.94, 16.09 5.63 C16.52 7.31, 16.33 10.38, 15.77 11.96 C15.21 13.55, 14.12 14.35, 12.75 15.13 C11.38 15.91, 9.41 16.9, 7.55 16.63 C5.7 16.37, 2.86 15.01, 1.62 13.53 C0.37 12.06, 0.03 9.46, 0.07 7.77 C0.12 6.08, 0.83 4.77, 1.91 3.39 C2.99 2, 5.63 -0.13, 6.55 -0.55 C7.47 -0.97, 7.35 0.58, 7.45 0.86" stroke="none" stroke-width="0" fill="#ffec99"></path><path d="M10.13 0.68 C11.88 0.97, 14.38 1.63, 15.43 3 C16.48 4.36, 16.58 7.02, 16.44 8.86 C16.3 10.7, 15.71 12.76, 14.57 14.03 C13.43 15.3, 11.32 16.19, 9.61 16.48 C7.89 16.76, 5.76 16.63, 4.29 15.74 C2.81 14.85, 1.4 12.99, 0.75 11.15 C0.1 9.3, -0.27 6.43, 0.38 4.69 C1.02 2.96, 2.92 1.52, 4.64 0.72 C6.35 -0.07, 9.5 -0.08, 10.64 -0.06 C11.78 -0.05, 11.47 0.68, 11.45 0.84 M6.32 -0.53 C8.01 -0.94, 10.83 0.62, 12.43 1.54 C14.04 2.47, 15.18 3.53, 15.94 5.02 C16.7 6.5, 17.4 8.79, 17 10.43 C16.59 12.07, 15.23 13.89, 13.51 14.84 C11.78 15.8, 8.59 16.39, 6.65 16.19 C4.72 15.98, 3.05 15, 1.89 13.63 C0.73 12.26, -0.37 9.68, -0.31 7.96 C-0.26 6.25, 1.1 4.63, 2.22 3.34 C3.33 2.05, 5.69 0.72, 6.36 0.23 C7.04 -0.26, 6.19 0.28, 6.25 0.42" stroke="#f08c00" stroke-width="2" fill="none"></path></g><g stroke-linecap="round"><g transform="translate(993.8956708251795 55.434547157311215) rotate(0 0.9461288542362354 23.878510589129277)"><path d="M0.14 -0.19 C0.3 7.69, 1.25 39.59, 1.55 47.55 M-0.46 -0.76 C-0.16 7.17, 2.27 40, 2.61 48.14" stroke="#1e1e1e" stroke-width="2" fill="none"></path></g><g transform="translate(993.8956708251795 55.434547157311215) rotate(0 0.9461288542362354 23.878510589129277)"><path d="M-6.89 26.22 C-3.38 34.34, 0.37 43.78, 2.61 48.14 M-6.89 26.22 C-4.56 32.46, -2.25 37.48, 2.61 48.14" stroke="#1e1e1e" stroke-width="2" fill="none"></path></g><g transform="translate(993.8956708251795 55.434547157311215) rotate(0 0.9461288542362354 23.878510589129277)"><path d="M9.43 25.24 C6.43 33.77, 3.67 43.6, 2.61 48.14 M9.43 25.24 C7.38 31.78, 5.32 37.06, 2.61 48.14" stroke="#1e1e1e" stroke-width="2" fill="none"></path></g></g><mask></mask><g transform="translate(977.1787494328499 11.753874393661249) rotate(0 12.005859375 20.700000000000003)"><text x="0" y="33.120703125" font-family="Helvetica, Segoe UI Emoji" font-size="36px" fill="#1e1e1e" text-anchor="start" style="white-space: pre;" direction="ltr" dominant-baseline="alphabetic">A</text></g><g stroke-linecap="round"><g transform="translate(1267.8186746746742 222.38557406515676) rotate(0 130.18776631762353 0.845375105958567)"><path d="M0.33 0.75 C44.07 1.13, 217.9 2.05, 261.4 2.28" stroke="#1e1e1e" stroke-width="4.5" fill="none" stroke-dasharray="1.5 10"></path></g><g transform="translate(1267.8186746746742 222.38557406515676) rotate(0 130.18776631762353 0.845375105958567)"><path d="M237.86 10.71 C244.11 10.56, 248.87 8.65, 261.4 2.28" stroke="#1e1e1e" stroke-width="4.5" fill="none" stroke-dasharray="1.5 8"></path></g><g transform="translate(1267.8186746746742 222.38557406515676) rotate(0 130.18776631762353 0.845375105958567)"><path d="M237.95 -6.39 C244.19 -2.9, 248.92 -1.17, 261.4 2.28" stroke="#1e1e1e" stroke-width="4.5" fill="none" stroke-dasharray="1.5 8"></path></g></g><mask></mask><g transform="translate(1285.7949445502481 134.91376526175245) rotate(0 105.46875 21.599999999999994)"><text x="0" y="34.762499999999996" font-family="Cascadia, Segoe UI Emoji" font-size="36px" fill="#1e1e1e" text-anchor="start" style="white-space: pre;" direction="ltr" dominant-baseline="alphabetic">git commit</text></g><g stroke-linecap="round"><g transform="translate(1941.8215636481805 548.2349679846661) rotate(0 40.29613423931892 -127.2991513469394)"><path d="M-1.12 -0.55 C12.5 -10.83, 77.27 -19.47, 81.31 -61.67 C85.36 -103.88, 32.88 -221.71, 23.16 -253.79 M0.49 1.78 C14.06 -8.86, 76.99 -20.57, 80.74 -63.48 C84.5 -106.4, 33.11 -224.15, 23.02 -255.71" stroke="#e03131" stroke-width="2" fill="none"></path></g><g transform="translate(1941.8215636481805 548.2349679846661) rotate(0 40.29613423931892 -127.2991513469394)"><path d="M39.23 -236.68 C34.04 -240.65, 31.68 -244.9, 23.02 -255.71 M39.23 -236.68 C32.34 -244.05, 27.74 -250.51, 23.02 -255.71" stroke="#e03131" stroke-width="2" fill="none"></path></g><g transform="translate(1941.8215636481805 548.2349679846661) rotate(0 40.29613423931892 -127.2991513469394)"><path d="M23.21 -230.71 C22.24 -236.1, 24.11 -241.93, 23.02 -255.71 M23.21 -230.71 C22.15 -240.33, 23.43 -248.98, 23.02 -255.71" stroke="#e03131" stroke-width="2" fill="none"></path></g></g><mask></mask><g transform="translate(1694.5498308159963 531.7501857958539) rotate(0 116.94600677490234 22.5)"><text x="0" y="31.536" font-family="Virgil, Segoe UI Emoji" font-size="36px" fill="#e03131" text-anchor="start" style="white-space: pre;" direction="ltr" dominant-baseline="alphabetic">No reference!</text></g></svg>