<svg version="1.1" xmlns="http://www.w3.org/2000/svg" viewBox="0 0 2213.765987750091 2825.9730407898232" width="2213.765987750091" height="2825.9730407898232">
  <!-- svg-source:excalidraw -->
  
  <defs>
    <style class="style-fonts">
      @font-face {
        font-family: "Virgil";
        src: url("https://excalidraw.com/Virgil.woff2");
      }
      @font-face {
        font-family: "Cascadia";
        src: url("https://excalidraw.com/Cascadia.woff2");
      }
      @font-face {
        font-family: "Assistant";
        src: url("https://excalidraw.com/Assistant-Regular.woff2");
      }
    </style>
    
  </defs>
  <g stroke-linecap="round" transform="translate(214.6381751050278 192.6667903722837) rotate(0 44.5 44.5)"><path d="M22.25 0 C37.11 -2.78, 52.27 3.02, 66.75 0 C78.9 -1.61, 89.05 7.51, 89 22.25 C86.18 34.51, 90.28 51.42, 89 66.75 C88.27 84.5, 78.61 85.58, 66.75 89 C57.4 89.85, 46.59 89.84, 22.25 89 C8.48 91.52, 2.92 78.54, 0 66.75 C-3.13 57.23, -1.24 43.56, 0 22.25 C-0.56 7.52, 7.4 2.82, 22.25 0" stroke="none" stroke-width="0" fill="#a5d8ff"></path><path d="M22.25 0 C40.86 -1.12, 57.87 0.98, 66.75 0 M22.25 0 C36.11 -0.61, 50.32 -0.27, 66.75 0 M66.75 0 C83.03 -1.26, 87.13 9.4, 89 22.25 M66.75 0 C81.43 -1.82, 89.09 8.49, 89 22.25 M89 22.25 C87.82 38.66, 90.69 56.77, 89 66.75 M89 22.25 C89.34 36.46, 88.46 50.34, 89 66.75 M89 66.75 C90.36 79.87, 83.54 89.12, 66.75 89 M89 66.75 C90.29 82.66, 83.66 89.08, 66.75 89 M66.75 89 C51.57 89.41, 36.91 86.83, 22.25 89 M66.75 89 C48.75 87.87, 32.11 89.43, 22.25 89 M22.25 89 C9.03 89.08, 1.97 81.96, 0 66.75 M22.25 89 C8.6 90.73, 0.47 80.53, 0 66.75 M0 66.75 C1.39 50.62, -0.5 35.43, 0 22.25 M0 66.75 C0.06 54.94, -0.48 43.02, 0 22.25 M0 22.25 C-1.06 8.91, 6.13 -1.43, 22.25 0 M0 22.25 C-1.22 7.8, 6.43 -1.75, 22.25 0" stroke="#1e1e1e" stroke-width="2" fill="none"></path></g><g stroke-linecap="round"><g transform="translate(205.4620909765789 230.1098137184789) rotate(0 -43.78192648474476 -0.7522653149726395)"><path d="M-0.31 0.57 C-15.26 0.34, -73.73 -0.1, -88.74 -0.43 M1.73 -0.17 C-13.39 -0.81, -74.35 -2.08, -89.29 -2.08" stroke="#1e1e1e" stroke-width="2" fill="none"></path></g><g transform="translate(205.4620909765789 230.1098137184789) rotate(0 -43.78192648474476 -0.7522653149726395)"><path d="M-65.7 -10.34 C-73.61 -6, -81.99 -5.6, -89.29 -2.08 M-65.7 -10.34 C-71.99 -7.86, -80.33 -5.21, -89.29 -2.08" stroke="#1e1e1e" stroke-width="2" fill="none"></path></g><g transform="translate(205.4620909765789 230.1098137184789) rotate(0 -43.78192648474476 -0.7522653149726395)"><path d="M-65.91 6.76 C-73.88 4.62, -82.17 -1.45, -89.29 -2.08 M-65.91 6.76 C-72 4.21, -80.27 1.83, -89.29 -2.08" stroke="#1e1e1e" stroke-width="2" fill="none"></path></g></g><mask></mask><g stroke-linecap="round" transform="translate(506.1221193426612 191.2791430616733) rotate(0 44.5 44.5)"><path d="M22.25 0 C36.9 -3.87, 49.9 2.39, 66.75 0 C84.39 0.98, 88.66 4.83, 89 22.25 C86.62 34.77, 88.02 50.38, 89 66.75 C87.73 79.88, 83.84 91.63, 66.75 89 C53.73 86.42, 44.47 93.12, 22.25 89 C6.91 87.94, 0.21 79.91, 0 66.75 C-0.51 51.93, -0.23 44.7, 0 22.25 C-1.41 9.39, 9.09 -0.27, 22.25 0" stroke="none" stroke-width="0" fill="#a5d8ff"></path><path d="M22.25 0 C33.52 -1.4, 48.26 0.44, 66.75 0 M22.25 0 C36.87 0.26, 52.73 0.41, 66.75 0 M66.75 0 C81.62 -1.98, 90.07 6.12, 89 22.25 M66.75 0 C79.6 2.27, 90.41 8.38, 89 22.25 M89 22.25 C87.49 34.21, 87.79 49.77, 89 66.75 M89 22.25 C89.5 37.64, 89.19 52.93, 89 66.75 M89 66.75 C88.83 83.56, 81.6 87.53, 66.75 89 M89 66.75 C89.53 82.24, 80.88 87.83, 66.75 89 M66.75 89 C56.94 87.41, 44.68 89.35, 22.25 89 M66.75 89 C49.5 88.64, 34.51 89.1, 22.25 89 M22.25 89 C7.22 87.75, -1.31 80.24, 0 66.75 M22.25 89 C7.49 90.9, -1.61 83.54, 0 66.75 M0 66.75 C-0.45 55.7, -1.56 45.23, 0 22.25 M0 66.75 C-0.8 53.15, 0.75 40.73, 0 22.25 M0 22.25 C1.31 7.2, 8.99 -0.32, 22.25 0 M0 22.25 C0.73 5.16, 6.73 -1.04, 22.25 0" stroke="#1e1e1e" stroke-width="2" fill="none"></path></g><g stroke-linecap="round"><g transform="translate(489.99261243634555 232.65639571035774) rotate(0 -90.85892872449602 0.1622615724464609)"><path d="M-0.2 -1.05 C-30.21 -0.99, -150.33 -0.16, -180.57 0.1 M-1.76 1.02 C-31.89 1.26, -151.93 1.25, -181.52 1.37" stroke="#1e1e1e" stroke-width="2" fill="none"></path></g><g transform="translate(489.99261243634555 232.65639571035774) rotate(0 -90.85892872449602 0.1622615724464609)"><path d="M-158.04 -7.22 C-165.85 -5.05, -170.98 -4.57, -181.52 1.37 M-158.04 -7.22 C-164.74 -4.29, -170.97 -2.74, -181.52 1.37" stroke="#1e1e1e" stroke-width="2" fill="none"></path></g><g transform="translate(489.99261243634555 232.65639571035774) rotate(0 -90.85892872449602 0.1622615724464609)"><path d="M-158.01 9.88 C-165.79 7.65, -170.93 3.72, -181.52 1.37 M-158.01 9.88 C-164.7 7.86, -170.94 4.46, -181.52 1.37" stroke="#1e1e1e" stroke-width="2" fill="none"></path></g></g><mask></mask><g transform="translate(90.11393162399787 104.16945188561215) rotate(0 17.008333206176758 20.7)"><text x="0" y="33.120703125" font-family="Helvetica, Segoe UI Emoji" font-size="36px" fill="#1e1e1e" text-anchor="start" style="white-space: pre;" direction="ltr" dominant-baseline="alphabetic">A:</text></g><g stroke-linecap="round" transform="translate(217.8387498842589 409.0680245112578) rotate(0 44.5 44.5)"><path d="M22.25 0 C32.2 2.84, 46.53 -1.8, 66.75 0 C81.6 2.19, 87.52 5.14, 89 22.25 C86.59 29.37, 86.2 38.32, 89 66.75 C86.42 85.17, 82.6 90.3, 66.75 89 C51.07 88.64, 39.81 85.26, 22.25 89 C4.62 87.8, 3.4 79.26, 0 66.75 C-3.68 53.63, -1.61 38.01, 0 22.25 C-1.07 4.88, 8.17 -0.44, 22.25 0" stroke="none" stroke-width="0" fill="#ffc9c9"></path><path d="M22.25 0 C36.22 -1.01, 53.77 1.33, 66.75 0 M22.25 0 C35.75 -0.38, 49.34 -0.53, 66.75 0 M66.75 0 C82.55 0.05, 88.89 7.1, 89 22.25 M66.75 0 C83.12 -1.36, 88.03 9.23, 89 22.25 M89 22.25 C88.32 33.66, 90.68 44, 89 66.75 M89 22.25 C88.32 39.66, 88.95 55.58, 89 66.75 M89 66.75 C89.52 79.8, 81.33 87.16, 66.75 89 M89 66.75 C88.25 81.44, 83.38 90.83, 66.75 89 M66.75 89 C52.34 89.54, 39.99 88.53, 22.25 89 M66.75 89 C54.75 89.07, 44.2 90.34, 22.25 89 M22.25 89 C7.74 89.5, 0.98 80.62, 0 66.75 M22.25 89 C6.56 87.9, 1.81 79.42, 0 66.75 M0 66.75 C-1.31 56.35, -0.27 42.48, 0 22.25 M0 66.75 C0.6 56.12, -0.51 46.7, 0 22.25 M0 22.25 C-0.1 7.69, 7.44 -0.94, 22.25 0 M0 22.25 C-1.96 6.94, 6.49 2.21, 22.25 0" stroke="#1e1e1e" stroke-width="2" fill="none"></path></g><g stroke-linecap="round"><g transform="translate(208.6626657558101 446.51104785745304) rotate(0 -43.689134124558194 -0.36260369876131904)"><path d="M-0.41 0.45 C-15.31 0.4, -73.6 -0.85, -88.52 -1.18 M1.57 -0.35 C-13.47 -0.12, -73.53 0.44, -88.95 0.45" stroke="#1e1e1e" stroke-width="2" fill="none"></path></g><g transform="translate(208.6626657558101 446.51104785745304) rotate(0 -43.689134124558194 -0.36260369876131904)"><path d="M-65.5 -8.24 C-73.52 -3.44, -82.72 -2.59, -88.95 0.45 M-65.5 -8.24 C-73.05 -6.47, -78.4 -3.38, -88.95 0.45" stroke="#1e1e1e" stroke-width="2" fill="none"></path></g><g transform="translate(208.6626657558101 446.51104785745304) rotate(0 -43.689134124558194 -0.36260369876131904)"><path d="M-65.41 8.86 C-73.34 7.3, -82.57 1.8, -88.95 0.45 M-65.41 8.86 C-72.9 5.76, -78.28 3.99, -88.95 0.45" stroke="#1e1e1e" stroke-width="2" fill="none"></path></g></g><mask></mask><g stroke-linecap="round" transform="translate(509.3226941218925 407.6803772006474) rotate(0 44.5 44.5)"><path d="M22.25 0 C31.98 -2.76, 41.38 -3.54, 66.75 0 C81.57 -1.73, 86.84 5.29, 89 22.25 C89.44 33.81, 89.83 43.69, 89 66.75 C87.5 80.99, 81.55 92.22, 66.75 89 C61.02 86.41, 47.96 90.22, 22.25 89 C6.61 85.65, -0.41 80.31, 0 66.75 C0.99 57.06, 2.7 51.49, 0 22.25 C-2.29 5.7, 8.71 -2.4, 22.25 0" stroke="none" stroke-width="0" fill="#ffc9c9"></path><path d="M22.25 0 C38.95 -0.75, 55.36 -1.5, 66.75 0 M22.25 0 C32.88 -0.17, 44.28 -0.6, 66.75 0 M66.75 0 C80.74 1.57, 88.11 7.14, 89 22.25 M66.75 0 C82.98 -0.71, 89.04 9.42, 89 22.25 M89 22.25 C89.89 32.56, 90.04 44.93, 89 66.75 M89 22.25 C88.99 30.98, 88.79 41.49, 89 66.75 M89 66.75 C90.56 83.18, 81.57 89.81, 66.75 89 M89 66.75 C88.88 80.32, 82.23 88.84, 66.75 89 M66.75 89 C55.93 86.99, 41.47 88.11, 22.25 89 M66.75 89 C49.45 88.63, 30.8 88.64, 22.25 89 M22.25 89 C8.99 87.12, -0.82 80.2, 0 66.75 M22.25 89 C5.62 87.14, 1.3 80.92, 0 66.75 M0 66.75 C0.62 57.75, -0.49 44.89, 0 22.25 M0 66.75 C0.03 51.15, -0.83 36.27, 0 22.25 M0 22.25 C-0.81 9.34, 6.81 -1.48, 22.25 0 M0 22.25 C0.19 6.1, 9.28 0.17, 22.25 0" stroke="#1e1e1e" stroke-width="2" fill="none"></path></g><g stroke-linecap="round"><g transform="translate(499.0057062150097 450.995136182476) rotate(0 -94.39571737319241 -0.7531468139003437)"><path d="M0.58 0.03 C-30.65 -0.11, -157.04 -1.19, -188.39 -1.54 M-0.58 -1 C-31.89 -0.89, -158.16 -0.08, -189.37 -0.1" stroke="#1e1e1e" stroke-width="2" fill="none"></path></g><g transform="translate(499.0057062150097 450.995136182476) rotate(0 -94.39571737319241 -0.7531468139003437)"><path d="M-165.91 -8.73 C-170.99 -6.86, -176.45 -3.54, -189.37 -0.1 M-165.91 -8.73 C-172.04 -6.61, -176.64 -4.7, -189.37 -0.1" stroke="#1e1e1e" stroke-width="2" fill="none"></path></g><g transform="translate(499.0057062150097 450.995136182476) rotate(0 -94.39571737319241 -0.7531468139003437)"><path d="M-165.85 8.37 C-170.85 6.54, -176.32 6.15, -189.37 -0.1 M-165.85 8.37 C-171.92 6.38, -176.53 4.17, -189.37 -0.1" stroke="#1e1e1e" stroke-width="2" fill="none"></path></g></g><mask></mask><g transform="translate(90.89582211129306 364.0540188592147) rotate(0 17.008333206176758 20.700000000000003)"><text x="0" y="33.120703125" font-family="Helvetica, Segoe UI Emoji" font-size="36px" fill="#1e1e1e" text-anchor="start" style="white-space: pre;" direction="ltr" dominant-baseline="alphabetic">B:</text></g><g stroke-linecap="round"><g transform="translate(552.7735342745324 290.0293203897114) rotate(0 -0.9737950533576623 55.45096044530895)"><path d="M-0.86 0.18 C-1.15 18.54, -1.12 91.99, -1 110.72" stroke="#1e1e1e" stroke-width="2.5" fill="none" stroke-dasharray="8 10"></path></g><g transform="translate(552.7735342745324 290.0293203897114) rotate(0 -0.9737950533576623 55.45096044530895)"><path d="M-9.61 87.25 C-6.11 94.07, -4.62 103.92, -1 110.72" stroke="#1e1e1e" stroke-width="2.5" fill="none"></path></g><g transform="translate(552.7735342745324 290.0293203897114) rotate(0 -0.9737950533576623 55.45096044530895)"><path d="M7.49 87.21 C4.85 93.92, 0.2 103.79, -1 110.72" stroke="#1e1e1e" stroke-width="2.5" fill="none"></path></g></g><mask></mask><g stroke-linecap="round" transform="translate(712.9860686648985 579.4131300926867) rotate(0 44.5 44.5)"><path d="M22.25 0 C38.68 -2.96, 54.43 0.21, 66.75 0 C78.86 0.63, 86.74 9.32, 89 22.25 C87.17 36.78, 88.02 47.03, 89 66.75 C86.13 84.17, 84.99 89.24, 66.75 89 C51.27 90.53, 38.52 87.58, 22.25 89 C8.53 86.4, -1.91 81.46, 0 66.75 C-0.81 50.21, 3.2 41.62, 0 22.25 C1.48 5.11, 4.41 -0.8, 22.25 0" stroke="none" stroke-width="0" fill="#ffc9c9"></path><path d="M22.25 0 C29.77 1.41, 41.39 1.34, 66.75 0 M22.25 0 C32.03 0.64, 41.51 -0.34, 66.75 0 M66.75 0 C80.39 -1.31, 89.76 7.19, 89 22.25 M66.75 0 C82.85 1.91, 90.02 8.87, 89 22.25 M89 22.25 C90.47 31.93, 89.47 39.33, 89 66.75 M89 22.25 C89.83 37.4, 89.14 53.8, 89 66.75 M89 66.75 C88.91 82.26, 80.67 90.57, 66.75 89 M89 66.75 C88.58 82.51, 82.96 90.93, 66.75 89 M66.75 89 C49.7 89.99, 30.76 91.19, 22.25 89 M66.75 89 C53.07 89.52, 41.37 88.89, 22.25 89 M22.25 89 C7.17 87.32, 0.57 80.3, 0 66.75 M22.25 89 C5.16 89.44, 1.79 82.52, 0 66.75 M0 66.75 C0.24 56.6, -0.43 44.45, 0 22.25 M0 66.75 C-0.1 50.47, 0.19 35.45, 0 22.25 M0 22.25 C0.17 8.77, 6.83 -0.15, 22.25 0 M0 22.25 C-0.1 7.23, 5.14 -1.32, 22.25 0" stroke="#1e1e1e" stroke-width="2" fill="none"></path></g><g stroke-linecap="round"><g transform="translate(711.9860686648985 623.5144829940582) rotate(0 -71.92993896259736 -62.94170072244631)"><path d="M-0.45 -0.44 C-24.79 -21.07, -121.45 -102.96, -145.38 -123.64 M1.52 -1.72 C-22.52 -22.71, -118.83 -105.17, -143.17 -125.44" stroke="#1e1e1e" stroke-width="2" fill="none"></path></g><g transform="translate(711.9860686648985 623.5144829940582) rotate(0 -71.92993896259736 -62.94170072244631)"><path d="M-119.72 -116.79 C-128.85 -121.58, -135.48 -122.4, -143.17 -125.44 M-119.72 -116.79 C-125.33 -119.45, -132.92 -122, -143.17 -125.44" stroke="#1e1e1e" stroke-width="2" fill="none"></path></g><g transform="translate(711.9860686648985 623.5144829940582) rotate(0 -71.92993896259736 -62.94170072244631)"><path d="M-130.77 -103.74 C-135.96 -113.15, -138.64 -118.64, -143.17 -125.44 M-130.77 -103.74 C-133.3 -109.91, -137.83 -116.08, -143.17 -125.44" stroke="#1e1e1e" stroke-width="2" fill="none"></path></g></g><mask></mask><g stroke-linecap="round"><g transform="translate(751.6735496654661 738.226003748195) rotate(0 -0.030798946616300782 -30.363257361844376)"><path d="M0.57 0.42 C0.52 -9.37, 0.66 -49.45, 0.49 -59.38 M-0.59 -0.41 C-0.83 -10.49, -0.06 -51.04, -0.21 -61.14" stroke="#1e1e1e" stroke-width="2" fill="none"></path></g><g transform="translate(751.6735496654661 738.226003748195) rotate(0 -0.030798946616300782 -30.363257361844376)"><path d="M8.25 -37.62 C5.98 -45.38, 3.32 -55.54, -0.21 -61.14 M8.25 -37.62 C5.61 -45.99, 1.99 -54.38, -0.21 -61.14" stroke="#1e1e1e" stroke-width="2" fill="none"></path></g><g transform="translate(751.6735496654661 738.226003748195) rotate(0 -0.030798946616300782 -30.363257361844376)"><path d="M-8.85 -37.69 C-4.86 -45.5, -1.26 -55.64, -0.21 -61.14 M-8.85 -37.69 C-5.09 -45.88, -2.33 -54.24, -0.21 -61.14" stroke="#1e1e1e" stroke-width="2" fill="none"></path></g></g><mask></mask><g transform="translate(738.1110053334568 759.5385734127814) rotate(0 12.008333206176758 20.69999999999999)"><text x="0" y="33.120703125" font-family="Helvetica, Segoe UI Emoji" font-size="36px" fill="#1e1e1e" text-anchor="start" style="white-space: pre;" direction="ltr" dominant-baseline="alphabetic">X</text></g><g transform="translate(607.1723449012497 333.52076316250907) rotate(0 68.45833587646484 20.700000000000003)"><text x="0" y="33.120703125" font-family="Helvetica, Segoe UI Emoji" font-size="36px" fill="#1e1e1e" text-anchor="start" style="white-space: pre;" direction="ltr" dominant-baseline="alphabetic">B's main</text></g><g transform="translate(610.4455059773039 92.91128046089892) rotate(0 67.44999694824219 20.7)"><text x="0" y="33.120703125" font-family="Helvetica, Segoe UI Emoji" font-size="36px" fill="#1e1e1e" text-anchor="start" style="white-space: pre;" direction="ltr" dominant-baseline="alphabetic">A's main</text></g><g stroke-linecap="round"><g transform="translate(621.4480699454143 137.0624820300376) rotate(0 -19.947426043471467 26.04969388703734)"><path d="M-0.3 -1.04 C-7.02 7.52, -34.04 42.94, -41.05 52.16 M1.75 1.03 C-5.01 9.64, -34.11 44.56, -41.64 53.14" stroke="#1e1e1e" stroke-width="2" fill="none"></path></g><g transform="translate(621.4480699454143 137.0624820300376) rotate(0 -19.947426043471467 26.04969388703734)"><path d="M-32.92 29.71 C-36.59 36.45, -38.72 39.9, -41.64 53.14 M-32.92 29.71 C-35.96 38.53, -40.68 47.75, -41.64 53.14" stroke="#1e1e1e" stroke-width="2" fill="none"></path></g><g transform="translate(621.4480699454143 137.0624820300376) rotate(0 -19.947426043471467 26.04969388703734)"><path d="M-19.9 40.79 C-26.77 44.84, -32.02 45.64, -41.64 53.14 M-19.9 40.79 C-27.94 45.22, -37.71 50.14, -41.64 53.14" stroke="#1e1e1e" stroke-width="2" fill="none"></path></g></g><mask></mask><g stroke-linecap="round"><g transform="translate(621.3620224939453 376.90548606541563) rotate(0 -11.152714396031627 15.605802449238695)"><path d="M-0.8 -0.61 C-4.64 4.58, -18.9 24.98, -22.27 30.3 M0.98 1.69 C-3.09 7.14, -19.6 27.19, -23.28 31.82" stroke="#1e1e1e" stroke-width="2" fill="none"></path></g><g transform="translate(621.3620224939453 376.90548606541563) rotate(0 -11.152714396031627 15.605802449238695)"><path d="M-17.16 14.07 C-20.45 20.26, -21.78 28.71, -23.28 31.82 M-17.16 14.07 C-19.18 21.18, -22.65 27.92, -23.28 31.82" stroke="#1e1e1e" stroke-width="2" fill="none"></path></g><g transform="translate(621.3620224939453 376.90548606541563) rotate(0 -11.152714396031627 15.605802449238695)"><path d="M-7.18 22.16 C-14.04 25.35, -18.98 30.87, -23.28 31.82 M-7.18 22.16 C-12.97 26.19, -20.24 29.85, -23.28 31.82" stroke="#1e1e1e" stroke-width="2" fill="none"></path></g></g><mask></mask><g transform="translate(78.33149655732166 199.73904546103353) rotate(0 15 20.700000000000003)"><text x="0" y="33.120703125" font-family="Helvetica, Segoe UI Emoji" font-size="36px" fill="#1e1e1e" text-anchor="start" style="white-space: pre;" direction="ltr" dominant-baseline="alphabetic">...</text></g><g transform="translate(78.33149655732154 419.8393160272149) rotate(0 15 20.69999999999999)"><text x="0" y="33.120703125" font-family="Helvetica, Segoe UI Emoji" font-size="36px" fill="#1e1e1e" text-anchor="start" style="white-space: pre;" direction="ltr" dominant-baseline="alphabetic">...</text></g><g transform="translate(10 42.259429258338514) rotate(0 26.066667556762695 35.94171656080628)"><text x="0" y="57.507967343640615" font-family="Helvetica, Segoe UI Emoji" font-size="62.50733314922831px" fill="#e03131" text-anchor="start" style="white-space: pre;" direction="ltr" dominant-baseline="alphabetic">1:</text></g><g transform="translate(1310.946843094463 10) rotate(0 26.066667556762695 35.94171656080628)"><text x="0" y="57.507967343640615" font-family="Helvetica, Segoe UI Emoji" font-size="62.50733314922831px" fill="#e03131" text-anchor="start" style="white-space: pre;" direction="ltr" dominant-baseline="alphabetic">2:</text></g><g transform="translate(45.36912467491379 931.5369595064514) rotate(0 26.066667556762695 35.9417165608063)"><text x="0" y="57.507967343640615" font-family="Helvetica, Segoe UI Emoji" font-size="62.50733314922831px" fill="#e03131" text-anchor="start" style="white-space: pre;" direction="ltr" dominant-baseline="alphabetic">3:</text></g><g transform="translate(1446.3500748124843 1040.3182273222715) rotate(0 151.27499389648438 35.9417165608063)"><text x="0" y="57.507967343640615" font-family="Helvetica, Segoe UI Emoji" font-size="62.50733314922831px" fill="#e03131" text-anchor="start" style="white-space: pre;" direction="ltr" dominant-baseline="alphabetic">4: skipped!</text></g><g stroke-linecap="round" transform="translate(1553.0956711837975 197.62790631850908) rotate(0 44.5 44.5)"><path d="M22.25 0 C36.81 0.92, 55.57 4.25, 66.75 0 C78.08 3.55, 90.04 10.99, 89 22.25 C86.15 32.49, 89.22 41.12, 89 66.75 C88.02 81.6, 83.15 89.43, 66.75 89 C54.14 85.77, 41.37 88.32, 22.25 89 C4.98 92.23, -1.69 84.58, 0 66.75 C2.27 56.56, -0.11 44, 0 22.25 C2.81 10.43, 3.92 -0.14, 22.25 0" stroke="none" stroke-width="0" fill="#a5d8ff"></path><path d="M22.25 0 C35.77 0.56, 50.94 -1.3, 66.75 0 M22.25 0 C39.33 0.89, 57.47 1.18, 66.75 0 M66.75 0 C79.82 -1.97, 90.9 8.18, 89 22.25 M66.75 0 C79.6 0.55, 89.98 6.91, 89 22.25 M89 22.25 C89.6 34.62, 87.12 45.09, 89 66.75 M89 22.25 C88.44 36.78, 89.48 51.68, 89 66.75 M89 66.75 C87.03 82.04, 80.49 87.38, 66.75 89 M89 66.75 C91.17 79.74, 79.95 87.53, 66.75 89 M66.75 89 C55.67 90.86, 39.63 89.54, 22.25 89 M66.75 89 C55.21 88.79, 44.1 89.36, 22.25 89 M22.25 89 C7.15 90.77, -1.53 80.61, 0 66.75 M22.25 89 C5.3 87.48, 1.99 82.28, 0 66.75 M0 66.75 C-1.32 50.59, 1.34 35.91, 0 22.25 M0 66.75 C0.36 49.18, -0.42 31.04, 0 22.25 M0 22.25 C-1.15 5.7, 6.92 -0.18, 22.25 0 M0 22.25 C0.54 8.81, 6.51 -0.26, 22.25 0" stroke="#1e1e1e" stroke-width="2" fill="none"></path></g><g stroke-linecap="round"><g transform="translate(1543.919587055349 235.0709296647043) rotate(0 -44.85370292561481 -0.7282539129541767)"><path d="M0.46 0.34 C-14.66 0.35, -75.1 0.16, -90.16 -0.25 M-0.76 -0.53 C-15.54 -0.8, -72.77 -1.69, -87.8 -1.8" stroke="#1e1e1e" stroke-width="2" fill="none"></path></g><g transform="translate(1543.919587055349 235.0709296647043) rotate(0 -44.85370292561481 -0.7282539129541767)"><path d="M-64.21 -10.07 C-71.83 -8.21, -78.74 -4.98, -87.8 -1.8 M-64.21 -10.07 C-69.44 -7.06, -76.32 -6.98, -87.8 -1.8" stroke="#1e1e1e" stroke-width="2" fill="none"></path></g><g transform="translate(1543.919587055349 235.0709296647043) rotate(0 -44.85370292561481 -0.7282539129541767)"><path d="M-64.41 7.03 C-71.92 2.97, -78.76 0.28, -87.8 -1.8 M-64.41 7.03 C-69.54 5.98, -76.37 2, -87.8 -1.8" stroke="#1e1e1e" stroke-width="2" fill="none"></path></g></g><mask></mask><g stroke-linecap="round" transform="translate(1844.5796154214308 196.24025900789866) rotate(0 44.5 44.5)"><path d="M22.25 0 C32.41 2.75, 50.62 2.78, 66.75 0 C79.34 -2.87, 89.6 5.21, 89 22.25 C88.21 35.19, 90.76 48.53, 89 66.75 C88.64 81.57, 81.45 89.29, 66.75 89 C54.93 92.09, 46.28 91.86, 22.25 89 C5.07 89.47, -2.45 83.96, 0 66.75 C2.81 56.09, -3.5 39.26, 0 22.25 C-1.77 5.28, 7.66 -1.47, 22.25 0" stroke="none" stroke-width="0" fill="#a5d8ff"></path><path d="M22.25 0 C39.12 -0.48, 51.09 -0.42, 66.75 0 M22.25 0 C37.44 -1.39, 55.34 -0.02, 66.75 0 M66.75 0 C79.86 0.48, 89.85 6.97, 89 22.25 M66.75 0 C80.18 -1.57, 88.49 8.46, 89 22.25 M89 22.25 C89.06 41.21, 88.25 54.74, 89 66.75 M89 22.25 C88.05 36.96, 88.49 50.39, 89 66.75 M89 66.75 C90.88 79.98, 80.16 87.72, 66.75 89 M89 66.75 C88.82 83.04, 82.1 91.22, 66.75 89 M66.75 89 C48.47 88.22, 34.14 88.22, 22.25 89 M66.75 89 C56.13 89.86, 45.01 88.48, 22.25 89 M22.25 89 C5.57 87.68, 1.73 82.19, 0 66.75 M22.25 89 C8.5 88.76, -1.16 80.01, 0 66.75 M0 66.75 C1.68 54.04, -1.05 43.55, 0 22.25 M0 66.75 C-0.29 51.8, 0.04 38.48, 0 22.25 M0 22.25 C0.47 8.63, 6.63 -0.23, 22.25 0 M0 22.25 C1.78 9, 5.49 -1.42, 22.25 0" stroke="#1e1e1e" stroke-width="2" fill="none"></path></g><g stroke-linecap="round"><g transform="translate(1828.4501085151155 237.61751165658313) rotate(0 -90.29425721416851 0.369704300399615)"><path d="M-0.44 -0.75 C-30.49 -0.71, -151.02 0.92, -180.97 1.33 M1.54 1.47 C-28.65 1.68, -151.77 -0.15, -182.12 -0.41" stroke="#1e1e1e" stroke-width="2" fill="none"></path></g><g transform="translate(1828.4501085151155 237.61751165658313) rotate(0 -90.29425721416851 0.369704300399615)"><path d="M-158.53 -8.68 C-165.49 -7.4, -168.8 -3.92, -182.12 -0.41 M-158.53 -8.68 C-166.86 -5.3, -177.87 -2.22, -182.12 -0.41" stroke="#1e1e1e" stroke-width="2" fill="none"></path></g><g transform="translate(1828.4501085151155 237.61751165658313) rotate(0 -90.29425721416851 0.369704300399615)"><path d="M-158.74 8.42 C-165.8 5.51, -169.06 4.79, -182.12 -0.41 M-158.74 8.42 C-166.83 5.13, -177.76 1.54, -182.12 -0.41" stroke="#1e1e1e" stroke-width="2" fill="none"></path></g></g><mask></mask><g transform="translate(1428.5714277027678 109.13056783183754) rotate(0 17.008333206176758 20.7)"><text x="0" y="33.120703125" font-family="Helvetica, Segoe UI Emoji" font-size="36px" fill="#1e1e1e" text-anchor="start" style="white-space: pre;" direction="ltr" dominant-baseline="alphabetic">A:</text></g><g stroke-linecap="round" transform="translate(1562.0501103734432 483.07551338245344) rotate(0 44.5 44.5)"><path d="M22.25 0 C40.61 -1.57, 57.44 1.5, 66.75 0 C79.3 -0.98, 89.02 8.98, 89 22.25 C88.78 36.42, 85.72 50.43, 89 66.75 C88.35 79.15, 84.82 87.31, 66.75 89 C47.24 91.48, 32.9 89.1, 22.25 89 C5.57 91.81, 3.02 78.08, 0 66.75 C0.63 52.1, 3.92 43.86, 0 22.25 C-2.54 4.36, 8.02 -3.18, 22.25 0" stroke="none" stroke-width="0" fill="#ffc9c9"></path><path d="M22.25 0 C35.92 -1.94, 44.03 1.72, 66.75 0 M22.25 0 C37.73 -0.33, 51.75 -0.79, 66.75 0 M66.75 0 C81.14 0.91, 90.73 5.84, 89 22.25 M66.75 0 C83.38 0.48, 91.02 6.96, 89 22.25 M89 22.25 C90.88 29.4, 89.57 39.4, 89 66.75 M89 22.25 C88.71 31.36, 89.34 42.38, 89 66.75 M89 66.75 C89.45 83.52, 83.35 87.9, 66.75 89 M89 66.75 C89.51 80.42, 80.58 91.22, 66.75 89 M66.75 89 C55.21 88.53, 45.72 87.27, 22.25 89 M66.75 89 C56.44 89.01, 44.86 88.6, 22.25 89 M22.25 89 C6.41 87.63, -0.72 82.87, 0 66.75 M22.25 89 C7.46 91.26, -1.11 80.7, 0 66.75 M0 66.75 C-0.57 51.61, -1.79 38.26, 0 22.25 M0 66.75 C-0.5 53.68, 0.67 41.52, 0 22.25 M0 22.25 C-1.67 6.18, 7.56 -0.15, 22.25 0 M0 22.25 C2.28 5.18, 9.68 0.67, 22.25 0" stroke="#1e1e1e" stroke-width="2" fill="none"></path></g><g stroke-linecap="round"><g transform="translate(1552.8740262449942 520.5185367286487) rotate(0 -44.063450214400746 -0.9762000754262772)"><path d="M-1.06 -1.18 C-15.86 -1.51, -73.45 -0.9, -88.37 -0.88 M0.59 0.81 C-14.32 0.64, -73.92 -2.7, -88.72 -2.76" stroke="#1e1e1e" stroke-width="2" fill="none"></path></g><g transform="translate(1552.8740262449942 520.5185367286487) rotate(0 -44.063450214400746 -0.9762000754262772)"><path d="M-64.95 -10.53 C-74.92 -6.2, -80.25 -7.19, -88.72 -2.76 M-64.95 -10.53 C-73.22 -8.75, -80.53 -5.1, -88.72 -2.76" stroke="#1e1e1e" stroke-width="2" fill="none"></path></g><g transform="translate(1552.8740262449942 520.5185367286487) rotate(0 -44.063450214400746 -0.9762000754262772)"><path d="M-65.52 6.57 C-75.45 5.09, -80.58 -1.69, -88.72 -2.76 M-65.52 6.57 C-73.68 2.81, -80.81 0.92, -88.72 -2.76" stroke="#1e1e1e" stroke-width="2" fill="none"></path></g></g><mask></mask><g stroke-linecap="round" transform="translate(1847.7801902006622 487.4417304822573) rotate(0 44.5 44.5)"><path d="M22.25 0 C30.58 -1.17, 43.5 1.37, 66.75 0 C82.01 -0.36, 88.99 7.28, 89 22.25 C87.64 33.52, 91.52 47.97, 89 66.75 C92 79.24, 82.05 86.55, 66.75 89 C48.62 91.81, 37.2 85.5, 22.25 89 C7.28 87.23, -2.14 81.82, 0 66.75 C-3.33 52.15, -0.19 40.5, 0 22.25 C-2.82 8.59, 6.92 3.21, 22.25 0" stroke="none" stroke-width="0" fill="#ffc9c9"></path><path d="M22.25 0 C32.45 -2.14, 41.59 0.43, 66.75 0 M22.25 0 C34.39 0.76, 47.84 -0.48, 66.75 0 M66.75 0 C83.15 0.41, 90.76 7.02, 89 22.25 M66.75 0 C79.4 0.58, 89.19 9.45, 89 22.25 M89 22.25 C87.48 33.1, 87.49 38.76, 89 66.75 M89 22.25 C89.19 33.72, 89.85 42.71, 89 66.75 M89 66.75 C89.44 80.57, 80.71 90.93, 66.75 89 M89 66.75 C87.99 80.1, 80.54 88.84, 66.75 89 M66.75 89 C53.02 86.82, 39.91 90.39, 22.25 89 M66.75 89 C51.55 88.27, 36.99 89.6, 22.25 89 M22.25 89 C7.45 90.97, -0.96 80.82, 0 66.75 M22.25 89 C7.75 89.38, -1.47 81.01, 0 66.75 M0 66.75 C0.21 56.42, 1.6 44.36, 0 22.25 M0 66.75 C-1.18 53.29, -0.27 40.99, 0 22.25 M0 22.25 C1.99 5.47, 9.39 0.58, 22.25 0 M0 22.25 C2.28 5.98, 5.58 0.38, 22.25 0" stroke="#1e1e1e" stroke-width="2" fill="none"></path></g><g stroke-linecap="round"><g transform="translate(1837.4632022937794 529.7047745021166) rotate(0 -91.05308104500773 -2.5517932612952734)"><path d="M-1.03 0.29 C-31.57 -0.69, -151.68 -4.35, -182.05 -5.39 M0.63 -0.61 C-30.12 -1.44, -152.5 -3.25, -182.73 -3.99" stroke="#1e1e1e" stroke-width="2" fill="none"></path></g><g transform="translate(1837.4632022937794 529.7047745021166) rotate(0 -91.05308104500773 -2.5517932612952734)"><path d="M-159.08 -12.09 C-167.91 -8.24, -178.18 -7.12, -182.73 -3.99 M-159.08 -12.09 C-163.72 -10.9, -169.28 -8.02, -182.73 -3.99" stroke="#1e1e1e" stroke-width="2" fill="none"></path></g><g transform="translate(1837.4632022937794 529.7047745021166) rotate(0 -91.05308104500773 -2.5517932612952734)"><path d="M-159.41 5 C-168.18 2.1, -178.31 -3.52, -182.73 -3.99 M-159.41 5 C-163.93 2.24, -169.42 1.15, -182.73 -3.99" stroke="#1e1e1e" stroke-width="2" fill="none"></path></g></g><mask></mask><g transform="translate(1435.1071826004772 438.0615077304103) rotate(0 17.008333206176758 20.69999999999999)"><text x="0" y="33.120703125" font-family="Helvetica, Segoe UI Emoji" font-size="36px" fill="#1e1e1e" text-anchor="start" style="white-space: pre;" direction="ltr" dominant-baseline="alphabetic">B:</text></g><g stroke-linecap="round"><g transform="translate(1891.2310278603695 294.9904363359368) rotate(0 -0.5142251345876048 93.01397935819087)"><path d="M-0.73 -0.82 C-0.86 30.37, -0.56 155.82, -0.27 186.85" stroke="#1e1e1e" stroke-width="2.5" fill="none" stroke-dasharray="8 10"></path></g><g transform="translate(1891.2310278603695 294.9904363359368) rotate(0 -0.5142251345876048 93.01397935819087)"><path d="M-8.94 163.4 C-7.38 171.05, -2.14 181.25, -0.27 186.85" stroke="#1e1e1e" stroke-width="2.5" fill="none"></path></g><g transform="translate(1891.2310278603695 294.9904363359368) rotate(0 -0.5142251345876048 93.01397935819087)"><path d="M8.16 163.31 C3.86 170.88, 3.24 181.12, -0.27 186.85" stroke="#1e1e1e" stroke-width="2.5" fill="none"></path></g></g><mask></mask><g stroke-linecap="round" transform="translate(2028.4281071020118 696.5746020419887) rotate(0 44.5 44.5)"><path d="M22.25 0 C35.44 -3.17, 48.48 -0.62, 66.75 0 C79.15 3.23, 87.31 10.42, 89 22.25 C91.48 32.96, 89.1 41.3, 89 66.75 C91.81 84.6, 78.08 88.86, 66.75 89 C54.12 92.58, 47.9 86.51, 22.25 89 C4.36 89.6, -3.18 78.76, 0 66.75 C-1.08 54.6, -1.01 36.22, 0 22.25 C2.92 10.72, 4.18 1.94, 22.25 0" stroke="none" stroke-width="0" fill="#ffc9c9"></path><path d="M22.25 0 C33.79 1.83, 41.95 1.67, 66.75 0 M22.25 0 C35.57 0.34, 50.88 0.97, 66.75 0 M66.75 0 C79.61 0.46, 87.91 5.8, 89 22.25 M66.75 0 C83.75 -1.85, 87.37 5.95, 89 22.25 M89 22.25 C91.21 37.02, 88.18 48.71, 89 66.75 M89 22.25 C88.37 32.7, 88.35 44.38, 89 66.75 M89 66.75 C88.73 83.36, 80.06 88.03, 66.75 89 M89 66.75 C86.88 80.07, 83.58 89.7, 66.75 89 M66.75 89 C49.94 88.06, 37.16 88.81, 22.25 89 M66.75 89 C49.16 89, 30.65 88.58, 22.25 89 M22.25 89 C6.27 87.28, -0.49 81.41, 0 66.75 M22.25 89 C7.96 90.4, -0.9 81.32, 0 66.75 M0 66.75 C-1.54 50.1, -0.45 35.15, 0 22.25 M0 66.75 C0.55 57.11, -1.24 48.87, 0 22.25 M0 22.25 C-1.23 7.23, 7.89 -1.27, 22.25 0 M0 22.25 C-0.63 7.43, 8.42 0.27, 22.25 0" stroke="#1e1e1e" stroke-width="2" fill="none"></path></g><g stroke-linecap="round"><g transform="translate(2027.4281071020118 733.6716358628535) rotate(0 -64.25372371864455 -74.44730234051988)"><path d="M1.04 -0.95 C-20.43 -25.72, -107.42 -123.47, -129.09 -148.07 M0.12 1.17 C-21.4 -24.03, -107.99 -125.31, -129.54 -150.07" stroke="#1e1e1e" stroke-width="2" fill="none"></path></g><g transform="translate(2027.4281071020118 733.6716358628535) rotate(0 -64.25372371864455 -74.44730234051988)"><path d="M-107.73 -137.85 C-115.43 -139.49, -119.5 -142.69, -129.54 -150.07 M-107.73 -137.85 C-113.64 -140.33, -120.82 -144.41, -129.54 -150.07" stroke="#1e1e1e" stroke-width="2" fill="none"></path></g><g transform="translate(2027.4281071020118 733.6716358628535) rotate(0 -64.25372371864455 -74.44730234051988)"><path d="M-120.69 -126.69 C-124.83 -131.54, -125.3 -137.84, -129.54 -150.07 M-120.69 -126.69 C-122.86 -132.33, -126.41 -139.53, -129.54 -150.07" stroke="#1e1e1e" stroke-width="2" fill="none"></path></g></g><mask></mask><g stroke-linecap="round"><g transform="translate(2067.1155881025793 855.387475697497) rotate(0 0.5680199559330958 -30.026849443193726)"><path d="M0.94 0.25 C0.94 -9.64, 1.4 -50.3, 1.06 -60.3 M-0.03 -0.67 C-0.18 -10.29, 0.47 -49.29, 0.66 -58.89" stroke="#1e1e1e" stroke-width="2" fill="none"></path></g><g transform="translate(2067.1155881025793 855.387475697497) rotate(0 0.5680199559330958 -30.026849443193726)"><path d="M8.8 -35.25 C6.25 -42.56, 2.3 -55.36, 0.66 -58.89 M8.8 -35.25 C5.15 -42.64, 2.94 -51.37, 0.66 -58.89" stroke="#1e1e1e" stroke-width="2" fill="none"></path></g><g transform="translate(2067.1155881025793 855.387475697497) rotate(0 0.5680199559330958 -30.026849443193726)"><path d="M-8.3 -35.55 C-4.24 -42.88, -1.59 -55.56, 0.66 -58.89 M-8.3 -35.55 C-6.39 -42.99, -3.04 -51.63, 0.66 -58.89" stroke="#1e1e1e" stroke-width="2" fill="none"></path></g></g><mask></mask><g transform="translate(2053.5530437705697 876.7000453620834) rotate(0 12.008333206176758 20.69999999999999)"><text x="0" y="33.120703125" font-family="Helvetica, Segoe UI Emoji" font-size="36px" fill="#1e1e1e" text-anchor="start" style="white-space: pre;" direction="ltr" dominant-baseline="alphabetic">X</text></g><g transform="translate(1934.1221121591911 419.0359808545328) rotate(0 68.45833587646484 20.69999999999999)"><text x="0" y="33.120703125" font-family="Helvetica, Segoe UI Emoji" font-size="36px" fill="#1e1e1e" text-anchor="start" style="white-space: pre;" direction="ltr" dominant-baseline="alphabetic">B's main</text></g><g transform="translate(1948.9030020560735 97.87239640712437) rotate(0 67.44999694824219 20.7)"><text x="0" y="33.120703125" font-family="Helvetica, Segoe UI Emoji" font-size="36px" fill="#1e1e1e" text-anchor="start" style="white-space: pre;" direction="ltr" dominant-baseline="alphabetic">A's main</text></g><g stroke-linecap="round"><g transform="translate(1959.9055660241843 142.02359797626298) rotate(0 -20.998828437516522 26.32307817303494)"><path d="M-1.18 0.28 C-8.27 8.81, -35.82 43.58, -42.39 52.24 M0.4 -0.63 C-6.3 8.54, -33.16 44.32, -40.03 53.27" stroke="#1e1e1e" stroke-width="2" fill="none"></path></g><g transform="translate(1959.9055660241843 142.02359797626298) rotate(0 -20.998828437516522 26.32307817303494)"><path d="M-32.66 29.38 C-34.26 35.58, -38.61 45.93, -40.03 53.27 M-32.66 29.38 C-34.53 35.22, -35.84 40.79, -40.03 53.27" stroke="#1e1e1e" stroke-width="2" fill="none"></path></g><g transform="translate(1959.9055660241843 142.02359797626298) rotate(0 -20.998828437516522 26.32307817303494)"><path d="M-19.03 39.71 C-24.93 42.59, -33.48 49.75, -40.03 53.27 M-19.03 39.71 C-23.81 43.19, -28.12 46.5, -40.03 53.27" stroke="#1e1e1e" stroke-width="2" fill="none"></path></g></g><mask></mask><g stroke-linecap="round"><g transform="translate(1950.306382820906 462.42070375743936) rotate(0 -6.944980017018679 11.557935046133935)"><path d="M-0.66 -0.97 C-2.91 2.82, -12.06 19.02, -14.74 23.06 M1.2 1.13 C-1.01 5.02, -12.51 20.25, -15.09 24.09" stroke="#1e1e1e" stroke-width="2" fill="none"></path></g><g transform="translate(1950.306382820906 462.42070375743936) rotate(0 -6.944980017018679 11.557935046133935)"><path d="M-11.22 10.23 C-13.13 14.35, -13.9 14.77, -15.09 24.09 M-11.22 10.23 C-11.98 14.22, -12.42 16.4, -15.09 24.09" stroke="#1e1e1e" stroke-width="2" fill="none"></path></g><g transform="translate(1950.306382820906 462.42070375743936) rotate(0 -6.944980017018679 11.557935046133935)"><path d="M-3.21 15.96 C-6.75 18.89, -9.14 18.15, -15.09 24.09 M-3.21 15.96 C-5.86 18.65, -8.19 19.48, -15.09 24.09" stroke="#1e1e1e" stroke-width="2" fill="none"></path></g></g><mask></mask><g transform="translate(1416.7889926360917 204.70016140725892) rotate(0 15 20.7)"><text x="0" y="33.120703125" font-family="Helvetica, Segoe UI Emoji" font-size="36px" fill="#1e1e1e" text-anchor="start" style="white-space: pre;" direction="ltr" dominant-baseline="alphabetic">...</text></g><g transform="translate(1422.5428570465056 493.84680489841054) rotate(0 15 20.69999999999999)"><text x="0" y="33.120703125" font-family="Helvetica, Segoe UI Emoji" font-size="36px" fill="#1e1e1e" text-anchor="start" style="white-space: pre;" direction="ltr" dominant-baseline="alphabetic">...</text></g><g stroke-linecap="round" transform="translate(2034.074063494742 295.15413752419613) rotate(0 44.5 44.5)"><path d="M22.25 0 C35.45 -3.58, 49.97 -2.1, 66.75 0 C79.68 2.37, 86.86 6.3, 89 22.25 C89.88 37.26, 90.34 45.9, 89 66.75 C85.49 79.51, 80.8 90.14, 66.75 89 C51.1 92.5, 35.99 90.45, 22.25 89 C4.58 87.17, 0.32 82.1, 0 66.75 C-2 51.08, 0.57 36.7, 0 22.25 C-1.07 9.53, 9.02 -0.33, 22.25 0" stroke="none" stroke-width="0" fill="#a5d8ff"></path><path d="M22.25 0 C37.68 0.33, 57.27 -0.51, 66.75 0 M22.25 0 C37.77 -0.07, 52.9 -0.59, 66.75 0 M66.75 0 C80.39 0.13, 90.7 6.55, 89 22.25 M66.75 0 C82.78 2.1, 91.24 7.22, 89 22.25 M89 22.25 C88.57 36.71, 88.82 51.4, 89 66.75 M89 22.25 C88.74 35.01, 88.46 48.99, 89 66.75 M89 66.75 C87.58 80.92, 81.71 88.38, 66.75 89 M89 66.75 C88.59 83.06, 82.69 90.72, 66.75 89 M66.75 89 C52.61 87.47, 40.84 87.04, 22.25 89 M66.75 89 C49.23 89.49, 33.35 89.22, 22.25 89 M22.25 89 C7.69 90.45, -0.75 83.28, 0 66.75 M22.25 89 C8.05 87.85, 0.58 83.67, 0 66.75 M0 66.75 C-1.15 54.98, -1.15 44.96, 0 22.25 M0 66.75 C-0.76 55.46, 0.2 43.48, 0 22.25 M0 22.25 C0.58 6.98, 7.87 -0.24, 22.25 0 M0 22.25 C-0.28 5.46, 6.45 0.97, 22.25 0" stroke="#1e1e1e" stroke-width="2" fill="none"></path></g><g stroke-linecap="round"><g transform="translate(2022.9443247802133 320.95790729314234) rotate(0 -35.73031589953712 -18.574944722524897)"><path d="M0.46 0.39 C-11.56 -5.38, -59.25 -29.47, -70.95 -35.71 M-0.75 -0.45 C-13.04 -6.49, -60.4 -31.59, -71.92 -37.54" stroke="#1e1e1e" stroke-width="2" fill="none"></path></g><g transform="translate(2022.9443247802133 320.95790729314234) rotate(0 -35.73031589953712 -18.574944722524897)"><path d="M-47.14 -34.22 C-56.34 -35.52, -65.97 -34.84, -71.92 -37.54 M-47.14 -34.22 C-53.08 -35.96, -59.39 -35.81, -71.92 -37.54" stroke="#1e1e1e" stroke-width="2" fill="none"></path></g><g transform="translate(2022.9443247802133 320.95790729314234) rotate(0 -35.73031589953712 -18.574944722524897)"><path d="M-55.08 -19.07 C-60.98 -26.45, -67.44 -31.8, -71.92 -37.54 M-55.08 -19.07 C-59.17 -24.34, -63.61 -27.75, -71.92 -37.54" stroke="#1e1e1e" stroke-width="2" fill="none"></path></g></g><mask></mask><g transform="translate(2179.7493213377375 344.0847891838497) rotate(0 12.008333206176758 20.700000000000003)"><text x="0" y="33.120703125" font-family="Helvetica, Segoe UI Emoji" font-size="36px" fill="#1e1e1e" text-anchor="start" style="white-space: pre;" direction="ltr" dominant-baseline="alphabetic">Y</text></g><g stroke-linecap="round"><g transform="translate(2168.037506567928 361.3643880355604) rotate(0 -19.28503410556027 -4.913714637408205)"><path d="M0.53 -0.36 C-5.92 -2.15, -32.15 -8.74, -38.71 -10.47 M0.14 0.65 C-6.37 -1.09, -32.54 -8.03, -39.1 -9.88" stroke="#1e1e1e" stroke-width="2" fill="none"></path></g><g transform="translate(2168.037506567928 361.3643880355604) rotate(0 -19.28503410556027 -4.913714637408205)"><path d="M-19.11 -11.55 C-25.68 -10.81, -31.31 -10.57, -39.1 -9.88 M-19.11 -11.55 C-22.93 -11.4, -27.35 -10.37, -39.1 -9.88" stroke="#1e1e1e" stroke-width="2" fill="none"></path></g><g transform="translate(2168.037506567928 361.3643880355604) rotate(0 -19.28503410556027 -4.913714637408205)"><path d="M-22.71 1.7 C-28.24 -1.51, -32.81 -5.19, -39.1 -9.88 M-22.71 1.7 C-25.73 -0.98, -29.38 -2.76, -39.1 -9.88" stroke="#1e1e1e" stroke-width="2" fill="none"></path></g></g><mask></mask><g stroke-linecap="round"><g transform="translate(2081.7968061866477 394.3473987789233) rotate(0 -0.07331238546657914 145.2876556947289)"><path d="M0.15 -0.75 C0.1 47.69, -0.36 242.59, -0.29 291.32" stroke="#1e1e1e" stroke-width="2.5" fill="none" stroke-dasharray="8 10"></path></g><g transform="translate(2081.7968061866477 394.3473987789233) rotate(0 -0.07331238546657914 145.2876556947289)"><path d="M-8.83 267.82 C-7.36 273.72, -2.29 282.19, -0.29 291.32" stroke="#1e1e1e" stroke-width="2.5" fill="none"></path></g><g transform="translate(2081.7968061866477 394.3473987789233) rotate(0 -0.07331238546657914 145.2876556947289)"><path d="M8.27 267.84 C4.58 273.75, 4.5 282.21, -0.29 291.32" stroke="#1e1e1e" stroke-width="2.5" fill="none"></path></g></g><mask></mask><g stroke-linecap="round" transform="translate(281.79149045791416 1144.7889882133122) rotate(0 44.5 44.5)"><path d="M22.25 0 C36.53 1.38, 57.69 -0.66, 66.75 0 C78.46 1.71, 89.9 8.8, 89 22.25 C89.3 35.72, 90.2 48.76, 89 66.75 C89.89 79.26, 80.41 86.71, 66.75 89 C51.53 88.57, 35.14 91.92, 22.25 89 C7.11 88.29, -1.97 80.27, 0 66.75 C2.24 58.18, 0.31 47.06, 0 22.25 C2.85 6.64, 10.43 -3.11, 22.25 0" stroke="none" stroke-width="0" fill="#a5d8ff"></path><path d="M22.25 0 C32.35 -1.42, 41.36 -1.42, 66.75 0 M22.25 0 C31.75 0.23, 41.58 -0.02, 66.75 0 M66.75 0 C80.63 -0.47, 88.09 8.76, 89 22.25 M66.75 0 C81 -0.71, 90.21 5.4, 89 22.25 M89 22.25 C86.79 38.91, 87.3 54.78, 89 66.75 M89 22.25 C87.71 39.34, 89.61 56.16, 89 66.75 M89 66.75 C87.81 83.24, 81.98 90.34, 66.75 89 M89 66.75 C90.61 79.88, 79.98 89.93, 66.75 89 M66.75 89 C54.38 90.25, 41.59 89.48, 22.25 89 M66.75 89 C54.46 88.89, 43.84 88.29, 22.25 89 M22.25 89 C7.6 87.43, 0.27 80.68, 0 66.75 M22.25 89 C5.4 87.61, -2.27 81.52, 0 66.75 M0 66.75 C-2.25 48.3, -1.69 31.97, 0 22.25 M0 66.75 C0.51 56.64, 0.27 46.95, 0 22.25 M0 22.25 C-1.3 6.65, 8.36 -1.5, 22.25 0 M0 22.25 C0.04 5.7, 7.64 -1.91, 22.25 0" stroke="#1e1e1e" stroke-width="2" fill="none"></path></g><g stroke-linecap="round"><g transform="translate(272.6154063294656 1182.2320115595076) rotate(0 -45.0013669051265 -1.2461386122714089)"><path d="M-1.07 -0.09 C-16 -0.54, -75.74 -2.39, -90.58 -2.4 M0.57 -1.18 C-13.92 -1.54, -73.13 -1.3, -88.43 -1.42" stroke="#1e1e1e" stroke-width="2" fill="none"></path></g><g transform="translate(272.6154063294656 1182.2320115595076) rotate(0 -45.0013669051265 -1.2461386122714089)"><path d="M-64.92 -9.94 C-70.19 -10.07, -76.94 -7.43, -88.43 -1.42 M-64.92 -9.94 C-73.82 -5.96, -84.15 -3.22, -88.43 -1.42" stroke="#1e1e1e" stroke-width="2" fill="none"></path></g><g transform="translate(272.6154063294656 1182.2320115595076) rotate(0 -45.0013669051265 -1.2461386122714089)"><path d="M-64.95 7.17 C-70.25 3.3, -76.99 2.19, -88.43 -1.42 M-64.95 7.17 C-73.84 4.32, -84.16 0.24, -88.43 -1.42" stroke="#1e1e1e" stroke-width="2" fill="none"></path></g></g><mask></mask><g stroke-linecap="round" transform="translate(573.2754346955475 1143.401340902702) rotate(0 44.5 44.5)"><path d="M22.25 0 C33.34 2.01, 51.56 1.69, 66.75 0 C82.36 -0.16, 86.34 7.75, 89 22.25 C90.16 32.23, 88.1 44.57, 89 66.75 C89.63 81.52, 79.12 87.9, 66.75 89 C52.95 89.06, 37.79 88.46, 22.25 89 C5.44 90.06, 1.43 84.06, 0 66.75 C2.73 49.73, 2.89 31.15, 0 22.25 C3.46 7.58, 6.15 2.02, 22.25 0" stroke="none" stroke-width="0" fill="#a5d8ff"></path><path d="M22.25 0 C29.88 -0.62, 43.01 0.54, 66.75 0 M22.25 0 C38.11 -0.42, 54.47 0.48, 66.75 0 M66.75 0 C81.08 -0.62, 90.06 5.66, 89 22.25 M66.75 0 C83.54 -1.91, 90.3 5.3, 89 22.25 M89 22.25 C90.24 33.09, 90.2 44.95, 89 66.75 M89 22.25 C88.82 37.88, 89.61 52.52, 89 66.75 M89 66.75 C90.4 80.1, 80.19 89.81, 66.75 89 M89 66.75 C88.34 80.51, 82.33 88.65, 66.75 89 M66.75 89 C50.28 88.41, 34.87 88.22, 22.25 89 M66.75 89 C53.71 87.93, 40.62 88.26, 22.25 89 M22.25 89 C5.66 87.79, -1.97 81.53, 0 66.75 M22.25 89 C9.43 90.94, -1.77 79.43, 0 66.75 M0 66.75 C-1.32 55.21, -1.52 46.03, 0 22.25 M0 66.75 C-0.69 54.62, 0.44 42.5, 0 22.25 M0 22.25 C0.04 5.93, 7.61 -1.66, 22.25 0 M0 22.25 C1.67 8.8, 5.45 -1.47, 22.25 0" stroke="#1e1e1e" stroke-width="2" fill="none"></path></g><g stroke-linecap="round"><g transform="translate(557.1459277892321 1184.7785935513866) rotate(0 -90.05690287808551 0.575523207724359)"><path d="M-0.61 1.19 C-30.51 1.6, -150.59 1.41, -180.48 1.4 M1.27 0.77 C-28.68 0.93, -151.1 -0.01, -181.39 -0.3" stroke="#1e1e1e" stroke-width="2" fill="none"></path></g><g transform="translate(557.1459277892321 1184.7785935513866) rotate(0 -90.05690287808551 0.575523207724359)"><path d="M-157.83 -8.66 C-160.89 -6.87, -166.49 -4.3, -181.39 -0.3 M-157.83 -8.66 C-166.37 -5.19, -174.23 -3.31, -181.39 -0.3" stroke="#1e1e1e" stroke-width="2" fill="none"></path></g><g transform="translate(557.1459277892321 1184.7785935513866) rotate(0 -90.05690287808551 0.575523207724359)"><path d="M-157.97 8.44 C-160.85 6.62, -166.43 5.59, -181.39 -0.3 M-157.97 8.44 C-166.38 6.07, -174.19 2.1, -181.39 -0.3" stroke="#1e1e1e" stroke-width="2" fill="none"></path></g></g><mask></mask><g transform="translate(157.26724697688417 1056.2916497266406) rotate(0 17.008333206176758 20.69999999999999)"><text x="0" y="33.120703125" font-family="Helvetica, Segoe UI Emoji" font-size="36px" fill="#1e1e1e" text-anchor="start" style="white-space: pre;" direction="ltr" dominant-baseline="alphabetic">A:</text></g><g stroke-linecap="round" transform="translate(290.74592964755936 1430.2365952772566) rotate(0 44.5 44.5)"><path d="M22.25 0 C34.66 0.37, 51.53 1.27, 66.75 0 C79.47 0.89, 86.68 6.24, 89 22.25 C86.68 31.67, 89.26 39.92, 89 66.75 C92.47 81.28, 80.87 87.03, 66.75 89 C56.45 91.71, 45.63 89.78, 22.25 89 C9.54 91.85, -0.78 84.6, 0 66.75 C-2.03 59.27, -2.47 49.71, 0 22.25 C2.56 6.77, 4.36 -2.43, 22.25 0" stroke="none" stroke-width="0" fill="#ffc9c9"></path><path d="M22.25 0 C36.75 -1.17, 49.1 -1.12, 66.75 0 M22.25 0 C39.11 -0.74, 55.76 -0.69, 66.75 0 M66.75 0 C82.71 -1.84, 88.53 6.08, 89 22.25 M66.75 0 C79.59 1.76, 87.31 9.14, 89 22.25 M89 22.25 C89.93 30.12, 90.8 40.76, 89 66.75 M89 22.25 C88.61 38.98, 89.02 54.44, 89 66.75 M89 66.75 C89.65 81.28, 82.69 87.97, 66.75 89 M89 66.75 C89.39 80.82, 80.81 88.69, 66.75 89 M66.75 89 C54.01 89.56, 42.28 89.63, 22.25 89 M66.75 89 C54.42 88.7, 44.94 89.57, 22.25 89 M22.25 89 C5.87 87.13, -1.2 80.27, 0 66.75 M22.25 89 C7.09 87.14, -0.99 79.49, 0 66.75 M0 66.75 C-0.41 50.68, -0.6 38.16, 0 22.25 M0 66.75 C0.09 55.9, 0.72 47.32, 0 22.25 M0 22.25 C-1.71 6.14, 7.8 1.27, 22.25 0 M0 22.25 C-0.86 5.42, 8.51 0.57, 22.25 0" stroke="#1e1e1e" stroke-width="2" fill="none"></path></g><g stroke-linecap="round"><g transform="translate(281.5698455191108 1467.679618623452) rotate(0 -44.977198507025605 -1.2793665852393588)"><path d="M-0.57 -0.28 C-15.68 -0.46, -75.18 -0.3, -90.05 -0.54 M1.33 -1.48 C-14.03 -2.03, -75.94 -2.39, -91.28 -2.24" stroke="#1e1e1e" stroke-width="2" fill="none"></path></g><g transform="translate(281.5698455191108 1467.679618623452) rotate(0 -44.977198507025605 -1.2793665852393588)"><path d="M-67.79 -10.8 C-76.39 -8.84, -82.75 -5.47, -91.28 -2.24 M-67.79 -10.8 C-73.22 -9.53, -79.82 -7.32, -91.28 -2.24" stroke="#1e1e1e" stroke-width="2" fill="none"></path></g><g transform="translate(281.5698455191108 1467.679618623452) rotate(0 -44.977198507025605 -1.2793665852393588)"><path d="M-67.79 6.3 C-76.46 2.32, -82.82 -0.25, -91.28 -2.24 M-67.79 6.3 C-73.3 2.97, -79.91 0.58, -91.28 -2.24" stroke="#1e1e1e" stroke-width="2" fill="none"></path></g></g><mask></mask><g stroke-linecap="round" transform="translate(576.4760094747784 1434.6028123770607) rotate(0 44.5 44.5)"><path d="M22.25 0 C33.9 0.61, 47.45 -1.45, 66.75 0 C79.29 0.63, 88.94 4.96, 89 22.25 C92.49 33.94, 88.31 44.27, 89 66.75 C87.69 79.61, 82.64 90.43, 66.75 89 C52.47 91.98, 33.16 92.13, 22.25 89 C4.3 92.46, 0.16 80.32, 0 66.75 C2.94 50.25, -2.67 32.63, 0 22.25 C-0.09 4.83, 6.8 1.23, 22.25 0" stroke="none" stroke-width="0" fill="#ffc9c9"></path><path d="M22.25 0 C34.82 -0.3, 44.09 1.26, 66.75 0 M22.25 0 C32.26 -0.55, 40.91 -0.3, 66.75 0 M66.75 0 C79.85 1.53, 87.53 8.91, 89 22.25 M66.75 0 C79.37 0.75, 91.15 8.32, 89 22.25 M89 22.25 C90.71 34.36, 87.89 42.26, 89 66.75 M89 22.25 C89.2 37.25, 89.42 52.04, 89 66.75 M89 66.75 C89.34 80.92, 80.91 88.73, 66.75 89 M89 66.75 C88.02 81.47, 83.48 87.51, 66.75 89 M66.75 89 C52.08 87.3, 38 87.09, 22.25 89 M66.75 89 C52.75 88.44, 39.7 88.72, 22.25 89 M22.25 89 C7.14 87.38, -0.86 79.77, 0 66.75 M22.25 89 C8.15 88.17, 0.19 80.92, 0 66.75 M0 66.75 C-1.33 56.33, -1.32 46.04, 0 22.25 M0 66.75 C-1.18 56.45, -0.13 48.06, 0 22.25 M0 22.25 C-0.75 5.68, 8.37 0.5, 22.25 0 M0 22.25 C0.89 7.91, 7.32 -1.7, 22.25 0" stroke="#1e1e1e" stroke-width="2" fill="none"></path></g><g stroke-linecap="round"><g transform="translate(566.1590215678956 1476.8658563969198) rotate(0 -90.40486432985068 -3.273722871070845)"><path d="M-0.3 -0.37 C-30.54 -1.54, -151.72 -5.22, -181.93 -6.18 M1.74 -1.61 C-28.55 -2.73, -151.96 -4.57, -182.55 -5.19" stroke="#1e1e1e" stroke-width="2" fill="none"></path></g><g transform="translate(566.1590215678956 1476.8658563969198) rotate(0 -90.40486432985068 -3.273722871070845)"><path d="M-158.91 -13.33 C-165.5 -10.26, -172.65 -7.54, -182.55 -5.19 M-158.91 -13.33 C-164.22 -12.45, -169.98 -9.25, -182.55 -5.19" stroke="#1e1e1e" stroke-width="2" fill="none"></path></g><g transform="translate(566.1590215678956 1476.8658563969198) rotate(0 -90.40486432985068 -3.273722871070845)"><path d="M-159.21 3.77 C-165.83 2.48, -172.91 0.84, -182.55 -5.19 M-159.21 3.77 C-164.55 0.95, -170.24 0.44, -182.55 -5.19" stroke="#1e1e1e" stroke-width="2" fill="none"></path></g></g><mask></mask><g transform="translate(163.8030018745934 1385.2225896252135) rotate(0 17.008333206176758 20.700000000000045)"><text x="0" y="33.120703125" font-family="Helvetica, Segoe UI Emoji" font-size="36px" fill="#1e1e1e" text-anchor="start" style="white-space: pre;" direction="ltr" dominant-baseline="alphabetic">B:</text></g><g stroke-linecap="round"><g transform="translate(619.9268471344861 1242.1515182307403) rotate(0 0.8486337409933071 92.09943881701884)"><path d="M1.02 -1 C1.03 30.04, 0.89 154.11, 0.68 185.2" stroke="#1e1e1e" stroke-width="2.5" fill="none" stroke-dasharray="8 10"></path></g><g transform="translate(619.9268471344861 1242.1515182307403) rotate(0 0.8486337409933071 92.09943881701884)"><path d="M-7.79 161.68 C-6.67 171.03, -3.86 177.74, 0.68 185.2" stroke="#1e1e1e" stroke-width="2.5" fill="none"></path></g><g transform="translate(619.9268471344861 1242.1515182307403) rotate(0 0.8486337409933071 92.09943881701884)"><path d="M9.31 161.74 C4.39 171.22, 1.17 177.9, 0.68 185.2" stroke="#1e1e1e" stroke-width="2.5" fill="none"></path></g></g><mask></mask><g stroke-linecap="round" transform="translate(757.1239263761285 1643.7356839367922) rotate(0 44.5 44.5)"><path d="M22.25 0 C35.28 0.66, 47.15 4.01, 66.75 0 C81.28 -0.71, 87.03 6.11, 89 22.25 C91.71 35.5, 89.78 46.19, 89 66.75 C91.85 80.8, 84.6 85.89, 66.75 89 C51.14 87.02, 33.46 91.28, 22.25 89 C6.77 85.95, -2.43 81.49, 0 66.75 C0.93 55.67, -0.32 48.14, 0 22.25 C0.2 5.33, 10.79 1.89, 22.25 0" stroke="none" stroke-width="0" fill="#ffc9c9"></path><path d="M22.25 0 C37.54 -0.72, 55.18 -1.99, 66.75 0 M22.25 0 C38.05 -0.01, 56.71 0.06, 66.75 0 M66.75 0 C80.39 1.65, 89.39 8.75, 89 22.25 M66.75 0 C83.2 -1.7, 87.39 8.35, 89 22.25 M89 22.25 C88.49 35.42, 87.76 46.72, 89 66.75 M89 22.25 C88.42 34.07, 89.68 45.33, 89 66.75 M89 66.75 C89.19 80.01, 81.85 88.1, 66.75 89 M89 66.75 C86.98 80.19, 79.32 88.94, 66.75 89 M66.75 89 C47.63 87.46, 30.94 88.38, 22.25 89 M66.75 89 C57.31 88.24, 47.32 88.31, 22.25 89 M22.25 89 C6.11 88.24, 0.95 80.09, 0 66.75 M22.25 89 C7.46 87.28, 0.23 79.68, 0 66.75 M0 66.75 C-1.54 50.56, 1 32.85, 0 22.25 M0 66.75 C0.17 57.47, -0.26 47.03, 0 22.25 M0 22.25 C0.18 6.95, 8.1 -1.17, 22.25 0 M0 22.25 C0.57 5.93, 6.67 -1.47, 22.25 0" stroke="#1e1e1e" stroke-width="2" fill="none"></path></g><g stroke-linecap="round"><g transform="translate(756.1239263761285 1680.8327177576566) rotate(0 -60.33230706830898 -70.94782032043281)"><path d="M-0.28 -0.8 C-20.8 -24.22, -102.11 -118.17, -122.44 -141.65 M1.77 1.39 C-18.44 -22.26, -100 -119.13, -120.27 -143.29" stroke="#1e1e1e" stroke-width="2" fill="none"></path></g><g transform="translate(756.1239263761285 1680.8327177576566) rotate(0 -60.33230706830898 -70.94782032043281)"><path d="M-98.61 -130.81 C-107.55 -137.05, -112.41 -141.23, -120.27 -143.29 M-98.61 -130.81 C-105.67 -135.03, -115.32 -139.27, -120.27 -143.29" stroke="#1e1e1e" stroke-width="2" fill="none"></path></g><g transform="translate(756.1239263761285 1680.8327177576566) rotate(0 -60.33230706830898 -70.94782032043281)"><path d="M-111.7 -119.81 C-115.87 -129.93, -116.06 -138.04, -120.27 -143.29 M-111.7 -119.81 C-113.75 -128.19, -118.49 -136.55, -120.27 -143.29" stroke="#1e1e1e" stroke-width="2" fill="none"></path></g></g><mask></mask><g stroke-linecap="round"><g transform="translate(795.8114073766959 1802.5485575923003) rotate(0 0.15194846936486783 -29.94903406400988)"><path d="M-1.04 0.92 C-1.14 -8.81, -0.86 -49.07, -0.88 -59.17 M0.61 0.36 C0.91 -9.63, 1.28 -50.46, 1.37 -60.82" stroke="#1e1e1e" stroke-width="2" fill="none"></path></g><g transform="translate(795.8114073766959 1802.5485575923003) rotate(0 0.15194846936486783 -29.94903406400988)"><path d="M9.7 -37.25 C9.09 -45.31, 6.74 -52.29, 1.37 -60.82 M9.7 -37.25 C6.12 -44.23, 4.13 -52.23, 1.37 -60.82" stroke="#1e1e1e" stroke-width="2" fill="none"></path></g><g transform="translate(795.8114073766959 1802.5485575923003) rotate(0 0.15194846936486783 -29.94903406400988)"><path d="M-7.4 -37.4 C-3.28 -45.28, -0.9 -52.21, 1.37 -60.82 M-7.4 -37.4 C-5.3 -44.4, -1.59 -52.34, 1.37 -60.82" stroke="#1e1e1e" stroke-width="2" fill="none"></path></g></g><mask></mask><g transform="translate(782.5798720488004 1807.0910932829893) rotate(0 12.008333206176758 20.700000000000045)"><text x="0" y="33.120703125" font-family="Helvetica, Segoe UI Emoji" font-size="36px" fill="#1e1e1e" text-anchor="start" style="white-space: pre;" direction="ltr" dominant-baseline="alphabetic">X</text></g><g transform="translate(677.5988213301902 1045.0334783019275) rotate(0 67.44999694824219 20.69999999999999)"><text x="0" y="33.120703125" font-family="Helvetica, Segoe UI Emoji" font-size="36px" fill="#1e1e1e" text-anchor="start" style="white-space: pre;" direction="ltr" dominant-baseline="alphabetic">A's main</text></g><g stroke-linecap="round"><g transform="translate(688.6013852983009 1089.1846798710662) rotate(0 -20.60656033458389 27.243704695356143)"><path d="M-0.71 0.99 C-7.82 9.92, -34.8 45.46, -41.5 54.02 M1.11 0.47 C-6.23 9.02, -35.27 43.53, -42.33 52.32" stroke="#1e1e1e" stroke-width="2" fill="none"></path></g><g transform="translate(688.6013852983009 1089.1846798710662) rotate(0 -20.60656033458389 27.243704695356143)"><path d="M-33.97 28.76 C-35.51 38.37, -39.11 48.65, -42.33 52.32 M-33.97 28.76 C-36.31 33.65, -37.59 39.29, -42.33 52.32" stroke="#1e1e1e" stroke-width="2" fill="none"></path></g><g transform="translate(688.6013852983009 1089.1846798710662) rotate(0 -20.60656033458389 27.243704695356143)"><path d="M-20.78 39.64 C-27.55 44.9, -36.35 50.89, -42.33 52.32 M-20.78 39.64 C-26.02 42.13, -30.28 45.31, -42.33 52.32" stroke="#1e1e1e" stroke-width="2" fill="none"></path></g></g><mask></mask><g transform="translate(145.48481191020812 1151.8612433020621) rotate(0 15 20.69999999999999)"><text x="0" y="33.120703125" font-family="Helvetica, Segoe UI Emoji" font-size="36px" fill="#1e1e1e" text-anchor="start" style="white-space: pre;" direction="ltr" dominant-baseline="alphabetic">...</text></g><g transform="translate(151.23867632062195 1441.0078867932139) rotate(0 15 20.700000000000045)"><text x="0" y="33.120703125" font-family="Helvetica, Segoe UI Emoji" font-size="36px" fill="#1e1e1e" text-anchor="start" style="white-space: pre;" direction="ltr" dominant-baseline="alphabetic">...</text></g><g stroke-linecap="round" transform="translate(762.7698827688586 1242.3152194189993) rotate(0 44.5 44.5)"><path d="M22.25 0 C39.48 -2.03, 58.42 -2.47, 66.75 0 C83.55 2.56, 88.35 4.36, 89 22.25 C88.36 33.83, 89.77 42.03, 89 66.75 C88.54 83.29, 81.79 86.91, 66.75 89 C52.65 93.3, 32.51 89.99, 22.25 89 C8.82 86.63, -2.88 80.17, 0 66.75 C-1.69 53.69, 3.13 35.24, 0 22.25 C1.21 4.22, 7.87 0.56, 22.25 0" stroke="none" stroke-width="0" fill="#a5d8ff"></path><path d="M22.25 0 C31.56 0.78, 42.43 1.23, 66.75 0 M22.25 0 C32.97 0.01, 43.93 0.1, 66.75 0 M66.75 0 C83.23 -1.29, 89.19 5.85, 89 22.25 M66.75 0 C81.89 -1.04, 86.98 6.02, 89 22.25 M89 22.25 C90.67 29.67, 87.12 38.98, 89 66.75 M89 22.25 C88.51 31.77, 89.26 42.74, 89 66.75 M89 66.75 C89.17 81.01, 80.28 88.24, 66.75 89 M89 66.75 C90.09 79.86, 81.63 87.28, 66.75 89 M66.75 89 C54.16 87.61, 37.89 89.71, 22.25 89 M66.75 89 C51.05 88.86, 34.78 88.83, 22.25 89 M22.25 89 C7.33 87.52, 0.18 81.11, 0 66.75 M22.25 89 C8.21 87.65, 0.57 80.1, 0 66.75 M0 66.75 C0.25 53.48, -0.33 43.01, 0 22.25 M0 66.75 C-0.63 57, -0.79 47.79, 0 22.25 M0 22.25 C0.59 8.21, 8.79 1.3, 22.25 0 M0 22.25 C0.35 8.77, 9.24 -0.5, 22.25 0" stroke="#1e1e1e" stroke-width="2" fill="none"></path></g><g stroke-linecap="round"><g transform="translate(751.6401440543299 1268.1189891879458) rotate(0 -35.22862038518781 -18.526970337213015)"><path d="M0.39 -0.18 C-11.26 -6.23, -58.4 -30.79, -70.25 -36.87 M-0.87 -1.32 C-12.59 -7.18, -59.1 -29.96, -70.85 -35.66" stroke="#1e1e1e" stroke-width="2" fill="none"></path></g><g transform="translate(751.6401440543299 1268.1189891879458) rotate(0 -35.22862038518781 -18.526970337213015)"><path d="M-45.98 -33.04 C-53.02 -32.57, -60.48 -34.04, -70.85 -35.66 M-45.98 -33.04 C-53.03 -33.82, -58.41 -35.12, -70.85 -35.66" stroke="#1e1e1e" stroke-width="2" fill="none"></path></g><g transform="translate(751.6401440543299 1268.1189891879458) rotate(0 -35.22862038518781 -18.526970337213015)"><path d="M-53.48 -17.67 C-58.41 -21.39, -63.85 -27.03, -70.85 -35.66 M-53.48 -17.67 C-58.48 -22.54, -61.86 -27.93, -70.85 -35.66" stroke="#1e1e1e" stroke-width="2" fill="none"></path></g></g><mask></mask><g transform="translate(913.4451406118536 1286.2458710786532) rotate(0 12.008333206176758 20.700000000000045)"><text x="0" y="33.120703125" font-family="Helvetica, Segoe UI Emoji" font-size="36px" fill="#1e1e1e" text-anchor="start" style="white-space: pre;" direction="ltr" dominant-baseline="alphabetic">Y</text></g><g stroke-linecap="round"><g transform="translate(901.7333258420443 1305.658068970084) rotate(0 -22.20507555733809 -4.942701797818586)"><path d="M0.09 -0.18 C-7.29 -1.75, -36.62 -8.12, -43.98 -9.7 M-0.52 -0.75 C-8.02 -2.21, -37.17 -7.65, -44.5 -9.04" stroke="#1e1e1e" stroke-width="2" fill="none"></path></g><g transform="translate(901.7333258420443 1305.658068970084) rotate(0 -22.20507555733809 -4.942701797818586)"><path d="M-22.38 -12.69 C-30.58 -11.71, -38.24 -10.51, -44.5 -9.04 M-22.38 -12.69 C-28.85 -12.08, -35.36 -10.83, -44.5 -9.04" stroke="#1e1e1e" stroke-width="2" fill="none"></path></g><g transform="translate(901.7333258420443 1305.658068970084) rotate(0 -22.20507555733809 -4.942701797818586)"><path d="M-25.21 2.38 C-32.37 -1.99, -39.02 -6.14, -44.5 -9.04 M-25.21 2.38 C-30.91 -1.44, -36.58 -4.65, -44.5 -9.04" stroke="#1e1e1e" stroke-width="2" fill="none"></path></g></g><mask></mask><g stroke-linecap="round"><g transform="translate(810.4926254607639 1341.5084806737268) rotate(0 -1.689944588042124 145.17482878709427)"><path d="M-0.4 -0.16 C-0.93 48.32, -2.8 242.19, -2.98 290.51" stroke="#1e1e1e" stroke-width="2.5" fill="none" stroke-dasharray="8 10"></path></g><g transform="translate(810.4926254607639 1341.5084806737268) rotate(0 -1.689944588042124 145.17482878709427)"><path d="M-11.36 266.96 C-9.05 273.6, -6.22 283.57, -2.98 290.51" stroke="#1e1e1e" stroke-width="2.5" fill="none"></path></g><g transform="translate(810.4926254607639 1341.5084806737268) rotate(0 -1.689944588042124 145.17482878709427)"><path d="M5.74 267.08 C2.63 273.63, 0.04 283.56, -2.98 290.51" stroke="#1e1e1e" stroke-width="2.5" fill="none"></path></g></g><mask></mask><g transform="translate(991.6276839422468 1653.332039291361) rotate(0 68.45833587646484 20.700000000000045)"><text x="0" y="33.120703125" font-family="Helvetica, Segoe UI Emoji" font-size="36px" fill="#1e1e1e" text-anchor="start" style="white-space: pre;" direction="ltr" dominant-baseline="alphabetic">B's main</text></g><g stroke-linecap="round"><g transform="translate(1091.1647527924492 1651.3473163884546) rotate(0 1.9492953760859564 -51.519436364221406)"><path d="M1.2 -1.05 C1.55 -18.23, 1.4 -87.05, 1.44 -104.05 M0.36 1.01 C1.14 -15.97, 2.97 -85.89, 3.53 -103" stroke="#1e1e1e" stroke-width="2" fill="none"></path></g><g transform="translate(1091.1647527924492 1651.3473163884546) rotate(0 1.9492953760859564 -51.519436364221406)"><path d="M11.39 -79.27 C7.94 -86.84, 6.25 -92.53, 3.53 -103 M11.39 -79.27 C7.84 -87.48, 6.88 -93.92, 3.53 -103" stroke="#1e1e1e" stroke-width="2" fill="none"></path></g><g transform="translate(1091.1647527924492 1651.3473163884546) rotate(0 1.9492953760859564 -51.519436364221406)"><path d="M-5.7 -79.77 C-5.05 -87.39, -2.63 -92.96, 3.53 -103 M-5.7 -79.77 C-3.98 -87.99, 0.33 -94.28, 3.53 -103" stroke="#1e1e1e" stroke-width="2" fill="none"></path></g></g><mask></mask><g stroke-linecap="round" transform="translate(1055.5249628162442 1451.4710070944334) rotate(0 44.5 44.5)"><path d="M22.25 0 C38.68 -2.25, 56.46 1.1, 66.75 0 C78.54 -3.34, 87.96 6.16, 89 22.25 C87.94 40.88, 86.12 53.19, 89 66.75 C88.5 81.42, 84.03 90.94, 66.75 89 C50.59 91.84, 33.69 90.13, 22.25 89 C10.01 86.32, 2.18 84.59, 0 66.75 C-2.49 51.4, -0.4 41.27, 0 22.25 C0.69 6.97, 10.54 3, 22.25 0" stroke="none" stroke-width="0" fill="#ffc9c9"></path><path d="M22.25 0 C38.48 -1.51, 57.99 1.83, 66.75 0 M22.25 0 C40.31 0.33, 57.54 1.22, 66.75 0 M66.75 0 C81.44 1.92, 88.08 5.46, 89 22.25 M66.75 0 C83.64 -1.58, 86.98 5.59, 89 22.25 M89 22.25 C88.06 37.43, 89.39 54.8, 89 66.75 M89 22.25 C88.91 38.51, 88.17 52.36, 89 66.75 M89 66.75 C89.13 79.76, 80.77 87.47, 66.75 89 M89 66.75 C86.96 79.88, 81.01 90.83, 66.75 89 M66.75 89 C52.82 90.32, 41.28 88.78, 22.25 89 M66.75 89 C51.79 88.2, 37.32 88.35, 22.25 89 M22.25 89 C6.09 87.57, -0.92 81.06, 0 66.75 M22.25 89 C6.51 87.89, 1.34 79.55, 0 66.75 M0 66.75 C1.24 58.25, -0.24 46.24, 0 22.25 M0 66.75 C0.03 57.33, 0.93 47.52, 0 22.25 M0 22.25 C0.32 8.77, 6.52 -1.88, 22.25 0 M0 22.25 C0.63 6.35, 7.86 -2.19, 22.25 0" stroke="#1e1e1e" stroke-width="2" fill="none"></path></g><g stroke-linecap="round"><g transform="translate(1049.232592685587 1488.7149542186262) rotate(0 -186.5718416388927 -1.5845191152781126)"><path d="M-1.16 0.1 C-63.15 -0.03, -310.75 -1.05, -373.06 -1.74 M0.42 -0.89 C-61.54 -1.25, -311.37 -2.86, -373.57 -3.27" stroke="#1e1e1e" stroke-width="2" fill="none"></path></g><g transform="translate(1049.232592685587 1488.7149542186262) rotate(0 -186.5718416388927 -1.5845191152781126)"><path d="M-350.02 -11.67 C-354.69 -8.8, -357.73 -10.42, -373.57 -3.27 M-350.02 -11.67 C-354.59 -9.19, -359.62 -7.32, -373.57 -3.27" stroke="#1e1e1e" stroke-width="2" fill="none"></path></g><g transform="translate(1049.232592685587 1488.7149542186262) rotate(0 -186.5718416388927 -1.5845191152781126)"><path d="M-350.13 5.43 C-354.64 4.84, -357.67 -0.25, -373.57 -3.27 M-350.13 5.43 C-354.76 4.44, -359.77 2.83, -373.57 -3.27" stroke="#1e1e1e" stroke-width="2" fill="none"></path></g></g><mask></mask><g transform="translate(45.15632008648879 2001.5503134933533) rotate(0 26.066667556762695 35.9417165608063)"><text x="0" y="57.507967343640615" font-family="Helvetica, Segoe UI Emoji" font-size="62.50733314922831px" fill="#e03131" text-anchor="start" style="white-space: pre;" direction="ltr" dominant-baseline="alphabetic">5:</text></g><g stroke-linecap="round" transform="translate(263.8327021366707 2228.0263450663433) rotate(0 44.5 44.5)"><path d="M22.25 0 C34.92 0.39, 50.55 -1.38, 66.75 0 C79.3 -2.34, 85.83 5.69, 89 22.25 C89.15 36.62, 90.7 57.79, 89 66.75 C91.36 81.96, 80.79 88.96, 66.75 89 C54.61 90.6, 48.31 87.36, 22.25 89 C6.52 90.78, -2.44 79.96, 0 66.75 C1.34 54.55, -2.74 41.25, 0 22.25 C-1.47 6.91, 8.54 -2.94, 22.25 0" stroke="none" stroke-width="0" fill="#a5d8ff"></path><path d="M22.25 0 C34.64 1.9, 47.41 -1.12, 66.75 0 M22.25 0 C34.5 -0.7, 47.02 0.05, 66.75 0 M66.75 0 C79.59 -0.36, 90.78 7.42, 89 22.25 M66.75 0 C81.45 1.53, 87.27 6.49, 89 22.25 M89 22.25 C88.38 36.6, 87.76 55.53, 89 66.75 M89 22.25 C88.08 35.72, 88.01 50.77, 89 66.75 M89 66.75 C89.93 83.57, 81.63 90.12, 66.75 89 M89 66.75 C87.42 81.73, 79.69 88.56, 66.75 89 M66.75 89 C48.04 89.4, 31.46 90.16, 22.25 89 M66.75 89 C49.92 89.52, 33.25 88.52, 22.25 89 M22.25 89 C8.89 87.14, 1 81.29, 0 66.75 M22.25 89 C6.12 90.32, 0.13 83.04, 0 66.75 M0 66.75 C-1.52 52.39, 1.06 42.4, 0 22.25 M0 66.75 C0.98 52.14, 0.85 36.84, 0 22.25 M0 22.25 C1 7.53, 8.42 -0.96, 22.25 0 M0 22.25 C-0.08 5.12, 7.35 1.37, 22.25 0" stroke="#1e1e1e" stroke-width="2" fill="none"></path></g><g stroke-linecap="round"><g transform="translate(254.65661800822215 2265.4693684125386) rotate(0 -44.50747318687269 -0.6991042719193956)"><path d="M1.15 0.17 C-13.89 -0.09, -75.25 -1.34, -90.17 -1.56 M0.3 -0.79 C-14.35 -0.86, -73 -0.32, -87.8 -0.14" stroke="#1e1e1e" stroke-width="2" fill="none"></path></g><g transform="translate(254.65661800822215 2265.4693684125386) rotate(0 -44.50747318687269 -0.6991042719193956)"><path d="M-64.4 -8.93 C-71.24 -7.13, -79 -1.41, -87.8 -0.14 M-64.4 -8.93 C-72.11 -6.18, -80.18 -3.71, -87.8 -0.14" stroke="#1e1e1e" stroke-width="2" fill="none"></path></g><g transform="translate(254.65661800822215 2265.4693684125386) rotate(0 -44.50747318687269 -0.6991042719193956)"><path d="M-64.22 8.17 C-71.12 4.77, -78.93 5.29, -87.8 -0.14 M-64.22 8.17 C-71.94 5.52, -80.07 2.6, -87.8 -0.14" stroke="#1e1e1e" stroke-width="2" fill="none"></path></g></g><mask></mask><g stroke-linecap="round" transform="translate(555.316646374304 2226.638697755733) rotate(0 44.5 44.5)"><path d="M22.25 0 C33.95 -2.06, 47.05 -1.45, 66.75 0 C84.71 -2.98, 90.27 8.23, 89 22.25 C91.89 32.45, 88.74 41.86, 89 66.75 C85.83 83.79, 83.16 86.29, 66.75 89 C50.96 90.34, 34.52 86.93, 22.25 89 C7.41 89.49, -2.62 83.03, 0 66.75 C-0.89 51.49, 1.71 34.3, 0 22.25 C-1.37 6.02, 4.2 -0.49, 22.25 0" stroke="none" stroke-width="0" fill="#a5d8ff"></path><path d="M22.25 0 C39.5 2.2, 57.8 -0.34, 66.75 0 M22.25 0 C31.81 -0.23, 44.25 -0.05, 66.75 0 M66.75 0 C81.47 1.33, 87.5 6.61, 89 22.25 M66.75 0 C82.85 1.71, 87.59 6.33, 89 22.25 M89 22.25 C89.14 32.39, 89.8 40.68, 89 66.75 M89 22.25 C89.03 32.27, 88.58 40.87, 89 66.75 M89 66.75 C87.62 81.71, 79.94 88.61, 66.75 89 M89 66.75 C90.93 81.62, 81.66 87.13, 66.75 89 M66.75 89 C54.21 88.13, 39.83 89.65, 22.25 89 M66.75 89 C53.28 87.71, 38.83 88.49, 22.25 89 M22.25 89 C6.29 90.15, 0.11 82.85, 0 66.75 M22.25 89 C7.33 89.34, 2.29 79.91, 0 66.75 M0 66.75 C0.39 54.61, 1.6 46.65, 0 22.25 M0 66.75 C0.26 52.66, 0.26 37.98, 0 22.25 M0 22.25 C-0.07 5.42, 7.36 1.19, 22.25 0 M0 22.25 C0.96 9.46, 7.76 -1.62, 22.25 0" stroke="#1e1e1e" stroke-width="2" fill="none"></path></g><g stroke-linecap="round"><g transform="translate(539.1871394679887 2268.0159504044177) rotate(0 -90.43829911932005 0.10983666032916517)"><path d="M1.17 0.19 C-28.87 0.2, -150.57 -0.25, -180.92 -0.16 M0.33 -0.76 C-29.85 -0.6, -151.68 0.5, -182.05 0.98" stroke="#1e1e1e" stroke-width="2" fill="none"></path></g><g transform="translate(539.1871394679887 2268.0159504044177) rotate(0 -90.43829911932005 0.10983666032916517)"><path d="M-158.66 -7.85 C-164.1 -6.03, -171.39 -3.9, -182.05 0.98 M-158.66 -7.85 C-165.16 -5.13, -173.4 -1.71, -182.05 0.98" stroke="#1e1e1e" stroke-width="2" fill="none"></path></g><g transform="translate(539.1871394679887 2268.0159504044177) rotate(0 -90.43829911932005 0.10983666032916517)"><path d="M-158.46 9.25 C-163.91 6.88, -171.26 4.82, -182.05 0.98 M-158.46 9.25 C-164.85 6.63, -173.16 4.71, -182.05 0.98" stroke="#1e1e1e" stroke-width="2" fill="none"></path></g></g><mask></mask><g transform="translate(139.30845865564095 2139.5290065796717) rotate(0 17.008333206176758 20.700000000000045)"><text x="0" y="33.120703125" font-family="Helvetica, Segoe UI Emoji" font-size="36px" fill="#1e1e1e" text-anchor="start" style="white-space: pre;" direction="ltr" dominant-baseline="alphabetic">A:</text></g><g stroke-linecap="round" transform="translate(272.7871413263159 2513.473952130288) rotate(0 44.5 44.5)"><path d="M22.25 0 C34.73 1.48, 41.82 3.03, 66.75 0 C82.68 2.36, 89.38 6.63, 89 22.25 C89.87 32.84, 89.54 49.27, 89 66.75 C87.01 80.68, 83.36 86.56, 66.75 89 C52.78 90.55, 45.21 86.47, 22.25 89 C8.59 87.53, -0.5 82.71, 0 66.75 C-2.91 56.54, 3.61 45.11, 0 22.25 C-0.3 10, 10.41 2.95, 22.25 0" stroke="none" stroke-width="0" fill="#ffc9c9"></path><path d="M22.25 0 C34.55 -1.86, 46.01 1.91, 66.75 0 M22.25 0 C34.86 -0.7, 49.52 0.45, 66.75 0 M66.75 0 C80.36 -0.95, 87.56 5.85, 89 22.25 M66.75 0 C83.53 0.56, 89 8.74, 89 22.25 M89 22.25 C87.85 32.43, 90.55 40.79, 89 66.75 M89 22.25 C87.87 37.9, 89.53 53.94, 89 66.75 M89 66.75 C89.07 79.95, 81.97 87.87, 66.75 89 M89 66.75 C90.32 83.49, 80.29 90.71, 66.75 89 M66.75 89 C50.89 90.73, 36.42 90.25, 22.25 89 M66.75 89 C54.12 89.89, 41.33 89.4, 22.25 89 M22.25 89 C9.41 87.54, -1.19 82.71, 0 66.75 M22.25 89 C9.71 89.74, -1.65 83.71, 0 66.75 M0 66.75 C-0.76 51.47, 0.03 35.2, 0 22.25 M0 66.75 C-0.01 56.13, 0.43 45.21, 0 22.25 M0 22.25 C0.3 6.01, 7.7 -1.17, 22.25 0 M0 22.25 C-0.81 5.96, 5.92 -2.02, 22.25 0" stroke="#1e1e1e" stroke-width="2" fill="none"></path></g><g stroke-linecap="round"><g transform="translate(263.61105719786735 2550.9169754764835) rotate(0 -44.22361600969336 -0.5834730735984976)"><path d="M-1.19 -0.22 C-15.87 -0.46, -73.71 -1.29, -88.44 -1.34 M0.38 -1.38 C-14.33 -1.43, -73.7 0.38, -88.83 0.2" stroke="#1e1e1e" stroke-width="2" fill="none"></path></g><g transform="translate(263.61105719786735 2550.9169754764835) rotate(0 -44.22361600969336 -0.5834730735984976)"><path d="M-65.44 -8.63 C-72.09 -4.7, -78.03 -4.22, -88.83 0.2 M-65.44 -8.63 C-73.52 -4.75, -83.25 -2.73, -88.83 0.2" stroke="#1e1e1e" stroke-width="2" fill="none"></path></g><g transform="translate(263.61105719786735 2550.9169754764835) rotate(0 -44.22361600969336 -0.5834730735984976)"><path d="M-65.24 8.47 C-71.97 7.79, -77.96 3.66, -88.83 0.2 M-65.24 8.47 C-73.27 6.09, -83.07 1.84, -88.83 0.2" stroke="#1e1e1e" stroke-width="2" fill="none"></path></g></g><mask></mask><g stroke-linecap="round" transform="translate(558.5172211535349 2517.840169230092) rotate(0 44.5 44.5)"><path d="M22.25 0 C37.7 1.83, 51.33 -1.32, 66.75 0 C81.54 -3.17, 91.21 9, 89 22.25 C87.29 31.35, 91.06 39.81, 89 66.75 C87.37 81.57, 82.07 86.38, 66.75 89 C52.79 86.94, 35.97 89.54, 22.25 89 C4.48 87.63, -1.39 78.37, 0 66.75 C-1.04 56.59, 2.26 44.22, 0 22.25 C1.53 5.35, 9.7 1.37, 22.25 0" stroke="none" stroke-width="0" fill="#ffc9c9"></path><path d="M22.25 0 C31.18 -0.51, 41.42 -1.9, 66.75 0 M22.25 0 C33.19 -0.8, 44.64 -1.12, 66.75 0 M66.75 0 C83.28 0.49, 89 8.57, 89 22.25 M66.75 0 C79.46 -2.23, 86.72 6.59, 89 22.25 M89 22.25 C90.56 36.3, 89.57 51.45, 89 66.75 M89 22.25 C89.41 33.92, 89.56 46.66, 89 66.75 M89 66.75 C90.15 83.24, 80.46 90.48, 66.75 89 M89 66.75 C89.46 82.03, 82.9 87.13, 66.75 89 M66.75 89 C49.82 88.09, 34.64 89.33, 22.25 89 M66.75 89 C51.57 88.34, 33.81 89.63, 22.25 89 M22.25 89 C9.41 89.65, -1.43 83.43, 0 66.75 M22.25 89 C8.93 89.41, 1.22 80.8, 0 66.75 M0 66.75 C-0.98 51.11, -2.02 35.55, 0 22.25 M0 66.75 C-0.04 50.05, -0.04 34.17, 0 22.25 M0 22.25 C-0.7 6.15, 6.12 -1.76, 22.25 0 M0 22.25 C-1.11 9.42, 5.51 0.81, 22.25 0" stroke="#1e1e1e" stroke-width="2" fill="none"></path></g><g stroke-linecap="round"><g transform="translate(548.2002332466521 2560.1032132499513) rotate(0 -91.76839405809199 -2.405196168696648)"><path d="M-0.07 0.8 C-30.83 -0.14, -153.16 -4.77, -183.47 -5.61 M-1.57 0.17 C-32.04 -0.6, -151.1 -3.28, -181.23 -4.32" stroke="#1e1e1e" stroke-width="2" fill="none"></path></g><g transform="translate(548.2002332466521 2560.1032132499513) rotate(0 -91.76839405809199 -2.405196168696648)"><path d="M-157.51 -12.22 C-165.41 -10.66, -176.77 -4.99, -181.23 -4.32 M-157.51 -12.22 C-167.15 -10.16, -174.46 -6.18, -181.23 -4.32" stroke="#1e1e1e" stroke-width="2" fill="none"></path></g><g transform="translate(548.2002332466521 2560.1032132499513) rotate(0 -91.76839405809199 -2.405196168696648)"><path d="M-157.98 4.88 C-165.7 -0.22, -176.87 -1.2, -181.23 -4.32 M-157.98 4.88 C-167.35 0.54, -174.47 -1.87, -181.23 -4.32" stroke="#1e1e1e" stroke-width="2" fill="none"></path></g></g><mask></mask><g transform="translate(145.84421355334996 2468.459946478245) rotate(0 17.008333206176758 20.700000000000045)"><text x="0" y="33.120703125" font-family="Helvetica, Segoe UI Emoji" font-size="36px" fill="#1e1e1e" text-anchor="start" style="white-space: pre;" direction="ltr" dominant-baseline="alphabetic">B:</text></g><g stroke-linecap="round"><g transform="translate(601.9680588132427 2325.3888750837714) rotate(0 -0.03678833403154158 93.31154962774576)"><path d="M0.66 0.89 C0.69 31.93, -0.48 154.99, -0.73 185.73" stroke="#1e1e1e" stroke-width="2.5" fill="none" stroke-dasharray="8 10"></path></g><g transform="translate(601.9680588132427 2325.3888750837714) rotate(0 -0.03678833403154158 93.31154962774576)"><path d="M-9.08 162.17 C-5.81 166.2, -6.37 171.28, -0.73 185.73" stroke="#1e1e1e" stroke-width="2.5" fill="none"></path></g><g transform="translate(601.9680588132427 2325.3888750837714) rotate(0 -0.03678833403154158 93.31154962774576)"><path d="M8.02 162.32 C7.44 166.41, 3.04 171.45, -0.73 185.73" stroke="#1e1e1e" stroke-width="2.5" fill="none"></path></g></g><mask></mask><g stroke-linecap="round" transform="translate(739.165138054885 2726.9730407898232) rotate(0 44.5 44.5)"><path d="M22.25 0 C28.97 0.9, 41.53 -2.34, 66.75 0 C80.68 1.78, 86.56 5.79, 89 22.25 C90.55 36.73, 86.47 50.1, 89 66.75 C87.53 81.08, 82.71 86.06, 66.75 89 C54.6 91.59, 41.22 87.98, 22.25 89 C10 92, 2.95 83.11, 0 66.75 C2.16 55.93, 1.35 46.48, 0 22.25 C1.41 6.52, 9.55 -0.38, 22.25 0" stroke="none" stroke-width="0" fill="#fff5f5"></path><path d="M22.25 0 C37.1 -1.17, 52.27 1.96, 66.75 0 M22.25 0 C35.77 -1.23, 50.13 -0.62, 66.75 0 M66.75 0 C82.52 1.98, 89.05 8.54, 89 22.25 M66.75 0 C80 0.15, 87.11 6.97, 89 22.25 M89 22.25 C87.38 39.71, 87.87 57.55, 89 66.75 M89 22.25 C88.95 39.48, 89.32 55.51, 89 66.75 M89 66.75 C90.47 79.72, 82.58 88.7, 66.75 89 M89 66.75 C87.7 82.9, 81.71 90.46, 66.75 89 M66.75 89 C52.12 88.25, 41.53 91.44, 22.25 89 M66.75 89 C52.62 89.59, 37.71 89.07, 22.25 89 M22.25 89 C8.41 89.11, 1 80.62, 0 66.75 M22.25 89 C7.33 86.7, -0.06 82.95, 0 66.75 M0 66.75 C-1.8 51.83, -1.56 35.65, 0 22.25 M0 66.75 C-0.19 57.1, -0.54 46.06, 0 22.25 M0 22.25 C0.45 5.83, 8.73 0.61, 22.25 0 M0 22.25 C1.51 7.66, 6.91 -0.03, 22.25 0" stroke="#fff5f5" stroke-width="2" fill="none"></path></g><g transform="translate(127.5260235889649 2235.0986001550937) rotate(0 15 20.700000000000045)"><text x="0" y="33.120703125" font-family="Helvetica, Segoe UI Emoji" font-size="36px" fill="#1e1e1e" text-anchor="start" style="white-space: pre;" direction="ltr" dominant-baseline="alphabetic">...</text></g><g transform="translate(133.27988799937873 2524.2452436462454) rotate(0 15 20.700000000000045)"><text x="0" y="33.120703125" font-family="Helvetica, Segoe UI Emoji" font-size="36px" fill="#1e1e1e" text-anchor="start" style="white-space: pre;" direction="ltr" dominant-baseline="alphabetic">...</text></g><g stroke-linecap="round" transform="translate(744.8110944476151 2325.552576272031) rotate(0 44.5 44.5)"><path d="M22.25 0 C31.84 1.45, 39.5 -1.04, 66.75 0 C80.19 -3.22, 88.51 10.72, 89 22.25 C91.93 35.82, 90.46 41.42, 89 66.75 C91.28 82.95, 84.25 88.97, 66.75 89 C50.2 91.45, 35.07 86.88, 22.25 89 C8.74 88.65, -0.28 84.89, 0 66.75 C3.94 51.36, 3.96 34.18, 0 22.25 C2.43 7.08, 8.87 3.39, 22.25 0" stroke="none" stroke-width="0" fill="#a5d8ff"></path><path d="M22.25 0 C35.83 -1.34, 48.76 1.98, 66.75 0 M22.25 0 C35.85 -0.2, 49.65 1.19, 66.75 0 M66.75 0 C80.46 1.48, 89.4 7.8, 89 22.25 M66.75 0 C82.9 -1.87, 90.69 5.28, 89 22.25 M89 22.25 C90.08 37.93, 90.2 53.31, 89 66.75 M89 22.25 C88.85 36.82, 90.44 50.58, 89 66.75 M89 66.75 C87.57 83.43, 82.9 89.36, 66.75 89 M89 66.75 C90.22 80.8, 82.73 89.13, 66.75 89 M66.75 89 C49.18 88.93, 36.79 89.82, 22.25 89 M66.75 89 C49.59 88.1, 31.8 88.05, 22.25 89 M22.25 89 C6.12 87.24, -0.96 83.32, 0 66.75 M22.25 89 C5.51 89.81, 0.52 79.76, 0 66.75 M0 66.75 C0.07 50.04, -0.16 32.44, 0 22.25 M0 66.75 C0.15 50.79, -0.75 34.34, 0 22.25 M0 22.25 C0.99 6.06, 6.51 0, 22.25 0 M0 22.25 C0.31 5.74, 8.34 0.73, 22.25 0" stroke="#1e1e1e" stroke-width="2" fill="none"></path></g><g stroke-linecap="round"><g transform="translate(733.6813557330864 2351.3563460409773) rotate(0 -34.81312813639187 -18.233873241276797)"><path d="M-0.99 -0.23 C-12.5 -6.28, -58.25 -30.07, -69.9 -36.24 M0.7 -1.4 C-10.81 -7.25, -58.27 -28.85, -70.32 -34.69" stroke="#1e1e1e" stroke-width="2" fill="none"></path></g><g transform="translate(733.6813557330864 2351.3563460409773) rotate(0 -34.81312813639187 -18.233873241276797)"><path d="M-45.42 -32.46 C-51.56 -31.51, -56.9 -33.63, -70.32 -34.69 M-45.42 -32.46 C-50.29 -32.26, -56.87 -32.84, -70.32 -34.69" stroke="#1e1e1e" stroke-width="2" fill="none"></path></g><g transform="translate(733.6813557330864 2351.3563460409773) rotate(0 -34.81312813639187 -18.233873241276797)"><path d="M-52.68 -16.98 C-57.15 -19.54, -60.82 -25.24, -70.32 -34.69 M-52.68 -16.98 C-55.99 -20.12, -60.98 -24.08, -70.32 -34.69" stroke="#1e1e1e" stroke-width="2" fill="none"></path></g></g><mask></mask><g stroke-linecap="round"><g transform="translate(792.5338371395206 2424.745837526758) rotate(0 -0.7102584403226615 144.804865360951)"><path d="M1.01 0.02 C0.77 48.32, -1.89 241.28, -2.43 289.59" stroke="#1e1e1e" stroke-width="2.5" fill="none" stroke-dasharray="8 10"></path></g><g transform="translate(792.5338371395206 2424.745837526758) rotate(0 -0.7102584403226615 144.804865360951)"><path d="M-10.68 266 C-8.9 271.13, -8.76 276.58, -2.43 289.59" stroke="#1e1e1e" stroke-width="2.5" fill="none"></path></g><g transform="translate(792.5338371395206 2424.745837526758) rotate(0 -0.7102584403226615 144.804865360951)"><path d="M6.42 266.21 C4.48 271.44, 0.89 276.85, -2.43 289.59" stroke="#1e1e1e" stroke-width="2.5" fill="none"></path></g></g><mask></mask><g transform="translate(973.6688956210036 2736.569396144392) rotate(0 68.45833587646484 20.700000000000045)"><text x="0" y="33.120703125" font-family="Helvetica, Segoe UI Emoji" font-size="36px" fill="#1e1e1e" text-anchor="start" style="white-space: pre;" direction="ltr" dominant-baseline="alphabetic">B's main</text></g><g stroke-linecap="round"><g transform="translate(1073.2059644712062 2734.5846732414857) rotate(0 1.091481698456505 -51.07062730673806)"><path d="M0.23 -0.68 C0.77 -17.54, 3.01 -85.19, 3.29 -102.12 M-1.11 1.58 C-0.67 -15.51, 2.39 -86.11, 2.71 -103.72" stroke="#1e1e1e" stroke-width="2" fill="none"></path></g><g transform="translate(1073.2059644712062 2734.5846732414857) rotate(0 1.091481698456505 -51.07062730673806)"><path d="M10.49 -79.96 C7.19 -86.01, 7.62 -95.48, 2.71 -103.72 M10.49 -79.96 C8.1 -89.65, 5.35 -98.66, 2.71 -103.72" stroke="#1e1e1e" stroke-width="2" fill="none"></path></g><g transform="translate(1073.2059644712062 2734.5846732414857) rotate(0 1.091481698456505 -51.07062730673806)"><path d="M-6.6 -80.51 C-4.72 -86.43, 0.89 -95.73, 2.71 -103.72 M-6.6 -80.51 C-2.59 -90.03, 1.05 -98.83, 2.71 -103.72" stroke="#1e1e1e" stroke-width="2" fill="none"></path></g></g><mask></mask><g stroke-linecap="round" transform="translate(1037.5661744950012 2534.708363947465) rotate(0 44.5 44.5)"><path d="M22.25 0 C42.27 3.06, 60.07 1.6, 66.75 0 C79.51 2.28, 90.37 10.08, 89 22.25 C90.82 34.66, 91.55 48.49, 89 66.75 C86.57 82.91, 81.23 88.72, 66.75 89 C50.14 91.98, 33.55 92, 22.25 89 C8.94 91.43, -0.33 83.04, 0 66.75 C1.82 49.38, -3.09 29.75, 0 22.25 C-1.03 10.41, 8.51 1.87, 22.25 0" stroke="none" stroke-width="0" fill="#ffc9c9"></path><path d="M22.25 0 C38.1 -1.38, 52.13 0.14, 66.75 0 M22.25 0 C37.2 -0.57, 51.17 0.21, 66.75 0 M66.75 0 C80.45 1.15, 89.11 8.69, 89 22.25 M66.75 0 C81.49 0.34, 91.29 5.74, 89 22.25 M89 22.25 C89.9 31.53, 91.1 44.98, 89 66.75 M89 22.25 C89.73 36.45, 89.74 50.06, 89 66.75 M89 66.75 C88.93 79.59, 81.53 90.19, 66.75 89 M89 66.75 C89.96 83.62, 81.92 87.38, 66.75 89 M66.75 89 C51.5 87.55, 37.02 87.88, 22.25 89 M66.75 89 C49.76 88.36, 32.97 89.46, 22.25 89 M22.25 89 C8.73 89.21, -0.44 81.56, 0 66.75 M22.25 89 C5.39 90.41, 1.01 79.85, 0 66.75 M0 66.75 C-0.55 52.84, -1.41 36.06, 0 22.25 M0 66.75 C0.34 53.73, -0.79 40.4, 0 22.25 M0 22.25 C-0.82 7.14, 8.04 -1.63, 22.25 0 M0 22.25 C-0.87 6.53, 5.36 -0.31, 22.25 0" stroke="#1e1e1e" stroke-width="2" fill="none"></path></g><g stroke-linecap="round"><g transform="translate(1031.273804364344 2571.9523110716573) rotate(0 -186.65551291307793 -1.8779121692866738)"><path d="M-0.67 0.89 C-63.07 0.28, -311.57 -1.86, -373.66 -2.65 M1.17 0.31 C-61.41 -0.77, -312.02 -4.09, -374.48 -4.65" stroke="#1e1e1e" stroke-width="2" fill="none"></path></g><g transform="translate(1031.273804364344 2571.9523110716573) rotate(0 -186.65551291307793 -1.8779121692866738)"><path d="M-350.9 -12.93 C-357.77 -9.7, -367.3 -6, -374.48 -4.65 M-350.9 -12.93 C-355.5 -11.48, -361.73 -8.95, -374.48 -4.65" stroke="#1e1e1e" stroke-width="2" fill="none"></path></g><g transform="translate(1031.273804364344 2571.9523110716573) rotate(0 -186.65551291307793 -1.8779121692866738)"><path d="M-351.09 4.17 C-358.04 1.29, -367.5 -1.12, -374.48 -4.65 M-351.09 4.17 C-355.78 1.88, -361.96 0.67, -374.48 -4.65" stroke="#1e1e1e" stroke-width="2" fill="none"></path></g></g><mask></mask><g stroke-linecap="round" transform="translate(1172.3760452239012 2229.2006299372492) rotate(0 44.5 44.5)"><path d="M22.25 0 C35.68 0.72, 47.67 -1.84, 66.75 0 C84.51 2.32, 92.43 10.78, 89 22.25 C87.41 34.55, 92.43 48.33, 89 66.75 C92.57 78.51, 78.85 90.2, 66.75 89 C51.3 91.21, 38.32 92.21, 22.25 89 C10.61 92.04, -1.95 85.06, 0 66.75 C0.28 57.34, -1.35 45.18, 0 22.25 C-1.39 6.48, 7.34 -1.12, 22.25 0" stroke="none" stroke-width="0" fill="#a5d8ff"></path><path d="M22.25 0 C35.31 -0.77, 49.29 0.42, 66.75 0 M22.25 0 C32.2 -0.37, 40.29 -0.35, 66.75 0 M66.75 0 C82.2 -0.54, 90.85 8.84, 89 22.25 M66.75 0 C81.98 -0.88, 90.5 6.37, 89 22.25 M89 22.25 C89.14 39.85, 90.99 56.36, 89 66.75 M89 22.25 C89.18 32.43, 89.19 42.4, 89 66.75 M89 66.75 C90.25 79.79, 80.44 88.35, 66.75 89 M89 66.75 C88.46 82.12, 79.56 87.27, 66.75 89 M66.75 89 C49.36 89.58, 31.59 88.78, 22.25 89 M66.75 89 C49.78 88.73, 33.55 89.72, 22.25 89 M22.25 89 C6.84 90.83, 1.69 80.8, 0 66.75 M22.25 89 C6.66 90.18, 1.06 81.75, 0 66.75 M0 66.75 C1.87 54.25, 0.36 41.23, 0 22.25 M0 66.75 C0.86 54.37, -0.06 42.5, 0 22.25 M0 22.25 C1.24 7.89, 7.13 -1.82, 22.25 0 M0 22.25 C0.37 7.61, 6.29 -1.77, 22.25 0" stroke="#1e1e1e" stroke-width="2" fill="none"></path></g><g stroke-linecap="round"><g transform="translate(1158.009123677326 2267.255261070937) rotate(0 -248.85030993524845 -1.6110434476338469)"><path d="M0.08 0.66 C-82.84 0.34, -414.36 -1.57, -497.43 -1.99 M-1.33 -0.03 C-84.32 -0.72, -414.84 -3.24, -497.78 -3.89" stroke="#1e1e1e" stroke-width="2" fill="none"></path></g><g transform="translate(1158.009123677326 2267.255261070937) rotate(0 -248.85030993524845 -1.6110434476338469)"><path d="M-474.23 -12.25 C-480.36 -7.76, -488 -6.7, -497.78 -3.89 M-474.23 -12.25 C-482.55 -9.19, -491.14 -7.21, -497.78 -3.89" stroke="#1e1e1e" stroke-width="2" fill="none"></path></g><g transform="translate(1158.009123677326 2267.255261070937) rotate(0 -248.85030993524845 -1.6110434476338469)"><path d="M-474.36 4.85 C-480.45 4.08, -488.05 -0.12, -497.78 -3.89 M-474.36 4.85 C-482.57 2.01, -491.12 -1.92, -497.78 -3.89" stroke="#1e1e1e" stroke-width="2" fill="none"></path></g></g><mask></mask><g stroke-linecap="round"><g transform="translate(1191.5925259380851 2334.0021563740693) rotate(0 -174.48188710343555 18.88250044399797)"><path d="M0.96 -0.24 C-57.45 6.18, -291.38 32.55, -349.92 39.18 M0 -1.41 C-58.06 4.62, -289.58 30.95, -347.57 37.48" stroke="#1e1e1e" stroke-width="2" fill="none"></path></g><g transform="translate(1191.5925259380851 2334.0021563740693) rotate(0 -174.48188710343555 18.88250044399797)"><path d="M-325.19 26.34 C-333.17 29.17, -339.07 32.37, -347.57 37.48 M-325.19 26.34 C-334.25 30.06, -342.15 36.11, -347.57 37.48" stroke="#1e1e1e" stroke-width="2" fill="none"></path></g><g transform="translate(1191.5925259380851 2334.0021563740693) rotate(0 -174.48188710343555 18.88250044399797)"><path d="M-323.27 43.34 C-332 40.37, -338.55 37.76, -347.57 37.48 M-323.27 43.34 C-333.03 40.33, -341.69 39.63, -347.57 37.48" stroke="#1e1e1e" stroke-width="2" fill="none"></path></g></g><mask></mask><g transform="translate(1196.7515277749562 2083.5718334189323) rotate(0 67.44999694824219 20.700000000000045)"><text x="0" y="33.120703125" font-family="Helvetica, Segoe UI Emoji" font-size="36px" fill="#1e1e1e" text-anchor="start" style="white-space: pre;" direction="ltr" dominant-baseline="alphabetic">A's main</text></g><g stroke-linecap="round"><g transform="translate(1233.6586583885983 2127.723034988071) rotate(0 -3.0602625834269475 45.53128559008678)"><path d="M0.11 -1.12 C-1.01 14.07, -4.73 75.62, -5.89 90.95 M-1.29 0.91 C-2.55 16.26, -5.2 77.02, -6.23 92.18" stroke="#1e1e1e" stroke-width="2" fill="none"></path></g><g transform="translate(1233.6586583885983 2127.723034988071) rotate(0 -3.0602625834269475 45.53128559008678)"><path d="M-13.49 68.26 C-12.68 79.08, -9.08 86.43, -6.23 92.18 M-13.49 68.26 C-10.69 74.1, -10.38 80.3, -6.23 92.18" stroke="#1e1e1e" stroke-width="2" fill="none"></path></g><g transform="translate(1233.6586583885983 2127.723034988071) rotate(0 -3.0602625834269475 45.53128559008678)"><path d="M3.59 69.19 C-1.98 79.68, -4.75 86.68, -6.23 92.18 M3.59 69.19 C2.19 74.9, -1.69 80.86, -6.23 92.18" stroke="#1e1e1e" stroke-width="2" fill="none"></path></g></g><mask></mask><g stroke-linecap="round"><g transform="translate(1203.888099612347 2329.025333843885) rotate(0 -185.4078963410435 196.19519721911843)"><path d="M0.37 -0.16 C-61.68 65.1, -309.1 327.35, -371.19 392.55" stroke="#1e1e1e" stroke-width="2.5" fill="none" stroke-dasharray="8 10"></path></g><g transform="translate(1203.888099612347 2329.025333843885) rotate(0 -185.4078963410435 196.19519721911843)"><path d="M-361.24 369.62 C-365.23 380.26, -367.78 387.62, -371.19 392.55" stroke="#1e1e1e" stroke-width="2.5" fill="none"></path></g><g transform="translate(1203.888099612347 2329.025333843885) rotate(0 -185.4078963410435 196.19519721911843)"><path d="M-348.83 381.38 C-357.78 387.45, -365.2 390.2, -371.19 392.55" stroke="#1e1e1e" stroke-width="2.5" fill="none"></path></g></g><mask></mask><g transform="translate(904.9342510129294 2424.4698769755946) rotate(0 12.008333206176758 20.700000000000045)"><text x="0" y="33.120703125" font-family="Helvetica, Segoe UI Emoji" font-size="36px" fill="#1e1e1e" text-anchor="start" style="white-space: pre;" direction="ltr" dominant-baseline="alphabetic">Y</text></g><g stroke-linecap="round"><g transform="translate(893.2224362431201 2443.8820748670264) rotate(0 -28.860589800394564 -19.13075249399276)"><path d="M0.5 -0.75 C-9.28 -7.47, -47.71 -33.35, -57.66 -39.74 M-0.7 1.48 C-10.66 -5.2, -48.87 -32.23, -58.22 -38.83" stroke="#1e1e1e" stroke-width="2" fill="none"></path></g><g transform="translate(893.2224362431201 2443.8820748670264) rotate(0 -28.860589800394564 -19.13075249399276)"><path d="M-34.1 -32.26 C-44.61 -33.43, -54.58 -38.56, -58.22 -38.83 M-34.1 -32.26 C-41.07 -34.5, -46.72 -35.12, -58.22 -38.83" stroke="#1e1e1e" stroke-width="2" fill="none"></path></g><g transform="translate(893.2224362431201 2443.8820748670264) rotate(0 -28.860589800394564 -19.13075249399276)"><path d="M-43.96 -18.29 C-50.76 -24.85, -56.96 -35.33, -58.22 -38.83 M-43.96 -18.29 C-48.31 -24.08, -51.46 -28.25, -58.22 -38.83" stroke="#1e1e1e" stroke-width="2" fill="none"></path></g></g><mask></mask><g stroke-linecap="round"><g transform="translate(729.3432240597607 2773.3438877722174) rotate(0 -60.43688208096586 -71.49837427052739)"><path d="M0.38 0.89 C-19.67 -22.88, -100.58 -118.21, -120.68 -142.04 M-0.88 0.31 C-20.99 -23.88, -101.34 -119.81, -121.25 -143.88" stroke="#b0b0b0" stroke-width="2" fill="none"></path></g><g transform="translate(729.3432240597607 2773.3438877722174) rotate(0 -60.43688208096586 -71.49837427052739)"><path d="M-99.65 -131.31 C-104 -133.4, -110.36 -136.01, -121.25 -143.88 M-99.65 -131.31 C-106.91 -135.46, -114.71 -140.37, -121.25 -143.88" stroke="#b0b0b0" stroke-width="2" fill="none"></path></g><g transform="translate(729.3432240597607 2773.3438877722174) rotate(0 -60.43688208096586 -71.49837427052739)"><path d="M-112.79 -120.36 C-113.68 -125.42, -116.54 -130.95, -121.25 -143.88 M-112.79 -120.36 C-115.45 -128.2, -118.76 -136.85, -121.25 -143.88" stroke="#b0b0b0" stroke-width="2" fill="none"></path></g></g><mask></mask></svg>