<svg version="1.1" xmlns="http://www.w3.org/2000/svg" viewBox="0 0 292.68333435058594 329.1999999999998" width="292.68333435058594" height="329.1999999999998">
  <!-- svg-source:excalidraw -->
  
  <defs>
    <style class="style-fonts">
      @font-face {
        font-family: "Virgil";
        src: url("https://excalidraw.com/Virgil.woff2");
      }
      @font-face {
        font-family: "Cascadia";
        src: url("https://excalidraw.com/Cascadia.woff2");
      }
      @font-face {
        font-family: "Assistant";
        src: url("https://excalidraw.com/Assistant-Regular.woff2");
      }
    </style>
    
  </defs>
  <g stroke-linecap="round" transform="translate(10 85) rotate(0 26 26.5)"><path d="M13 0 C21.75 0.89, 29.05 -1.57, 39 0 C47.06 -1.81, 50.6 0.86, 52 13 C48.96 22.33, 49.51 29.54, 52 40 C49 47.54, 46.94 55.86, 39 53 C27.34 55.49, 19.81 51.98, 13 53 C2.73 52.23, 1.06 45.21, 0 40 C2.52 36.62, 1.95 29.33, 0 13 C-3.08 6.8, 3.87 -2.5, 13 0" stroke="none" stroke-width="0" fill="#a5d8ff"></path><path d="M13 0 C20.52 -0.34, 28.9 1.23, 39 0 M13 0 C19.45 -0.19, 25.2 -1.1, 39 0 M39 0 C48.96 -1.75, 52.26 2.91, 52 13 M39 0 C47.54 -1.52, 52.09 4.95, 52 13 M52 13 C53.59 20.08, 52.06 29.91, 52 40 M52 13 C51.51 24.03, 51.7 33.96, 52 40 M52 40 C50.95 48.92, 48.34 53.5, 39 53 M52 40 C50.73 49.58, 47.48 53.81, 39 53 M39 53 C29.56 54.88, 22.95 53.18, 13 53 M39 53 C30.08 53.51, 19.7 52.11, 13 53 M13 53 C5.67 54.28, -1.85 48.29, 0 40 M13 53 C4.83 52.8, 1.64 46.66, 0 40 M0 40 C0.87 33.47, -1.32 28.9, 0 13 M0 40 C0.92 30.7, 1.1 21.74, 0 13 M0 13 C0.68 5.74, 2.66 -0.45, 13 0 M0 13 C-0.31 2.74, 6.6 -1.07, 13 0" stroke="#1971c2" stroke-width="2" fill="none"></path></g><g stroke-linecap="round"><g transform="translate(107 111) rotate(0 -18 0)"><path d="M0.44 0.18 C-5.58 0.19, -30.1 -0.11, -36.25 -0.07 M0 -0.2 C-6.09 -0.09, -30.91 0.64, -36.81 0.59" stroke="#1e1e1e" stroke-width="2" fill="none"></path></g><g transform="translate(107 111) rotate(0 -18 0)"><path d="M-19.98 -5.8 C-24.21 -4.42, -29.14 -3.05, -36.81 0.59 M-19.98 -5.8 C-26.44 -3.55, -32.34 -1.51, -36.81 0.59" stroke="#1e1e1e" stroke-width="2" fill="none"></path></g><g transform="translate(107 111) rotate(0 -18 0)"><path d="M-19.81 6.51 C-24.07 4.58, -29.05 2.65, -36.81 0.59 M-19.81 6.51 C-26.3 4.2, -32.27 1.67, -36.81 0.59" stroke="#1e1e1e" stroke-width="2" fill="none"></path></g></g><mask></mask><g stroke-linecap="round" transform="translate(114.2812673917972 84.5) rotate(0 26 26.5)"><path d="M13 0 C17.95 -0.03, 25.86 -2.17, 39 0 C44.96 -1.73, 50.11 5.18, 52 13 C48.81 21.94, 50.85 25.24, 52 40 C54.78 51.82, 50.12 51.41, 39 53 C31.21 49.82, 25.09 52.12, 13 53 C2.46 52.39, 1.31 50.61, 0 40 C-3.61 30.13, 3.23 21.7, 0 13 C3.51 2.33, 2.37 -0.07, 13 0" stroke="none" stroke-width="0" fill="#a5d8ff"></path><path d="M13 0 C19.53 1.16, 23.25 -0.71, 39 0 M13 0 C21.31 0.49, 30.63 -0.59, 39 0 M39 0 C48.35 1.3, 53.01 3.66, 52 13 M39 0 C48.52 -0.15, 52.96 6.03, 52 13 M52 13 C51.91 18.9, 51.57 23.31, 52 40 M52 13 C52.32 21.06, 52.97 27.37, 52 40 M52 40 C51.53 47.1, 45.96 51.07, 39 53 M52 40 C53.22 50.14, 47.53 54.95, 39 53 M39 53 C31.68 51.17, 22.58 52.64, 13 53 M39 53 C31.51 52.9, 22.81 52.75, 13 53 M13 53 C3 51.87, 0.16 47.87, 0 40 M13 53 C4.67 54.77, 1.64 47.87, 0 40 M0 40 C-1.11 31.37, -0.04 18.85, 0 13 M0 40 C-0.35 31.6, -0.51 23.04, 0 13 M0 13 C0.88 3.12, 2.75 -0.98, 13 0 M0 13 C-1.17 5.83, 2.65 -0.46, 13 0" stroke="#1971c2" stroke-width="2" fill="none"></path></g><g stroke-linecap="round"><g transform="translate(211.2812673917972 110.5) rotate(0 -18 0)"><path d="M0.28 -0.12 C-5.71 -0.15, -30.15 0.14, -36.24 0.12 M-0.24 -0.66 C-6.3 -0.89, -30.72 -0.93, -36.79 -0.78" stroke="#1e1e1e" stroke-width="2" fill="none"></path></g><g transform="translate(211.2812673917972 110.5) rotate(0 -18 0)"><path d="M-19.93 -7.09 C-24.18 -5.91, -27.85 -4.36, -36.79 -0.78 M-19.93 -7.09 C-23.91 -5.74, -28.51 -3.5, -36.79 -0.78" stroke="#1e1e1e" stroke-width="2" fill="none"></path></g><g transform="translate(211.2812673917972 110.5) rotate(0 -18 0)"><path d="M-19.82 5.22 C-24.13 3.43, -27.83 2.01, -36.79 -0.78 M-19.82 5.22 C-23.82 3.39, -28.45 2.44, -36.79 -0.78" stroke="#1e1e1e" stroke-width="2" fill="none"></path></g></g><mask></mask><g stroke-linecap="round" transform="translate(217.22099875169806 86.75) rotate(0 26 26.5)"><path d="M13 0 C20.44 0.36, 32.18 2.75, 39 0 C47.22 0.22, 48.78 4.29, 52 13 C52.49 24.24, 53.81 29.76, 52 40 C54.27 50.69, 51.2 54, 39 53 C30.66 51.96, 23 55.44, 13 53 C4.61 52.56, -0.23 47.88, 0 40 C-2.79 33.78, -2.35 24.28, 0 13 C0.5 7.77, 4.59 3.56, 13 0" stroke="none" stroke-width="0" fill="#a5d8ff"></path><path d="M13 0 C22.72 0.73, 30.75 1.5, 39 0 M13 0 C18.25 -0.75, 24 -0.4, 39 0 M39 0 C46.65 -0.31, 51.62 2.98, 52 13 M39 0 C46.76 1.21, 54.04 6.24, 52 13 M52 13 C50.85 18.69, 51.42 29.14, 52 40 M52 13 C51.71 21.34, 51.66 30.73, 52 40 M52 40 C50.93 48.15, 46.9 52.26, 39 53 M52 40 C53.59 50.21, 45.87 52.21, 39 53 M39 53 C29.27 51.48, 20.44 52.36, 13 53 M39 53 C33.73 52.59, 28.62 52.79, 13 53 M13 53 C2.95 53.7, -0.38 49.34, 0 40 M13 53 C5.15 54.27, 0.87 50.53, 0 40 M0 40 C1.46 34.64, -0.03 26.6, 0 13 M0 40 C1.22 33.38, 0.91 24.81, 0 13 M0 13 C1.52 5.17, 2.72 -0.85, 13 0 M0 13 C1.34 3.27, 3.53 1.82, 13 0" stroke="#1971c2" stroke-width="2" fill="none"></path></g><g stroke-linecap="round"><g transform="translate(242.22099875169806 46.75) rotate(0 -0.5 15)"><path d="M0.21 0.31 C0.1 5.18, -0.35 24.56, -0.58 29.58 M-0.34 0 C-0.5 4.89, -0.58 25.13, -0.79 30.07" stroke="#1e1e1e" stroke-width="2" fill="none"></path></g><g transform="translate(242.22099875169806 46.75) rotate(0 -0.5 15)"><path d="M-5.63 15.86 C-3.62 20.94, -3.08 24.65, -0.79 30.07 M-5.63 15.86 C-4.05 21.26, -2.14 26.72, -0.79 30.07" stroke="#1e1e1e" stroke-width="2" fill="none"></path></g><g transform="translate(242.22099875169806 46.75) rotate(0 -0.5 15)"><path d="M4.63 16.07 C3.39 21.1, 0.67 24.75, -0.79 30.07 M4.63 16.07 C2.27 21.36, 0.24 26.74, -0.79 30.07" stroke="#1e1e1e" stroke-width="2" fill="none"></path></g></g><mask></mask><g stroke-linecap="round" transform="translate(218.50226614349526 172.25) rotate(0 26 26.5)"><path d="M13 0 C20.73 -0.16, 26.12 -0.42, 39 0 C47.12 1.34, 52.72 4.64, 52 13 C54.49 25.78, 55.76 35.52, 52 40 C53.64 46.99, 47.51 53.64, 39 53 C32.21 52.88, 24.64 52.53, 13 53 C3.06 51.96, -1.02 45.73, 0 40 C0.84 34.65, 0.59 25.97, 0 13 C-2.88 6.07, 6.89 3.43, 13 0" stroke="none" stroke-width="0" fill="#a5d8ff"></path><path d="M13 0 C20.28 -0.77, 32.29 -1.33, 39 0 M13 0 C18.9 -0.11, 25.63 -0.63, 39 0 M39 0 C46.88 1.05, 53.77 5.99, 52 13 M39 0 C47.06 -1.53, 51.31 3.21, 52 13 M52 13 C52.44 19.73, 50.2 23.81, 52 40 M52 13 C51.34 19.69, 51.49 26.53, 52 40 M52 40 C53.38 50.01, 46.1 52.32, 39 53 M52 40 C54.16 48.62, 48.08 53.59, 39 53 M39 53 C31.38 52.55, 28.73 53.12, 13 53 M39 53 C32 53.25, 26.2 53.24, 13 53 M13 53 C5.04 54.1, 0.75 50.29, 0 40 M13 53 C3.51 53.97, -0.86 50.47, 0 40 M0 40 C-0.64 27.74, -1.63 20.97, 0 13 M0 40 C0.58 30.61, -0.99 19.97, 0 13 M0 13 C1.17 3.41, 3.64 1.58, 13 0 M0 13 C1.3 4.72, 5.09 -1.17, 13 0" stroke="#1971c2" stroke-width="2" fill="none"></path></g><g stroke-linecap="round"><g transform="translate(214.0000000000001 184) rotate(0 -25.222826086956786 -22.75)"><path d="M-0.59 0.48 C-8.78 -6.92, -41.53 -37.13, -49.99 -44.8 M1.31 -0.31 C-6.93 -8.02, -42.33 -39.23, -50.7 -46.55" stroke="#1e1e1e" stroke-width="2" fill="none"></path></g><g transform="translate(214.0000000000001 184) rotate(0 -25.222826086956786 -22.75)"><path d="M-27.41 -37.45 C-31.93 -38.89, -36.9 -43.21, -50.7 -46.55 M-27.41 -37.45 C-33.49 -40.09, -40.58 -43.78, -50.7 -46.55" stroke="#1e1e1e" stroke-width="2" fill="none"></path></g><g transform="translate(214.0000000000001 184) rotate(0 -25.222826086956786 -22.75)"><path d="M-38.71 -24.61 C-40.58 -28.95, -42.96 -36.21, -50.7 -46.55 M-38.71 -24.61 C-41.45 -31.01, -45.18 -38.52, -50.7 -46.55" stroke="#1e1e1e" stroke-width="2" fill="none"></path></g></g><mask></mask><g stroke-linecap="round"><g transform="translate(250 274) rotate(0 0 -20)"><path d="M-0.19 -0.26 C-0.12 -6.9, 0.3 -33.55, 0.29 -40.1 M0.72 0.79 C0.75 -5.74, 0.25 -32.58, 0.01 -39.46" stroke="#1e1e1e" stroke-width="2" fill="none"></path></g><g transform="translate(250 274) rotate(0 0 -20)"><path d="M7.32 -20.84 C4.81 -25.6, 3.03 -31.83, 0.01 -39.46 M7.32 -20.84 C4.61 -27.56, 2.25 -34.37, 0.01 -39.46" stroke="#1e1e1e" stroke-width="2" fill="none"></path></g><g transform="translate(250 274) rotate(0 0 -20)"><path d="M-6.36 -20.5 C-4.99 -25.33, -2.89 -31.66, 0.01 -39.46 M-6.36 -20.5 C-3.97 -27.35, -1.23 -34.29, 0.01 -39.46" stroke="#1e1e1e" stroke-width="2" fill="none"></path></g></g><mask></mask><g transform="translate(233 277.8000000000002) rotate(0 24.84166717529297 20.699999999999818)"><text x="0" y="33.120703125" font-family="Helvetica, Segoe UI Emoji" font-size="36px" fill="#1e1e1e" text-anchor="start" style="white-space: pre;" direction="ltr" dominant-baseline="alphabetic">foo</text></g><g transform="translate(203 10) rotate(0 39.00833511352539 20.699999999999818)"><text x="0" y="33.120703125" font-family="Helvetica, Segoe UI Emoji" font-size="36px" fill="#1e1e1e" text-anchor="start" style="white-space: pre;" direction="ltr" dominant-baseline="alphabetic">main</text></g><g stroke-linecap="round" transform="translate(236 192) rotate(0 6.5 5.5)"><path d="M7.34 0.05 C8.52 0.06, 9.79 0.33, 10.65 1.21 C11.52 2.09, 12.31 4.08, 12.52 5.32 C12.73 6.55, 12.65 7.68, 11.91 8.64 C11.17 9.59, 9.45 10.74, 8.06 11.06 C6.67 11.37, 4.76 10.99, 3.58 10.53 C2.39 10.07, 1.56 9.31, 0.94 8.29 C0.32 7.28, -0.47 5.65, -0.15 4.46 C0.18 3.27, 1.72 1.83, 2.87 1.15 C4.02 0.47, 5.94 0.47, 6.75 0.38 C7.56 0.29, 7.64 0.51, 7.74 0.6 M6.06 0.14 C7.46 0.05, 10.05 0.7, 11.09 1.27 C12.13 1.85, 11.98 2.5, 12.3 3.58 C12.61 4.65, 13.65 6.66, 12.98 7.72 C12.32 8.78, 9.76 9.42, 8.31 9.95 C6.86 10.48, 5.41 11.04, 4.26 10.9 C3.12 10.76, 2.21 10.17, 1.43 9.1 C0.65 8.03, -0.58 5.77, -0.41 4.48 C-0.24 3.2, 1.31 2.28, 2.46 1.41 C3.6 0.54, 5.96 -0.54, 6.47 -0.73 C6.99 -0.92, 5.62 0.11, 5.56 0.29" stroke="none" stroke-width="0" fill="#ffc9c9"></path><path d="M6.12 0.2 C7.39 0.13, 9.04 0.72, 10.21 1.4 C11.39 2.08, 12.8 3.2, 13.16 4.3 C13.52 5.39, 13.11 6.91, 12.37 7.99 C11.63 9.07, 9.98 10.33, 8.72 10.79 C7.47 11.25, 6.19 11.07, 4.83 10.74 C3.47 10.41, 1.3 9.83, 0.57 8.83 C-0.15 7.83, 0.2 6.04, 0.46 4.75 C0.73 3.45, 1.29 1.84, 2.19 1.06 C3.09 0.29, 5.24 0.29, 5.89 0.1 C6.55 -0.1, 5.96 -0.23, 6.11 -0.09 M6.36 -0.35 C7.48 -0.49, 8.59 -0.14, 9.71 0.6 C10.83 1.33, 12.55 2.83, 13.09 4.06 C13.63 5.29, 13.6 6.88, 12.95 7.98 C12.3 9.09, 10.57 10.23, 9.2 10.69 C7.83 11.15, 6.05 10.95, 4.72 10.74 C3.39 10.52, 1.87 10.32, 1.2 9.42 C0.52 8.52, 0.66 6.6, 0.67 5.35 C0.68 4.11, 0.47 2.91, 1.27 1.95 C2.08 1, 4.82 -0.15, 5.5 -0.36 C6.18 -0.58, 5.21 0.44, 5.35 0.68" stroke="#e03131" stroke-width="2" fill="none"></path></g></svg>