<svg version="1.1" xmlns="http://www.w3.org/2000/svg" viewBox="0 0 486.0166702270508 322.1999999999998" width="972.0333404541016" height="644.3999999999996">
  <!-- svg-source:excalidraw -->
  
  <defs>
    <style class="style-fonts">
      @font-face {
        font-family: "Virgil";
        src: url("https://excalidraw.com/Virgil.woff2");
      }
      @font-face {
        font-family: "Cascadia";
        src: url("https://excalidraw.com/Cascadia.woff2");
      }
      @font-face {
        font-family: "Assistant";
        src: url("https://excalidraw.com/Assistant-Regular.woff2");
      }
    </style>
    
  </defs>
  <g stroke-linecap="round" transform="translate(10 80) rotate(0 26 26.5)"><path d="M13 0 C21.75 0.89, 29.05 -1.57, 39 0 C47.06 -1.81, 50.6 0.86, 52 13 C48.96 22.33, 49.51 29.54, 52 40 C49 47.54, 46.94 55.86, 39 53 C27.34 55.49, 19.81 51.98, 13 53 C2.73 52.23, 1.06 45.21, 0 40 C2.52 36.62, 1.95 29.33, 0 13 C-3.08 6.8, 3.87 -2.5, 13 0" stroke="none" stroke-width="0" fill="#a5d8ff"></path><path d="M13 0 C20.52 -0.34, 28.9 1.23, 39 0 M13 0 C19.45 -0.19, 25.2 -1.1, 39 0 M39 0 C48.96 -1.75, 52.26 2.91, 52 13 M39 0 C47.54 -1.52, 52.09 4.95, 52 13 M52 13 C53.59 20.08, 52.06 29.91, 52 40 M52 13 C51.51 24.03, 51.7 33.96, 52 40 M52 40 C50.95 48.92, 48.34 53.5, 39 53 M52 40 C50.73 49.58, 47.48 53.81, 39 53 M39 53 C29.56 54.88, 22.95 53.18, 13 53 M39 53 C30.08 53.51, 19.7 52.11, 13 53 M13 53 C5.67 54.28, -1.85 48.29, 0 40 M13 53 C4.83 52.8, 1.64 46.66, 0 40 M0 40 C0.87 33.47, -1.32 28.9, 0 13 M0 40 C0.92 30.7, 1.1 21.74, 0 13 M0 13 C0.68 5.74, 2.66 -0.45, 13 0 M0 13 C-0.31 2.74, 6.6 -1.07, 13 0" stroke="#1971c2" stroke-width="2" fill="none"></path></g><g stroke-linecap="round"><g transform="translate(107 106) rotate(0 -18 0)"><path d="M0.44 0.18 C-5.58 0.19, -30.1 -0.11, -36.25 -0.07 M0 -0.2 C-6.09 -0.09, -30.91 0.64, -36.81 0.59" stroke="#1e1e1e" stroke-width="2" fill="none"></path></g><g transform="translate(107 106) rotate(0 -18 0)"><path d="M-19.98 -5.8 C-24.21 -4.42, -29.14 -3.05, -36.81 0.59 M-19.98 -5.8 C-26.44 -3.55, -32.34 -1.51, -36.81 0.59" stroke="#1e1e1e" stroke-width="2" fill="none"></path></g><g transform="translate(107 106) rotate(0 -18 0)"><path d="M-19.81 6.51 C-24.07 4.58, -29.05 2.65, -36.81 0.59 M-19.81 6.51 C-26.3 4.2, -32.27 1.67, -36.81 0.59" stroke="#1e1e1e" stroke-width="2" fill="none"></path></g></g><mask></mask><g stroke-linecap="round" transform="translate(114.2812673917972 79.5) rotate(0 26 26.5)"><path d="M13 0 C17.95 -0.03, 25.86 -2.17, 39 0 C44.96 -1.73, 50.11 5.18, 52 13 C48.81 21.94, 50.85 25.24, 52 40 C54.78 51.82, 50.12 51.41, 39 53 C31.21 49.82, 25.09 52.12, 13 53 C2.46 52.39, 1.31 50.61, 0 40 C-3.61 30.13, 3.23 21.7, 0 13 C3.51 2.33, 2.37 -0.07, 13 0" stroke="none" stroke-width="0" fill="#a5d8ff"></path><path d="M13 0 C19.53 1.16, 23.25 -0.71, 39 0 M13 0 C21.31 0.49, 30.63 -0.59, 39 0 M39 0 C48.35 1.3, 53.01 3.66, 52 13 M39 0 C48.52 -0.15, 52.96 6.03, 52 13 M52 13 C51.91 18.9, 51.57 23.31, 52 40 M52 13 C52.32 21.06, 52.97 27.37, 52 40 M52 40 C51.53 47.1, 45.96 51.07, 39 53 M52 40 C53.22 50.14, 47.53 54.95, 39 53 M39 53 C31.68 51.17, 22.58 52.64, 13 53 M39 53 C31.51 52.9, 22.81 52.75, 13 53 M13 53 C3 51.87, 0.16 47.87, 0 40 M13 53 C4.67 54.77, 1.64 47.87, 0 40 M0 40 C-1.11 31.37, -0.04 18.85, 0 13 M0 40 C-0.35 31.6, -0.51 23.04, 0 13 M0 13 C0.88 3.12, 2.75 -0.98, 13 0 M0 13 C-1.17 5.83, 2.65 -0.46, 13 0" stroke="#1971c2" stroke-width="2" fill="none"></path></g><g stroke-linecap="round"><g transform="translate(211.2812673917972 105.5) rotate(0 -18 0)"><path d="M0.28 -0.12 C-5.71 -0.15, -30.15 0.14, -36.24 0.12 M-0.24 -0.66 C-6.3 -0.89, -30.72 -0.93, -36.79 -0.78" stroke="#1e1e1e" stroke-width="2" fill="none"></path></g><g transform="translate(211.2812673917972 105.5) rotate(0 -18 0)"><path d="M-19.93 -7.09 C-24.18 -5.91, -27.85 -4.36, -36.79 -0.78 M-19.93 -7.09 C-23.91 -5.74, -28.51 -3.5, -36.79 -0.78" stroke="#1e1e1e" stroke-width="2" fill="none"></path></g><g transform="translate(211.2812673917972 105.5) rotate(0 -18 0)"><path d="M-19.82 5.22 C-24.13 3.43, -27.83 2.01, -36.79 -0.78 M-19.82 5.22 C-23.82 3.39, -28.45 2.44, -36.79 -0.78" stroke="#1e1e1e" stroke-width="2" fill="none"></path></g></g><mask></mask><g stroke-linecap="round" transform="translate(217.22099875169806 81.75) rotate(0 26 26.5)"><path d="M13 0 C20.44 0.36, 32.18 2.75, 39 0 C47.22 0.22, 48.78 4.29, 52 13 C52.49 24.24, 53.81 29.76, 52 40 C54.27 50.69, 51.2 54, 39 53 C30.66 51.96, 23 55.44, 13 53 C4.61 52.56, -0.23 47.88, 0 40 C-2.79 33.78, -2.35 24.28, 0 13 C0.5 7.77, 4.59 3.56, 13 0" stroke="none" stroke-width="0" fill="#a5d8ff"></path><path d="M13 0 C22.72 0.73, 30.75 1.5, 39 0 M13 0 C18.25 -0.75, 24 -0.4, 39 0 M39 0 C46.65 -0.31, 51.62 2.98, 52 13 M39 0 C46.76 1.21, 54.04 6.24, 52 13 M52 13 C50.85 18.69, 51.42 29.14, 52 40 M52 13 C51.71 21.34, 51.66 30.73, 52 40 M52 40 C50.93 48.15, 46.9 52.26, 39 53 M52 40 C53.59 50.21, 45.87 52.21, 39 53 M39 53 C29.27 51.48, 20.44 52.36, 13 53 M39 53 C33.73 52.59, 28.62 52.79, 13 53 M13 53 C2.95 53.7, -0.38 49.34, 0 40 M13 53 C5.15 54.27, 0.87 50.53, 0 40 M0 40 C1.46 34.64, -0.03 26.6, 0 13 M0 40 C1.22 33.38, 0.91 24.81, 0 13 M0 13 C1.52 5.17, 2.72 -0.85, 13 0 M0 13 C1.34 3.27, 3.53 1.82, 13 0" stroke="#1971c2" stroke-width="2" fill="none"></path></g><g stroke-linecap="round"><g transform="translate(437.22099875169806 46.75) rotate(0 -0.5 15)"><path d="M0.21 0.31 C0.1 5.18, -0.35 24.56, -0.58 29.58 M-0.34 0 C-0.5 4.89, -0.58 25.13, -0.79 30.07" stroke="#1e1e1e" stroke-width="2" fill="none"></path></g><g transform="translate(437.22099875169806 46.75) rotate(0 -0.5 15)"><path d="M-5.63 15.86 C-3.62 20.94, -3.08 24.65, -0.79 30.07 M-5.63 15.86 C-4.05 21.26, -2.14 26.72, -0.79 30.07" stroke="#1e1e1e" stroke-width="2" fill="none"></path></g><g transform="translate(437.22099875169806 46.75) rotate(0 -0.5 15)"><path d="M4.63 16.07 C3.39 21.1, 0.67 24.75, -0.79 30.07 M4.63 16.07 C2.27 21.36, 0.24 26.74, -0.79 30.07" stroke="#1e1e1e" stroke-width="2" fill="none"></path></g></g><mask></mask><g stroke-linecap="round" transform="translate(218.50226614349526 167.25) rotate(0 26 26.5)"><path d="M13 0 C20.73 -0.16, 26.12 -0.42, 39 0 C47.12 1.34, 52.72 4.64, 52 13 C54.49 25.78, 55.76 35.52, 52 40 C53.64 46.99, 47.51 53.64, 39 53 C32.21 52.88, 24.64 52.53, 13 53 C3.06 51.96, -1.02 45.73, 0 40 C0.84 34.65, 0.59 25.97, 0 13 C-2.88 6.07, 6.89 3.43, 13 0" stroke="none" stroke-width="0" fill="#a5d8ff"></path><path d="M13 0 C20.28 -0.77, 32.29 -1.33, 39 0 M13 0 C18.9 -0.11, 25.63 -0.63, 39 0 M39 0 C46.88 1.05, 53.77 5.99, 52 13 M39 0 C47.06 -1.53, 51.31 3.21, 52 13 M52 13 C52.44 19.73, 50.2 23.81, 52 40 M52 13 C51.34 19.69, 51.49 26.53, 52 40 M52 40 C53.38 50.01, 46.1 52.32, 39 53 M52 40 C54.16 48.62, 48.08 53.59, 39 53 M39 53 C31.38 52.55, 28.73 53.12, 13 53 M39 53 C32 53.25, 26.2 53.24, 13 53 M13 53 C5.04 54.1, 0.75 50.29, 0 40 M13 53 C3.51 53.97, -0.86 50.47, 0 40 M0 40 C-0.64 27.74, -1.63 20.97, 0 13 M0 40 C0.58 30.61, -0.99 19.97, 0 13 M0 13 C1.17 3.41, 3.64 1.58, 13 0 M0 13 C1.3 4.72, 5.09 -1.17, 13 0" stroke="#1971c2" stroke-width="2" fill="none"></path></g><g stroke-linecap="round"><g transform="translate(214 179) rotate(0 -25.5 -23)"><path d="M-0.59 0.48 C-8.87 -7, -41.99 -37.54, -50.54 -45.3 M1.31 -0.31 C-7.02 -8.1, -42.79 -39.65, -51.25 -47.05" stroke="#1e1e1e" stroke-width="2" fill="none"></path></g><g transform="translate(214 179) rotate(0 -25.5 -23)"><path d="M-27.97 -37.95 C-32.48 -39.39, -37.46 -43.7, -51.25 -47.05 M-27.97 -37.95 C-34.05 -40.58, -41.13 -44.28, -51.25 -47.05" stroke="#1e1e1e" stroke-width="2" fill="none"></path></g><g transform="translate(214 179) rotate(0 -25.5 -23)"><path d="M-39.26 -25.11 C-41.14 -29.45, -43.52 -36.71, -51.25 -47.05 M-39.26 -25.11 C-42 -31.51, -45.74 -39.02, -51.25 -47.05" stroke="#1e1e1e" stroke-width="2" fill="none"></path></g></g><mask></mask><g stroke-linecap="round"><g transform="translate(250 269) rotate(0 0 -20)"><path d="M-0.19 -0.26 C-0.12 -6.9, 0.3 -33.55, 0.29 -40.1 M0.72 0.79 C0.75 -5.74, 0.25 -32.58, 0.01 -39.46" stroke="#1e1e1e" stroke-width="2" fill="none"></path></g><g transform="translate(250 269) rotate(0 0 -20)"><path d="M7.32 -20.84 C4.81 -25.6, 3.03 -31.83, 0.01 -39.46 M7.32 -20.84 C4.61 -27.56, 2.25 -34.37, 0.01 -39.46" stroke="#1e1e1e" stroke-width="2" fill="none"></path></g><g transform="translate(250 269) rotate(0 0 -20)"><path d="M-6.36 -20.5 C-4.99 -25.33, -2.89 -31.66, 0.01 -39.46 M-6.36 -20.5 C-3.97 -27.35, -1.23 -34.29, 0.01 -39.46" stroke="#1e1e1e" stroke-width="2" fill="none"></path></g></g><mask></mask><g transform="translate(233 270.8000000000002) rotate(0 24.84166717529297 20.699999999999818)"><text x="0" y="33.120703125" font-family="Helvetica, Segoe UI Emoji" font-size="36px" fill="#1e1e1e" text-anchor="start" style="white-space: pre;" direction="ltr" dominant-baseline="alphabetic">foo</text></g><g transform="translate(398 10) rotate(0 39.00833511352539 20.699999999999818)"><text x="0" y="33.120703125" font-family="Helvetica, Segoe UI Emoji" font-size="36px" fill="#1e1e1e" text-anchor="start" style="white-space: pre;" direction="ltr" dominant-baseline="alphabetic">main</text></g><g stroke-linecap="round"><g transform="translate(318 109) rotate(0 -25 0.5)"><path d="M-0.7 -0.6 C-9.06 -0.59, -41.33 1.11, -49.66 1.25 M1.13 1.69 C-7.4 1.83, -41.61 -0.65, -50.43 -0.74" stroke="#1e1e1e" stroke-width="2" fill="none"></path></g><g transform="translate(318 109) rotate(0 -25 0.5)"><path d="M-26.59 -8.25 C-35.61 -5.27, -42.28 -4.43, -50.43 -0.74 M-26.59 -8.25 C-32.33 -6.8, -37.99 -4.24, -50.43 -0.74" stroke="#1e1e1e" stroke-width="2" fill="none"></path></g><g transform="translate(318 109) rotate(0 -25 0.5)"><path d="M-27.34 8.84 C-36.28 6.02, -42.69 1.06, -50.43 -0.74 M-27.34 8.84 C-32.86 6.22, -38.34 4.72, -50.43 -0.74" stroke="#1e1e1e" stroke-width="2" fill="none"></path></g></g><mask></mask><g transform="translate(332 92) rotate(0 15 20.699999999999818)"><text x="0" y="33.120703125" font-family="Helvetica, Segoe UI Emoji" font-size="36px" fill="#1e1e1e" text-anchor="start" style="white-space: pre;" direction="ltr" dominant-baseline="alphabetic">...</text></g><g stroke-linecap="round"><g transform="translate(405.4242566655728 109.25) rotate(0 -18 0)"><path d="M0.47 -0.4 C-5.57 -0.39, -29.57 0, -35.7 0.09 M0.04 0.59 C-6.08 0.42, -29.84 -0.86, -35.98 -0.83" stroke="#1e1e1e" stroke-width="2" fill="none"></path></g><g transform="translate(405.4242566655728 109.25) rotate(0 -18 0)"><path d="M-18.9 -6.51 C-26.28 -3.71, -32.22 -2.44, -35.98 -0.83 M-18.9 -6.51 C-24.46 -4.71, -30.08 -2.76, -35.98 -0.83" stroke="#1e1e1e" stroke-width="2" fill="none"></path></g><g transform="translate(405.4242566655728 109.25) rotate(0 -18 0)"><path d="M-19.24 5.79 C-26.49 3.74, -32.3 0.16, -35.98 -0.83 M-19.24 5.79 C-24.63 3.63, -30.14 1.61, -35.98 -0.83" stroke="#1e1e1e" stroke-width="2" fill="none"></path></g></g><mask></mask><g stroke-linecap="round" transform="translate(411.36398802547365 85.5) rotate(0 26 26.5)"><path d="M13 0 C21.59 -2.88, 30.79 -0.15, 39 0 C44.72 -0.77, 52.32 5.24, 52 13 C55.32 19.21, 48.98 26.94, 52 40 C55.43 51.48, 50.27 54.86, 39 53 C32.27 56.02, 23.7 56.54, 13 53 C6.41 55.49, -3.38 48.63, 0 40 C0.91 29.26, 3.43 25.12, 0 13 C-2.42 2.07, 2.19 -0.28, 13 0" stroke="none" stroke-width="0" fill="#a5d8ff"></path><path d="M13 0 C23.34 -1.21, 33.48 -2.09, 39 0 M13 0 C22.63 0.09, 32.64 0.32, 39 0 M39 0 C46.03 -1.02, 51.43 3.76, 52 13 M39 0 C46.3 1.25, 51.66 3.93, 52 13 M52 13 C52.06 20.83, 50.76 26.44, 52 40 M52 13 C51.93 19.79, 52.2 24.59, 52 40 M52 40 C52.26 48.96, 46.04 52.38, 39 53 M52 40 C53.25 49.28, 47.55 51.85, 39 53 M39 53 C32.55 52, 25.46 54.88, 13 53 M39 53 C32.76 53.59, 28.18 53.04, 13 53 M13 53 C4.55 52.61, 0.54 48.39, 0 40 M13 53 C3.02 51, -0.32 50.15, 0 40 M0 40 C0.42 34.43, -0.27 27.12, 0 13 M0 40 C0.25 31.29, 0.17 22.46, 0 13 M0 13 C1.43 5.42, 4.84 -1.9, 13 0 M0 13 C-1.94 5.69, 5.72 -1.76, 13 0" stroke="#1971c2" stroke-width="2" fill="none"></path></g><g stroke-linecap="round" transform="translate(234.2959587306318 188.3908948705166) rotate(0 7.7882137764857475 7.080194342259347)"><path d="M7.4 -0.41 C8.93 -0.54, 11.2 0.54, 12.5 1.49 C13.81 2.45, 14.86 3.82, 15.24 5.31 C15.63 6.8, 15.63 9, 14.82 10.44 C14.01 11.88, 11.99 13.39, 10.37 13.95 C8.75 14.51, 6.55 14.33, 5.09 13.82 C3.64 13.3, 2.45 12.16, 1.63 10.86 C0.82 9.56, -0.01 7.51, 0.22 6 C0.44 4.49, 1.8 2.85, 3.01 1.79 C4.22 0.72, 6.6 -0.19, 7.48 -0.4 C8.35 -0.6, 8.12 0.44, 8.24 0.56 M6.67 0.46 C8.17 -0.11, 9.86 0.06, 11.17 0.62 C12.48 1.19, 13.91 2.3, 14.53 3.82 C15.16 5.35, 15.38 8.18, 14.9 9.78 C14.42 11.37, 12.92 12.73, 11.68 13.39 C10.43 14.06, 9.12 13.93, 7.44 13.76 C5.76 13.6, 2.82 13.37, 1.58 12.41 C0.34 11.45, 0.12 9.68, 0 7.99 C-0.12 6.29, -0.21 3.41, 0.88 2.23 C1.97 1.04, 5.8 1.13, 6.56 0.88 C7.31 0.63, 5.56 0.62, 5.41 0.73" stroke="none" stroke-width="0" fill="#ffc9c9"></path><path d="M7.28 -0.33 C9.01 -0.31, 11.79 0.9, 13.15 1.96 C14.51 3.03, 15.15 4.68, 15.45 6.06 C15.75 7.44, 15.78 9.03, 14.95 10.24 C14.13 11.45, 12.15 12.71, 10.51 13.32 C8.88 13.94, 6.65 14.42, 5.14 13.93 C3.62 13.45, 2.34 11.72, 1.42 10.41 C0.5 9.1, -0.66 7.52, -0.38 6.07 C-0.11 4.63, 1.75 2.76, 3.06 1.73 C4.38 0.7, 6.69 0.07, 7.52 -0.12 C8.35 -0.31, 7.94 0.5, 8.04 0.58 M9.04 -0.03 C10.57 0.17, 13.3 2.01, 14.29 3.16 C15.27 4.32, 15.07 5.37, 14.96 6.89 C14.85 8.41, 14.77 11.18, 13.6 12.3 C12.44 13.43, 9.76 13.5, 7.99 13.64 C6.22 13.79, 4.18 14.02, 2.97 13.17 C1.77 12.31, 1.23 9.9, 0.75 8.51 C0.27 7.13, -0.61 6.11, 0.09 4.87 C0.8 3.63, 3.32 1.72, 4.96 1.05 C6.59 0.38, 9.02 1.09, 9.91 0.86 C10.79 0.62, 10.36 -0.43, 10.27 -0.34" stroke="#e03131" stroke-width="1" fill="none"></path></g></svg>