<svg version="1.1" xmlns="http://www.w3.org/2000/svg" viewBox="0 0 2374.4632715633543 1776.7353096951801" width="4748.926543126709" height="3553.4706193903603">
  <!-- svg-source:excalidraw -->
  
  <defs>
    <style class="style-fonts">
      @font-face {
        font-family: "Virgil";
        src: url("https://excalidraw.com/Virgil.woff2");
      }
      @font-face {
        font-family: "Cascadia";
        src: url("https://excalidraw.com/Cascadia.woff2");
      }
      @font-face {
        font-family: "Assistant";
        src: url("https://excalidraw.com/Assistant-Regular.woff2");
      }
    </style>
    
  </defs>
  <g stroke-linecap="round" transform="translate(214.6381751050278 160.4073611139452) rotate(0 44.5 44.5)"><path d="M22.25 0 C37.11 -2.78, 52.27 3.02, 66.75 0 C78.9 -1.61, 89.05 7.51, 89 22.25 C86.18 34.51, 90.28 51.42, 89 66.75 C88.27 84.5, 78.61 85.58, 66.75 89 C57.4 89.85, 46.59 89.84, 22.25 89 C8.48 91.52, 2.92 78.54, 0 66.75 C-3.13 57.23, -1.24 43.56, 0 22.25 C-0.56 7.52, 7.4 2.82, 22.25 0" stroke="none" stroke-width="0" fill="#a5d8ff"></path><path d="M22.25 0 C40.86 -1.12, 57.87 0.98, 66.75 0 M22.25 0 C36.11 -0.61, 50.32 -0.27, 66.75 0 M66.75 0 C83.03 -1.26, 87.13 9.4, 89 22.25 M66.75 0 C81.43 -1.82, 89.09 8.49, 89 22.25 M89 22.25 C87.82 38.66, 90.69 56.77, 89 66.75 M89 22.25 C89.34 36.46, 88.46 50.34, 89 66.75 M89 66.75 C90.36 79.87, 83.54 89.12, 66.75 89 M89 66.75 C90.29 82.66, 83.66 89.08, 66.75 89 M66.75 89 C51.57 89.41, 36.91 86.83, 22.25 89 M66.75 89 C48.75 87.87, 32.11 89.43, 22.25 89 M22.25 89 C9.03 89.08, 1.97 81.96, 0 66.75 M22.25 89 C8.6 90.73, 0.47 80.53, 0 66.75 M0 66.75 C1.39 50.62, -0.5 35.43, 0 22.25 M0 66.75 C0.06 54.94, -0.48 43.02, 0 22.25 M0 22.25 C-1.06 8.91, 6.13 -1.43, 22.25 0 M0 22.25 C-1.22 7.8, 6.43 -1.75, 22.25 0" stroke="#1e1e1e" stroke-width="2" fill="none"></path></g><g stroke-linecap="round"><g transform="translate(205.4620909765789 197.8503844601404) rotate(0 -44.753309671677414 -0.6720622819821642)"><path d="M-0.31 0.57 C-15.26 0.34, -73.73 -0.1, -88.74 -0.43 M1.73 -0.17 C-13.39 -0.81, -74.35 -2.08, -89.29 -2.08" stroke="#1e1e1e" stroke-width="2" fill="none"></path></g><g transform="translate(205.4620909765789 197.8503844601404) rotate(0 -44.753309671677414 -0.6720622819821642)"><path d="M-65.7 -10.34 C-73.61 -6, -81.99 -5.6, -89.29 -2.08 M-65.7 -10.34 C-71.99 -7.86, -80.33 -5.21, -89.29 -2.08" stroke="#1e1e1e" stroke-width="2" fill="none"></path></g><g transform="translate(205.4620909765789 197.8503844601404) rotate(0 -44.753309671677414 -0.6720622819821642)"><path d="M-65.91 6.76 C-73.88 4.62, -82.17 -1.45, -89.29 -2.08 M-65.91 6.76 C-72 4.21, -80.27 1.83, -89.29 -2.08" stroke="#1e1e1e" stroke-width="2" fill="none"></path></g></g><mask></mask><g stroke-linecap="round" transform="translate(506.1221193426612 159.01971380333478) rotate(0 44.5 44.5)"><path d="M22.25 0 C36.9 -3.87, 49.9 2.39, 66.75 0 C84.39 0.98, 88.66 4.83, 89 22.25 C86.62 34.77, 88.02 50.38, 89 66.75 C87.73 79.88, 83.84 91.63, 66.75 89 C53.73 86.42, 44.47 93.12, 22.25 89 C6.91 87.94, 0.21 79.91, 0 66.75 C-0.51 51.93, -0.23 44.7, 0 22.25 C-1.41 9.39, 9.09 -0.27, 22.25 0" stroke="none" stroke-width="0" fill="#a5d8ff"></path><path d="M22.25 0 C33.52 -1.4, 48.26 0.44, 66.75 0 M22.25 0 C36.87 0.26, 52.73 0.41, 66.75 0 M66.75 0 C81.62 -1.98, 90.07 6.12, 89 22.25 M66.75 0 C79.6 2.27, 90.41 8.38, 89 22.25 M89 22.25 C87.49 34.21, 87.79 49.77, 89 66.75 M89 22.25 C89.5 37.64, 89.19 52.93, 89 66.75 M89 66.75 C88.83 83.56, 81.6 87.53, 66.75 89 M89 66.75 C89.53 82.24, 80.88 87.83, 66.75 89 M66.75 89 C56.94 87.41, 44.68 89.35, 22.25 89 M66.75 89 C49.5 88.64, 34.51 89.1, 22.25 89 M22.25 89 C7.22 87.75, -1.31 80.24, 0 66.75 M22.25 89 C7.49 90.9, -1.61 83.54, 0 66.75 M0 66.75 C-0.45 55.7, -1.56 45.23, 0 22.25 M0 66.75 C-0.8 53.15, 0.75 40.73, 0 22.25 M0 22.25 C1.31 7.2, 8.99 -0.32, 22.25 0 M0 22.25 C0.73 5.16, 6.73 -1.04, 22.25 0" stroke="#1e1e1e" stroke-width="2" fill="none"></path></g><g stroke-linecap="round"><g transform="translate(489.99261243634555 200.39696645201923) rotate(0 -90.2847085005663 0.2966908845899354)"><path d="M-0.2 -1.05 C-30.21 -0.99, -150.33 -0.16, -180.57 0.1 M-1.76 1.02 C-31.89 1.26, -151.93 1.25, -181.52 1.37" stroke="#1e1e1e" stroke-width="2" fill="none"></path></g><g transform="translate(489.99261243634555 200.39696645201923) rotate(0 -90.2847085005663 0.2966908845899354)"><path d="M-158.04 -7.22 C-165.85 -5.05, -170.98 -4.57, -181.52 1.37 M-158.04 -7.22 C-164.74 -4.29, -170.97 -2.74, -181.52 1.37" stroke="#1e1e1e" stroke-width="2" fill="none"></path></g><g transform="translate(489.99261243634555 200.39696645201923) rotate(0 -90.2847085005663 0.2966908845899354)"><path d="M-158.01 9.88 C-165.79 7.65, -170.93 3.72, -181.52 1.37 M-158.01 9.88 C-164.7 7.86, -170.94 4.46, -181.52 1.37" stroke="#1e1e1e" stroke-width="2" fill="none"></path></g></g><mask></mask><g transform="translate(90.11393162399787 71.91002262727363) rotate(0 17.0068359375 20.7)"><text x="0" y="33.120703125" font-family="Helvetica, Segoe UI Emoji" font-size="36px" fill="#1e1e1e" text-anchor="start" style="white-space: pre;" direction="ltr" dominant-baseline="alphabetic">A:</text></g><g stroke-linecap="round" transform="translate(217.8387498842589 376.8085952529193) rotate(0 44.5 44.5)"><path d="M22.25 0 C32.2 2.84, 46.53 -1.8, 66.75 0 C81.6 2.19, 87.52 5.14, 89 22.25 C86.59 29.37, 86.2 38.32, 89 66.75 C86.42 85.17, 82.6 90.3, 66.75 89 C51.07 88.64, 39.81 85.26, 22.25 89 C4.62 87.8, 3.4 79.26, 0 66.75 C-3.68 53.63, -1.61 38.01, 0 22.25 C-1.07 4.88, 8.17 -0.44, 22.25 0" stroke="none" stroke-width="0" fill="#ffc9c9"></path><path d="M22.25 0 C36.22 -1.01, 53.77 1.33, 66.75 0 M22.25 0 C35.75 -0.38, 49.34 -0.53, 66.75 0 M66.75 0 C82.55 0.05, 88.89 7.1, 89 22.25 M66.75 0 C83.12 -1.36, 88.03 9.23, 89 22.25 M89 22.25 C88.32 33.66, 90.68 44, 89 66.75 M89 22.25 C88.32 39.66, 88.95 55.58, 89 66.75 M89 66.75 C89.52 79.8, 81.33 87.16, 66.75 89 M89 66.75 C88.25 81.44, 83.38 90.83, 66.75 89 M66.75 89 C52.34 89.54, 39.99 88.53, 22.25 89 M66.75 89 C54.75 89.07, 44.2 90.34, 22.25 89 M22.25 89 C7.74 89.5, 0.98 80.62, 0 66.75 M22.25 89 C6.56 87.9, 1.81 79.42, 0 66.75 M0 66.75 C-1.31 56.35, -0.27 42.48, 0 22.25 M0 66.75 C0.6 56.12, -0.51 46.7, 0 22.25 M0 22.25 C-0.1 7.69, 7.44 -0.94, 22.25 0 M0 22.25 C-1.96 6.94, 6.49 2.21, 22.25 0" stroke="#1e1e1e" stroke-width="2" fill="none"></path></g><g stroke-linecap="round"><g transform="translate(208.6626657558101 414.2516185991145) rotate(0 -44.753309671677414 -0.6720622819821642)"><path d="M-0.41 0.45 C-15.31 0.4, -73.6 -0.85, -88.52 -1.18 M1.57 -0.35 C-13.47 -0.12, -73.53 0.44, -88.95 0.45" stroke="#1e1e1e" stroke-width="2" fill="none"></path></g><g transform="translate(208.6626657558101 414.2516185991145) rotate(0 -44.753309671677414 -0.6720622819821642)"><path d="M-65.5 -8.24 C-73.52 -3.44, -82.72 -2.59, -88.95 0.45 M-65.5 -8.24 C-73.05 -6.47, -78.4 -3.38, -88.95 0.45" stroke="#1e1e1e" stroke-width="2" fill="none"></path></g><g transform="translate(208.6626657558101 414.2516185991145) rotate(0 -44.753309671677414 -0.6720622819821642)"><path d="M-65.41 8.86 C-73.34 7.3, -82.57 1.8, -88.95 0.45 M-65.41 8.86 C-72.9 5.76, -78.28 3.99, -88.95 0.45" stroke="#1e1e1e" stroke-width="2" fill="none"></path></g></g><mask></mask><g stroke-linecap="round" transform="translate(509.3226941218925 375.4209479423089) rotate(0 44.5 44.5)"><path d="M22.25 0 C31.98 -2.76, 41.38 -3.54, 66.75 0 C81.57 -1.73, 86.84 5.29, 89 22.25 C89.44 33.81, 89.83 43.69, 89 66.75 C87.5 80.99, 81.55 92.22, 66.75 89 C61.02 86.41, 47.96 90.22, 22.25 89 C6.61 85.65, -0.41 80.31, 0 66.75 C0.99 57.06, 2.7 51.49, 0 22.25 C-2.29 5.7, 8.71 -2.4, 22.25 0" stroke="none" stroke-width="0" fill="#ffc9c9"></path><path d="M22.25 0 C38.95 -0.75, 55.36 -1.5, 66.75 0 M22.25 0 C32.88 -0.17, 44.28 -0.6, 66.75 0 M66.75 0 C80.74 1.57, 88.11 7.14, 89 22.25 M66.75 0 C82.98 -0.71, 89.04 9.42, 89 22.25 M89 22.25 C89.89 32.56, 90.04 44.93, 89 66.75 M89 22.25 C88.99 30.98, 88.79 41.49, 89 66.75 M89 66.75 C90.56 83.18, 81.57 89.81, 66.75 89 M89 66.75 C88.88 80.32, 82.23 88.84, 66.75 89 M66.75 89 C55.93 86.99, 41.47 88.11, 22.25 89 M66.75 89 C49.45 88.63, 30.8 88.64, 22.25 89 M22.25 89 C8.99 87.12, -0.82 80.2, 0 66.75 M22.25 89 C5.62 87.14, 1.3 80.92, 0 66.75 M0 66.75 C0.62 57.75, -0.49 44.89, 0 22.25 M0 66.75 C0.03 51.15, -0.83 36.27, 0 22.25 M0 22.25 C-0.81 9.34, 6.81 -1.48, 22.25 0 M0 22.25 C0.19 6.1, 9.28 0.17, 22.25 0" stroke="#1e1e1e" stroke-width="2" fill="none"></path></g><g stroke-linecap="round"><g transform="translate(499.0057062150097 418.7357069241375) rotate(0 -94.15972116685481 -0.6720622819821642)"><path d="M0.58 0.03 C-30.65 -0.11, -157.04 -1.19, -188.39 -1.54 M-0.58 -1 C-31.89 -0.89, -158.16 -0.08, -189.37 -0.1" stroke="#1e1e1e" stroke-width="2" fill="none"></path></g><g transform="translate(499.0057062150097 418.7357069241375) rotate(0 -94.15972116685481 -0.6720622819821642)"><path d="M-165.91 -8.73 C-170.99 -6.86, -176.45 -3.54, -189.37 -0.1 M-165.91 -8.73 C-172.04 -6.61, -176.64 -4.7, -189.37 -0.1" stroke="#1e1e1e" stroke-width="2" fill="none"></path></g><g transform="translate(499.0057062150097 418.7357069241375) rotate(0 -94.15972116685481 -0.6720622819821642)"><path d="M-165.85 8.37 C-170.85 6.54, -176.32 6.15, -189.37 -0.1 M-165.85 8.37 C-171.92 6.38, -176.53 4.17, -189.37 -0.1" stroke="#1e1e1e" stroke-width="2" fill="none"></path></g></g><mask></mask><g transform="translate(90.89582211129306 331.7945896008762) rotate(0 17.0068359375 20.700000000000003)"><text x="0" y="33.120703125" font-family="Helvetica, Segoe UI Emoji" font-size="36px" fill="#1e1e1e" text-anchor="start" style="white-space: pre;" direction="ltr" dominant-baseline="alphabetic">B:</text></g><g stroke-linecap="round"><g transform="translate(552.7735342745324 257.7698911313729) rotate(0 0 55.75048131895986)"><path d="M-0.86 0.18 C-1.15 18.54, -1.12 91.99, -1 110.72" stroke="#1e1e1e" stroke-width="2.5" fill="none" stroke-dasharray="8 10"></path></g><g transform="translate(552.7735342745324 257.7698911313729) rotate(0 0 55.75048131895986)"><path d="M-9.61 87.25 C-6.11 94.07, -4.62 103.92, -1 110.72" stroke="#1e1e1e" stroke-width="2.5" fill="none"></path></g><g transform="translate(552.7735342745324 257.7698911313729) rotate(0 0 55.75048131895986)"><path d="M7.49 87.21 C4.85 93.92, 0.2 103.79, -1 110.72" stroke="#1e1e1e" stroke-width="2.5" fill="none"></path></g></g><mask></mask><g stroke-linecap="round" transform="translate(511.6008143004017 524.1382431926913) rotate(0 44.5 44.5)"><path d="M22.25 0 C38.68 -2.96, 54.43 0.21, 66.75 0 C78.86 0.63, 86.74 9.32, 89 22.25 C87.17 36.78, 88.02 47.03, 89 66.75 C86.13 84.17, 84.99 89.24, 66.75 89 C51.27 90.53, 38.52 87.58, 22.25 89 C8.53 86.4, -1.91 81.46, 0 66.75 C-0.81 50.21, 3.2 41.62, 0 22.25 C1.48 5.11, 4.41 -0.8, 22.25 0" stroke="none" stroke-width="0" fill="#ffc9c9"></path><path d="M22.25 0 C29.77 1.41, 41.39 1.34, 66.75 0 M22.25 0 C32.03 0.64, 41.51 -0.34, 66.75 0 M66.75 0 C80.39 -1.31, 89.76 7.19, 89 22.25 M66.75 0 C82.85 1.91, 90.02 8.87, 89 22.25 M89 22.25 C90.47 31.93, 89.47 39.33, 89 66.75 M89 22.25 C89.83 37.4, 89.14 53.8, 89 66.75 M89 66.75 C88.91 82.26, 80.67 90.57, 66.75 89 M89 66.75 C88.58 82.51, 82.96 90.93, 66.75 89 M66.75 89 C49.7 89.99, 30.76 91.19, 22.25 89 M66.75 89 C53.07 89.52, 41.37 88.89, 22.25 89 M22.25 89 C7.17 87.32, 0.57 80.3, 0 66.75 M22.25 89 C5.16 89.44, 1.79 82.52, 0 66.75 M0 66.75 C0.24 56.6, -0.43 44.45, 0 22.25 M0 66.75 C-0.1 50.47, 0.19 35.45, 0 22.25 M0 22.25 C0.17 8.77, 6.83 -0.15, 22.25 0 M0 22.25 C-0.1 7.23, 5.14 -1.32, 22.25 0" stroke="#1e1e1e" stroke-width="2" fill="none"></path></g><g stroke-linecap="round"><g transform="translate(510.6008143004017 559.6724563373648) rotate(0 -100.97653900101966 -50.591143833909626)"><path d="M-0.45 -0.44 C-34.38 -17.23, -169.4 -83.73, -202.92 -100.57 M1.52 -1.72 C-32.11 -18.87, -166.78 -85.94, -200.71 -102.37" stroke="#1e1e1e" stroke-width="2" fill="none"></path></g><g transform="translate(510.6008143004017 559.6724563373648) rotate(0 -100.97653900101966 -50.591143833909626)"><path d="M-175.86 -99.67 C-185.49 -102.33, -192.61 -101.03, -200.71 -102.37 M-175.86 -99.67 C-181.86 -100.69, -189.84 -101.59, -200.71 -102.37" stroke="#1e1e1e" stroke-width="2" fill="none"></path></g><g transform="translate(510.6008143004017 559.6724563373648) rotate(0 -100.97653900101966 -50.591143833909626)"><path d="M-183.41 -84.32 C-190.36 -92.45, -194.78 -96.63, -200.71 -102.37 M-183.41 -84.32 C-187.31 -89.53, -193.19 -94.69, -200.71 -102.37" stroke="#1e1e1e" stroke-width="2" fill="none"></path></g></g><mask></mask><g stroke-linecap="round"><g transform="translate(550.2882953009693 682.9511168481996) rotate(0 0 -30.031348163735288)"><path d="M0.57 0.42 C0.52 -9.37, 0.66 -49.45, 0.49 -59.38 M-0.59 -0.41 C-0.83 -10.49, -0.06 -51.04, -0.21 -61.14" stroke="#1e1e1e" stroke-width="2" fill="none"></path></g><g transform="translate(550.2882953009693 682.9511168481996) rotate(0 0 -30.031348163735288)"><path d="M8.25 -37.62 C5.98 -45.38, 3.32 -55.54, -0.21 -61.14 M8.25 -37.62 C5.61 -45.99, 1.99 -54.38, -0.21 -61.14" stroke="#1e1e1e" stroke-width="2" fill="none"></path></g><g transform="translate(550.2882953009693 682.9511168481996) rotate(0 0 -30.031348163735288)"><path d="M-8.85 -37.69 C-4.86 -45.5, -1.26 -55.64, -0.21 -61.14 M-8.85 -37.69 C-5.09 -45.88, -2.33 -54.24, -0.21 -61.14" stroke="#1e1e1e" stroke-width="2" fill="none"></path></g></g><mask></mask><g transform="translate(536.7257509689599 704.263686512786) rotate(0 12.005859375 20.69999999999999)"><text x="0" y="33.120703125" font-family="Helvetica, Segoe UI Emoji" font-size="36px" fill="#1e1e1e" text-anchor="start" style="white-space: pre;" direction="ltr" dominant-baseline="alphabetic">X</text></g><g transform="translate(627.3108703376992 304.13826610937747) rotate(0 68.4580078125 20.700000000000003)"><text x="0" y="33.120703125" font-family="Helvetica, Segoe UI Emoji" font-size="36px" fill="#1e1e1e" text-anchor="start" style="white-space: pre;" direction="ltr" dominant-baseline="alphabetic">B's main</text></g><g transform="translate(610.4455059773039 60.65185120256041) rotate(0 68.4580078125 20.7)"><text x="0" y="33.120703125" font-family="Helvetica, Segoe UI Emoji" font-size="36px" fill="#1e1e1e" text-anchor="start" style="white-space: pre;" direction="ltr" dominant-baseline="alphabetic">A's main</text></g><g stroke-linecap="round"><g transform="translate(621.4480699454144 104.80305277169907) rotate(0 -23.451201569138675 29.90028200065177)"><path d="M-0.3 -1.04 C-7.88 8.62, -38.35 48.42, -46.22 58.74 M1.75 1.03 C-5.87 10.73, -38.41 50.05, -46.81 59.72" stroke="#1e1e1e" stroke-width="2" fill="none"></path></g><g transform="translate(621.4480699454144 104.80305277169907) rotate(0 -23.451201569138675 29.90028200065177)"><path d="M-38.19 36.25 C-41.83 43, -43.94 46.47, -46.81 59.72 M-38.19 36.25 C-41.19 45.09, -45.87 54.32, -46.81 59.72" stroke="#1e1e1e" stroke-width="2" fill="none"></path></g><g transform="translate(621.4480699454144 104.80305277169907) rotate(0 -23.451201569138675 29.90028200065177)"><path d="M-25.12 47.28 C-31.97 51.35, -37.21 52.17, -46.81 59.72 M-25.12 47.28 C-33.13 51.75, -42.88 56.7, -46.81 59.72" stroke="#1e1e1e" stroke-width="2" fill="none"></path></g></g><mask></mask><g stroke-linecap="round"><g transform="translate(634.3462308084405 347.52298901228403) rotate(0 -19.93352133376777 21.692361451453223)"><path d="M-0.8 -0.61 C-7.59 6.75, -33.68 35.85, -40 43.35 M0.98 1.69 C-6.05 9.32, -34.37 38.06, -41.01 44.86" stroke="#1e1e1e" stroke-width="2" fill="none"></path></g><g transform="translate(634.3462308084405 347.52298901228403) rotate(0 -19.93352133376777 21.692361451453223)"><path d="M-30.67 22.1 C-35.59 30.07, -38.39 40.47, -41.01 44.86 M-30.67 22.1 C-34.28 31.14, -39.43 39.78, -41.01 44.86" stroke="#1e1e1e" stroke-width="2" fill="none"></path></g><g transform="translate(634.3462308084405 347.52298901228403) rotate(0 -19.93352133376777 21.692361451453223)"><path d="M-18.46 34.07 C-27.72 37.62, -34.95 43.68, -41.01 44.86 M-18.46 34.07 C-26.69 38.56, -36.47 42.65, -41.01 44.86" stroke="#1e1e1e" stroke-width="2" fill="none"></path></g></g><mask></mask><g transform="translate(719.7736578562614 171.24882615914237) rotate(0 15.0029296875 20.7)"><text x="0" y="33.120703125" font-family="Helvetica, Segoe UI Emoji" font-size="36px" fill="#1e1e1e" text-anchor="start" style="white-space: pre;" direction="ltr" dominant-baseline="alphabetic">...</text></g><g transform="translate(78.33149655732166 167.479616202695) rotate(0 15.0029296875 20.700000000000003)"><text x="0" y="33.120703125" font-family="Helvetica, Segoe UI Emoji" font-size="36px" fill="#1e1e1e" text-anchor="start" style="white-space: pre;" direction="ltr" dominant-baseline="alphabetic">...</text></g><g transform="translate(78.33149655732154 387.5798867688764) rotate(0 15.0029296875 20.69999999999999)"><text x="0" y="33.120703125" font-family="Helvetica, Segoe UI Emoji" font-size="36px" fill="#1e1e1e" text-anchor="start" style="white-space: pre;" direction="ltr" dominant-baseline="alphabetic">...</text></g><g stroke-linecap="round" transform="translate(1146.8279261885264 172.78553190095678) rotate(0 44.5 44.5)"><path d="M22.25 0 C41.59 -1.8, 53.3 2.28, 66.75 0 C83.32 -2.93, 86.8 8.61, 89 22.25 C88.59 34.12, 88.92 41.44, 89 66.75 C88.17 84.14, 80.19 92.16, 66.75 89 C46.27 89.81, 31.87 91.19, 22.25 89 C5.84 86.49, -2.25 83.58, 0 66.75 C-3.01 52, 2.56 33.87, 0 22.25 C1.98 4.9, 4.69 3.54, 22.25 0" stroke="none" stroke-width="0" fill="#a5d8ff"></path><path d="M22.25 0 C35.86 1.89, 46.44 -0.23, 66.75 0 M22.25 0 C31.61 0.28, 41.83 0.5, 66.75 0 M66.75 0 C82.03 -0.33, 89.6 6.01, 89 22.25 M66.75 0 C82.26 1.87, 89.27 8.14, 89 22.25 M89 22.25 C89.38 37.45, 87.8 49.2, 89 66.75 M89 22.25 C87.73 32.9, 88.78 43.41, 89 66.75 M89 66.75 C88.9 80.59, 80.33 89.13, 66.75 89 M89 66.75 C89.11 82.9, 82.76 89.71, 66.75 89 M66.75 89 C56.26 88.6, 43.61 89.01, 22.25 89 M66.75 89 C53.92 88.63, 39.44 89.53, 22.25 89 M22.25 89 C6.88 88.11, -0.42 83.56, 0 66.75 M22.25 89 C8.22 88.21, -1.9 79.56, 0 66.75 M0 66.75 C-0.12 57.73, -0.9 47.03, 0 22.25 M0 66.75 C0.21 55.8, 0.58 43.45, 0 22.25 M0 22.25 C-1.56 8.35, 7.36 1.75, 22.25 0 M0 22.25 C-0.2 7.88, 6.59 0.37, 22.25 0" stroke="#1e1e1e" stroke-width="2" fill="none"></path></g><g stroke-linecap="round"><g transform="translate(1137.6518420600778 210.22855524715197) rotate(0 -44.75330967167736 -0.6720622819821642)"><path d="M1.19 0.13 C-13.78 -0.43, -74.48 -2.23, -89.59 -2.35 M0.36 -0.85 C-14.8 -1.37, -75.48 -1.05, -90.58 -1.34" stroke="#1e1e1e" stroke-width="2" fill="none"></path></g><g transform="translate(1137.6518420600778 210.22855524715197) rotate(0 -44.75330967167736 -0.6720622819821642)"><path d="M-67.04 -9.76 C-74.32 -6.96, -83.77 -4.07, -90.58 -1.34 M-67.04 -9.76 C-75.21 -5.83, -83.8 -3.73, -90.58 -1.34" stroke="#1e1e1e" stroke-width="2" fill="none"></path></g><g transform="translate(1137.6518420600778 210.22855524715197) rotate(0 -44.75330967167736 -0.6720622819821642)"><path d="M-67.14 7.34 C-74.52 4.65, -83.94 2.05, -90.58 -1.34 M-67.14 7.34 C-75.22 5.11, -83.78 1.05, -90.58 -1.34" stroke="#1e1e1e" stroke-width="2" fill="none"></path></g></g><mask></mask><g stroke-linecap="round" transform="translate(1438.31187042616 171.39788459034637) rotate(0 44.5 44.5)"><path d="M22.25 0 C35.67 1.85, 50.06 3.52, 66.75 0 C83.65 -1.05, 91.76 6.7, 89 22.25 C87.43 39.95, 92.33 50.84, 89 66.75 C90.76 78.8, 82 89.51, 66.75 89 C48.93 90.43, 37.61 91.99, 22.25 89 C8.58 86.78, 1.07 84.93, 0 66.75 C-3.17 58.46, -2.45 41.28, 0 22.25 C-2.35 6.75, 8.41 -2.71, 22.25 0" stroke="none" stroke-width="0" fill="#a5d8ff"></path><path d="M22.25 0 C36.5 -0.53, 49.43 0.66, 66.75 0 M22.25 0 C39.31 -0.63, 56.06 0.88, 66.75 0 M66.75 0 C81.82 0.63, 89.39 5.78, 89 22.25 M66.75 0 C83.47 0.85, 90.13 6.45, 89 22.25 M89 22.25 C89.86 30.58, 88.47 42.77, 89 66.75 M89 22.25 C88.35 33.83, 89.03 45.85, 89 66.75 M89 66.75 C90.03 82.2, 80.8 90.44, 66.75 89 M89 66.75 C90.88 82.86, 80.7 89.07, 66.75 89 M66.75 89 C54.18 90.2, 40.91 87.69, 22.25 89 M66.75 89 C50.82 89.79, 35.66 88.46, 22.25 89 M22.25 89 C5.76 87.24, -1.79 83.17, 0 66.75 M22.25 89 C6.1 89.27, 0.4 80.95, 0 66.75 M0 66.75 C0.49 56.03, 1.28 45.57, 0 22.25 M0 66.75 C0.32 55.65, 0.26 43, 0 22.25 M0 22.25 C-0.72 7.74, 8.61 -1.89, 22.25 0 M0 22.25 C-1.29 9.55, 5.98 -0.61, 22.25 0" stroke="#1e1e1e" stroke-width="2" fill="none"></path></g><g stroke-linecap="round"><g transform="translate(1422.1823635198443 212.7751372390308) rotate(0 -90.28470850056635 0.2966908845899354)"><path d="M0.27 -0.2 C-29.83 -0.39, -150.13 -0.54, -180.21 -0.25 M-1.05 -1.35 C-31.31 -1.49, -151.01 0.66, -180.97 0.84" stroke="#1e1e1e" stroke-width="2" fill="none"></path></g><g transform="translate(1422.1823635198443 212.7751372390308) rotate(0 -90.28470850056635 0.2966908845899354)"><path d="M-157.58 -8 C-165.65 -4.4, -174.53 -1.46, -180.97 0.84 M-157.58 -8 C-166.29 -5.37, -174.58 -0.82, -180.97 0.84" stroke="#1e1e1e" stroke-width="2" fill="none"></path></g><g transform="translate(1422.1823635198443 212.7751372390308) rotate(0 -90.28470850056635 0.2966908845899354)"><path d="M-157.37 9.1 C-165.64 7, -174.59 4.23, -180.97 0.84 M-157.37 9.1 C-166.18 5.21, -174.55 3.25, -180.97 0.84" stroke="#1e1e1e" stroke-width="2" fill="none"></path></g></g><mask></mask><g transform="translate(1022.3036827074967 84.28819341428522) rotate(0 17.0068359375 20.7)"><text x="0" y="33.120703125" font-family="Helvetica, Segoe UI Emoji" font-size="36px" fill="#1e1e1e" text-anchor="start" style="white-space: pre;" direction="ltr" dominant-baseline="alphabetic">A:</text></g><g stroke-linecap="round" transform="translate(1150.0285009677577 389.1867660399309) rotate(0 44.5 44.5)"><path d="M22.25 0 C37.26 -1.21, 50.33 3.7, 66.75 0 C81.09 1.76, 86.21 7.83, 89 22.25 C86.89 33.98, 91.39 52.21, 89 66.75 C92.54 82.75, 79.36 90.07, 66.75 89 C46.74 86.71, 35.31 87.43, 22.25 89 C5.61 86.65, -0.67 82.58, 0 66.75 C-2.43 57.93, -1.74 45.66, 0 22.25 C2.85 10.8, 6.1 1.44, 22.25 0" stroke="none" stroke-width="0" fill="#ffc9c9"></path><path d="M22.25 0 C38.56 0.1, 52.25 0.26, 66.75 0 M22.25 0 C32.45 -0.58, 40.94 -0.74, 66.75 0 M66.75 0 C79.75 1.12, 87.27 7.15, 89 22.25 M66.75 0 C82.02 -0.95, 88.88 6.27, 89 22.25 M89 22.25 C90.17 33.85, 89.65 42.6, 89 66.75 M89 22.25 C88.98 38.84, 89.18 55.34, 89 66.75 M89 66.75 C90.82 81.57, 82.37 88.27, 66.75 89 M89 66.75 C87.03 82.81, 80.96 87.98, 66.75 89 M66.75 89 C53.64 87.5, 40.14 87.37, 22.25 89 M66.75 89 C50.06 88.78, 32.53 88.64, 22.25 89 M22.25 89 C7.55 89.31, 0.48 82.68, 0 66.75 M22.25 89 C8.82 88.29, -1.79 82.65, 0 66.75 M0 66.75 C0.01 52.81, -0.07 41.51, 0 22.25 M0 66.75 C-0.38 57.35, 0.76 48.96, 0 22.25 M0 22.25 C-1.63 6.2, 8.08 -1.9, 22.25 0 M0 22.25 C1.84 8.74, 6.75 1.76, 22.25 0" stroke="#1e1e1e" stroke-width="2" fill="none"></path></g><g stroke-linecap="round"><g transform="translate(1140.8524168393087 426.6297893861261) rotate(0 -44.75330967167747 -0.6720622819821642)"><path d="M0.14 0.38 C-14.8 -0.17, -74.5 -2.11, -89.27 -2.32 M-1.24 -0.47 C-16.35 -0.98, -75.51 -0.88, -90.1 -1.3" stroke="#1e1e1e" stroke-width="2" fill="none"></path></g><g transform="translate(1140.8524168393087 426.6297893861261) rotate(0 -44.75330967167747 -0.6720622819821642)"><path d="M-66.51 -9.57 C-73.58 -6.43, -83.62 -2.46, -90.1 -1.3 M-66.51 -9.57 C-75.15 -7.46, -83.29 -3.54, -90.1 -1.3" stroke="#1e1e1e" stroke-width="2" fill="none"></path></g><g transform="translate(1140.8524168393087 426.6297893861261) rotate(0 -44.75330967167747 -0.6720622819821642)"><path d="M-66.71 7.53 C-73.86 5.03, -83.83 3.37, -90.1 -1.3 M-66.71 7.53 C-75.37 3.88, -83.44 2.04, -90.1 -1.3" stroke="#1e1e1e" stroke-width="2" fill="none"></path></g></g><mask></mask><g stroke-linecap="round" transform="translate(1441.512445205391 387.79911872932047) rotate(0 44.5 44.5)"><path d="M22.25 0 C37.16 0.02, 58.15 1.41, 66.75 0 C80.01 -2.51, 86.75 9.41, 89 22.25 C87.57 39.15, 93.14 52.67, 89 66.75 C90.98 79.06, 78.85 92.54, 66.75 89 C55.22 89.47, 42.32 84.89, 22.25 89 C9.57 85.77, 1.18 79.04, 0 66.75 C-1.95 56.18, -0.48 45.27, 0 22.25 C2.74 7.1, 8.83 -1.19, 22.25 0" stroke="none" stroke-width="0" fill="#ffc9c9"></path><path d="M22.25 0 C37.2 0.62, 49.84 -1.84, 66.75 0 M22.25 0 C32.17 -0.38, 44.01 -0.66, 66.75 0 M66.75 0 C81.48 -0.99, 87.75 7.55, 89 22.25 M66.75 0 C81.7 1.31, 90.18 8.13, 89 22.25 M89 22.25 C90.43 33.09, 89.38 45.09, 89 66.75 M89 22.25 C89.8 35.11, 88.55 49.23, 89 66.75 M89 66.75 C88.46 80.7, 81.17 90.97, 66.75 89 M89 66.75 C89.81 80.8, 79.68 86.98, 66.75 89 M66.75 89 C57.61 89.1, 47.45 87.78, 22.25 89 M66.75 89 C55.49 89.62, 44.36 88.76, 22.25 89 M22.25 89 C5.86 89.93, -0.06 83.33, 0 66.75 M22.25 89 C7.22 89.46, -0.83 81.95, 0 66.75 M0 66.75 C2.28 49.5, -0.11 35.77, 0 22.25 M0 66.75 C0.69 50.3, 1.16 36.32, 0 22.25 M0 22.25 C-0.58 8.95, 7.02 0.54, 22.25 0 M0 22.25 C-0.53 9.05, 6.53 2.02, 22.25 0" stroke="#1e1e1e" stroke-width="2" fill="none"></path></g><g stroke-linecap="round"><g transform="translate(1431.1954572985082 431.1138777111491) rotate(0 -94.15972116685475 -0.6720622819821642)"><path d="M-0.89 -0.69 C-32.55 -0.72, -158.01 -0.54, -189.42 -0.67 M0.85 1.56 C-30.51 1.23, -155.98 -2.14, -187.29 -2.44" stroke="#1e1e1e" stroke-width="2" fill="none"></path></g><g transform="translate(1431.1954572985082 431.1138777111491) rotate(0 -94.15972116685475 -0.6720622819821642)"><path d="M-163.64 -10.54 C-173.08 -9.73, -179.07 -6.79, -187.29 -2.44 M-163.64 -10.54 C-170.45 -8.82, -177.8 -5.93, -187.29 -2.44" stroke="#1e1e1e" stroke-width="2" fill="none"></path></g><g transform="translate(1431.1954572985082 431.1138777111491) rotate(0 -94.15972116685475 -0.6720622819821642)"><path d="M-163.97 6.56 C-173.22 1.41, -179.09 -1.63, -187.29 -2.44 M-163.97 6.56 C-170.71 3.39, -177.97 1.37, -187.29 -2.44" stroke="#1e1e1e" stroke-width="2" fill="none"></path></g></g><mask></mask><g transform="translate(1023.0855731947919 344.17276038788776) rotate(0 17.0068359375 20.700000000000003)"><text x="0" y="33.120703125" font-family="Helvetica, Segoe UI Emoji" font-size="36px" fill="#1e1e1e" text-anchor="start" style="white-space: pre;" direction="ltr" dominant-baseline="alphabetic">B:</text></g><g stroke-linecap="round"><g transform="translate(1484.963285358031 270.1480619183845) rotate(0 0 55.75048131895986)"><path d="M-1.04 -0.16 C-0.82 18.23, 0.07 92.5, 0.23 111.01" stroke="#1e1e1e" stroke-width="2.5" fill="none" stroke-dasharray="8 10"></path></g><g transform="translate(1484.963285358031 270.1480619183845) rotate(0 0 55.75048131895986)"><path d="M-8.57 87.61 C-6.88 92.93, -5.6 97.32, 0.23 111.01" stroke="#1e1e1e" stroke-width="2.5" fill="none"></path></g><g transform="translate(1484.963285358031 270.1480619183845) rotate(0 0 55.75048131895986)"><path d="M8.53 87.42 C6.66 92.64, 4.38 97.07, 0.23 111.01" stroke="#1e1e1e" stroke-width="2.5" fill="none"></path></g></g><mask></mask><g stroke-linecap="round" transform="translate(1443.7905653839002 536.5164139797029) rotate(0 44.5 44.5)"><path d="M22.25 0 C39.23 -3.01, 54.95 2.56, 66.75 0 C80.36 1.98, 86.48 4.69, 89 22.25 C86.2 39.31, 89.55 54.99, 89 66.75 C85.41 83.74, 78.35 90.18, 66.75 89 C59.92 88.31, 47.77 89.79, 22.25 89 C9.95 91.74, -0.32 82.99, 0 66.75 C-2.7 52.34, 3.76 42.32, 0 22.25 C2.28 5.52, 4.58 -2.8, 22.25 0" stroke="none" stroke-width="0" fill="#ffc9c9"></path><path d="M22.25 0 C30.92 -0.19, 40.25 -1.34, 66.75 0 M22.25 0 C36.4 0.05, 49.14 0.47, 66.75 0 M66.75 0 C83.22 1.11, 88.24 7.48, 89 22.25 M66.75 0 C81.17 -0.06, 91.1 7.4, 89 22.25 M89 22.25 C89.9 36.82, 87.95 52.05, 89 66.75 M89 22.25 C88.33 39.11, 88.26 58.52, 89 66.75 M89 66.75 C87.85 81.82, 81.93 88.45, 66.75 89 M89 66.75 C87.89 80.63, 81.73 89.35, 66.75 89 M66.75 89 C51.71 87.72, 38.84 89.21, 22.25 89 M66.75 89 C49.15 89.25, 32.87 88.14, 22.25 89 M22.25 89 C6.29 90.86, -1.25 81.06, 0 66.75 M22.25 89 C8.59 90.11, -1.87 80.18, 0 66.75 M0 66.75 C1.57 51.34, 1.96 36.7, 0 22.25 M0 66.75 C-0.28 53.09, 1.08 37.53, 0 22.25 M0 22.25 C0.98 5.87, 7.65 0.28, 22.25 0 M0 22.25 C1.15 6.41, 5.81 -1.43, 22.25 0" stroke="#1e1e1e" stroke-width="2" fill="none"></path></g><g stroke-linecap="round"><g transform="translate(1442.7905653839002 572.0506271243763) rotate(0 -100.97653900101966 -50.591143833909626)"><path d="M-0.75 0.08 C-34.39 -16.57, -168.46 -83.68, -201.89 -100.5 M1.06 -0.93 C-32.73 -17.87, -169 -85.26, -202.81 -102.26" stroke="#1e1e1e" stroke-width="2" fill="none"></path></g><g transform="translate(1442.7905653839002 572.0506271243763) rotate(0 -100.97653900101966 -50.591143833909626)"><path d="M-177.97 -99.44 C-185.15 -100.33, -191.47 -100.23, -202.81 -102.26 M-177.97 -99.44 C-185.36 -99.64, -194.78 -101.1, -202.81 -102.26" stroke="#1e1e1e" stroke-width="2" fill="none"></path></g><g transform="translate(1442.7905653839002 572.0506271243763) rotate(0 -100.97653900101966 -50.591143833909626)"><path d="M-185.6 -84.13 C-190.45 -89.49, -194.52 -93.91, -202.81 -102.26 M-185.6 -84.13 C-190.4 -89.45, -197.3 -95.97, -202.81 -102.26" stroke="#1e1e1e" stroke-width="2" fill="none"></path></g></g><mask></mask><g stroke-linecap="round"><g transform="translate(1482.4780463844681 695.3292876352112) rotate(0 0 -30.031348163735288)"><path d="M0.06 0.68 C0.29 -9.28, 0.7 -49.71, 0.62 -59.69 M-1.37 0 C-1.18 -10.34, 0.01 -51.44, -0.01 -61.62" stroke="#1e1e1e" stroke-width="2" fill="none"></path></g><g transform="translate(1482.4780463844681 695.3292876352112) rotate(0 0 -30.031348163735288)"><path d="M8.17 -38 C7.35 -42.58, 4.89 -50, -0.01 -61.62 M8.17 -38 C4.55 -46.71, 1.71 -55.56, -0.01 -61.62" stroke="#1e1e1e" stroke-width="2" fill="none"></path></g><g transform="translate(1482.4780463844681 695.3292876352112) rotate(0 0 -30.031348163735288)"><path d="M-8.93 -38.27 C-5.68 -42.79, -4.09 -50.15, -0.01 -61.62 M-8.93 -38.27 C-6.18 -46.98, -2.66 -55.72, -0.01 -61.62" stroke="#1e1e1e" stroke-width="2" fill="none"></path></g></g><mask></mask><g transform="translate(1468.9155020524586 716.6418572997976) rotate(0 12.005859375 20.69999999999999)"><text x="0" y="33.120703125" font-family="Helvetica, Segoe UI Emoji" font-size="36px" fill="#1e1e1e" text-anchor="start" style="white-space: pre;" direction="ltr" dominant-baseline="alphabetic">X</text></g><g transform="translate(1837.649314993845 299.58564685283665) rotate(0 68.45800781250011 20.700000000000003)"><text x="0" y="33.120703125" font-family="Helvetica, Segoe UI Emoji" font-size="36px" fill="#1e1e1e" text-anchor="start" style="white-space: pre;" direction="ltr" dominant-baseline="alphabetic">B's main</text></g><g transform="translate(1542.6352570608024 73.03002198957199) rotate(0 68.4580078125 20.7)"><text x="0" y="33.120703125" font-family="Helvetica, Segoe UI Emoji" font-size="36px" fill="#1e1e1e" text-anchor="start" style="white-space: pre;" direction="ltr" dominant-baseline="alphabetic">A's main</text></g><g stroke-linecap="round"><g transform="translate(1553.6378210289135 117.18122355871066) rotate(0 -20.869278835935688 26.608330515817855)"><path d="M-0.46 0.04 C-7.61 8.79, -35.26 44.32, -41.95 53.18 M1.5 -0.99 C-5.92 7.9, -35.96 45.45, -43.01 54.7" stroke="#1e1e1e" stroke-width="2" fill="none"></path></g><g transform="translate(1553.6378210289135 117.18122355871066) rotate(0 -20.869278835935688 26.608330515817855)"><path d="M-35.24 30.94 C-38.01 39.62, -41.1 50.87, -43.01 54.7 M-35.24 30.94 C-38.33 38.56, -40.07 44.7, -43.01 54.7" stroke="#1e1e1e" stroke-width="2" fill="none"></path></g><g transform="translate(1553.6378210289135 117.18122355871066) rotate(0 -20.869278835935688 26.608330515817855)"><path d="M-21.78 41.5 C-29.75 46.1, -37.97 53.32, -43.01 54.7 M-21.78 41.5 C-28.94 45.91, -34.71 48.88, -43.01 54.7" stroke="#1e1e1e" stroke-width="2" fill="none"></path></g></g><mask></mask><g stroke-linecap="round"><g transform="translate(1844.6846754645867 342.9703697557432) rotate(0 -24.77088991763992 25.320387889357335)"><path d="M-0.21 -0.03 C-8.21 8.4, -40.31 42.26, -48.45 50.63 M-1.79 -1.1 C-9.81 7.54, -40.86 43.43, -48.82 52.17" stroke="#1e1e1e" stroke-width="2" fill="none"></path></g><g transform="translate(1844.6846754645867 342.9703697557432) rotate(0 -24.77088991763992 25.320387889357335)"><path d="M-39.64 28.91 C-42.1 36.81, -44.46 41.86, -48.82 52.17 M-39.64 28.91 C-42.53 34.65, -44.89 42.21, -48.82 52.17" stroke="#1e1e1e" stroke-width="2" fill="none"></path></g><g transform="translate(1844.6846754645867 342.9703697557432) rotate(0 -24.77088991763992 25.320387889357335)"><path d="M-26.84 40.25 C-32.65 45.15, -38.36 47.24, -48.82 52.17 M-26.84 40.25 C-33.01 43.07, -38.74 47.64, -48.82 52.17" stroke="#1e1e1e" stroke-width="2" fill="none"></path></g></g><mask></mask><g transform="translate(1010.5212476408204 179.8577869897066) rotate(0 15.0029296875 20.700000000000003)"><text x="0" y="33.120703125" font-family="Helvetica, Segoe UI Emoji" font-size="36px" fill="#1e1e1e" text-anchor="start" style="white-space: pre;" direction="ltr" dominant-baseline="alphabetic">...</text></g><g transform="translate(1010.5212476408202 399.958057555888) rotate(0 15.0029296875 20.69999999999999)"><text x="0" y="33.120703125" font-family="Helvetica, Segoe UI Emoji" font-size="36px" fill="#1e1e1e" text-anchor="start" style="white-space: pre;" direction="ltr" dominant-baseline="alphabetic">...</text></g><g stroke-linecap="round" transform="translate(1698.377113345215 392.80409827210906) rotate(0 44.5 44.5)"><path d="M22.25 0 C37.72 0.53, 47.77 -0.89, 66.75 0 C79.48 0.18, 86.96 5.33, 89 22.25 C89.04 37.63, 88.21 51.89, 89 66.75 C85.8 81.55, 80.46 90.48, 66.75 89 C55.23 88.31, 47.1 92.41, 22.25 89 C10.34 92.21, 3.52 83.23, 0 66.75 C2.26 53.17, -3.13 46.28, 0 22.25 C0.89 9.61, 5.02 -3.35, 22.25 0" stroke="none" stroke-width="0" fill="#ffc9c9"></path><path d="M22.25 0 C31.6 2, 41.85 0.79, 66.75 0 M22.25 0 C38.25 0.09, 56.96 0.01, 66.75 0 M66.75 0 C82.07 1.58, 88.2 6.17, 89 22.25 M66.75 0 C83.48 1.54, 90.72 5.18, 89 22.25 M89 22.25 C90.52 32.68, 88.93 40.21, 89 66.75 M89 22.25 C89.27 35.06, 89.08 47.38, 89 66.75 M89 66.75 C87.27 81.05, 80.34 88.75, 66.75 89 M89 66.75 C88.55 81.29, 79.57 90.09, 66.75 89 M66.75 89 C51.07 89.87, 32.52 88.31, 22.25 89 M66.75 89 C50.49 88.86, 36.89 88.35, 22.25 89 M22.25 89 C9.22 88.78, 1.3 79.89, 0 66.75 M22.25 89 C5.46 90.35, 2.04 81.4, 0 66.75 M0 66.75 C0.72 55.05, 1.58 43.1, 0 22.25 M0 66.75 C-0.88 54.82, 0.2 43.43, 0 22.25 M0 22.25 C1.5 8.78, 5.92 -1.73, 22.25 0 M0 22.25 C-1.66 9.21, 7.49 -0.21, 22.25 0" stroke="#1e1e1e" stroke-width="2" fill="none"></path></g><g stroke-linecap="round"><g transform="translate(1692.0847432145579 430.04804539630084) rotate(0 -76.18855519598594 0)"><path d="M0.46 0.24 C-24.9 0.27, -127.2 -0.04, -152.55 0 M-0.75 -0.69 C-26.26 -0.42, -128.37 1.7, -153.59 1.54" stroke="#1e1e1e" stroke-width="2" fill="none"></path></g><g transform="translate(1692.0847432145579 430.04804539630084) rotate(0 -76.18855519598594 0)"><path d="M-130.18 -7.23 C-136.09 -5.08, -142.77 -1.26, -153.59 1.54 M-130.18 -7.23 C-137.12 -4.14, -146.87 -0.24, -153.59 1.54" stroke="#1e1e1e" stroke-width="2" fill="none"></path></g><g transform="translate(1692.0847432145579 430.04804539630084) rotate(0 -76.18855519598594 0)"><path d="M-130.02 9.87 C-135.94 7.43, -142.66 6.66, -153.59 1.54 M-130.02 9.87 C-137.13 7.18, -146.94 5.29, -153.59 1.54" stroke="#1e1e1e" stroke-width="2" fill="none"></path></g></g><mask></mask><g stroke-linecap="round"><g transform="translate(1696.9221117984298 442.1414668559812) rotate(0 -79.81658163388988 65.30447588227366)"><path d="M0.43 0.67 C-26.44 22.3, -133.58 108.54, -160.18 130.37 M-0.81 -0.02 C-27.97 21.74, -134.93 110.14, -161.41 131.78" stroke="#1e1e1e" stroke-width="2" fill="none"></path></g><g transform="translate(1696.9221117984298 442.1414668559812) rotate(0 -79.81658163388988 65.30447588227366)"><path d="M-148.69 110.25 C-152.36 117.68, -158.78 127.63, -161.41 131.78 M-148.69 110.25 C-154.12 118.05, -157.55 127.12, -161.41 131.78" stroke="#1e1e1e" stroke-width="2" fill="none"></path></g><g transform="translate(1696.9221117984298 442.1414668559812) rotate(0 -79.81658163388988 65.30447588227366)"><path d="M-137.83 123.46 C-145.74 125.84, -156.34 130.71, -161.41 131.78 M-137.83 123.46 C-147.36 126.13, -154.96 130.14, -161.41 131.78" stroke="#1e1e1e" stroke-width="2" fill="none"></path></g></g><mask></mask><g stroke-linecap="round" transform="translate(180.56355156006987 1024.1624026624495) rotate(0 44.5 44.5)"><path d="M22.25 0 C37.09 1.67, 55.41 0.01, 66.75 0 C78.78 -3.11, 91.91 9.18, 89 22.25 C88.69 31.53, 90.13 45.31, 89 66.75 C92.25 82.73, 82.96 91.71, 66.75 89 C54.59 88.24, 46.74 91.52, 22.25 89 C10.58 89.06, -1.74 83.23, 0 66.75 C3.45 52.01, 3.68 41.78, 0 22.25 C-1.15 10.26, 9.56 2.81, 22.25 0" stroke="none" stroke-width="0" fill="#a5d8ff"></path><path d="M22.25 0 C31.44 -1.16, 43.73 -0.92, 66.75 0 M22.25 0 C32.38 -0.89, 43.28 -0.16, 66.75 0 M66.75 0 C82.89 0.96, 88.23 7.4, 89 22.25 M66.75 0 C81.25 0.94, 89.7 6.22, 89 22.25 M89 22.25 C89.96 32.62, 88.28 46.65, 89 66.75 M89 22.25 C89.32 35, 88.67 46.13, 89 66.75 M89 66.75 C87.24 81.91, 83.41 87.29, 66.75 89 M89 66.75 C87.54 83.73, 83.63 88.01, 66.75 89 M66.75 89 C52.02 88.74, 36.51 88.15, 22.25 89 M66.75 89 C52.2 89.38, 38.77 89.1, 22.25 89 M22.25 89 C7.18 89.08, -0.8 81.94, 0 66.75 M22.25 89 C7.76 89.37, 0.75 81.39, 0 66.75 M0 66.75 C-1.69 57.31, 1.97 47.29, 0 22.25 M0 66.75 C-0.34 56.48, -0.49 48.77, 0 22.25 M0 22.25 C-0.65 7.79, 7.19 0.68, 22.25 0 M0 22.25 C1.97 5.22, 6.64 1.62, 22.25 0" stroke="#1e1e1e" stroke-width="2" fill="none"></path></g><g stroke-linecap="round"><g transform="translate(171.3874674316213 1061.6054260086448) rotate(0 -44.753309671677414 -0.6720622819821642)"><path d="M-0.62 0.08 C-15.67 -0.14, -75.17 -2.16, -89.98 -2.2 M1.26 -0.93 C-14.03 -0.94, -75.93 -0.95, -91.18 -1.11" stroke="#1e1e1e" stroke-width="2" fill="none"></path></g><g transform="translate(171.3874674316213 1061.6054260086448) rotate(0 -44.753309671677414 -0.6720622819821642)"><path d="M-67.64 -9.55 C-75.34 -7.68, -84.66 -4.06, -91.18 -1.11 M-67.64 -9.55 C-76.26 -6.06, -85.61 -2.51, -91.18 -1.11" stroke="#1e1e1e" stroke-width="2" fill="none"></path></g><g transform="translate(171.3874674316213 1061.6054260086448) rotate(0 -44.753309671677414 -0.6720622819821642)"><path d="M-67.73 7.55 C-75.27 3.78, -84.56 1.75, -91.18 -1.11 M-67.73 7.55 C-76.3 4.27, -85.62 1.07, -91.18 -1.11" stroke="#1e1e1e" stroke-width="2" fill="none"></path></g></g><mask></mask><g stroke-linecap="round" transform="translate(472.0474957977036 1022.774755351839) rotate(0 44.5 44.5)"><path d="M22.25 0 C33.93 -2.94, 54.11 1.93, 66.75 0 C78.92 3.44, 89.08 6.34, 89 22.25 C92.33 35.8, 90.45 49.76, 89 66.75 C87.17 78.7, 81.68 87.93, 66.75 89 C57.53 89.61, 40.25 91.2, 22.25 89 C6.77 86.67, 2.8 84.51, 0 66.75 C-1.85 58.95, 1.44 48.26, 0 22.25 C1.45 9.34, 8.98 -2.46, 22.25 0" stroke="none" stroke-width="0" fill="#a5d8ff"></path><path d="M22.25 0 C31.88 0.22, 46.27 0.11, 66.75 0 M22.25 0 C34.19 0.36, 44.45 -0.12, 66.75 0 M66.75 0 C81.29 0.82, 89.61 6.37, 89 22.25 M66.75 0 C80.87 1.02, 90.65 8.3, 89 22.25 M89 22.25 C88.19 30.67, 87.76 43.03, 89 66.75 M89 22.25 C88.11 39.06, 89.9 54.69, 89 66.75 M89 66.75 C87.73 83.45, 83.37 88.14, 66.75 89 M89 66.75 C89.95 80.11, 82.85 89.54, 66.75 89 M66.75 89 C54.65 89.29, 40.37 86.95, 22.25 89 M66.75 89 C49.69 89.27, 32.46 89.41, 22.25 89 M22.25 89 C7.72 89.32, 0.65 81.42, 0 66.75 M22.25 89 C5.47 87.65, 0.16 79.34, 0 66.75 M0 66.75 C-2.19 55.09, -1.64 39.64, 0 22.25 M0 66.75 C-0.3 57.74, -0.09 48.7, 0 22.25 M0 22.25 C1.71 5.51, 6.74 1.41, 22.25 0 M0 22.25 C0.79 8.69, 5.25 -0.02, 22.25 0" stroke="#1e1e1e" stroke-width="2" fill="none"></path></g><g stroke-linecap="round"><g transform="translate(455.91798889138784 1064.1520080005234) rotate(0 -90.28470850056635 0.296690884589907)"><path d="M-0.04 -0.55 C-30 -0.59, -149.78 0.62, -179.73 0.91 M-1.52 1.77 C-31.57 1.86, -150.47 -0.61, -180.24 -1.05" stroke="#1e1e1e" stroke-width="2" fill="none"></path></g><g transform="translate(455.91798889138784 1064.1520080005234) rotate(0 -90.28470850056635 0.296690884589907)"><path d="M-156.6 -9.18 C-164.59 -5.34, -170.29 -2.97, -180.24 -1.05 M-156.6 -9.18 C-165.01 -5.94, -172.79 -4.04, -180.24 -1.05" stroke="#1e1e1e" stroke-width="2" fill="none"></path></g><g transform="translate(455.91798889138784 1064.1520080005234) rotate(0 -90.28470850056635 0.296690884589907)"><path d="M-156.91 7.92 C-164.97 6.59, -170.57 3.8, -180.24 -1.05 M-156.91 7.92 C-165.14 5.21, -172.81 1.16, -180.24 -1.05" stroke="#1e1e1e" stroke-width="2" fill="none"></path></g></g><mask></mask><g transform="translate(56.0393080790401 935.665064175778) rotate(0 17.0068359375 20.69999999999999)"><text x="0" y="33.120703125" font-family="Helvetica, Segoe UI Emoji" font-size="36px" fill="#1e1e1e" text-anchor="start" style="white-space: pre;" direction="ltr" dominant-baseline="alphabetic">A:</text></g><g stroke-linecap="round" transform="translate(183.76412633930124 1395.5636368014234) rotate(0 44.5 44.5)"><path d="M22.25 0 C39.08 0.6, 60.41 3.49, 66.75 0 C82.73 1.37, 91.71 5.58, 89 22.25 C88.24 34.2, 91.52 44.99, 89 66.75 C89.06 79.84, 83.23 88.35, 66.75 89 C54.09 92.82, 45.94 88.5, 22.25 89 C10.26 91.15, 2.81 83.03, 0 66.75 C2.32 49.14, -3.09 34.52, 0 22.25 C-0.44 6.68, 6.64 -3.03, 22.25 0" stroke="none" stroke-width="0" fill="#ffc9c9"></path><path d="M22.25 0 C39.66 -1.06, 55.13 -0.58, 66.75 0 M22.25 0 C37.11 0.68, 53.3 0.61, 66.75 0 M66.75 0 C79.97 -0.91, 89.45 6.81, 89 22.25 M66.75 0 C80.03 -1.19, 90.43 9.12, 89 22.25 M89 22.25 C89.27 37.27, 87.23 47.37, 89 66.75 M89 22.25 C89.81 39.12, 89.95 57.5, 89 66.75 M89 66.75 C88.5 81.73, 80.49 89.13, 66.75 89 M89 66.75 C89.62 79.37, 79.5 90.86, 66.75 89 M66.75 89 C56.58 88.14, 46.61 89.25, 22.25 89 M66.75 89 C51.83 88.38, 38.68 87.99, 22.25 89 M22.25 89 C7.55 90.71, -0.3 79.78, 0 66.75 M22.25 89 C9.71 87.55, 0.23 79.43, 0 66.75 M0 66.75 C0.07 53.38, 0.37 42.17, 0 22.25 M0 66.75 C0.49 58.2, -0.79 48.54, 0 22.25 M0 22.25 C0.51 9.32, 7 -1.55, 22.25 0 M0 22.25 C-1.99 9.28, 8.54 -1.7, 22.25 0" stroke="#1e1e1e" stroke-width="2" fill="none"></path></g><g stroke-linecap="round"><g transform="translate(174.58804221085222 1433.0066601476187) rotate(0 -44.753309671677414 -0.6720622819821074)"><path d="M-0.46 -0.01 C-15.54 -0.25, -74.9 -0.53, -89.68 -0.85 M1.49 -1.06 C-13.82 -1.71, -75.52 -2.73, -90.72 -2.72" stroke="#1e1e1e" stroke-width="2" fill="none"></path></g><g transform="translate(174.58804221085222 1433.0066601476187) rotate(0 -44.753309671677414 -0.6720622819821074)"><path d="M-67.15 -11.04 C-75.73 -8.38, -83.51 -4.45, -90.72 -2.72 M-67.15 -11.04 C-72.3 -8.49, -79.66 -7.27, -90.72 -2.72" stroke="#1e1e1e" stroke-width="2" fill="none"></path></g><g transform="translate(174.58804221085222 1433.0066601476187) rotate(0 -44.753309671677414 -0.6720622819821074)"><path d="M-67.31 6.06 C-75.92 2.47, -83.63 0.16, -90.72 -2.72 M-67.31 6.06 C-72.37 4.37, -79.69 1.35, -90.72 -2.72" stroke="#1e1e1e" stroke-width="2" fill="none"></path></g></g><mask></mask><g stroke-linecap="round" transform="translate(475.24807057693454 1394.1759894908132) rotate(0 44.5 44.5)"><path d="M22.25 0 C37.2 0.65, 52.56 -2.56, 66.75 0 C78.7 0.1, 87.93 6.63, 89 22.25 C89.61 36.53, 91.2 53.64, 89 66.75 C86.67 84.38, 84.51 86.82, 66.75 89 C52.34 90.89, 35.04 90.19, 22.25 89 C9.34 90.56, -2.46 84.25, 0 66.75 C0.17 54.99, -0.17 41.67, 0 22.25 C-2.07 7.4, 6.55 0.81, 22.25 0" stroke="none" stroke-width="0" fill="#ffc9c9"></path><path d="M22.25 0 C34.7 0.67, 44.47 -0.55, 66.75 0 M22.25 0 C36.78 -0.63, 53.13 -0.47, 66.75 0 M66.75 0 C80.24 -1.04, 90.24 8.9, 89 22.25 M66.75 0 C81.5 -0.3, 86.98 7.79, 89 22.25 M89 22.25 C90.49 41.44, 87.76 57.9, 89 66.75 M89 22.25 C88.99 32.83, 88.7 43.33, 89 66.75 M89 66.75 C89.54 79.66, 79.77 90.61, 66.75 89 M89 66.75 C87.4 82.81, 81.31 89.09, 66.75 89 M66.75 89 C55.51 89.71, 43.46 87.37, 22.25 89 M66.75 89 C56.08 89.42, 45.12 87.66, 22.25 89 M22.25 89 C9.41 87.74, 0.2 79.72, 0 66.75 M22.25 89 C7.31 90.57, -0.74 82.01, 0 66.75 M0 66.75 C-2.06 53.22, 1.26 41.73, 0 22.25 M0 66.75 C0.67 51.89, 0.21 34.36, 0 22.25 M0 22.25 C-1.73 9.03, 8.39 -1.48, 22.25 0 M0 22.25 C2.2 7.47, 6.73 -0.49, 22.25 0" stroke="#1e1e1e" stroke-width="2" fill="none"></path></g><g stroke-linecap="round"><g transform="translate(464.93108267005175 1437.4907484726418) rotate(0 -94.15972116685481 -0.6720622819822211)"><path d="M0.36 -0.63 C-31.06 -0.84, -157.39 -0.77, -188.69 -0.81 M-0.9 1.66 C-32.5 1.04, -158.69 -1.88, -189.83 -2.65" stroke="#1e1e1e" stroke-width="2" fill="none"></path></g><g transform="translate(464.93108267005175 1437.4907484726418) rotate(0 -94.15972116685481 -0.6720622819822211)"><path d="M-166.14 -10.64 C-173.92 -8.91, -178.75 -4.58, -189.83 -2.65 M-166.14 -10.64 C-174 -8.35, -182.91 -5.86, -189.83 -2.65" stroke="#1e1e1e" stroke-width="2" fill="none"></path></g><g transform="translate(464.93108267005175 1437.4907484726418) rotate(0 -94.15972116685481 -0.6720622819822211)"><path d="M-166.55 6.45 C-174.28 3.31, -178.99 2.76, -189.83 -2.65 M-166.55 6.45 C-174.13 2.96, -182.9 -0.33, -189.83 -2.65" stroke="#1e1e1e" stroke-width="2" fill="none"></path></g></g><mask></mask><g transform="translate(56.82119856633528 1350.5496311493803) rotate(0 17.0068359375 20.700000000000045)"><text x="0" y="33.120703125" font-family="Helvetica, Segoe UI Emoji" font-size="36px" fill="#1e1e1e" text-anchor="start" style="white-space: pre;" direction="ltr" dominant-baseline="alphabetic">B:</text></g><g stroke-linecap="round"><g transform="translate(518.6989107295745 1121.524932679877) rotate(0 0 133.25048131895983)"><path d="M0.86 0.46 C0.76 44.7, -0.87 221.67, -0.97 265.95" stroke="#1e1e1e" stroke-width="2.5" fill="none" stroke-dasharray="8 10"></path></g><g transform="translate(518.6989107295745 1121.524932679877) rotate(0 0 133.25048131895983)"><path d="M-9.37 242.41 C-6.24 247.08, -5.66 255.47, -0.97 265.95" stroke="#1e1e1e" stroke-width="2.5" fill="none"></path></g><g transform="translate(518.6989107295745 1121.524932679877) rotate(0 0 133.25048131895983)"><path d="M7.73 242.51 C6.26 247.27, 2.24 255.64, -0.97 265.95" stroke="#1e1e1e" stroke-width="2.5" fill="none"></path></g></g><mask></mask><g stroke-linecap="round" transform="translate(477.52619075544374 1542.8932847411957) rotate(0 44.5 44.5)"><path d="M22.25 0 C37.88 2.68, 52.36 0.23, 66.75 0 C79.84 1.65, 88.35 5.09, 89 22.25 C92.82 39.2, 88.5 58.72, 89 66.75 C91.15 84.39, 83.03 90.93, 66.75 89 C49.59 86.85, 35.43 89.15, 22.25 89 C6.68 88.22, -3.03 79.51, 0 66.75 C1.65 53.11, 3.01 42.3, 0 22.25 C0.99 6.38, 5.21 -0.82, 22.25 0" stroke="none" stroke-width="0" fill="#ffc9c9"></path><path d="M22.25 0 C37.87 0.81, 54.72 -0.99, 66.75 0 M22.25 0 C33.26 -0.46, 43.46 -0.17, 66.75 0 M66.75 0 C83.41 -1.71, 87.73 9.28, 89 22.25 M66.75 0 C83.63 -0.99, 89.95 5.95, 89 22.25 M89 22.25 C89.26 36.96, 89.24 54.38, 89 66.75 M89 22.25 C87.9 31.84, 88.48 40.41, 89 66.75 M89 66.75 C88.2 81.94, 81.88 89.32, 66.75 89 M89 66.75 C89.75 81.39, 79.64 87.65, 66.75 89 M66.75 89 C54.79 88.73, 37.61 91.02, 22.25 89 M66.75 89 C56.15 89.27, 45.32 88.77, 22.25 89 M22.25 89 C7.19 89.68, 1.71 79.67, 0 66.75 M22.25 89 C6.64 90.62, 0.79 82.85, 0 66.75 M0 66.75 C1.9 57.17, -1.55 46.69, 0 22.25 M0 66.75 C0.74 49.83, -0.52 32.64, 0 22.25 M0 22.25 C0.2 9.06, 9.22 0.64, 22.25 0 M0 22.25 C0.88 9.15, 6.25 -1.84, 22.25 0" stroke="#1e1e1e" stroke-width="2" fill="none"></path></g><g stroke-linecap="round"><g transform="translate(476.52619075544374 1578.427497885869) rotate(0 -100.97653900101966 -50.591143833909655)"><path d="M0.27 -0.36 C-33.36 -17.24, -169.18 -85.15, -202.76 -101.8 M-1.05 -1.6 C-34.22 -18.28, -167.05 -83.83, -200.47 -100.59" stroke="#1e1e1e" stroke-width="2" fill="none"></path></g><g transform="translate(476.52619075544374 1578.427497885869) rotate(0 -100.97653900101966 -50.591143833909655)"><path d="M-175.63 -97.79 C-181.68 -99.7, -187.56 -97.73, -200.47 -100.59 M-175.63 -97.79 C-185.8 -98.71, -193.31 -100.77, -200.47 -100.59" stroke="#1e1e1e" stroke-width="2" fill="none"></path></g><g transform="translate(476.52619075544374 1578.427497885869) rotate(0 -100.97653900101966 -50.591143833909655)"><path d="M-183.24 -82.48 C-187.55 -87.76, -191.76 -89.15, -200.47 -100.59 M-183.24 -82.48 C-190.56 -89.12, -195.22 -96.91, -200.47 -100.59" stroke="#1e1e1e" stroke-width="2" fill="none"></path></g></g><mask></mask><g stroke-linecap="round"><g transform="translate(516.2136717560116 1701.7061583967038) rotate(0 0 -30.031348163735288)"><path d="M-0.81 -0.62 C-0.73 -10.42, 0.62 -49.24, 0.74 -59.17 M0.97 1.67 C0.93 -8.43, 0.49 -50.72, 0.19 -60.83" stroke="#1e1e1e" stroke-width="2" fill="none"></path></g><g transform="translate(516.2136717560116 1701.7061583967038) rotate(0 0 -30.031348163735288)"><path d="M9.17 -37.5 C5.31 -43.84, 4.93 -52.67, 0.19 -60.83 M9.17 -37.5 C7.71 -45.04, 3.58 -49.94, 0.19 -60.83" stroke="#1e1e1e" stroke-width="2" fill="none"></path></g><g transform="translate(516.2136717560116 1701.7061583967038) rotate(0 0 -30.031348163735288)"><path d="M-7.93 -37.18 C-6.28 -43.51, -1.14 -52.44, 0.19 -60.83 M-7.93 -37.18 C-4.48 -44.84, -3.7 -49.84, 0.19 -60.83" stroke="#1e1e1e" stroke-width="2" fill="none"></path></g></g><mask></mask><g transform="translate(502.6511274240021 1723.0187280612904) rotate(0 12.005859375 20.700000000000045)"><text x="0" y="33.120703125" font-family="Helvetica, Segoe UI Emoji" font-size="36px" fill="#1e1e1e" text-anchor="start" style="white-space: pre;" direction="ltr" dominant-baseline="alphabetic">X</text></g><g transform="translate(673.0528284266314 1562.3430525595518) rotate(0 68.4580078125 20.700000000000045)"><text x="0" y="33.120703125" font-family="Helvetica, Segoe UI Emoji" font-size="36px" fill="#1e1e1e" text-anchor="start" style="white-space: pre;" direction="ltr" dominant-baseline="alphabetic">B's main</text></g><g transform="translate(576.3708824323459 924.4068927510647) rotate(0 68.4580078125 20.69999999999999)"><text x="0" y="33.120703125" font-family="Helvetica, Segoe UI Emoji" font-size="36px" fill="#1e1e1e" text-anchor="start" style="white-space: pre;" direction="ltr" dominant-baseline="alphabetic">A's main</text></g><g stroke-linecap="round"><g transform="translate(587.373446400457 968.5580943202034) rotate(0 -20.869278835935688 26.60833051581784)"><path d="M1.09 -1.03 C-5.81 8, -35.54 45.38, -42.5 54.34 M0.21 1.05 C-6.22 9.75, -33.34 44.02, -40.18 52.8" stroke="#1e1e1e" stroke-width="2" fill="none"></path></g><g transform="translate(587.373446400457 968.5580943202034) rotate(0 -20.869278835935688 26.60833051581784)"><path d="M-32.4 29.05 C-35.72 32.89, -33.8 40.98, -40.18 52.8 M-32.4 29.05 C-33.75 35.34, -36.55 41.28, -40.18 52.8" stroke="#1e1e1e" stroke-width="2" fill="none"></path></g><g transform="translate(587.373446400457 968.5580943202034) rotate(0 -20.869278835935688 26.60833051581784)"><path d="M-18.95 39.61 C-25.15 41.34, -26.07 47.19, -40.18 52.8 M-18.95 39.61 C-23.8 43.1, -30.06 46.33, -40.18 52.8" stroke="#1e1e1e" stroke-width="2" fill="none"></path></g></g><mask></mask><g stroke-linecap="round"><g transform="translate(771.7946199389054 1560.3583296566453) rotate(0 0.001424472769372187 -32.20578916947602)"><path d="M-0.76 1.12 C-0.76 -9.53, 0.86 -53.88, 1.07 -64.93 M1.04 0.66 C0.88 -9.74, 0.86 -52.84, 0.69 -63.66" stroke="#1e1e1e" stroke-width="2" fill="none"></path></g><g transform="translate(771.7946199389054 1560.3583296566453) rotate(0 0.001424472769372187 -32.20578916947602)"><path d="M9.41 -40.23 C8.07 -47.67, 1.92 -57.79, 0.69 -63.66 M9.41 -40.23 C6.97 -45.67, 4.62 -51.21, 0.69 -63.66" stroke="#1e1e1e" stroke-width="2" fill="none"></path></g><g transform="translate(771.7946199389054 1560.3583296566453) rotate(0 0.001424472769372187 -32.20578916947602)"><path d="M-7.69 -40.11 C-2.34 -47.49, -1.8 -57.65, 0.69 -63.66 M-7.69 -40.11 C-6.09 -45.61, -4.41 -51.19, 0.69 -63.66" stroke="#1e1e1e" stroke-width="2" fill="none"></path></g></g><mask></mask><g transform="translate(44.25687301236405 1031.2346577511994) rotate(0 15.0029296875 20.69999999999999)"><text x="0" y="33.120703125" font-family="Helvetica, Segoe UI Emoji" font-size="36px" fill="#1e1e1e" text-anchor="start" style="white-space: pre;" direction="ltr" dominant-baseline="alphabetic">...</text></g><g transform="translate(44.2568730123636 1406.3349283173807) rotate(0 15.0029296875 20.700000000000045)"><text x="0" y="33.120703125" font-family="Helvetica, Segoe UI Emoji" font-size="36px" fill="#1e1e1e" text-anchor="start" style="white-space: pre;" direction="ltr" dominant-baseline="alphabetic">...</text></g><g stroke-linecap="round" transform="translate(732.1127387167586 1399.1809690336017) rotate(0 44.5 44.5)"><path d="M22.25 0 C35.65 -3.33, 52.05 -1.03, 66.75 0 C80.85 -0.78, 85.97 5.34, 89 22.25 C90.27 35.27, 91.63 51.12, 89 66.75 C89.99 80.54, 79.38 88.18, 66.75 89 C53.77 91.13, 38.17 89.39, 22.25 89 C5.09 85.53, -0.23 84.79, 0 66.75 C1.95 46.68, -3.13 31.17, 0 22.25 C-1.95 7.18, 9.18 1.59, 22.25 0" stroke="none" stroke-width="0" fill="#ffc9c9"></path><path d="M22.25 0 C38.2 -0.98, 53.98 0.65, 66.75 0 M22.25 0 C30.61 0.17, 40.25 -0.32, 66.75 0 M66.75 0 C80.78 0.35, 89.3 7.74, 89 22.25 M66.75 0 C82.33 -0.19, 87.05 6.07, 89 22.25 M89 22.25 C90.27 35.62, 86.76 51.57, 89 66.75 M89 22.25 C89 33.49, 88.72 43.54, 89 66.75 M89 66.75 C88.78 82.26, 83.3 87.09, 66.75 89 M89 66.75 C88.22 83.21, 82.37 90.27, 66.75 89 M66.75 89 C59.48 88.7, 46.86 87.38, 22.25 89 M66.75 89 C50.76 88.69, 32.56 88.46, 22.25 89 M22.25 89 C7.62 90.64, 1.81 82.22, 0 66.75 M22.25 89 C8.29 90.73, -1.17 79.74, 0 66.75 M0 66.75 C1.33 54.67, 1.89 39.83, 0 22.25 M0 66.75 C-0.85 56.33, 0.61 43.75, 0 22.25 M0 22.25 C1.76 7.49, 6.78 1.58, 22.25 0 M0 22.25 C1.37 9.21, 8.34 1.23, 22.25 0" stroke="#1e1e1e" stroke-width="2" fill="none"></path></g><g stroke-linecap="round"><g transform="translate(725.8203685861014 1436.4249161577936) rotate(0 -76.18855519598594 0)"><path d="M-0.65 0.08 C-25.95 -0.13, -126.59 -1.3, -152.05 -1.16 M1.2 -0.93 C-24.19 -1.04, -127.44 -0.24, -152.83 -0.23" stroke="#1e1e1e" stroke-width="2" fill="none"></path></g><g transform="translate(725.8203685861014 1436.4249161577936) rotate(0 -76.18855519598594 0)"><path d="M-129.38 -8.88 C-135.69 -6.09, -144.19 -6.06, -152.83 -0.23 M-129.38 -8.88 C-138.49 -5.42, -147.7 -1.99, -152.83 -0.23" stroke="#1e1e1e" stroke-width="2" fill="none"></path></g><g transform="translate(725.8203685861014 1436.4249161577936) rotate(0 -76.18855519598594 0)"><path d="M-129.3 8.22 C-135.64 6.31, -144.17 1.64, -152.83 -0.23 M-129.3 8.22 C-138.32 5.17, -147.56 2.09, -152.83 -0.23" stroke="#1e1e1e" stroke-width="2" fill="none"></path></g></g><mask></mask><g stroke-linecap="round"><g transform="translate(730.6577371699733 1448.5183376174741) rotate(0 -79.81658163388988 65.30447588227366)"><path d="M0.32 -1.16 C-26.36 20.76, -133.92 109.51, -160.72 131.58 M-0.97 0.85 C-27.23 22.44, -132.4 108.57, -158.58 129.96" stroke="#1e1e1e" stroke-width="2" fill="none"></path></g><g transform="translate(730.6577371699733 1448.5183376174741) rotate(0 -79.81658163388988 65.30447588227366)"><path d="M-145.81 108.47 C-150.86 111.97, -150.45 117.66, -158.58 129.96 M-145.81 108.47 C-150.75 116.24, -154.7 123.82, -158.58 129.96" stroke="#1e1e1e" stroke-width="2" fill="none"></path></g><g transform="translate(730.6577371699733 1448.5183376174741) rotate(0 -79.81658163388988 65.30447588227366)"><path d="M-134.98 121.7 C-142.7 121.98, -144.95 124.43, -158.58 129.96 M-134.98 121.7 C-143.73 124.81, -151.51 127.71, -158.58 129.96" stroke="#1e1e1e" stroke-width="2" fill="none"></path></g></g><mask></mask><g stroke-linecap="round" transform="translate(735.7407651546622 1154.6896502319682) rotate(0 44.5 44.5)"><path d="M22.25 0 C35.65 -1.21, 47.44 1.69, 66.75 0 C79.41 -2.41, 86.11 7.44, 89 22.25 C87.68 29.29, 86.21 44.81, 89 66.75 C87.77 78.14, 79.72 91.3, 66.75 89 C55.46 90.08, 42.08 89.38, 22.25 89 C4.55 92.55, 0.85 82.02, 0 66.75 C2.53 50.75, -0.73 34.15, 0 22.25 C1.42 4.6, 6.61 -1.53, 22.25 0" stroke="none" stroke-width="0" fill="#a5d8ff"></path><path d="M22.25 0 C34.14 1.66, 41.2 -0.26, 66.75 0 M22.25 0 C33.97 1.37, 47.44 0.13, 66.75 0 M66.75 0 C82.45 0.39, 88.39 5.46, 89 22.25 M66.75 0 C81.97 1.61, 89.88 9.26, 89 22.25 M89 22.25 C88.59 30.91, 88 41.52, 89 66.75 M89 22.25 C89.45 38.95, 88.47 53.51, 89 66.75 M89 66.75 C88.54 81.35, 83.56 89.51, 66.75 89 M89 66.75 C87.28 82.24, 80.73 87.83, 66.75 89 M66.75 89 C53.02 90.06, 36.54 90.49, 22.25 89 M66.75 89 C57.17 88.62, 45.32 88.53, 22.25 89 M22.25 89 C7.49 87.66, -0.25 83.13, 0 66.75 M22.25 89 C8.51 88.15, -2.19 79.88, 0 66.75 M0 66.75 C-0.82 54.75, -1.89 42.69, 0 22.25 M0 66.75 C0.36 53.14, 1.31 39.55, 0 22.25 M0 22.25 C-1.4 6.68, 7.1 -0.26, 22.25 0 M0 22.25 C-1.65 7.83, 6.41 1.56, 22.25 0" stroke="#1e1e1e" stroke-width="2" fill="none"></path></g><g stroke-linecap="round"><g transform="translate(724.6110264401332 1183.3136237577146) rotate(0 -78.60723948792202 -38.72196242939253)"><path d="M-0.15 -0.86 C-26.25 -13.82, -130.96 -65.25, -157 -77.97 M-1.69 1.31 C-27.89 -11.48, -132 -63.86, -157.84 -76.71" stroke="#1e1e1e" stroke-width="2" fill="none"></path></g><g transform="translate(724.6110264401332 1183.3136237577146) rotate(0 -78.60723948792202 -38.72196242939253)"><path d="M-133 -73.84 C-140.96 -74.28, -146.95 -74.03, -157.84 -76.71 M-133 -73.84 C-141.18 -75.27, -149.78 -75.38, -157.84 -76.71" stroke="#1e1e1e" stroke-width="2" fill="none"></path></g><g transform="translate(724.6110264401332 1183.3136237577146) rotate(0 -78.60723948792202 -38.72196242939253)"><path d="M-140.65 -58.55 C-146.58 -63, -150.55 -66.78, -157.84 -76.71 M-140.65 -58.55 C-146.52 -64.83, -152.68 -69.83, -157.84 -76.71" stroke="#1e1e1e" stroke-width="2" fill="none"></path></g></g><mask></mask><g stroke-linecap="round"><g transform="translate(782.6594494465987 1245.144651778753) rotate(0 1.2093421459679803 77.39789734195404)"><path d="M0.5 -1.13 C0.66 24.59, 1.01 127.57, 1.38 153.62" stroke="#1e1e1e" stroke-width="2.5" fill="none" stroke-dasharray="8 10"></path></g><g transform="translate(782.6594494465987 1245.144651778753) rotate(0 1.2093421459679803 77.39789734195404)"><path d="M-7.36 130.19 C-6.44 136.33, -3.57 146.52, 1.38 153.62" stroke="#1e1e1e" stroke-width="2.5" fill="none"></path></g><g transform="translate(782.6594494465987 1245.144651778753) rotate(0 1.2093421459679803 77.39789734195404)"><path d="M9.74 130.05 C4.89 136.31, 1.99 146.55, 1.38 153.62" stroke="#1e1e1e" stroke-width="2.5" fill="none"></path></g></g><mask></mask><g transform="translate(685.9120777691563 1254.8193889464974) rotate(0 12.005859375 20.700000000000045)"><text x="0" y="33.120703125" font-family="Helvetica, Segoe UI Emoji" font-size="36px" fill="#1e1e1e" text-anchor="start" style="white-space: pre;" direction="ltr" dominant-baseline="alphabetic">Y</text></g><g stroke-linecap="round"><g transform="translate(721.6986532559222 1252.0619278987033) rotate(0 3.9765284366605442 -3.392833917428561)"><path d="M0.33 -0.26 C1.6 -1.34, 6.42 -5.47, 7.7 -6.53 M0.07 0.38 C1.45 -0.8, 7.08 -5.76, 8.36 -7.03" stroke="#1e1e1e" stroke-width="2" fill="none"></path></g><g transform="translate(721.6986532559222 1252.0619278987033) rotate(0 3.9765284366605442 -3.392833917428561)"><path d="M5.97 -2.38 C6.61 -4, 7.62 -5.34, 8.36 -7.03 M5.97 -2.38 C6.79 -4.02, 7.56 -5.52, 8.36 -7.03" stroke="#1e1e1e" stroke-width="2" fill="none"></path></g><g transform="translate(721.6986532559222 1252.0619278987033) rotate(0 3.9765284366605442 -3.392833917428561)"><path d="M3.54 -5.01 C4.96 -5.79, 6.75 -6.3, 8.36 -7.03 M3.54 -5.01 C5.21 -5.75, 6.81 -6.34, 8.36 -7.03" stroke="#1e1e1e" stroke-width="2" fill="none"></path></g></g><mask></mask><g stroke-linecap="round" transform="translate(1322.1825373538904 1026.4789842963394) rotate(0 44.5 44.5)"><path d="M22.25 0 C37.82 1.54, 57.21 0.12, 66.75 0 C82.19 -1.53, 87.21 6.77, 89 22.25 C90.15 40.57, 92.22 59.44, 89 66.75 C91.12 78.84, 79.39 86.02, 66.75 89 C50.78 87.08, 43.74 91.38, 22.25 89 C7.98 86.02, -1.76 81.97, 0 66.75 C2.74 58.94, 2.64 50.17, 0 22.25 C-2.52 5.91, 5.45 3.58, 22.25 0" stroke="none" stroke-width="0" fill="#a5d8ff"></path><path d="M22.25 0 C34.3 0.17, 48.07 0.26, 66.75 0 M22.25 0 C38.03 -0.25, 53.13 -0.02, 66.75 0 M66.75 0 C83.03 0.88, 88.36 8.62, 89 22.25 M66.75 0 C81.8 -0.52, 88.79 5.53, 89 22.25 M89 22.25 C90.03 34.57, 89.24 49.53, 89 66.75 M89 22.25 C88.05 38.09, 89.24 56.01, 89 66.75 M89 66.75 C88.23 80.49, 79.91 87.82, 66.75 89 M89 66.75 C88.15 79.84, 79.59 90.12, 66.75 89 M66.75 89 C54.5 90.22, 44.77 87.93, 22.25 89 M66.75 89 C50.45 88.32, 34.2 89.19, 22.25 89 M22.25 89 C8.42 88.42, 1.35 81.95, 0 66.75 M22.25 89 C9.71 90.04, -1.5 82.25, 0 66.75 M0 66.75 C1.45 55.59, 0.85 45.19, 0 22.25 M0 66.75 C-0.47 58, 0.61 47.69, 0 22.25 M0 22.25 C-0.53 7.82, 8.66 -1.06, 22.25 0 M0 22.25 C-1.87 6.25, 6.62 -1.91, 22.25 0" stroke="#1e1e1e" stroke-width="2" fill="none"></path></g><g stroke-linecap="round"><g transform="translate(1313.0064532254419 1063.9220076425347) rotate(0 -44.75330967167736 -0.6720622819821642)"><path d="M0.08 0.08 C-14.8 0.05, -74.55 -0.53, -89.37 -0.65 M-1.33 -0.92 C-16.35 -1.25, -75.59 -2.13, -90.25 -2.41" stroke="#1e1e1e" stroke-width="2" fill="none"></path></g><g transform="translate(1313.0064532254419 1063.9220076425347) rotate(0 -44.75330967167736 -0.6720622819821642)"><path d="M-66.62 -10.57 C-73.42 -7.95, -79.3 -4.73, -90.25 -2.41 M-66.62 -10.57 C-76.12 -7.37, -82.95 -4.24, -90.25 -2.41" stroke="#1e1e1e" stroke-width="2" fill="none"></path></g><g transform="translate(1313.0064532254419 1063.9220076425347) rotate(0 -44.75330967167736 -0.6720622819821642)"><path d="M-66.91 6.53 C-73.55 4.16, -79.35 2.38, -90.25 -2.41 M-66.91 6.53 C-76.28 3.56, -83 0.53, -90.25 -2.41" stroke="#1e1e1e" stroke-width="2" fill="none"></path></g></g><mask></mask><g stroke-linecap="round" transform="translate(1613.6664815915242 1025.091336985729) rotate(0 44.5 44.5)"><path d="M22.25 0 C38.91 -1.7, 52.57 -0.81, 66.75 0 C84.42 -1.46, 91.43 8.9, 89 22.25 C91.91 34.66, 87.6 49.58, 89 66.75 C88.26 81.31, 84.43 85.47, 66.75 89 C57.12 86.4, 44.59 89.77, 22.25 89 C4.36 86.67, 2.88 83.8, 0 66.75 C-2.99 49.72, -2.44 39.28, 0 22.25 C2.79 6.58, 5.09 -0.67, 22.25 0" stroke="none" stroke-width="0" fill="#a5d8ff"></path><path d="M22.25 0 C37.06 1.01, 50.78 -0.34, 66.75 0 M22.25 0 C36.41 0.33, 48.8 0.49, 66.75 0 M66.75 0 C81.77 -0.45, 88.82 5.78, 89 22.25 M66.75 0 C82.02 0.87, 87.77 8.4, 89 22.25 M89 22.25 C90.44 30.55, 90.9 39.06, 89 66.75 M89 22.25 C88.81 32.01, 88.35 42.29, 89 66.75 M89 66.75 C88.26 80.07, 79.85 89.98, 66.75 89 M89 66.75 C88.26 83.3, 82.78 88.62, 66.75 89 M66.75 89 C52.74 88.95, 37.09 89.61, 22.25 89 M66.75 89 C58.34 88.65, 49.6 89.13, 22.25 89 M22.25 89 C9.41 89.91, -1.3 82.16, 0 66.75 M22.25 89 C5.74 89.55, 0.77 83.37, 0 66.75 M0 66.75 C-1.9 54.92, -0.17 43.43, 0 22.25 M0 66.75 C-0.45 49.83, 0.43 31.98, 0 22.25 M0 22.25 C-1.63 6.4, 6.72 -1.66, 22.25 0 M0 22.25 C1.61 7.21, 9.27 -0.56, 22.25 0" stroke="#1e1e1e" stroke-width="2" fill="none"></path></g><g stroke-linecap="round"><g transform="translate(1597.5369746852084 1066.4685896344135) rotate(0 -90.28470850056635 0.296690884589907)"><path d="M-0.17 0.02 C-30.57 0.05, -151.81 0.71, -181.73 0.89 M-1.72 -1.01 C-31.82 -1.43, -149.91 -1.08, -179.63 -1.07" stroke="#1e1e1e" stroke-width="2" fill="none"></path></g><g transform="translate(1597.5369746852084 1066.4685896344135) rotate(0 -90.28470850056635 0.296690884589907)"><path d="M-156.15 -9.66 C-164.34 -8.6, -172.16 -2.19, -179.63 -1.07 M-156.15 -9.66 C-164.16 -6.79, -172.42 -4.43, -179.63 -1.07" stroke="#1e1e1e" stroke-width="2" fill="none"></path></g><g transform="translate(1597.5369746852084 1066.4685896344135) rotate(0 -90.28470850056635 0.296690884589907)"><path d="M-156.12 7.44 C-164.43 2.47, -172.26 2.85, -179.63 -1.07 M-156.12 7.44 C-164.09 4.43, -172.36 0.91, -179.63 -1.07" stroke="#1e1e1e" stroke-width="2" fill="none"></path></g></g><mask></mask><g transform="translate(1197.6582938728607 937.981645809668) rotate(0 17.0068359375 20.69999999999999)"><text x="0" y="33.120703125" font-family="Helvetica, Segoe UI Emoji" font-size="36px" fill="#1e1e1e" text-anchor="start" style="white-space: pre;" direction="ltr" dominant-baseline="alphabetic">A:</text></g><g stroke-linecap="round" transform="translate(1325.3831121331218 1397.8802184353135) rotate(0 44.5 44.5)"><path d="M22.25 0 C35.26 3.22, 48.82 1.8, 66.75 0 C78.84 -2.19, 86.02 6.68, 89 22.25 C87.08 37.13, 91.38 48.83, 89 66.75 C86.02 79.82, 81.97 85.94, 66.75 89 C58.03 91.62, 48.36 86.98, 22.25 89 C5.91 87.04, 3.58 84.38, 0 66.75 C0.47 51.9, -1.2 44.89, 0 22.25 C-2.86 8.66, 7.48 -0.49, 22.25 0" stroke="none" stroke-width="0" fill="#ffc9c9"></path><path d="M22.25 0 C32.17 -0.96, 41.53 -0.13, 66.75 0 M22.25 0 C34.79 0.74, 46.41 0.79, 66.75 0 M66.75 0 C79.7 0.07, 87.88 8.84, 89 22.25 M66.75 0 C80.6 2.16, 87.26 5.85, 89 22.25 M89 22.25 C88.22 35.84, 88.14 52.03, 89 66.75 M89 22.25 C88.29 32.98, 89.14 42.06, 89 66.75 M89 66.75 C89.98 83.46, 80.28 90.53, 66.75 89 M89 66.75 C89.27 83.21, 82.62 86.71, 66.75 89 M66.75 89 C48.62 90.57, 32.03 91.22, 22.25 89 M66.75 89 C50.65 89.37, 36.34 89.91, 22.25 89 M22.25 89 C6.36 89.96, -1.35 79.89, 0 66.75 M22.25 89 C6.46 89.05, -1.51 83.53, 0 66.75 M0 66.75 C0.35 52.77, -1.11 34.67, 0 22.25 M0 66.75 C0.85 55.57, 0.96 44.33, 0 22.25 M0 22.25 C1.21 8.55, 7.84 0.34, 22.25 0 M0 22.25 C-0.97 6.27, 7.01 1.81, 22.25 0" stroke="#1e1e1e" stroke-width="2" fill="none"></path></g><g stroke-linecap="round"><g transform="translate(1316.2070280046728 1435.3232417815088) rotate(0 -44.75330967167736 -0.6720622819821074)"><path d="M-0.38 0.72 C-15.42 0.36, -74.52 -1.11, -89.39 -1.61 M1.62 0.05 C-13.65 -0.17, -74.94 0.04, -90.28 -0.22" stroke="#1e1e1e" stroke-width="2" fill="none"></path></g><g transform="translate(1316.2070280046728 1435.3232417815088) rotate(0 -44.75330967167736 -0.6720622819821074)"><path d="M-66.74 -8.64 C-74.26 -5.39, -84.68 -2.63, -90.28 -0.22 M-66.74 -8.64 C-72.39 -6.28, -77.93 -4.84, -90.28 -0.22" stroke="#1e1e1e" stroke-width="2" fill="none"></path></g><g transform="translate(1316.2070280046728 1435.3232417815088) rotate(0 -44.75330967167736 -0.6720622819821074)"><path d="M-66.84 8.46 C-74.4 5.34, -84.78 1.74, -90.28 -0.22 M-66.84 8.46 C-72.5 7.09, -78.02 4.8, -90.28 -0.22" stroke="#1e1e1e" stroke-width="2" fill="none"></path></g></g><mask></mask><g stroke-linecap="round" transform="translate(1616.867056370755 1396.4925711247029) rotate(0 44.5 44.5)"><path d="M22.25 0 C37.24 -2.66, 54.73 -1.21, 66.75 0 C81.31 2.85, 85.47 4.87, 89 22.25 C86.4 36.15, 89.77 50.52, 89 66.75 C86.67 84.46, 83.8 90.76, 66.75 89 C49.27 86.48, 38.38 91.23, 22.25 89 C6.58 86.68, -0.67 81.54, 0 66.75 C-2.48 57.78, 0.45 45.83, 0 22.25 C-3.49 7.48, 10.05 1.93, 22.25 0" stroke="none" stroke-width="0" fill="#ffc9c9"></path><path d="M22.25 0 C33.73 -0.23, 44.48 0.34, 66.75 0 M22.25 0 C36.35 -0.16, 51.77 0.52, 66.75 0 M66.75 0 C80.72 1.88, 87.49 6.05, 89 22.25 M66.75 0 C82.57 1.65, 88.12 6.15, 89 22.25 M89 22.25 C87.23 30.14, 89.72 40.86, 89 66.75 M89 22.25 C89.72 39.87, 88.58 56.37, 89 66.75 M89 66.75 C89.24 83, 82.48 87.01, 66.75 89 M89 66.75 C91.17 81.3, 82.74 88.33, 66.75 89 M66.75 89 C51.31 88.14, 34.64 87.99, 22.25 89 M66.75 89 C51.81 89.83, 37.25 88.5, 22.25 89 M22.25 89 C6.59 89.04, -1.32 83.28, 0 66.75 M22.25 89 C8.39 89.28, -0.61 82.05, 0 66.75 M0 66.75 C-0.78 49.94, -1.42 35.91, 0 22.25 M0 66.75 C0.25 54.37, -0.15 41.03, 0 22.25 M0 22.25 C-0.85 6.42, 7.06 1.58, 22.25 0 M0 22.25 C-0.93 8.97, 8.36 0.93, 22.25 0" stroke="#1e1e1e" stroke-width="2" fill="none"></path></g><g stroke-linecap="round"><g transform="translate(1606.5500684638723 1439.8073301065315) rotate(0 -94.15972116685487 -0.6720622819821074)"><path d="M-0.11 -0.98 C-31.48 -1.09, -156.62 -0.91, -188.09 -0.89 M-1.63 1.11 C-33.14 0.67, -157.51 -2.1, -188.92 -2.77" stroke="#1e1e1e" stroke-width="2" fill="none"></path></g><g transform="translate(1606.5500684638723 1439.8073301065315) rotate(0 -94.15972116685487 -0.6720622819821074)"><path d="M-165.25 -10.81 C-174.23 -7.96, -179.15 -6.93, -188.92 -2.77 M-165.25 -10.81 C-174 -7.33, -181.99 -4.35, -188.92 -2.77" stroke="#1e1e1e" stroke-width="2" fill="none"></path></g><g transform="translate(1606.5500684638723 1439.8073301065315) rotate(0 -94.15972116685487 -0.6720622819821074)"><path d="M-165.62 6.29 C-174.44 3.85, -179.25 -0.41, -188.92 -2.77 M-165.62 6.29 C-174.08 3.9, -181.94 1.02, -188.92 -2.77" stroke="#1e1e1e" stroke-width="2" fill="none"></path></g></g><mask></mask><g transform="translate(1198.4401843601559 1352.8662127832704) rotate(0 17.0068359375 20.700000000000045)"><text x="0" y="33.120703125" font-family="Helvetica, Segoe UI Emoji" font-size="36px" fill="#1e1e1e" text-anchor="start" style="white-space: pre;" direction="ltr" dominant-baseline="alphabetic">B:</text></g><g stroke-linecap="round"><g transform="translate(1660.3178965233951 1123.8415143137672) rotate(0 0 133.25048131895983)"><path d="M-0.64 0.52 C-0.87 44.86, -1.12 222.07, -1.13 266.54" stroke="#1e1e1e" stroke-width="2.5" fill="none" stroke-dasharray="8 10"></path></g><g transform="translate(1660.3178965233951 1123.8415143137672) rotate(0 0 133.25048131895983)"><path d="M-9.66 243.04 C-5.99 248.7, -4.06 256.97, -1.13 266.54" stroke="#1e1e1e" stroke-width="2.5" fill="none"></path></g><g transform="translate(1660.3178965233951 1123.8415143137672) rotate(0 0 133.25048131895983)"><path d="M7.44 243.06 C5.66 248.62, 2.13 256.88, -1.13 266.54" stroke="#1e1e1e" stroke-width="2.5" fill="none"></path></g></g><mask></mask><g stroke-linecap="round" transform="translate(1619.1451765492643 1545.2098663750853) rotate(0 44.5 44.5)"><path d="M22.25 0 C40.99 2.31, 56.55 -2.42, 66.75 0 C79.82 0.39, 85.94 5.09, 89 22.25 C91.62 41.72, 86.98 54.56, 89 66.75 C87.04 85.16, 84.38 88.16, 66.75 89 C53.74 87.27, 48.56 86.12, 22.25 89 C8.66 89.06, -0.49 78.09, 0 66.75 C-2.78 50.91, 0.79 42.22, 0 22.25 C1.96 8.23, 5.67 -1.91, 22.25 0" stroke="none" stroke-width="0" fill="#ffc9c9"></path><path d="M22.25 0 C33.29 -0.7, 45.62 -0.44, 66.75 0 M22.25 0 C40.22 1.02, 56.94 -0.25, 66.75 0 M66.75 0 C79.91 -1.18, 88.26 5.9, 89 22.25 M66.75 0 C79.59 1.12, 88.26 9.14, 89 22.25 M89 22.25 C90.8 36.62, 90.45 53.84, 89 66.75 M89 22.25 C90.14 38.63, 89.7 54.96, 89 66.75 M89 66.75 C90.35 81.95, 83.58 89.91, 66.75 89 M89 66.75 C87.5 82.25, 79.91 89.55, 66.75 89 M66.75 89 C52.87 87.41, 35.39 87.94, 22.25 89 M66.75 89 C53.73 89.5, 39.6 89.58, 22.25 89 M22.25 89 C8.66 87.94, -1.63 80.57, 0 66.75 M22.25 89 C6.62 87.09, 1.61 81.37, 0 66.75 M0 66.75 C1.24 50.23, 0.45 32.01, 0 22.25 M0 66.75 C-0.32 56.29, 0.49 44.88, 0 22.25 M0 22.25 C1.97 9.35, 8.6 -1.52, 22.25 0 M0 22.25 C-1.4 5.51, 6.95 -0.18, 22.25 0" stroke="#1e1e1e" stroke-width="2" fill="none"></path></g><g stroke-linecap="round"><g transform="translate(1618.1451765492643 1580.744079519759) rotate(0 -100.97653900101966 -50.591143833909655)"><path d="M-0.67 0.86 C-34.23 -15.83, -168.77 -82.91, -202.47 -100.05 M1.18 0.26 C-32.48 -16.73, -170.08 -84.69, -203.69 -101.58" stroke="#1e1e1e" stroke-width="2" fill="none"></path></g><g transform="translate(1618.1451765492643 1580.744079519759) rotate(0 -100.97653900101966 -50.591143833909655)"><path d="M-178.85 -98.77 C-182.53 -100.35, -187.19 -101.58, -203.69 -101.58 M-178.85 -98.77 C-185 -99.79, -191.21 -100.48, -203.69 -101.58" stroke="#1e1e1e" stroke-width="2" fill="none"></path></g><g transform="translate(1618.1451765492643 1580.744079519759) rotate(0 -100.97653900101966 -50.591143833909655)"><path d="M-186.47 -83.46 C-188.59 -88.15, -191.68 -92.53, -203.69 -101.58 M-186.47 -83.46 C-190.92 -88.09, -195.36 -92.32, -203.69 -101.58" stroke="#1e1e1e" stroke-width="2" fill="none"></path></g></g><mask></mask><g stroke-linecap="round"><g transform="translate(1657.8326575498322 1704.022740030594) rotate(0 0 -30.031348163735288)"><path d="M-0.52 1.13 C-0.55 -9.16, -1.08 -50.83, -0.91 -60.88 M1.41 0.68 C1.81 -9.56, 1.56 -49.48, 1.33 -59.77" stroke="#1e1e1e" stroke-width="2" fill="none"></path></g><g transform="translate(1657.8326575498322 1704.022740030594) rotate(0 0 -30.031348163735288)"><path d="M10.17 -36.39 C9.73 -43.65, 4.32 -46.98, 1.33 -59.77 M10.17 -36.39 C6.14 -45.72, 3.31 -54.58, 1.33 -59.77" stroke="#1e1e1e" stroke-width="2" fill="none"></path></g><g transform="translate(1657.8326575498322 1704.022740030594) rotate(0 0 -30.031348163735288)"><path d="M-6.93 -36.18 C-3.2 -43.41, -4.43 -46.8, 1.33 -59.77 M-6.93 -36.18 C-4.61 -45.49, -1.07 -54.44, 1.33 -59.77" stroke="#1e1e1e" stroke-width="2" fill="none"></path></g></g><mask></mask><g transform="translate(1644.2701132178227 1725.33530969518) rotate(0 12.005859375 20.700000000000045)"><text x="0" y="33.120703125" font-family="Helvetica, Segoe UI Emoji" font-size="36px" fill="#1e1e1e" text-anchor="start" style="white-space: pre;" direction="ltr" dominant-baseline="alphabetic">X</text></g><g transform="translate(1809.8344456365803 1603.3585828644186) rotate(0 68.4580078125 20.700000000000045)"><text x="0" y="33.120703125" font-family="Helvetica, Segoe UI Emoji" font-size="36px" fill="#1e1e1e" text-anchor="start" style="white-space: pre;" direction="ltr" dominant-baseline="alphabetic">B's main</text></g><g stroke-linecap="round"><g transform="translate(1909.3715144867838 1601.3738599615122) rotate(0 1.3026365289961177 -51.55526350496439)"><path d="M-0.44 -0.91 C-0.02 -17.88, 1.12 -85.64, 1.56 -102.52 M1.52 1.23 C2.4 -16.03, 3.77 -86.79, 3.73 -104.34" stroke="#1e1e1e" stroke-width="2" fill="none"></path></g><g transform="translate(1909.3715144867838 1601.3738599615122) rotate(0 1.3026365289961177 -51.55526350496439)"><path d="M12.03 -80.76 C8.86 -87.62, 9.55 -91.63, 3.73 -104.34 M12.03 -80.76 C9.29 -88.67, 5.03 -97.68, 3.73 -104.34" stroke="#1e1e1e" stroke-width="2" fill="none"></path></g><g transform="translate(1909.3715144867838 1601.3738599615122) rotate(0 1.3026365289961177 -51.55526350496439)"><path d="M-5.07 -80.94 C-4.54 -87.7, -0.15 -91.67, 3.73 -104.34 M-5.07 -80.94 C-1.4 -88.76, 0.75 -97.7, 3.73 -104.34" stroke="#1e1e1e" stroke-width="2" fill="none"></path></g></g><mask></mask><g transform="translate(1185.8758588061846 1033.5512393850893) rotate(0 15.0029296875 20.69999999999999)"><text x="0" y="33.120703125" font-family="Helvetica, Segoe UI Emoji" font-size="36px" fill="#1e1e1e" text-anchor="start" style="white-space: pre;" direction="ltr" dominant-baseline="alphabetic">...</text></g><g transform="translate(1185.8758588061842 1408.6515099512703) rotate(0 15.0029296875 20.700000000000045)"><text x="0" y="33.120703125" font-family="Helvetica, Segoe UI Emoji" font-size="36px" fill="#1e1e1e" text-anchor="start" style="white-space: pre;" direction="ltr" dominant-baseline="alphabetic">...</text></g><g stroke-linecap="round" transform="translate(1873.7317245105792 1401.4975506674914) rotate(0 44.499999999999886 44.5)"><path d="M22.25 0 C30.19 -1.71, 45.97 -2.85, 66.75 0 C82.83 0.06, 88.51 3.92, 89 22.25 C87.39 33.26, 90.97 51.43, 89 66.75 C90.96 82.4, 79.84 87.09, 66.75 89 C55.6 88.23, 36.32 86.97, 22.25 89 C5.54 86.3, 2.44 80.43, 0 66.75 C-0.64 53.61, 0.79 49.58, 0 22.25 C1.67 9.46, 6.8 -0.66, 22.25 0" stroke="none" stroke-width="0" fill="#ffc9c9"></path><path d="M22.25 0 C39.8 -1.52, 55.13 0.02, 66.75 0 M22.25 0 C39.69 0.32, 55.75 0.15, 66.75 0 M66.75 0 C82.93 0.37, 91 8.32, 89 22.25 M66.75 0 C80.09 0.67, 87.32 7.96, 89 22.25 M89 22.25 C90.31 35.74, 87.66 51.1, 89 66.75 M89 22.25 C89.13 35.81, 88.44 49.33, 89 66.75 M89 66.75 C90.24 80.52, 79.96 87.98, 66.75 89 M89 66.75 C88.2 79.68, 83.19 88.79, 66.75 89 M66.75 89 C50.94 89.7, 33.2 88.42, 22.25 89 M66.75 89 C55.21 90.03, 44.88 89.76, 22.25 89 M22.25 89 C9.39 90.93, 1.18 80.06, 0 66.75 M22.25 89 C6.02 87.09, -0.47 81.41, 0 66.75 M0 66.75 C1.48 50.85, 0.75 31.36, 0 22.25 M0 66.75 C-0.69 56.38, 0.57 44.89, 0 22.25 M0 22.25 C1.18 8.84, 6.02 -0.83, 22.25 0 M0 22.25 C-1.25 9.7, 9.2 -0.54, 22.25 0" stroke="#1e1e1e" stroke-width="2" fill="none"></path></g><g stroke-linecap="round"><g transform="translate(1867.4393543799215 1438.7414977916833) rotate(0 -76.18855519598583 0)"><path d="M-0.78 0.92 C-26.25 0.87, -127.06 1.2, -152.23 0.85 M1.01 0.35 C-24.66 0.49, -127.55 -0.68, -153.11 -0.83" stroke="#1e1e1e" stroke-width="2" fill="none"></path></g><g transform="translate(1867.4393543799215 1438.7414977916833) rotate(0 -76.18855519598583 0)"><path d="M-129.54 -9.17 C-136.17 -6.18, -144.51 -2.6, -153.11 -0.83 M-129.54 -9.17 C-133.68 -7.82, -138.23 -5.68, -153.11 -0.83" stroke="#1e1e1e" stroke-width="2" fill="none"></path></g><g transform="translate(1867.4393543799215 1438.7414977916833) rotate(0 -76.18855519598583 0)"><path d="M-129.69 7.93 C-136.42 4.95, -144.71 2.56, -153.11 -0.83 M-129.69 7.93 C-133.96 5.85, -138.48 4.57, -153.11 -0.83" stroke="#1e1e1e" stroke-width="2" fill="none"></path></g></g><mask></mask><g stroke-linecap="round"><g transform="translate(1872.2767229637934 1450.8349192513642) rotate(0 -79.81658163388977 65.30447588227355)"><path d="M0.14 0.85 C-26.24 22.27, -132.65 107.81, -159.09 129.41 M-1.24 0.25 C-27.67 21.69, -133.52 108.41, -159.76 130.32" stroke="#1e1e1e" stroke-width="2" fill="none"></path></g><g transform="translate(1872.2767229637934 1450.8349192513642) rotate(0 -79.81658163388977 65.30447588227355)"><path d="M-147.09 108.77 C-148.48 114.74, -154.87 120.79, -159.76 130.32 M-147.09 108.77 C-149.95 115.12, -153.27 121.59, -159.76 130.32" stroke="#1e1e1e" stroke-width="2" fill="none"></path></g><g transform="translate(1872.2767229637934 1450.8349192513642) rotate(0 -79.81658163388977 65.30447588227355)"><path d="M-136.2 121.96 C-140.25 124.85, -149.19 127.8, -159.76 130.32 M-136.2 121.96 C-142.26 124.48, -148.71 127.15, -159.76 130.32" stroke="#1e1e1e" stroke-width="2" fill="none"></path></g></g><mask></mask><g stroke-linecap="round" transform="translate(1877.3597509484825 1154.587547573922) rotate(0 44.5 44.49999999999994)"><path d="M22.25 0 C31.56 -3.51, 41.93 2.62, 66.75 0 C83.52 -2.19, 86.59 8.8, 89 22.25 C87.69 36.56, 89.71 56.76, 89 66.75 C87.21 84.12, 81.22 85.95, 66.75 89 C57.85 87.24, 41.68 87.33, 22.25 89 C10.2 88.12, -2.76 82.14, 0 66.75 C-0.99 48.31, 0.78 31.71, 0 22.25 C-2.6 6.1, 9.8 -2.88, 22.25 0" stroke="none" stroke-width="0" fill="#a5d8ff"></path><path d="M22.25 0 C34.13 1.69, 49.76 0.8, 66.75 0 M22.25 0 C35.3 0.37, 45.7 0.21, 66.75 0 M66.75 0 C80.13 0.48, 89.67 8.97, 89 22.25 M66.75 0 C80.37 1.1, 87.45 5.47, 89 22.25 M89 22.25 C90.7 34.6, 89.25 44.73, 89 66.75 M89 22.25 C88.46 35.99, 88.93 49.92, 89 66.75 M89 66.75 C90.4 81.4, 83.2 88.51, 66.75 89 M89 66.75 C90.4 82.89, 82.07 89.39, 66.75 89 M66.75 89 C56.86 88.11, 45.17 89.74, 22.25 89 M66.75 89 C52.18 88.67, 35.83 88.6, 22.25 89 M22.25 89 C7.01 88.85, 1.58 79.62, 0 66.75 M22.25 89 C5.79 90.2, 1.12 81.95, 0 66.75 M0 66.75 C-1.48 55.8, 1.82 48.66, 0 22.25 M0 66.75 C-0.96 50.81, -0.81 36.7, 0 22.25 M0 22.25 C1.55 6.95, 6.13 -0.37, 22.25 0 M0 22.25 C-0.03 5.8, 6.32 1.76, 22.25 0" stroke="#1e1e1e" stroke-width="2" fill="none"></path></g><g stroke-linecap="round"><g transform="translate(1866.2300122339534 1183.6486959178028) rotate(0 -78.6072394879219 -38.00463072856127)"><path d="M1.13 -0.15 C-25.06 -12.68, -130.36 -63.75, -156.61 -76.36 M0.27 -1.27 C-26.08 -13.52, -131.08 -62.83, -157.25 -75.01" stroke="#1e1e1e" stroke-width="2" fill="none"></path></g><g transform="translate(1866.2300122339534 1183.6486959178028) rotate(0 -78.6072394879219 -38.00463072856127)"><path d="M-132.34 -72.8 C-141.16 -72.32, -150.09 -72.74, -157.25 -75.01 M-132.34 -72.8 C-140.95 -73.1, -148.95 -73.85, -157.25 -75.01" stroke="#1e1e1e" stroke-width="2" fill="none"></path></g><g transform="translate(1866.2300122339534 1183.6486959178028) rotate(0 -78.6072394879219 -38.00463072856127)"><path d="M-139.59 -57.31 C-145.75 -62.25, -152.18 -68.01, -157.25 -75.01 M-139.59 -57.31 C-146.04 -62.57, -151.74 -68.26, -157.25 -75.01" stroke="#1e1e1e" stroke-width="2" fill="none"></path></g></g><mask></mask><g stroke-linecap="round"><g transform="translate(1924.2709219356116 1245.042549120707) rotate(0 1.202231086482925 77.7275007733922)"><path d="M0.6 -0.35 C0.95 25.62, 2.71 129.62, 3.21 155.68" stroke="#1e1e1e" stroke-width="2.5" fill="none" stroke-dasharray="8 10"></path></g><g transform="translate(1924.2709219356116 1245.042549120707) rotate(0 1.202231086482925 77.7275007733922)"><path d="M-5.76 132.34 C-2.83 142.84, 1.65 152.69, 3.21 155.68" stroke="#1e1e1e" stroke-width="2.5" fill="none"></path></g><g transform="translate(1924.2709219356116 1245.042549120707) rotate(0 1.202231086482925 77.7275007733922)"><path d="M11.34 132.03 C7.52 142.74, 5.27 152.71, 3.21 155.68" stroke="#1e1e1e" stroke-width="2.5" fill="none"></path></g></g><mask></mask><g transform="translate(1813.0189578113605 1266.8107077481313) rotate(0 12.005859375 20.700000000000045)"><text x="0" y="33.120703125" font-family="Helvetica, Segoe UI Emoji" font-size="36px" fill="#1e1e1e" text-anchor="start" style="white-space: pre;" direction="ltr" dominant-baseline="alphabetic">Y</text></g><g stroke-linecap="round"><g transform="translate(1848.7424913311693 1263.7967008803298) rotate(0 11.22378955729289 -9.486320162042375)"><path d="M1.2 0.54 C4.67 -2.6, 18.27 -15.42, 21.67 -18.62 M0.37 -0.21 C4.16 -3.75, 20.03 -17.73, 23.97 -20.56" stroke="#1e1e1e" stroke-width="2" fill="none"></path></g><g transform="translate(1848.7424913311693 1263.7967008803298) rotate(0 11.22378955729289 -9.486320162042375)"><path d="M16.43 -7.95 C19.84 -13.62, 22.37 -18.36, 23.97 -20.56 M16.43 -7.95 C18.44 -11.74, 20.77 -16.8, 23.97 -20.56" stroke="#1e1e1e" stroke-width="2" fill="none"></path></g><g transform="translate(1848.7424913311693 1263.7967008803298) rotate(0 11.22378955729289 -9.486320162042375)"><path d="M10.08 -15.75 C15.84 -18.61, 20.7 -20.5, 23.97 -20.56 M10.08 -15.75 C14.18 -17.06, 18.56 -19.6, 23.97 -20.56" stroke="#1e1e1e" stroke-width="2" fill="none"></path></g></g><mask></mask><g stroke-linecap="round"><g transform="translate(2083.005099451972 1071.9686550816432) rotate(0 -183.83405370698893 -1.7860251485969343)"><path d="M-0.31 0.17 C-61.54 -0.49, -306.03 -4.29, -367.27 -4.74 M1.73 -0.79 C-59.64 -1.28, -306.3 -3.23, -368 -3.82" stroke="#1e1e1e" stroke-width="2" fill="none"></path></g><g transform="translate(2083.005099451972 1071.9686550816432) rotate(0 -183.83405370698893 -1.7860251485969343)"><path d="M-344.44 -12.16 C-351.55 -8.96, -361.1 -7.11, -368 -3.82 M-344.44 -12.16 C-354.28 -9.71, -363.41 -6.02, -368 -3.82" stroke="#1e1e1e" stroke-width="2" fill="none"></path></g><g transform="translate(2083.005099451972 1071.9686550816432) rotate(0 -183.83405370698893 -1.7860251485969343)"><path d="M-344.58 4.94 C-351.53 2.82, -361.04 -0.65, -368 -3.82 M-344.58 4.94 C-354.37 0.79, -363.44 -2.13, -368 -3.82" stroke="#1e1e1e" stroke-width="2" fill="none"></path></g></g><mask></mask><g stroke-linecap="round" transform="translate(2099.8787058066005 1026.499382759357) rotate(0 44.5 44.5)"><path d="M22.25 0 C32.26 -3.47, 46.37 0.47, 66.75 0 C81.25 0.12, 91.78 9.49, 89 22.25 C92.32 37.19, 92.24 43.83, 89 66.75 C86.29 81.82, 83.9 85.6, 66.75 89 C53.4 85.99, 40.82 86.8, 22.25 89 C7.76 85.46, 2.56 80.93, 0 66.75 C-2.9 58.88, 1.59 41.97, 0 22.25 C-2.06 3.91, 3.93 0.55, 22.25 0" stroke="none" stroke-width="0" fill="#a5d8ff"></path><path d="M22.25 0 C40.29 1.48, 56.79 0.57, 66.75 0 M22.25 0 C39.83 0.61, 56.2 -0.39, 66.75 0 M66.75 0 C82.48 1.55, 88.43 6.72, 89 22.25 M66.75 0 C81.62 -0.34, 91.21 9.45, 89 22.25 M89 22.25 C90.09 37.29, 87.93 48.22, 89 66.75 M89 22.25 C88.27 33.05, 88.79 42.71, 89 66.75 M89 66.75 C90.38 83.19, 82.15 88.26, 66.75 89 M89 66.75 C90.58 81.82, 82.42 90.48, 66.75 89 M66.75 89 C50.81 87.65, 36.39 87.19, 22.25 89 M66.75 89 C53.62 89.53, 39.61 89.8, 22.25 89 M22.25 89 C7.91 89.83, -1.55 81.28, 0 66.75 M22.25 89 C9.04 87.31, 2.08 80.62, 0 66.75 M0 66.75 C1.39 50.61, -1.45 37.48, 0 22.25 M0 66.75 C0.36 53.45, 0.58 39.45, 0 22.25 M0 22.25 C-1.3 8.43, 8.67 0, 22.25 0 M0 22.25 C2.22 8.23, 8.02 -0.94, 22.25 0" stroke="#1e1e1e" stroke-width="2" fill="none"></path></g><g stroke-linecap="round"><g transform="translate(2096.6644926763875 1118.9278794380389) rotate(0 -55.62973871452914 40.60260875936069)"><path d="M1.02 -0.13 C-17.33 13.69, -92.02 68.87, -110.71 82.38 M0.1 -1.25 C-18.32 12.32, -92.71 66.98, -111.37 80.88" stroke="#1e1e1e" stroke-width="2" fill="none"></path></g><g transform="translate(2096.6644926763875 1118.9278794380389) rotate(0 -55.62973871452914 40.60260875936069)"><path d="M-97.56 60.04 C-101.37 66.32, -102.66 70.85, -111.37 80.88 M-97.56 60.04 C-101.4 65.22, -105.17 72.23, -111.37 80.88" stroke="#1e1e1e" stroke-width="2" fill="none"></path></g><g transform="translate(2096.6644926763875 1118.9278794380389) rotate(0 -55.62973871452914 40.60260875936069)"><path d="M-87.4 73.79 C-93.7 76.7, -97.56 77.75, -111.37 80.88 M-87.4 73.79 C-94.18 75.02, -100.8 78.18, -111.37 80.88" stroke="#1e1e1e" stroke-width="2" fill="none"></path></g></g><mask></mask><g transform="translate(2227.5472559383543 918.2349782964438) rotate(0 68.4580078125 20.69999999999999)"><text x="0" y="33.120703125" font-family="Helvetica, Segoe UI Emoji" font-size="36px" fill="#1e1e1e" text-anchor="start" style="white-space: pre;" direction="ltr" dominant-baseline="alphabetic">A's main</text></g><g stroke-linecap="round"><g transform="translate(2238.549819906465 962.3861798655828) rotate(0 -20.869278835935575 26.608330515817727)"><path d="M0.42 0.68 C-6.59 9.51, -34.36 43.63, -41.26 52.56 M-0.81 -0.01 C-8.02 9, -35.2 45, -41.96 53.75" stroke="#1e1e1e" stroke-width="2" fill="none"></path></g><g transform="translate(2238.549819906465 962.3861798655828) rotate(0 -20.869278835935575 26.608330515817727)"><path d="M-34.5 29.88 C-36.21 39.52, -41.19 48.81, -41.96 53.75 M-34.5 29.88 C-37.28 38.27, -40.39 47.75, -41.96 53.75" stroke="#1e1e1e" stroke-width="2" fill="none"></path></g><g transform="translate(2238.549819906465 962.3861798655828) rotate(0 -20.869278835935575 26.608330515817727)"><path d="M-20.91 40.26 C-27.6 46.11, -37.6 51.57, -41.96 53.75 M-20.91 40.26 C-29.01 44.51, -37.37 49.98, -41.96 53.75" stroke="#1e1e1e" stroke-width="2" fill="none"></path></g></g><mask></mask><g stroke-linecap="round"><g transform="translate(2140.053244531308 1119.1084772159422) rotate(0 -83.45171913127933 140.61329236372984)"><path d="M0.17 -0.24 C-27.67 46.44, -140.34 233.79, -168.01 280.85" stroke="#1e1e1e" stroke-width="2.5" fill="none" stroke-dasharray="8 10"></path></g><g transform="translate(2140.053244531308 1119.1084772159422) rotate(0 -83.45171913127933 140.61329236372984)"><path d="M-163.33 256.29 C-164.6 259.76, -165.83 268.66, -168.01 280.85" stroke="#1e1e1e" stroke-width="2.5" fill="none"></path></g><g transform="translate(2140.053244531308 1119.1084772159422) rotate(0 -83.45171913127933 140.61329236372984)"><path d="M-148.64 265.04 C-153.14 266.64, -157.55 273.64, -168.01 280.85" stroke="#1e1e1e" stroke-width="2.5" fill="none"></path></g></g><mask></mask><g transform="translate(10 10) rotate(0 26.065069584687976 35.94171656080628)"><text x="0" y="57.507967343640615" font-family="Helvetica, Segoe UI Emoji" font-size="62.50733314922831px" fill="#e03131" text-anchor="start" style="white-space: pre;" direction="ltr" dominant-baseline="alphabetic">1:</text></g><g transform="translate(945.5764530331618 26.648418230182074) rotate(0 26.0650691986084 35.94171656080628)"><text x="0" y="57.507967343640615" font-family="Helvetica, Segoe UI Emoji" font-size="62.50733314922831px" fill="#e03131" text-anchor="start" style="white-space: pre;" direction="ltr" dominant-baseline="alphabetic">2:</text></g><g transform="translate(13.410533027226393 848.2808302753181) rotate(0 26.0650691986084 35.9417165608063)"><text x="0" y="57.507967343640615" font-family="Helvetica, Segoe UI Emoji" font-size="62.50733314922831px" fill="#e03131" text-anchor="start" style="white-space: pre;" direction="ltr" dominant-baseline="alphabetic">3:</text></g><g transform="translate(1041.372160653203 866.7030816664645) rotate(0 26.0650691986084 35.9417165608063)"><text x="0" y="57.507967343640615" font-family="Helvetica, Segoe UI Emoji" font-size="62.50733314922831px" fill="#e03131" text-anchor="start" style="white-space: pre;" direction="ltr" dominant-baseline="alphabetic">4:</text></g></svg>