<svg version="1.1" xmlns="http://www.w3.org/2000/svg" viewBox="0 0 1431.8445566468008 966.9481706165657" width="2863.6891132936016" height="1933.8963412331314">
  <!-- svg-source:excalidraw -->
  
  <defs>
    <style class="style-fonts">
      @font-face {
        font-family: "Virgil";
        src: url("https://excalidraw.com/Virgil.woff2");
      }
      @font-face {
        font-family: "Cascadia";
        src: url("https://excalidraw.com/Cascadia.woff2");
      }
      @font-face {
        font-family: "Assistant";
        src: url("https://excalidraw.com/Assistant-Regular.woff2");
      }
    </style>
    
  </defs>
  <g transform="translate(10 10) rotate(0 26.0650691986084 35.9417165608063)"><text x="0" y="57.507967343640615" font-family="Helvetica, Segoe UI Emoji" font-size="62.50733314922831px" fill="#e03131" text-anchor="start" style="white-space: pre;" direction="ltr" dominant-baseline="alphabetic">5:</text></g><g stroke-linecap="round" transform="translate(228.67638205018193 236.47603157299) rotate(0 44.5 44.5)"><path d="M22.25 0 C34.92 0.39, 50.55 -1.38, 66.75 0 C79.3 -2.34, 85.83 5.69, 89 22.25 C89.15 36.62, 90.7 57.79, 89 66.75 C91.36 81.96, 80.79 88.96, 66.75 89 C54.61 90.6, 48.31 87.36, 22.25 89 C6.52 90.78, -2.44 79.96, 0 66.75 C1.34 54.55, -2.74 41.25, 0 22.25 C-1.47 6.91, 8.54 -2.94, 22.25 0" stroke="none" stroke-width="0" fill="#a5d8ff"></path><path d="M22.25 0 C34.64 1.9, 47.41 -1.12, 66.75 0 M22.25 0 C34.5 -0.7, 47.02 0.05, 66.75 0 M66.75 0 C79.59 -0.36, 90.78 7.42, 89 22.25 M66.75 0 C81.45 1.53, 87.27 6.49, 89 22.25 M89 22.25 C88.38 36.6, 87.76 55.53, 89 66.75 M89 22.25 C88.08 35.72, 88.01 50.77, 89 66.75 M89 66.75 C89.93 83.57, 81.63 90.12, 66.75 89 M89 66.75 C87.42 81.73, 79.69 88.56, 66.75 89 M66.75 89 C48.04 89.4, 31.46 90.16, 22.25 89 M66.75 89 C49.92 89.52, 33.25 88.52, 22.25 89 M22.25 89 C8.89 87.14, 1 81.29, 0 66.75 M22.25 89 C6.12 90.32, 0.13 83.04, 0 66.75 M0 66.75 C-1.52 52.39, 1.06 42.4, 0 22.25 M0 66.75 C0.98 52.14, 0.85 36.84, 0 22.25 M0 22.25 C1 7.53, 8.42 -0.96, 22.25 0 M0 22.25 C-0.08 5.12, 7.35 1.37, 22.25 0" stroke="#1e1e1e" stroke-width="2" fill="none"></path></g><g stroke-linecap="round"><g transform="translate(219.50029792173336 273.9190549191853) rotate(0 -44.753309671677414 -0.6720622819821074)"><path d="M1.15 0.17 C-13.89 -0.09, -75.25 -1.34, -90.17 -1.56 M0.3 -0.79 C-14.35 -0.86, -73 -0.32, -87.8 -0.14" stroke="#1e1e1e" stroke-width="2" fill="none"></path></g><g transform="translate(219.50029792173336 273.9190549191853) rotate(0 -44.753309671677414 -0.6720622819821074)"><path d="M-64.4 -8.93 C-71.24 -7.13, -79 -1.41, -87.8 -0.14 M-64.4 -8.93 C-72.11 -6.18, -80.18 -3.71, -87.8 -0.14" stroke="#1e1e1e" stroke-width="2" fill="none"></path></g><g transform="translate(219.50029792173336 273.9190549191853) rotate(0 -44.753309671677414 -0.6720622819821074)"><path d="M-64.22 8.17 C-71.12 4.77, -78.93 5.29, -87.8 -0.14 M-64.22 8.17 C-71.94 5.52, -80.07 2.6, -87.8 -0.14" stroke="#1e1e1e" stroke-width="2" fill="none"></path></g></g><mask></mask><g stroke-linecap="round" transform="translate(520.1603262878152 235.0883842623798) rotate(0 44.5 44.5)"><path d="M22.25 0 C33.95 -2.06, 47.05 -1.45, 66.75 0 C84.71 -2.98, 90.27 8.23, 89 22.25 C91.89 32.45, 88.74 41.86, 89 66.75 C85.83 83.79, 83.16 86.29, 66.75 89 C50.96 90.34, 34.52 86.93, 22.25 89 C7.41 89.49, -2.62 83.03, 0 66.75 C-0.89 51.49, 1.71 34.3, 0 22.25 C-1.37 6.02, 4.2 -0.49, 22.25 0" stroke="none" stroke-width="0" fill="#a5d8ff"></path><path d="M22.25 0 C39.5 2.2, 57.8 -0.34, 66.75 0 M22.25 0 C31.81 -0.23, 44.25 -0.05, 66.75 0 M66.75 0 C81.47 1.33, 87.5 6.61, 89 22.25 M66.75 0 C82.85 1.71, 87.59 6.33, 89 22.25 M89 22.25 C89.14 32.39, 89.8 40.68, 89 66.75 M89 22.25 C89.03 32.27, 88.58 40.87, 89 66.75 M89 66.75 C87.62 81.71, 79.94 88.61, 66.75 89 M89 66.75 C90.93 81.62, 81.66 87.13, 66.75 89 M66.75 89 C54.21 88.13, 39.83 89.65, 22.25 89 M66.75 89 C53.28 87.71, 38.83 88.49, 22.25 89 M22.25 89 C6.29 90.15, 0.11 82.85, 0 66.75 M22.25 89 C7.33 89.34, 2.29 79.91, 0 66.75 M0 66.75 C0.39 54.61, 1.6 46.65, 0 22.25 M0 66.75 C0.26 52.66, 0.26 37.98, 0 22.25 M0 22.25 C-0.07 5.42, 7.36 1.19, 22.25 0 M0 22.25 C0.96 9.46, 7.76 -1.62, 22.25 0" stroke="#1e1e1e" stroke-width="2" fill="none"></path></g><g stroke-linecap="round"><g transform="translate(504.0308193814999 276.4656369110644) rotate(0 -90.28470850056624 0.296690884589907)"><path d="M1.17 0.19 C-28.87 0.2, -150.57 -0.25, -180.92 -0.16 M0.33 -0.76 C-29.85 -0.6, -151.68 0.5, -182.05 0.98" stroke="#1e1e1e" stroke-width="2" fill="none"></path></g><g transform="translate(504.0308193814999 276.4656369110644) rotate(0 -90.28470850056624 0.296690884589907)"><path d="M-158.66 -7.85 C-164.1 -6.03, -171.39 -3.9, -182.05 0.98 M-158.66 -7.85 C-165.16 -5.13, -173.4 -1.71, -182.05 0.98" stroke="#1e1e1e" stroke-width="2" fill="none"></path></g><g transform="translate(504.0308193814999 276.4656369110644) rotate(0 -90.28470850056624 0.296690884589907)"><path d="M-158.46 9.25 C-163.91 6.88, -171.26 4.82, -182.05 0.98 M-158.46 9.25 C-164.85 6.63, -173.16 4.71, -182.05 0.98" stroke="#1e1e1e" stroke-width="2" fill="none"></path></g></g><mask></mask><g transform="translate(104.15213856915216 147.97869308631834) rotate(0 17.0068359375 20.700000000000045)"><text x="0" y="33.120703125" font-family="Helvetica, Segoe UI Emoji" font-size="36px" fill="#1e1e1e" text-anchor="start" style="white-space: pre;" direction="ltr" dominant-baseline="alphabetic">A:</text></g><g stroke-linecap="round" transform="translate(237.63082123982713 521.9236386369348) rotate(0 44.5 44.5)"><path d="M22.25 0 C34.73 1.48, 41.82 3.03, 66.75 0 C82.68 2.36, 89.38 6.63, 89 22.25 C89.87 32.84, 89.54 49.27, 89 66.75 C87.01 80.68, 83.36 86.56, 66.75 89 C52.78 90.55, 45.21 86.47, 22.25 89 C8.59 87.53, -0.5 82.71, 0 66.75 C-2.91 56.54, 3.61 45.11, 0 22.25 C-0.3 10, 10.41 2.95, 22.25 0" stroke="none" stroke-width="0" fill="#ffc9c9"></path><path d="M22.25 0 C34.55 -1.86, 46.01 1.91, 66.75 0 M22.25 0 C34.86 -0.7, 49.52 0.45, 66.75 0 M66.75 0 C80.36 -0.95, 87.56 5.85, 89 22.25 M66.75 0 C83.53 0.56, 89 8.74, 89 22.25 M89 22.25 C87.85 32.43, 90.55 40.79, 89 66.75 M89 22.25 C87.87 37.9, 89.53 53.94, 89 66.75 M89 66.75 C89.07 79.95, 81.97 87.87, 66.75 89 M89 66.75 C90.32 83.49, 80.29 90.71, 66.75 89 M66.75 89 C50.89 90.73, 36.42 90.25, 22.25 89 M66.75 89 C54.12 89.89, 41.33 89.4, 22.25 89 M22.25 89 C9.41 87.54, -1.19 82.71, 0 66.75 M22.25 89 C9.71 89.74, -1.65 83.71, 0 66.75 M0 66.75 C-0.76 51.47, 0.03 35.2, 0 22.25 M0 66.75 C-0.01 56.13, 0.43 45.21, 0 22.25 M0 22.25 C0.3 6.01, 7.7 -1.17, 22.25 0 M0 22.25 C-0.81 5.96, 5.92 -2.02, 22.25 0" stroke="#1e1e1e" stroke-width="2" fill="none"></path></g><g stroke-linecap="round"><g transform="translate(228.45473711137856 559.3666619831301) rotate(0 -44.753309671677414 -0.6720622819821074)"><path d="M-1.19 -0.22 C-15.87 -0.46, -73.71 -1.29, -88.44 -1.34 M0.38 -1.38 C-14.33 -1.43, -73.7 0.38, -88.83 0.2" stroke="#1e1e1e" stroke-width="2" fill="none"></path></g><g transform="translate(228.45473711137856 559.3666619831301) rotate(0 -44.753309671677414 -0.6720622819821074)"><path d="M-65.44 -8.63 C-72.09 -4.7, -78.03 -4.22, -88.83 0.2 M-65.44 -8.63 C-73.52 -4.75, -83.25 -2.73, -88.83 0.2" stroke="#1e1e1e" stroke-width="2" fill="none"></path></g><g transform="translate(228.45473711137856 559.3666619831301) rotate(0 -44.753309671677414 -0.6720622819821074)"><path d="M-65.24 8.47 C-71.97 7.79, -77.96 3.66, -88.83 0.2 M-65.24 8.47 C-73.27 6.09, -83.07 1.84, -88.83 0.2" stroke="#1e1e1e" stroke-width="2" fill="none"></path></g></g><mask></mask><g stroke-linecap="round" transform="translate(523.3609010670461 526.2898557367389) rotate(0 44.5 44.5)"><path d="M22.25 0 C37.7 1.83, 51.33 -1.32, 66.75 0 C81.54 -3.17, 91.21 9, 89 22.25 C87.29 31.35, 91.06 39.81, 89 66.75 C87.37 81.57, 82.07 86.38, 66.75 89 C52.79 86.94, 35.97 89.54, 22.25 89 C4.48 87.63, -1.39 78.37, 0 66.75 C-1.04 56.59, 2.26 44.22, 0 22.25 C1.53 5.35, 9.7 1.37, 22.25 0" stroke="none" stroke-width="0" fill="#ffc9c9"></path><path d="M22.25 0 C31.18 -0.51, 41.42 -1.9, 66.75 0 M22.25 0 C33.19 -0.8, 44.64 -1.12, 66.75 0 M66.75 0 C83.28 0.49, 89 8.57, 89 22.25 M66.75 0 C79.46 -2.23, 86.72 6.59, 89 22.25 M89 22.25 C90.56 36.3, 89.57 51.45, 89 66.75 M89 22.25 C89.41 33.92, 89.56 46.66, 89 66.75 M89 66.75 C90.15 83.24, 80.46 90.48, 66.75 89 M89 66.75 C89.46 82.03, 82.9 87.13, 66.75 89 M66.75 89 C49.82 88.09, 34.64 89.33, 22.25 89 M66.75 89 C51.57 88.34, 33.81 89.63, 22.25 89 M22.25 89 C9.41 89.65, -1.43 83.43, 0 66.75 M22.25 89 C8.93 89.41, 1.22 80.8, 0 66.75 M0 66.75 C-0.98 51.11, -2.02 35.55, 0 22.25 M0 66.75 C-0.04 50.05, -0.04 34.17, 0 22.25 M0 22.25 C-0.7 6.15, 6.12 -1.76, 22.25 0 M0 22.25 C-1.11 9.42, 5.51 0.81, 22.25 0" stroke="#1e1e1e" stroke-width="2" fill="none"></path></g><g stroke-linecap="round"><g transform="translate(513.0439131601634 568.552899756598) rotate(0 -91.2827889616475 -2.561585696837028)"><path d="M-0.07 0.8 C-30.83 -0.14, -153.16 -4.77, -183.47 -5.61 M-1.57 0.17 C-32.04 -0.6, -151.1 -3.28, -181.23 -4.32" stroke="#1e1e1e" stroke-width="2" fill="none"></path></g><g transform="translate(513.0439131601634 568.552899756598) rotate(0 -91.2827889616475 -2.561585696837028)"><path d="M-157.51 -12.22 C-165.41 -10.66, -176.77 -4.99, -181.23 -4.32 M-157.51 -12.22 C-167.15 -10.16, -174.46 -6.18, -181.23 -4.32" stroke="#1e1e1e" stroke-width="2" fill="none"></path></g><g transform="translate(513.0439131601634 568.552899756598) rotate(0 -91.2827889616475 -2.561585696837028)"><path d="M-157.98 4.88 C-165.7 -0.22, -176.87 -1.2, -181.23 -4.32 M-157.98 4.88 C-167.35 0.54, -174.47 -1.87, -181.23 -4.32" stroke="#1e1e1e" stroke-width="2" fill="none"></path></g></g><mask></mask><g transform="translate(110.68789346686117 476.9096329848917) rotate(0 17.0068359375 20.700000000000045)"><text x="0" y="33.120703125" font-family="Helvetica, Segoe UI Emoji" font-size="36px" fill="#1e1e1e" text-anchor="start" style="white-space: pre;" direction="ltr" dominant-baseline="alphabetic">B:</text></g><g stroke-linecap="round"><g transform="translate(566.8117387267539 333.83856159041807) rotate(0 9.757047791936202e-7 93.1505999866522)"><path d="M0.66 0.89 C0.69 31.93, -0.48 154.99, -0.73 185.73" stroke="#1e1e1e" stroke-width="2.5" fill="none" stroke-dasharray="8 10"></path></g><g transform="translate(566.8117387267539 333.83856159041807) rotate(0 9.757047791936202e-7 93.1505999866522)"><path d="M-9.08 162.17 C-5.81 166.2, -6.37 171.28, -0.73 185.73" stroke="#1e1e1e" stroke-width="2.5" fill="none"></path></g><g transform="translate(566.8117387267539 333.83856159041807) rotate(0 9.757047791936202e-7 93.1505999866522)"><path d="M8.02 162.32 C7.44 166.41, 3.04 171.45, -0.73 185.73" stroke="#1e1e1e" stroke-width="2.5" fill="none"></path></g></g><mask></mask><g stroke-linecap="round" transform="translate(704.0088179683962 735.4227272964699) rotate(0 44.5 44.5)"><path d="M22.25 0 C28.97 0.9, 41.53 -2.34, 66.75 0 C80.68 1.78, 86.56 5.79, 89 22.25 C90.55 36.73, 86.47 50.1, 89 66.75 C87.53 81.08, 82.71 86.06, 66.75 89 C54.6 91.59, 41.22 87.98, 22.25 89 C10 92, 2.95 83.11, 0 66.75 C2.16 55.93, 1.35 46.48, 0 22.25 C1.41 6.52, 9.55 -0.38, 22.25 0" stroke="none" stroke-width="0" fill="#ffc9c9"></path><path d="M22.25 0 C37.1 -1.17, 52.27 1.96, 66.75 0 M22.25 0 C35.77 -1.23, 50.13 -0.62, 66.75 0 M66.75 0 C82.52 1.98, 89.05 8.54, 89 22.25 M66.75 0 C80 0.15, 87.11 6.97, 89 22.25 M89 22.25 C87.38 39.71, 87.87 57.55, 89 66.75 M89 22.25 C88.95 39.48, 89.32 55.51, 89 66.75 M89 66.75 C90.47 79.72, 82.58 88.7, 66.75 89 M89 66.75 C87.7 82.9, 81.71 90.46, 66.75 89 M66.75 89 C52.12 88.25, 41.53 91.44, 22.25 89 M66.75 89 C52.62 89.59, 37.71 89.07, 22.25 89 M22.25 89 C8.41 89.11, 1 80.62, 0 66.75 M22.25 89 C7.33 86.7, -0.06 82.95, 0 66.75 M0 66.75 C-1.8 51.83, -1.56 35.65, 0 22.25 M0 66.75 C-0.19 57.1, -0.54 46.06, 0 22.25 M0 22.25 C0.45 5.83, 8.73 0.61, 22.25 0 M0 22.25 C1.51 7.66, 6.91 -0.03, 22.25 0" stroke="#1e1e1e" stroke-width="2" fill="none"></path></g><g stroke-linecap="round"><g transform="translate(703.0088179683962 772.5197611173344) rotate(0 -60.69948812812032 -71.28487646077383)"><path d="M-0.87 -0.94 C-20.81 -24.56, -100.29 -118.79, -120.38 -142.28 M0.88 1.18 C-19.07 -22.77, -100.29 -120.07, -120.8 -144.25" stroke="#1e1e1e" stroke-width="2" fill="none"></path></g><g transform="translate(703.0088179683962 772.5197611173344) rotate(0 -60.69948812812032 -71.28487646077383)"><path d="M-99.14 -131.76 C-105.82 -133.21, -108.94 -137.88, -120.8 -144.25 M-99.14 -131.76 C-107.76 -136.79, -114.04 -139.91, -120.8 -144.25" stroke="#1e1e1e" stroke-width="2" fill="none"></path></g><g transform="translate(703.0088179683962 772.5197611173344) rotate(0 -60.69948812812032 -71.28487646077383)"><path d="M-112.23 -120.76 C-115.74 -124.74, -115.72 -132.04, -120.8 -144.25 M-112.23 -120.76 C-116.07 -129.6, -117.67 -136.64, -120.8 -144.25" stroke="#1e1e1e" stroke-width="2" fill="none"></path></g></g><mask></mask><g stroke-linecap="round"><g transform="translate(742.6962989689637 894.2356009519781) rotate(0 0 -30.0313481637354)"><path d="M1.02 0.29 C1.16 -9.45, 0.35 -49.12, 0 -59.37 M0.09 -0.6 C0.15 -10.6, -1.13 -51.15, -0.95 -61.13" stroke="#1e1e1e" stroke-width="2" fill="none"></path></g><g transform="translate(742.6962989689637 894.2356009519781) rotate(0 0 -30.0313481637354)"><path d="M7.83 -37.73 C6.51 -42.98, 5.17 -50.16, -0.95 -61.13 M7.83 -37.73 C6.75 -41.52, 4.52 -46.7, -0.95 -61.13" stroke="#1e1e1e" stroke-width="2" fill="none"></path></g><g transform="translate(742.6962989689637 894.2356009519781) rotate(0 0 -30.0313481637354)"><path d="M-9.27 -37.56 C-6.7 -43, -4.14 -50.21, -0.95 -61.13 M-9.27 -37.56 C-6.88 -41.32, -5.63 -46.54, -0.95 -61.13" stroke="#1e1e1e" stroke-width="2" fill="none"></path></g></g><mask></mask><g transform="translate(729.1337546369541 915.5481706165656) rotate(0 12.005859375 20.700000000000045)"><text x="0" y="33.120703125" font-family="Helvetica, Segoe UI Emoji" font-size="36px" fill="#1e1e1e" text-anchor="start" style="white-space: pre;" direction="ltr" dominant-baseline="alphabetic">X</text></g><g transform="translate(92.36970350247611 243.54828666174035) rotate(0 15.0029296875 20.700000000000045)"><text x="0" y="33.120703125" font-family="Helvetica, Segoe UI Emoji" font-size="36px" fill="#1e1e1e" text-anchor="start" style="white-space: pre;" direction="ltr" dominant-baseline="alphabetic">...</text></g><g transform="translate(98.12356791288994 532.6949301528921) rotate(0 15.0029296875 20.700000000000045)"><text x="0" y="33.120703125" font-family="Helvetica, Segoe UI Emoji" font-size="36px" fill="#1e1e1e" text-anchor="start" style="white-space: pre;" direction="ltr" dominant-baseline="alphabetic">...</text></g><g stroke-linecap="round" transform="translate(709.6547743611263 334.0022627786775) rotate(0 44.5 44.5)"><path d="M22.25 0 C31.84 1.45, 39.5 -1.04, 66.75 0 C80.19 -3.22, 88.51 10.72, 89 22.25 C91.93 35.82, 90.46 41.42, 89 66.75 C91.28 82.95, 84.25 88.97, 66.75 89 C50.2 91.45, 35.07 86.88, 22.25 89 C8.74 88.65, -0.28 84.89, 0 66.75 C3.94 51.36, 3.96 34.18, 0 22.25 C2.43 7.08, 8.87 3.39, 22.25 0" stroke="none" stroke-width="0" fill="#a5d8ff"></path><path d="M22.25 0 C35.83 -1.34, 48.76 1.98, 66.75 0 M22.25 0 C35.85 -0.2, 49.65 1.19, 66.75 0 M66.75 0 C80.46 1.48, 89.4 7.8, 89 22.25 M66.75 0 C82.9 -1.87, 90.69 5.28, 89 22.25 M89 22.25 C90.08 37.93, 90.2 53.31, 89 66.75 M89 22.25 C88.85 36.82, 90.44 50.58, 89 66.75 M89 66.75 C87.57 83.43, 82.9 89.36, 66.75 89 M89 66.75 C90.22 80.8, 82.73 89.13, 66.75 89 M66.75 89 C49.18 88.93, 36.79 89.82, 22.25 89 M66.75 89 C49.59 88.1, 31.8 88.05, 22.25 89 M22.25 89 C6.12 87.24, -0.96 83.32, 0 66.75 M22.25 89 C5.51 89.81, 0.52 79.76, 0 66.75 M0 66.75 C0.07 50.04, -0.16 32.44, 0 22.25 M0 66.75 C0.15 50.79, -0.75 34.34, 0 22.25 M0 22.25 C0.99 6.06, 6.51 0, 22.25 0 M0 22.25 C0.31 5.74, 8.34 0.73, 22.25 0" stroke="#1e1e1e" stroke-width="2" fill="none"></path></g><g stroke-linecap="round"><g transform="translate(698.5250356465976 359.80603254762354) rotate(0 -35.453256409815594 -18.126316379265063)"><path d="M-0.99 -0.23 C-12.5 -6.28, -58.25 -30.07, -69.9 -36.24 M0.7 -1.4 C-10.81 -7.25, -58.27 -28.85, -70.32 -34.69" stroke="#1e1e1e" stroke-width="2" fill="none"></path></g><g transform="translate(698.5250356465976 359.80603254762354) rotate(0 -35.453256409815594 -18.126316379265063)"><path d="M-45.42 -32.46 C-51.56 -31.51, -56.9 -33.63, -70.32 -34.69 M-45.42 -32.46 C-50.29 -32.26, -56.87 -32.84, -70.32 -34.69" stroke="#1e1e1e" stroke-width="2" fill="none"></path></g><g transform="translate(698.5250356465976 359.80603254762354) rotate(0 -35.453256409815594 -18.126316379265063)"><path d="M-52.68 -16.98 C-57.15 -19.54, -60.82 -25.24, -70.32 -34.69 M-52.68 -16.98 C-55.99 -20.12, -60.98 -24.08, -70.32 -34.69" stroke="#1e1e1e" stroke-width="2" fill="none"></path></g></g><mask></mask><g stroke-linecap="round"><g transform="translate(757.3775170530316 433.1955240334046) rotate(0 -1.2329722807028247 145.28507636295853)"><path d="M1.01 0.02 C0.77 48.32, -1.89 241.28, -2.43 289.59" stroke="#1e1e1e" stroke-width="2.5" fill="none" stroke-dasharray="8 10"></path></g><g transform="translate(757.3775170530316 433.1955240334046) rotate(0 -1.2329722807028247 145.28507636295853)"><path d="M-10.68 266 C-8.9 271.13, -8.76 276.58, -2.43 289.59" stroke="#1e1e1e" stroke-width="2.5" fill="none"></path></g><g transform="translate(757.3775170530316 433.1955240334046) rotate(0 -1.2329722807028247 145.28507636295853)"><path d="M6.42 266.21 C4.48 271.44, 0.89 276.85, -2.43 289.59" stroke="#1e1e1e" stroke-width="2.5" fill="none"></path></g></g><mask></mask><g transform="translate(938.5125755345148 745.0190826510388) rotate(0 68.4580078125 20.700000000000045)"><text x="0" y="33.120703125" font-family="Helvetica, Segoe UI Emoji" font-size="36px" fill="#1e1e1e" text-anchor="start" style="white-space: pre;" direction="ltr" dominant-baseline="alphabetic">B's main</text></g><g stroke-linecap="round"><g transform="translate(1038.0496443847173 743.0343597481324) rotate(0 1.3026365289961177 -51.55526350496439)"><path d="M0.23 -0.68 C0.77 -17.54, 3.01 -85.19, 3.29 -102.12 M-1.11 1.58 C-0.67 -15.51, 2.39 -86.11, 2.71 -103.72" stroke="#1e1e1e" stroke-width="2" fill="none"></path></g><g transform="translate(1038.0496443847173 743.0343597481324) rotate(0 1.3026365289961177 -51.55526350496439)"><path d="M10.49 -79.96 C7.19 -86.01, 7.62 -95.48, 2.71 -103.72 M10.49 -79.96 C8.1 -89.65, 5.35 -98.66, 2.71 -103.72" stroke="#1e1e1e" stroke-width="2" fill="none"></path></g><g transform="translate(1038.0496443847173 743.0343597481324) rotate(0 1.3026365289961177 -51.55526350496439)"><path d="M-6.6 -80.51 C-4.72 -86.43, 0.89 -95.73, 2.71 -103.72 M-6.6 -80.51 C-2.59 -90.03, 1.05 -98.83, 2.71 -103.72" stroke="#1e1e1e" stroke-width="2" fill="none"></path></g></g><mask></mask><g stroke-linecap="round" transform="translate(1002.4098544085123 543.1580504541116) rotate(0 44.5 44.5)"><path d="M22.25 0 C42.27 3.06, 60.07 1.6, 66.75 0 C79.51 2.28, 90.37 10.08, 89 22.25 C90.82 34.66, 91.55 48.49, 89 66.75 C86.57 82.91, 81.23 88.72, 66.75 89 C50.14 91.98, 33.55 92, 22.25 89 C8.94 91.43, -0.33 83.04, 0 66.75 C1.82 49.38, -3.09 29.75, 0 22.25 C-1.03 10.41, 8.51 1.87, 22.25 0" stroke="none" stroke-width="0" fill="#ffc9c9"></path><path d="M22.25 0 C38.1 -1.38, 52.13 0.14, 66.75 0 M22.25 0 C37.2 -0.57, 51.17 0.21, 66.75 0 M66.75 0 C80.45 1.15, 89.11 8.69, 89 22.25 M66.75 0 C81.49 0.34, 91.29 5.74, 89 22.25 M89 22.25 C89.9 31.53, 91.1 44.98, 89 66.75 M89 22.25 C89.73 36.45, 89.74 50.06, 89 66.75 M89 66.75 C88.93 79.59, 81.53 90.19, 66.75 89 M89 66.75 C89.96 83.62, 81.92 87.38, 66.75 89 M66.75 89 C51.5 87.55, 37.02 87.88, 22.25 89 M66.75 89 C49.76 88.36, 32.97 89.46, 22.25 89 M22.25 89 C8.73 89.21, -0.44 81.56, 0 66.75 M22.25 89 C5.39 90.41, 1.01 79.85, 0 66.75 M0 66.75 C-0.55 52.84, -1.41 36.06, 0 22.25 M0 66.75 C0.34 53.73, -0.79 40.4, 0 22.25 M0 22.25 C-0.82 7.14, 8.04 -1.63, 22.25 0 M0 22.25 C-0.87 6.53, 5.36 -0.31, 22.25 0" stroke="#1e1e1e" stroke-width="2" fill="none"></path></g><g stroke-linecap="round"><g transform="translate(996.117484277855 580.401997578304) rotate(0 -186.95044509645902 -1.4384661026033427)"><path d="M-0.67 0.89 C-63.07 0.28, -311.57 -1.86, -373.66 -2.65 M1.17 0.31 C-61.41 -0.77, -312.02 -4.09, -374.48 -4.65" stroke="#1e1e1e" stroke-width="2" fill="none"></path></g><g transform="translate(996.117484277855 580.401997578304) rotate(0 -186.95044509645902 -1.4384661026033427)"><path d="M-350.9 -12.93 C-357.77 -9.7, -367.3 -6, -374.48 -4.65 M-350.9 -12.93 C-355.5 -11.48, -361.73 -8.95, -374.48 -4.65" stroke="#1e1e1e" stroke-width="2" fill="none"></path></g><g transform="translate(996.117484277855 580.401997578304) rotate(0 -186.95044509645902 -1.4384661026033427)"><path d="M-351.09 4.17 C-358.04 1.29, -367.5 -1.12, -374.48 -4.65 M-351.09 4.17 C-355.78 1.88, -361.96 0.67, -374.48 -4.65" stroke="#1e1e1e" stroke-width="2" fill="none"></path></g></g><mask></mask><g stroke-linecap="round"><g transform="translate(1000.9548528617274 595.3723512431916) rotate(0 -95.63970876252881 76.812204703102)"><path d="M0.24 0.23 C-31.41 25.53, -158.82 127.27, -190.59 152.65 M-1.1 -0.69 C-32.79 24.64, -159.58 128.02, -191.18 153.68" stroke="#1e1e1e" stroke-width="2" fill="none"></path></g><g transform="translate(1000.9548528617274 595.3723512431916) rotate(0 -95.63970876252881 76.812204703102)"><path d="M-178.36 132.22 C-180.94 138.62, -186.08 144.19, -191.18 153.68 M-178.36 132.22 C-181.47 137.21, -183.5 141.72, -191.18 153.68" stroke="#1e1e1e" stroke-width="2" fill="none"></path></g><g transform="translate(1000.9548528617274 595.3723512431916) rotate(0 -95.63970876252881 76.812204703102)"><path d="M-167.56 145.48 C-172.88 148.67, -180.65 151, -191.18 153.68 M-167.56 145.48 C-172.98 147.72, -177.24 149.48, -191.18 153.68" stroke="#1e1e1e" stroke-width="2" fill="none"></path></g></g><mask></mask><g stroke-linecap="round" transform="translate(1137.2197251374125 237.65031644389592) rotate(0 44.5 44.5)"><path d="M22.25 0 C35.68 0.72, 47.67 -1.84, 66.75 0 C84.51 2.32, 92.43 10.78, 89 22.25 C87.41 34.55, 92.43 48.33, 89 66.75 C92.57 78.51, 78.85 90.2, 66.75 89 C51.3 91.21, 38.32 92.21, 22.25 89 C10.61 92.04, -1.95 85.06, 0 66.75 C0.28 57.34, -1.35 45.18, 0 22.25 C-1.39 6.48, 7.34 -1.12, 22.25 0" stroke="none" stroke-width="0" fill="#a5d8ff"></path><path d="M22.25 0 C35.31 -0.77, 49.29 0.42, 66.75 0 M22.25 0 C32.2 -0.37, 40.29 -0.35, 66.75 0 M66.75 0 C82.2 -0.54, 90.85 8.84, 89 22.25 M66.75 0 C81.98 -0.88, 90.5 6.37, 89 22.25 M89 22.25 C89.14 39.85, 90.99 56.36, 89 66.75 M89 22.25 C89.18 32.43, 89.19 42.4, 89 66.75 M89 66.75 C90.25 79.79, 80.44 88.35, 66.75 89 M89 66.75 C88.46 82.12, 79.56 87.27, 66.75 89 M66.75 89 C49.36 89.58, 31.59 88.78, 22.25 89 M66.75 89 C49.78 88.73, 33.55 89.72, 22.25 89 M22.25 89 C6.84 90.83, 1.69 80.8, 0 66.75 M22.25 89 C6.66 90.18, 1.06 81.75, 0 66.75 M0 66.75 C1.87 54.25, 0.36 41.23, 0 22.25 M0 66.75 C0.86 54.37, -0.06 42.5, 0 22.25 M0 22.25 C1.24 7.89, 7.13 -1.82, 22.25 0 M0 22.25 C0.37 7.61, 6.29 -1.77, 22.25 0" stroke="#1e1e1e" stroke-width="2" fill="none"></path></g><g stroke-linecap="round"><g transform="translate(1122.852803590837 275.70494757758433) rotate(0 -249.2875367775364 -1.2079475282000658)"><path d="M0.08 0.66 C-82.84 0.34, -414.36 -1.57, -497.43 -1.99 M-1.33 -0.03 C-84.32 -0.72, -414.84 -3.24, -497.78 -3.89" stroke="#1e1e1e" stroke-width="2" fill="none"></path></g><g transform="translate(1122.852803590837 275.70494757758433) rotate(0 -249.2875367775364 -1.2079475282000658)"><path d="M-474.23 -12.25 C-480.36 -7.76, -488 -6.7, -497.78 -3.89 M-474.23 -12.25 C-482.55 -9.19, -491.14 -7.21, -497.78 -3.89" stroke="#1e1e1e" stroke-width="2" fill="none"></path></g><g transform="translate(1122.852803590837 275.70494757758433) rotate(0 -249.2875367775364 -1.2079475282000658)"><path d="M-474.36 4.85 C-480.45 4.08, -488.05 -0.12, -497.78 -3.89 M-474.36 4.85 C-482.57 2.01, -491.12 -1.92, -497.78 -3.89" stroke="#1e1e1e" stroke-width="2" fill="none"></path></g></g><mask></mask><g stroke-linecap="round"><g transform="translate(1156.4362058515985 342.45184288071596) rotate(0 -172.36355812145825 17.93167207405827)"><path d="M0.96 -0.24 C-56.7 5.76, -287.63 30.46, -345.42 36.68 M0 -1.41 C-57.31 4.2, -285.83 28.86, -343.08 34.98" stroke="#1e1e1e" stroke-width="2" fill="none"></path></g><g transform="translate(1156.4362058515985 342.45184288071596) rotate(0 -172.36355812145825 17.93167207405827)"><path d="M-320.63 23.97 C-328.64 26.75, -334.55 29.91, -343.08 34.98 M-320.63 23.97 C-329.72 27.64, -337.64 33.64, -343.08 34.98" stroke="#1e1e1e" stroke-width="2" fill="none"></path></g><g transform="translate(1156.4362058515985 342.45184288071596) rotate(0 -172.36355812145825 17.93167207405827)"><path d="M-318.8 40.98 C-327.53 37.96, -334.07 35.31, -343.08 34.98 M-318.8 40.98 C-328.56 37.91, -337.2 37.16, -343.08 34.98" stroke="#1e1e1e" stroke-width="2" fill="none"></path></g></g><mask></mask><g transform="translate(1284.9285410218008 118.68818659224553) rotate(0 68.4580078125 20.700000000000045)"><text x="0" y="33.120703125" font-family="Helvetica, Segoe UI Emoji" font-size="36px" fill="#1e1e1e" text-anchor="start" style="white-space: pre;" direction="ltr" dominant-baseline="alphabetic">A's main</text></g><g stroke-linecap="round"><g transform="translate(1295.9311049899113 162.83938816138425) rotate(0 -30.563350882852887 34.896330001546175)"><path d="M0.11 -1.12 C-10.03 10.44, -49.81 57.5, -59.99 69.21 M-1.29 0.91 C-11.56 12.64, -50.28 58.91, -60.33 70.44" stroke="#1e1e1e" stroke-width="2" fill="none"></path></g><g transform="translate(1295.9311049899113 162.83938816138425) rotate(0 -30.563350882852887 34.896330001546175)"><path d="M-51.6 47.01 C-56.76 57.67, -59.13 64.83, -60.33 70.44 M-51.6 47.01 C-52.74 52.82, -56.35 58.9, -60.33 70.44" stroke="#1e1e1e" stroke-width="2" fill="none"></path></g><g transform="translate(1295.9311049899113 162.83938816138425) rotate(0 -30.563350882852887 34.896330001546175)"><path d="M-38.59 58.11 C-48.59 64.63, -55.81 67.65, -60.33 70.44 M-38.59 58.11 C-42.97 61.26, -49.78 64.61, -60.33 70.44" stroke="#1e1e1e" stroke-width="2" fill="none"></path></g></g><mask></mask><g stroke-linecap="round"><g transform="translate(1168.731779525858 335.5110122977544) rotate(0 -194.7944260965911 190.91855464937748)"><path d="M0.37 -0.16 C-64.58 63.43, -323.62 318.96, -388.62 382.49" stroke="#1e1e1e" stroke-width="2.5" fill="none" stroke-dasharray="8 10"></path></g><g transform="translate(1168.731779525858 335.5110122977544) rotate(0 -194.7944260965911 190.91855464937748)"><path d="M-377.85 359.92 C-382.16 370.42, -385.04 377.64, -388.62 382.49" stroke="#1e1e1e" stroke-width="2.5" fill="none"></path></g><g transform="translate(1168.731779525858 335.5110122977544) rotate(0 -194.7944260965911 190.91855464937748)"><path d="M-365.87 372.12 C-374.98 377.88, -382.55 380.31, -388.62 382.49" stroke="#1e1e1e" stroke-width="2.5" fill="none"></path></g></g><mask></mask><g stroke-linecap="round"><g transform="translate(274.89231744342067 322.80634353664254) rotate(0 9.757047791936202e-7 93.1505999866522)"><path d="M0.61 -0.71 C0.7 30.43, -0.02 156.27, -0.14 187.5" stroke="#1e1e1e" stroke-width="2.5" fill="none" stroke-dasharray="8 10"></path></g><g transform="translate(274.89231744342067 322.80634353664254) rotate(0 9.757047791936202e-7 93.1505999866522)"><path d="M-8.58 163.96 C-7.57 169.42, -2.35 175.23, -0.14 187.5" stroke="#1e1e1e" stroke-width="2.5" fill="none"></path></g><g transform="translate(274.89231744342067 322.80634353664254) rotate(0 9.757047791936202e-7 93.1505999866522)"><path d="M8.52 164.04 C5.37 169.57, 6.43 175.35, -0.14 187.5" stroke="#1e1e1e" stroke-width="2.5" fill="none"></path></g></g><mask></mask></svg>